<?xml version="1.0" encoding="UTF-8" standalone="no"?>
<!DOCTYPE svg PUBLIC "-//W3C//DTD SVG 1.1//EN"
 "http://www.w3.org/Graphics/SVG/1.1/DTD/svg11.dtd">
<!-- Generated by graphviz version 3.0.0 (20220226.1711)
 -->
<!-- Title: コンポーネント関連図 Pages: 1 -->
<svg width="447pt" height="303pt"
 viewBox="0.00 0.00 447.00 303.00" xmlns="http://www.w3.org/2000/svg" xmlns:xlink="http://www.w3.org/1999/xlink">
<g id="graph0" class="graph" transform="scale(1 1) rotate(0) translate(4 276)">
<title>コンポーネント関連図</title>
<polygon fill="white" stroke="transparent" points="-4,27 -4,-276 443,-276 443,27 -4,27"/>
<text text-anchor="middle" x="219.5" y="15.2" font-family="Times New Roman,serif" font-size="14.00">コンポーネント関連図</text>
<!-- mrs.infrastructure.datasource.Message -->
<g id="node1" class="node">
<title>mrs.infrastructure.datasource.Message</title>
<polygon fill="lightgrey" stroke="black" points="65.37,-115.67 0.37,-115.67 0.37,-79.67 65.37,-79.67 65.37,-115.67"/>
<text text-anchor="middle" x="32.87" y="-93.97" font-family="Times New Roman,serif" font-size="14.00">Message</text>
</g>
<!-- mrs.infrastructure.security.jwt.AuthEntryPointJwt -->
<g id="node2" class="node">
<title>mrs.infrastructure.security.jwt.AuthEntryPointJwt</title>
<polygon fill="lightgrey" stroke="black" points="430.14,-260.3 308.14,-260.3 308.14,-224.3 430.14,-224.3 430.14,-260.3"/>
<text text-anchor="middle" x="369.14" y="-238.6" font-family="Times New Roman,serif" font-size="14.00">AuthEntryPointJwt</text>
</g>
<!-- mrs.infrastructure.security.jwt.JwtUtils -->
<g id="node3" class="node">
<title>mrs.infrastructure.security.jwt.JwtUtils</title>
<polygon fill="lightgrey" stroke="black" points="172.2,-272.19 111.2,-272.19 111.2,-236.19 172.2,-236.19 172.2,-272.19"/>
<text text-anchor="middle" x="141.7" y="-250.49" font-family="Times New Roman,serif" font-size="14.00">JwtUtils</text>
</g>
<!-- SPRING_SERVICE -->
<g id="node4" class="node">
<title>SPRING_SERVICE</title>
<polygon fill="#eedd82" stroke="black" points="199.21,-136.21 141.21,-136.21 141.21,-132.21 137.21,-132.21 137.21,-128.21 141.21,-128.21 141.21,-108.21 137.21,-108.21 137.21,-104.21 141.21,-104.21 141.21,-100.21 199.21,-100.21 199.21,-136.21"/>
<polyline fill="none" stroke="black" points="141.21,-132.21 145.21,-132.21 145.21,-128.21 141.21,-128.21 "/>
<polyline fill="none" stroke="black" points="141.21,-108.21 145.21,-108.21 145.21,-104.21 141.21,-104.21 "/>
<text text-anchor="middle" x="170.21" y="-114.51" font-family="Times New Roman,serif" font-size="14.00">Service</text>
</g>
<!-- SPRING_SERVICE&#45;&gt;mrs.infrastructure.datasource.Message -->
<g id="edge4" class="edge">
<title>SPRING_SERVICE&#45;&gt;mrs.infrastructure.datasource.Message</title>
<path fill="none" stroke="black" d="M141.09,-113.86C122.14,-111.02 97.1,-107.28 75.88,-104.1"/>
<polygon fill="black" stroke="black" points="76.22,-100.61 65.81,-102.59 75.18,-107.54 76.22,-100.61"/>
<text text-anchor="middle" x="104.98" y="-112.78" font-family="Times New Roman,serif" font-size="14.00">4</text>
</g>
<!-- SPRING_SERVICE&#45;&gt;mrs.infrastructure.security.jwt.JwtUtils -->
<g id="edge12" class="edge">
<title>SPRING_SERVICE&#45;&gt;mrs.infrastructure.security.jwt.JwtUtils</title>
<path fill="none" stroke="black" d="M166.43,-136.27C161.61,-159.23 153.25,-199.12 147.59,-226.08"/>
<polygon fill="black" stroke="black" points="144.13,-225.55 145.5,-236.06 150.98,-226.99 144.13,-225.55"/>
</g>
<!-- mrs.application.service.contact.ContactRepository -->
<g id="node5" class="node">
<title>mrs.application.service.contact.ContactRepository</title>
<ellipse fill="lightgrey" stroke="black" cx="298.89" cy="-170.71" rx="49.8" ry="18"/>
<text text-anchor="middle" x="298.89" y="-168.51" font-family="Times New Roman,serif" font-size="9.00">ContactRepository</text>
</g>
<!-- SPRING_SERVICE&#45;&gt;mrs.application.service.contact.ContactRepository -->
<g id="edge14" class="edge">
<title>SPRING_SERVICE&#45;&gt;mrs.application.service.contact.ContactRepository</title>
<path fill="none" stroke="black" d="M199.41,-130.13C216.21,-136.98 237.62,-145.71 256.26,-153.32"/>
<polygon fill="black" stroke="black" points="255.15,-156.64 265.73,-157.18 257.79,-150.16 255.15,-156.64"/>
<text text-anchor="middle" x="224.34" y="-145.52" font-family="Times New Roman,serif" font-size="14.00">2</text>
</g>
<!-- mrs.application.service.facility.room.MeetingRoomRepository -->
<g id="node6" class="node">
<title>mrs.application.service.facility.room.MeetingRoomRepository</title>
<ellipse fill="lightgrey" stroke="black" cx="375.92" cy="-107.65" rx="63.52" ry="18"/>
<text text-anchor="middle" x="375.92" y="-105.45" font-family="Times New Roman,serif" font-size="9.00">MeetingRoomRepository</text>
</g>
<!-- SPRING_SERVICE&#45;&gt;mrs.application.service.facility.room.MeetingRoomRepository -->
<g id="edge9" class="edge">
<title>SPRING_SERVICE&#45;&gt;mrs.application.service.facility.room.MeetingRoomRepository</title>
<path fill="none" stroke="black" d="M199.25,-116.72C226.06,-115.35 267.02,-113.24 302.75,-111.41"/>
<polygon fill="black" stroke="black" points="303.35,-114.88 313.16,-110.88 302.99,-107.89 303.35,-114.88"/>
<text text-anchor="middle" x="247.5" y="-117.87" font-family="Times New Roman,serif" font-size="14.00">2</text>
</g>
<!-- mrs.application.service.reservation.reservation.ReservationRepository -->
<g id="node7" class="node">
<title>mrs.application.service.reservation.reservation.ReservationRepository</title>
<ellipse fill="lightgrey" stroke="black" cx="123.28" cy="-179.19" rx="58.13" ry="18"/>
<text text-anchor="middle" x="123.28" y="-176.99" font-family="Times New Roman,serif" font-size="9.00">ReservationRepository</text>
</g>
<!-- SPRING_SERVICE&#45;&gt;mrs.application.service.reservation.reservation.ReservationRepository -->
<g id="edge3" class="edge">
<title>SPRING_SERVICE&#45;&gt;mrs.application.service.reservation.reservation.ReservationRepository</title>
<path fill="none" stroke="black" d="M156.13,-136.51C152.07,-141.79 147.55,-147.65 143.21,-153.3"/>
<polygon fill="black" stroke="black" points="140.35,-151.27 137.03,-161.32 145.9,-155.54 140.35,-151.27"/>
</g>
<!-- mrs.application.service.reservation.room.ReservableRoomRepository -->
<g id="node8" class="node">
<title>mrs.application.service.reservation.room.ReservableRoomRepository</title>
<ellipse fill="lightgrey" stroke="black" cx="301.53" cy="-27.99" rx="68.91" ry="18"/>
<text text-anchor="middle" x="301.53" y="-25.79" font-family="Times New Roman,serif" font-size="9.00">ReservableRoomRepository</text>
</g>
<!-- SPRING_SERVICE&#45;&gt;mrs.application.service.reservation.room.ReservableRoomRepository -->
<g id="edge7" class="edge">
<title>SPRING_SERVICE&#45;&gt;mrs.application.service.reservation.room.ReservableRoomRepository</title>
<path fill="none" stroke="black" d="M196.47,-100.17C217.09,-86.01 245.92,-66.2 268.17,-50.91"/>
<polygon fill="black" stroke="black" points="270.39,-53.63 276.65,-45.09 266.42,-47.86 270.39,-53.63"/>
<text text-anchor="middle" x="228.82" y="-64.34" font-family="Times New Roman,serif" font-size="14.00">2</text>
</g>
<!-- mrs.application.service.user.UserRepository -->
<g id="node9" class="node">
<title>mrs.application.service.user.UserRepository</title>
<ellipse fill="lightgrey" stroke="black" cx="163.17" cy="-32.87" rx="43.1" ry="18"/>
<text text-anchor="middle" x="163.17" y="-30.67" font-family="Times New Roman,serif" font-size="9.00">UserRepository</text>
</g>
<!-- SPRING_SERVICE&#45;&gt;mrs.application.service.user.UserRepository -->
<g id="edge8" class="edge">
<title>SPRING_SERVICE&#45;&gt;mrs.application.service.user.UserRepository</title>
<path fill="none" stroke="black" d="M168.72,-100.12C167.79,-88.8 166.56,-73.99 165.5,-61.15"/>
<polygon fill="black" stroke="black" points="168.97,-60.63 164.66,-50.95 162,-61.2 168.97,-60.63"/>
<text text-anchor="middle" x="163.61" y="-84.43" font-family="Times New Roman,serif" font-size="14.00">2</text>
</g>
<!-- SPRING_CONTROLLER -->
<g id="node10" class="node">
<title>SPRING_CONTROLLER</title>
<polygon fill="#eedd82" stroke="black" points="97.43,-35.54 24.43,-35.54 24.43,-31.54 20.43,-31.54 20.43,-27.54 24.43,-27.54 24.43,-7.54 20.43,-7.54 20.43,-3.54 24.43,-3.54 24.43,0.46 97.43,0.46 97.43,-35.54"/>
<polyline fill="none" stroke="black" points="24.43,-31.54 28.43,-31.54 28.43,-27.54 24.43,-27.54 "/>
<polyline fill="none" stroke="black" points="24.43,-7.54 28.43,-7.54 28.43,-3.54 24.43,-3.54 "/>
<text text-anchor="middle" x="60.93" y="-13.84" font-family="Times New Roman,serif" font-size="14.00">Controller</text>
</g>
<!-- SPRING_CONTROLLER&#45;&gt;mrs.infrastructure.datasource.Message -->
<g id="edge11" class="edge">
<title>SPRING_CONTROLLER&#45;&gt;mrs.infrastructure.datasource.Message</title>
<path fill="none" stroke="black" d="M54.56,-35.72C51.01,-45.87 46.51,-58.71 42.53,-70.06"/>
<polygon fill="black" stroke="black" points="39.21,-68.96 39.21,-79.56 45.82,-71.28 39.21,-68.96"/>
<text text-anchor="middle" x="41.55" y="-56.69" font-family="Times New Roman,serif" font-size="14.00">11</text>
</g>
<!-- SPRING_CONTROLLER&#45;&gt;SPRING_SERVICE -->
<g id="edge1" class="edge">
<title>SPRING_CONTROLLER&#45;&gt;SPRING_SERVICE</title>
<path fill="none" stroke="black" d="M80.72,-35.77C98.13,-51.81 123.63,-75.31 142.97,-93.12"/>
<polygon fill="black" stroke="black" points="140.84,-95.92 150.57,-100.12 145.59,-90.77 140.84,-95.92"/>
<text text-anchor="middle" x="104.84" y="-68.24" font-family="Times New Roman,serif" font-size="14.00">19</text>
</g>
<!-- SPRING_REPOSITORY -->
<g id="node11" class="node">
<title>SPRING_REPOSITORY</title>
<polygon fill="#eedd82" stroke="black" points="300.71,-99.19 221.71,-99.19 221.71,-95.19 217.71,-95.19 217.71,-91.19 221.71,-91.19 221.71,-71.19 217.71,-71.19 217.71,-67.19 221.71,-67.19 221.71,-63.19 300.71,-63.19 300.71,-99.19"/>
<polyline fill="none" stroke="black" points="221.71,-95.19 225.71,-95.19 225.71,-91.19 221.71,-91.19 "/>
<polyline fill="none" stroke="black" points="221.71,-71.19 225.71,-71.19 225.71,-67.19 221.71,-67.19 "/>
<text text-anchor="middle" x="261.21" y="-77.49" font-family="Times New Roman,serif" font-size="14.00">Repository</text>
</g>
<!-- SPRING_REPOSITORY&#45;&gt;mrs.application.service.contact.ContactRepository -->
<g id="edge2" class="edge">
<title>SPRING_REPOSITORY&#45;&gt;mrs.application.service.contact.ContactRepository</title>
<path fill="none" stroke="black" d="M268.83,-99.3C274.15,-111.92 281.33,-128.99 287.34,-143.27"/>
<polygon fill="black" stroke="black" points="284.17,-144.76 291.28,-152.62 290.62,-142.05 284.17,-144.76"/>
</g>
<!-- SPRING_REPOSITORY&#45;&gt;mrs.application.service.facility.room.MeetingRoomRepository -->
<g id="edge13" class="edge">
<title>SPRING_REPOSITORY&#45;&gt;mrs.application.service.facility.room.MeetingRoomRepository</title>
<path fill="none" stroke="black" d="M301.01,-90.37C305.97,-91.52 311.14,-92.71 316.33,-93.9"/>
<polygon fill="black" stroke="black" points="315.76,-97.36 326.29,-96.2 317.33,-90.54 315.76,-97.36"/>
</g>
<!-- SPRING_REPOSITORY&#45;&gt;mrs.application.service.reservation.reservation.ReservationRepository -->
<g id="edge5" class="edge">
<title>SPRING_REPOSITORY&#45;&gt;mrs.application.service.reservation.reservation.ReservationRepository</title>
<path fill="none" stroke="black" d="M235.59,-99.39C212.87,-115.53 179.6,-139.17 155.16,-156.53"/>
<polygon fill="black" stroke="black" points="153.04,-153.74 146.92,-162.39 157.1,-159.45 153.04,-153.74"/>
</g>
<!-- SPRING_REPOSITORY&#45;&gt;mrs.application.service.reservation.room.ReservableRoomRepository -->
<g id="edge10" class="edge">
<title>SPRING_REPOSITORY&#45;&gt;mrs.application.service.reservation.room.ReservableRoomRepository</title>
<path fill="none" stroke="black" d="M274.86,-63.18C277.09,-60.23 279.44,-57.13 281.79,-54.03"/>
<polygon fill="black" stroke="black" points="284.64,-56.07 287.89,-45.98 279.06,-51.84 284.64,-56.07"/>
</g>
<!-- SPRING_REPOSITORY&#45;&gt;mrs.application.service.user.UserRepository -->
<g id="edge6" class="edge">
<title>SPRING_REPOSITORY&#45;&gt;mrs.application.service.user.UserRepository</title>
<path fill="none" stroke="black" d="M224.42,-63.06C216.53,-59.17 208.19,-55.06 200.29,-51.17"/>
<polygon fill="black" stroke="black" points="201.79,-48 191.27,-46.72 198.69,-54.28 201.79,-48"/>
</g>
</g>
</svg>
