<?xml version="1.0" encoding="UTF-8" standalone="no"?>
<!DOCTYPE svg PUBLIC "-//W3C//DTD SVG 1.1//EN"
        "http://www.w3.org/Graphics/SVG/1.1/DTD/svg11.dtd">
<!-- Generated by graphviz version 3.0.0 (20220226.1711)
 -->
<!-- Title: ERD Pages: 1 -->
<svg width="546pt" height="319pt"
     viewBox="0.00 0.00 546.00 319.00" xmlns="http://www.w3.org/2000/svg">
    <g id="graph0" class="graph" transform="scale(1 1) rotate(0) translate(4 315)">
        <title>ERD</title>
        <polygon fill="white" stroke="transparent" points="-4,4 -4,-315 542,-315 542,4 -4,4"/>
        <g id="clust1" class="cluster">
            <title>cluster_SAMPLE</title>
            <polygon fill="lightyellow" stroke="black" points="411.5,-8 411.5,-83 483.5,-83 483.5,-8 411.5,-8"/>
            <text text-anchor="middle" x="447.5" y="-67.8" font-family="Times New Roman,serif" font-size="14.00">
                SAMPLE
            </text>
        </g>
        <g id="clust2" class="cluster">
            <title>cluster_RESERVE</title>
            <polygon fill="lightyellow" stroke="black" points="38.5,-91 38.5,-166 482.5,-166 482.5,-91 38.5,-91"/>
            <text text-anchor="middle" x="260.5" y="-150.8" font-family="Times New Roman,serif" font-size="14.00">
                RESERVE
            </text>
        </g>
        <g id="clust3" class="cluster">
            <title>cluster_PUBLIC</title>
            <polygon fill="lightyellow" stroke="black" points="8,-174 8,-303 530,-303 530,-174 8,-174"/>
            <text text-anchor="middle" x="269" y="-287.8" font-family="Times New Roman,serif" font-size="14.00">PUBLIC
            </text>
        </g>
        <g id="clust4" class="cluster">
            <title>cluster_SERVICE_USER</title>
            <polygon fill="lightyellow" stroke="black" points="199,-8 199,-83 318,-83 318,-8 199,-8"/>
            <text text-anchor="middle" x="258.5" y="-67.8" font-family="Times New Roman,serif" font-size="14.00">
                SERVICE_USER
            </text>
        </g>
        <!-- SAMPLE.TODO -->
        <g id="node1" class="node">
            <title>SAMPLE.TODO</title>
            <polygon fill="#eedd82" stroke="black" points="475.5,-52 419.5,-52 419.5,-16 475.5,-16 475.5,-52"/>
            <text text-anchor="middle" x="447.5" y="-30.3" font-family="Times New Roman,serif" font-size="14.00">TODO
            </text>
        </g>
        <!-- RESERVE.会議室 -->
        <g id="node2" class="node">
            <title>RESERVE.会議室</title>
            <polygon fill="#eedd82" stroke="black" points="114.5,-135 46.5,-135 46.5,-99 114.5,-99 114.5,-135"/>
            <text text-anchor="middle" x="80.5" y="-113.3" font-family="Times New Roman,serif" font-size="14.00">会議室
            </text>
        </g>
        <!-- RESERVE.予約 -->
        <g id="node3" class="node">
            <title>RESERVE.予約</title>
            <polygon fill="#eedd82" stroke="black" points="474.5,-135 420.5,-135 420.5,-99 474.5,-99 474.5,-135"/>
            <text text-anchor="middle" x="447.5" y="-113.3" font-family="Times New Roman,serif" font-size="14.00">予約
            </text>
        </g>
        <!-- RESERVE.予約可能会議室 -->
        <g id="node4" class="node">
            <title>RESERVE.予約可能会議室</title>
            <polygon fill="#eedd82" stroke="black" points="327.5,-135 190.5,-135 190.5,-99 327.5,-99 327.5,-135"/>
            <text text-anchor="middle" x="259" y="-113.3" font-family="Times New Roman,serif" font-size="14.00">
                予約可能会議室
            </text>
        </g>
        <!-- RESERVE.予約&#45;&gt;RESERVE.予約可能会議室 -->
        <g id="edge4" class="edge">
            <title>RESERVE.予約&#45;&gt;RESERVE.予約可能会議室</title>
            <path fill="none" stroke="black" stroke-dasharray="5,2"
                  d="M420.17,-117C398.71,-117 367.24,-117 337.87,-117"/>
            <polygon fill="black" stroke="black"
                     points="327.59,-117 337.59,-112.5 332.59,-117 337.59,-117 337.59,-117 337.59,-117 332.59,-117 337.59,-121.5 327.59,-117 327.59,-117"/>
        </g>
        <!-- SERVICE_USER.会員 -->
        <g id="node10" class="node">
            <title>SERVICE_USER.会員</title>
            <polygon fill="#eedd82" stroke="black" points="286,-52 232,-52 232,-16 286,-16 286,-52"/>
            <text text-anchor="middle" x="259" y="-30.3" font-family="Times New Roman,serif" font-size="14.00">会員</text>
        </g>
        <!-- RESERVE.予約&#45;&gt;SERVICE_USER.会員 -->
        <g id="edge5" class="edge">
            <title>RESERVE.予約&#45;&gt;SERVICE_USER.会員</title>
            <path fill="none" stroke="black" stroke-dasharray="5,2"
                  d="M420.17,-106.63C406.1,-101 388.53,-93.8 373,-87 346.78,-75.51 317.52,-61.76 295.35,-51.15"/>
            <polygon fill="black" stroke="black"
                     points="286.31,-46.81 297.27,-47.08 290.82,-48.97 295.33,-51.14 295.33,-51.14 295.33,-51.14 290.82,-48.97 293.38,-55.19 286.31,-46.81 286.31,-46.81"/>
        </g>
        <!-- RESERVE.予約可能会議室&#45;&gt;RESERVE.会議室 -->
        <g id="edge6" class="edge">
            <title>RESERVE.予約可能会議室&#45;&gt;RESERVE.会議室</title>
            <path fill="none" stroke="black" stroke-dasharray="5,2"
                  d="M190.27,-117C168.35,-117 144.64,-117 124.97,-117"/>
            <polygon fill="black" stroke="black"
                     points="114.79,-117 124.79,-112.5 119.79,-117 124.79,-117 124.79,-117 124.79,-117 119.79,-117 124.79,-121.5 114.79,-117 114.79,-117"/>
        </g>
        <!-- PUBLIC.RESERVATION -->
        <g id="node5" class="node">
            <title>PUBLIC.RESERVATION</title>
            <polygon fill="#eedd82" stroke="black" points="504.5,-272 390.5,-272 390.5,-236 504.5,-236 504.5,-272"/>
            <text text-anchor="middle" x="447.5" y="-250.3" font-family="Times New Roman,serif" font-size="14.00">
                RESERVATION
            </text>
        </g>
        <!-- PUBLIC.USR -->
        <g id="node6" class="node">
            <title>PUBLIC.USR</title>
            <polygon fill="#eedd82" stroke="black" points="286,-218 232,-218 232,-182 286,-182 286,-218"/>
            <text text-anchor="middle" x="259" y="-196.3" font-family="Times New Roman,serif" font-size="14.00">USR
            </text>
        </g>
        <!-- PUBLIC.RESERVATION&#45;&gt;PUBLIC.USR -->
        <g id="edge3" class="edge">
            <title>PUBLIC.RESERVATION&#45;&gt;PUBLIC.USR</title>
            <path fill="none" stroke="black" stroke-dasharray="5,2"
                  d="M390.29,-237.72C359.67,-228.86 322.68,-218.15 295.95,-210.41"/>
            <polygon fill="black" stroke="black"
                     points="286.24,-207.6 297.1,-206.06 291.05,-208.99 295.85,-210.38 295.85,-210.38 295.85,-210.38 291.05,-208.99 294.6,-214.7 286.24,-207.6 286.24,-207.6"/>
        </g>
        <!-- PUBLIC.RESERVABLE_ROOM -->
        <g id="node7" class="node">
            <title>PUBLIC.RESERVABLE_ROOM</title>
            <polygon fill="#eedd82" stroke="black" points="337,-272 181,-272 181,-236 337,-236 337,-272"/>
            <text text-anchor="middle" x="259" y="-250.3" font-family="Times New Roman,serif" font-size="14.00">
                RESERVABLE_ROOM
            </text>
        </g>
        <!-- PUBLIC.RESERVATION&#45;&gt;PUBLIC.RESERVABLE_ROOM -->
        <g id="edge2" class="edge">
            <title>PUBLIC.RESERVATION&#45;&gt;PUBLIC.RESERVABLE_ROOM</title>
            <path fill="none" stroke="black" stroke-dasharray="5,2" d="M390.29,-254C376.7,-254 361.85,-254 347.2,-254"/>
            <polygon fill="black" stroke="black"
                     points="337.11,-254 347.11,-249.5 342.11,-254 347.11,-254 347.11,-254 347.11,-254 342.11,-254 347.11,-258.5 337.11,-254 337.11,-254"/>
        </g>
        <!-- PUBLIC.MEETING_ROOM -->
        <g id="node9" class="node">
            <title>PUBLIC.MEETING_ROOM</title>
            <polygon fill="#eedd82" stroke="black" points="145,-272 16,-272 16,-236 145,-236 145,-272"/>
            <text text-anchor="middle" x="80.5" y="-250.3" font-family="Times New Roman,serif" font-size="14.00">
                MEETING_ROOM
            </text>
        </g>
        <!-- PUBLIC.RESERVABLE_ROOM&#45;&gt;PUBLIC.MEETING_ROOM -->
        <g id="edge1" class="edge">
            <title>PUBLIC.RESERVABLE_ROOM&#45;&gt;PUBLIC.MEETING_ROOM</title>
            <path fill="none" stroke="black" stroke-dasharray="5,2"
                  d="M180.84,-254C172.33,-254 163.69,-254 155.22,-254"/>
            <polygon fill="black" stroke="black"
                     points="145.01,-254 155.01,-249.5 150.01,-254 155.01,-254 155.01,-254 155.01,-254 150.01,-254 155.01,-258.5 145.01,-254 145.01,-254"/>
        </g>
        <!-- PUBLIC.flyway_schema_history -->
        <g id="node8" class="node">
            <title>PUBLIC.flyway_schema_history</title>
            <polygon fill="#eedd82" stroke="black" points="522,-218 373,-218 373,-182 522,-182 522,-218"/>
            <text text-anchor="middle" x="447.5" y="-196.3" font-family="Times New Roman,serif" font-size="14.00">
                flyway_schema_history
            </text>
        </g>
    </g>
</svg>
