<?xml version="1.0" encoding="UTF-8" standalone="no"?>
<!DOCTYPE svg PUBLIC "-//W3C//DTD SVG 1.1//EN"
        "http://www.w3.org/Graphics/SVG/1.1/DTD/svg11.dtd">
<!-- Generated by graphviz version 3.0.0 (20220226.1711)
 -->
<!-- Title: ERD Pages: 1 -->
<svg width="552pt" height="347pt"
     viewBox="0.00 0.00 552.00 347.00" xmlns="http://www.w3.org/2000/svg">
    <g id="graph0" class="graph" transform="scale(1 1) rotate(0) translate(4 343)">
        <title>ERD</title>
        <polygon fill="white" stroke="transparent" points="-4,4 -4,-343 548,-343 548,4 -4,4"/>
        <g id="clust2" class="cluster">
            <title>cluster_USR</title>
            <polygon fill="lightyellow" stroke="black" points="187,-8 187,-103 295,-103 295,-8 187,-8"/>
            <text text-anchor="middle" x="241" y="-87.8" font-family="Times New Roman,serif" font-size="14.00">USR
            </text>
        </g>
        <g id="clust3" class="cluster">
            <title>cluster_PUBLIC</title>
            <polygon fill="lightyellow" stroke="black" points="349,-256 349,-331 536,-331 536,-256 349,-256"/>
            <text text-anchor="middle" x="442.5" y="-315.8" font-family="Times New Roman,serif" font-size="14.00">
                PUBLIC
            </text>
        </g>
        <g id="clust1" class="cluster">
            <title>cluster_RESERVATION</title>
            <polygon fill="lightyellow" stroke="black" points="8,-111 8,-248 505,-248 505,-111 8,-111"/>
            <text text-anchor="middle" x="256.5" y="-232.8" font-family="Times New Roman,serif" font-size="14.00">
                RESERVATION
            </text>
        </g>
        <!-- RESERVATION.会議室 -->
        <g id="node1" class="node">
            <title>RESERVATION.会議室</title>
            <polygon fill="#eee9bf" stroke="transparent" points="24,-143 24,-191 117,-191 117,-143 24,-143"/>
            <polygon fill="#eedd82" stroke="transparent" points="24.5,-164 24.5,-191 117.5,-191 117.5,-164 24.5,-164"/>
            <polygon fill="none" stroke="black" points="24.5,-164 24.5,-191 117.5,-191 117.5,-164 24.5,-164"/>
            <text text-anchor="start" x="42.5" y="-174.8" font-family="Times New Roman,serif" font-weight="bold"
                  font-size="14.00">会議室
            </text>
            <polygon fill="none" stroke="black" points="24.5,-143 24.5,-164 117.5,-164 117.5,-143 24.5,-143"/>
            <text text-anchor="start" x="27.5" y="-149.8" font-family="Times New Roman,serif" font-size="14.00">会議室番号
            </text>
        </g>
        <!-- RESERVATION.予約 -->
        <g id="node2" class="node">
            <title>RESERVATION.予約</title>
            <polygon fill="#eee9bf" stroke="transparent" points="396,-123 396,-213 489,-213 489,-123 396,-123"/>
            <polygon fill="#eedd82" stroke="transparent"
                     points="396.5,-186 396.5,-213 489.5,-213 489.5,-186 396.5,-186"/>
            <polygon fill="none" stroke="black" points="396.5,-186 396.5,-213 489.5,-213 489.5,-186 396.5,-186"/>
            <text text-anchor="start" x="424" y="-196.8" font-family="Times New Roman,serif" font-weight="bold"
                  font-size="14.00">予約
            </text>
            <polygon fill="none" stroke="black" points="396.5,-165 396.5,-186 489.5,-186 489.5,-165 396.5,-165"/>
            <text text-anchor="start" x="399.5" y="-171.8" font-family="Times New Roman,serif" font-size="14.00">予約日
            </text>
            <polygon fill="none" stroke="black" points="396.5,-144 396.5,-165 489.5,-165 489.5,-144 396.5,-144"/>
            <text text-anchor="start" x="399.5" y="-150.8" font-family="Times New Roman,serif" font-size="14.00">会議室番号
            </text>
            <polygon fill="none" stroke="black" points="396.5,-123 396.5,-144 489.5,-144 489.5,-123 396.5,-123"/>
            <text text-anchor="start" x="399.5" y="-129.8" font-family="Times New Roman,serif" font-size="14.00">会員番号
            </text>
        </g>
        <!-- RESERVATION.予約可能会議室 -->
        <g id="node3" class="node">
            <title>RESERVATION.予約可能会議室</title>
            <polygon fill="#eee9bf" stroke="transparent"
                     points="169,-143.5 169,-212.5 313,-212.5 313,-143.5 169,-143.5"/>
            <polygon fill="#eedd82" stroke="transparent" points="169,-185 169,-212 313,-212 313,-185 169,-185"/>
            <polygon fill="none" stroke="black" points="169,-185 169,-212 313,-212 313,-185 169,-185"/>
            <text text-anchor="start" x="175" y="-195.8" font-family="Times New Roman,serif" font-weight="bold"
                  font-size="14.00">予約可能会議室
            </text>
            <polygon fill="none" stroke="black" points="169,-164 169,-185 313,-185 313,-164 169,-164"/>
            <text text-anchor="start" x="172" y="-170.8" font-family="Times New Roman,serif" font-size="14.00">予約日
            </text>
            <polygon fill="none" stroke="black" points="169,-143 169,-164 313,-164 313,-143 169,-143"/>
            <text text-anchor="start" x="172" y="-149.8" font-family="Times New Roman,serif" font-size="14.00">会議室番号
            </text>
        </g>
        <!-- RESERVATION.予約&#45;&gt;RESERVATION.予約可能会議室 -->
        <g id="edge1" class="edge">
            <title>RESERVATION.予約:r0&#45;&gt;RESERVATION.予約可能会議室:r1</title>
            <path fill="none" stroke="black" stroke-dasharray="5,2"
                  d="M395.5,-176C362.95,-176 352.35,-174.39 324.26,-174.06"/>
            <polygon fill="black" stroke="black"
                     points="314,-174 324.03,-169.56 319,-174.03 324,-174.06 324,-174.06 324,-174.06 319,-174.03 323.97,-178.56 314,-174 314,-174"/>
        </g>
        <!-- RESERVATION.予約&#45;&gt;RESERVATION.予約可能会議室 -->
        <g id="edge2" class="edge">
            <title>RESERVATION.予約:r2&#45;&gt;RESERVATION.予約可能会議室:r3</title>
            <path fill="none" stroke="black" stroke-dasharray="5,2"
                  d="M395.5,-154C362.95,-154 352.34,-153.19 324.25,-153.03"/>
            <polygon fill="black" stroke="black"
                     points="314,-153 324.01,-148.53 319,-153.01 324,-153.03 324,-153.03 324,-153.03 319,-153.01 323.99,-157.53 314,-153 314,-153"/>
        </g>
        <!-- USR.会員 -->
        <g id="node4" class="node">
            <title>USR.会員</title>
            <polygon fill="#eee9bf" stroke="transparent" points="203,-20 203,-68 279,-68 279,-20 203,-20"/>
            <polygon fill="#eedd82" stroke="transparent" points="203,-41 203,-68 279,-68 279,-41 203,-41"/>
            <polygon fill="none" stroke="black" points="203,-41 203,-68 279,-68 279,-41 203,-41"/>
            <text text-anchor="start" x="222" y="-51.8" font-family="Times New Roman,serif" font-weight="bold"
                  font-size="14.00">会員
            </text>
            <polygon fill="none" stroke="black" points="203,-20 203,-41 279,-41 279,-20 203,-20"/>
            <text text-anchor="start" x="206" y="-26.8" font-family="Times New Roman,serif" font-size="14.00">会員番号
            </text>
        </g>
        <!-- RESERVATION.予約&#45;&gt;USR.会員 -->
        <g id="edge3" class="edge">
            <title>RESERVATION.予約:r4&#45;&gt;USR.会員:r5</title>
            <path fill="none" stroke="black" stroke-dasharray="5,2"
                  d="M395.5,-133C330.35,-133 346.71,-40.58 290.15,-30.83"/>
            <polygon fill="black" stroke="black"
                     points="280,-30 290.33,-26.33 284.98,-30.41 289.97,-30.81 289.97,-30.81 289.97,-30.81 284.98,-30.41 289.6,-35.3 280,-30 280,-30"/>
        </g>
        <!-- RESERVATION.予約可能会議室&#45;&gt;RESERVATION.会議室 -->
        <g id="edge4" class="edge">
            <title>RESERVATION.予約可能会議室:r3&#45;&gt;RESERVATION.会議室:r6</title>
            <path fill="none" stroke="black" stroke-dasharray="5,2" d="M168,-153C149.78,-153 142.88,-153 128.55,-153"/>
            <polygon fill="black" stroke="black"
                     points="118.5,-153 128.5,-148.5 123.5,-153 128.5,-153 128.5,-153 128.5,-153 123.5,-153 128.5,-157.5 118.5,-153 118.5,-153"/>
        </g>
        <!-- PUBLIC.flyway_schema_history -->
        <g id="node5" class="node">
            <title>PUBLIC.flyway_schema_history</title>
            <polygon fill="#eee9bf" stroke="transparent"
                     points="365,-268.5 365,-295.5 520,-295.5 520,-268.5 365,-268.5"/>
            <polygon fill="#eedd82" stroke="transparent"
                     points="365.5,-268 365.5,-295 520.5,-295 520.5,-268 365.5,-268"/>
            <polygon fill="none" stroke="black" points="365.5,-268 365.5,-295 520.5,-295 520.5,-268 365.5,-268"/>
            <text text-anchor="start" x="371.5" y="-278.8" font-family="Times New Roman,serif" font-weight="bold"
                  font-size="14.00">flyway_schema_history
            </text>
        </g>
    </g>
</svg>
