<?xml version="1.0" encoding="UTF-8" standalone="no"?>
<!DOCTYPE svg PUBLIC "-//W3C//DTD SVG 1.1//EN"
        "http://www.w3.org/Graphics/SVG/1.1/DTD/svg11.dtd">
<!-- Generated by graphviz version 3.0.0 (20220226.1711)
 -->
<!-- Title: ERD Pages: 1 -->
<svg width="242pt" height="152pt"
     viewBox="0.00 0.00 242.00 152.00" xmlns="http://www.w3.org/2000/svg">
    <g id="graph0" class="graph" transform="scale(1 1) rotate(0) translate(4 148)">
        <title>ERD</title>
        <polygon fill="white" stroke="transparent" points="-4,4 -4,-148 238,-148 238,4 -4,4"/>
        <!-- SAMPLE -->
        <g id="node1" class="node">
            <title>SAMPLE</title>
            <polygon fill="lightyellow" stroke="black" points="230,-36 159,-36 159,0 230,0 230,-36"/>
            <text text-anchor="middle" x="194.5" y="-14.3" font-family="Times New Roman,serif" font-size="14.00">
                SAMPLE
            </text>
        </g>
        <!-- RESERVE -->
        <g id="node2" class="node">
            <title>RESERVE</title>
            <polygon fill="lightyellow" stroke="black" points="234,-90 155,-90 155,-54 234,-54 234,-90"/>
            <text text-anchor="middle" x="194.5" y="-68.3" font-family="Times New Roman,serif" font-size="14.00">
                RESERVE
            </text>
        </g>
        <!-- SERVICE_USER -->
        <g id="node4" class="node">
            <title>SERVICE_USER</title>
            <polygon fill="lightyellow" stroke="black" points="119,-90 0,-90 0,-54 119,-54 119,-90"/>
            <text text-anchor="middle" x="59.5" y="-68.3" font-family="Times New Roman,serif" font-size="14.00">
                SERVICE_USER
            </text>
        </g>
        <!-- RESERVE&#45;&gt;SERVICE_USER -->
        <g id="edge1" class="edge">
            <title>RESERVE&#45;&gt;SERVICE_USER</title>
            <path fill="none" stroke="black" stroke-dasharray="5,2" d="M154.67,-72C146.74,-72 138.16,-72 129.53,-72"/>
            <polygon fill="black" stroke="black"
                     points="119.4,-72 129.4,-67.5 124.4,-72 129.4,-72 129.4,-72 129.4,-72 124.4,-72 129.4,-76.5 119.4,-72 119.4,-72"/>
        </g>
        <!-- PUBLIC -->
        <g id="node3" class="node">
            <title>PUBLIC</title>
            <polygon fill="lightyellow" stroke="black" points="227.5,-144 161.5,-144 161.5,-108 227.5,-108 227.5,-144"/>
            <text text-anchor="middle" x="194.5" y="-122.3" font-family="Times New Roman,serif" font-size="14.00">
                PUBLIC
            </text>
        </g>
    </g>
</svg>
