<?xml version="1.0" encoding="UTF-8" standalone="no"?>
<!DOCTYPE svg PUBLIC "-//W3C//DTD SVG 1.1//EN"
        "http://www.w3.org/Graphics/SVG/1.1/DTD/svg11.dtd">
<!-- Generated by graphviz version 3.0.0 (20220226.1711)
 -->
<!-- Title: ERD Pages: 1 -->
<svg width="213pt" height="98pt"
     viewBox="0.00 0.00 213.00 98.00" xmlns="http://www.w3.org/2000/svg">
    <g id="graph0" class="graph" transform="scale(1 1) rotate(0) translate(4 94)">
        <title>ERD</title>
        <polygon fill="white" stroke="transparent" points="-4,4 -4,-94 209,-94 209,4 -4,4"/>
        <!-- RESERVATION -->
        <g id="node1" class="node">
            <title>RESERVATION</title>
            <polygon fill="lightyellow" stroke="black" points="205,-36 91,-36 91,0 205,0 205,-36"/>
            <text text-anchor="middle" x="148" y="-14.3" font-family="Times New Roman,serif" font-size="14.00">
                RESERVATION
            </text>
        </g>
        <!-- AUTH -->
        <g id="node2" class="node">
            <title>AUTH</title>
            <polygon fill="lightyellow" stroke="black" points="55,-36 0,-36 0,0 55,0 55,-36"/>
            <text text-anchor="middle" x="27.5" y="-14.3" font-family="Times New Roman,serif" font-size="14.00">AUTH
            </text>
        </g>
        <!-- RESERVATION&#45;&gt;AUTH -->
        <g id="edge1" class="edge">
            <title>RESERVATION&#45;&gt;AUTH</title>
            <path fill="none" stroke="black" stroke-dasharray="5,2" d="M90.87,-18C82.22,-18 73.48,-18 65.39,-18"/>
            <polygon fill="black" stroke="black"
                     points="55.2,-18 65.2,-13.5 60.2,-18 65.2,-18 65.2,-18 65.2,-18 60.2,-18 65.2,-22.5 55.2,-18 55.2,-18"/>
        </g>
        <!-- PUBLIC -->
        <g id="node3" class="node">
            <title>PUBLIC</title>
            <polygon fill="lightyellow" stroke="black" points="181,-90 115,-90 115,-54 181,-54 181,-90"/>
            <text text-anchor="middle" x="148" y="-68.3" font-family="Times New Roman,serif" font-size="14.00">PUBLIC
            </text>
        </g>
    </g>
</svg>
