<?xml version="1.0" encoding="UTF-8" standalone="no"?>
<!DOCTYPE svg PUBLIC "-//W3C//DTD SVG 1.1//EN"
        "http://www.w3.org/Graphics/SVG/1.1/DTD/svg11.dtd">
<!-- Generated by graphviz version 3.0.0 (20220226.1711)
 -->
<!-- Title: ERD Pages: 1 -->
<svg width="614pt" height="463pt"
     viewBox="0.00 0.00 614.00 463.00" xmlns="http://www.w3.org/2000/svg">
    <g id="graph0" class="graph" transform="scale(1 1) rotate(0) translate(4 459)">
        <title>ERD</title>
        <polygon fill="white" stroke="transparent" points="-4,4 -4,-459 610,-459 610,4 -4,4"/>
        <g id="clust1" class="cluster">
            <title>cluster_SAMPLE</title>
            <polygon fill="lightyellow" stroke="black" points="461,-18 461,-93 548,-93 548,-18 461,-18"/>
            <text text-anchor="middle" x="504.5" y="-77.8" font-family="Times New Roman,serif" font-size="14.00">
                SAMPLE
            </text>
        </g>
        <g id="clust3" class="cluster">
            <title>cluster_PUBLIC</title>
            <polygon fill="lightyellow" stroke="black" points="8,-256 8,-447 598,-447 598,-256 8,-256"/>
            <text text-anchor="middle" x="303" y="-431.8" font-family="Times New Roman,serif" font-size="14.00">PUBLIC
            </text>
        </g>
        <g id="clust2" class="cluster">
            <title>cluster_RESERVE</title>
            <polygon fill="lightyellow" stroke="black" points="29.5,-111 29.5,-248 567,-248 567,-111 29.5,-111"/>
            <text text-anchor="middle" x="298.25" y="-232.8" font-family="Times New Roman,serif" font-size="14.00">
                RESERVE
            </text>
        </g>
        <g id="clust4" class="cluster">
            <title>cluster_SERVICE_USER</title>
            <polygon fill="lightyellow" stroke="black" points="233.5,-8 233.5,-103 352.5,-103 352.5,-8 233.5,-8"/>
            <text text-anchor="middle" x="293" y="-87.8" font-family="Times New Roman,serif" font-size="14.00">
                SERVICE_USER
            </text>
        </g>
        <!-- SAMPLE.TODO -->
        <g id="node1" class="node">
            <title>SAMPLE.TODO</title>
            <polygon fill="#eee9bf" stroke="transparent" points="477,-30.5 477,-57.5 532,-57.5 532,-30.5 477,-30.5"/>
            <polygon fill="#eedd82" stroke="transparent" points="477.5,-30 477.5,-57 532.5,-57 532.5,-30 477.5,-30"/>
            <polygon fill="none" stroke="black" points="477.5,-30 477.5,-57 532.5,-57 532.5,-30 477.5,-30"/>
            <text text-anchor="start" x="483.5" y="-40.8" font-family="Times New Roman,serif" font-weight="bold"
                  font-size="14.00">TODO
            </text>
        </g>
        <!-- RESERVE.会議室 -->
        <g id="node2" class="node">
            <title>RESERVE.会議室</title>
            <polygon fill="#eee9bf" stroke="transparent" points="45.5,-143 45.5,-191 138.5,-191 138.5,-143 45.5,-143"/>
            <polygon fill="#eedd82" stroke="transparent" points="46,-164 46,-191 139,-191 139,-164 46,-164"/>
            <polygon fill="none" stroke="black" points="46,-164 46,-191 139,-191 139,-164 46,-164"/>
            <text text-anchor="start" x="64" y="-174.8" font-family="Times New Roman,serif" font-weight="bold"
                  font-size="14.00">会議室
            </text>
            <polygon fill="none" stroke="black" points="46,-143 46,-164 139,-164 139,-143 46,-143"/>
            <text text-anchor="start" x="49" y="-149.8" font-family="Times New Roman,serif" font-size="14.00">会議室番号
            </text>
        </g>
        <!-- RESERVE.予約 -->
        <g id="node3" class="node">
            <title>RESERVE.予約</title>
            <polygon fill="#eee9bf" stroke="transparent" points="458,-123 458,-213 551,-213 551,-123 458,-123"/>
            <polygon fill="#eedd82" stroke="transparent"
                     points="458.5,-186 458.5,-213 551.5,-213 551.5,-186 458.5,-186"/>
            <polygon fill="none" stroke="black" points="458.5,-186 458.5,-213 551.5,-213 551.5,-186 458.5,-186"/>
            <text text-anchor="start" x="486" y="-196.8" font-family="Times New Roman,serif" font-weight="bold"
                  font-size="14.00">予約
            </text>
            <polygon fill="none" stroke="black" points="458.5,-165 458.5,-186 551.5,-186 551.5,-165 458.5,-165"/>
            <text text-anchor="start" x="461.5" y="-171.8" font-family="Times New Roman,serif" font-size="14.00">予約日
            </text>
            <polygon fill="none" stroke="black" points="458.5,-144 458.5,-165 551.5,-165 551.5,-144 458.5,-144"/>
            <text text-anchor="start" x="461.5" y="-150.8" font-family="Times New Roman,serif" font-size="14.00">会議室番号
            </text>
            <polygon fill="none" stroke="black" points="458.5,-123 458.5,-144 551.5,-144 551.5,-123 458.5,-123"/>
            <text text-anchor="start" x="461.5" y="-129.8" font-family="Times New Roman,serif" font-size="14.00">会員番号
            </text>
        </g>
        <!-- RESERVE.予約可能会議室 -->
        <g id="node4" class="node">
            <title>RESERVE.予約可能会議室</title>
            <polygon fill="#eee9bf" stroke="transparent"
                     points="221.5,-143.5 221.5,-212.5 365.5,-212.5 365.5,-143.5 221.5,-143.5"/>
            <polygon fill="#eedd82" stroke="transparent"
                     points="221.5,-185 221.5,-212 365.5,-212 365.5,-185 221.5,-185"/>
            <polygon fill="none" stroke="black" points="221.5,-185 221.5,-212 365.5,-212 365.5,-185 221.5,-185"/>
            <text text-anchor="start" x="227.5" y="-195.8" font-family="Times New Roman,serif" font-weight="bold"
                  font-size="14.00">予約可能会議室
            </text>
            <polygon fill="none" stroke="black" points="221.5,-164 221.5,-185 365.5,-185 365.5,-164 221.5,-164"/>
            <text text-anchor="start" x="224.5" y="-170.8" font-family="Times New Roman,serif" font-size="14.00">予約日
            </text>
            <polygon fill="none" stroke="black" points="221.5,-143 221.5,-164 365.5,-164 365.5,-143 221.5,-143"/>
            <text text-anchor="start" x="224.5" y="-149.8" font-family="Times New Roman,serif" font-size="14.00">会議室番号
            </text>
        </g>
        <!-- RESERVE.予約&#45;&gt;RESERVE.予約可能会議室 -->
        <g id="edge1" class="edge">
            <title>RESERVE.予約:r0&#45;&gt;RESERVE.予約可能会議室:r1</title>
            <path fill="none" stroke="black" stroke-dasharray="5,2"
                  d="M457.5,-176C420.68,-176 409.01,-174.34 376.71,-174.05"/>
            <polygon fill="black" stroke="black"
                     points="366.5,-174 376.52,-169.54 371.5,-174.02 376.5,-174.04 376.5,-174.04 376.5,-174.04 371.5,-174.02 376.48,-178.54 366.5,-174 366.5,-174"/>
        </g>
        <!-- RESERVE.予約&#45;&gt;RESERVE.予約可能会議室 -->
        <g id="edge2" class="edge">
            <title>RESERVE.予約:r2&#45;&gt;RESERVE.予約可能会議室:r3</title>
            <path fill="none" stroke="black" stroke-dasharray="5,2"
                  d="M457.5,-154C420.69,-154 409.01,-153.17 376.71,-153.02"/>
            <polygon fill="black" stroke="black"
                     points="366.5,-153 376.51,-148.52 371.5,-153.01 376.5,-153.02 376.5,-153.02 376.5,-153.02 371.5,-153.01 376.49,-157.52 366.5,-153 366.5,-153"/>
        </g>
        <!-- SERVICE_USER.会員 -->
        <g id="node10" class="node">
            <title>SERVICE_USER.会員</title>
            <polygon fill="#eee9bf" stroke="transparent" points="255.5,-20 255.5,-68 331.5,-68 331.5,-20 255.5,-20"/>
            <polygon fill="#eedd82" stroke="transparent" points="255.5,-41 255.5,-68 331.5,-68 331.5,-41 255.5,-41"/>
            <polygon fill="none" stroke="black" points="255.5,-41 255.5,-68 331.5,-68 331.5,-41 255.5,-41"/>
            <text text-anchor="start" x="274.5" y="-51.8" font-family="Times New Roman,serif" font-weight="bold"
                  font-size="14.00">会員
            </text>
            <polygon fill="none" stroke="black" points="255.5,-20 255.5,-41 331.5,-41 331.5,-20 255.5,-20"/>
            <text text-anchor="start" x="258.5" y="-26.8" font-family="Times New Roman,serif" font-size="14.00">会員番号
            </text>
        </g>
        <!-- RESERVE.予約&#45;&gt;SERVICE_USER.会員 -->
        <g id="edge3" class="edge">
            <title>RESERVE.予約:r4&#45;&gt;SERVICE_USER.会員:r5</title>
            <path fill="none" stroke="black" stroke-dasharray="5,2"
                  d="M457.5,-133C389.17,-133 402.79,-40.2 342.79,-30.77"/>
            <polygon fill="black" stroke="black"
                     points="332.5,-30 342.81,-26.26 337.49,-30.37 342.47,-30.75 342.47,-30.75 342.47,-30.75 337.49,-30.37 342.14,-35.23 332.5,-30 332.5,-30"/>
        </g>
        <!-- RESERVE.予約可能会議室&#45;&gt;RESERVE.会議室 -->
        <g id="edge4" class="edge">
            <title>RESERVE.予約可能会議室:r3&#45;&gt;RESERVE.会議室:r6</title>
            <path fill="none" stroke="black" stroke-dasharray="5,2"
                  d="M220.5,-153C188.36,-153 177.87,-153 150.13,-153"/>
            <polygon fill="black" stroke="black"
                     points="140,-153 150,-148.5 145,-153 150,-153 150,-153 150,-153 145,-153 150,-157.5 140,-153 140,-153"/>
        </g>
        <!-- PUBLIC.RESERVATION -->
        <g id="node5" class="node">
            <title>PUBLIC.RESERVATION</title>
            <polygon fill="#eee9bf" stroke="transparent" points="443,-322 443,-412 566,-412 566,-322 443,-322"/>
            <polygon fill="#eedd82" stroke="transparent"
                     points="443.5,-385 443.5,-412 566.5,-412 566.5,-385 443.5,-385"/>
            <polygon fill="none" stroke="black" points="443.5,-385 443.5,-412 566.5,-412 566.5,-385 443.5,-385"/>
            <text text-anchor="start" x="452" y="-395.8" font-family="Times New Roman,serif" font-weight="bold"
                  font-size="14.00">RESERVATION
            </text>
            <polygon fill="none" stroke="black" points="443.5,-364 443.5,-385 566.5,-385 566.5,-364 443.5,-364"/>
            <text text-anchor="start" x="446.5" y="-370.8" font-family="Times New Roman,serif" font-size="14.00">
                RESERVED_DATE
            </text>
            <polygon fill="none" stroke="black" points="443.5,-343 443.5,-364 566.5,-364 566.5,-343 443.5,-343"/>
            <text text-anchor="start" x="446.5" y="-349.8" font-family="Times New Roman,serif" font-size="14.00">
                ROOM_ID
            </text>
            <polygon fill="none" stroke="black" points="443.5,-322 443.5,-343 566.5,-343 566.5,-322 443.5,-322"/>
            <text text-anchor="start" x="446.5" y="-328.8" font-family="Times New Roman,serif" font-size="14.00">
                USER_ID
            </text>
        </g>
        <!-- PUBLIC.USR -->
        <g id="node6" class="node">
            <title>PUBLIC.USR</title>
            <polygon fill="#eee9bf" stroke="transparent"
                     points="261.5,-268 261.5,-316 325.5,-316 325.5,-268 261.5,-268"/>
            <polygon fill="#eedd82" stroke="transparent"
                     points="261.5,-289 261.5,-316 325.5,-316 325.5,-289 261.5,-289"/>
            <polygon fill="none" stroke="black" points="261.5,-289 261.5,-316 325.5,-316 325.5,-289 261.5,-289"/>
            <text text-anchor="start" x="279" y="-299.8" font-family="Times New Roman,serif" font-weight="bold"
                  font-size="14.00">USR
            </text>
            <polygon fill="none" stroke="black" points="261.5,-268 261.5,-289 325.5,-289 325.5,-268 261.5,-268"/>
            <text text-anchor="start" x="264.5" y="-274.8" font-family="Times New Roman,serif" font-size="14.00">
                USER_ID
            </text>
        </g>
        <!-- PUBLIC.RESERVATION&#45;&gt;PUBLIC.USR -->
        <g id="edge7" class="edge">
            <title>PUBLIC.RESERVATION:r11&#45;&gt;PUBLIC.USR:r12</title>
            <path fill="none" stroke="black" stroke-dasharray="5,2"
                  d="M442.5,-332C389.19,-332 383.86,-284.54 336.55,-278.61"/>
            <polygon fill="black" stroke="black"
                     points="326.5,-278 336.75,-274.11 331.49,-278.3 336.48,-278.6 336.48,-278.6 336.48,-278.6 331.49,-278.3 336.21,-283.09 326.5,-278 326.5,-278"/>
        </g>
        <!-- PUBLIC.RESERVABLE_ROOM -->
        <g id="node7" class="node">
            <title>PUBLIC.RESERVABLE_ROOM</title>
            <polygon fill="#eee9bf" stroke="transparent"
                     points="212,-342.5 212,-411.5 375,-411.5 375,-342.5 212,-342.5"/>
            <polygon fill="#eedd82" stroke="transparent"
                     points="212.5,-384 212.5,-411 375.5,-411 375.5,-384 212.5,-384"/>
            <polygon fill="none" stroke="black" points="212.5,-384 212.5,-411 375.5,-411 375.5,-384 212.5,-384"/>
            <text text-anchor="start" x="218.5" y="-394.8" font-family="Times New Roman,serif" font-weight="bold"
                  font-size="14.00">RESERVABLE_ROOM
            </text>
            <polygon fill="none" stroke="black" points="212.5,-363 212.5,-384 375.5,-384 375.5,-363 212.5,-363"/>
            <text text-anchor="start" x="215.5" y="-369.8" font-family="Times New Roman,serif" font-size="14.00">
                RESERVED_DATE
            </text>
            <polygon fill="none" stroke="black" points="212.5,-342 212.5,-363 375.5,-363 375.5,-342 212.5,-342"/>
            <text text-anchor="start" x="215.5" y="-348.8" font-family="Times New Roman,serif" font-size="14.00">
                ROOM_ID
            </text>
        </g>
        <!-- PUBLIC.RESERVATION&#45;&gt;PUBLIC.RESERVABLE_ROOM -->
        <g id="edge5" class="edge">
            <title>PUBLIC.RESERVATION:r7&#45;&gt;PUBLIC.RESERVABLE_ROOM:r8</title>
            <path fill="none" stroke="black" stroke-dasharray="5,2"
                  d="M442.5,-375C416.82,-375 408.02,-373.47 386.56,-373.09"/>
            <polygon fill="black" stroke="black"
                     points="376.5,-373 386.54,-368.59 381.5,-373.04 386.5,-373.09 386.5,-373.09 386.5,-373.09 381.5,-373.04 386.46,-377.59 376.5,-373 376.5,-373"/>
        </g>
        <!-- PUBLIC.RESERVATION&#45;&gt;PUBLIC.RESERVABLE_ROOM -->
        <g id="edge6" class="edge">
            <title>PUBLIC.RESERVATION:r9&#45;&gt;PUBLIC.RESERVABLE_ROOM:r10</title>
            <path fill="none" stroke="black" stroke-dasharray="5,2"
                  d="M442.5,-353C416.83,-353 408.01,-352.23 386.56,-352.04"/>
            <polygon fill="black" stroke="black"
                     points="376.5,-352 386.52,-347.54 381.5,-352.02 386.5,-352.04 386.5,-352.04 386.5,-352.04 381.5,-352.02 386.48,-356.54 376.5,-352 376.5,-352"/>
        </g>
        <!-- PUBLIC.MEETING_ROOM -->
        <g id="node9" class="node">
            <title>PUBLIC.MEETING_ROOM</title>
            <polygon fill="#eee9bf" stroke="transparent" points="24,-342 24,-390 160,-390 160,-342 24,-342"/>
            <polygon fill="#eedd82" stroke="transparent" points="24,-363 24,-390 160,-390 160,-363 24,-363"/>
            <polygon fill="none" stroke="black" points="24,-363 24,-390 160,-390 160,-363 24,-363"/>
            <text text-anchor="start" x="30" y="-373.8" font-family="Times New Roman,serif" font-weight="bold"
                  font-size="14.00">MEETING_ROOM
            </text>
            <polygon fill="none" stroke="black" points="24,-342 24,-363 160,-363 160,-342 24,-342"/>
            <text text-anchor="start" x="27" y="-348.8" font-family="Times New Roman,serif" font-size="14.00">ROOM_ID
            </text>
        </g>
        <!-- PUBLIC.RESERVABLE_ROOM&#45;&gt;PUBLIC.MEETING_ROOM -->
        <g id="edge8" class="edge">
            <title>PUBLIC.RESERVABLE_ROOM:r10&#45;&gt;PUBLIC.MEETING_ROOM:r13</title>
            <path fill="none" stroke="black" stroke-dasharray="5,2"
                  d="M211.5,-352C192.91,-352 185.87,-352 171.25,-352"/>
            <polygon fill="black" stroke="black"
                     points="161,-352 171,-347.5 166,-352 171,-352 171,-352 171,-352 166,-352 171,-356.5 161,-352 161,-352"/>
        </g>
        <!-- PUBLIC.flyway_schema_history -->
        <g id="node8" class="node">
            <title>PUBLIC.flyway_schema_history</title>
            <polygon fill="#eee9bf" stroke="transparent"
                     points="427,-268.5 427,-295.5 582,-295.5 582,-268.5 427,-268.5"/>
            <polygon fill="#eedd82" stroke="transparent"
                     points="427.5,-268 427.5,-295 582.5,-295 582.5,-268 427.5,-268"/>
            <polygon fill="none" stroke="black" points="427.5,-268 427.5,-295 582.5,-295 582.5,-268 427.5,-268"/>
            <text text-anchor="start" x="433.5" y="-278.8" font-family="Times New Roman,serif" font-weight="bold"
                  font-size="14.00">flyway_schema_history
            </text>
        </g>
    </g>
</svg>
