<?xml version="1.0" encoding="UTF-8" standalone="no"?>
<!DOCTYPE svg PUBLIC "-//W3C//DTD SVG 1.1//EN"
        "http://www.w3.org/Graphics/SVG/1.1/DTD/svg11.dtd">
<!-- Generated by graphviz version 3.0.0 (20220226.1711)
 -->
<!-- Title: ERD Pages: 1 -->
<svg width="212pt" height="98pt"
     viewBox="0.00 0.00 212.00 98.00" xmlns="http://www.w3.org/2000/svg">
    <g id="graph0" class="graph" transform="scale(1 1) rotate(0) translate(4 94)">
        <title>ERD</title>
        <polygon fill="white" stroke="transparent" points="-4,4 -4,-94 208,-94 208,4 -4,4"/>
        <!-- RESERVATION -->
        <g id="node1" class="node">
            <title>RESERVATION</title>
            <polygon fill="lightyellow" stroke="black" points="204,-36 90,-36 90,0 204,0 204,-36"/>
            <text text-anchor="middle" x="147" y="-14.3" font-family="Times New Roman,serif" font-size="14.00">
                RESERVATION
            </text>
        </g>
        <!-- USR -->
        <g id="node2" class="node">
            <title>USR</title>
            <polygon fill="lightyellow" stroke="black" points="54,-36 0,-36 0,0 54,0 54,-36"/>
            <text text-anchor="middle" x="27" y="-14.3" font-family="Times New Roman,serif" font-size="14.00">USR</text>
        </g>
        <!-- RESERVATION&#45;&gt;USR -->
        <g id="edge1" class="edge">
            <title>RESERVATION&#45;&gt;USR</title>
            <path fill="none" stroke="black" stroke-dasharray="5,2" d="M89.76,-18C81.1,-18 72.35,-18 64.27,-18"/>
            <polygon fill="black" stroke="black"
                     points="54.11,-18 64.11,-13.5 59.11,-18 64.11,-18 64.11,-18 64.11,-18 59.11,-18 64.11,-22.5 54.11,-18 54.11,-18"/>
        </g>
        <!-- PUBLIC -->
        <g id="node3" class="node">
            <title>PUBLIC</title>
            <polygon fill="lightyellow" stroke="black" points="180,-90 114,-90 114,-54 180,-54 180,-90"/>
            <text text-anchor="middle" x="147" y="-68.3" font-family="Times New Roman,serif" font-size="14.00">PUBLIC
            </text>
        </g>
    </g>
</svg>
