<?xml version="1.0" encoding="UTF-8" standalone="no"?>
<!DOCTYPE svg PUBLIC "-//W3C//DTD SVG 1.1//EN"
        "http://www.w3.org/Graphics/SVG/1.1/DTD/svg11.dtd">
<!-- Generated by graphviz version 3.0.0 (20220226.1711)
 -->
<!-- Title: ERD Pages: 1 -->
<svg width="546pt" height="236pt"
     viewBox="0.00 0.00 546.00 236.00" xmlns="http://www.w3.org/2000/svg">
    <g id="graph0" class="graph" transform="scale(1 1) rotate(0) translate(4 232)">
        <title>ERD</title>
        <polygon fill="white" stroke="transparent" points="-4,4 -4,-232 542,-232 542,4 -4,4"/>
        <g id="clust1" class="cluster">
            <title>cluster_SAMPLE</title>
            <polygon fill="lightyellow" stroke="black" points="411.5,-8 411.5,-83 483.5,-83 483.5,-8 411.5,-8"/>
            <text text-anchor="middle" x="447.5" y="-67.8" font-family="Times New Roman,serif" font-size="14.00">
                SAMPLE
            </text>
        </g>
        <g id="clust2" class="cluster">
            <title>cluster_PUBLIC</title>
            <polygon fill="lightyellow" stroke="black" points="8,-91 8,-220 530,-220 530,-91 8,-91"/>
            <text text-anchor="middle" x="269" y="-204.8" font-family="Times New Roman,serif" font-size="14.00">PUBLIC
            </text>
        </g>
        <!-- SAMPLE.TODO -->
        <g id="node1" class="node">
            <title>SAMPLE.TODO</title>
            <polygon fill="#eedd82" stroke="black" points="475.5,-52 419.5,-52 419.5,-16 475.5,-16 475.5,-52"/>
            <text text-anchor="middle" x="447.5" y="-30.3" font-family="Times New Roman,serif" font-size="14.00">TODO
            </text>
        </g>
        <!-- PUBLIC.RESERVATION -->
        <g id="node2" class="node">
            <title>PUBLIC.RESERVATION</title>
            <polygon fill="#eedd82" stroke="black" points="504.5,-189 390.5,-189 390.5,-153 504.5,-153 504.5,-189"/>
            <text text-anchor="middle" x="447.5" y="-167.3" font-family="Times New Roman,serif" font-size="14.00">
                RESERVATION
            </text>
        </g>
        <!-- PUBLIC.USR -->
        <g id="node3" class="node">
            <title>PUBLIC.USR</title>
            <polygon fill="#eedd82" stroke="black" points="286,-135 232,-135 232,-99 286,-99 286,-135"/>
            <text text-anchor="middle" x="259" y="-113.3" font-family="Times New Roman,serif" font-size="14.00">USR
            </text>
        </g>
        <!-- PUBLIC.RESERVATION&#45;&gt;PUBLIC.USR -->
        <g id="edge3" class="edge">
            <title>PUBLIC.RESERVATION&#45;&gt;PUBLIC.USR</title>
            <path fill="none" stroke="black" stroke-dasharray="5,2"
                  d="M390.29,-154.72C359.67,-145.86 322.68,-135.15 295.95,-127.41"/>
            <polygon fill="black" stroke="black"
                     points="286.24,-124.6 297.1,-123.06 291.05,-125.99 295.85,-127.38 295.85,-127.38 295.85,-127.38 291.05,-125.99 294.6,-131.7 286.24,-124.6 286.24,-124.6"/>
        </g>
        <!-- PUBLIC.RESERVABLE_ROOM -->
        <g id="node4" class="node">
            <title>PUBLIC.RESERVABLE_ROOM</title>
            <polygon fill="#eedd82" stroke="black" points="337,-189 181,-189 181,-153 337,-153 337,-189"/>
            <text text-anchor="middle" x="259" y="-167.3" font-family="Times New Roman,serif" font-size="14.00">
                RESERVABLE_ROOM
            </text>
        </g>
        <!-- PUBLIC.RESERVATION&#45;&gt;PUBLIC.RESERVABLE_ROOM -->
        <g id="edge2" class="edge">
            <title>PUBLIC.RESERVATION&#45;&gt;PUBLIC.RESERVABLE_ROOM</title>
            <path fill="none" stroke="black" stroke-dasharray="5,2" d="M390.29,-171C376.7,-171 361.85,-171 347.2,-171"/>
            <polygon fill="black" stroke="black"
                     points="337.11,-171 347.11,-166.5 342.11,-171 347.11,-171 347.11,-171 347.11,-171 342.11,-171 347.11,-175.5 337.11,-171 337.11,-171"/>
        </g>
        <!-- PUBLIC.MEETING_ROOM -->
        <g id="node6" class="node">
            <title>PUBLIC.MEETING_ROOM</title>
            <polygon fill="#eedd82" stroke="black" points="145,-189 16,-189 16,-153 145,-153 145,-189"/>
            <text text-anchor="middle" x="80.5" y="-167.3" font-family="Times New Roman,serif" font-size="14.00">
                MEETING_ROOM
            </text>
        </g>
        <!-- PUBLIC.RESERVABLE_ROOM&#45;&gt;PUBLIC.MEETING_ROOM -->
        <g id="edge1" class="edge">
            <title>PUBLIC.RESERVABLE_ROOM&#45;&gt;PUBLIC.MEETING_ROOM</title>
            <path fill="none" stroke="black" stroke-dasharray="5,2"
                  d="M180.84,-171C172.33,-171 163.69,-171 155.22,-171"/>
            <polygon fill="black" stroke="black"
                     points="145.01,-171 155.01,-166.5 150.01,-171 155.01,-171 155.01,-171 155.01,-171 150.01,-171 155.01,-175.5 145.01,-171 145.01,-171"/>
        </g>
        <!-- PUBLIC.flyway_schema_history -->
        <g id="node5" class="node">
            <title>PUBLIC.flyway_schema_history</title>
            <polygon fill="#eedd82" stroke="black" points="522,-135 373,-135 373,-99 522,-99 522,-135"/>
            <text text-anchor="middle" x="447.5" y="-113.3" font-family="Times New Roman,serif" font-size="14.00">
                flyway_schema_history
            </text>
        </g>
    </g>
</svg>
