<?xml version="1.0" encoding="UTF-8" standalone="no"?>
<!DOCTYPE svg PUBLIC "-//W3C//DTD SVG 1.1//EN"
        "http://www.w3.org/Graphics/SVG/1.1/DTD/svg11.dtd">
<!-- Generated by graphviz version 3.0.0 (20220226.1711)
 -->
<!-- Title: ERD Pages: 1 -->
<svg width="511pt" height="153pt"
     viewBox="0.00 0.00 511.00 153.00" xmlns="http://www.w3.org/2000/svg">
    <g id="graph0" class="graph" transform="scale(1 1) rotate(0) translate(4 149)">
        <title>ERD</title>
        <polygon fill="white" stroke="transparent" points="-4,4 -4,-149 507,-149 507,4 -4,4"/>
        <g id="clust1" class="cluster">
            <title>cluster_PUBLIC</title>
            <polygon fill="lightyellow" stroke="black" points="8,-8 8,-137 495,-137 495,-8 8,-8"/>
            <text text-anchor="middle" x="251.5" y="-121.8" font-family="Times New Roman,serif" font-size="14.00">
                PUBLIC
            </text>
        </g>
        <!-- PUBLIC.RESERVATION -->
        <g id="node1" class="node">
            <title>PUBLIC.RESERVATION</title>
            <polygon fill="#eedd82" stroke="black" points="487,-79 373,-79 373,-43 487,-43 487,-79"/>
            <text text-anchor="middle" x="430" y="-57.3" font-family="Times New Roman,serif" font-size="14.00">
                RESERVATION
            </text>
        </g>
        <!-- PUBLIC.USR -->
        <g id="node2" class="node">
            <title>PUBLIC.USR</title>
            <polygon fill="#eedd82" stroke="black" points="286,-52 232,-52 232,-16 286,-16 286,-52"/>
            <text text-anchor="middle" x="259" y="-30.3" font-family="Times New Roman,serif" font-size="14.00">USR
            </text>
        </g>
        <!-- PUBLIC.RESERVATION&#45;&gt;PUBLIC.USR -->
        <g id="edge3" class="edge">
            <title>PUBLIC.RESERVATION&#45;&gt;PUBLIC.USR</title>
            <path fill="none" stroke="black" stroke-dasharray="5,2"
                  d="M372.73,-52.01C347.53,-47.98 318.54,-43.35 296.28,-39.8"/>
            <polygon fill="black" stroke="black"
                     points="286.24,-38.19 296.83,-35.33 291.18,-38.98 296.12,-39.77 296.12,-39.77 296.12,-39.77 291.18,-38.98 295.41,-44.21 286.24,-38.19 286.24,-38.19"/>
        </g>
        <!-- PUBLIC.RESERVABLE_ROOM -->
        <g id="node3" class="node">
            <title>PUBLIC.RESERVABLE_ROOM</title>
            <polygon fill="#eedd82" stroke="black" points="337,-106 181,-106 181,-70 337,-70 337,-106"/>
            <text text-anchor="middle" x="259" y="-84.3" font-family="Times New Roman,serif" font-size="14.00">
                RESERVABLE_ROOM
            </text>
        </g>
        <!-- PUBLIC.RESERVATION&#45;&gt;PUBLIC.RESERVABLE_ROOM -->
        <g id="edge2" class="edge">
            <title>PUBLIC.RESERVATION&#45;&gt;PUBLIC.RESERVABLE_ROOM</title>
            <path fill="none" stroke="black" stroke-dasharray="5,2"
                  d="M372.73,-69.99C364.51,-71.3 355.9,-72.68 347.25,-74.06"/>
            <polygon fill="black" stroke="black"
                     points="337.09,-75.68 346.26,-69.66 342.03,-74.89 346.97,-74.11 346.97,-74.11 346.97,-74.11 342.03,-74.89 347.68,-78.55 337.09,-75.68 337.09,-75.68"/>
        </g>
        <!-- PUBLIC.MEETING_ROOM -->
        <g id="node4" class="node">
            <title>PUBLIC.MEETING_ROOM</title>
            <polygon fill="#eedd82" stroke="black" points="145,-106 16,-106 16,-70 145,-70 145,-106"/>
            <text text-anchor="middle" x="80.5" y="-84.3" font-family="Times New Roman,serif" font-size="14.00">
                MEETING_ROOM
            </text>
        </g>
        <!-- PUBLIC.RESERVABLE_ROOM&#45;&gt;PUBLIC.MEETING_ROOM -->
        <g id="edge1" class="edge">
            <title>PUBLIC.RESERVABLE_ROOM&#45;&gt;PUBLIC.MEETING_ROOM</title>
            <path fill="none" stroke="black" stroke-dasharray="5,2" d="M180.84,-88C172.33,-88 163.69,-88 155.22,-88"/>
            <polygon fill="black" stroke="black"
                     points="145.01,-88 155.01,-83.5 150.01,-88 155.01,-88 155.01,-88 155.01,-88 150.01,-88 155.01,-92.5 145.01,-88 145.01,-88"/>
        </g>
    </g>
</svg>
