<?xml version="1.0" encoding="UTF-8" standalone="no"?>
<!DOCTYPE svg PUBLIC "-//W3C//DTD SVG 1.1//EN"
        "http://www.w3.org/Graphics/SVG/1.1/DTD/svg11.dtd">
<!-- Generated by graphviz version 3.0.0 (20220226.1711)
 -->
<!-- Title: ERD Pages: 1 -->
<svg width="582pt" height="215pt"
     viewBox="0.00 0.00 582.00 215.00" xmlns="http://www.w3.org/2000/svg">
    <g id="graph0" class="graph" transform="scale(1 1) rotate(0) translate(4 211)">
        <title>ERD</title>
        <polygon fill="white" stroke="transparent" points="-4,4 -4,-211 578,-211 578,4 -4,4"/>
        <g id="clust1" class="cluster">
            <title>cluster_PUBLIC</title>
            <polygon fill="lightyellow" stroke="black" points="8,-8 8,-199 566,-199 566,-8 8,-8"/>
            <text text-anchor="middle" x="287" y="-183.8" font-family="Times New Roman,serif" font-size="14.00">PUBLIC
            </text>
        </g>
        <!-- PUBLIC.RESERVATION -->
        <g id="node1" class="node">
            <title>PUBLIC.RESERVATION</title>
            <polygon fill="#eee9bf" stroke="transparent" points="427,-72 427,-162 550,-162 550,-72 427,-72"/>
            <polygon fill="#eedd82" stroke="transparent"
                     points="427.5,-135 427.5,-162 550.5,-162 550.5,-135 427.5,-135"/>
            <polygon fill="none" stroke="black" points="427.5,-135 427.5,-162 550.5,-162 550.5,-135 427.5,-135"/>
            <text text-anchor="start" x="436" y="-145.8" font-family="Times New Roman,serif" font-weight="bold"
                  font-size="14.00">RESERVATION
            </text>
            <polygon fill="none" stroke="black" points="427.5,-114 427.5,-135 550.5,-135 550.5,-114 427.5,-114"/>
            <text text-anchor="start" x="430.5" y="-120.8" font-family="Times New Roman,serif" font-size="14.00">
                RESERVED_DATE
            </text>
            <polygon fill="none" stroke="black" points="427.5,-93 427.5,-114 550.5,-114 550.5,-93 427.5,-93"/>
            <text text-anchor="start" x="430.5" y="-99.8" font-family="Times New Roman,serif" font-size="14.00">
                ROOM_ID
            </text>
            <polygon fill="none" stroke="black" points="427.5,-72 427.5,-93 550.5,-93 550.5,-72 427.5,-72"/>
            <text text-anchor="start" x="430.5" y="-78.8" font-family="Times New Roman,serif" font-size="14.00">
                USER_ID
            </text>
        </g>
        <!-- PUBLIC.USR -->
        <g id="node2" class="node">
            <title>PUBLIC.USR</title>
            <polygon fill="#eee9bf" stroke="transparent" points="261.5,-20 261.5,-68 325.5,-68 325.5,-20 261.5,-20"/>
            <polygon fill="#eedd82" stroke="transparent" points="261.5,-41 261.5,-68 325.5,-68 325.5,-41 261.5,-41"/>
            <polygon fill="none" stroke="black" points="261.5,-41 261.5,-68 325.5,-68 325.5,-41 261.5,-41"/>
            <text text-anchor="start" x="279" y="-51.8" font-family="Times New Roman,serif" font-weight="bold"
                  font-size="14.00">USR
            </text>
            <polygon fill="none" stroke="black" points="261.5,-20 261.5,-41 325.5,-41 325.5,-20 261.5,-20"/>
            <text text-anchor="start" x="264.5" y="-26.8" font-family="Times New Roman,serif" font-size="14.00">
                USER_ID
            </text>
        </g>
        <!-- PUBLIC.RESERVATION&#45;&gt;PUBLIC.USR -->
        <g id="edge3" class="edge">
            <title>PUBLIC.RESERVATION:r4&#45;&gt;PUBLIC.USR:r5</title>
            <path fill="none" stroke="black" stroke-dasharray="5,2"
                  d="M426.5,-82C380.03,-82 376.83,-37.24 336.61,-30.78"/>
            <polygon fill="black" stroke="black"
                     points="326.5,-30 336.81,-26.28 331.49,-30.38 336.47,-30.76 336.47,-30.76 336.47,-30.76 331.49,-30.38 336.13,-35.25 326.5,-30 326.5,-30"/>
        </g>
        <!-- PUBLIC.RESERVABLE_ROOM -->
        <g id="node3" class="node">
            <title>PUBLIC.RESERVABLE_ROOM</title>
            <polygon fill="#eee9bf" stroke="transparent" points="212,-94.5 212,-163.5 375,-163.5 375,-94.5 212,-94.5"/>
            <polygon fill="#eedd82" stroke="transparent"
                     points="212.5,-136 212.5,-163 375.5,-163 375.5,-136 212.5,-136"/>
            <polygon fill="none" stroke="black" points="212.5,-136 212.5,-163 375.5,-163 375.5,-136 212.5,-136"/>
            <text text-anchor="start" x="218.5" y="-146.8" font-family="Times New Roman,serif" font-weight="bold"
                  font-size="14.00">RESERVABLE_ROOM
            </text>
            <polygon fill="none" stroke="black" points="212.5,-115 212.5,-136 375.5,-136 375.5,-115 212.5,-115"/>
            <text text-anchor="start" x="215.5" y="-121.8" font-family="Times New Roman,serif" font-size="14.00">
                RESERVED_DATE
            </text>
            <polygon fill="none" stroke="black" points="212.5,-94 212.5,-115 375.5,-115 375.5,-94 212.5,-94"/>
            <text text-anchor="start" x="215.5" y="-100.8" font-family="Times New Roman,serif" font-size="14.00">
                ROOM_ID
            </text>
        </g>
        <!-- PUBLIC.RESERVATION&#45;&gt;PUBLIC.RESERVABLE_ROOM -->
        <g id="edge1" class="edge">
            <title>PUBLIC.RESERVATION:r0&#45;&gt;PUBLIC.RESERVABLE_ROOM:r1</title>
            <path fill="none" stroke="black" stroke-dasharray="5,2" d="M426.5,-125C408.1,-125 401.12,-125 386.65,-125"/>
            <polygon fill="black" stroke="black"
                     points="376.5,-125 386.5,-120.5 381.5,-125 386.5,-125 386.5,-125 386.5,-125 381.5,-125 386.5,-129.5 376.5,-125 376.5,-125"/>
        </g>
        <!-- PUBLIC.RESERVATION&#45;&gt;PUBLIC.RESERVABLE_ROOM -->
        <g id="edge2" class="edge">
            <title>PUBLIC.RESERVATION:r2&#45;&gt;PUBLIC.RESERVABLE_ROOM:r3</title>
            <path fill="none" stroke="black" stroke-dasharray="5,2"
                  d="M426.5,-103C408.09,-103 401.13,-103.69 386.65,-103.92"/>
            <polygon fill="black" stroke="black"
                     points="376.5,-104 386.46,-99.42 381.5,-103.96 386.5,-103.92 386.5,-103.92 386.5,-103.92 381.5,-103.96 386.53,-108.42 376.5,-104 376.5,-104"/>
        </g>
        <!-- PUBLIC.MEETING_ROOM -->
        <g id="node4" class="node">
            <title>PUBLIC.MEETING_ROOM</title>
            <polygon fill="#eee9bf" stroke="transparent" points="24,-94 24,-142 160,-142 160,-94 24,-94"/>
            <polygon fill="#eedd82" stroke="transparent" points="24,-115 24,-142 160,-142 160,-115 24,-115"/>
            <polygon fill="none" stroke="black" points="24,-115 24,-142 160,-142 160,-115 24,-115"/>
            <text text-anchor="start" x="30" y="-125.8" font-family="Times New Roman,serif" font-weight="bold"
                  font-size="14.00">MEETING_ROOM
            </text>
            <polygon fill="none" stroke="black" points="24,-94 24,-115 160,-115 160,-94 24,-94"/>
            <text text-anchor="start" x="27" y="-100.8" font-family="Times New Roman,serif" font-size="14.00">ROOM_ID
            </text>
        </g>
        <!-- PUBLIC.RESERVABLE_ROOM&#45;&gt;PUBLIC.MEETING_ROOM -->
        <g id="edge4" class="edge">
            <title>PUBLIC.RESERVABLE_ROOM:r3&#45;&gt;PUBLIC.MEETING_ROOM:r6</title>
            <path fill="none" stroke="black" stroke-dasharray="5,2"
                  d="M211.5,-104C192.91,-104 185.87,-104 171.25,-104"/>
            <polygon fill="black" stroke="black"
                     points="161,-104 171,-99.5 166,-104 171,-104 171,-104 171,-104 166,-104 171,-108.5 161,-104 161,-104"/>
        </g>
    </g>
</svg>
