<?xml version="1.0" encoding="UTF-8" standalone="no"?>
<!DOCTYPE svg PUBLIC "-//W3C//DTD SVG 1.1//EN"
        "http://www.w3.org/Graphics/SVG/1.1/DTD/svg11.dtd">
<!-- Generated by graphviz version 3.0.0 (20220226.1711)
 -->
<!-- Title: ERD Pages: 1 -->
<svg width="552pt" height="347pt"
     viewBox="0.00 0.00 552.00 347.00" xmlns="http://www.w3.org/2000/svg">
    <g id="graph0" class="graph" transform="scale(1 1) rotate(0) translate(4 343)">
        <title>ERD</title>
        <polygon fill="white" stroke="transparent" points="-4,4 -4,-343 548,-343 548,4 -4,4"/>
        <g id="clust1" class="cluster">
            <title>cluster_RESERVATION</title>
            <polygon fill="lightyellow" stroke="black" points="8,-111 8,-248 505,-248 505,-111 8,-111"/>
            <text text-anchor="middle" x="256.5" y="-232.8" font-family="Times New Roman,serif" font-size="14.00">
                RESERVATION
            </text>
        </g>
        <g id="clust3" class="cluster">
            <title>cluster_PUBLIC</title>
            <polygon fill="lightyellow" stroke="black" points="349,-256 349,-331 536,-331 536,-256 349,-256"/>
            <text text-anchor="middle" x="442.5" y="-315.8" font-family="Times New Roman,serif" font-size="14.00">
                PUBLIC
            </text>
        </g>
        <g id="clust2" class="cluster">
            <title>cluster_AUTH</title>
            <polygon fill="lightyellow" stroke="black" points="178.5,-8 178.5,-103 303.5,-103 303.5,-8 178.5,-8"/>
            <text text-anchor="middle" x="241" y="-87.8" font-family="Times New Roman,serif" font-size="14.00">AUTH
            </text>
        </g>
        <!-- RESERVATION.会議室 -->
        <g id="node1" class="node">
            <title>RESERVATION.会議室</title>
            <polygon fill="#eee9bf" stroke="transparent" points="24,-143 24,-191 117,-191 117,-143 24,-143"/>
            <polygon fill="#eedd82" stroke="transparent" points="24.5,-164 24.5,-191 117.5,-191 117.5,-164 24.5,-164"/>
            <polygon fill="none" stroke="black" points="24.5,-164 24.5,-191 117.5,-191 117.5,-164 24.5,-164"/>
            <text text-anchor="start" x="42.5" y="-174.8" font-family="Times New Roman,serif" font-weight="bold"
                  font-size="14.00">会議室
            </text>
            <polygon fill="none" stroke="black" points="24.5,-143 24.5,-164 117.5,-164 117.5,-143 24.5,-143"/>
            <text text-anchor="start" x="27.5" y="-149.8" font-family="Times New Roman,serif" font-size="14.00">会議室番号
            </text>
        </g>
        <!-- RESERVATION.予約 -->
        <g id="node2" class="node">
            <title>RESERVATION.予約</title>
            <polygon fill="#eee9bf" stroke="transparent" points="396,-123 396,-213 489,-213 489,-123 396,-123"/>
            <polygon fill="#eedd82" stroke="transparent"
                     points="396.5,-186 396.5,-213 489.5,-213 489.5,-186 396.5,-186"/>
            <polygon fill="none" stroke="black" points="396.5,-186 396.5,-213 489.5,-213 489.5,-186 396.5,-186"/>
            <text text-anchor="start" x="424" y="-196.8" font-family="Times New Roman,serif" font-weight="bold"
                  font-size="14.00">予約
            </text>
            <polygon fill="none" stroke="black" points="396.5,-165 396.5,-186 489.5,-186 489.5,-165 396.5,-165"/>
            <text text-anchor="start" x="399.5" y="-171.8" font-family="Times New Roman,serif" font-size="14.00">予約日
            </text>
            <polygon fill="none" stroke="black" points="396.5,-144 396.5,-165 489.5,-165 489.5,-144 396.5,-144"/>
            <text text-anchor="start" x="399.5" y="-150.8" font-family="Times New Roman,serif" font-size="14.00">会議室番号
            </text>
            <polygon fill="none" stroke="black" points="396.5,-123 396.5,-144 489.5,-144 489.5,-123 396.5,-123"/>
            <text text-anchor="start" x="399.5" y="-129.8" font-family="Times New Roman,serif" font-size="14.00">利用者番号
            </text>
        </g>
        <!-- RESERVATION.予約可能会議室 -->
        <g id="node3" class="node">
            <title>RESERVATION.予約可能会議室</title>
            <polygon fill="#eee9bf" stroke="transparent"
                     points="169,-143.5 169,-212.5 313,-212.5 313,-143.5 169,-143.5"/>
            <polygon fill="#eedd82" stroke="transparent" points="169,-185 169,-212 313,-212 313,-185 169,-185"/>
            <polygon fill="none" stroke="black" points="169,-185 169,-212 313,-212 313,-185 169,-185"/>
            <text text-anchor="start" x="175" y="-195.8" font-family="Times New Roman,serif" font-weight="bold"
                  font-size="14.00">予約可能会議室
            </text>
            <polygon fill="none" stroke="black" points="169,-164 169,-185 313,-185 313,-164 169,-164"/>
            <text text-anchor="start" x="172" y="-170.8" font-family="Times New Roman,serif" font-size="14.00">予約日
            </text>
            <polygon fill="none" stroke="black" points="169,-143 169,-164 313,-164 313,-143 169,-143"/>
            <text text-anchor="start" x="172" y="-149.8" font-family="Times New Roman,serif" font-size="14.00">会議室番号
            </text>
        </g>
        <!-- RESERVATION.予約&#45;&gt;RESERVATION.予約可能会議室 -->
        <g id="edge1" class="edge">
            <title>RESERVATION.予約:r0&#45;&gt;RESERVATION.予約可能会議室:r1</title>
            <path fill="none" stroke="black" stroke-dasharray="5,2"
                  d="M395.5,-176C362.95,-176 352.35,-174.39 324.26,-174.06"/>
            <polygon fill="black" stroke="black"
                     points="314,-174 324.03,-169.56 319,-174.03 324,-174.06 324,-174.06 324,-174.06 319,-174.03 323.97,-178.56 314,-174 314,-174"/>
        </g>
        <!-- RESERVATION.予約&#45;&gt;RESERVATION.予約可能会議室 -->
        <g id="edge2" class="edge">
            <title>RESERVATION.予約:r2&#45;&gt;RESERVATION.予約可能会議室:r3</title>
            <path fill="none" stroke="black" stroke-dasharray="5,2"
                  d="M395.5,-154C362.95,-154 352.34,-153.19 324.25,-153.03"/>
            <polygon fill="black" stroke="black"
                     points="314,-153 324.01,-148.53 319,-153.01 324,-153.03 324,-153.03 324,-153.03 319,-153.01 323.99,-157.53 314,-153 314,-153"/>
        </g>
        <!-- AUTH.利用者 -->
        <g id="node4" class="node">
            <title>AUTH.利用者</title>
            <polygon fill="#eee9bf" stroke="transparent" points="194.5,-20 194.5,-68 287.5,-68 287.5,-20 194.5,-20"/>
            <polygon fill="#eedd82" stroke="transparent" points="195,-41 195,-68 288,-68 288,-41 195,-41"/>
            <polygon fill="none" stroke="black" points="195,-41 195,-68 288,-68 288,-41 195,-41"/>
            <text text-anchor="start" x="213" y="-51.8" font-family="Times New Roman,serif" font-weight="bold"
                  font-size="14.00">利用者
            </text>
            <polygon fill="none" stroke="black" points="195,-20 195,-41 288,-41 288,-20 195,-20"/>
            <text text-anchor="start" x="198" y="-26.8" font-family="Times New Roman,serif" font-size="14.00">利用者番号
            </text>
        </g>
        <!-- RESERVATION.予約&#45;&gt;AUTH.利用者 -->
        <g id="edge3" class="edge">
            <title>RESERVATION.予約:r4&#45;&gt;AUTH.利用者:r5</title>
            <path fill="none" stroke="black" stroke-dasharray="5,2"
                  d="M395.5,-133C333.25,-133 352.37,-40.96 299.02,-30.89"/>
            <polygon fill="black" stroke="black"
                     points="289,-30 299.36,-26.4 293.98,-30.44 298.96,-30.89 298.96,-30.89 298.96,-30.89 293.98,-30.44 298.56,-35.37 289,-30 289,-30"/>
        </g>
        <!-- RESERVATION.予約可能会議室&#45;&gt;RESERVATION.会議室 -->
        <g id="edge4" class="edge">
            <title>RESERVATION.予約可能会議室:r3&#45;&gt;RESERVATION.会議室:r6</title>
            <path fill="none" stroke="black" stroke-dasharray="5,2" d="M168,-153C149.78,-153 142.88,-153 128.55,-153"/>
            <polygon fill="black" stroke="black"
                     points="118.5,-153 128.5,-148.5 123.5,-153 128.5,-153 128.5,-153 128.5,-153 123.5,-153 128.5,-157.5 118.5,-153 118.5,-153"/>
        </g>
        <!-- PUBLIC.flyway_schema_history -->
        <g id="node5" class="node">
            <title>PUBLIC.flyway_schema_history</title>
            <polygon fill="#eee9bf" stroke="transparent"
                     points="365,-268.5 365,-295.5 520,-295.5 520,-268.5 365,-268.5"/>
            <polygon fill="#eedd82" stroke="transparent"
                     points="365.5,-268 365.5,-295 520.5,-295 520.5,-268 365.5,-268"/>
            <polygon fill="none" stroke="black" points="365.5,-268 365.5,-295 520.5,-295 520.5,-268 365.5,-268"/>
            <text text-anchor="start" x="371.5" y="-278.8" font-family="Times New Roman,serif" font-weight="bold"
                  font-size="14.00">flyway_schema_history
            </text>
        </g>
    </g>
</svg>
