<?xml version="1.0" encoding="UTF-8" standalone="no"?>
<!DOCTYPE svg PUBLIC "-//W3C//DTD SVG 1.1//EN"
        "http://www.w3.org/Graphics/SVG/1.1/DTD/svg11.dtd">
<!-- Generated by graphviz version 3.0.0 (20220226.1711)
 -->
<!-- Title: ERD Pages: 1 -->
<svg width="614pt" height="298pt"
     viewBox="0.00 0.00 614.00 298.00" xmlns="http://www.w3.org/2000/svg">
    <g id="graph0" class="graph" transform="scale(1 1) rotate(0) translate(4 294)">
        <title>ERD</title>
        <polygon fill="white" stroke="transparent" points="-4,4 -4,-294 610,-294 610,4 -4,4"/>
        <g id="clust1" class="cluster">
            <title>cluster_SAMPLE</title>
            <polygon fill="lightyellow" stroke="black" points="461,-8 461,-83 548,-83 548,-8 461,-8"/>
            <text text-anchor="middle" x="504.5" y="-67.8" font-family="Times New Roman,serif" font-size="14.00">
                SAMPLE
            </text>
        </g>
        <g id="clust2" class="cluster">
            <title>cluster_PUBLIC</title>
            <polygon fill="lightyellow" stroke="black" points="8,-91 8,-282 598,-282 598,-91 8,-91"/>
            <text text-anchor="middle" x="303" y="-266.8" font-family="Times New Roman,serif" font-size="14.00">PUBLIC
            </text>
        </g>
        <!-- SAMPLE.TODO -->
        <g id="node1" class="node">
            <title>SAMPLE.TODO</title>
            <polygon fill="#eee9bf" stroke="transparent" points="477,-20.5 477,-47.5 532,-47.5 532,-20.5 477,-20.5"/>
            <polygon fill="#eedd82" stroke="transparent" points="477.5,-20 477.5,-47 532.5,-47 532.5,-20 477.5,-20"/>
            <polygon fill="none" stroke="black" points="477.5,-20 477.5,-47 532.5,-47 532.5,-20 477.5,-20"/>
            <text text-anchor="start" x="483.5" y="-30.8" font-family="Times New Roman,serif" font-weight="bold"
                  font-size="14.00">TODO
            </text>
        </g>
        <!-- PUBLIC.RESERVATION -->
        <g id="node2" class="node">
            <title>PUBLIC.RESERVATION</title>
            <polygon fill="#eee9bf" stroke="transparent" points="443,-157 443,-247 566,-247 566,-157 443,-157"/>
            <polygon fill="#eedd82" stroke="transparent"
                     points="443.5,-220 443.5,-247 566.5,-247 566.5,-220 443.5,-220"/>
            <polygon fill="none" stroke="black" points="443.5,-220 443.5,-247 566.5,-247 566.5,-220 443.5,-220"/>
            <text text-anchor="start" x="452" y="-230.8" font-family="Times New Roman,serif" font-weight="bold"
                  font-size="14.00">RESERVATION
            </text>
            <polygon fill="none" stroke="black" points="443.5,-199 443.5,-220 566.5,-220 566.5,-199 443.5,-199"/>
            <text text-anchor="start" x="446.5" y="-205.8" font-family="Times New Roman,serif" font-size="14.00">
                RESERVED_DATE
            </text>
            <polygon fill="none" stroke="black" points="443.5,-178 443.5,-199 566.5,-199 566.5,-178 443.5,-178"/>
            <text text-anchor="start" x="446.5" y="-184.8" font-family="Times New Roman,serif" font-size="14.00">
                ROOM_ID
            </text>
            <polygon fill="none" stroke="black" points="443.5,-157 443.5,-178 566.5,-178 566.5,-157 443.5,-157"/>
            <text text-anchor="start" x="446.5" y="-163.8" font-family="Times New Roman,serif" font-size="14.00">
                USER_ID
            </text>
        </g>
        <!-- PUBLIC.USR -->
        <g id="node3" class="node">
            <title>PUBLIC.USR</title>
            <polygon fill="#eee9bf" stroke="transparent"
                     points="261.5,-103 261.5,-151 325.5,-151 325.5,-103 261.5,-103"/>
            <polygon fill="#eedd82" stroke="transparent"
                     points="261.5,-124 261.5,-151 325.5,-151 325.5,-124 261.5,-124"/>
            <polygon fill="none" stroke="black" points="261.5,-124 261.5,-151 325.5,-151 325.5,-124 261.5,-124"/>
            <text text-anchor="start" x="279" y="-134.8" font-family="Times New Roman,serif" font-weight="bold"
                  font-size="14.00">USR
            </text>
            <polygon fill="none" stroke="black" points="261.5,-103 261.5,-124 325.5,-124 325.5,-103 261.5,-103"/>
            <text text-anchor="start" x="264.5" y="-109.8" font-family="Times New Roman,serif" font-size="14.00">
                USER_ID
            </text>
        </g>
        <!-- PUBLIC.RESERVATION&#45;&gt;PUBLIC.USR -->
        <g id="edge3" class="edge">
            <title>PUBLIC.RESERVATION:r4&#45;&gt;PUBLIC.USR:r5</title>
            <path fill="none" stroke="black" stroke-dasharray="5,2"
                  d="M442.5,-167C389.19,-167 383.86,-119.54 336.55,-113.61"/>
            <polygon fill="black" stroke="black"
                     points="326.5,-113 336.75,-109.11 331.49,-113.3 336.48,-113.6 336.48,-113.6 336.48,-113.6 331.49,-113.3 336.21,-118.09 326.5,-113 326.5,-113"/>
        </g>
        <!-- PUBLIC.RESERVABLE_ROOM -->
        <g id="node4" class="node">
            <title>PUBLIC.RESERVABLE_ROOM</title>
            <polygon fill="#eee9bf" stroke="transparent"
                     points="212,-177.5 212,-246.5 375,-246.5 375,-177.5 212,-177.5"/>
            <polygon fill="#eedd82" stroke="transparent"
                     points="212.5,-219 212.5,-246 375.5,-246 375.5,-219 212.5,-219"/>
            <polygon fill="none" stroke="black" points="212.5,-219 212.5,-246 375.5,-246 375.5,-219 212.5,-219"/>
            <text text-anchor="start" x="218.5" y="-229.8" font-family="Times New Roman,serif" font-weight="bold"
                  font-size="14.00">RESERVABLE_ROOM
            </text>
            <polygon fill="none" stroke="black" points="212.5,-198 212.5,-219 375.5,-219 375.5,-198 212.5,-198"/>
            <text text-anchor="start" x="215.5" y="-204.8" font-family="Times New Roman,serif" font-size="14.00">
                RESERVED_DATE
            </text>
            <polygon fill="none" stroke="black" points="212.5,-177 212.5,-198 375.5,-198 375.5,-177 212.5,-177"/>
            <text text-anchor="start" x="215.5" y="-183.8" font-family="Times New Roman,serif" font-size="14.00">
                ROOM_ID
            </text>
        </g>
        <!-- PUBLIC.RESERVATION&#45;&gt;PUBLIC.RESERVABLE_ROOM -->
        <g id="edge1" class="edge">
            <title>PUBLIC.RESERVATION:r0&#45;&gt;PUBLIC.RESERVABLE_ROOM:r1</title>
            <path fill="none" stroke="black" stroke-dasharray="5,2"
                  d="M442.5,-210C416.82,-210 408.02,-208.47 386.56,-208.09"/>
            <polygon fill="black" stroke="black"
                     points="376.5,-208 386.54,-203.59 381.5,-208.04 386.5,-208.09 386.5,-208.09 386.5,-208.09 381.5,-208.04 386.46,-212.59 376.5,-208 376.5,-208"/>
        </g>
        <!-- PUBLIC.RESERVATION&#45;&gt;PUBLIC.RESERVABLE_ROOM -->
        <g id="edge2" class="edge">
            <title>PUBLIC.RESERVATION:r2&#45;&gt;PUBLIC.RESERVABLE_ROOM:r3</title>
            <path fill="none" stroke="black" stroke-dasharray="5,2"
                  d="M442.5,-188C416.83,-188 408.01,-187.23 386.56,-187.04"/>
            <polygon fill="black" stroke="black"
                     points="376.5,-187 386.52,-182.54 381.5,-187.02 386.5,-187.04 386.5,-187.04 386.5,-187.04 381.5,-187.02 386.48,-191.54 376.5,-187 376.5,-187"/>
        </g>
        <!-- PUBLIC.MEETING_ROOM -->
        <g id="node6" class="node">
            <title>PUBLIC.MEETING_ROOM</title>
            <polygon fill="#eee9bf" stroke="transparent" points="24,-177 24,-225 160,-225 160,-177 24,-177"/>
            <polygon fill="#eedd82" stroke="transparent" points="24,-198 24,-225 160,-225 160,-198 24,-198"/>
            <polygon fill="none" stroke="black" points="24,-198 24,-225 160,-225 160,-198 24,-198"/>
            <text text-anchor="start" x="30" y="-208.8" font-family="Times New Roman,serif" font-weight="bold"
                  font-size="14.00">MEETING_ROOM
            </text>
            <polygon fill="none" stroke="black" points="24,-177 24,-198 160,-198 160,-177 24,-177"/>
            <text text-anchor="start" x="27" y="-183.8" font-family="Times New Roman,serif" font-size="14.00">ROOM_ID
            </text>
        </g>
        <!-- PUBLIC.RESERVABLE_ROOM&#45;&gt;PUBLIC.MEETING_ROOM -->
        <g id="edge4" class="edge">
            <title>PUBLIC.RESERVABLE_ROOM:r3&#45;&gt;PUBLIC.MEETING_ROOM:r6</title>
            <path fill="none" stroke="black" stroke-dasharray="5,2"
                  d="M211.5,-187C192.91,-187 185.87,-187 171.25,-187"/>
            <polygon fill="black" stroke="black"
                     points="161,-187 171,-182.5 166,-187 171,-187 171,-187 171,-187 166,-187 171,-191.5 161,-187 161,-187"/>
        </g>
        <!-- PUBLIC.flyway_schema_history -->
        <g id="node5" class="node">
            <title>PUBLIC.flyway_schema_history</title>
            <polygon fill="#eee9bf" stroke="transparent"
                     points="427,-103.5 427,-130.5 582,-130.5 582,-103.5 427,-103.5"/>
            <polygon fill="#eedd82" stroke="transparent"
                     points="427.5,-103 427.5,-130 582.5,-130 582.5,-103 427.5,-103"/>
            <polygon fill="none" stroke="black" points="427.5,-103 427.5,-130 582.5,-130 582.5,-103 427.5,-103"/>
            <text text-anchor="start" x="433.5" y="-113.8" font-family="Times New Roman,serif" font-weight="bold"
                  font-size="14.00">flyway_schema_history
            </text>
        </g>
    </g>
</svg>
