<?xml version="1.0" encoding="UTF-8" standalone="no"?>
<!DOCTYPE svg PUBLIC "-//W3C//DTD SVG 1.1//EN"
        "http://www.w3.org/Graphics/SVG/1.1/DTD/svg11.dtd">
<!-- Generated by graphviz version 3.0.0 (20220226.1711)
 -->
<!-- Title: ERD Pages: 1 -->
<svg width="466pt" height="265pt"
     viewBox="0.00 0.00 466.00 265.00" xmlns="http://www.w3.org/2000/svg">
    <g id="graph0" class="graph" transform="scale(1 1) rotate(0) translate(4 261)">
        <title>ERD</title>
        <polygon fill="white" stroke="transparent" points="-4,4 -4,-261 462,-261 462,4 -4,4"/>
        <g id="clust1" class="cluster">
            <title>cluster_RESERVATION</title>
            <polygon fill="lightyellow" stroke="black" points="8,-91 8,-166 402.5,-166 402.5,-91 8,-91"/>
            <text text-anchor="middle" x="205.25" y="-150.8" font-family="Times New Roman,serif" font-size="14.00">
                RESERVATION
            </text>
        </g>
        <g id="clust3" class="cluster">
            <title>cluster_PUBLIC</title>
            <polygon fill="lightyellow" stroke="black" points="285,-174 285,-249 450,-249 450,-174 285,-174"/>
            <text text-anchor="middle" x="367.5" y="-233.8" font-family="Times New Roman,serif" font-size="14.00">
                PUBLIC
            </text>
        </g>
        <g id="clust2" class="cluster">
            <title>cluster_AUTH</title>
            <polygon fill="lightyellow" stroke="black" points="146.5,-8 146.5,-83 230.5,-83 230.5,-8 146.5,-8"/>
            <text text-anchor="middle" x="188.5" y="-67.8" font-family="Times New Roman,serif" font-size="14.00">AUTH
            </text>
        </g>
        <!-- RESERVATION.会議室 -->
        <g id="node1" class="node">
            <title>RESERVATION.会議室</title>
            <polygon fill="#eedd82" stroke="black" points="84,-135 16,-135 16,-99 84,-99 84,-135"/>
            <text text-anchor="middle" x="50" y="-113.3" font-family="Times New Roman,serif" font-size="14.00">会議室
            </text>
        </g>
        <!-- RESERVATION.予約 -->
        <g id="node2" class="node">
            <title>RESERVATION.予約</title>
            <polygon fill="#eedd82" stroke="black" points="394.5,-135 340.5,-135 340.5,-99 394.5,-99 394.5,-135"/>
            <text text-anchor="middle" x="367.5" y="-113.3" font-family="Times New Roman,serif" font-size="14.00">予約
            </text>
        </g>
        <!-- RESERVATION.予約可能会議室 -->
        <g id="node3" class="node">
            <title>RESERVATION.予約可能会議室</title>
            <polygon fill="#eedd82" stroke="black" points="257,-135 120,-135 120,-99 257,-99 257,-135"/>
            <text text-anchor="middle" x="188.5" y="-113.3" font-family="Times New Roman,serif" font-size="14.00">
                予約可能会議室
            </text>
        </g>
        <!-- RESERVATION.予約&#45;&gt;RESERVATION.予約可能会議室 -->
        <g id="edge2" class="edge">
            <title>RESERVATION.予約&#45;&gt;RESERVATION.予約可能会議室</title>
            <path fill="none" stroke="black" stroke-dasharray="5,2"
                  d="M340.38,-117C321.03,-117 293.57,-117 267.38,-117"/>
            <polygon fill="black" stroke="black"
                     points="257.03,-117 267.03,-112.5 262.03,-117 267.03,-117 267.03,-117 267.03,-117 262.03,-117 267.03,-121.5 257.03,-117 257.03,-117"/>
        </g>
        <!-- AUTH.利用者 -->
        <g id="node4" class="node">
            <title>AUTH.利用者</title>
            <polygon fill="#eedd82" stroke="black" points="222.5,-52 154.5,-52 154.5,-16 222.5,-16 222.5,-52"/>
            <text text-anchor="middle" x="188.5" y="-30.3" font-family="Times New Roman,serif" font-size="14.00">利用者
            </text>
        </g>
        <!-- RESERVATION.予約&#45;&gt;AUTH.利用者 -->
        <g id="edge1" class="edge">
            <title>RESERVATION.予約&#45;&gt;AUTH.利用者</title>
            <path fill="none" stroke="black" stroke-dasharray="5,2"
                  d="M340.38,-104.75C311.82,-91.36 265.6,-69.69 231.84,-53.85"/>
            <polygon fill="black" stroke="black"
                     points="222.67,-49.56 233.64,-49.73 227.2,-51.68 231.73,-53.8 231.73,-53.8 231.73,-53.8 227.2,-51.68 229.82,-57.88 222.67,-49.56 222.67,-49.56"/>
        </g>
        <!-- RESERVATION.予約可能会議室&#45;&gt;RESERVATION.会議室 -->
        <g id="edge3" class="edge">
            <title>RESERVATION.予約可能会議室&#45;&gt;RESERVATION.会議室</title>
            <path fill="none" stroke="black" stroke-dasharray="5,2"
                  d="M119.65,-117C111.09,-117 102.52,-117 94.48,-117"/>
            <polygon fill="black" stroke="black"
                     points="84.27,-117 94.27,-112.5 89.27,-117 94.27,-117 94.27,-117 94.27,-117 89.27,-117 94.27,-121.5 84.27,-117 84.27,-117"/>
        </g>
        <!-- PUBLIC.flyway_schema_history -->
        <g id="node5" class="node">
            <title>PUBLIC.flyway_schema_history</title>
            <polygon fill="#eedd82" stroke="black" points="442,-218 293,-218 293,-182 442,-182 442,-218"/>
            <text text-anchor="middle" x="367.5" y="-196.3" font-family="Times New Roman,serif" font-size="14.00">
                flyway_schema_history
            </text>
        </g>
    </g>
</svg>
