<?xml version="1.0" encoding="UTF-8" standalone="no"?>
<!DOCTYPE svg PUBLIC "-//W3C//DTD SVG 1.1//EN"
        "http://www.w3.org/Graphics/SVG/1.1/DTD/svg11.dtd">
<!-- Generated by graphviz version 3.0.0 (20220226.1711)
 -->
<!-- Title: アーキテクチャ図 Pages: 1 -->
<svg width="393pt" height="371pt"
     viewBox="0.00 0.00 393.00 371.00" xmlns="http://www.w3.org/2000/svg">
    <g id="graph0" class="graph" transform="scale(1 1) rotate(0) translate(4 367)">
        <title>アーキテクチャ図</title>
        <polygon fill="white" stroke="transparent" points="-4,4 -4,-367 389,-367 389,4 -4,4"/>
        <text text-anchor="middle" x="192.5" y="-7.8" font-family="Times New Roman,serif" font-size="14.00">アーキテクチャ図
        </text>
        <g id="clust1" class="cluster">
            <title>clusterArchitecture</title>
            <polygon fill="lightyellow" stroke="#eedd82" points="8,-87 8,-355 264,-355 264,-87 8,-87"/>
        </g>
        <!-- mrs.application -->
        <g id="node1" class="node">
            <title>mrs.application</title>
            <polygon fill="#eedd82" stroke="black"
                     points="255.5,-275 56.5,-275 56.5,-271 52.5,-271 52.5,-267 56.5,-267 56.5,-247 52.5,-247 52.5,-243 56.5,-243 56.5,-239 255.5,-239 255.5,-275"/>
            <polyline fill="none" stroke="black" points="56.5,-271 60.5,-271 60.5,-267 56.5,-267 "/>
            <polyline fill="none" stroke="black" points="56.5,-247 60.5,-247 60.5,-243 56.5,-243 "/>
            <text text-anchor="middle" x="156" y="-252" font-family="Times New Roman,serif" font-size="20.00">
                アプリケーション層
            </text>
        </g>
        <!-- mrs.domain -->
        <g id="node2" class="node">
            <title>mrs.domain</title>
            <polygon fill="#eedd82" stroke="black"
                     points="134,-131 16,-131 16,-127 12,-127 12,-123 16,-123 16,-103 12,-103 12,-99 16,-99 16,-95 134,-95 134,-131"/>
            <polyline fill="none" stroke="black" points="16,-127 20,-127 20,-123 16,-123 "/>
            <polyline fill="none" stroke="black" points="16,-103 20,-103 20,-99 16,-99 "/>
            <text text-anchor="middle" x="75" y="-108" font-family="Times New Roman,serif" font-size="20.00">ドメイン層
            </text>
        </g>
        <!-- mrs.application&#45;&gt;mrs.domain -->
        <g id="edge4" class="edge">
            <title>mrs.application&#45;&gt;mrs.domain</title>
            <path fill="none" stroke="black" d="M68.25,-238.76C68.25,-238.76 68.25,-141.09 68.25,-141.09"/>
            <polygon fill="black" stroke="black" points="71.75,-141.09 68.25,-131.09 64.75,-141.09 71.75,-141.09"/>
        </g>
        <!-- mrs.infrastructure -->
        <g id="node3" class="node">
            <title>mrs.infrastructure</title>
            <polygon fill="#eedd82" stroke="black"
                     points="238,-203 80,-203 80,-199 76,-199 76,-195 80,-195 80,-175 76,-175 76,-171 80,-171 80,-167 238,-167 238,-203"/>
            <polyline fill="none" stroke="black" points="80,-199 84,-199 84,-195 80,-195 "/>
            <polyline fill="none" stroke="black" points="80,-175 84,-175 84,-171 80,-171 "/>
            <text text-anchor="middle" x="159" y="-180" font-family="Times New Roman,serif" font-size="20.00">データソース層
            </text>
        </g>
        <!-- mrs.application&#45;&gt;mrs.infrastructure -->
        <g id="edge9" class="edge">
            <title>mrs.application&#45;&gt;mrs.infrastructure</title>
            <path fill="none" stroke="black" d="M132.67,-238.83C132.67,-238.83 132.67,-213.41 132.67,-213.41"/>
            <polygon fill="black" stroke="black" points="136.17,-213.41 132.67,-203.41 129.17,-213.41 136.17,-213.41"/>
        </g>
        <!-- org.springframework -->
        <g id="node5" class="node">
            <title>org.springframework</title>
            <polygon fill="lightgrey" stroke="black"
                     points="229,-59 95,-59 95,-55 91,-55 91,-51 95,-51 95,-31 91,-31 91,-27 95,-27 95,-23 229,-23 229,-59"/>
            <polyline fill="none" stroke="black" points="95,-55 99,-55 99,-51 95,-51 "/>
            <polyline fill="none" stroke="black" points="95,-31 99,-31 99,-27 95,-27 "/>
            <text text-anchor="middle" x="162" y="-37.3" font-family="Times New Roman,serif" font-size="14.00">
                org.springframework
            </text>
        </g>
        <!-- mrs.application&#45;&gt;org.springframework -->
        <g id="edge12" class="edge">
            <title>mrs.application&#45;&gt;org.springframework</title>
            <path fill="none" stroke="black"
                  d="M246.75,-238.99C246.75,-188.63 246.75,-50 246.75,-50 246.75,-50 239.19,-50 239.19,-50"/>
            <polygon fill="black" stroke="black" points="239.19,-46.5 229.19,-50 239.19,-53.5 239.19,-46.5"/>
        </g>
        <!-- mrs.domain&#45;&gt;org.springframework -->
        <g id="edge3" class="edge">
            <title>mrs.domain&#45;&gt;org.springframework</title>
            <path fill="none" stroke="black" d="M114.5,-94.83C114.5,-94.83 114.5,-69.41 114.5,-69.41"/>
            <polygon fill="black" stroke="black" points="118,-69.41 114.5,-59.41 111,-69.41 118,-69.41"/>
        </g>
        <!-- mrs.infrastructure&#45;&gt;mrs.application -->
        <g id="edge2" class="edge">
            <title>mrs.infrastructure&#45;&gt;mrs.application</title>
            <path fill="none" stroke="black" d="M185.33,-203.17C185.33,-203.17 185.33,-228.59 185.33,-228.59"/>
            <polygon fill="black" stroke="black" points="181.83,-228.59 185.33,-238.59 188.83,-228.59 181.83,-228.59"/>
        </g>
        <!-- mrs.infrastructure&#45;&gt;mrs.domain -->
        <g id="edge5" class="edge">
            <title>mrs.infrastructure&#45;&gt;mrs.domain</title>
            <path fill="none" stroke="black" d="M107,-166.83C107,-166.83 107,-141.41 107,-141.41"/>
            <polygon fill="black" stroke="black" points="110.5,-141.41 107,-131.41 103.5,-141.41 110.5,-141.41"/>
        </g>
        <!-- mrs.infrastructure&#45;&gt;org.springframework -->
        <g id="edge1" class="edge">
            <title>mrs.infrastructure&#45;&gt;org.springframework</title>
            <path fill="none" stroke="black" d="M181.5,-166.76C181.5,-166.76 181.5,-69.09 181.5,-69.09"/>
            <polygon fill="black" stroke="black" points="185,-69.09 181.5,-59.09 178,-69.09 185,-69.09"/>
        </g>
        <!-- org.apache -->
        <g id="node7" class="node">
            <title>org.apache</title>
            <polygon fill="lightgrey" stroke="black"
                     points="350,-131 272,-131 272,-127 268,-127 268,-123 272,-123 272,-103 268,-103 268,-99 272,-99 272,-95 350,-95 350,-131"/>
            <polyline fill="none" stroke="black" points="272,-127 276,-127 276,-123 272,-123 "/>
            <polyline fill="none" stroke="black" points="272,-103 276,-103 276,-99 272,-99 "/>
            <text text-anchor="middle" x="311" y="-109.3" font-family="Times New Roman,serif" font-size="14.00">
                org.apache
            </text>
        </g>
        <!-- mrs.infrastructure&#45;&gt;org.apache -->
        <g id="edge8" class="edge">
            <title>mrs.infrastructure&#45;&gt;org.apache</title>
            <path fill="none" stroke="black"
                  d="M233.5,-166.83C233.5,-145.5 233.5,-113 233.5,-113 233.5,-113 261.8,-113 261.8,-113"/>
            <polygon fill="black" stroke="black" points="261.8,-116.5 271.8,-113 261.8,-109.5 261.8,-116.5"/>
        </g>
        <!-- mrs.presentation -->
        <g id="node4" class="node">
            <title>mrs.presentation</title>
            <polygon fill="#eedd82" stroke="black"
                     points="235.5,-347 16.5,-347 16.5,-343 12.5,-343 12.5,-339 16.5,-339 16.5,-319 12.5,-319 12.5,-315 16.5,-315 16.5,-311 235.5,-311 235.5,-347"/>
            <polyline fill="none" stroke="black" points="16.5,-343 20.5,-343 20.5,-339 16.5,-339 "/>
            <polyline fill="none" stroke="black" points="16.5,-319 20.5,-319 20.5,-315 16.5,-315 "/>
            <text text-anchor="middle" x="126" y="-324" font-family="Times New Roman,serif" font-size="20.00">
                プレゼンテーション層
            </text>
        </g>
        <!-- mrs.presentation&#45;&gt;mrs.application -->
        <g id="edge10" class="edge">
            <title>mrs.presentation&#45;&gt;mrs.application</title>
            <path fill="none" stroke="black" d="M146,-310.83C146,-310.83 146,-285.41 146,-285.41"/>
            <polygon fill="black" stroke="black" points="149.5,-285.41 146,-275.41 142.5,-285.41 149.5,-285.41"/>
        </g>
        <!-- mrs.presentation&#45;&gt;mrs.domain -->
        <g id="edge6" class="edge">
            <title>mrs.presentation&#45;&gt;mrs.domain</title>
            <path fill="none" stroke="black" d="M29.83,-310.96C29.83,-310.96 29.83,-141.15 29.83,-141.15"/>
            <polygon fill="black" stroke="black" points="33.33,-141.15 29.83,-131.15 26.33,-141.15 33.33,-141.15"/>
        </g>
        <!-- mrs.presentation&#45;&gt;mrs.infrastructure -->
        <g id="edge13" class="edge">
            <title>mrs.presentation&#45;&gt;mrs.infrastructure</title>
            <path fill="none" stroke="black"
                  d="M43.17,-310.76C43.17,-272.01 43.17,-185 43.17,-185 43.17,-185 69.82,-185 69.82,-185"/>
            <polygon fill="black" stroke="black" points="69.82,-188.5 79.82,-185 69.82,-181.5 69.82,-188.5"/>
        </g>
        <!-- mrs.presentation&#45;&gt;org.springframework -->
        <g id="edge11" class="edge">
            <title>mrs.presentation&#45;&gt;org.springframework</title>
            <path fill="none" stroke="black"
                  d="M235.54,-329C252.08,-329 263.75,-329 263.75,-329 263.75,-329 263.75,-41 263.75,-41 263.75,-41 239.02,-41 239.02,-41"/>
            <polygon fill="black" stroke="black" points="239.02,-37.5 229.02,-41 239.02,-44.5 239.02,-37.5"/>
        </g>
        <!-- mrs -->
        <g id="node6" class="node">
            <title>mrs</title>
            <polygon fill="lightgrey" stroke="black"
                     points="385,-347 331,-347 331,-343 327,-343 327,-339 331,-339 331,-319 327,-319 327,-315 331,-315 331,-311 385,-311 385,-347"/>
            <polyline fill="none" stroke="black" points="331,-343 335,-343 335,-339 331,-339 "/>
            <polyline fill="none" stroke="black" points="331,-319 335,-319 335,-315 331,-315 "/>
            <text text-anchor="middle" x="358" y="-325.3" font-family="Times New Roman,serif" font-size="14.00">mrs
            </text>
        </g>
        <!-- mrs&#45;&gt;mrs.application -->
        <g id="edge7" class="edge">
            <title>mrs&#45;&gt;mrs.application</title>
            <path fill="none" stroke="black"
                  d="M340.5,-310.83C340.5,-289.5 340.5,-257 340.5,-257 340.5,-257 265.54,-257 265.54,-257"/>
            <polygon fill="black" stroke="black" points="265.54,-253.5 255.54,-257 265.54,-260.5 265.54,-253.5"/>
        </g>
        <!-- mrs&#45;&gt;org.springframework -->
        <g id="edge14" class="edge">
            <title>mrs&#45;&gt;org.springframework</title>
            <path fill="none" stroke="black"
                  d="M367.5,-310.87C367.5,-246.39 367.5,-32 367.5,-32 367.5,-32 239,-32 239,-32"/>
            <polygon fill="black" stroke="black" points="239,-28.5 229,-32 239,-35.5 239,-28.5"/>
        </g>
    </g>
</svg>
