<?xml version="1.0" encoding="UTF-8" standalone="no"?>
<!DOCTYPE svg PUBLIC "-//W3C//DTD SVG 1.1//EN"
        "http://www.w3.org/Graphics/SVG/1.1/DTD/svg11.dtd">
<!-- Generated by graphviz version 3.0.0 (20220226.1711)
 -->
<!-- Title: アーキテクチャ図 Pages: 1 -->
<svg width="438pt" height="371pt"
     viewBox="0.00 0.00 438.00 371.00" xmlns="http://www.w3.org/2000/svg">
    <g id="graph0" class="graph" transform="scale(1 1) rotate(0) translate(4 367)">
        <title>アーキテクチャ図</title>
        <polygon fill="white" stroke="transparent" points="-4,4 -4,-367 434,-367 434,4 -4,4"/>
        <text text-anchor="middle" x="215" y="-7.8" font-family="Times New Roman,serif" font-size="14.00">アーキテクチャ図
        </text>
        <g id="clust1" class="cluster">
            <title>clusterArchitecture</title>
            <polygon fill="lightyellow" stroke="#eedd82" points="86,-87 86,-355 342,-355 342,-87 86,-87"/>
        </g>
        <!-- mrs.application -->
        <g id="node1" class="node">
            <title>mrs.application</title>
            <polygon fill="#eedd82" stroke="black"
                     points="313.5,-275 114.5,-275 114.5,-271 110.5,-271 110.5,-267 114.5,-267 114.5,-247 110.5,-247 110.5,-243 114.5,-243 114.5,-239 313.5,-239 313.5,-275"/>
            <polyline fill="none" stroke="black" points="114.5,-271 118.5,-271 118.5,-267 114.5,-267 "/>
            <polyline fill="none" stroke="black" points="114.5,-247 118.5,-247 118.5,-243 114.5,-243 "/>
            <text text-anchor="middle" x="214" y="-252" font-family="Times New Roman,serif" font-size="20.00">
                アプリケーション層
            </text>
        </g>
        <!-- mrs.domain -->
        <g id="node2" class="node">
            <title>mrs.domain</title>
            <polygon fill="#eedd82" stroke="black"
                     points="332,-131 214,-131 214,-127 210,-127 210,-123 214,-123 214,-103 210,-103 210,-99 214,-99 214,-95 332,-95 332,-131"/>
            <polyline fill="none" stroke="black" points="214,-127 218,-127 218,-123 214,-123 "/>
            <polyline fill="none" stroke="black" points="214,-103 218,-103 218,-99 214,-99 "/>
            <text text-anchor="middle" x="273" y="-108" font-family="Times New Roman,serif" font-size="20.00">ドメイン層
            </text>
        </g>
        <!-- mrs.application&#45;&gt;mrs.domain -->
        <g id="edge4" class="edge">
            <title>mrs.application&#45;&gt;mrs.domain</title>
            <path fill="none" stroke="black" d="M286.25,-238.76C286.25,-238.76 286.25,-141.09 286.25,-141.09"/>
            <polygon fill="black" stroke="black" points="289.75,-141.09 286.25,-131.09 282.75,-141.09 289.75,-141.09"/>
        </g>
        <!-- mrs.infrastructure -->
        <g id="node3" class="node">
            <title>mrs.infrastructure</title>
            <polygon fill="#eedd82" stroke="black"
                     points="259,-203 101,-203 101,-199 97,-199 97,-195 101,-195 101,-175 97,-175 97,-171 101,-171 101,-167 259,-167 259,-203"/>
            <polyline fill="none" stroke="black" points="101,-199 105,-199 105,-195 101,-195 "/>
            <polyline fill="none" stroke="black" points="101,-175 105,-175 105,-171 101,-171 "/>
            <text text-anchor="middle" x="180" y="-180" font-family="Times New Roman,serif" font-size="20.00">データソース層
            </text>
        </g>
        <!-- mrs.application&#45;&gt;mrs.infrastructure -->
        <g id="edge12" class="edge">
            <title>mrs.application&#45;&gt;mrs.infrastructure</title>
            <path fill="none" stroke="black" d="M210.83,-238.83C210.83,-238.83 210.83,-213.41 210.83,-213.41"/>
            <polygon fill="black" stroke="black" points="214.33,-213.41 210.83,-203.41 207.33,-213.41 214.33,-213.41"/>
        </g>
        <!-- org.springframework -->
        <g id="node5" class="node">
            <title>org.springframework</title>
            <polygon fill="lightgrey" stroke="black"
                     points="340,-59 206,-59 206,-55 202,-55 202,-51 206,-51 206,-31 202,-31 202,-27 206,-27 206,-23 340,-23 340,-59"/>
            <polyline fill="none" stroke="black" points="206,-55 210,-55 210,-51 206,-51 "/>
            <polyline fill="none" stroke="black" points="206,-31 210,-31 210,-27 206,-27 "/>
            <text text-anchor="middle" x="273" y="-37.3" font-family="Times New Roman,serif" font-size="14.00">
                org.springframework
            </text>
        </g>
        <!-- mrs.application&#45;&gt;org.springframework -->
        <g id="edge15" class="edge">
            <title>mrs.application&#45;&gt;org.springframework</title>
            <path fill="none" stroke="black"
                  d="M313.66,-257C330.86,-257 343.33,-257 343.33,-257 343.33,-257 343.33,-47 343.33,-47 343.33,-47 343.03,-47 343.03,-47"/>
            <polygon fill="black" stroke="black" points="350.31,-43.5 340.31,-47 350.31,-50.5 350.31,-43.5"/>
        </g>
        <!-- mrs.domain&#45;&gt;org.springframework -->
        <g id="edge3" class="edge">
            <title>mrs.domain&#45;&gt;org.springframework</title>
            <path fill="none" stroke="black" d="M273,-94.83C273,-94.83 273,-69.41 273,-69.41"/>
            <polygon fill="black" stroke="black" points="276.5,-69.41 273,-59.41 269.5,-69.41 276.5,-69.41"/>
        </g>
        <!-- mrs.infrastructure&#45;&gt;mrs.application -->
        <g id="edge2" class="edge">
            <title>mrs.infrastructure&#45;&gt;mrs.application</title>
            <path fill="none" stroke="black" d="M162.67,-203.17C162.67,-203.17 162.67,-228.59 162.67,-228.59"/>
            <polygon fill="black" stroke="black" points="159.17,-228.59 162.67,-238.59 166.17,-228.59 159.17,-228.59"/>
        </g>
        <!-- mrs.infrastructure&#45;&gt;mrs.domain -->
        <g id="edge6" class="edge">
            <title>mrs.infrastructure&#45;&gt;mrs.domain</title>
            <path fill="none" stroke="black" d="M236.5,-166.83C236.5,-166.83 236.5,-141.41 236.5,-141.41"/>
            <polygon fill="black" stroke="black" points="240,-141.41 236.5,-131.41 233,-141.41 240,-141.41"/>
        </g>
        <!-- mrs.infrastructure&#45;&gt;org.springframework -->
        <g id="edge1" class="edge">
            <title>mrs.infrastructure&#45;&gt;org.springframework</title>
            <path fill="none" stroke="black" d="M211.33,-166.76C211.33,-166.76 211.33,-69.09 211.33,-69.09"/>
            <polygon fill="black" stroke="black" points="214.83,-69.09 211.33,-59.09 207.83,-69.09 214.83,-69.09"/>
        </g>
        <!-- com.github -->
        <g id="node7" class="node">
            <title>com.github</title>
            <polygon fill="lightgrey" stroke="black"
                     points="430,-131 350,-131 350,-127 346,-127 346,-123 350,-123 350,-103 346,-103 346,-99 350,-99 350,-95 430,-95 430,-131"/>
            <polyline fill="none" stroke="black" points="350,-127 354,-127 354,-123 350,-123 "/>
            <polyline fill="none" stroke="black" points="350,-103 354,-103 354,-99 350,-99 "/>
            <text text-anchor="middle" x="390" y="-109.3" font-family="Times New Roman,serif" font-size="14.00">
                com.github
            </text>
        </g>
        <!-- mrs.infrastructure&#45;&gt;com.github -->
        <g id="edge8" class="edge">
            <title>mrs.infrastructure&#45;&gt;com.github</title>
            <path fill="none" stroke="black"
                  d="M259.14,-185C313.79,-185 376.67,-185 376.67,-185 376.67,-185 376.67,-141.17 376.67,-141.17"/>
            <polygon fill="black" stroke="black" points="380.17,-141.17 376.67,-131.17 373.17,-141.17 380.17,-141.17"/>
        </g>
        <!-- org.apache -->
        <g id="node8" class="node">
            <title>org.apache</title>
            <polygon fill="lightgrey" stroke="black"
                     points="78,-131 0,-131 0,-127 -4,-127 -4,-123 0,-123 0,-103 -4,-103 -4,-99 0,-99 0,-95 78,-95 78,-131"/>
            <polyline fill="none" stroke="black" points="0,-127 4,-127 4,-123 0,-123 "/>
            <polyline fill="none" stroke="black" points="0,-103 4,-103 4,-99 0,-99 "/>
            <text text-anchor="middle" x="39" y="-109.3" font-family="Times New Roman,serif" font-size="14.00">
                org.apache
            </text>
        </g>
        <!-- mrs.infrastructure&#45;&gt;org.apache -->
        <g id="edge11" class="edge">
            <title>mrs.infrastructure&#45;&gt;org.apache</title>
            <path fill="none" stroke="black"
                  d="M100.73,-185C80.57,-185 64.5,-185 64.5,-185 64.5,-185 64.5,-141.17 64.5,-141.17"/>
            <polygon fill="black" stroke="black" points="68,-141.17 64.5,-131.17 61,-141.17 68,-141.17"/>
        </g>
        <!-- mrs.presentation -->
        <g id="node4" class="node">
            <title>mrs.presentation</title>
            <polygon fill="#eedd82" stroke="black"
                     points="333.5,-347 114.5,-347 114.5,-343 110.5,-343 110.5,-339 114.5,-339 114.5,-319 110.5,-319 110.5,-315 114.5,-315 114.5,-311 333.5,-311 333.5,-347"/>
            <polyline fill="none" stroke="black" points="114.5,-343 118.5,-343 118.5,-339 114.5,-339 "/>
            <polyline fill="none" stroke="black" points="114.5,-319 118.5,-319 118.5,-315 114.5,-315 "/>
            <text text-anchor="middle" x="224" y="-324" font-family="Times New Roman,serif" font-size="20.00">
                プレゼンテーション層
            </text>
        </g>
        <!-- mrs.presentation&#45;&gt;mrs.application -->
        <g id="edge13" class="edge">
            <title>mrs.presentation&#45;&gt;mrs.application</title>
            <path fill="none" stroke="black" d="M214,-310.83C214,-310.83 214,-285.41 214,-285.41"/>
            <polygon fill="black" stroke="black" points="217.5,-285.41 214,-275.41 210.5,-285.41 217.5,-285.41"/>
        </g>
        <!-- mrs.presentation&#45;&gt;mrs.domain -->
        <g id="edge7" class="edge">
            <title>mrs.presentation&#45;&gt;mrs.domain</title>
            <path fill="none" stroke="black" d="M322.75,-310.96C322.75,-310.96 322.75,-141.15 322.75,-141.15"/>
            <polygon fill="black" stroke="black" points="326.25,-141.15 322.75,-131.15 319.25,-141.15 326.25,-141.15"/>
        </g>
        <!-- mrs.presentation&#45;&gt;mrs.infrastructure -->
        <g id="edge16" class="edge">
            <title>mrs.presentation&#45;&gt;mrs.infrastructure</title>
            <path fill="none" stroke="black"
                  d="M114.33,-323C111.57,-323 110,-323 110,-323 110,-323 110,-213.04 110,-213.04"/>
            <polygon fill="black" stroke="black" points="113.5,-213.04 110,-203.04 106.5,-213.04 113.5,-213.04"/>
        </g>
        <!-- mrs.presentation&#45;&gt;org.springframework -->
        <g id="edge14" class="edge">
            <title>mrs.presentation&#45;&gt;org.springframework</title>
            <path fill="none" stroke="black"
                  d="M333.54,-323C341.61,-323 346.67,-323 346.67,-323 346.67,-323 346.67,-35 346.67,-35 346.67,-35 346.01,-35 346.01,-35"/>
            <polygon fill="black" stroke="black" points="350.13,-31.5 340.13,-35 350.13,-38.5 350.13,-31.5"/>
        </g>
        <!-- mrs.presentation&#45;&gt;com.github -->
        <g id="edge10" class="edge">
            <title>mrs.presentation&#45;&gt;com.github</title>
            <path fill="none" stroke="black"
                  d="M333.74,-335C370.97,-335 403.33,-335 403.33,-335 403.33,-335 403.33,-141.17 403.33,-141.17"/>
            <polygon fill="black" stroke="black" points="406.83,-141.17 403.33,-131.17 399.83,-141.17 406.83,-141.17"/>
        </g>
        <!-- mrs -->
        <g id="node6" class="node">
            <title>mrs</title>
            <polygon fill="lightgrey" stroke="black"
                     points="78,-347 24,-347 24,-343 20,-343 20,-339 24,-339 24,-319 20,-319 20,-315 24,-315 24,-311 78,-311 78,-347"/>
            <polyline fill="none" stroke="black" points="24,-343 28,-343 28,-339 24,-339 "/>
            <polyline fill="none" stroke="black" points="24,-319 28,-319 28,-315 24,-315 "/>
            <text text-anchor="middle" x="51" y="-325.3" font-family="Times New Roman,serif" font-size="14.00">mrs
            </text>
        </g>
        <!-- mrs&#45;&gt;mrs.application -->
        <g id="edge9" class="edge">
            <title>mrs&#45;&gt;mrs.application</title>
            <path fill="none" stroke="black" d="M51,-310.83C51,-289.5 51,-257 51,-257 51,-257 104.49,-257 104.49,-257"/>
            <polygon fill="black" stroke="black" points="104.49,-260.5 114.49,-257 104.49,-253.5 104.49,-260.5"/>
        </g>
        <!-- mrs&#45;&gt;mrs.infrastructure -->
        <g id="edge5" class="edge">
            <title>mrs&#45;&gt;mrs.infrastructure</title>
            <path fill="none" stroke="black"
                  d="M78.25,-335C91.88,-335 105.5,-335 105.5,-335 105.5,-335 105.5,-213.09 105.5,-213.09"/>
            <polygon fill="black" stroke="black" points="109,-213.09 105.5,-203.09 102,-213.09 109,-213.09"/>
        </g>
        <!-- mrs&#45;&gt;org.springframework -->
        <g id="edge17" class="edge">
            <title>mrs&#45;&gt;org.springframework</title>
            <path fill="none" stroke="black"
                  d="M37.5,-310.75C37.5,-264.99 37.5,-149 37.5,-149 37.5,-149 208.67,-149 208.67,-149 208.67,-149 208.67,-69.32 208.67,-69.32"/>
            <polygon fill="black" stroke="black" points="212.17,-69.32 208.67,-59.32 205.17,-69.32 212.17,-69.32"/>
        </g>
    </g>
</svg>
