<?xml version="1.0" encoding="UTF-8" standalone="no"?>
<!DOCTYPE svg PUBLIC "-//W3C//DTD SVG 1.1//EN"
        "http://www.w3.org/Graphics/SVG/1.1/DTD/svg11.dtd">
<!-- Generated by graphviz version 3.0.0 (20220226.1711)
 -->
<!-- Title: アーキテクチャ図 Pages: 1 -->
<svg width="316pt" height="299pt"
     viewBox="0.00 0.00 316.00 299.00" xmlns="http://www.w3.org/2000/svg">
    <g id="graph0" class="graph" transform="scale(1 1) rotate(0) translate(4 295)">
        <title>アーキテクチャ図</title>
        <polygon fill="white" stroke="transparent" points="-4,4 -4,-295 312,-295 312,4 -4,4"/>
        <text text-anchor="middle" x="154" y="-7.8" font-family="Times New Roman,serif" font-size="14.00">アーキテクチャ図
        </text>
        <g id="clust1" class="cluster">
            <title>clusterArchitecture</title>
            <polygon fill="lightyellow" stroke="#eedd82" points="8,-87 8,-283 244,-283 244,-87 8,-87"/>
        </g>
        <!-- mrs.application -->
        <g id="node1" class="node">
            <title>mrs.application</title>
            <polygon fill="#eedd82" stroke="black"
                     points="235.5,-203 36.5,-203 36.5,-199 32.5,-199 32.5,-195 36.5,-195 36.5,-175 32.5,-175 32.5,-171 36.5,-171 36.5,-167 235.5,-167 235.5,-203"/>
            <polyline fill="none" stroke="black" points="36.5,-199 40.5,-199 40.5,-195 36.5,-195 "/>
            <polyline fill="none" stroke="black" points="36.5,-175 40.5,-175 40.5,-171 36.5,-171 "/>
            <text text-anchor="middle" x="136" y="-180" font-family="Times New Roman,serif" font-size="20.00">
                アプリケーション層
            </text>
        </g>
        <!-- mrs.domain -->
        <g id="node2" class="node">
            <title>mrs.domain</title>
            <polygon fill="#eedd82" stroke="black"
                     points="134,-131 16,-131 16,-127 12,-127 12,-123 16,-123 16,-103 12,-103 12,-99 16,-99 16,-95 134,-95 134,-131"/>
            <polyline fill="none" stroke="black" points="16,-127 20,-127 20,-123 16,-123 "/>
            <polyline fill="none" stroke="black" points="16,-103 20,-103 20,-99 16,-99 "/>
            <text text-anchor="middle" x="75" y="-108" font-family="Times New Roman,serif" font-size="20.00">ドメイン層
            </text>
        </g>
        <!-- mrs.application&#45;&gt;mrs.domain -->
        <g id="edge5" class="edge">
            <title>mrs.application&#45;&gt;mrs.domain</title>
            <path fill="none" stroke="black" d="M85.25,-166.83C85.25,-166.83 85.25,-141.41 85.25,-141.41"/>
            <polygon fill="black" stroke="black" points="88.75,-141.41 85.25,-131.41 81.75,-141.41 88.75,-141.41"/>
        </g>
        <!-- org.springframework -->
        <g id="node4" class="node">
            <title>org.springframework</title>
            <polygon fill="lightgrey" stroke="black"
                     points="185,-59 51,-59 51,-55 47,-55 47,-51 51,-51 51,-31 47,-31 47,-27 51,-27 51,-23 185,-23 185,-59"/>
            <polyline fill="none" stroke="black" points="51,-55 55,-55 55,-51 51,-51 "/>
            <polyline fill="none" stroke="black" points="51,-31 55,-31 55,-27 51,-27 "/>
            <text text-anchor="middle" x="118" y="-37.3" font-family="Times New Roman,serif" font-size="14.00">
                org.springframework
            </text>
        </g>
        <!-- mrs.application&#45;&gt;org.springframework -->
        <g id="edge3" class="edge">
            <title>mrs.application&#45;&gt;org.springframework</title>
            <path fill="none" stroke="black" d="M159.5,-166.76C159.5,-166.76 159.5,-69.09 159.5,-69.09"/>
            <polygon fill="black" stroke="black" points="163,-69.09 159.5,-59.09 156,-69.09 163,-69.09"/>
        </g>
        <!-- mrs.domain&#45;&gt;org.springframework -->
        <g id="edge4" class="edge">
            <title>mrs.domain&#45;&gt;org.springframework</title>
            <path fill="none" stroke="black" d="M92.5,-94.83C92.5,-94.83 92.5,-69.41 92.5,-69.41"/>
            <polygon fill="black" stroke="black" points="96,-69.41 92.5,-59.41 89,-69.41 96,-69.41"/>
        </g>
        <!-- mrs.presentation -->
        <g id="node3" class="node">
            <title>mrs.presentation</title>
            <polygon fill="#eedd82" stroke="black"
                     points="235.5,-275 16.5,-275 16.5,-271 12.5,-271 12.5,-267 16.5,-267 16.5,-247 12.5,-247 12.5,-243 16.5,-243 16.5,-239 235.5,-239 235.5,-275"/>
            <polyline fill="none" stroke="black" points="16.5,-271 20.5,-271 20.5,-267 16.5,-267 "/>
            <polyline fill="none" stroke="black" points="16.5,-247 20.5,-247 20.5,-243 16.5,-243 "/>
            <text text-anchor="middle" x="126" y="-252" font-family="Times New Roman,serif" font-size="20.00">
                プレゼンテーション層
            </text>
        </g>
        <!-- mrs.presentation&#45;&gt;mrs.application -->
        <g id="edge1" class="edge">
            <title>mrs.presentation&#45;&gt;mrs.application</title>
            <path fill="none" stroke="black" d="M136,-238.83C136,-238.83 136,-213.41 136,-213.41"/>
            <polygon fill="black" stroke="black" points="139.5,-213.41 136,-203.41 132.5,-213.41 139.5,-213.41"/>
        </g>
        <!-- mrs.presentation&#45;&gt;mrs.domain -->
        <g id="edge6" class="edge">
            <title>mrs.presentation&#45;&gt;mrs.domain</title>
            <path fill="none" stroke="black" d="M26.5,-238.76C26.5,-238.76 26.5,-141.09 26.5,-141.09"/>
            <polygon fill="black" stroke="black" points="30,-141.09 26.5,-131.09 23,-141.09 30,-141.09"/>
        </g>
        <!-- mrs.presentation&#45;&gt;org.springframework -->
        <g id="edge2" class="edge">
            <title>mrs.presentation&#45;&gt;org.springframework</title>
            <path fill="none" stroke="black"
                  d="M235.82,-257C241.4,-257 244.75,-257 244.75,-257 244.75,-257 244.75,-47 244.75,-47 244.75,-47 195.09,-47 195.09,-47"/>
            <polygon fill="black" stroke="black" points="195.09,-43.5 185.09,-47 195.09,-50.5 195.09,-43.5"/>
        </g>
        <!-- mrs -->
        <g id="node5" class="node">
            <title>mrs</title>
            <polygon fill="lightgrey" stroke="black"
                     points="308,-275 254,-275 254,-271 250,-271 250,-267 254,-267 254,-247 250,-247 250,-243 254,-243 254,-239 308,-239 308,-275"/>
            <polyline fill="none" stroke="black" points="254,-271 258,-271 258,-267 254,-267 "/>
            <polyline fill="none" stroke="black" points="254,-247 258,-247 258,-243 254,-243 "/>
            <text text-anchor="middle" x="281" y="-253.3" font-family="Times New Roman,serif" font-size="14.00">mrs
            </text>
        </g>
        <!-- mrs&#45;&gt;mrs.application -->
        <g id="edge8" class="edge">
            <title>mrs&#45;&gt;mrs.application</title>
            <path fill="none" stroke="black"
                  d="M272,-238.83C272,-217.5 272,-185 272,-185 272,-185 245.55,-185 245.55,-185"/>
            <polygon fill="black" stroke="black" points="245.55,-181.5 235.55,-185 245.55,-188.5 245.55,-181.5"/>
        </g>
        <!-- mrs&#45;&gt;org.springframework -->
        <g id="edge7" class="edge">
            <title>mrs&#45;&gt;org.springframework</title>
            <path fill="none" stroke="black"
                  d="M290,-238.83C290,-185.81 290,-35 290,-35 290,-35 195.49,-35 195.49,-35"/>
            <polygon fill="black" stroke="black" points="195.49,-31.5 185.49,-35 195.49,-38.5 195.49,-31.5"/>
        </g>
    </g>
</svg>
