<?xml version="1.0" encoding="UTF-8" standalone="no"?>
<!DOCTYPE svg PUBLIC "-//W3C//DTD SVG 1.1//EN"
 "http://www.w3.org/Graphics/SVG/1.1/DTD/svg11.dtd">
<!-- Generated by graphviz version 2.47.3 (20210619.1520)
 -->
<!-- Title: アーキテクチャ図 Pages: 1 -->
<svg width="738pt" height="371pt"
 viewBox="0.00 0.00 737.50 371.00" xmlns="http://www.w3.org/2000/svg" xmlns:xlink="http://www.w3.org/1999/xlink">
<g id="graph0" class="graph" transform="scale(1 1) rotate(0) translate(4 367)">
<title>アーキテクチャ図</title>
<polygon fill="white" stroke="transparent" points="-4,4 -4,-367 733.5,-367 733.5,4 -4,4"/>
<text text-anchor="middle" x="364.75" y="-7.8" font-family="Times,serif" font-size="14.00">アーキテクチャ図</text>
<g id="clust1" class="cluster">
<title>clusterArchitecture</title>
<polygon fill="lightyellow" stroke="#eedd82" points="184,-87 184,-355 436,-355 436,-87 184,-87"/>
</g>
<!-- mrs.application -->
<g id="node1" class="node">
<title>mrs.application</title>
<polygon fill="#eedd82" stroke="black" points="408,-275 212,-275 212,-271 208,-271 208,-267 212,-267 212,-247 208,-247 208,-243 212,-243 212,-239 408,-239 408,-275"/>
<polyline fill="none" stroke="black" points="212,-271 216,-271 216,-267 212,-267 "/>
<polyline fill="none" stroke="black" points="212,-247 216,-247 216,-243 212,-243 "/>
<text text-anchor="middle" x="310" y="-252" font-family="Times,serif" font-size="20.00">アプリケーション層</text>
</g>
<!-- mrs.domain -->
<g id="node2" class="node">
<title>mrs.domain</title>
<polygon fill="#eedd82" stroke="black" points="347.5,-131 232.5,-131 232.5,-127 228.5,-127 228.5,-123 232.5,-123 232.5,-103 228.5,-103 228.5,-99 232.5,-99 232.5,-95 347.5,-95 347.5,-131"/>
<polyline fill="none" stroke="black" points="232.5,-127 236.5,-127 236.5,-123 232.5,-123 "/>
<polyline fill="none" stroke="black" points="232.5,-103 236.5,-103 236.5,-99 232.5,-99 "/>
<text text-anchor="middle" x="290" y="-108" font-family="Times,serif" font-size="20.00">ドメイン層</text>
</g>
<!-- mrs.application&#45;&gt;mrs.domain -->
<g id="edge5" class="edge">
<title>mrs.application&#45;&gt;mrs.domain</title>
<path fill="none" stroke="black" d="M252.25,-238.76C252.25,-238.76 252.25,-141.09 252.25,-141.09"/>
<polygon fill="black" stroke="black" points="255.75,-141.09 252.25,-131.09 248.75,-141.09 255.75,-141.09"/>
</g>
<!-- mrs.infrastructure -->
<g id="node3" class="node">
<title>mrs.infrastructure</title>
<polygon fill="#eedd82" stroke="black" points="428,-203 272,-203 272,-199 268,-199 268,-195 272,-195 272,-175 268,-175 268,-171 272,-171 272,-167 428,-167 428,-203"/>
<polyline fill="none" stroke="black" points="272,-199 276,-199 276,-195 272,-195 "/>
<polyline fill="none" stroke="black" points="272,-175 276,-175 276,-171 272,-171 "/>
<text text-anchor="middle" x="350" y="-180" font-family="Times,serif" font-size="20.00">データソース層</text>
</g>
<!-- mrs.application&#45;&gt;mrs.infrastructure -->
<g id="edge13" class="edge">
<title>mrs.application&#45;&gt;mrs.infrastructure</title>
<path fill="none" stroke="black" d="M317.33,-238.83C317.33,-238.83 317.33,-213.41 317.33,-213.41"/>
<polygon fill="black" stroke="black" points="320.83,-213.41 317.33,-203.41 313.83,-213.41 320.83,-213.41"/>
</g>
<!-- org.springframework -->
<g id="node5" class="node">
<title>org.springframework</title>
<polygon fill="lightgrey" stroke="black" points="357.5,-59 222.5,-59 222.5,-55 218.5,-55 218.5,-51 222.5,-51 222.5,-31 218.5,-31 218.5,-27 222.5,-27 222.5,-23 357.5,-23 357.5,-59"/>
<polyline fill="none" stroke="black" points="222.5,-55 226.5,-55 226.5,-51 222.5,-51 "/>
<polyline fill="none" stroke="black" points="222.5,-31 226.5,-31 226.5,-27 222.5,-27 "/>
<text text-anchor="middle" x="290" y="-37.3" font-family="Times,serif" font-size="14.00">org.springframework</text>
</g>
<!-- mrs.application&#45;&gt;org.springframework -->
<g id="edge16" class="edge">
<title>mrs.application&#45;&gt;org.springframework</title>
<path fill="none" stroke="black" d="M227.5,-238.96C227.5,-238.96 227.5,-69.15 227.5,-69.15"/>
<polygon fill="black" stroke="black" points="231,-69.15 227.5,-59.15 224,-69.15 231,-69.15"/>
</g>
<!-- mrs.domain&#45;&gt;org.springframework -->
<g id="edge3" class="edge">
<title>mrs.domain&#45;&gt;org.springframework</title>
<path fill="none" stroke="black" d="M290,-94.83C290,-94.83 290,-69.41 290,-69.41"/>
<polygon fill="black" stroke="black" points="293.5,-69.41 290,-59.41 286.5,-69.41 293.5,-69.41"/>
</g>
<!-- mrs.infrastructure&#45;&gt;mrs.application -->
<g id="edge2" class="edge">
<title>mrs.infrastructure&#45;&gt;mrs.application</title>
<path fill="none" stroke="black" d="M362.67,-203.17C362.67,-203.17 362.67,-228.59 362.67,-228.59"/>
<polygon fill="black" stroke="black" points="359.17,-228.59 362.67,-238.59 366.17,-228.59 359.17,-228.59"/>
</g>
<!-- mrs.infrastructure&#45;&gt;mrs.domain -->
<g id="edge6" class="edge">
<title>mrs.infrastructure&#45;&gt;mrs.domain</title>
<path fill="none" stroke="black" d="M309.75,-166.83C309.75,-166.83 309.75,-141.41 309.75,-141.41"/>
<polygon fill="black" stroke="black" points="313.25,-141.41 309.75,-131.41 306.25,-141.41 313.25,-141.41"/>
</g>
<!-- mrs.infrastructure&#45;&gt;org.springframework -->
<g id="edge1" class="edge">
<title>mrs.infrastructure&#45;&gt;org.springframework</title>
<path fill="none" stroke="black" d="M350.83,-166.76C350.83,-166.76 350.83,-69.09 350.83,-69.09"/>
<polygon fill="black" stroke="black" points="354.33,-69.09 350.83,-59.09 347.33,-69.09 354.33,-69.09"/>
</g>
<!-- io.swagger -->
<g id="node6" class="node">
<title>io.swagger</title>
<polygon fill="lightgrey" stroke="black" points="78,-131 0,-131 0,-127 -4,-127 -4,-123 0,-123 0,-103 -4,-103 -4,-99 0,-99 0,-95 78,-95 78,-131"/>
<polyline fill="none" stroke="black" points="0,-127 4,-127 4,-123 0,-123 "/>
<polyline fill="none" stroke="black" points="0,-103 4,-103 4,-99 0,-99 "/>
<text text-anchor="middle" x="39" y="-109.3" font-family="Times,serif" font-size="14.00">io.swagger</text>
</g>
<!-- mrs.infrastructure&#45;&gt;io.swagger -->
<g id="edge18" class="edge">
<title>mrs.infrastructure&#45;&gt;io.swagger</title>
<path fill="none" stroke="black" d="M271.7,-191C183.41,-191 52,-191 52,-191 52,-191 52,-141.09 52,-141.09"/>
<polygon fill="black" stroke="black" points="55.5,-141.09 52,-131.09 48.5,-141.09 55.5,-141.09"/>
</g>
<!-- com.github -->
<g id="node8" class="node">
<title>com.github</title>
<polygon fill="lightgrey" stroke="black" points="176,-131 96,-131 96,-127 92,-127 92,-123 96,-123 96,-103 92,-103 92,-99 96,-99 96,-95 176,-95 176,-131"/>
<polyline fill="none" stroke="black" points="96,-127 100,-127 100,-123 96,-123 "/>
<polyline fill="none" stroke="black" points="96,-103 100,-103 100,-99 96,-99 "/>
<text text-anchor="middle" x="136" y="-109.3" font-family="Times,serif" font-size="14.00">com.github</text>
</g>
<!-- mrs.infrastructure&#45;&gt;com.github -->
<g id="edge9" class="edge">
<title>mrs.infrastructure&#45;&gt;com.github</title>
<path fill="none" stroke="black" d="M271.83,-179C210.7,-179 136,-179 136,-179 136,-179 136,-141.03 136,-141.03"/>
<polygon fill="black" stroke="black" points="139.5,-141.03 136,-131.03 132.5,-141.03 139.5,-141.03"/>
</g>
<!-- org.apache -->
<g id="node9" class="node">
<title>org.apache</title>
<polygon fill="lightgrey" stroke="black" points="521.5,-131 444.5,-131 444.5,-127 440.5,-127 440.5,-123 444.5,-123 444.5,-103 440.5,-103 440.5,-99 444.5,-99 444.5,-95 521.5,-95 521.5,-131"/>
<polyline fill="none" stroke="black" points="444.5,-127 448.5,-127 448.5,-123 444.5,-123 "/>
<polyline fill="none" stroke="black" points="444.5,-103 448.5,-103 448.5,-99 444.5,-99 "/>
<text text-anchor="middle" x="483" y="-109.3" font-family="Times,serif" font-size="14.00">org.apache</text>
</g>
<!-- mrs.infrastructure&#45;&gt;org.apache -->
<g id="edge12" class="edge">
<title>mrs.infrastructure&#45;&gt;org.apache</title>
<path fill="none" stroke="black" d="M428.16,-176C451.62,-176 471.25,-176 471.25,-176 471.25,-176 471.25,-141.22 471.25,-141.22"/>
<polygon fill="black" stroke="black" points="474.75,-141.22 471.25,-131.22 467.75,-141.22 474.75,-141.22"/>
</g>
<!-- io.jsonwebtoken -->
<g id="node10" class="node">
<title>io.jsonwebtoken</title>
<polygon fill="lightgrey" stroke="black" points="648.5,-131 539.5,-131 539.5,-127 535.5,-127 535.5,-123 539.5,-123 539.5,-103 535.5,-103 535.5,-99 539.5,-99 539.5,-95 648.5,-95 648.5,-131"/>
<polyline fill="none" stroke="black" points="539.5,-127 543.5,-127 543.5,-123 539.5,-123 "/>
<polyline fill="none" stroke="black" points="539.5,-103 543.5,-103 543.5,-99 539.5,-99 "/>
<text text-anchor="middle" x="594" y="-109.3" font-family="Times,serif" font-size="14.00">io.jsonwebtoken</text>
</g>
<!-- mrs.infrastructure&#45;&gt;io.jsonwebtoken -->
<g id="edge17" class="edge">
<title>mrs.infrastructure&#45;&gt;io.jsonwebtoken</title>
<path fill="none" stroke="black" d="M428.21,-185C499.58,-185 594,-185 594,-185 594,-185 594,-141.17 594,-141.17"/>
<polygon fill="black" stroke="black" points="597.5,-141.17 594,-131.17 590.5,-141.17 597.5,-141.17"/>
</g>
<!-- org.slf4j -->
<g id="node11" class="node">
<title>org.slf4j</title>
<polygon fill="lightgrey" stroke="black" points="729.5,-131 666.5,-131 666.5,-127 662.5,-127 662.5,-123 666.5,-123 666.5,-103 662.5,-103 662.5,-99 666.5,-99 666.5,-95 729.5,-95 729.5,-131"/>
<polyline fill="none" stroke="black" points="666.5,-127 670.5,-127 670.5,-123 666.5,-123 "/>
<polyline fill="none" stroke="black" points="666.5,-103 670.5,-103 670.5,-99 666.5,-99 "/>
<text text-anchor="middle" x="698" y="-109.3" font-family="Times,serif" font-size="14.00">org.slf4j</text>
</g>
<!-- mrs.infrastructure&#45;&gt;org.slf4j -->
<g id="edge20" class="edge">
<title>mrs.infrastructure&#45;&gt;org.slf4j</title>
<path fill="none" stroke="black" d="M428.1,-194C530.7,-194 698,-194 698,-194 698,-194 698,-141.38 698,-141.38"/>
<polygon fill="black" stroke="black" points="701.5,-141.38 698,-131.38 694.5,-141.38 701.5,-141.38"/>
</g>
<!-- mrs.presentation -->
<g id="node4" class="node">
<title>mrs.presentation</title>
<polygon fill="#eedd82" stroke="black" points="408,-347 192,-347 192,-343 188,-343 188,-339 192,-339 192,-319 188,-319 188,-315 192,-315 192,-311 408,-311 408,-347"/>
<polyline fill="none" stroke="black" points="192,-343 196,-343 196,-339 192,-339 "/>
<polyline fill="none" stroke="black" points="192,-319 196,-319 196,-315 192,-315 "/>
<text text-anchor="middle" x="300" y="-324" font-family="Times,serif" font-size="20.00">プレゼンテーション層</text>
</g>
<!-- mrs.presentation&#45;&gt;mrs.application -->
<g id="edge14" class="edge">
<title>mrs.presentation&#45;&gt;mrs.application</title>
<path fill="none" stroke="black" d="M310,-310.83C310,-310.83 310,-285.41 310,-285.41"/>
<polygon fill="black" stroke="black" points="313.5,-285.41 310,-275.41 306.5,-285.41 313.5,-285.41"/>
</g>
<!-- mrs.presentation&#45;&gt;mrs.domain -->
<g id="edge8" class="edge">
<title>mrs.presentation&#45;&gt;mrs.domain</title>
<path fill="none" stroke="black" d="M207,-310.83C207,-257.81 207,-107 207,-107 207,-107 222.35,-107 222.35,-107"/>
<polygon fill="black" stroke="black" points="222.35,-110.5 232.35,-107 222.35,-103.5 222.35,-110.5"/>
</g>
<!-- mrs.presentation&#45;&gt;mrs.infrastructure -->
<g id="edge19" class="edge">
<title>mrs.presentation&#45;&gt;mrs.infrastructure</title>
<path fill="none" stroke="black" d="M408.17,-335C412.27,-335 414.67,-335 414.67,-335 414.67,-335 414.67,-213.09 414.67,-213.09"/>
<polygon fill="black" stroke="black" points="418.17,-213.09 414.67,-203.09 411.17,-213.09 418.17,-213.09"/>
</g>
<!-- mrs.presentation&#45;&gt;org.springframework -->
<g id="edge15" class="edge">
<title>mrs.presentation&#45;&gt;org.springframework</title>
<path fill="none" stroke="black" d="M202,-310.98C202,-247.93 202,-41 202,-41 202,-41 212.41,-41 212.41,-41"/>
<polygon fill="black" stroke="black" points="212.41,-44.5 222.41,-41 212.41,-37.5 212.41,-44.5"/>
</g>
<!-- mrs.presentation&#45;&gt;io.swagger -->
<g id="edge4" class="edge">
<title>mrs.presentation&#45;&gt;io.swagger</title>
<path fill="none" stroke="black" d="M191.71,-329C115.12,-329 26,-329 26,-329 26,-329 26,-141.04 26,-141.04"/>
<polygon fill="black" stroke="black" points="29.5,-141.04 26,-131.04 22.5,-141.04 29.5,-141.04"/>
</g>
<!-- mrs.presentation&#45;&gt;com.github -->
<g id="edge10" class="edge">
<title>mrs.presentation&#45;&gt;com.github</title>
<path fill="none" stroke="black" d="M197,-310.73C197,-259.64 197,-119 197,-119 197,-119 186.01,-119 186.01,-119"/>
<polygon fill="black" stroke="black" points="186.01,-115.5 176.01,-119 186.01,-122.5 186.01,-115.5"/>
</g>
<!-- mrs -->
<g id="node7" class="node">
<title>mrs</title>
<polygon fill="lightgrey" stroke="black" points="498,-347 444,-347 444,-343 440,-343 440,-339 444,-339 444,-319 440,-319 440,-315 444,-315 444,-311 498,-311 498,-347"/>
<polyline fill="none" stroke="black" points="444,-343 448,-343 448,-339 444,-339 "/>
<polyline fill="none" stroke="black" points="444,-319 448,-319 448,-315 444,-315 "/>
<text text-anchor="middle" x="471" y="-325.3" font-family="Times,serif" font-size="14.00">mrs</text>
</g>
<!-- mrs&#45;&gt;mrs.application -->
<g id="edge11" class="edge">
<title>mrs&#45;&gt;mrs.application</title>
<path fill="none" stroke="black" d="M457.88,-310.83C457.88,-289.5 457.88,-257 457.88,-257 457.88,-257 418.22,-257 418.22,-257"/>
<polygon fill="black" stroke="black" points="418.22,-253.5 408.22,-257 418.22,-260.5 418.22,-253.5"/>
</g>
<!-- mrs&#45;&gt;mrs.infrastructure -->
<g id="edge7" class="edge">
<title>mrs&#45;&gt;mrs.infrastructure</title>
<path fill="none" stroke="black" d="M443.84,-323C432.25,-323 421.33,-323 421.33,-323 421.33,-323 421.33,-213.04 421.33,-213.04"/>
<polygon fill="black" stroke="black" points="424.83,-213.04 421.33,-203.04 417.83,-213.04 424.83,-213.04"/>
</g>
<!-- mrs&#45;&gt;org.springframework -->
<g id="edge21" class="edge">
<title>mrs&#45;&gt;org.springframework</title>
<path fill="none" stroke="black" d="M484.62,-310.75C484.62,-264.99 484.62,-149 484.62,-149 484.62,-149 354.17,-149 354.17,-149 354.17,-149 354.17,-69.32 354.17,-69.32"/>
<polygon fill="black" stroke="black" points="357.67,-69.32 354.17,-59.32 350.67,-69.32 357.67,-69.32"/>
</g>
</g>
</svg>
