<?xml version="1.0" encoding="UTF-8" standalone="no"?>
<!DOCTYPE svg PUBLIC "-//W3C//DTD SVG 1.1//EN"
 "http://www.w3.org/Graphics/SVG/1.1/DTD/svg11.dtd">
<!-- Generated by graphviz version 3.0.0 (20220226.1711)
 -->
<!-- Title: アーキテクチャ図 Pages: 1 -->
<svg width="740pt" height="371pt"
     viewBox="0.00 0.00 739.50 371.00" xmlns="http://www.w3.org/2000/svg">
<g id="graph0" class="graph" transform="scale(1 1) rotate(0) translate(4 367)">
    <title>アーキテクチャ図</title>
    <polygon fill="white" stroke="transparent" points="-4,4 -4,-367 735.5,-367 735.5,4 -4,4"/>
    <text text-anchor="middle" x="365.75" y="-7.8" font-family="Times New Roman,serif" font-size="14.00">アーキテクチャ図
    </text>
    <g id="clust1" class="cluster">
        <title>clusterArchitecture</title>
        <polygon fill="lightyellow" stroke="#eedd82" points="183.5,-87 183.5,-355 439.5,-355 439.5,-87 183.5,-87"/>
    </g>
    <!-- mrs.application -->
    <g id="node1" class="node">
        <title>mrs.application</title>
        <polygon fill="#eedd82" stroke="black"
                 points="411,-275 212,-275 212,-271 208,-271 208,-267 212,-267 212,-247 208,-247 208,-243 212,-243 212,-239 411,-239 411,-275"/>
        <polyline fill="none" stroke="black" points="212,-271 216,-271 216,-267 212,-267 "/>
        <polyline fill="none" stroke="black" points="212,-247 216,-247 216,-243 212,-243 "/>
        <text text-anchor="middle" x="311.5" y="-252" font-family="Times New Roman,serif" font-size="20.00">アプリケーション層
        </text>
    </g>
    <!-- mrs.domain -->
    <g id="node2" class="node">
        <title>mrs.domain</title>
        <polygon fill="#eedd82" stroke="black"
                 points="349.5,-131 231.5,-131 231.5,-127 227.5,-127 227.5,-123 231.5,-123 231.5,-103 227.5,-103 227.5,-99 231.5,-99 231.5,-95 349.5,-95 349.5,-131"/>
        <polyline fill="none" stroke="black" points="231.5,-127 235.5,-127 235.5,-123 231.5,-123 "/>
        <polyline fill="none" stroke="black" points="231.5,-103 235.5,-103 235.5,-99 231.5,-99 "/>
        <text text-anchor="middle" x="290.5" y="-108" font-family="Times New Roman,serif" font-size="20.00">ドメイン層
        </text>
    </g>
    <!-- mrs.application&#45;&gt;mrs.domain -->
    <g id="edge5" class="edge">
        <title>mrs.application&#45;&gt;mrs.domain</title>
        <path fill="none" stroke="black" d="M252.5,-238.76C252.5,-238.76 252.5,-141.09 252.5,-141.09"/>
        <polygon fill="black" stroke="black" points="256,-141.09 252.5,-131.09 249,-141.09 256,-141.09"/>
    </g>
    <!-- mrs.infrastructure -->
    <g id="node3" class="node">
        <title>mrs.infrastructure</title>
        <polygon fill="#eedd82" stroke="black"
                 points="431.5,-203 273.5,-203 273.5,-199 269.5,-199 269.5,-195 273.5,-195 273.5,-175 269.5,-175 269.5,-171 273.5,-171 273.5,-167 431.5,-167 431.5,-203"/>
        <polyline fill="none" stroke="black" points="273.5,-199 277.5,-199 277.5,-195 273.5,-195 "/>
        <polyline fill="none" stroke="black" points="273.5,-175 277.5,-175 277.5,-171 273.5,-171 "/>
        <text text-anchor="middle" x="352.5" y="-180" font-family="Times New Roman,serif" font-size="20.00">データソース層
        </text>
    </g>
    <!-- mrs.application&#45;&gt;mrs.infrastructure -->
    <g id="edge13" class="edge">
        <title>mrs.application&#45;&gt;mrs.infrastructure</title>
        <path fill="none" stroke="black" d="M319.33,-238.83C319.33,-238.83 319.33,-213.41 319.33,-213.41"/>
        <polygon fill="black" stroke="black" points="322.83,-213.41 319.33,-203.41 315.83,-213.41 322.83,-213.41"/>
    </g>
<!-- org.springframework -->
    <g id="node5" class="node">
        <title>org.springframework</title>
        <polygon fill="lightgrey" stroke="black"
                 points="357.5,-59 223.5,-59 223.5,-55 219.5,-55 219.5,-51 223.5,-51 223.5,-31 219.5,-31 219.5,-27 223.5,-27 223.5,-23 357.5,-23 357.5,-59"/>
        <polyline fill="none" stroke="black" points="223.5,-55 227.5,-55 227.5,-51 223.5,-51 "/>
        <polyline fill="none" stroke="black" points="223.5,-31 227.5,-31 227.5,-27 223.5,-27 "/>
        <text text-anchor="middle" x="290.5" y="-37.3" font-family="Times New Roman,serif" font-size="14.00">
            org.springframework
        </text>
    </g>
<!-- mrs.application&#45;&gt;org.springframework -->
<g id="edge16" class="edge">
<title>mrs.application&#45;&gt;org.springframework</title>
<path fill="none" stroke="black" d="M227.5,-238.96C227.5,-238.96 227.5,-69.15 227.5,-69.15"/>
<polygon fill="black" stroke="black" points="231,-69.15 227.5,-59.15 224,-69.15 231,-69.15"/>
</g>
<!-- mrs.domain&#45;&gt;org.springframework -->
    <g id="edge3" class="edge">
        <title>mrs.domain&#45;&gt;org.springframework</title>
        <path fill="none" stroke="black" d="M290.5,-94.83C290.5,-94.83 290.5,-69.41 290.5,-69.41"/>
        <polygon fill="black" stroke="black" points="294,-69.41 290.5,-59.41 287,-69.41 294,-69.41"/>
    </g>
<!-- mrs.infrastructure&#45;&gt;mrs.application -->
    <g id="edge2" class="edge">
        <title>mrs.infrastructure&#45;&gt;mrs.application</title>
        <path fill="none" stroke="black" d="M365.17,-203.17C365.17,-203.17 365.17,-228.59 365.17,-228.59"/>
        <polygon fill="black" stroke="black" points="361.67,-228.59 365.17,-238.59 368.67,-228.59 361.67,-228.59"/>
    </g>
<!-- mrs.infrastructure&#45;&gt;mrs.domain -->
    <g id="edge7" class="edge">
        <title>mrs.infrastructure&#45;&gt;mrs.domain</title>
        <path fill="none" stroke="black" d="M311.5,-166.83C311.5,-166.83 311.5,-141.41 311.5,-141.41"/>
        <polygon fill="black" stroke="black" points="315,-141.41 311.5,-131.41 308,-141.41 315,-141.41"/>
    </g>
<!-- mrs.infrastructure&#45;&gt;org.springframework -->
    <g id="edge1" class="edge">
        <title>mrs.infrastructure&#45;&gt;org.springframework</title>
        <path fill="none" stroke="black" d="M352.17,-166.76C352.17,-166.76 352.17,-69.09 352.17,-69.09"/>
        <polygon fill="black" stroke="black" points="355.67,-69.09 352.17,-59.09 348.67,-69.09 355.67,-69.09"/>
    </g>
<!-- io.swagger -->
<g id="node6" class="node">
<title>io.swagger</title>
    <polygon fill="lightgrey" stroke="black"
             points="77,-131 0,-131 0,-127 -4,-127 -4,-123 0,-123 0,-103 -4,-103 -4,-99 0,-99 0,-95 77,-95 77,-131"/>
<polyline fill="none" stroke="black" points="0,-127 4,-127 4,-123 0,-123 "/>
<polyline fill="none" stroke="black" points="0,-103 4,-103 4,-99 0,-99 "/>
    <text text-anchor="middle" x="38.5" y="-109.3" font-family="Times New Roman,serif" font-size="14.00">io.swagger
    </text>
</g>
<!-- mrs.infrastructure&#45;&gt;io.swagger -->
    <g id="edge18" class="edge">
        <title>mrs.infrastructure&#45;&gt;io.swagger</title>
        <path fill="none" stroke="black"
              d="M273.37,-191C184.14,-191 51.33,-191 51.33,-191 51.33,-191 51.33,-141.09 51.33,-141.09"/>
        <polygon fill="black" stroke="black" points="54.83,-141.09 51.33,-131.09 47.83,-141.09 54.83,-141.09"/>
    </g>
<!-- com.github -->
    <g id="node8" class="node">
        <title>com.github</title>
        <polygon fill="lightgrey" stroke="black"
                 points="175.5,-131 95.5,-131 95.5,-127 91.5,-127 91.5,-123 95.5,-123 95.5,-103 91.5,-103 91.5,-99 95.5,-99 95.5,-95 175.5,-95 175.5,-131"/>
        <polyline fill="none" stroke="black" points="95.5,-127 99.5,-127 99.5,-123 95.5,-123 "/>
        <polyline fill="none" stroke="black" points="95.5,-103 99.5,-103 99.5,-99 95.5,-99 "/>
        <text text-anchor="middle" x="135.5" y="-109.3" font-family="Times New Roman,serif" font-size="14.00">
            com.github
        </text>
    </g>
<!-- mrs.infrastructure&#45;&gt;com.github -->
    <g id="edge9" class="edge">
        <title>mrs.infrastructure&#45;&gt;com.github</title>
        <path fill="none" stroke="black"
              d="M273.24,-179C211.25,-179 135.5,-179 135.5,-179 135.5,-179 135.5,-141.03 135.5,-141.03"/>
        <polygon fill="black" stroke="black" points="139,-141.03 135.5,-131.03 132,-141.03 139,-141.03"/>
    </g>
<!-- org.apache -->
    <g id="node9" class="node">
        <title>org.apache</title>
        <polygon fill="lightgrey" stroke="black"
                 points="525.5,-131 447.5,-131 447.5,-127 443.5,-127 443.5,-123 447.5,-123 447.5,-103 443.5,-103 443.5,-99 447.5,-99 447.5,-95 525.5,-95 525.5,-131"/>
        <polyline fill="none" stroke="black" points="447.5,-127 451.5,-127 451.5,-123 447.5,-123 "/>
        <polyline fill="none" stroke="black" points="447.5,-103 451.5,-103 451.5,-99 447.5,-99 "/>
        <text text-anchor="middle" x="486.5" y="-109.3" font-family="Times New Roman,serif" font-size="14.00">
            org.apache
        </text>
    </g>
<!-- mrs.infrastructure&#45;&gt;org.apache -->
    <g id="edge12" class="edge">
        <title>mrs.infrastructure&#45;&gt;org.apache</title>
        <path fill="none" stroke="black"
              d="M431.71,-176C461.37,-176 488,-176 488,-176 488,-176 488,-141.22 488,-141.22"/>
        <polygon fill="black" stroke="black" points="491.5,-141.22 488,-131.22 484.5,-141.22 491.5,-141.22"/>
    </g>
<!-- io.jsonwebtoken -->
    <g id="node10" class="node">
        <title>io.jsonwebtoken</title>
        <polygon fill="lightgrey" stroke="black"
                 points="651.5,-131 543.5,-131 543.5,-127 539.5,-127 539.5,-123 543.5,-123 543.5,-103 539.5,-103 539.5,-99 543.5,-99 543.5,-95 651.5,-95 651.5,-131"/>
        <polyline fill="none" stroke="black" points="543.5,-127 547.5,-127 547.5,-123 543.5,-123 "/>
        <polyline fill="none" stroke="black" points="543.5,-103 547.5,-103 547.5,-99 543.5,-99 "/>
        <text text-anchor="middle" x="597.5" y="-109.3" font-family="Times New Roman,serif" font-size="14.00">
            io.jsonwebtoken
        </text>
    </g>
<!-- mrs.infrastructure&#45;&gt;io.jsonwebtoken -->
    <g id="edge17" class="edge">
        <title>mrs.infrastructure&#45;&gt;io.jsonwebtoken</title>
        <path fill="none" stroke="black"
              d="M431.71,-185C503.29,-185 597.5,-185 597.5,-185 597.5,-185 597.5,-141.17 597.5,-141.17"/>
        <polygon fill="black" stroke="black" points="601,-141.17 597.5,-131.17 594,-141.17 601,-141.17"/>
    </g>
<!-- org.slf4j -->
    <g id="node11" class="node">
        <title>org.slf4j</title>
        <polygon fill="lightgrey" stroke="black"
                 points="731.5,-131 669.5,-131 669.5,-127 665.5,-127 665.5,-123 669.5,-123 669.5,-103 665.5,-103 665.5,-99 669.5,-99 669.5,-95 731.5,-95 731.5,-131"/>
        <polyline fill="none" stroke="black" points="669.5,-127 673.5,-127 673.5,-123 669.5,-123 "/>
        <polyline fill="none" stroke="black" points="669.5,-103 673.5,-103 673.5,-99 669.5,-99 "/>
        <text text-anchor="middle" x="700.5" y="-109.3" font-family="Times New Roman,serif" font-size="14.00">
            org.slf4j
        </text>
    </g>
<!-- mrs.infrastructure&#45;&gt;org.slf4j -->
    <g id="edge20" class="edge">
        <title>mrs.infrastructure&#45;&gt;org.slf4j</title>
        <path fill="none" stroke="black"
              d="M431.9,-194C534.61,-194 700.5,-194 700.5,-194 700.5,-194 700.5,-141.38 700.5,-141.38"/>
        <polygon fill="black" stroke="black" points="704,-141.38 700.5,-131.38 697,-141.38 704,-141.38"/>
    </g>
<!-- mrs.presentation -->
<g id="node4" class="node">
<title>mrs.presentation</title>
    <polygon fill="#eedd82" stroke="black"
             points="411,-347 192,-347 192,-343 188,-343 188,-339 192,-339 192,-319 188,-319 188,-315 192,-315 192,-311 411,-311 411,-347"/>
<polyline fill="none" stroke="black" points="192,-343 196,-343 196,-339 192,-339 "/>
<polyline fill="none" stroke="black" points="192,-319 196,-319 196,-315 192,-315 "/>
    <text text-anchor="middle" x="301.5" y="-324" font-family="Times New Roman,serif" font-size="20.00">プレゼンテーション層
    </text>
</g>
<!-- mrs.presentation&#45;&gt;mrs.application -->
    <g id="edge14" class="edge">
        <title>mrs.presentation&#45;&gt;mrs.application</title>
        <path fill="none" stroke="black" d="M311.5,-310.83C311.5,-310.83 311.5,-285.41 311.5,-285.41"/>
        <polygon fill="black" stroke="black" points="315,-285.41 311.5,-275.41 308,-285.41 315,-285.41"/>
    </g>
<!-- mrs.presentation&#45;&gt;mrs.domain -->
    <g id="edge8" class="edge">
        <title>mrs.presentation&#45;&gt;mrs.domain</title>
        <path fill="none" stroke="black"
              d="M207,-310.83C207,-257.81 207,-107 207,-107 207,-107 221.15,-107 221.15,-107"/>
        <polygon fill="black" stroke="black" points="221.15,-110.5 231.15,-107 221.15,-103.5 221.15,-110.5"/>
    </g>
<!-- mrs.presentation&#45;&gt;mrs.infrastructure -->
    <g id="edge19" class="edge">
        <title>mrs.presentation&#45;&gt;mrs.infrastructure</title>
        <path fill="none" stroke="black"
              d="M411.25,-335C415.4,-335 417.83,-335 417.83,-335 417.83,-335 417.83,-213.09 417.83,-213.09"/>
        <polygon fill="black" stroke="black" points="421.33,-213.09 417.83,-203.09 414.33,-213.09 421.33,-213.09"/>
    </g>
<!-- mrs.presentation&#45;&gt;org.springframework -->
    <g id="edge15" class="edge">
        <title>mrs.presentation&#45;&gt;org.springframework</title>
        <path fill="none" stroke="black" d="M202,-310.98C202,-247.93 202,-41 202,-41 202,-41 213.42,-41 213.42,-41"/>
        <polygon fill="black" stroke="black" points="213.42,-44.5 223.42,-41 213.42,-37.5 213.42,-44.5"/>
    </g>
<!-- mrs.presentation&#45;&gt;io.swagger -->
    <g id="edge4" class="edge">
        <title>mrs.presentation&#45;&gt;io.swagger</title>
        <path fill="none" stroke="black"
              d="M191.69,-329C114.77,-329 25.67,-329 25.67,-329 25.67,-329 25.67,-141.04 25.67,-141.04"/>
        <polygon fill="black" stroke="black" points="29.17,-141.04 25.67,-131.04 22.17,-141.04 29.17,-141.04"/>
    </g>
<!-- mrs.presentation&#45;&gt;com.github -->
    <g id="edge11" class="edge">
        <title>mrs.presentation&#45;&gt;com.github</title>
        <path fill="none" stroke="black"
              d="M197,-310.73C197,-259.64 197,-119 197,-119 197,-119 185.84,-119 185.84,-119"/>
        <polygon fill="black" stroke="black" points="185.84,-115.5 175.84,-119 185.84,-122.5 185.84,-115.5"/>
    </g>
<!-- mrs -->
    <g id="node7" class="node">
        <title>mrs</title>
        <polygon fill="lightgrey" stroke="black"
                 points="501.5,-347 447.5,-347 447.5,-343 443.5,-343 443.5,-339 447.5,-339 447.5,-319 443.5,-319 443.5,-315 447.5,-315 447.5,-311 501.5,-311 501.5,-347"/>
        <polyline fill="none" stroke="black" points="447.5,-343 451.5,-343 451.5,-339 447.5,-339 "/>
        <polyline fill="none" stroke="black" points="447.5,-319 451.5,-319 451.5,-315 447.5,-315 "/>
        <text text-anchor="middle" x="474.5" y="-325.3" font-family="Times New Roman,serif" font-size="14.00">mrs</text>
    </g>
<!-- mrs&#45;&gt;mrs.application -->
    <g id="edge10" class="edge">
        <title>mrs&#45;&gt;mrs.application</title>
        <path fill="none" stroke="black"
              d="M461,-310.83C461,-289.5 461,-257 461,-257 461,-257 421.22,-257 421.22,-257"/>
        <polygon fill="black" stroke="black" points="421.22,-253.5 411.22,-257 421.22,-260.5 421.22,-253.5"/>
    </g>
<!-- mrs&#45;&gt;mrs.infrastructure -->
    <g id="edge6" class="edge">
        <title>mrs&#45;&gt;mrs.infrastructure</title>
        <path fill="none" stroke="black"
              d="M447.25,-323C435.62,-323 424.67,-323 424.67,-323 424.67,-323 424.67,-213.04 424.67,-213.04"/>
        <polygon fill="black" stroke="black" points="428.17,-213.04 424.67,-203.04 421.17,-213.04 428.17,-213.04"/>
    </g>
<!-- mrs&#45;&gt;org.springframework -->
    <g id="edge21" class="edge">
        <title>mrs&#45;&gt;org.springframework</title>
        <path fill="none" stroke="black"
              d="M474.5,-310.75C474.5,-264.99 474.5,-149 474.5,-149 474.5,-149 354.83,-149 354.83,-149 354.83,-149 354.83,-69.32 354.83,-69.32"/>
        <polygon fill="black" stroke="black" points="358.33,-69.32 354.83,-59.32 351.33,-69.32 358.33,-69.32"/>
    </g>
</g>
</svg>
