<?xml version="1.0" encoding="UTF-8" standalone="no"?>
<!DOCTYPE svg PUBLIC "-//W3C//DTD SVG 1.1//EN"
        "http://www.w3.org/Graphics/SVG/1.1/DTD/svg11.dtd">
<!-- Generated by graphviz version 3.0.0 (20220226.1711)
 -->
<!-- Title: アーキテクチャ図 Pages: 1 -->
<svg width="570pt" height="299pt"
     viewBox="0.00 0.00 570.00 299.00" xmlns="http://www.w3.org/2000/svg">
    <g id="graph0" class="graph" transform="scale(1 1) rotate(0) translate(4 295)">
        <title>アーキテクチャ図</title>
        <polygon fill="white" stroke="transparent" points="-4,4 -4,-295 566,-295 566,4 -4,4"/>
        <text text-anchor="middle" x="281" y="-7.8" font-family="Times New Roman,serif" font-size="14.00">アーキテクチャ図
        </text>
        <g id="clust1" class="cluster">
            <title>clusterArchitecture</title>
            <polygon fill="lightyellow" stroke="#eedd82" points="86,-87 86,-283 498,-283 498,-87 86,-87"/>
        </g>
        <!-- mrs.application -->
        <g id="node1" class="node">
            <title>mrs.application</title>
            <polygon fill="#eedd82" stroke="black"
                     points="466.5,-203 267.5,-203 267.5,-199 263.5,-199 263.5,-195 267.5,-195 267.5,-175 263.5,-175 263.5,-171 267.5,-171 267.5,-167 466.5,-167 466.5,-203"/>
            <polyline fill="none" stroke="black" points="267.5,-199 271.5,-199 271.5,-195 267.5,-195 "/>
            <polyline fill="none" stroke="black" points="267.5,-175 271.5,-175 271.5,-171 267.5,-171 "/>
            <text text-anchor="middle" x="367" y="-180" font-family="Times New Roman,serif" font-size="20.00">
                アプリケーション層
            </text>
        </g>
        <!-- mrs.domain -->
        <g id="node2" class="node">
            <title>mrs.domain</title>
            <polygon fill="#eedd82" stroke="black"
                     points="426,-131 308,-131 308,-127 304,-127 304,-123 308,-123 308,-103 304,-103 304,-99 308,-99 308,-95 426,-95 426,-131"/>
            <polyline fill="none" stroke="black" points="308,-127 312,-127 312,-123 308,-123 "/>
            <polyline fill="none" stroke="black" points="308,-103 312,-103 312,-99 308,-99 "/>
            <text text-anchor="middle" x="367" y="-108" font-family="Times New Roman,serif" font-size="20.00">ドメイン層
            </text>
        </g>
        <!-- mrs.application&#45;&gt;mrs.domain -->
        <g id="edge7" class="edge">
            <title>mrs.application&#45;&gt;mrs.domain</title>
            <path fill="none" stroke="black" d="M367,-166.83C367,-166.83 367,-141.41 367,-141.41"/>
            <polygon fill="black" stroke="black" points="370.5,-141.41 367,-131.41 363.5,-141.41 370.5,-141.41"/>
        </g>
        <!-- org.springframework -->
        <g id="node5" class="node">
            <title>org.springframework</title>
            <polygon fill="lightgrey" stroke="black"
                     points="347,-59 213,-59 213,-55 209,-55 209,-51 213,-51 213,-31 209,-31 209,-27 213,-27 213,-23 347,-23 347,-59"/>
            <polyline fill="none" stroke="black" points="213,-55 217,-55 217,-51 213,-51 "/>
            <polyline fill="none" stroke="black" points="213,-31 217,-31 217,-27 213,-27 "/>
            <text text-anchor="middle" x="280" y="-37.3" font-family="Times New Roman,serif" font-size="14.00">
                org.springframework
            </text>
        </g>
        <!-- mrs.application&#45;&gt;org.springframework -->
        <g id="edge5" class="edge">
            <title>mrs.application&#45;&gt;org.springframework</title>
            <path fill="none" stroke="black" d="M287.75,-166.76C287.75,-166.76 287.75,-69.09 287.75,-69.09"/>
            <polygon fill="black" stroke="black" points="291.25,-69.09 287.75,-59.09 284.25,-69.09 291.25,-69.09"/>
        </g>
        <!-- mrs.domain&#45;&gt;org.springframework -->
        <g id="edge6" class="edge">
            <title>mrs.domain&#45;&gt;org.springframework</title>
            <path fill="none" stroke="black" d="M327.5,-94.83C327.5,-94.83 327.5,-69.41 327.5,-69.41"/>
            <polygon fill="black" stroke="black" points="331,-69.41 327.5,-59.41 324,-69.41 331,-69.41"/>
        </g>
        <!-- mrs.infrastructure -->
        <g id="node3" class="node">
            <title>mrs.infrastructure</title>
            <polygon fill="#eedd82" stroke="black"
                     points="252,-275 94,-275 94,-271 90,-271 90,-267 94,-267 94,-247 90,-247 90,-243 94,-243 94,-239 252,-239 252,-275"/>
            <polyline fill="none" stroke="black" points="94,-271 98,-271 98,-267 94,-267 "/>
            <polyline fill="none" stroke="black" points="94,-247 98,-247 98,-243 94,-243 "/>
            <text text-anchor="middle" x="173" y="-252" font-family="Times New Roman,serif" font-size="20.00">データソース層
            </text>
        </g>
        <!-- mrs.infrastructure&#45;&gt;mrs.application -->
        <g id="edge1" class="edge">
            <title>mrs.infrastructure&#45;&gt;mrs.application</title>
            <path fill="none" stroke="black"
                  d="M242.25,-238.83C242.25,-217.5 242.25,-185 242.25,-185 242.25,-185 257.5,-185 257.5,-185"/>
            <polygon fill="black" stroke="black" points="257.5,-188.5 267.5,-185 257.49,-181.5 257.5,-188.5"/>
        </g>
        <!-- mrs.infrastructure&#45;&gt;mrs.domain -->
        <g id="edge8" class="edge">
            <title>mrs.infrastructure&#45;&gt;mrs.domain</title>
            <path fill="none" stroke="black"
                  d="M232.5,-238.76C232.5,-200.01 232.5,-113 232.5,-113 232.5,-113 297.61,-113 297.61,-113"/>
            <polygon fill="black" stroke="black" points="297.61,-116.5 307.61,-113 297.61,-109.5 297.61,-116.5"/>
        </g>
        <!-- mrs.infrastructure&#45;&gt;org.springframework -->
        <g id="edge2" class="edge">
            <title>mrs.infrastructure&#45;&gt;org.springframework</title>
            <path fill="none" stroke="black" d="M222.75,-238.96C222.75,-238.96 222.75,-69.15 222.75,-69.15"/>
            <polygon fill="black" stroke="black" points="226.25,-69.15 222.75,-59.15 219.25,-69.15 226.25,-69.15"/>
        </g>
        <!-- org.apache -->
        <g id="node7" class="node">
            <title>org.apache</title>
            <polygon fill="lightgrey" stroke="black"
                     points="78,-203 0,-203 0,-199 -4,-199 -4,-195 0,-195 0,-175 -4,-175 -4,-171 0,-171 0,-167 78,-167 78,-203"/>
            <polyline fill="none" stroke="black" points="0,-199 4,-199 4,-195 0,-195 "/>
            <polyline fill="none" stroke="black" points="0,-175 4,-175 4,-171 0,-171 "/>
            <text text-anchor="middle" x="39" y="-181.3" font-family="Times New Roman,serif" font-size="14.00">
                org.apache
            </text>
        </g>
        <!-- mrs.infrastructure&#45;&gt;org.apache -->
        <g id="edge12" class="edge">
            <title>mrs.infrastructure&#45;&gt;org.apache</title>
            <path fill="none" stroke="black" d="M93.89,-257C64.88,-257 39,-257 39,-257 39,-257 39,-213.17 39,-213.17"/>
            <polygon fill="black" stroke="black" points="42.5,-213.17 39,-203.17 35.5,-213.17 42.5,-213.17"/>
        </g>
        <!-- mrs.presentation -->
        <g id="node4" class="node">
            <title>mrs.presentation</title>
            <polygon fill="#eedd82" stroke="black"
                     points="489.5,-275 270.5,-275 270.5,-271 266.5,-271 266.5,-267 270.5,-267 270.5,-247 266.5,-247 266.5,-243 270.5,-243 270.5,-239 489.5,-239 489.5,-275"/>
            <polyline fill="none" stroke="black" points="270.5,-271 274.5,-271 274.5,-267 270.5,-267 "/>
            <polyline fill="none" stroke="black" points="270.5,-247 274.5,-247 274.5,-243 270.5,-243 "/>
            <text text-anchor="middle" x="380" y="-252" font-family="Times New Roman,serif" font-size="20.00">
                プレゼンテーション層
            </text>
        </g>
        <!-- mrs.presentation&#45;&gt;mrs.application -->
        <g id="edge3" class="edge">
            <title>mrs.presentation&#45;&gt;mrs.application</title>
            <path fill="none" stroke="black" d="M368.5,-238.83C368.5,-238.83 368.5,-213.41 368.5,-213.41"/>
            <polygon fill="black" stroke="black" points="372,-213.41 368.5,-203.41 365,-213.41 372,-213.41"/>
        </g>
        <!-- mrs.presentation&#45;&gt;mrs.domain -->
        <g id="edge9" class="edge">
            <title>mrs.presentation&#45;&gt;mrs.domain</title>
            <path fill="none" stroke="black"
                  d="M478,-238.76C478,-200.01 478,-113 478,-113 478,-113 436.07,-113 436.07,-113"/>
            <polygon fill="black" stroke="black" points="436.07,-109.5 426.07,-113 436.07,-116.5 436.07,-109.5"/>
        </g>
        <!-- mrs.presentation&#45;&gt;org.springframework -->
        <g id="edge4" class="edge">
            <title>mrs.presentation&#45;&gt;org.springframework</title>
            <path fill="none" stroke="black"
                  d="M270.42,-257C263.8,-257 259.75,-257 259.75,-257 259.75,-257 259.75,-69.04 259.75,-69.04"/>
            <polygon fill="black" stroke="black" points="263.25,-69.04 259.75,-59.04 256.25,-69.04 263.25,-69.04"/>
        </g>
        <!-- mrs -->
        <g id="node6" class="node">
            <title>mrs</title>
            <polygon fill="lightgrey" stroke="black"
                     points="562,-275 508,-275 508,-271 504,-271 504,-267 508,-267 508,-247 504,-247 504,-243 508,-243 508,-239 562,-239 562,-275"/>
            <polyline fill="none" stroke="black" points="508,-271 512,-271 512,-267 508,-267 "/>
            <polyline fill="none" stroke="black" points="508,-247 512,-247 512,-243 508,-243 "/>
            <text text-anchor="middle" x="535" y="-253.3" font-family="Times New Roman,serif" font-size="14.00">mrs
            </text>
        </g>
        <!-- mrs&#45;&gt;mrs.application -->
        <g id="edge11" class="edge">
            <title>mrs&#45;&gt;mrs.application</title>
            <path fill="none" stroke="black"
                  d="M526,-238.83C526,-217.5 526,-185 526,-185 526,-185 476.79,-185 476.79,-185"/>
            <polygon fill="black" stroke="black" points="476.79,-181.5 466.79,-185 476.79,-188.5 476.79,-181.5"/>
        </g>
        <!-- mrs&#45;&gt;org.springframework -->
        <g id="edge10" class="edge">
            <title>mrs&#45;&gt;org.springframework</title>
            <path fill="none" stroke="black" d="M544,-238.96C544,-187.04 544,-41 544,-41 544,-41 357.3,-41 357.3,-41"/>
            <polygon fill="black" stroke="black" points="357.3,-37.5 347.3,-41 357.3,-44.5 357.3,-37.5"/>
        </g>
    </g>
</svg>
