<?xml version="1.0" encoding="UTF-8" standalone="no"?>
<!DOCTYPE svg PUBLIC "-//W3C//DTD SVG 1.1//EN"
        "http://www.w3.org/Graphics/SVG/1.1/DTD/svg11.dtd">
<!-- Generated by graphviz version 3.0.0 (20220226.1711)
 -->
<!-- Title: ビジネスルール関連図 Pages: 1 -->
<svg width="904pt" height="500pt"
     viewBox="0.00 0.00 904.00 500.00" xmlns="http://www.w3.org/2000/svg">
    <g id="graph0" class="graph" transform="scale(1 1) rotate(0) translate(4 496)">
        <title>ビジネスルール関連図</title>
        <polygon fill="white" stroke="transparent" points="-4,4 -4,-496 900,-496 900,4 -4,4"/>
        <text text-anchor="middle" x="448" y="-7.8" font-family="Times New Roman,serif" font-size="14.00">ビジネスルール関連図
        </text>
        <g id="clust1" class="cluster">
            <title>cluster_mrs.domain.model.auth</title>
            <polygon fill="lemonchiffon" stroke="#eedd82" stroke-width="2"
                     points="554,-253 554,-484 888,-484 888,-253 554,-253"/>
            <text text-anchor="middle" x="721" y="-468.8" font-family="Times New Roman,serif" font-size="14.00">auth
            </text>
        </g>
        <g id="clust3" class="cluster">
            <title>cluster_mrs.domain.model.reservation.room</title>
            <polygon fill="lemonchiffon" stroke="#eedd82" stroke-width="2"
                     points="8,-31 8,-330 310,-330 310,-31 8,-31"/>
            <text text-anchor="middle" x="159" y="-314.8" font-family="Times New Roman,serif" font-size="14.00">
                reservation.room
            </text>
        </g>
        <g id="clust2" class="cluster">
            <title>cluster_mrs.domain.model.reservation.reservation</title>
            <polygon fill="lemonchiffon" stroke="#eedd82" stroke-width="2"
                     points="318,-179 318,-407 546,-407 546,-179 318,-179"/>
            <text text-anchor="middle" x="432" y="-391.8" font-family="Times New Roman,serif" font-size="14.00">
                reservation.reservation
            </text>
        </g>
        <!-- mrs.domain.model.auth.RoleName -->
        <g id="node1" class="node">
            <title>mrs.domain.model.auth.RoleName</title>
            <polygon fill="#eedd82" stroke="black" points="879.5,-299 776.5,-299 776.5,-261 879.5,-261 879.5,-299"/>
            <text text-anchor="middle" x="828" y="-283.8" font-family="Times New Roman,serif" font-size="14.00">利用者区分
            </text>
            <text text-anchor="middle" x="828" y="-268.8" font-family="Times New Roman,serif" font-size="14.00">
                RoleName
            </text>
        </g>
        <!-- mrs.domain.model.auth.User -->
        <g id="node2" class="node">
            <title>mrs.domain.model.auth.User</title>
            <polygon fill="#eedd82" stroke="black" points="741,-376 673,-376 673,-338 741,-338 741,-376"/>
            <text text-anchor="middle" x="707" y="-360.8" font-family="Times New Roman,serif" font-size="14.00">利用者
            </text>
            <text text-anchor="middle" x="707" y="-345.8" font-family="Times New Roman,serif" font-size="14.00">User
            </text>
        </g>
        <!-- mrs.domain.model.auth.User&#45;&gt;mrs.domain.model.auth.RoleName -->
        <g id="edge1" class="edge">
            <title>mrs.domain.model.auth.User&#45;&gt;mrs.domain.model.auth.RoleName</title>
            <path fill="none" stroke="black"
                  d="M741.08,-343.47C750.09,-339.63 759.63,-335.06 768,-330 779.53,-323.03 791.23,-314 801.2,-305.61"/>
            <polygon fill="black" stroke="black" points="803.5,-308.24 808.78,-299.05 798.93,-302.94 803.5,-308.24"/>
        </g>
        <!-- mrs.domain.model.auth.UserId -->
        <g id="node4" class="node">
            <title>mrs.domain.model.auth.UserId</title>
            <polygon fill="#eedd82" stroke="black" points="665.5,-299 562.5,-299 562.5,-261 665.5,-261 665.5,-299"/>
            <text text-anchor="middle" x="614" y="-283.8" font-family="Times New Roman,serif" font-size="14.00">利用者番号
            </text>
            <text text-anchor="middle" x="614" y="-268.8" font-family="Times New Roman,serif" font-size="14.00">UserId
            </text>
        </g>
        <!-- mrs.domain.model.auth.User&#45;&gt;mrs.domain.model.auth.UserId -->
        <g id="edge2" class="edge">
            <title>mrs.domain.model.auth.User&#45;&gt;mrs.domain.model.auth.UserId</title>
            <path fill="none" stroke="black" d="M684.49,-337.84C672.47,-328.15 657.5,-316.08 644.46,-305.56"/>
            <polygon fill="black" stroke="black" points="646.61,-302.8 636.63,-299.25 642.21,-308.25 646.61,-302.8"/>
        </g>
        <!-- mrs.domain.model.auth.UserName -->
        <g id="node5" class="node">
            <title>mrs.domain.model.auth.UserName</title>
            <polygon fill="#eedd82" stroke="black" points="758.5,-299 683.5,-299 683.5,-261 758.5,-261 758.5,-299"/>
            <text text-anchor="middle" x="721" y="-283.8" font-family="Times New Roman,serif" font-size="14.00">氏名
            </text>
            <text text-anchor="middle" x="721" y="-268.8" font-family="Times New Roman,serif" font-size="14.00">
                UserName
            </text>
        </g>
        <!-- mrs.domain.model.auth.User&#45;&gt;mrs.domain.model.auth.UserName -->
        <g id="edge3" class="edge">
            <title>mrs.domain.model.auth.User&#45;&gt;mrs.domain.model.auth.UserName</title>
            <path fill="none" stroke="black" d="M710.39,-337.84C711.99,-329.25 713.95,-318.79 715.74,-309.19"/>
            <polygon fill="black" stroke="black" points="719.2,-309.72 717.59,-299.25 712.32,-308.44 719.2,-309.72"/>
        </g>
        <!-- mrs.domain.model.reservation.reservation.Reservation -->
        <g id="node6" class="node">
            <title>mrs.domain.model.reservation.reservation.Reservation</title>
            <polygon fill="#eedd82" stroke="black" points="528.5,-299 445.5,-299 445.5,-261 528.5,-261 528.5,-299"/>
            <text text-anchor="middle" x="487" y="-283.8" font-family="Times New Roman,serif" font-size="14.00">予約
            </text>
            <text text-anchor="middle" x="487" y="-268.8" font-family="Times New Roman,serif" font-size="14.00">
                Reservation
            </text>
        </g>
        <!-- mrs.domain.model.auth.User&#45;&gt;mrs.domain.model.reservation.reservation.Reservation -->
        <g id="edge4" class="edge">
            <title>mrs.domain.model.auth.User&#45;&gt;mrs.domain.model.reservation.reservation.Reservation</title>
            <path fill="none" stroke="black"
                  d="M672.75,-354.68C641.82,-352.36 595.95,-346.17 559,-330 545.52,-324.1 532.38,-314.66 520.97,-305.63"/>
            <polygon fill="black" stroke="black" points="522.98,-302.75 513,-299.19 518.58,-308.2 522.98,-302.75"/>
        </g>
        <!-- mrs.domain.model.auth.UserDetailsImpl -->
        <g id="node3" class="node">
            <title>mrs.domain.model.auth.UserDetailsImpl</title>
            <polygon fill="#eedd82" stroke="black" points="760,-453 654,-453 654,-415 760,-415 760,-453"/>
            <text text-anchor="middle" x="707" y="-437.8" font-family="Times New Roman,serif" font-size="14.00">利用者
            </text>
            <text text-anchor="middle" x="707" y="-422.8" font-family="Times New Roman,serif" font-size="14.00">
                UserDetailsImpl
            </text>
        </g>
        <!-- mrs.domain.model.auth.UserDetailsImpl&#45;&gt;mrs.domain.model.auth.RoleName -->
        <g id="edge5" class="edge">
            <title>mrs.domain.model.auth.UserDetailsImpl&#45;&gt;mrs.domain.model.auth.RoleName</title>
            <path fill="none" stroke="black"
                  d="M740.58,-414.92C743.93,-412.47 747.15,-409.82 750,-407 779.32,-377.99 802.5,-335.9 815.74,-308.49"/>
            <polygon fill="black" stroke="black" points="819.07,-309.65 820.16,-299.11 812.73,-306.66 819.07,-309.65"/>
        </g>
        <!-- mrs.domain.model.auth.UserDetailsImpl&#45;&gt;mrs.domain.model.auth.User -->
        <g id="edge6" class="edge">
            <title>mrs.domain.model.auth.UserDetailsImpl&#45;&gt;mrs.domain.model.auth.User</title>
            <path fill="none" stroke="black" d="M707,-414.84C707,-406.34 707,-396.01 707,-386.5"/>
            <polygon fill="black" stroke="black" points="710.5,-386.25 707,-376.25 703.5,-386.25 710.5,-386.25"/>
        </g>
        <!-- mrs.domain.model.auth.UserDetailsImpl&#45;&gt;mrs.domain.model.auth.UserId -->
        <g id="edge7" class="edge">
            <title>mrs.domain.model.auth.UserDetailsImpl&#45;&gt;mrs.domain.model.auth.UserId</title>
            <path fill="none" stroke="black"
                  d="M672.05,-414.73C669.11,-412.38 666.37,-409.8 664,-407 639.73,-378.33 626.29,-336.43 619.61,-308.94"/>
            <polygon fill="black" stroke="black" points="623.01,-308.14 617.37,-299.17 616.19,-309.7 623.01,-308.14"/>
        </g>
        <!-- mrs.domain.model.reservation.reservation.Reservation&#45;&gt;mrs.domain.model.auth.User -->
        <g id="edge8" class="edge">
            <title>mrs.domain.model.reservation.reservation.Reservation&#45;&gt;mrs.domain.model.auth.User</title>
            <path fill="none" stroke="black"
                  d="M497.46,-299.19C508.02,-309.87 524.24,-322.67 541,-330 579.53,-346.87 627.76,-352.87 662.42,-354.96"/>
            <polygon fill="black" stroke="black" points="662.55,-358.47 672.72,-355.49 662.91,-351.48 662.55,-358.47"/>
        </g>
        <!-- mrs.domain.model.reservation.reservation.ReservationId -->
        <g id="node7" class="node">
            <title>mrs.domain.model.reservation.reservation.ReservationId</title>
            <polygon fill="#eedd82" stroke="black" points="421.5,-225 326.5,-225 326.5,-187 421.5,-187 421.5,-225"/>
            <text text-anchor="middle" x="374" y="-209.8" font-family="Times New Roman,serif" font-size="14.00">予約番号
            </text>
            <text text-anchor="middle" x="374" y="-194.8" font-family="Times New Roman,serif" font-size="14.00">
                ReservationId
            </text>
        </g>
        <!-- mrs.domain.model.reservation.reservation.Reservation&#45;&gt;mrs.domain.model.reservation.reservation.ReservationId -->
        <g id="edge9" class="edge">
            <title>mrs.domain.model.reservation.reservation.Reservation&#45;&gt;mrs.domain.model.reservation.reservation.ReservationId</title>
            <path fill="none" stroke="black" d="M458.49,-260.83C444.17,-251.71 426.64,-240.54 411.27,-230.74"/>
            <polygon fill="black" stroke="black" points="412.82,-227.58 402.51,-225.16 409.06,-233.49 412.82,-227.58"/>
        </g>
        <!-- mrs.domain.model.reservation.reservation.ReservedTime -->
        <g id="node9" class="node">
            <title>mrs.domain.model.reservation.reservation.ReservedTime</title>
            <polygon fill="#eedd82" stroke="black" points="538,-225 440,-225 440,-187 538,-187 538,-225"/>
            <text text-anchor="middle" x="489" y="-209.8" font-family="Times New Roman,serif" font-size="14.00">予約時間
            </text>
            <text text-anchor="middle" x="489" y="-194.8" font-family="Times New Roman,serif" font-size="14.00">
                ReservedTime
            </text>
        </g>
        <!-- mrs.domain.model.reservation.reservation.Reservation&#45;&gt;mrs.domain.model.reservation.reservation.ReservedTime -->
        <g id="edge10" class="edge">
            <title>mrs.domain.model.reservation.reservation.Reservation&#45;&gt;mrs.domain.model.reservation.reservation.ReservedTime</title>
            <path fill="none" stroke="black" d="M487.5,-260.83C487.72,-253.13 487.97,-243.97 488.21,-235.42"/>
            <polygon fill="black" stroke="black" points="491.71,-235.51 488.49,-225.41 484.71,-235.31 491.71,-235.51"/>
        </g>
        <!-- mrs.domain.model.reservation.room.ReservableRoom -->
        <g id="node11" class="node">
            <title>mrs.domain.model.reservation.room.ReservableRoom</title>
            <polygon fill="#eedd82" stroke="black" points="276.5,-225 139.5,-225 139.5,-187 276.5,-187 276.5,-225"/>
            <text text-anchor="middle" x="208" y="-209.8" font-family="Times New Roman,serif" font-size="14.00">
                予約可能会議室
            </text>
            <text text-anchor="middle" x="208" y="-194.8" font-family="Times New Roman,serif" font-size="14.00">
                ReservableRoom
            </text>
        </g>
        <!-- mrs.domain.model.reservation.reservation.Reservation&#45;&gt;mrs.domain.model.reservation.room.ReservableRoom -->
        <g id="edge11" class="edge">
            <title>mrs.domain.model.reservation.reservation.Reservation&#45;&gt;mrs.domain.model.reservation.room.ReservableRoom</title>
            <path fill="none" stroke="black" d="M445.49,-269.51C402.36,-258.91 334.14,-241.43 281.82,-227.64"/>
            <polygon fill="black" stroke="black" points="282.48,-224.2 271.92,-225.03 280.69,-230.96 282.48,-224.2"/>
        </g>
        <!-- mrs.domain.model.reservation.room.ReservableRoomId -->
        <g id="node12" class="node">
            <title>mrs.domain.model.reservation.room.ReservableRoomId</title>
            <polygon fill="#eedd82" stroke="black" points="284,-151 132,-151 132,-113 284,-113 284,-151"/>
            <text text-anchor="middle" x="208" y="-135.8" font-family="Times New Roman,serif" font-size="14.00">
                予約可能会議室ID
            </text>
            <text text-anchor="middle" x="208" y="-120.8" font-family="Times New Roman,serif" font-size="14.00">
                ReservableRoomId
            </text>
        </g>
        <!-- mrs.domain.model.reservation.reservation.Reservation&#45;&gt;mrs.domain.model.reservation.room.ReservableRoomId -->
        <g id="edge12" class="edge">
            <title>mrs.domain.model.reservation.reservation.Reservation&#45;&gt;mrs.domain.model.reservation.room.ReservableRoomId</title>
            <path fill="none" stroke="black"
                  d="M516.22,-260.82C528.11,-251.68 540.56,-239.47 547,-225 555.32,-206.32 560.45,-194.4 547,-179 514.83,-142.17 383.81,-133.69 294.4,-132.32"/>
            <polygon fill="black" stroke="black" points="294.3,-128.82 284.25,-132.2 294.21,-135.82 294.3,-128.82"/>
        </g>
        <!-- mrs.domain.model.reservation.reservation.ReservationList -->
        <g id="node8" class="node">
            <title>mrs.domain.model.reservation.reservation.ReservationList</title>
            <polygon fill="#eedd82" stroke="black" points="538,-376 434,-376 434,-338 538,-338 538,-376"/>
            <text text-anchor="middle" x="486" y="-360.8" font-family="Times New Roman,serif" font-size="14.00">予約一覧
            </text>
            <text text-anchor="middle" x="486" y="-345.8" font-family="Times New Roman,serif" font-size="14.00">
                ReservationList
            </text>
        </g>
        <!-- mrs.domain.model.reservation.reservation.ReservationList&#45;&gt;mrs.domain.model.reservation.reservation.Reservation -->
        <g id="edge13" class="edge">
            <title>mrs.domain.model.reservation.reservation.ReservationList&#45;&gt;mrs.domain.model.reservation.reservation.Reservation</title>
            <path fill="none" stroke="black" d="M486.24,-337.84C486.36,-329.34 486.49,-319.01 486.62,-309.5"/>
            <polygon fill="black" stroke="black" points="490.12,-309.29 486.76,-299.25 483.12,-309.2 490.12,-309.29"/>
        </g>
        <!-- mrs.domain.model.reservation.room.MeetingRoom -->
        <g id="node10" class="node">
            <title>mrs.domain.model.reservation.room.MeetingRoom</title>
            <polygon fill="#eedd82" stroke="black" points="112,-299 16,-299 16,-261 112,-261 112,-299"/>
            <text text-anchor="middle" x="64" y="-283.8" font-family="Times New Roman,serif" font-size="14.00">会議室
            </text>
            <text text-anchor="middle" x="64" y="-268.8" font-family="Times New Roman,serif" font-size="14.00">
                MeetingRoom
            </text>
        </g>
        <!-- mrs.domain.model.reservation.room.MeetingRoom&#45;&gt;mrs.domain.model.reservation.room.ReservableRoom -->
        <g id="edge14" class="edge">
            <title>mrs.domain.model.reservation.room.MeetingRoom&#45;&gt;mrs.domain.model.reservation.room.ReservableRoom</title>
            <path fill="none" stroke="black" d="M94.38,-260.83C112.54,-251.29 135.99,-239.51 156.89,-229.4"/>
            <polygon fill="black" stroke="black" points="158.48,-232.52 165.98,-225.04 155.45,-226.21 158.48,-232.52"/>
        </g>
        <!-- mrs.domain.model.reservation.room.RoomId -->
        <g id="node15" class="node">
            <title>mrs.domain.model.reservation.room.RoomId</title>
            <polygon fill="#eedd82" stroke="black" points="134.5,-77 31.5,-77 31.5,-39 134.5,-39 134.5,-77"/>
            <text text-anchor="middle" x="83" y="-61.8" font-family="Times New Roman,serif" font-size="14.00">会議室番号
            </text>
            <text text-anchor="middle" x="83" y="-46.8" font-family="Times New Roman,serif" font-size="14.00">RoomId
            </text>
        </g>
        <!-- mrs.domain.model.reservation.room.MeetingRoom&#45;&gt;mrs.domain.model.reservation.room.RoomId -->
        <g id="edge15" class="edge">
            <title>mrs.domain.model.reservation.room.MeetingRoom&#45;&gt;mrs.domain.model.reservation.room.RoomId
            </title>
            <path fill="none" stroke="black" d="M65.55,-261C68.85,-222.8 76.57,-133.41 80.55,-87.43"/>
            <polygon fill="black" stroke="black" points="84.05,-87.52 81.42,-77.25 77.08,-86.91 84.05,-87.52"/>
        </g>
        <!-- mrs.domain.model.reservation.room.ReservableRoom&#45;&gt;mrs.domain.model.reservation.reservation.Reservation -->
        <g id="edge16" class="edge">
            <title>mrs.domain.model.reservation.room.ReservableRoom&#45;&gt;mrs.domain.model.reservation.reservation.Reservation</title>
            <path fill="none" stroke="black" d="M276.57,-223.21C325.77,-235.55 390.96,-252.39 435.71,-264.33"/>
            <polygon fill="black" stroke="black" points="434.93,-267.74 445.49,-266.95 436.74,-260.98 434.93,-267.74"/>
        </g>
        <!-- mrs.domain.model.reservation.room.ReservableRoom&#45;&gt;mrs.domain.model.reservation.room.MeetingRoom -->
        <g id="edge17" class="edge">
            <title>mrs.domain.model.reservation.room.ReservableRoom&#45;&gt;mrs.domain.model.reservation.room.MeetingRoom</title>
            <path fill="none" stroke="black" d="M177.63,-225.16C159.54,-234.67 136.2,-246.4 115.36,-256.48"/>
            <polygon fill="black" stroke="black" points="113.79,-253.35 106.29,-260.83 116.82,-259.66 113.79,-253.35"/>
        </g>
        <!-- mrs.domain.model.reservation.room.ReservableRoom&#45;&gt;mrs.domain.model.reservation.room.ReservableRoomId -->
        <g id="edge18" class="edge">
            <title>mrs.domain.model.reservation.room.ReservableRoom&#45;&gt;mrs.domain.model.reservation.room.ReservableRoomId</title>
            <path fill="none" stroke="black" d="M208,-186.83C208,-179.13 208,-169.97 208,-161.42"/>
            <polygon fill="black" stroke="black" points="211.5,-161.41 208,-151.41 204.5,-161.41 211.5,-161.41"/>
        </g>
        <!-- mrs.domain.model.reservation.room.ReservedDate -->
        <g id="node14" class="node">
            <title>mrs.domain.model.reservation.room.ReservedDate</title>
            <polygon fill="#eedd82" stroke="black" points="255.5,-77 160.5,-77 160.5,-39 255.5,-39 255.5,-77"/>
            <text text-anchor="middle" x="208" y="-61.8" font-family="Times New Roman,serif" font-size="14.00">予約日
            </text>
            <text text-anchor="middle" x="208" y="-46.8" font-family="Times New Roman,serif" font-size="14.00">
                ReservedDate
            </text>
        </g>
        <!-- mrs.domain.model.reservation.room.ReservableRoomId&#45;&gt;mrs.domain.model.reservation.room.ReservedDate -->
        <g id="edge19" class="edge">
            <title>mrs.domain.model.reservation.room.ReservableRoomId&#45;&gt;mrs.domain.model.reservation.room.ReservedDate</title>
            <path fill="none" stroke="black" d="M208,-112.83C208,-105.13 208,-95.97 208,-87.42"/>
            <polygon fill="black" stroke="black" points="211.5,-87.41 208,-77.41 204.5,-87.41 211.5,-87.41"/>
        </g>
        <!-- mrs.domain.model.reservation.room.ReservableRoomId&#45;&gt;mrs.domain.model.reservation.room.RoomId -->
        <g id="edge20" class="edge">
            <title>mrs.domain.model.reservation.room.ReservableRoomId&#45;&gt;mrs.domain.model.reservation.room.RoomId
            </title>
            <path fill="none" stroke="black" d="M176.46,-112.83C160.32,-103.54 140.5,-92.12 123.27,-82.2"/>
            <polygon fill="black" stroke="black" points="124.94,-79.12 114.53,-77.16 121.45,-85.19 124.94,-79.12"/>
        </g>
        <!-- mrs.domain.model.reservation.room.ReservableRoomList -->
        <g id="node13" class="node">
            <title>mrs.domain.model.reservation.room.ReservableRoomList</title>
            <polygon fill="#eedd82" stroke="black" points="302,-299 130,-299 130,-261 302,-261 302,-299"/>
            <text text-anchor="middle" x="216" y="-283.8" font-family="Times New Roman,serif" font-size="14.00">
                予約可能会議室一覧
            </text>
            <text text-anchor="middle" x="216" y="-268.8" font-family="Times New Roman,serif" font-size="14.00">
                ReservableRoomList
            </text>
        </g>
        <!-- mrs.domain.model.reservation.room.ReservableRoomList&#45;&gt;mrs.domain.model.reservation.room.ReservableRoom -->
        <g id="edge21" class="edge">
            <title>mrs.domain.model.reservation.room.ReservableRoomList&#45;&gt;mrs.domain.model.reservation.room.ReservableRoom</title>
            <path fill="none" stroke="black" d="M213.98,-260.83C213.13,-253.13 212.11,-243.97 211.16,-235.42"/>
            <polygon fill="black" stroke="black" points="214.63,-234.97 210.05,-225.41 207.67,-235.74 214.63,-234.97"/>
        </g>
    </g>
</svg>
