<?xml version="1.0" encoding="UTF-8" standalone="no"?>
<!DOCTYPE svg PUBLIC "-//W3C//DTD SVG 1.1//EN"
        "http://www.w3.org/Graphics/SVG/1.1/DTD/svg11.dtd">
<!-- Generated by graphviz version 3.0.0 (20220226.1711)
 -->
<!-- Title: ビジネスルール関連図 Pages: 1 -->
<svg width="1562pt" height="516pt"
     viewBox="0.00 0.00 1562.00 516.00" xmlns="http://www.w3.org/2000/svg">
    <g id="graph0" class="graph" transform="scale(1 1) rotate(0) translate(4 512)">
        <title>ビジネスルール関連図</title>
        <polygon fill="white" stroke="transparent" points="-4,4 -4,-512 1558,-512 1558,4 -4,4"/>
        <text text-anchor="middle" x="777" y="-7.8" font-family="Times New Roman,serif" font-size="14.00">ビジネスルール関連図
        </text>
        <g id="clust2" class="cluster">
            <title>cluster_mrs.domain.model.auth.user.administrator</title>
            <polygon fill="lemonchiffon" stroke="#eedd82" stroke-width="2"
                     points="791,-423 791,-500 934,-500 934,-423 791,-423"/>
            <text text-anchor="middle" x="862.5" y="-484.8" font-family="Times New Roman,serif" font-size="14.00">
                auth.user.administrator
            </text>
        </g>
        <g id="clust3" class="cluster">
            <title>cluster_mrs.domain.model.auth.user.member</title>
            <polygon fill="lemonchiffon" stroke="#eedd82" stroke-width="2"
                     points="588,-338 588,-500 704,-500 704,-338 588,-338"/>
            <text text-anchor="middle" x="646" y="-484.8" font-family="Times New Roman,serif" font-size="14.00">
                auth.user.member
            </text>
        </g>
        <g id="clust4" class="cluster">
            <title>cluster_mrs.domain.model.property.room</title>
            <polygon fill="lemonchiffon" stroke="#eedd82" stroke-width="2"
                     points="1426,-31 1426,-330 1546,-330 1546,-31 1426,-31"/>
            <text text-anchor="middle" x="1486" y="-314.8" font-family="Times New Roman,serif" font-size="14.00">
                property.room
            </text>
        </g>
        <g id="clust1" class="cluster">
            <title>cluster_mrs.domain.model.auth.user</title>
            <polygon fill="lemonchiffon" stroke="#eedd82" stroke-width="2"
                     points="8,-180 8,-500 580,-500 580,-180 8,-180"/>
            <text text-anchor="middle" x="294" y="-484.8" font-family="Times New Roman,serif" font-size="14.00">
                auth.user
            </text>
        </g>
        <g id="clust5" class="cluster">
            <title>cluster_mrs.domain.model.reservation.reservation</title>
            <polygon fill="lemonchiffon" stroke="#eedd82" stroke-width="2"
                     points="994,-31 994,-415 1222,-415 1222,-31 994,-31"/>
            <text text-anchor="middle" x="1108" y="-399.8" font-family="Times New Roman,serif" font-size="14.00">
                reservation.reservation
            </text>
        </g>
        <g id="clust6" class="cluster">
            <title>cluster_mrs.domain.model.reservation.room</title>
            <polygon fill="lemonchiffon" stroke="#eedd82" stroke-width="2"
                     points="1230,-105 1230,-330 1418,-330 1418,-105 1230,-105"/>
            <text text-anchor="middle" x="1324" y="-314.8" font-family="Times New Roman,serif" font-size="14.00">
                reservation.room
            </text>
        </g>
        <!-- mrs.domain.model.auth.user.Password -->
        <g id="node1" class="node">
            <title>mrs.domain.model.auth.user.Password</title>
            <polygon fill="#eedd82" stroke="black" points="478.5,-299 375.5,-299 375.5,-261 478.5,-261 478.5,-299"/>
            <text text-anchor="middle" x="427" y="-283.8" font-family="Times New Roman,serif" font-size="14.00">パスワード
            </text>
            <text text-anchor="middle" x="427" y="-268.8" font-family="Times New Roman,serif" font-size="14.00">
                Password
            </text>
        </g>
        <!-- mrs.domain.model.auth.user.PasswordException -->
        <g id="node2" class="node">
            <title>mrs.domain.model.auth.user.PasswordException</title>
            <polygon fill="#eedd82" stroke="black" points="499,-224 371,-224 371,-188 499,-188 499,-224"/>
            <text text-anchor="middle" x="435" y="-202.3" font-family="Times New Roman,serif" font-size="14.00">
                PasswordException
            </text>
        </g>
        <!-- mrs.domain.model.auth.user.Password&#45;&gt;mrs.domain.model.auth.user.PasswordException -->
        <g id="edge14" class="edge">
            <title>mrs.domain.model.auth.user.Password&#45;&gt;mrs.domain.model.auth.user.PasswordException</title>
            <path fill="none" stroke="black" d="M429.02,-260.83C429.9,-252.89 430.95,-243.41 431.93,-234.63"/>
            <polygon fill="black" stroke="black" points="435.44,-234.74 433.06,-224.42 428.48,-233.97 435.44,-234.74"/>
        </g>
        <!-- mrs.domain.model.auth.user.RoleName -->
        <g id="node3" class="node">
            <title>mrs.domain.model.auth.user.RoleName</title>
            <polygon fill="#eedd82" stroke="black" points="236.5,-299 133.5,-299 133.5,-261 236.5,-261 236.5,-299"/>
            <text text-anchor="middle" x="185" y="-283.8" font-family="Times New Roman,serif" font-size="14.00">利用者区分
            </text>
            <text text-anchor="middle" x="185" y="-268.8" font-family="Times New Roman,serif" font-size="14.00">
                RoleName
            </text>
        </g>
        <!-- mrs.domain.model.auth.user.User -->
        <g id="node4" class="node">
            <title>mrs.domain.model.auth.user.User</title>
            <polygon fill="#eedd82" stroke="black" points="461,-384 393,-384 393,-346 461,-346 461,-384"/>
            <text text-anchor="middle" x="427" y="-368.8" font-family="Times New Roman,serif" font-size="14.00">利用者
            </text>
            <text text-anchor="middle" x="427" y="-353.8" font-family="Times New Roman,serif" font-size="14.00">User
            </text>
        </g>
        <!-- mrs.domain.model.auth.user.User&#45;&gt;mrs.domain.model.auth.user.Password -->
        <g id="edge15" class="edge">
            <title>mrs.domain.model.auth.user.User&#45;&gt;mrs.domain.model.auth.user.Password</title>
            <path fill="none" stroke="black" d="M427,-345.99C427,-335.3 427,-321.5 427,-309.37"/>
            <polygon fill="black" stroke="black" points="430.5,-309.26 427,-299.26 423.5,-309.26 430.5,-309.26"/>
        </g>
        <!-- mrs.domain.model.auth.user.User&#45;&gt;mrs.domain.model.auth.user.RoleName -->
        <g id="edge16" class="edge">
            <title>mrs.domain.model.auth.user.User&#45;&gt;mrs.domain.model.auth.user.RoleName</title>
            <path fill="none" stroke="black"
                  d="M392.94,-362.66C355.18,-360.05 293.25,-352.41 245,-330 232.3,-324.1 220,-314.89 209.88,-306.04"/>
            <polygon fill="black" stroke="black" points="212.01,-303.25 202.26,-299.09 207.29,-308.42 212.01,-303.25"/>
        </g>
        <!-- mrs.domain.model.auth.user.UserException -->
        <g id="node6" class="node">
            <title>mrs.domain.model.auth.user.UserException</title>
            <polygon fill="#eedd82" stroke="black" points="115.5,-298 16.5,-298 16.5,-262 115.5,-262 115.5,-298"/>
            <text text-anchor="middle" x="66" y="-276.3" font-family="Times New Roman,serif" font-size="14.00">
                UserException
            </text>
        </g>
        <!-- mrs.domain.model.auth.user.User&#45;&gt;mrs.domain.model.auth.user.UserException -->
        <g id="edge17" class="edge">
            <title>mrs.domain.model.auth.user.User&#45;&gt;mrs.domain.model.auth.user.UserException</title>
            <path fill="none" stroke="black"
                  d="M392.98,-362.67C324.34,-359.57 171.71,-350.54 124,-330 110.82,-324.32 98.35,-314.61 88.39,-305.32"/>
            <polygon fill="black" stroke="black" points="90.55,-302.55 80.96,-298.05 85.65,-307.55 90.55,-302.55"/>
        </g>
        <!-- mrs.domain.model.auth.user.UserId -->
        <g id="node7" class="node">
            <title>mrs.domain.model.auth.user.UserId</title>
            <polygon fill="#eedd82" stroke="black" points="357.5,-299 254.5,-299 254.5,-261 357.5,-261 357.5,-299"/>
            <text text-anchor="middle" x="306" y="-283.8" font-family="Times New Roman,serif" font-size="14.00">利用者番号
            </text>
            <text text-anchor="middle" x="306" y="-268.8" font-family="Times New Roman,serif" font-size="14.00">UserId
            </text>
        </g>
        <!-- mrs.domain.model.auth.user.User&#45;&gt;mrs.domain.model.auth.user.UserId -->
        <g id="edge18" class="edge">
            <title>mrs.domain.model.auth.user.User&#45;&gt;mrs.domain.model.auth.user.UserId</title>
            <path fill="none" stroke="black"
                  d="M392.8,-346.33C383.89,-341.35 374.42,-335.72 366,-330 355.22,-322.68 344.01,-313.88 334.23,-305.77"/>
            <polygon fill="black" stroke="black" points="336.3,-302.94 326.4,-299.17 331.79,-308.3 336.3,-302.94"/>
        </g>
        <!-- mrs.domain.model.auth.user.UserName -->
        <g id="node9" class="node">
            <title>mrs.domain.model.auth.user.UserName</title>
            <polygon fill="#eedd82" stroke="black" points="571.5,-299 496.5,-299 496.5,-261 571.5,-261 571.5,-299"/>
            <text text-anchor="middle" x="534" y="-283.8" font-family="Times New Roman,serif" font-size="14.00">氏名
            </text>
            <text text-anchor="middle" x="534" y="-268.8" font-family="Times New Roman,serif" font-size="14.00">
                UserName
            </text>
        </g>
        <!-- mrs.domain.model.auth.user.User&#45;&gt;mrs.domain.model.auth.user.UserName -->
        <g id="edge19" class="edge">
            <title>mrs.domain.model.auth.user.User&#45;&gt;mrs.domain.model.auth.user.UserName</title>
            <path fill="none" stroke="black"
                  d="M461.11,-346.94C469.87,-341.96 479.06,-336.17 487,-330 495.79,-323.16 504.5,-314.7 511.98,-306.73"/>
            <polygon fill="black" stroke="black" points="514.87,-308.77 519.02,-299.02 509.7,-304.05 514.87,-308.77"/>
        </g>
        <!-- mrs.domain.model.reservation.reservation.Reservation -->
        <g id="node15" class="node">
            <title>mrs.domain.model.reservation.reservation.Reservation</title>
            <polygon fill="#eedd82" stroke="black"
                     points="1133.5,-299 1050.5,-299 1050.5,-261 1133.5,-261 1133.5,-299"/>
            <text text-anchor="middle" x="1092" y="-283.8" font-family="Times New Roman,serif" font-size="14.00">予約
            </text>
            <text text-anchor="middle" x="1092" y="-268.8" font-family="Times New Roman,serif" font-size="14.00">
                Reservation
            </text>
        </g>
        <!-- mrs.domain.model.auth.user.User&#45;&gt;mrs.domain.model.reservation.reservation.Reservation -->
        <g id="edge20" class="edge">
            <title>mrs.domain.model.auth.user.User&#45;&gt;mrs.domain.model.reservation.reservation.Reservation</title>
            <path fill="none" stroke="black"
                  d="M461.27,-358.96C495.05,-353.37 547.57,-344.31 593,-338 756.15,-315.35 949.75,-295.58 1040.46,-286.42"/>
            <polygon fill="black" stroke="black"
                     points="1040.88,-289.9 1050.48,-285.41 1040.18,-282.93 1040.88,-289.9"/>
        </g>
        <!-- mrs.domain.model.auth.user.UserDetailsImpl -->
        <g id="node5" class="node">
            <title>mrs.domain.model.auth.user.UserDetailsImpl</title>
            <polygon fill="#eedd82" stroke="black" points="387,-469 281,-469 281,-431 387,-431 387,-469"/>
            <text text-anchor="middle" x="334" y="-453.8" font-family="Times New Roman,serif" font-size="14.00">利用者
            </text>
            <text text-anchor="middle" x="334" y="-438.8" font-family="Times New Roman,serif" font-size="14.00">
                UserDetailsImpl
            </text>
        </g>
        <!-- mrs.domain.model.auth.user.UserDetailsImpl&#45;&gt;mrs.domain.model.auth.user.Password -->
        <g id="edge21" class="edge">
            <title>mrs.domain.model.auth.user.UserDetailsImpl&#45;&gt;mrs.domain.model.auth.user.Password</title>
            <path fill="none" stroke="black"
                  d="M340.78,-430.7C349.46,-408.18 365.58,-369.1 384,-338 390.3,-327.36 398.22,-316.35 405.55,-306.89"/>
            <polygon fill="black" stroke="black" points="408.32,-309.02 411.77,-299.01 402.82,-304.69 408.32,-309.02"/>
        </g>
        <!-- mrs.domain.model.auth.user.UserDetailsImpl&#45;&gt;mrs.domain.model.auth.user.RoleName -->
        <g id="edge22" class="edge">
            <title>mrs.domain.model.auth.user.UserDetailsImpl&#45;&gt;mrs.domain.model.auth.user.RoleName</title>
            <path fill="none" stroke="black" d="M317.77,-430.7C291.17,-400.7 238.21,-340.99 207.83,-306.74"/>
            <polygon fill="black" stroke="black" points="210.24,-304.18 200.98,-299.02 205,-308.83 210.24,-304.18"/>
        </g>
        <!-- mrs.domain.model.auth.user.UserDetailsImpl&#45;&gt;mrs.domain.model.auth.user.User -->
        <g id="edge23" class="edge">
            <title>mrs.domain.model.auth.user.UserDetailsImpl&#45;&gt;mrs.domain.model.auth.user.User</title>
            <path fill="none" stroke="black" d="M354.18,-430.99C367.25,-419.32 384.46,-403.97 398.87,-391.11"/>
            <polygon fill="black" stroke="black" points="401.41,-393.53 406.54,-384.26 396.75,-388.31 401.41,-393.53"/>
        </g>
        <!-- mrs.domain.model.auth.user.UserDetailsImpl&#45;&gt;mrs.domain.model.auth.user.UserId -->
        <g id="edge24" class="edge">
            <title>mrs.domain.model.auth.user.UserDetailsImpl&#45;&gt;mrs.domain.model.auth.user.UserId</title>
            <path fill="none" stroke="black" d="M330.95,-430.7C326.06,-401.34 316.42,-343.5 310.66,-308.94"/>
            <polygon fill="black" stroke="black" points="314.1,-308.31 309,-299.02 307.2,-309.46 314.1,-308.31"/>
        </g>
        <!-- mrs.domain.model.auth.user.UserIdException -->
        <g id="node8" class="node">
            <title>mrs.domain.model.auth.user.UserIdException</title>
            <polygon fill="#eedd82" stroke="black" points="352.5,-224 241.5,-224 241.5,-188 352.5,-188 352.5,-224"/>
            <text text-anchor="middle" x="297" y="-202.3" font-family="Times New Roman,serif" font-size="14.00">
                UserIdException
            </text>
        </g>
        <!-- mrs.domain.model.auth.user.UserId&#45;&gt;mrs.domain.model.auth.user.UserIdException -->
        <g id="edge25" class="edge">
            <title>mrs.domain.model.auth.user.UserId&#45;&gt;mrs.domain.model.auth.user.UserIdException</title>
            <path fill="none" stroke="black" d="M303.73,-260.83C302.74,-252.89 301.55,-243.41 300.45,-234.63"/>
            <polygon fill="black" stroke="black" points="303.89,-233.91 299.18,-224.42 296.94,-234.77 303.89,-233.91"/>
        </g>
        <!-- mrs.domain.model.auth.user.administrator.Administrator -->
        <g id="node10" class="node">
            <title>mrs.domain.model.auth.user.administrator.Administrator</title>
            <polygon fill="#eedd82" stroke="black" points="908.5,-469 815.5,-469 815.5,-431 908.5,-431 908.5,-469"/>
            <text text-anchor="middle" x="862" y="-453.8" font-family="Times New Roman,serif" font-size="14.00">管理者
            </text>
            <text text-anchor="middle" x="862" y="-438.8" font-family="Times New Roman,serif" font-size="14.00">
                Administrator
            </text>
        </g>
        <!-- mrs.domain.model.auth.user.administrator.Administrator&#45;&gt;mrs.domain.model.auth.user.Password -->
        <g id="edge1" class="edge">
            <title>mrs.domain.model.auth.user.administrator.Administrator&#45;&gt;mrs.domain.model.auth.user.Password
            </title>
            <path fill="none" stroke="black"
                  d="M861.39,-430.73C859.45,-405.16 851.75,-359.44 822,-338 806.9,-327.12 504.46,-336.46 487,-330 473.33,-324.94 460.48,-315.39 450.21,-306.05"/>
            <polygon fill="black" stroke="black" points="452.52,-303.42 442.88,-299.02 447.68,-308.47 452.52,-303.42"/>
        </g>
        <!-- mrs.domain.model.auth.user.administrator.Administrator&#45;&gt;mrs.domain.model.auth.user.RoleName -->
        <g id="edge2" class="edge">
            <title>mrs.domain.model.auth.user.administrator.Administrator&#45;&gt;mrs.domain.model.auth.user.RoleName
            </title>
            <path fill="none" stroke="black"
                  d="M815.25,-439.67C797.37,-434.5 777.55,-426.66 762,-415 728.56,-389.92 744.92,-357.61 708,-338 685.28,-325.93 269.16,-338.85 245,-330 231.31,-324.99 218.46,-315.44 208.19,-306.09"/>
            <polygon fill="black" stroke="black" points="210.51,-303.46 200.87,-299.06 205.66,-308.51 210.51,-303.46"/>
        </g>
        <!-- mrs.domain.model.auth.user.administrator.Administrator&#45;&gt;mrs.domain.model.auth.user.User -->
        <g id="edge3" class="edge">
            <title>mrs.domain.model.auth.user.administrator.Administrator&#45;&gt;mrs.domain.model.auth.user.User
            </title>
            <path fill="none" stroke="black"
                  d="M815.34,-439.84C784.89,-434.18 744.22,-427.22 708,-423 653.14,-416.62 638.3,-425.08 584,-415 544.86,-407.74 501.79,-393.85 470.68,-382.71"/>
            <polygon fill="black" stroke="black" points="471.61,-379.33 461.01,-379.2 469.22,-385.91 471.61,-379.33"/>
        </g>
        <!-- mrs.domain.model.auth.user.administrator.Administrator&#45;&gt;mrs.domain.model.auth.user.UserId -->
        <g id="edge4" class="edge">
            <title>mrs.domain.model.auth.user.administrator.Administrator&#45;&gt;mrs.domain.model.auth.user.UserId
            </title>
            <path fill="none" stroke="black"
                  d="M849.83,-430.96C830.95,-404.78 791.87,-357.27 745,-338 706.04,-321.98 405.52,-344.56 366,-330 352.32,-324.96 339.47,-315.41 329.2,-306.06"/>
            <polygon fill="black" stroke="black" points="331.52,-303.44 321.88,-299.04 326.67,-308.49 331.52,-303.44"/>
        </g>
        <!-- mrs.domain.model.auth.user.administrator.Administrator&#45;&gt;mrs.domain.model.auth.user.UserName -->
        <g id="edge5" class="edge">
            <title>mrs.domain.model.auth.user.administrator.Administrator&#45;&gt;mrs.domain.model.auth.user.UserName
            </title>
            <path fill="none" stroke="black"
                  d="M886.9,-430.74C891.41,-426.15 895.48,-420.84 898,-415 911.55,-383.57 920.25,-364 898,-338 857.85,-291.07 671.16,-282.51 581.85,-281.13"/>
            <polygon fill="black" stroke="black" points="581.76,-277.63 571.71,-281 581.67,-284.63 581.76,-277.63"/>
        </g>
        <!-- mrs.domain.model.auth.user.administrator.Administrator&#45;&gt;mrs.domain.model.reservation.reservation.Reservation -->
        <g id="edge6" class="edge">
            <title>mrs.domain.model.auth.user.administrator.Administrator&#45;&gt;mrs.domain.model.reservation.reservation.Reservation</title>
            <path fill="none" stroke="black"
                  d="M908.71,-444.11C951.12,-438.85 1009.75,-429.27 1028,-415 1045.75,-401.12 1069.09,-343.75 1082.11,-308.73"/>
            <polygon fill="black" stroke="black"
                     points="1085.5,-309.67 1085.66,-299.08 1078.93,-307.26 1085.5,-309.67"/>
        </g>
        <!-- mrs.domain.model.auth.user.member.Member -->
        <g id="node11" class="node">
            <title>mrs.domain.model.auth.user.member.Member</title>
            <polygon fill="#eedd82" stroke="black" points="695.5,-469 632.5,-469 632.5,-431 695.5,-431 695.5,-469"/>
            <text text-anchor="middle" x="664" y="-453.8" font-family="Times New Roman,serif" font-size="14.00">会員
            </text>
            <text text-anchor="middle" x="664" y="-438.8" font-family="Times New Roman,serif" font-size="14.00">Member
            </text>
        </g>
        <!-- mrs.domain.model.auth.user.member.Member&#45;&gt;mrs.domain.model.auth.user.Password -->
        <g id="edge7" class="edge">
            <title>mrs.domain.model.auth.user.member.Member&#45;&gt;mrs.domain.model.auth.user.Password</title>
            <path fill="none" stroke="black"
                  d="M695.58,-443.21C733.69,-435.91 793.52,-423.3 800,-415 821.06,-388.03 823.89,-362.51 800,-338 787.86,-325.54 503.31,-336.05 487,-330 473.33,-324.93 460.49,-315.37 450.21,-306.03"/>
            <polygon fill="black" stroke="black" points="452.53,-303.41 442.89,-299.01 447.69,-308.46 452.53,-303.41"/>
        </g>
        <!-- mrs.domain.model.auth.user.member.Member&#45;&gt;mrs.domain.model.auth.user.RoleName -->
        <g id="edge8" class="edge">
            <title>mrs.domain.model.auth.user.member.Member&#45;&gt;mrs.domain.model.auth.user.RoleName</title>
            <path fill="none" stroke="black"
                  d="M681.92,-430.96C685.63,-426.15 689.01,-420.69 691,-415 702.27,-382.69 714.98,-362.41 691,-338 682.32,-329.16 256.63,-334.26 245,-330 231.32,-324.98 218.46,-315.43 208.19,-306.09"/>
            <polygon fill="black" stroke="black" points="210.51,-303.46 200.87,-299.06 205.66,-308.51 210.51,-303.46"/>
        </g>
        <!-- mrs.domain.model.auth.user.member.Member&#45;&gt;mrs.domain.model.auth.user.User -->
        <g id="edge9" class="edge">
            <title>mrs.domain.model.auth.user.member.Member&#45;&gt;mrs.domain.model.auth.user.User</title>
            <path fill="none" stroke="black" d="M632.04,-437.81C590.4,-423.22 517.41,-397.66 470.69,-381.3"/>
            <polygon fill="black" stroke="black" points="471.73,-377.96 461.14,-377.95 469.42,-384.56 471.73,-377.96"/>
        </g>
        <!-- mrs.domain.model.auth.user.member.Member&#45;&gt;mrs.domain.model.auth.user.UserId -->
        <g id="edge10" class="edge">
            <title>mrs.domain.model.auth.user.member.Member&#45;&gt;mrs.domain.model.auth.user.UserId</title>
            <path fill="none" stroke="black"
                  d="M695.71,-438.65C706.65,-433.39 717.73,-425.76 724,-415 741.23,-385.43 747.93,-362.47 724,-338 710.09,-323.78 384.66,-336.89 366,-330 352.33,-324.95 339.48,-315.4 329.2,-306.06"/>
            <polygon fill="black" stroke="black" points="331.52,-303.43 321.88,-299.03 326.67,-308.48 331.52,-303.43"/>
        </g>
        <!-- mrs.domain.model.auth.user.member.Member&#45;&gt;mrs.domain.model.auth.user.UserName -->
        <g id="edge11" class="edge">
            <title>mrs.domain.model.auth.user.member.Member&#45;&gt;mrs.domain.model.auth.user.UserName</title>
            <path fill="none" stroke="black"
                  d="M695.67,-441.22C720.4,-435.41 755.7,-427.7 787,-423 796.82,-421.53 869.3,-422.33 876,-415 899.09,-389.74 898.12,-364.11 876,-338 838.84,-294.13 666.7,-283.99 581.72,-281.67"/>
            <polygon fill="black" stroke="black" points="581.64,-278.17 571.56,-281.42 581.47,-285.17 581.64,-278.17"/>
        </g>
        <!-- mrs.domain.model.auth.user.member.MemberId -->
        <g id="node12" class="node">
            <title>mrs.domain.model.auth.user.member.MemberId</title>
            <polygon fill="#eedd82" stroke="black" points="682,-384 596,-384 596,-346 682,-346 682,-384"/>
            <text text-anchor="middle" x="639" y="-368.8" font-family="Times New Roman,serif" font-size="14.00">会員番号
            </text>
            <text text-anchor="middle" x="639" y="-353.8" font-family="Times New Roman,serif" font-size="14.00">
                MemberId
            </text>
        </g>
        <!-- mrs.domain.model.auth.user.member.Member&#45;&gt;mrs.domain.model.auth.user.member.MemberId -->
        <g id="edge12" class="edge">
            <title>mrs.domain.model.auth.user.member.Member&#45;&gt;mrs.domain.model.auth.user.member.MemberId</title>
            <path fill="none" stroke="black" d="M658.58,-430.99C655.32,-420.19 651.11,-406.22 647.43,-394"/>
            <polygon fill="black" stroke="black" points="650.74,-392.83 644.5,-384.26 644.03,-394.85 650.74,-392.83"/>
        </g>
        <!-- mrs.domain.model.auth.user.member.Member&#45;&gt;mrs.domain.model.reservation.reservation.Reservation -->
        <g id="edge13" class="edge">
            <title>
                mrs.domain.model.auth.user.member.Member&#45;&gt;mrs.domain.model.reservation.reservation.Reservation
            </title>
            <path fill="none" stroke="black"
                  d="M695.65,-441.07C720.36,-435.17 755.66,-427.42 787,-423 835.98,-416.09 851.34,-431.41 898,-415 932.99,-402.69 1015.66,-340.66 1060.97,-305.47"/>
            <polygon fill="black" stroke="black"
                     points="1063.24,-308.14 1068.97,-299.23 1058.93,-302.62 1063.24,-308.14"/>
        </g>
        <!-- mrs.domain.model.property.room.MeetingRoom -->
        <g id="node13" class="node">
            <title>mrs.domain.model.property.room.MeetingRoom</title>
            <polygon fill="#eedd82" stroke="black" points="1532,-299 1436,-299 1436,-261 1532,-261 1532,-299"/>
            <text text-anchor="middle" x="1484" y="-283.8" font-family="Times New Roman,serif" font-size="14.00">会議室
            </text>
            <text text-anchor="middle" x="1484" y="-268.8" font-family="Times New Roman,serif" font-size="14.00">
                MeetingRoom
            </text>
        </g>
        <!-- mrs.domain.model.property.room.RoomId -->
        <g id="node14" class="node">
            <title>mrs.domain.model.property.room.RoomId</title>
            <polygon fill="#eedd82" stroke="black" points="1537.5,-77 1434.5,-77 1434.5,-39 1537.5,-39 1537.5,-77"/>
            <text text-anchor="middle" x="1486" y="-61.8" font-family="Times New Roman,serif" font-size="14.00">会議室番号
            </text>
            <text text-anchor="middle" x="1486" y="-46.8" font-family="Times New Roman,serif" font-size="14.00">RoomId
            </text>
        </g>
        <!-- mrs.domain.model.property.room.MeetingRoom&#45;&gt;mrs.domain.model.property.room.RoomId -->
        <g id="edge26" class="edge">
            <title>mrs.domain.model.property.room.MeetingRoom&#45;&gt;mrs.domain.model.property.room.RoomId</title>
            <path fill="none" stroke="black" d="M1484.16,-261C1484.51,-222.8 1485.32,-133.41 1485.74,-87.43"/>
            <polygon fill="black" stroke="black" points="1489.24,-87.28 1485.83,-77.25 1482.24,-87.22 1489.24,-87.28"/>
        </g>
        <!-- mrs.domain.model.reservation.room.ReservableRoom -->
        <g id="node20" class="node">
            <title>mrs.domain.model.reservation.room.ReservableRoom</title>
            <polygon fill="#eedd82" stroke="black"
                     points="1407.5,-225 1270.5,-225 1270.5,-187 1407.5,-187 1407.5,-225"/>
            <text text-anchor="middle" x="1339" y="-209.8" font-family="Times New Roman,serif" font-size="14.00">
                予約可能会議室
            </text>
            <text text-anchor="middle" x="1339" y="-194.8" font-family="Times New Roman,serif" font-size="14.00">
                ReservableRoom
            </text>
        </g>
        <!-- mrs.domain.model.property.room.MeetingRoom&#45;&gt;mrs.domain.model.reservation.room.ReservableRoom -->
        <g id="edge27" class="edge">
            <title>mrs.domain.model.property.room.MeetingRoom&#45;&gt;mrs.domain.model.reservation.room.ReservableRoom
            </title>
            <path fill="none" stroke="black" d="M1453.36,-260.83C1435.07,-251.29 1411.46,-239.51 1390.42,-229.4"/>
            <polygon fill="black" stroke="black" points="1391.8,-226.18 1381.27,-225.04 1388.79,-232.5 1391.8,-226.18"/>
        </g>
        <!-- mrs.domain.model.reservation.reservation.Reservation&#45;&gt;mrs.domain.model.auth.user.User -->
        <g id="edge28" class="edge">
            <title>mrs.domain.model.reservation.reservation.Reservation&#45;&gt;mrs.domain.model.auth.user.User</title>
            <path fill="none" stroke="black"
                  d="M1050.24,-284.49C961.98,-292.53 750.81,-313.6 575,-338 539.87,-342.88 500.5,-349.4 471.1,-354.69"/>
            <polygon fill="black" stroke="black" points="470.35,-351.27 461.14,-356.51 471.61,-358.16 470.35,-351.27"/>
        </g>
        <!-- mrs.domain.model.reservation.reservation.ReservationId -->
        <g id="node16" class="node">
            <title>mrs.domain.model.reservation.reservation.ReservationId</title>
            <polygon fill="#eedd82" stroke="black"
                     points="1097.5,-225 1002.5,-225 1002.5,-187 1097.5,-187 1097.5,-225"/>
            <text text-anchor="middle" x="1050" y="-209.8" font-family="Times New Roman,serif" font-size="14.00">予約番号
            </text>
            <text text-anchor="middle" x="1050" y="-194.8" font-family="Times New Roman,serif" font-size="14.00">
                ReservationId
            </text>
        </g>
        <!-- mrs.domain.model.reservation.reservation.Reservation&#45;&gt;mrs.domain.model.reservation.reservation.ReservationId -->
        <g id="edge29" class="edge">
            <title>mrs.domain.model.reservation.reservation.Reservation&#45;&gt;mrs.domain.model.reservation.reservation.ReservationId</title>
            <path fill="none" stroke="black" d="M1081.4,-260.83C1076.71,-252.79 1071.1,-243.17 1065.92,-234.29"/>
            <polygon fill="black" stroke="black"
                     points="1068.8,-232.29 1060.74,-225.41 1062.76,-235.81 1068.8,-232.29"/>
        </g>
        <!-- mrs.domain.model.reservation.reservation.ReservedTime -->
        <g id="node19" class="node">
            <title>mrs.domain.model.reservation.reservation.ReservedTime</title>
            <polygon fill="#eedd82" stroke="black" points="1214,-225 1116,-225 1116,-187 1214,-187 1214,-225"/>
            <text text-anchor="middle" x="1165" y="-209.8" font-family="Times New Roman,serif" font-size="14.00">予約時間
            </text>
            <text text-anchor="middle" x="1165" y="-194.8" font-family="Times New Roman,serif" font-size="14.00">
                ReservedTime
            </text>
        </g>
        <!-- mrs.domain.model.reservation.reservation.Reservation&#45;&gt;mrs.domain.model.reservation.reservation.ReservedTime -->
        <g id="edge30" class="edge">
            <title>mrs.domain.model.reservation.reservation.Reservation&#45;&gt;mrs.domain.model.reservation.reservation.ReservedTime</title>
            <path fill="none" stroke="black" d="M1110.42,-260.83C1119.15,-252.22 1129.73,-241.79 1139.24,-232.4"/>
            <polygon fill="black" stroke="black"
                     points="1141.92,-234.68 1146.58,-225.16 1137.01,-229.69 1141.92,-234.68"/>
        </g>
        <!-- mrs.domain.model.reservation.reservation.Reservation&#45;&gt;mrs.domain.model.reservation.room.ReservableRoom -->
        <g id="edge31" class="edge">
            <title>mrs.domain.model.reservation.reservation.Reservation&#45;&gt;mrs.domain.model.reservation.room.ReservableRoom</title>
            <path fill="none" stroke="black" d="M1133.68,-268.3C1171.89,-257.7 1228.94,-241.19 1273.26,-227.97"/>
            <polygon fill="black" stroke="black" points="1274.5,-231.25 1283.08,-225.03 1272.5,-224.54 1274.5,-231.25"/>
        </g>
        <!-- mrs.domain.model.reservation.room.ReservableRoomId -->
        <g id="node21" class="node">
            <title>mrs.domain.model.reservation.room.ReservableRoomId</title>
            <polygon fill="#eedd82" stroke="black" points="1400,-151 1248,-151 1248,-113 1400,-113 1400,-151"/>
            <text text-anchor="middle" x="1324" y="-135.8" font-family="Times New Roman,serif" font-size="14.00">
                予約可能会議室ID
            </text>
            <text text-anchor="middle" x="1324" y="-120.8" font-family="Times New Roman,serif" font-size="14.00">
                ReservableRoomId
            </text>
        </g>
        <!-- mrs.domain.model.reservation.reservation.Reservation&#45;&gt;mrs.domain.model.reservation.room.ReservableRoomId -->
        <g id="edge32" class="edge">
            <title>mrs.domain.model.reservation.reservation.Reservation&#45;&gt;mrs.domain.model.reservation.room.ReservableRoomId</title>
            <path fill="none" stroke="black"
                  d="M1133.77,-267.31C1160.83,-258.46 1195.95,-244.47 1223,-225 1244.48,-209.54 1242.68,-198.09 1262,-180 1270.45,-172.08 1280.2,-164.2 1289.43,-157.21"/>
            <polygon fill="black" stroke="black"
                     points="1291.75,-159.84 1297.7,-151.07 1287.58,-154.22 1291.75,-159.84"/>
        </g>
        <!-- mrs.domain.model.reservation.reservation.ReservationList -->
        <g id="node17" class="node">
            <title>mrs.domain.model.reservation.reservation.ReservationList</title>
            <polygon fill="#eedd82" stroke="black" points="1184,-384 1080,-384 1080,-346 1184,-346 1184,-384"/>
            <text text-anchor="middle" x="1132" y="-368.8" font-family="Times New Roman,serif" font-size="14.00">予約一覧
            </text>
            <text text-anchor="middle" x="1132" y="-353.8" font-family="Times New Roman,serif" font-size="14.00">
                ReservationList
            </text>
        </g>
        <!-- mrs.domain.model.reservation.reservation.ReservationList&#45;&gt;mrs.domain.model.reservation.reservation.Reservation -->
        <g id="edge33" class="edge">
            <title>mrs.domain.model.reservation.reservation.ReservationList&#45;&gt;mrs.domain.model.reservation.reservation.Reservation</title>
            <path fill="none" stroke="black" d="M1123.32,-345.99C1118.01,-334.97 1111.11,-320.66 1105.14,-308.27"/>
            <polygon fill="black" stroke="black" points="1108.3,-306.75 1100.8,-299.26 1101.99,-309.79 1108.3,-306.75"/>
        </g>
        <!-- mrs.domain.model.reservation.reservation.ReservedDate -->
        <g id="node18" class="node">
            <title>mrs.domain.model.reservation.reservation.ReservedDate</title>
            <polygon fill="#eedd82" stroke="black" points="1213.5,-77 1118.5,-77 1118.5,-39 1213.5,-39 1213.5,-77"/>
            <text text-anchor="middle" x="1166" y="-61.8" font-family="Times New Roman,serif" font-size="14.00">予約日
            </text>
            <text text-anchor="middle" x="1166" y="-46.8" font-family="Times New Roman,serif" font-size="14.00">
                ReservedDate
            </text>
        </g>
        <!-- mrs.domain.model.reservation.room.ReservableRoom&#45;&gt;mrs.domain.model.property.room.MeetingRoom -->
        <g id="edge34" class="edge">
            <title>mrs.domain.model.reservation.room.ReservableRoom&#45;&gt;mrs.domain.model.property.room.MeetingRoom
            </title>
            <path fill="none" stroke="black" d="M1369.63,-225.16C1387.84,-234.67 1411.34,-246.4 1432.33,-256.48"/>
            <polygon fill="black" stroke="black"
                     points="1430.93,-259.68 1441.46,-260.83 1433.94,-253.37 1430.93,-259.68"/>
        </g>
        <!-- mrs.domain.model.reservation.room.ReservableRoom&#45;&gt;mrs.domain.model.reservation.reservation.Reservation -->
        <g id="edge35" class="edge">
            <title>mrs.domain.model.reservation.room.ReservableRoom&#45;&gt;mrs.domain.model.reservation.reservation.Reservation</title>
            <path fill="none" stroke="black" d="M1271.24,-225.02C1230.81,-236.48 1180.33,-251.21 1143.22,-262.38"/>
            <polygon fill="black" stroke="black"
                     points="1142.16,-259.04 1133.61,-265.29 1144.19,-265.74 1142.16,-259.04"/>
        </g>
        <!-- mrs.domain.model.reservation.room.ReservableRoom&#45;&gt;mrs.domain.model.reservation.room.ReservableRoomId -->
        <g id="edge36" class="edge">
            <title>mrs.domain.model.reservation.room.ReservableRoom&#45;&gt;mrs.domain.model.reservation.room.ReservableRoomId</title>
            <path fill="none" stroke="black" d="M1335.21,-186.83C1333.61,-179.13 1331.7,-169.97 1329.92,-161.42"/>
            <polygon fill="black" stroke="black"
                     points="1333.3,-160.49 1327.84,-151.41 1326.45,-161.92 1333.3,-160.49"/>
        </g>
        <!-- mrs.domain.model.reservation.room.ReservableRoomId&#45;&gt;mrs.domain.model.property.room.RoomId -->
        <g id="edge37" class="edge">
            <title>mrs.domain.model.reservation.room.ReservableRoomId&#45;&gt;mrs.domain.model.property.room.RoomId
            </title>
            <path fill="none" stroke="black" d="M1364.88,-112.83C1386.55,-103.2 1413.34,-91.29 1436.21,-81.13"/>
            <polygon fill="black" stroke="black" points="1437.7,-84.3 1445.41,-77.04 1434.85,-77.9 1437.7,-84.3"/>
        </g>
        <!-- mrs.domain.model.reservation.room.ReservableRoomId&#45;&gt;mrs.domain.model.reservation.reservation.ReservedDate -->
        <g id="edge38" class="edge">
            <title>mrs.domain.model.reservation.room.ReservableRoomId&#45;&gt;mrs.domain.model.reservation.reservation.ReservedDate</title>
            <path fill="none" stroke="black" d="M1284.13,-112.83C1263.09,-103.24 1237.1,-91.4 1214.86,-81.27"/>
            <polygon fill="black" stroke="black" points="1216.13,-78 1205.58,-77.04 1213.23,-84.37 1216.13,-78"/>
        </g>
        <!-- mrs.domain.model.reservation.room.ReservableRoomList -->
        <g id="node22" class="node">
            <title>mrs.domain.model.reservation.room.ReservableRoomList</title>
            <polygon fill="#eedd82" stroke="black" points="1410,-299 1238,-299 1238,-261 1410,-261 1410,-299"/>
            <text text-anchor="middle" x="1324" y="-283.8" font-family="Times New Roman,serif" font-size="14.00">
                予約可能会議室一覧
            </text>
            <text text-anchor="middle" x="1324" y="-268.8" font-family="Times New Roman,serif" font-size="14.00">
                ReservableRoomList
            </text>
        </g>
        <!-- mrs.domain.model.reservation.room.ReservableRoomList&#45;&gt;mrs.domain.model.reservation.room.ReservableRoom -->
        <g id="edge39" class="edge">
            <title>mrs.domain.model.reservation.room.ReservableRoomList&#45;&gt;mrs.domain.model.reservation.room.ReservableRoom</title>
            <path fill="none" stroke="black" d="M1327.79,-260.83C1329.39,-253.13 1331.3,-243.97 1333.08,-235.42"/>
            <polygon fill="black" stroke="black"
                     points="1336.55,-235.92 1335.16,-225.41 1329.7,-234.49 1336.55,-235.92"/>
        </g>
    </g>
</svg>
