<?xml version="1.0" encoding="UTF-8" standalone="no"?>
<!DOCTYPE svg PUBLIC "-//W3C//DTD SVG 1.1//EN"
        "http://www.w3.org/Graphics/SVG/1.1/DTD/svg11.dtd">
<!-- Generated by graphviz version 3.0.0 (20220226.1711)
 -->
<!-- Title: 集中ビジネスルールツリー図 Pages: 1 -->
<svg width="732pt" height="308pt"
     viewBox="0.00 0.00 732.00 308.00" xmlns="http://www.w3.org/2000/svg">
    <g id="graph0" class="graph" transform="scale(1 1) rotate(0) translate(4 304)">
        <title>集中ビジネスルールツリー図</title>
        <polygon fill="white" stroke="transparent" points="-4,4 -4,-304 728,-304 728,4 -4,4"/>
        <text text-anchor="middle" x="362" y="-7.8" font-family="Times New Roman,serif" font-size="14.00">
            集中ビジネスルールツリー図
        </text>
        <!-- mrs.domain.model.reservation.Reservation -->
        <g id="node1" class="node">
            <title>mrs.domain.model.reservation.Reservation</title>
            <polygon fill="lemonchiffon" stroke="black" points="114.5,-190 31.5,-190 31.5,-152 114.5,-152 114.5,-190"/>
            <text text-anchor="middle" x="73" y="-174.8" font-family="Times New Roman,serif" font-size="14.00">予約</text>
            <text text-anchor="middle" x="73" y="-159.8" font-family="Times New Roman,serif" font-size="14.00">
                Reservation
            </text>
        </g>
        <!-- mrs.domain.model.room.ReservableRoom -->
        <g id="node3" class="node">
            <title>mrs.domain.model.room.ReservableRoom</title>
            <polygon fill="#eedd82" stroke="black" points="419,-273 182,-273 182,-199 419,-199 419,-273"/>
            <text text-anchor="middle" x="300.5" y="-245" font-family="Times New Roman,serif" font-size="30.00">
                予約可能会議室
            </text>
            <text text-anchor="middle" x="300.5" y="-212" font-family="Times New Roman,serif" font-size="30.00">
                ReservableRoom
            </text>
        </g>
        <!-- mrs.domain.model.reservation.Reservation&#45;&gt;mrs.domain.model.room.ReservableRoom -->
        <g id="edge1" class="edge">
            <title>mrs.domain.model.reservation.Reservation&#45;&gt;mrs.domain.model.room.ReservableRoom</title>
            <path fill="none" stroke="black" d="M114.58,-182.7C131.18,-187.48 151.39,-193.31 172.27,-199.33"/>
            <polygon fill="black" stroke="black" points="171.32,-202.69 181.9,-202.1 173.26,-195.97 171.32,-202.69"/>
        </g>
        <!-- mrs.domain.model.room.ReservableRoomId -->
        <g id="node4" class="node">
            <title>mrs.domain.model.room.ReservableRoomId</title>
            <polygon fill="#eedd82" stroke="black" points="724,-208 455,-208 455,-134 724,-134 724,-208"/>
            <text text-anchor="middle" x="589.5" y="-180" font-family="Times New Roman,serif" font-size="30.00">
                予約可能会議室ID
            </text>
            <text text-anchor="middle" x="589.5" y="-147" font-family="Times New Roman,serif" font-size="30.00">
                ReservableRoomId
            </text>
        </g>
        <!-- mrs.domain.model.reservation.Reservation&#45;&gt;mrs.domain.model.room.ReservableRoomId -->
        <g id="edge2" class="edge">
            <title>mrs.domain.model.reservation.Reservation&#45;&gt;mrs.domain.model.room.ReservableRoomId</title>
            <path fill="none" stroke="black" d="M114.8,-171C185.28,-171 333.03,-171 444.9,-171"/>
            <polygon fill="black" stroke="black" points="444.92,-174.5 454.92,-171 444.92,-167.5 444.92,-174.5"/>
        </g>
        <!-- mrs.domain.model.user.User -->
        <g id="node7" class="node">
            <title>mrs.domain.model.user.User</title>
            <polygon fill="#eedd82" stroke="black" points="356,-143 245,-143 245,-69 356,-69 356,-143"/>
            <text text-anchor="middle" x="300.5" y="-115" font-family="Times New Roman,serif" font-size="30.00">利用者
            </text>
            <text text-anchor="middle" x="300.5" y="-82" font-family="Times New Roman,serif" font-size="30.00">User
            </text>
        </g>
        <!-- mrs.domain.model.reservation.Reservation&#45;&gt;mrs.domain.model.user.User -->
        <g id="edge4" class="edge">
            <title>mrs.domain.model.reservation.Reservation&#45;&gt;mrs.domain.model.user.User</title>
            <path fill="none" stroke="black" d="M114.58,-159.3C148.12,-149.63 196.38,-135.72 235.19,-124.54"/>
            <polygon fill="black" stroke="black" points="236.2,-127.89 244.83,-121.76 234.26,-121.16 236.2,-127.89"/>
        </g>
        <!-- mrs.domain.model.room.MeetingRoom -->
        <g id="node2" class="node">
            <title>mrs.domain.model.room.MeetingRoom</title>
            <polygon fill="#eedd82" stroke="black" points="683.5,-300 495.5,-300 495.5,-226 683.5,-226 683.5,-300"/>
            <text text-anchor="middle" x="589.5" y="-272" font-family="Times New Roman,serif" font-size="30.00">会議室
            </text>
            <text text-anchor="middle" x="589.5" y="-239" font-family="Times New Roman,serif" font-size="30.00">
                MeetingRoom
            </text>
        </g>
        <!-- mrs.domain.model.room.ReservableRoom&#45;&gt;mrs.domain.model.room.MeetingRoom -->
        <g id="edge6" class="edge">
            <title>mrs.domain.model.room.ReservableRoom&#45;&gt;mrs.domain.model.room.MeetingRoom</title>
            <path fill="none" stroke="black" d="M419.06,-247.06C440.98,-249.12 463.73,-251.26 485.18,-253.28"/>
            <polygon fill="black" stroke="black" points="484.98,-256.78 495.26,-254.23 485.64,-249.81 484.98,-256.78"/>
        </g>
        <!-- mrs.domain.model.room.ReservableRoom&#45;&gt;mrs.domain.model.room.ReservableRoomId -->
        <g id="edge3" class="edge">
            <title>mrs.domain.model.room.ReservableRoom&#45;&gt;mrs.domain.model.room.ReservableRoomId</title>
            <path fill="none" stroke="black" d="M419.06,-209.37C427.61,-207.44 436.29,-205.47 444.96,-203.51"/>
            <polygon fill="black" stroke="black" points="445.77,-206.91 454.75,-201.29 444.22,-200.09 445.77,-206.91"/>
        </g>
        <!-- mrs.domain.model.user.ReservationUserDetails -->
        <g id="node5" class="node">
            <title>mrs.domain.model.user.ReservationUserDetails</title>
            <polygon fill="lemonchiffon" stroke="black" points="146,-93 0,-93 0,-55 146,-55 146,-93"/>
            <text text-anchor="middle" x="73" y="-77.8" font-family="Times New Roman,serif" font-size="14.00">認証済み利用者
            </text>
            <text text-anchor="middle" x="73" y="-62.8" font-family="Times New Roman,serif" font-size="14.00">
                ReservationUserDetails
            </text>
        </g>
        <!-- mrs.domain.model.user.RoleName -->
        <g id="node6" class="node">
            <title>mrs.domain.model.user.RoleName</title>
            <polygon fill="#eedd82" stroke="black" points="676.5,-97 502.5,-97 502.5,-23 676.5,-23 676.5,-97"/>
            <text text-anchor="middle" x="589.5" y="-69" font-family="Times New Roman,serif" font-size="30.00">利用者区分
            </text>
            <text text-anchor="middle" x="589.5" y="-36" font-family="Times New Roman,serif" font-size="30.00">
                RoleName
            </text>
        </g>
        <!-- mrs.domain.model.user.ReservationUserDetails&#45;&gt;mrs.domain.model.user.RoleName -->
        <g id="edge7" class="edge">
            <title>mrs.domain.model.user.ReservationUserDetails&#45;&gt;mrs.domain.model.user.RoleName</title>
            <path fill="none" stroke="black"
                  d="M146.2,-63.33C158.14,-61.95 170.4,-60.75 182,-60 287.97,-53.16 409.81,-54.36 492.25,-56.51"/>
            <polygon fill="black" stroke="black" points="492.26,-60.01 502.36,-56.79 492.45,-53.02 492.26,-60.01"/>
        </g>
        <!-- mrs.domain.model.user.ReservationUserDetails&#45;&gt;mrs.domain.model.user.User -->
        <g id="edge5" class="edge">
            <title>mrs.domain.model.user.ReservationUserDetails&#45;&gt;mrs.domain.model.user.User</title>
            <path fill="none" stroke="black" d="M146.28,-84.26C174.73,-88.29 207.15,-92.9 234.82,-96.82"/>
            <polygon fill="black" stroke="black" points="234.39,-100.3 244.78,-98.24 235.37,-93.36 234.39,-100.3"/>
        </g>
        <!-- mrs.domain.model.user.User&#45;&gt;mrs.domain.model.user.RoleName -->
        <g id="edge8" class="edge">
            <title>mrs.domain.model.user.User&#45;&gt;mrs.domain.model.user.RoleName</title>
            <path fill="none" stroke="black" d="M356.16,-97.24C394.56,-91.08 446.97,-82.68 492.28,-75.42"/>
            <polygon fill="black" stroke="black" points="493.12,-78.83 502.44,-73.79 492.01,-71.92 493.12,-78.83"/>
        </g>
    </g>
</svg>
