<?xml version="1.0" encoding="UTF-8" standalone="no"?>
<!DOCTYPE svg PUBLIC "-//W3C//DTD SVG 1.1//EN"
        "http://www.w3.org/Graphics/SVG/1.1/DTD/svg11.dtd">
<!-- Generated by graphviz version 3.0.0 (20220226.1711)
 -->
<!-- Title: ビジネスルール関連図 Pages: 1 -->
<svg width="888pt" height="423pt"
     viewBox="0.00 0.00 888.00 423.00" xmlns="http://www.w3.org/2000/svg">
    <g id="graph0" class="graph" transform="scale(1 1) rotate(0) translate(4 419)">
        <title>ビジネスルール関連図</title>
        <polygon fill="white" stroke="transparent" points="-4,4 -4,-419 884,-419 884,4 -4,4"/>
        <text text-anchor="middle" x="440" y="-7.8" font-family="Times New Roman,serif" font-size="14.00">ビジネスルール関連図
        </text>
        <g id="clust1" class="cluster">
            <title>cluster_mrs.domain.model.reservation.reservation</title>
            <polygon fill="lemonchiffon" stroke="#eedd82" stroke-width="2"
                     points="318,-179 318,-407 546,-407 546,-179 318,-179"/>
            <text text-anchor="middle" x="432" y="-391.8" font-family="Times New Roman,serif" font-size="14.00">
                reservation.reservation
            </text>
        </g>
        <g id="clust2" class="cluster">
            <title>cluster_mrs.domain.model.reservation.room</title>
            <polygon fill="lemonchiffon" stroke="#eedd82" stroke-width="2"
                     points="8,-31 8,-330 310,-330 310,-31 8,-31"/>
            <text text-anchor="middle" x="159" y="-314.8" font-family="Times New Roman,serif" font-size="14.00">
                reservation.room
            </text>
        </g>
        <g id="clust3" class="cluster">
            <title>cluster_mrs.domain.model.user</title>
            <polygon fill="lemonchiffon" stroke="#eedd82" stroke-width="2"
                     points="554,-105 554,-330 872,-330 872,-105 554,-105"/>
            <text text-anchor="middle" x="713" y="-314.8" font-family="Times New Roman,serif" font-size="14.00">user
            </text>
        </g>
        <!-- mrs.domain.model.reservation.reservation.Reservation -->
        <g id="node1" class="node">
            <title>mrs.domain.model.reservation.reservation.Reservation</title>
            <polygon fill="#eedd82" stroke="black" points="417.5,-299 334.5,-299 334.5,-261 417.5,-261 417.5,-299"/>
            <text text-anchor="middle" x="376" y="-283.8" font-family="Times New Roman,serif" font-size="14.00">予約
            </text>
            <text text-anchor="middle" x="376" y="-268.8" font-family="Times New Roman,serif" font-size="14.00">
                Reservation
            </text>
        </g>
        <!-- mrs.domain.model.reservation.reservation.ReservationId -->
        <g id="node2" class="node">
            <title>mrs.domain.model.reservation.reservation.ReservationId</title>
            <polygon fill="#eedd82" stroke="black" points="421.5,-225 326.5,-225 326.5,-187 421.5,-187 421.5,-225"/>
            <text text-anchor="middle" x="374" y="-209.8" font-family="Times New Roman,serif" font-size="14.00">予約番号
            </text>
            <text text-anchor="middle" x="374" y="-194.8" font-family="Times New Roman,serif" font-size="14.00">
                ReservationId
            </text>
        </g>
        <!-- mrs.domain.model.reservation.reservation.Reservation&#45;&gt;mrs.domain.model.reservation.reservation.ReservationId -->
        <g id="edge1" class="edge">
            <title>mrs.domain.model.reservation.reservation.Reservation&#45;&gt;mrs.domain.model.reservation.reservation.ReservationId</title>
            <path fill="none" stroke="black" d="M375.5,-260.83C375.28,-253.13 375.03,-243.97 374.79,-235.42"/>
            <polygon fill="black" stroke="black" points="378.29,-235.31 374.51,-225.41 371.29,-235.51 378.29,-235.31"/>
        </g>
        <!-- mrs.domain.model.reservation.reservation.ReservedTime -->
        <g id="node4" class="node">
            <title>mrs.domain.model.reservation.reservation.ReservedTime</title>
            <polygon fill="#eedd82" stroke="black" points="538,-225 440,-225 440,-187 538,-187 538,-225"/>
            <text text-anchor="middle" x="489" y="-209.8" font-family="Times New Roman,serif" font-size="14.00">予約時間
            </text>
            <text text-anchor="middle" x="489" y="-194.8" font-family="Times New Roman,serif" font-size="14.00">
                ReservedTime
            </text>
        </g>
        <!-- mrs.domain.model.reservation.reservation.Reservation&#45;&gt;mrs.domain.model.reservation.reservation.ReservedTime -->
        <g id="edge2" class="edge">
            <title>mrs.domain.model.reservation.reservation.Reservation&#45;&gt;mrs.domain.model.reservation.reservation.ReservedTime</title>
            <path fill="none" stroke="black" d="M404.51,-260.83C418.83,-251.71 436.36,-240.54 451.73,-230.74"/>
            <polygon fill="black" stroke="black" points="453.94,-233.49 460.49,-225.16 450.18,-227.58 453.94,-233.49"/>
        </g>
        <!-- mrs.domain.model.reservation.room.ReservableRoom -->
        <g id="node6" class="node">
            <title>mrs.domain.model.reservation.room.ReservableRoom</title>
            <polygon fill="#eedd82" stroke="black" points="259.5,-225 122.5,-225 122.5,-187 259.5,-187 259.5,-225"/>
            <text text-anchor="middle" x="191" y="-209.8" font-family="Times New Roman,serif" font-size="14.00">
                予約可能会議室
            </text>
            <text text-anchor="middle" x="191" y="-194.8" font-family="Times New Roman,serif" font-size="14.00">
                ReservableRoom
            </text>
        </g>
        <!-- mrs.domain.model.reservation.reservation.Reservation&#45;&gt;mrs.domain.model.reservation.room.ReservableRoom -->
        <g id="edge3" class="edge">
            <title>mrs.domain.model.reservation.reservation.Reservation&#45;&gt;mrs.domain.model.reservation.room.ReservableRoom</title>
            <path fill="none" stroke="black" d="M335.27,-260.83C311.04,-251.03 279.9,-238.87 252.72,-228.59"/>
            <polygon fill="black" stroke="black" points="253.88,-225.29 243.29,-225.04 251.41,-231.84 253.88,-225.29"/>
        </g>
        <!-- mrs.domain.model.reservation.room.ReservableRoomId -->
        <g id="node7" class="node">
            <title>mrs.domain.model.reservation.room.ReservableRoomId</title>
            <polygon fill="#eedd82" stroke="black" points="267,-151 115,-151 115,-113 267,-113 267,-151"/>
            <text text-anchor="middle" x="191" y="-135.8" font-family="Times New Roman,serif" font-size="14.00">
                予約可能会議室ID
            </text>
            <text text-anchor="middle" x="191" y="-120.8" font-family="Times New Roman,serif" font-size="14.00">
                ReservableRoomId
            </text>
        </g>
        <!-- mrs.domain.model.reservation.reservation.Reservation&#45;&gt;mrs.domain.model.reservation.room.ReservableRoomId -->
        <g id="edge4" class="edge">
            <title>mrs.domain.model.reservation.reservation.Reservation&#45;&gt;mrs.domain.model.reservation.room.ReservableRoomId</title>
            <path fill="none" stroke="black"
                  d="M356.38,-260.77C345.14,-250.32 330.76,-236.93 318,-225 296.18,-204.6 292.9,-196.92 269,-179 258.17,-170.88 245.81,-163.03 234.17,-156.17"/>
            <polygon fill="black" stroke="black" points="235.86,-153.1 225.45,-151.13 232.36,-159.16 235.86,-153.1"/>
        </g>
        <!-- mrs.domain.model.user.User -->
        <g id="node12" class="node">
            <title>mrs.domain.model.user.User</title>
            <polygon fill="#eedd82" stroke="black" points="703,-225 649,-225 649,-187 703,-187 703,-225"/>
            <text text-anchor="middle" x="676" y="-209.8" font-family="Times New Roman,serif" font-size="14.00">会員
            </text>
            <text text-anchor="middle" x="676" y="-194.8" font-family="Times New Roman,serif" font-size="14.00">User
            </text>
        </g>
        <!-- mrs.domain.model.reservation.reservation.Reservation&#45;&gt;mrs.domain.model.user.User -->
        <g id="edge5" class="edge">
            <title>mrs.domain.model.reservation.reservation.Reservation&#45;&gt;mrs.domain.model.user.User</title>
            <path fill="none" stroke="black" d="M417.72,-270.1C476.55,-256.64 582.69,-231.18 638.91,-217.07"/>
            <polygon fill="black" stroke="black" points="639.96,-220.41 648.8,-214.57 638.25,-213.62 639.96,-220.41"/>
        </g>
        <!-- mrs.domain.model.reservation.reservation.ReservationList -->
        <g id="node3" class="node">
            <title>mrs.domain.model.reservation.reservation.ReservationList</title>
            <polygon fill="#eedd82" stroke="black" points="430,-376 326,-376 326,-338 430,-338 430,-376"/>
            <text text-anchor="middle" x="378" y="-360.8" font-family="Times New Roman,serif" font-size="14.00">予約一覧
            </text>
            <text text-anchor="middle" x="378" y="-345.8" font-family="Times New Roman,serif" font-size="14.00">
                ReservationList
            </text>
        </g>
        <!-- mrs.domain.model.reservation.reservation.ReservationList&#45;&gt;mrs.domain.model.reservation.reservation.Reservation -->
        <g id="edge6" class="edge">
            <title>mrs.domain.model.reservation.reservation.ReservationList&#45;&gt;mrs.domain.model.reservation.reservation.Reservation</title>
            <path fill="none" stroke="black" d="M377.52,-337.84C377.29,-329.34 377.01,-319.01 376.76,-309.5"/>
            <polygon fill="black" stroke="black" points="380.25,-309.15 376.49,-299.25 373.25,-309.34 380.25,-309.15"/>
        </g>
        <!-- mrs.domain.model.reservation.room.MeetingRoom -->
        <g id="node5" class="node">
            <title>mrs.domain.model.reservation.room.MeetingRoom</title>
            <polygon fill="#eedd82" stroke="black" points="112,-299 16,-299 16,-261 112,-261 112,-299"/>
            <text text-anchor="middle" x="64" y="-283.8" font-family="Times New Roman,serif" font-size="14.00">会議室
            </text>
            <text text-anchor="middle" x="64" y="-268.8" font-family="Times New Roman,serif" font-size="14.00">
                MeetingRoom
            </text>
        </g>
        <!-- mrs.domain.model.reservation.room.MeetingRoom&#45;&gt;mrs.domain.model.reservation.room.ReservableRoom -->
        <g id="edge7" class="edge">
            <title>mrs.domain.model.reservation.room.MeetingRoom&#45;&gt;mrs.domain.model.reservation.room.ReservableRoom</title>
            <path fill="none" stroke="black" d="M90.1,-260.83C105.58,-251.54 125.59,-240.12 143.73,-230.2"/>
            <polygon fill="black" stroke="black" points="145.89,-233.01 153.01,-225.16 142.55,-226.85 145.89,-233.01"/>
        </g>
        <!-- mrs.domain.model.reservation.room.RoomId -->
        <g id="node10" class="node">
            <title>mrs.domain.model.reservation.room.RoomId</title>
            <polygon fill="#eedd82" stroke="black" points="123.5,-77 20.5,-77 20.5,-39 123.5,-39 123.5,-77"/>
            <text text-anchor="middle" x="72" y="-61.8" font-family="Times New Roman,serif" font-size="14.00">会議室番号
            </text>
            <text text-anchor="middle" x="72" y="-46.8" font-family="Times New Roman,serif" font-size="14.00">RoomId
            </text>
        </g>
        <!-- mrs.domain.model.reservation.room.MeetingRoom&#45;&gt;mrs.domain.model.reservation.room.RoomId -->
        <g id="edge8" class="edge">
            <title>mrs.domain.model.reservation.room.MeetingRoom&#45;&gt;mrs.domain.model.reservation.room.RoomId
            </title>
            <path fill="none" stroke="black" d="M64.65,-261C66.04,-222.8 69.29,-133.41 70.97,-87.43"/>
            <polygon fill="black" stroke="black" points="74.47,-87.37 71.34,-77.25 67.48,-87.12 74.47,-87.37"/>
        </g>
        <!-- mrs.domain.model.reservation.room.ReservableRoom&#45;&gt;mrs.domain.model.reservation.reservation.Reservation -->
        <g id="edge9" class="edge">
            <title>mrs.domain.model.reservation.room.ReservableRoom&#45;&gt;mrs.domain.model.reservation.reservation.Reservation</title>
            <path fill="none" stroke="black" d="M231.61,-225.12C259.02,-236.21 295.33,-250.34 324.73,-261.34"/>
            <polygon fill="black" stroke="black" points="323.82,-264.74 334.41,-264.95 326.26,-258.18 323.82,-264.74"/>
        </g>
        <!-- mrs.domain.model.reservation.room.ReservableRoom&#45;&gt;mrs.domain.model.reservation.room.MeetingRoom -->
        <g id="edge10" class="edge">
            <title>mrs.domain.model.reservation.room.ReservableRoom&#45;&gt;mrs.domain.model.reservation.room.MeetingRoom</title>
            <path fill="none" stroke="black" d="M164.91,-225.16C149.43,-234.46 129.43,-245.87 111.28,-255.8"/>
            <polygon fill="black" stroke="black" points="109.12,-252.99 102,-260.83 112.46,-259.14 109.12,-252.99"/>
        </g>
        <!-- mrs.domain.model.reservation.room.ReservableRoom&#45;&gt;mrs.domain.model.reservation.room.ReservableRoomId -->
        <g id="edge11" class="edge">
            <title>mrs.domain.model.reservation.room.ReservableRoom&#45;&gt;mrs.domain.model.reservation.room.ReservableRoomId</title>
            <path fill="none" stroke="black" d="M191,-186.83C191,-179.13 191,-169.97 191,-161.42"/>
            <polygon fill="black" stroke="black" points="194.5,-161.41 191,-151.41 187.5,-161.41 194.5,-161.41"/>
        </g>
        <!-- mrs.domain.model.reservation.room.ReservedDate -->
        <g id="node9" class="node">
            <title>mrs.domain.model.reservation.room.ReservedDate</title>
            <polygon fill="#eedd82" stroke="black" points="238.5,-77 143.5,-77 143.5,-39 238.5,-39 238.5,-77"/>
            <text text-anchor="middle" x="191" y="-61.8" font-family="Times New Roman,serif" font-size="14.00">予約日
            </text>
            <text text-anchor="middle" x="191" y="-46.8" font-family="Times New Roman,serif" font-size="14.00">
                ReservedDate
            </text>
        </g>
        <!-- mrs.domain.model.reservation.room.ReservableRoomId&#45;&gt;mrs.domain.model.reservation.room.ReservedDate -->
        <g id="edge12" class="edge">
            <title>mrs.domain.model.reservation.room.ReservableRoomId&#45;&gt;mrs.domain.model.reservation.room.ReservedDate</title>
            <path fill="none" stroke="black" d="M191,-112.83C191,-105.13 191,-95.97 191,-87.42"/>
            <polygon fill="black" stroke="black" points="194.5,-87.41 191,-77.41 187.5,-87.41 194.5,-87.41"/>
        </g>
        <!-- mrs.domain.model.reservation.room.ReservableRoomId&#45;&gt;mrs.domain.model.reservation.room.RoomId -->
        <g id="edge13" class="edge">
            <title>mrs.domain.model.reservation.room.ReservableRoomId&#45;&gt;mrs.domain.model.reservation.room.RoomId
            </title>
            <path fill="none" stroke="black" d="M160.97,-112.83C145.75,-103.62 127.09,-92.33 110.79,-82.47"/>
            <polygon fill="black" stroke="black" points="112.39,-79.34 102.02,-77.16 108.76,-85.33 112.39,-79.34"/>
        </g>
        <!-- mrs.domain.model.reservation.room.ReservableRoomList -->
        <g id="node8" class="node">
            <title>mrs.domain.model.reservation.room.ReservableRoomList</title>
            <polygon fill="#eedd82" stroke="black" points="302,-299 130,-299 130,-261 302,-261 302,-299"/>
            <text text-anchor="middle" x="216" y="-283.8" font-family="Times New Roman,serif" font-size="14.00">
                予約可能会議室一覧
            </text>
            <text text-anchor="middle" x="216" y="-268.8" font-family="Times New Roman,serif" font-size="14.00">
                ReservableRoomList
            </text>
        </g>
        <!-- mrs.domain.model.reservation.room.ReservableRoomList&#45;&gt;mrs.domain.model.reservation.room.ReservableRoom -->
        <g id="edge14" class="edge">
            <title>mrs.domain.model.reservation.room.ReservableRoomList&#45;&gt;mrs.domain.model.reservation.room.ReservableRoom</title>
            <path fill="none" stroke="black" d="M209.69,-260.83C206.99,-253.05 203.77,-243.77 200.77,-235.13"/>
            <polygon fill="black" stroke="black" points="203.98,-233.71 197.39,-225.41 197.37,-236.01 203.98,-233.71"/>
        </g>
        <!-- mrs.domain.model.user.RoleName -->
        <g id="node11" class="node">
            <title>mrs.domain.model.user.RoleName</title>
            <polygon fill="#eedd82" stroke="black" points="863.5,-151 760.5,-151 760.5,-113 863.5,-113 863.5,-151"/>
            <text text-anchor="middle" x="812" y="-135.8" font-family="Times New Roman,serif" font-size="14.00">利用者区分
            </text>
            <text text-anchor="middle" x="812" y="-120.8" font-family="Times New Roman,serif" font-size="14.00">
                RoleName
            </text>
        </g>
        <!-- mrs.domain.model.user.User&#45;&gt;mrs.domain.model.reservation.reservation.Reservation -->
        <g id="edge15" class="edge">
            <title>mrs.domain.model.user.User&#45;&gt;mrs.domain.model.reservation.reservation.Reservation</title>
            <path fill="none" stroke="black" d="M648.75,-212.62C598.7,-223.85 491.89,-249.36 427.73,-265.28"/>
            <polygon fill="black" stroke="black" points="426.67,-261.94 417.81,-267.75 428.36,-268.73 426.67,-261.94"/>
        </g>
        <!-- mrs.domain.model.user.User&#45;&gt;mrs.domain.model.user.RoleName -->
        <g id="edge16" class="edge">
            <title>mrs.domain.model.user.User&#45;&gt;mrs.domain.model.user.RoleName</title>
            <path fill="none" stroke="black" d="M703.19,-190.6C721.98,-180.66 747.37,-167.22 768.89,-155.82"/>
            <polygon fill="black" stroke="black" points="770.65,-158.85 777.85,-151.08 767.37,-152.67 770.65,-158.85"/>
        </g>
        <!-- mrs.domain.model.user.UserId -->
        <g id="node14" class="node">
            <title>mrs.domain.model.user.UserId</title>
            <polygon fill="#eedd82" stroke="black" points="742,-151 656,-151 656,-113 742,-113 742,-151"/>
            <text text-anchor="middle" x="699" y="-135.8" font-family="Times New Roman,serif" font-size="14.00">会員番号
            </text>
            <text text-anchor="middle" x="699" y="-120.8" font-family="Times New Roman,serif" font-size="14.00">UserId
            </text>
        </g>
        <!-- mrs.domain.model.user.User&#45;&gt;mrs.domain.model.user.UserId -->
        <g id="edge17" class="edge">
            <title>mrs.domain.model.user.User&#45;&gt;mrs.domain.model.user.UserId</title>
            <path fill="none" stroke="black" d="M681.8,-186.83C684.29,-179.05 687.25,-169.77 690.01,-161.13"/>
            <polygon fill="black" stroke="black" points="693.41,-162 693.12,-151.41 686.74,-159.87 693.41,-162"/>
        </g>
        <!-- mrs.domain.model.user.UserName -->
        <g id="node15" class="node">
            <title>mrs.domain.model.user.UserName</title>
            <polygon fill="#eedd82" stroke="black" points="637.5,-151 562.5,-151 562.5,-113 637.5,-113 637.5,-151"/>
            <text text-anchor="middle" x="600" y="-135.8" font-family="Times New Roman,serif" font-size="14.00">氏名
            </text>
            <text text-anchor="middle" x="600" y="-120.8" font-family="Times New Roman,serif" font-size="14.00">
                UserName
            </text>
        </g>
        <!-- mrs.domain.model.user.User&#45;&gt;mrs.domain.model.user.UserName -->
        <g id="edge18" class="edge">
            <title>mrs.domain.model.user.User&#45;&gt;mrs.domain.model.user.UserName</title>
            <path fill="none" stroke="black" d="M656.82,-186.83C647.64,-178.13 636.5,-167.58 626.52,-158.13"/>
            <polygon fill="black" stroke="black" points="628.84,-155.5 619.17,-151.16 624.02,-160.58 628.84,-155.5"/>
        </g>
        <!-- mrs.domain.model.user.UserDetailsImpl -->
        <g id="node13" class="node">
            <title>mrs.domain.model.user.UserDetailsImpl</title>
            <polygon fill="#eedd82" stroke="black" points="775,-299 669,-299 669,-261 775,-261 775,-299"/>
            <text text-anchor="middle" x="722" y="-283.8" font-family="Times New Roman,serif" font-size="14.00">利用者
            </text>
            <text text-anchor="middle" x="722" y="-268.8" font-family="Times New Roman,serif" font-size="14.00">
                UserDetailsImpl
            </text>
        </g>
        <!-- mrs.domain.model.user.UserDetailsImpl&#45;&gt;mrs.domain.model.user.RoleName -->
        <g id="edge19" class="edge">
            <title>mrs.domain.model.user.UserDetailsImpl&#45;&gt;mrs.domain.model.user.RoleName</title>
            <path fill="none" stroke="black" d="M733.22,-260.8C748.85,-235.45 777.29,-189.31 795.38,-159.95"/>
            <polygon fill="black" stroke="black" points="798.37,-161.77 800.64,-151.43 792.42,-158.1 798.37,-161.77"/>
        </g>
        <!-- mrs.domain.model.user.UserDetailsImpl&#45;&gt;mrs.domain.model.user.User -->
        <g id="edge20" class="edge">
            <title>mrs.domain.model.user.UserDetailsImpl&#45;&gt;mrs.domain.model.user.User</title>
            <path fill="none" stroke="black" d="M710.39,-260.83C705.2,-252.71 698.98,-242.96 693.26,-234.01"/>
            <polygon fill="black" stroke="black" points="696.1,-231.96 687.76,-225.41 690.2,-235.72 696.1,-231.96"/>
        </g>
        <!-- mrs.domain.model.user.UserDetailsImpl&#45;&gt;mrs.domain.model.user.UserId -->
        <g id="edge21" class="edge">
            <title>mrs.domain.model.user.UserDetailsImpl&#45;&gt;mrs.domain.model.user.UserId</title>
            <path fill="none" stroke="black"
                  d="M721.14,-260.8C719.97,-240.65 717.37,-207.28 712,-179 710.9,-173.19 709.4,-167.05 707.82,-161.22"/>
            <polygon fill="black" stroke="black" points="711.06,-159.82 704.93,-151.18 704.33,-161.76 711.06,-159.82"/>
        </g>
    </g>
</svg>
