<?xml version="1.0" encoding="UTF-8" standalone="no"?>
<!DOCTYPE svg PUBLIC "-//W3C//DTD SVG 1.1//EN"
        "http://www.w3.org/Graphics/SVG/1.1/DTD/svg11.dtd">
<!-- Generated by graphviz version 3.0.0 (20220226.1711)
 -->
<!-- Title: 集中ビジネスルールツリー図 Pages: 1 -->
<svg width="1108pt" height="379pt"
     viewBox="0.00 0.00 1108.00 379.00" xmlns="http://www.w3.org/2000/svg">
    <g id="graph0" class="graph" transform="scale(1 1) rotate(0) translate(4 375)">
        <title>集中ビジネスルールツリー図</title>
        <polygon fill="white" stroke="transparent" points="-4,4 -4,-375 1104,-375 1104,4 -4,4"/>
        <text text-anchor="middle" x="550" y="-7.8" font-family="Times New Roman,serif" font-size="14.00">
            集中ビジネスルールツリー図
        </text>
        <!-- mrs.domain.model.reservation.reservation.Reservation -->
        <g id="node1" class="node">
            <title>mrs.domain.model.reservation.reservation.Reservation</title>
            <polygon fill="#eedd82" stroke="black" points="305,-257 147,-257 147,-183 305,-183 305,-257"/>
            <text text-anchor="middle" x="226" y="-229" font-family="Times New Roman,serif" font-size="30.00">予約</text>
            <text text-anchor="middle" x="226" y="-196" font-family="Times New Roman,serif" font-size="30.00">
                Reservation
            </text>
        </g>
        <!-- mrs.domain.model.reservation.room.ReservableRoom -->
        <g id="node4" class="node">
            <title>mrs.domain.model.reservation.room.ReservableRoom</title>
            <polygon fill="#eedd82" stroke="black" points="585,-327 348,-327 348,-253 585,-253 585,-327"/>
            <text text-anchor="middle" x="466.5" y="-299" font-family="Times New Roman,serif" font-size="30.00">
                予約可能会議室
            </text>
            <text text-anchor="middle" x="466.5" y="-266" font-family="Times New Roman,serif" font-size="30.00">
                ReservableRoom
            </text>
        </g>
        <!-- mrs.domain.model.reservation.reservation.Reservation&#45;&gt;mrs.domain.model.reservation.room.ReservableRoom -->
        <g id="edge14" class="edge">
            <title>mrs.domain.model.reservation.reservation.Reservation&#45;&gt;mrs.domain.model.reservation.room.ReservableRoom</title>
            <path fill="none" stroke="black" d="M305.09,-236.54C320.17,-240.68 336.24,-245.28 352.18,-250"/>
            <polygon fill="black" stroke="black" points="351.49,-253.44 362.07,-252.95 353.49,-246.74 351.49,-253.44"/>
        </g>
        <!-- mrs.domain.model.reservation.room.ReservableRoomId -->
        <g id="node5" class="node">
            <title>mrs.domain.model.reservation.room.ReservableRoomId</title>
            <polygon fill="#eedd82" stroke="black" points="890,-327 621,-327 621,-253 890,-253 890,-327"/>
            <text text-anchor="middle" x="755.5" y="-299" font-family="Times New Roman,serif" font-size="30.00">
                予約可能会議室ID
            </text>
            <text text-anchor="middle" x="755.5" y="-266" font-family="Times New Roman,serif" font-size="30.00">
                ReservableRoomId
            </text>
        </g>
        <!-- mrs.domain.model.reservation.reservation.Reservation&#45;&gt;mrs.domain.model.reservation.room.ReservableRoomId -->
        <g id="edge1" class="edge">
            <title>mrs.domain.model.reservation.reservation.Reservation&#45;&gt;mrs.domain.model.reservation.room.ReservableRoomId</title>
            <path fill="none" stroke="black"
                  d="M305.03,-220.79C377.9,-222.58 489.47,-228 585,-244 596.05,-245.85 607.42,-248.12 618.78,-250.64"/>
            <polygon fill="black" stroke="black" points="618.24,-254.11 628.77,-252.93 619.8,-247.28 618.24,-254.11"/>
        </g>
        <!-- mrs.domain.model.user.User -->
        <g id="node9" class="node">
            <title>mrs.domain.model.user.User</title>
            <polygon fill="#eedd82" stroke="black" points="506.5,-197 426.5,-197 426.5,-123 506.5,-123 506.5,-197"/>
            <text text-anchor="middle" x="466.5" y="-169" font-family="Times New Roman,serif" font-size="30.00">会員
            </text>
            <text text-anchor="middle" x="466.5" y="-136" font-family="Times New Roman,serif" font-size="30.00">User
            </text>
        </g>
        <!-- mrs.domain.model.reservation.reservation.Reservation&#45;&gt;mrs.domain.model.user.User -->
        <g id="edge5" class="edge">
            <title>mrs.domain.model.reservation.reservation.Reservation&#45;&gt;mrs.domain.model.user.User</title>
            <path fill="none" stroke="black" d="M305.09,-193.97C341.75,-184.07 384.31,-173.63 416.38,-166.78"/>
            <polygon fill="black" stroke="black" points="417.33,-170.15 426.4,-164.68 415.9,-163.3 417.33,-170.15"/>
        </g>
        <!-- mrs.domain.model.reservation.reservation.ReservationList -->
        <g id="node2" class="node">
            <title>mrs.domain.model.reservation.reservation.ReservationList</title>
            <polygon fill="lemonchiffon" stroke="black" points="104,-239 0,-239 0,-201 104,-201 104,-239"/>
            <text text-anchor="middle" x="52" y="-223.8" font-family="Times New Roman,serif" font-size="14.00">予約一覧
            </text>
            <text text-anchor="middle" x="52" y="-208.8" font-family="Times New Roman,serif" font-size="14.00">
                ReservationList
            </text>
        </g>
        <!-- mrs.domain.model.reservation.reservation.ReservationList&#45;&gt;mrs.domain.model.reservation.reservation.Reservation -->
        <g id="edge11" class="edge">
            <title>mrs.domain.model.reservation.reservation.ReservationList&#45;&gt;mrs.domain.model.reservation.reservation.Reservation</title>
            <path fill="none" stroke="black" d="M104.14,-220C114.45,-220 125.57,-220 136.73,-220"/>
            <polygon fill="black" stroke="black" points="136.98,-223.5 146.98,-220 136.98,-216.5 136.98,-223.5"/>
        </g>
        <!-- mrs.domain.model.reservation.room.MeetingRoom -->
        <g id="node3" class="node">
            <title>mrs.domain.model.reservation.room.MeetingRoom</title>
            <polygon fill="lemonchiffon" stroke="black" points="274,-371 178,-371 178,-333 274,-333 274,-371"/>
            <text text-anchor="middle" x="226" y="-355.8" font-family="Times New Roman,serif" font-size="14.00">会議室
            </text>
            <text text-anchor="middle" x="226" y="-340.8" font-family="Times New Roman,serif" font-size="14.00">
                MeetingRoom
            </text>
        </g>
        <!-- mrs.domain.model.reservation.room.MeetingRoom&#45;&gt;mrs.domain.model.reservation.room.ReservableRoom -->
        <g id="edge15" class="edge">
            <title>mrs.domain.model.reservation.room.MeetingRoom&#45;&gt;mrs.domain.model.reservation.room.ReservableRoom</title>
            <path fill="none" stroke="black" d="M274.12,-339.75C292.77,-334.9 315.19,-329.07 338.01,-323.14"/>
            <polygon fill="black" stroke="black" points="339.01,-326.5 347.81,-320.59 337.25,-319.72 339.01,-326.5"/>
        </g>
        <!-- mrs.domain.model.reservation.room.RoomId -->
        <g id="node7" class="node">
            <title>mrs.domain.model.reservation.room.RoomId</title>
            <polygon fill="#eedd82" stroke="black" points="1100,-359 926,-359 926,-285 1100,-285 1100,-359"/>
            <text text-anchor="middle" x="1013" y="-331" font-family="Times New Roman,serif" font-size="30.00">会議室番号
            </text>
            <text text-anchor="middle" x="1013" y="-298" font-family="Times New Roman,serif" font-size="30.00">RoomId
            </text>
        </g>
        <!-- mrs.domain.model.reservation.room.MeetingRoom&#45;&gt;mrs.domain.model.reservation.room.RoomId -->
        <g id="edge9" class="edge">
            <title>mrs.domain.model.reservation.room.MeetingRoom&#45;&gt;mrs.domain.model.reservation.room.RoomId
            </title>
            <path fill="none" stroke="black"
                  d="M274.09,-352.32C382.77,-352.74 659.41,-351.98 890,-336 898.33,-335.42 906.97,-334.69 915.63,-333.87"/>
            <polygon fill="black" stroke="black" points="916.17,-337.34 925.78,-332.87 915.48,-330.37 916.17,-337.34"/>
        </g>
        <!-- mrs.domain.model.reservation.room.ReservableRoom&#45;&gt;mrs.domain.model.reservation.reservation.Reservation -->
        <g id="edge12" class="edge">
            <title>mrs.domain.model.reservation.room.ReservableRoom&#45;&gt;mrs.domain.model.reservation.reservation.Reservation</title>
            <path fill="none" stroke="black" d="M347.88,-262.23C336.77,-258.97 325.63,-255.64 314.87,-252.33"/>
            <polygon fill="black" stroke="black" points="315.68,-248.92 305.09,-249.3 313.61,-255.6 315.68,-248.92"/>
        </g>
        <!-- mrs.domain.model.reservation.room.ReservableRoom&#45;&gt;mrs.domain.model.reservation.room.ReservableRoomId -->
        <g id="edge2" class="edge">
            <title>mrs.domain.model.reservation.room.ReservableRoom&#45;&gt;mrs.domain.model.reservation.room.ReservableRoomId</title>
            <path fill="none" stroke="black" d="M585.06,-290C593.52,-290 602.1,-290 610.68,-290"/>
            <polygon fill="black" stroke="black" points="610.75,-293.5 620.75,-290 610.75,-286.5 610.75,-293.5"/>
        </g>
        <!-- mrs.domain.model.reservation.room.ReservableRoomId&#45;&gt;mrs.domain.model.reservation.room.RoomId -->
        <g id="edge10" class="edge">
            <title>mrs.domain.model.reservation.room.ReservableRoomId&#45;&gt;mrs.domain.model.reservation.room.RoomId
            </title>
            <path fill="none" stroke="black" d="M890.24,-306.75C898.82,-307.82 907.37,-308.9 915.72,-309.94"/>
            <polygon fill="black" stroke="black" points="915.45,-313.44 925.81,-311.21 916.32,-306.49 915.45,-313.44"/>
        </g>
        <!-- mrs.domain.model.reservation.room.ReservableRoomList -->
        <g id="node6" class="node">
            <title>mrs.domain.model.reservation.room.ReservableRoomList</title>
            <polygon fill="lemonchiffon" stroke="black" points="312,-313 140,-313 140,-275 312,-275 312,-313"/>
            <text text-anchor="middle" x="226" y="-297.8" font-family="Times New Roman,serif" font-size="14.00">
                予約可能会議室一覧
            </text>
            <text text-anchor="middle" x="226" y="-282.8" font-family="Times New Roman,serif" font-size="14.00">
                ReservableRoomList
            </text>
        </g>
        <!-- mrs.domain.model.reservation.room.ReservableRoomList&#45;&gt;mrs.domain.model.reservation.room.ReservableRoom -->
        <g id="edge16" class="edge">
            <title>mrs.domain.model.reservation.room.ReservableRoomList&#45;&gt;mrs.domain.model.reservation.room.ReservableRoom</title>
            <path fill="none" stroke="black" d="M312.09,-292.57C320.46,-292.43 329.07,-292.29 337.74,-292.14"/>
            <polygon fill="black" stroke="black" points="337.99,-295.64 347.93,-291.97 337.88,-288.64 337.99,-295.64"/>
        </g>
        <!-- mrs.domain.model.user.RoleName -->
        <g id="node8" class="node">
            <title>mrs.domain.model.user.RoleName</title>
            <polygon fill="#eedd82" stroke="black" points="842.5,-192 668.5,-192 668.5,-118 842.5,-118 842.5,-192"/>
            <text text-anchor="middle" x="755.5" y="-164" font-family="Times New Roman,serif" font-size="30.00">利用者区分
            </text>
            <text text-anchor="middle" x="755.5" y="-131" font-family="Times New Roman,serif" font-size="30.00">
                RoleName
            </text>
        </g>
        <!-- mrs.domain.model.user.User&#45;&gt;mrs.domain.model.reservation.reservation.Reservation -->
        <g id="edge13" class="edge">
            <title>mrs.domain.model.user.User&#45;&gt;mrs.domain.model.reservation.reservation.Reservation</title>
            <path fill="none" stroke="black" d="M426.4,-174.99C396.29,-184.01 353.47,-195.25 315.22,-204.35"/>
            <polygon fill="black" stroke="black" points="314.03,-201.03 305.09,-206.73 315.63,-207.85 314.03,-201.03"/>
        </g>
        <!-- mrs.domain.model.user.User&#45;&gt;mrs.domain.model.user.RoleName -->
        <g id="edge3" class="edge">
            <title>mrs.domain.model.user.User&#45;&gt;mrs.domain.model.user.RoleName</title>
            <path fill="none" stroke="black" d="M506.5,-159.32C545.3,-158.64 606.35,-157.58 658.17,-156.68"/>
            <polygon fill="black" stroke="black" points="658.46,-160.17 668.4,-156.5 658.34,-153.17 658.46,-160.17"/>
        </g>
        <!-- mrs.domain.model.user.UserId -->
        <g id="node11" class="node">
            <title>mrs.domain.model.user.UserId</title>
            <polygon fill="#eedd82" stroke="black" points="827,-97 684,-97 684,-23 827,-23 827,-97"/>
            <text text-anchor="middle" x="755.5" y="-69" font-family="Times New Roman,serif" font-size="30.00">会員番号
            </text>
            <text text-anchor="middle" x="755.5" y="-36" font-family="Times New Roman,serif" font-size="30.00">UserId
            </text>
        </g>
        <!-- mrs.domain.model.user.User&#45;&gt;mrs.domain.model.user.UserId -->
        <g id="edge7" class="edge">
            <title>mrs.domain.model.user.User&#45;&gt;mrs.domain.model.user.UserId</title>
            <path fill="none" stroke="black" d="M506.5,-146.41C549.37,-131.47 619.42,-107.07 674.15,-88"/>
            <polygon fill="black" stroke="black" points="675.54,-91.22 683.83,-84.62 673.24,-84.61 675.54,-91.22"/>
        </g>
        <!-- mrs.domain.model.user.UserDetailsImpl -->
        <g id="node10" class="node">
            <title>mrs.domain.model.user.UserDetailsImpl</title>
            <polygon fill="lemonchiffon" stroke="black" points="294.5,-114 157.5,-114 157.5,-76 294.5,-76 294.5,-114"/>
            <text text-anchor="middle" x="226" y="-98.8" font-family="Times New Roman,serif" font-size="14.00">認証済み利用者
            </text>
            <text text-anchor="middle" x="226" y="-83.8" font-family="Times New Roman,serif" font-size="14.00">
                UserDetailsImpl
            </text>
        </g>
        <!-- mrs.domain.model.user.UserDetailsImpl&#45;&gt;mrs.domain.model.user.RoleName -->
        <g id="edge4" class="edge">
            <title>mrs.domain.model.user.UserDetailsImpl&#45;&gt;mrs.domain.model.user.RoleName</title>
            <path fill="none" stroke="black"
                  d="M294.67,-94.89C366.93,-95.63 484.62,-99.32 585,-114 609.09,-117.52 634.77,-122.88 658.67,-128.57"/>
            <polygon fill="black" stroke="black" points="657.89,-131.98 668.44,-130.93 659.54,-125.18 657.89,-131.98"/>
        </g>
        <!-- mrs.domain.model.user.UserDetailsImpl&#45;&gt;mrs.domain.model.user.User -->
        <g id="edge6" class="edge">
            <title>mrs.domain.model.user.UserDetailsImpl&#45;&gt;mrs.domain.model.user.User</title>
            <path fill="none" stroke="black" d="M294.71,-113.45C333.44,-124.01 381.15,-137.01 416.29,-146.59"/>
            <polygon fill="black" stroke="black" points="415.74,-150.07 426.31,-149.32 417.58,-143.31 415.74,-150.07"/>
        </g>
        <!-- mrs.domain.model.user.UserDetailsImpl&#45;&gt;mrs.domain.model.user.UserId -->
        <g id="edge8" class="edge">
            <title>mrs.domain.model.user.UserDetailsImpl&#45;&gt;mrs.domain.model.user.UserId</title>
            <path fill="none" stroke="black"
                  d="M294.76,-86.39C312.09,-84.4 330.72,-82.44 348,-81 460.89,-71.56 591.81,-65.71 673.9,-62.65"/>
            <polygon fill="black" stroke="black" points="674.04,-66.15 683.91,-62.28 673.79,-59.15 674.04,-66.15"/>
        </g>
    </g>
</svg>
