<?xml version="1.0" encoding="UTF-8" standalone="no"?>
<!DOCTYPE svg PUBLIC "-//W3C//DTD SVG 1.1//EN"
        "http://www.w3.org/Graphics/SVG/1.1/DTD/svg11.dtd">
<!-- Generated by graphviz version 3.0.0 (20220226.1711)
 -->
<!-- Title: 集中ビジネスルールツリー図 Pages: 1 -->
<svg width="742pt" height="341pt"
     viewBox="0.00 0.00 742.00 341.00" xmlns="http://www.w3.org/2000/svg">
    <g id="graph0" class="graph" transform="scale(1 1) rotate(0) translate(4 337)">
        <title>集中ビジネスルールツリー図</title>
        <polygon fill="white" stroke="transparent" points="-4,4 -4,-337 738,-337 738,4 -4,4"/>
        <text text-anchor="middle" x="367" y="-7.8" font-family="Times New Roman,serif" font-size="14.00">
            集中ビジネスルールツリー図
        </text>
        <!-- mrs.domain.model.autogen.sample.TodoExample -->
        <g id="node1" class="node">
            <title>mrs.domain.model.autogen.sample.TodoExample</title>
            <polygon fill="lemonchiffon" stroke="black" points="148,-113 52,-113 52,-77 148,-77 148,-113"/>
            <text text-anchor="middle" x="100" y="-91.3" font-family="Times New Roman,serif" font-size="14.00">
                TodoExample
            </text>
        </g>
        <!-- mrs.domain.model.autogen.sample.TodoExample$Criteria -->
        <g id="node2" class="node">
            <title>mrs.domain.model.autogen.sample.TodoExample$Criteria</title>
            <polygon fill="#eedd82" stroke="black" points="524,-86.5 236,-86.5 236,-45.5 524,-45.5 524,-86.5"/>
            <text text-anchor="middle" x="380" y="-58.5" font-family="Times New Roman,serif" font-size="30.00">
                TodoExample$Criteria
            </text>
        </g>
        <!-- mrs.domain.model.autogen.sample.TodoExample&#45;&gt;mrs.domain.model.autogen.sample.TodoExample$Criteria -->
        <g id="edge5" class="edge">
            <title>mrs.domain.model.autogen.sample.TodoExample&#45;&gt;mrs.domain.model.autogen.sample.TodoExample$Criteria</title>
            <path fill="none" stroke="black" d="M148.16,-90.08C170.12,-87.79 197.62,-84.92 225.91,-81.97"/>
            <polygon fill="black" stroke="black" points="226.36,-85.44 235.94,-80.92 225.63,-78.48 226.36,-85.44"/>
        </g>
        <!-- mrs.domain.model.autogen.sample.TodoExample$GeneratedCriteria -->
        <g id="node3" class="node">
            <title>mrs.domain.model.autogen.sample.TodoExample$GeneratedCriteria</title>
            <polygon fill="lemonchiffon" stroke="black" points="200,-59 0,-59 0,-23 200,-23 200,-59"/>
            <text text-anchor="middle" x="100" y="-37.3" font-family="Times New Roman,serif" font-size="14.00">
                TodoExample$GeneratedCriteria
            </text>
        </g>
        <!-- mrs.domain.model.autogen.sample.TodoExample$GeneratedCriteria&#45;&gt;mrs.domain.model.autogen.sample.TodoExample$Criteria -->
        <g id="edge6" class="edge">
            <title>mrs.domain.model.autogen.sample.TodoExample$GeneratedCriteria&#45;&gt;mrs.domain.model.autogen.sample.TodoExample$Criteria</title>
            <path fill="none" stroke="black" d="M200.19,-49.92C208.48,-50.67 216.98,-51.43 225.56,-52.2"/>
            <polygon fill="black" stroke="black" points="225.37,-55.7 235.65,-53.11 226,-48.73 225.37,-55.7"/>
        </g>
        <!-- mrs.domain.model.reservation.Reservation -->
        <g id="node4" class="node">
            <title>mrs.domain.model.reservation.Reservation</title>
            <polygon fill="lemonchiffon" stroke="black" points="141.5,-254 58.5,-254 58.5,-216 141.5,-216 141.5,-254"/>
            <text text-anchor="middle" x="100" y="-238.8" font-family="Times New Roman,serif" font-size="14.00">予約
            </text>
            <text text-anchor="middle" x="100" y="-223.8" font-family="Times New Roman,serif" font-size="14.00">
                Reservation
            </text>
        </g>
        <!-- mrs.domain.model.room.ReservableRoomId -->
        <g id="node6" class="node">
            <title>mrs.domain.model.room.ReservableRoomId</title>
            <polygon fill="#eedd82" stroke="black" points="514.5,-333 245.5,-333 245.5,-259 514.5,-259 514.5,-333"/>
            <text text-anchor="middle" x="380" y="-305" font-family="Times New Roman,serif" font-size="30.00">
                予約可能会議室ID
            </text>
            <text text-anchor="middle" x="380" y="-272" font-family="Times New Roman,serif" font-size="30.00">
                ReservableRoomId
            </text>
        </g>
        <!-- mrs.domain.model.reservation.Reservation&#45;&gt;mrs.domain.model.room.ReservableRoomId -->
        <g id="edge1" class="edge">
            <title>mrs.domain.model.reservation.Reservation&#45;&gt;mrs.domain.model.room.ReservableRoomId</title>
            <path fill="none" stroke="black" d="M141.72,-243.94C166.91,-249.46 200.91,-256.92 235.3,-264.47"/>
            <polygon fill="black" stroke="black" points="234.97,-267.98 245.49,-266.7 236.47,-261.14 234.97,-267.98"/>
        </g>
        <!-- mrs.domain.model.user.User -->
        <g id="node9" class="node">
            <title>mrs.domain.model.user.User</title>
            <polygon fill="#eedd82" stroke="black" points="435.5,-241 324.5,-241 324.5,-167 435.5,-167 435.5,-241"/>
            <text text-anchor="middle" x="380" y="-213" font-family="Times New Roman,serif" font-size="30.00">利用者</text>
            <text text-anchor="middle" x="380" y="-180" font-family="Times New Roman,serif" font-size="30.00">User
            </text>
        </g>
        <!-- mrs.domain.model.reservation.Reservation&#45;&gt;mrs.domain.model.user.User -->
        <g id="edge3" class="edge">
            <title>mrs.domain.model.reservation.Reservation&#45;&gt;mrs.domain.model.user.User</title>
            <path fill="none" stroke="black" d="M141.72,-230.46C187.06,-225.4 260.96,-217.16 314.25,-211.22"/>
            <polygon fill="black" stroke="black" points="314.73,-214.69 324.28,-210.1 313.96,-207.73 314.73,-214.69"/>
        </g>
        <!-- mrs.domain.model.room.ReservableRoom -->
        <g id="node5" class="node">
            <title>mrs.domain.model.room.ReservableRoom</title>
            <polygon fill="lemonchiffon" stroke="black" points="168.5,-315 31.5,-315 31.5,-277 168.5,-277 168.5,-315"/>
            <text text-anchor="middle" x="100" y="-299.8" font-family="Times New Roman,serif" font-size="14.00">
                予約可能会議室
            </text>
            <text text-anchor="middle" x="100" y="-284.8" font-family="Times New Roman,serif" font-size="14.00">
                ReservableRoom
            </text>
        </g>
        <!-- mrs.domain.model.room.ReservableRoom&#45;&gt;mrs.domain.model.room.ReservableRoomId -->
        <g id="edge2" class="edge">
            <title>mrs.domain.model.room.ReservableRoom&#45;&gt;mrs.domain.model.room.ReservableRoomId</title>
            <path fill="none" stroke="black" d="M168.65,-296C188.88,-296 211.88,-296 235.06,-296"/>
            <polygon fill="black" stroke="black" points="235.35,-299.5 245.35,-296 235.35,-292.5 235.35,-299.5"/>
        </g>
        <!-- mrs.domain.model.user.ReservationUserDetails -->
        <g id="node7" class="node">
            <title>mrs.domain.model.user.ReservationUserDetails</title>
            <polygon fill="lemonchiffon" stroke="black" points="173,-188 27,-188 27,-150 173,-150 173,-188"/>
            <text text-anchor="middle" x="100" y="-172.8" font-family="Times New Roman,serif" font-size="14.00">
                認証済み利用者
            </text>
            <text text-anchor="middle" x="100" y="-157.8" font-family="Times New Roman,serif" font-size="14.00">
                ReservationUserDetails
            </text>
        </g>
        <!-- mrs.domain.model.user.RoleName -->
        <g id="node8" class="node">
            <title>mrs.domain.model.user.RoleName</title>
            <polygon fill="#eedd82" stroke="black" points="734,-208 560,-208 560,-134 734,-134 734,-208"/>
            <text text-anchor="middle" x="647" y="-180" font-family="Times New Roman,serif" font-size="30.00">利用者区分
            </text>
            <text text-anchor="middle" x="647" y="-147" font-family="Times New Roman,serif" font-size="30.00">RoleName
            </text>
        </g>
        <!-- mrs.domain.model.user.ReservationUserDetails&#45;&gt;mrs.domain.model.user.RoleName -->
        <g id="edge7" class="edge">
            <title>mrs.domain.model.user.ReservationUserDetails&#45;&gt;mrs.domain.model.user.RoleName</title>
            <path fill="none" stroke="black"
                  d="M173.1,-162.03C193.42,-160.37 215.56,-158.83 236,-158 363.89,-152.8 396.18,-151.21 524,-158 532.33,-158.44 540.97,-159.05 549.63,-159.77"/>
            <polygon fill="black" stroke="black" points="549.51,-163.28 559.78,-160.66 550.12,-156.3 549.51,-163.28"/>
        </g>
        <!-- mrs.domain.model.user.ReservationUserDetails&#45;&gt;mrs.domain.model.user.User -->
        <g id="edge4" class="edge">
            <title>mrs.domain.model.user.ReservationUserDetails&#45;&gt;mrs.domain.model.user.User</title>
            <path fill="none" stroke="black" d="M173.32,-178.1C216.86,-183.59 271.85,-190.51 314.02,-195.82"/>
            <polygon fill="black" stroke="black" points="313.81,-199.32 324.17,-197.1 314.69,-192.38 313.81,-199.32"/>
        </g>
        <!-- mrs.domain.model.user.User&#45;&gt;mrs.domain.model.user.RoleName -->
        <g id="edge8" class="edge">
            <title>mrs.domain.model.user.User&#45;&gt;mrs.domain.model.user.RoleName</title>
            <path fill="none" stroke="black" d="M435.59,-197.2C468.48,-193.11 511.31,-187.77 549.74,-182.99"/>
            <polygon fill="black" stroke="black" points="550.43,-186.43 559.92,-181.72 549.57,-179.48 550.43,-186.43"/>
        </g>
    </g>
</svg>
