<?xml version="1.0" encoding="UTF-8" standalone="no"?>
<!DOCTYPE svg PUBLIC "-//W3C//DTD SVG 1.1//EN"
        "http://www.w3.org/Graphics/SVG/1.1/DTD/svg11.dtd">
<!-- Generated by graphviz version 3.0.0 (20220226.1711)
 -->
<!-- Title: 集中ビジネスルールツリー図 Pages: 1 -->
<svg width="628pt" height="190pt"
     viewBox="0.00 0.00 628.00 190.00" xmlns="http://www.w3.org/2000/svg">
    <g id="graph0" class="graph" transform="scale(1 1) rotate(0) translate(4 186)">
        <title>集中ビジネスルールツリー図</title>
        <polygon fill="white" stroke="transparent" points="-4,4 -4,-186 624,-186 624,4 -4,4"/>
        <text text-anchor="middle" x="310" y="-7.8" font-family="Times New Roman,serif" font-size="14.00">
            集中ビジネスルールツリー図
        </text>
        <!-- mrs.domain.model.RoleName -->
        <g id="node1" class="node">
            <title>mrs.domain.model.RoleName</title>
            <polygon fill="#eedd82" stroke="black" points="569,-182 426,-182 426,-141 569,-141 569,-182"/>
            <text text-anchor="middle" x="497.5" y="-154" font-family="Times New Roman,serif" font-size="30.00">
                RoleName
            </text>
        </g>
        <!-- mrs.domain.model.User -->
        <g id="node2" class="node">
            <title>mrs.domain.model.User</title>
            <polygon fill="#eedd82" stroke="black" points="265.5,-180 192.5,-180 192.5,-139 265.5,-139 265.5,-180"/>
            <text text-anchor="middle" x="229" y="-152" font-family="Times New Roman,serif" font-size="30.00">User
            </text>
        </g>
        <!-- mrs.domain.model.User&#45;&gt;mrs.domain.model.RoleName -->
        <g id="edge5" class="edge">
            <title>mrs.domain.model.User&#45;&gt;mrs.domain.model.RoleName</title>
            <path fill="none" stroke="black" d="M265.66,-159.77C303.81,-160.05 365.59,-160.52 415.63,-160.89"/>
            <polygon fill="black" stroke="black" points="415.77,-164.39 425.8,-160.97 415.82,-157.39 415.77,-164.39"/>
        </g>
        <!-- mrs.domain.model.reservation.Reservation -->
        <g id="node3" class="node">
            <title>mrs.domain.model.reservation.Reservation</title>
            <polygon fill="lemonchiffon" stroke="black" points="83,-117.5 0,-117.5 0,-81.5 83,-81.5 83,-117.5"/>
            <text text-anchor="middle" x="41.5" y="-95.8" font-family="Times New Roman,serif" font-size="14.00">
                Reservation
            </text>
        </g>
        <!-- mrs.domain.model.reservation.Reservation&#45;&gt;mrs.domain.model.User -->
        <g id="edge6" class="edge">
            <title>mrs.domain.model.reservation.Reservation&#45;&gt;mrs.domain.model.User</title>
            <path fill="none" stroke="black"
                  d="M83.1,-116.34C94.62,-120.86 107.22,-125.58 119,-129.5 139.62,-136.36 162.79,-142.9 182.44,-148.11"/>
            <polygon fill="black" stroke="black" points="181.81,-151.56 192.37,-150.7 183.58,-144.79 181.81,-151.56"/>
        </g>
        <!-- mrs.domain.model.room.ReservableRoom -->
        <g id="node5" class="node">
            <title>mrs.domain.model.room.ReservableRoom</title>
            <polygon fill="#eedd82" stroke="black" points="339,-120 119,-120 119,-79 339,-79 339,-120"/>
            <text text-anchor="middle" x="229" y="-92" font-family="Times New Roman,serif" font-size="30.00">
                ReservableRoom
            </text>
        </g>
        <!-- mrs.domain.model.reservation.Reservation&#45;&gt;mrs.domain.model.room.ReservableRoom -->
        <g id="edge4" class="edge">
            <title>mrs.domain.model.reservation.Reservation&#45;&gt;mrs.domain.model.room.ReservableRoom</title>
            <path fill="none" stroke="black" d="M83.21,-99.5C91.04,-99.5 99.59,-99.5 108.51,-99.5"/>
            <polygon fill="black" stroke="black" points="108.71,-103 118.71,-99.5 108.71,-96 108.71,-103"/>
        </g>
        <!-- mrs.domain.model.room.ReservableRoomId -->
        <g id="node6" class="node">
            <title>mrs.domain.model.room.ReservableRoomId</title>
            <polygon fill="#eedd82" stroke="black" points="620,-64 375,-64 375,-23 620,-23 620,-64"/>
            <text text-anchor="middle" x="497.5" y="-36" font-family="Times New Roman,serif" font-size="30.00">
                ReservableRoomId
            </text>
        </g>
        <!-- mrs.domain.model.reservation.Reservation&#45;&gt;mrs.domain.model.room.ReservableRoomId -->
        <g id="edge1" class="edge">
            <title>mrs.domain.model.reservation.Reservation&#45;&gt;mrs.domain.model.room.ReservableRoomId</title>
            <path fill="none" stroke="black"
                  d="M81.88,-81.41C93.59,-76.76 106.61,-72.29 119,-69.5 199.34,-51.43 291.52,-44.82 364.67,-42.78"/>
            <polygon fill="black" stroke="black" points="364.96,-46.28 374.86,-42.53 364.78,-39.28 364.96,-46.28"/>
        </g>
        <!-- mrs.domain.model.room.MeetingRoom -->
        <g id="node4" class="node">
            <title>mrs.domain.model.room.MeetingRoom</title>
            <polygon fill="#eedd82" stroke="black" points="591.5,-123 403.5,-123 403.5,-82 591.5,-82 591.5,-123"/>
            <text text-anchor="middle" x="497.5" y="-95" font-family="Times New Roman,serif" font-size="30.00">
                MeetingRoom
            </text>
        </g>
        <!-- mrs.domain.model.room.ReservableRoom&#45;&gt;mrs.domain.model.room.MeetingRoom -->
        <g id="edge3" class="edge">
            <title>mrs.domain.model.room.ReservableRoom&#45;&gt;mrs.domain.model.room.MeetingRoom</title>
            <path fill="none" stroke="black" d="M339.16,-100.73C356.95,-100.93 375.32,-101.14 392.97,-101.33"/>
            <polygon fill="black" stroke="black" points="393.22,-104.84 403.26,-101.45 393.3,-97.84 393.22,-104.84"/>
        </g>
        <!-- mrs.domain.model.room.ReservableRoom&#45;&gt;mrs.domain.model.room.ReservableRoomId -->
        <g id="edge2" class="edge">
            <title>mrs.domain.model.room.ReservableRoom&#45;&gt;mrs.domain.model.room.ReservableRoomId</title>
            <path fill="none" stroke="black" d="M327.72,-78.97C347.64,-74.78 368.69,-70.36 388.93,-66.1"/>
            <polygon fill="black" stroke="black" points="389.72,-69.51 398.79,-64.03 388.28,-62.66 389.72,-69.51"/>
        </g>
    </g>
</svg>
