<?xml version="1.0" encoding="UTF-8" standalone="no"?>
<!DOCTYPE svg PUBLIC "-//W3C//DTD SVG 1.1//EN"
 "http://www.w3.org/Graphics/SVG/1.1/DTD/svg11.dtd">
<!-- Generated by graphviz version 3.0.0 (20220226.1711)
 -->
<!-- Title: ビジネスルール関連図 Pages: 1 -->
<svg width="1784pt" height="741pt"
     viewBox="0.00 0.00 1783.84 741.00" xmlns="http://www.w3.org/2000/svg">
<g id="graph0" class="graph" transform="scale(1 1) rotate(0) translate(4 737)">
    <title>ビジネスルール関連図</title>
    <polygon fill="white" stroke="transparent" points="-4,4 -4,-737 1779.84,-737 1779.84,4 -4,4"/>
    <text text-anchor="middle" x="887.92" y="-7.8" font-family="Times New Roman,serif" font-size="14.00">ビジネスルール関連図
    </text>
    <g id="clust2" class="cluster">
        <title>cluster_mrs.domain.model.contact</title>
        <polygon fill="lemonchiffon" stroke="#eedd82" stroke-width="2"
                 points="602,-412 602,-725 776,-725 776,-412 602,-412"/>
        <text text-anchor="middle" x="689" y="-709.8" font-family="Times New Roman,serif" font-size="14.00">contact
        </text>
    </g>
    <g id="clust1" class="cluster">
        <title>cluster_mrs.domain.model.auth.user</title>
        <polygon fill="lemonchiffon" stroke="#eedd82" stroke-width="2"
                 points="924,-253 924,-574 1500,-574 1500,-253 924,-253"/>
        <text text-anchor="middle" x="1212" y="-558.8" font-family="Times New Roman,serif" font-size="14.00">auth.user
        </text>
    </g>
    <g id="clust4" class="cluster">
        <title>cluster_mrs.domain.model.reservation.reservation</title>
        <polygon fill="lemonchiffon" stroke="#eedd82" stroke-width="2"
                 points="366,-105 366,-489 594,-489 594,-105 366,-105"/>
        <text text-anchor="middle" x="480" y="-473.8" font-family="Times New Roman,serif" font-size="14.00">
            reservation.reservation
        </text>
    </g>
    <g id="clust3" class="cluster">
        <title>cluster_mrs.domain.model.facility.room</title>
        <polygon fill="lemonchiffon" stroke="#eedd82" stroke-width="2" points="8,-31 8,-404 162,-404 162,-31 8,-31"/>
        <text text-anchor="middle" x="85" y="-388.8" font-family="Times New Roman,serif" font-size="14.00">
            facility.room
        </text>
    </g>
    <g id="clust6" class="cluster">
        <title>cluster_mrs.domain.model.user.gust</title>
        <polygon fill="lemonchiffon" stroke="#eedd82" stroke-width="2"
                 points="1508,-497 1508,-574 1592,-574 1592,-497 1508,-497"/>
        <text text-anchor="middle" x="1550" y="-558.8" font-family="Times New Roman,serif" font-size="14.00">user.gust
        </text>
    </g>
    <g id="clust7" class="cluster">
        <title>cluster_mrs.domain.model.user.member</title>
        <polygon fill="lemonchiffon" stroke="#eedd82" stroke-width="2"
                 points="784,-412 784,-574 886,-574 886,-412 784,-412"/>
        <text text-anchor="middle" x="835" y="-558.8" font-family="Times New Roman,serif" font-size="14.00">
            user.member
        </text>
    </g>
    <g id="clust5" class="cluster">
        <title>cluster_mrs.domain.model.reservation.room</title>
        <polygon fill="lemonchiffon" stroke="#eedd82" stroke-width="2"
                 points="170,-179 170,-404 358,-404 358,-179 170,-179"/>
        <text text-anchor="middle" x="264" y="-388.8" font-family="Times New Roman,serif" font-size="14.00">
            reservation.room
        </text>
    </g>
    <g id="clust8" class="cluster">
        <title>cluster_mrs.domain.model.user.staff</title>
        <polygon fill="lemonchiffon" stroke="#eedd82" stroke-width="2"
                 points="1609,-497 1609,-574 1711,-574 1711,-497 1609,-497"/>
        <text text-anchor="middle" x="1660" y="-558.8" font-family="Times New Roman,serif" font-size="14.00">
            user.staff
        </text>
    </g>
    <!-- mrs.domain.model.auth.user.Password -->
    <g id="node1" class="node">
        <title>mrs.domain.model.auth.user.Password</title>
        <polygon fill="#eedd82" stroke="black" points="1277.5,-373 1174.5,-373 1174.5,-335 1277.5,-335 1277.5,-373"/>
        <text text-anchor="middle" x="1226" y="-357.8" font-family="Times New Roman,serif" font-size="14.00">パスワード
        </text>
        <text text-anchor="middle" x="1226" y="-342.8" font-family="Times New Roman,serif" font-size="14.00">Password
        </text>
    </g>
    <!-- mrs.domain.model.auth.user.PasswordException -->
    <g id="node2" class="node">
        <title>mrs.domain.model.auth.user.PasswordException</title>
        <polygon fill="#eedd82" stroke="black" points="1294.5,-299 1157.5,-299 1157.5,-261 1294.5,-261 1294.5,-299"/>
        <text text-anchor="middle" x="1226" y="-283.8" font-family="Times New Roman,serif" font-size="14.00">パスワード例外
        </text>
        <text text-anchor="middle" x="1226" y="-268.8" font-family="Times New Roman,serif" font-size="14.00">
            PasswordException
        </text>
    </g>
    <!-- mrs.domain.model.auth.user.Password&#45;&gt;mrs.domain.model.auth.user.PasswordException -->
    <g id="edge1" class="edge">
        <title>mrs.domain.model.auth.user.Password&#45;&gt;mrs.domain.model.auth.user.PasswordException</title>
        <path fill="none" stroke="black" d="M1226,-334.83C1226,-327.13 1226,-317.97 1226,-309.42"/>
        <polygon fill="black" stroke="black" points="1229.5,-309.41 1226,-299.41 1222.5,-309.41 1229.5,-309.41"/>
    </g>
    <!-- mrs.domain.model.auth.user.RoleName -->
    <g id="node3" class="node">
        <title>mrs.domain.model.auth.user.RoleName</title>
        <polygon fill="#eedd82" stroke="black" points="1491.5,-373 1388.5,-373 1388.5,-335 1491.5,-335 1491.5,-373"/>
        <text text-anchor="middle" x="1440" y="-357.8" font-family="Times New Roman,serif" font-size="14.00">
            利用者区分
        </text>
        <text text-anchor="middle" x="1440" y="-342.8" font-family="Times New Roman,serif" font-size="14.00">RoleName
        </text>
    </g>
    <!-- mrs.domain.model.auth.user.User -->
    <g id="node4" class="node">
        <title>mrs.domain.model.auth.user.User</title>
        <polygon fill="#eedd82" stroke="black" points="1207,-458 1139,-458 1139,-420 1207,-420 1207,-458"/>
        <text text-anchor="middle" x="1173" y="-442.8" font-family="Times New Roman,serif" font-size="14.00">利用者
        </text>
        <text text-anchor="middle" x="1173" y="-427.8" font-family="Times New Roman,serif" font-size="14.00">User</text>
    </g>
    <!-- mrs.domain.model.auth.user.User&#45;&gt;mrs.domain.model.auth.user.Password -->
    <g id="edge2" class="edge">
        <title>mrs.domain.model.auth.user.User&#45;&gt;mrs.domain.model.auth.user.Password</title>
        <path fill="none" stroke="black" d="M1184.5,-419.99C1191.6,-408.86 1200.85,-394.38 1208.82,-381.91"/>
        <polygon fill="black" stroke="black" points="1211.91,-383.57 1214.34,-373.26 1206.01,-379.81 1211.91,-383.57"/>
    </g>
<!-- mrs.domain.model.auth.user.User&#45;&gt;mrs.domain.model.auth.user.RoleName -->
    <g id="edge3" class="edge">
        <title>mrs.domain.model.auth.user.User&#45;&gt;mrs.domain.model.auth.user.RoleName</title>
        <path fill="none" stroke="black"
              d="M1207.31,-432.6C1265.12,-423.46 1376.08,-405.77 1380,-404 1392.77,-398.24 1405.08,-389.06 1415.19,-380.19"/>
        <polygon fill="black" stroke="black" points="1417.79,-382.55 1422.8,-373.21 1413.06,-377.39 1417.79,-382.55"/>
    </g>
<!-- mrs.domain.model.auth.user.UserException -->
    <g id="node6" class="node">
        <title>mrs.domain.model.auth.user.UserException</title>
        <polygon fill="#eedd82" stroke="black" points="1156.5,-373 1053.5,-373 1053.5,-335 1156.5,-335 1156.5,-373"/>
        <text text-anchor="middle" x="1105" y="-357.8" font-family="Times New Roman,serif" font-size="14.00">
            利用者例外
        </text>
        <text text-anchor="middle" x="1105" y="-342.8" font-family="Times New Roman,serif" font-size="14.00">
            UserException
        </text>
    </g>
<!-- mrs.domain.model.auth.user.User&#45;&gt;mrs.domain.model.auth.user.UserException -->
    <g id="edge4" class="edge">
        <title>mrs.domain.model.auth.user.User&#45;&gt;mrs.domain.model.auth.user.UserException</title>
        <path fill="none" stroke="black" d="M1158.25,-419.99C1148.95,-408.65 1136.8,-393.82 1126.45,-381.18"/>
        <polygon fill="black" stroke="black" points="1129.01,-378.78 1119.96,-373.26 1123.59,-383.21 1129.01,-378.78"/>
    </g>
<!-- mrs.domain.model.auth.user.UserId -->
    <g id="node7" class="node">
        <title>mrs.domain.model.auth.user.UserId</title>
        <polygon fill="#eedd82" stroke="black" points="1035.5,-373 932.5,-373 932.5,-335 1035.5,-335 1035.5,-373"/>
        <text text-anchor="middle" x="984" y="-357.8" font-family="Times New Roman,serif" font-size="14.00">利用者番号
        </text>
        <text text-anchor="middle" x="984" y="-342.8" font-family="Times New Roman,serif" font-size="14.00">UserId
        </text>
    </g>
<!-- mrs.domain.model.auth.user.User&#45;&gt;mrs.domain.model.auth.user.UserId -->
    <g id="edge5" class="edge">
        <title>mrs.domain.model.auth.user.User&#45;&gt;mrs.domain.model.auth.user.UserId</title>
        <path fill="none" stroke="black"
              d="M1143.47,-419.99C1137.23,-416.86 1130.54,-413.98 1124,-412 1089.8,-401.65 1077.02,-417.66 1044,-404 1030.73,-398.51 1018.09,-389.08 1007.87,-379.94"/>
        <polygon fill="black" stroke="black" points="1010.24,-377.37 1000.55,-373.08 1005.45,-382.48 1010.24,-377.37"/>
    </g>
<!-- mrs.domain.model.auth.user.UserName -->
    <g id="node9" class="node">
        <title>mrs.domain.model.auth.user.UserName</title>
        <polygon fill="#eedd82" stroke="black" points="1370.5,-373 1295.5,-373 1295.5,-335 1370.5,-335 1370.5,-373"/>
        <text text-anchor="middle" x="1333" y="-357.8" font-family="Times New Roman,serif" font-size="14.00">氏名</text>
        <text text-anchor="middle" x="1333" y="-342.8" font-family="Times New Roman,serif" font-size="14.00">UserName
        </text>
    </g>
<!-- mrs.domain.model.auth.user.User&#45;&gt;mrs.domain.model.auth.user.UserName -->
    <g id="edge6" class="edge">
        <title>mrs.domain.model.auth.user.User&#45;&gt;mrs.domain.model.auth.user.UserName</title>
        <path fill="none" stroke="black"
              d="M1207.01,-432.5C1230.48,-427.61 1261.71,-418.87 1286,-404 1296.01,-397.88 1305.34,-389.11 1313,-380.67"/>
        <polygon fill="black" stroke="black" points="1315.65,-382.96 1319.55,-373.11 1310.36,-378.38 1315.65,-382.96"/>
    </g>
<!-- mrs.domain.model.reservation.reservation.Reservation -->
    <g id="node17" class="node">
        <title>mrs.domain.model.reservation.reservation.Reservation</title>
        <polygon fill="#eedd82" stroke="black" points="576.5,-373 493.5,-373 493.5,-335 576.5,-335 576.5,-373"/>
        <text text-anchor="middle" x="535" y="-357.8" font-family="Times New Roman,serif" font-size="14.00">予約</text>
        <text text-anchor="middle" x="535" y="-342.8" font-family="Times New Roman,serif" font-size="14.00">
            Reservation
        </text>
    </g>
<!-- mrs.domain.model.auth.user.User&#45;&gt;mrs.domain.model.reservation.reservation.Reservation -->
    <g id="edge7" class="edge">
        <title>mrs.domain.model.auth.user.User&#45;&gt;mrs.domain.model.reservation.reservation.Reservation</title>
        <path fill="none" stroke="black" d="M1138.87,-433.12C1033.44,-418.84 713.17,-377.16 586.89,-361.26"/>
        <polygon fill="black" stroke="black" points="587.07,-357.75 576.71,-359.98 586.2,-364.7 587.07,-357.75"/>
    </g>
<!-- mrs.domain.model.auth.user.UserDetailsImpl -->
    <g id="node5" class="node">
        <title>mrs.domain.model.auth.user.UserDetailsImpl</title>
        <polygon fill="#eedd82" stroke="black" points="1252,-543 1146,-543 1146,-505 1252,-505 1252,-543"/>
        <text text-anchor="middle" x="1199" y="-527.8" font-family="Times New Roman,serif" font-size="14.00">利用者
        </text>
        <text text-anchor="middle" x="1199" y="-512.8" font-family="Times New Roman,serif" font-size="14.00">
            UserDetailsImpl
        </text>
    </g>
<!-- mrs.domain.model.auth.user.UserDetailsImpl&#45;&gt;mrs.domain.model.auth.user.Password -->
    <g id="edge8" class="edge">
        <title>mrs.domain.model.auth.user.UserDetailsImpl&#45;&gt;mrs.domain.model.auth.user.Password</title>
        <path fill="none" stroke="black"
              d="M1209.71,-504.82C1212.19,-499.84 1214.53,-494.34 1216,-489 1225.8,-453.46 1227.31,-410.74 1227.03,-383.24"/>
        <polygon fill="black" stroke="black" points="1230.53,-383.08 1226.84,-373.15 1223.53,-383.21 1230.53,-383.08"/>
    </g>
<!-- mrs.domain.model.auth.user.UserDetailsImpl&#45;&gt;mrs.domain.model.auth.user.RoleName -->
    <g id="edge9" class="edge">
        <title>mrs.domain.model.auth.user.UserDetailsImpl&#45;&gt;mrs.domain.model.auth.user.RoleName</title>
        <path fill="none" stroke="black"
              d="M1228.47,-504.94C1264.82,-482.37 1328.16,-442.05 1380,-404 1390.42,-396.35 1401.47,-387.54 1411.21,-379.52"/>
        <polygon fill="black" stroke="black" points="1413.59,-382.09 1419.04,-373.01 1409.11,-376.71 1413.59,-382.09"/>
    </g>
<!-- mrs.domain.model.auth.user.UserDetailsImpl&#45;&gt;mrs.domain.model.auth.user.User -->
    <g id="edge10" class="edge">
        <title>mrs.domain.model.auth.user.UserDetailsImpl&#45;&gt;mrs.domain.model.auth.user.User</title>
        <path fill="none" stroke="black" d="M1193.36,-504.99C1189.97,-494.19 1185.6,-480.22 1181.77,-468"/>
        <polygon fill="black" stroke="black" points="1185.05,-466.76 1178.72,-458.26 1178.37,-468.85 1185.05,-466.76"/>
    </g>
<!-- mrs.domain.model.auth.user.UserDetailsImpl&#45;&gt;mrs.domain.model.auth.user.UserId -->
    <g id="edge11" class="edge">
        <title>mrs.domain.model.auth.user.UserDetailsImpl&#45;&gt;mrs.domain.model.auth.user.UserId</title>
        <path fill="none" stroke="black"
              d="M1157.42,-504.9C1148.11,-500.2 1138.49,-494.81 1130,-489 1082.77,-456.67 1035.27,-409.77 1007.79,-380.89"/>
        <polygon fill="black" stroke="black" points="1010,-378.13 1000.59,-373.25 1004.9,-382.93 1010,-378.13"/>
    </g>
<!-- mrs.domain.model.auth.user.UserIdException -->
    <g id="node8" class="node">
        <title>mrs.domain.model.auth.user.UserIdException</title>
        <polygon fill="#eedd82" stroke="black" points="1069.5,-299 932.5,-299 932.5,-261 1069.5,-261 1069.5,-299"/>
        <text text-anchor="middle" x="1001" y="-283.8" font-family="Times New Roman,serif" font-size="14.00">
            利用者番号例外
        </text>
        <text text-anchor="middle" x="1001" y="-268.8" font-family="Times New Roman,serif" font-size="14.00">
            UserIdException
        </text>
    </g>
<!-- mrs.domain.model.auth.user.UserId&#45;&gt;mrs.domain.model.auth.user.UserIdException -->
    <g id="edge12" class="edge">
        <title>mrs.domain.model.auth.user.UserId&#45;&gt;mrs.domain.model.auth.user.UserIdException</title>
        <path fill="none" stroke="black" d="M988.29,-334.83C990.11,-327.13 992.27,-317.97 994.29,-309.42"/>
        <polygon fill="black" stroke="black" points="997.76,-309.95 996.65,-299.41 990.95,-308.34 997.76,-309.95"/>
    </g>
<!-- mrs.domain.model.contact.Contact -->
    <g id="node10" class="node">
        <title>mrs.domain.model.contact.Contact</title>
        <polygon fill="#eedd82" stroke="black" points="767.5,-620 664.5,-620 664.5,-582 767.5,-582 767.5,-620"/>
        <text text-anchor="middle" x="716" y="-604.8" font-family="Times New Roman,serif" font-size="14.00">問い合わせ
        </text>
        <text text-anchor="middle" x="716" y="-589.8" font-family="Times New Roman,serif" font-size="14.00">Contact
        </text>
    </g>
<!-- mrs.domain.model.contact.Contact&#45;&gt;mrs.domain.model.auth.user.User -->
    <g id="edge13" class="edge">
        <title>mrs.domain.model.contact.Contact&#45;&gt;mrs.domain.model.auth.user.User</title>
        <path fill="none" stroke="black"
              d="M767.66,-595.47C802.62,-591.63 849.61,-584.95 890,-574 987.97,-547.43 1012.56,-537.02 1102,-489 1115.38,-481.82 1129.3,-472.64 1141.23,-464.17"/>
        <polygon fill="black" stroke="black" points="1143.48,-466.86 1149.53,-458.17 1139.38,-461.19 1143.48,-466.86"/>
    </g>
<!-- mrs.domain.model.contact.ContactId -->
    <g id="node11" class="node">
        <title>mrs.domain.model.contact.ContactId</title>
        <polygon fill="#eedd82" stroke="black" points="747.5,-543 610.5,-543 610.5,-505 747.5,-505 747.5,-543"/>
        <text text-anchor="middle" x="679" y="-527.8" font-family="Times New Roman,serif" font-size="14.00">
            問い合わせ番号
        </text>
        <text text-anchor="middle" x="679" y="-512.8" font-family="Times New Roman,serif" font-size="14.00">ContactId
        </text>
    </g>
<!-- mrs.domain.model.contact.Contact&#45;&gt;mrs.domain.model.contact.ContactId -->
    <g id="edge14" class="edge">
        <title>mrs.domain.model.contact.Contact&#45;&gt;mrs.domain.model.contact.ContactId</title>
        <path fill="none" stroke="black" d="M707.04,-581.84C702.67,-572.97 697.31,-562.12 692.46,-552.27"/>
        <polygon fill="black" stroke="black" points="695.57,-550.67 688,-543.25 689.29,-553.76 695.57,-550.67"/>
    </g>
<!-- mrs.domain.model.contact.ContactPerson -->
    <g id="node13" class="node">
        <title>mrs.domain.model.contact.ContactPerson</title>
        <polygon fill="#eedd82" stroke="black" points="768,-458 648,-458 648,-420 768,-420 768,-458"/>
        <text text-anchor="middle" x="708" y="-442.8" font-family="Times New Roman,serif" font-size="14.00">問い合わせ人
        </text>
        <text text-anchor="middle" x="708" y="-427.8" font-family="Times New Roman,serif" font-size="14.00">
            ContactPerson
        </text>
    </g>
<!-- mrs.domain.model.contact.Contact&#45;&gt;mrs.domain.model.contact.ContactPerson -->
    <g id="edge15" class="edge">
        <title>mrs.domain.model.contact.Contact&#45;&gt;mrs.domain.model.contact.ContactPerson</title>
        <path fill="none" stroke="black"
              d="M750,-581.92C752.36,-579.55 754.42,-576.91 756,-574 772.32,-543.92 767.73,-529.15 756,-497 751.78,-485.44 744.07,-474.6 736.04,-465.54"/>
        <polygon fill="black" stroke="black" points="738.4,-462.94 728.99,-458.06 733.31,-467.74 738.4,-462.94"/>
    </g>
<!-- mrs.domain.model.user.gust.Gust -->
    <g id="node26" class="node">
        <title>mrs.domain.model.user.gust.Gust</title>
        <polygon fill="#eedd82" stroke="black" points="1584,-543 1516,-543 1516,-505 1584,-505 1584,-543"/>
        <text text-anchor="middle" x="1550" y="-527.8" font-family="Times New Roman,serif" font-size="14.00">ゲスト</text>
        <text text-anchor="middle" x="1550" y="-512.8" font-family="Times New Roman,serif" font-size="14.00">Gust</text>
    </g>
<!-- mrs.domain.model.contact.Contact&#45;&gt;mrs.domain.model.user.gust.Gust -->
    <g id="edge16" class="edge">
        <title>mrs.domain.model.contact.Contact&#45;&gt;mrs.domain.model.user.gust.Gust</title>
        <path fill="none" stroke="black"
              d="M767.58,-599.38C937.46,-597.2 1470.49,-589.17 1504,-574 1514.91,-569.06 1524.46,-560.22 1531.99,-551.38"/>
        <polygon fill="black" stroke="black" points="1534.86,-553.4 1538.32,-543.39 1529.37,-549.05 1534.86,-553.4"/>
    </g>
<!-- mrs.domain.model.user.member.Member -->
    <g id="node27" class="node">
        <title>mrs.domain.model.user.member.Member</title>
        <polygon fill="#eedd82" stroke="black" points="877.5,-543 814.5,-543 814.5,-505 877.5,-505 877.5,-543"/>
        <text text-anchor="middle" x="846" y="-527.8" font-family="Times New Roman,serif" font-size="14.00">会員</text>
        <text text-anchor="middle" x="846" y="-512.8" font-family="Times New Roman,serif" font-size="14.00">Member
        </text>
    </g>
<!-- mrs.domain.model.contact.Contact&#45;&gt;mrs.domain.model.user.member.Member -->
    <g id="edge17" class="edge">
        <title>mrs.domain.model.contact.Contact&#45;&gt;mrs.domain.model.user.member.Member</title>
        <path fill="none" stroke="black"
              d="M764.16,-581.99C769.6,-579.5 774.98,-576.82 780,-574 792.59,-566.92 805.54,-557.78 816.6,-549.32"/>
        <polygon fill="black" stroke="black" points="818.93,-551.94 824.65,-543.02 814.61,-546.42 818.93,-551.94"/>
    </g>
<!-- mrs.domain.model.contact.ContactList -->
    <g id="node12" class="node">
        <title>mrs.domain.model.contact.ContactList</title>
        <polygon fill="#eedd82" stroke="black" points="767.5,-694 630.5,-694 630.5,-656 767.5,-656 767.5,-694"/>
        <text text-anchor="middle" x="699" y="-678.8" font-family="Times New Roman,serif" font-size="14.00">
            問い合わせ一覧
        </text>
        <text text-anchor="middle" x="699" y="-663.8" font-family="Times New Roman,serif" font-size="14.00">
            ContactList
        </text>
    </g>
<!-- mrs.domain.model.contact.ContactList&#45;&gt;mrs.domain.model.contact.Contact -->
    <g id="edge18" class="edge">
        <title>mrs.domain.model.contact.ContactList&#45;&gt;mrs.domain.model.contact.Contact</title>
        <path fill="none" stroke="black" d="M703.29,-655.83C705.11,-648.13 707.27,-638.97 709.29,-630.42"/>
        <polygon fill="black" stroke="black" points="712.76,-630.95 711.65,-620.41 705.95,-629.34 712.76,-630.95"/>
    </g>
<!-- mrs.domain.model.facility.room.MeetingRoom -->
    <g id="node14" class="node">
        <title>mrs.domain.model.facility.room.MeetingRoom</title>
        <polygon fill="#eedd82" stroke="black" points="153,-373 57,-373 57,-335 153,-335 153,-373"/>
        <text text-anchor="middle" x="105" y="-357.8" font-family="Times New Roman,serif" font-size="14.00">会議室
        </text>
        <text text-anchor="middle" x="105" y="-342.8" font-family="Times New Roman,serif" font-size="14.00">
            MeetingRoom
        </text>
    </g>
<!-- mrs.domain.model.facility.room.RoomId -->
    <g id="node15" class="node">
        <title>mrs.domain.model.facility.room.RoomId</title>
        <polygon fill="#eedd82" stroke="black" points="153.5,-151 50.5,-151 50.5,-113 153.5,-113 153.5,-151"/>
        <text text-anchor="middle" x="102" y="-135.8" font-family="Times New Roman,serif" font-size="14.00">会議室番号
        </text>
        <text text-anchor="middle" x="102" y="-120.8" font-family="Times New Roman,serif" font-size="14.00">RoomId
        </text>
    </g>
<!-- mrs.domain.model.facility.room.MeetingRoom&#45;&gt;mrs.domain.model.facility.room.RoomId -->
    <g id="edge19" class="edge">
        <title>mrs.domain.model.facility.room.MeetingRoom&#45;&gt;mrs.domain.model.facility.room.RoomId</title>
        <path fill="none" stroke="black" d="M104.75,-335C104.23,-296.8 103.01,-207.41 102.39,-161.43"/>
        <polygon fill="black" stroke="black" points="105.89,-161.2 102.25,-151.25 98.89,-161.3 105.89,-161.2"/>
    </g>
<!-- mrs.domain.model.reservation.room.ReservableRoom -->
    <g id="node23" class="node">
        <title>mrs.domain.model.reservation.room.ReservableRoom</title>
        <polygon fill="#eedd82" stroke="black" points="317.5,-299 180.5,-299 180.5,-261 317.5,-261 317.5,-299"/>
        <text text-anchor="middle" x="249" y="-283.8" font-family="Times New Roman,serif" font-size="14.00">
            予約可能会議室
        </text>
        <text text-anchor="middle" x="249" y="-268.8" font-family="Times New Roman,serif" font-size="14.00">
            ReservableRoom
        </text>
    </g>
<!-- mrs.domain.model.facility.room.MeetingRoom&#45;&gt;mrs.domain.model.reservation.room.ReservableRoom -->
    <g id="edge20" class="edge">
        <title>mrs.domain.model.facility.room.MeetingRoom&#45;&gt;mrs.domain.model.reservation.room.ReservableRoom
        </title>
        <path fill="none" stroke="black" d="M147.29,-334.83C167.05,-325.41 190.38,-313.81 209.75,-303.79"/>
        <polygon fill="black" stroke="black" points="211.38,-306.89 218.63,-299.16 208.14,-300.68 211.38,-306.89"/>
    </g>
<!-- mrs.domain.model.facility.room.RoomIdException -->
    <g id="node16" class="node">
        <title>mrs.domain.model.facility.room.RoomIdException</title>
        <polygon fill="#eedd82" stroke="black" points="153.5,-77 16.5,-77 16.5,-39 153.5,-39 153.5,-77"/>
        <text text-anchor="middle" x="85" y="-61.8" font-family="Times New Roman,serif" font-size="14.00">
            会議室番号例外
        </text>
        <text text-anchor="middle" x="85" y="-46.8" font-family="Times New Roman,serif" font-size="14.00">
            RoomIdException
        </text>
    </g>
<!-- mrs.domain.model.facility.room.RoomId&#45;&gt;mrs.domain.model.facility.room.RoomIdException -->
    <g id="edge21" class="edge">
        <title>mrs.domain.model.facility.room.RoomId&#45;&gt;mrs.domain.model.facility.room.RoomIdException</title>
        <path fill="none" stroke="black" d="M97.71,-112.83C95.89,-105.13 93.73,-95.97 91.71,-87.42"/>
        <polygon fill="black" stroke="black" points="95.05,-86.34 89.35,-77.41 88.24,-87.95 95.05,-86.34"/>
    </g>
<!-- mrs.domain.model.reservation.reservation.Reservation&#45;&gt;mrs.domain.model.auth.user.User -->
    <g id="edge22" class="edge">
        <title>mrs.domain.model.reservation.reservation.Reservation&#45;&gt;mrs.domain.model.auth.user.User</title>
        <path fill="none" stroke="black" d="M576.77,-360.91C691.58,-376.39 1010.64,-417.89 1128.55,-432.68"/>
        <polygon fill="black" stroke="black" points="1128.31,-436.17 1138.67,-433.94 1129.18,-429.23 1128.31,-436.17"/>
    </g>
<!-- mrs.domain.model.reservation.reservation.ReservationId -->
    <g id="node18" class="node">
        <title>mrs.domain.model.reservation.reservation.ReservationId</title>
        <polygon fill="#eedd82" stroke="black" points="469.5,-299 374.5,-299 374.5,-261 469.5,-261 469.5,-299"/>
        <text text-anchor="middle" x="422" y="-283.8" font-family="Times New Roman,serif" font-size="14.00">予約番号
        </text>
        <text text-anchor="middle" x="422" y="-268.8" font-family="Times New Roman,serif" font-size="14.00">
            ReservationId
        </text>
    </g>
<!-- mrs.domain.model.reservation.reservation.Reservation&#45;&gt;mrs.domain.model.reservation.reservation.ReservationId -->
    <g id="edge23" class="edge">
        <title>mrs.domain.model.reservation.reservation.Reservation&#45;&gt;mrs.domain.model.reservation.reservation.ReservationId</title>
        <path fill="none" stroke="black" d="M506.49,-334.83C492.17,-325.71 474.64,-314.54 459.27,-304.74"/>
        <polygon fill="black" stroke="black" points="460.82,-301.58 450.51,-299.16 457.06,-307.49 460.82,-301.58"/>
    </g>
<!-- mrs.domain.model.reservation.reservation.ReservedTime -->
    <g id="node21" class="node">
        <title>mrs.domain.model.reservation.reservation.ReservedTime</title>
        <polygon fill="#eedd82" stroke="black" points="586,-299 488,-299 488,-261 586,-261 586,-299"/>
        <text text-anchor="middle" x="537" y="-283.8" font-family="Times New Roman,serif" font-size="14.00">予約時間
        </text>
        <text text-anchor="middle" x="537" y="-268.8" font-family="Times New Roman,serif" font-size="14.00">
            ReservedTime
        </text>
    </g>
<!-- mrs.domain.model.reservation.reservation.Reservation&#45;&gt;mrs.domain.model.reservation.reservation.ReservedTime -->
    <g id="edge24" class="edge">
        <title>mrs.domain.model.reservation.reservation.Reservation&#45;&gt;mrs.domain.model.reservation.reservation.ReservedTime</title>
        <path fill="none" stroke="black" d="M535.5,-334.83C535.72,-327.13 535.97,-317.97 536.21,-309.42"/>
        <polygon fill="black" stroke="black" points="539.71,-309.51 536.49,-299.41 532.71,-309.31 539.71,-309.51"/>
    </g>
<!-- mrs.domain.model.reservation.reservation.Reservation&#45;&gt;mrs.domain.model.reservation.room.ReservableRoom -->
    <g id="edge25" class="edge">
        <title>mrs.domain.model.reservation.reservation.Reservation&#45;&gt;mrs.domain.model.reservation.room.ReservableRoom</title>
        <path fill="none" stroke="black" d="M493.25,-341.19C449.86,-329.81 381.08,-312.43 327.51,-299.26"/>
        <polygon fill="black" stroke="black" points="328.24,-295.84 317.7,-296.86 326.58,-302.64 328.24,-295.84"/>
    </g>
<!-- mrs.domain.model.reservation.room.ReservableRoomId -->
    <g id="node24" class="node">
        <title>mrs.domain.model.reservation.room.ReservableRoomId</title>
        <polygon fill="#eedd82" stroke="black" points="340,-225 188,-225 188,-187 340,-187 340,-225"/>
        <text text-anchor="middle" x="264" y="-209.8" font-family="Times New Roman,serif" font-size="14.00">
            予約可能会議室ID
        </text>
        <text text-anchor="middle" x="264" y="-194.8" font-family="Times New Roman,serif" font-size="14.00">
            ReservableRoomId
        </text>
    </g>
    <!-- mrs.domain.model.reservation.reservation.Reservation&#45;&gt;mrs.domain.model.reservation.room.ReservableRoomId -->
    <g id="edge26" class="edge">
        <title>mrs.domain.model.reservation.reservation.Reservation&#45;&gt;mrs.domain.model.reservation.room.ReservableRoomId</title>
        <path fill="none" stroke="black"
              d="M493.38,-346.49C457.11,-339.33 404.3,-325.18 365,-299 342.69,-284.14 345.56,-271.33 326,-253 317.84,-245.35 308.41,-237.8 299.41,-231.1"/>
        <polygon fill="black" stroke="black" points="301.45,-228.26 291.31,-225.2 297.33,-233.92 301.45,-228.26"/>
    </g>
    <!-- mrs.domain.model.reservation.reservation.ReservationList -->
    <g id="node19" class="node">
        <title>mrs.domain.model.reservation.reservation.ReservationList</title>
        <polygon fill="#eedd82" stroke="black" points="586,-458 482,-458 482,-420 586,-420 586,-458"/>
        <text text-anchor="middle" x="534" y="-442.8" font-family="Times New Roman,serif" font-size="14.00">予約一覧
        </text>
        <text text-anchor="middle" x="534" y="-427.8" font-family="Times New Roman,serif" font-size="14.00">
            ReservationList
        </text>
    </g>
    <!-- mrs.domain.model.reservation.reservation.ReservationList&#45;&gt;mrs.domain.model.reservation.reservation.Reservation -->
    <g id="edge27" class="edge">
        <title>mrs.domain.model.reservation.reservation.ReservationList&#45;&gt;mrs.domain.model.reservation.reservation.Reservation</title>
        <path fill="none" stroke="black" d="M534.22,-419.99C534.35,-409.3 534.51,-395.5 534.66,-383.37"/>
        <polygon fill="black" stroke="black" points="538.16,-383.3 534.78,-373.26 531.16,-383.22 538.16,-383.3"/>
    </g>
    <!-- mrs.domain.model.reservation.reservation.ReservedDate -->
    <g id="node20" class="node">
        <title>mrs.domain.model.reservation.reservation.ReservedDate</title>
        <polygon fill="#eedd82" stroke="black" points="469.5,-151 374.5,-151 374.5,-113 469.5,-113 469.5,-151"/>
        <text text-anchor="middle" x="422" y="-135.8" font-family="Times New Roman,serif" font-size="14.00">予約日
        </text>
        <text text-anchor="middle" x="422" y="-120.8" font-family="Times New Roman,serif" font-size="14.00">
            ReservedDate
        </text>
    </g>
    <!-- mrs.domain.model.reservation.reservation.ReservedTimeException -->
    <g id="node22" class="node">
        <title>mrs.domain.model.reservation.reservation.ReservedTimeException</title>
        <polygon fill="#eedd82" stroke="black" points="586,-225 432,-225 432,-187 586,-187 586,-225"/>
        <text text-anchor="middle" x="509" y="-209.8" font-family="Times New Roman,serif" font-size="14.00">
            予約時間例外
        </text>
        <text text-anchor="middle" x="509" y="-194.8" font-family="Times New Roman,serif" font-size="14.00">
            ReservedTimeException
        </text>
    </g>
    <!-- mrs.domain.model.reservation.reservation.ReservedTime&#45;&gt;mrs.domain.model.reservation.reservation.ReservedTimeException -->
    <g id="edge28" class="edge">
        <title>mrs.domain.model.reservation.reservation.ReservedTime&#45;&gt;mrs.domain.model.reservation.reservation.ReservedTimeException</title>
        <path fill="none" stroke="black" d="M529.93,-260.83C526.87,-252.96 523.22,-243.57 519.83,-234.85"/>
        <polygon fill="black" stroke="black" points="523.05,-233.46 516.16,-225.41 516.52,-236 523.05,-233.46"/>
    </g>
    <!-- mrs.domain.model.reservation.room.ReservableRoom&#45;&gt;mrs.domain.model.facility.room.MeetingRoom -->
    <g id="edge29" class="edge">
        <title>mrs.domain.model.reservation.room.ReservableRoom&#45;&gt;mrs.domain.model.facility.room.MeetingRoom
        </title>
        <path fill="none" stroke="black" d="M206.98,-299.04C187.18,-308.48 163.74,-320.13 144.3,-330.19"/>
        <polygon fill="black" stroke="black" points="142.64,-327.11 135.38,-334.83 145.87,-333.31 142.64,-327.11"/>
    </g>
    <!-- mrs.domain.model.reservation.room.ReservableRoom&#45;&gt;mrs.domain.model.reservation.reservation.Reservation -->
    <g id="edge30" class="edge">
        <title>mrs.domain.model.reservation.room.ReservableRoom&#45;&gt;mrs.domain.model.reservation.reservation.Reservation</title>
        <path fill="none" stroke="black" d="M314.57,-299C365.97,-312.27 436.42,-329.94 483.76,-341.39"/>
        <polygon fill="black" stroke="black" points="482.95,-344.8 493.49,-343.73 484.59,-337.99 482.95,-344.8"/>
    </g>
    <!-- mrs.domain.model.reservation.room.ReservableRoom&#45;&gt;mrs.domain.model.reservation.room.ReservableRoomId -->
    <g id="edge31" class="edge">
        <title>mrs.domain.model.reservation.room.ReservableRoom&#45;&gt;mrs.domain.model.reservation.room.ReservableRoomId</title>
        <path fill="none" stroke="black" d="M252.79,-260.83C254.39,-253.13 256.3,-243.97 258.08,-235.42"/>
        <polygon fill="black" stroke="black" points="261.55,-235.92 260.16,-225.41 254.7,-234.49 261.55,-235.92"/>
    </g>
    <!-- mrs.domain.model.reservation.room.ReservableRoomId&#45;&gt;mrs.domain.model.facility.room.RoomId -->
    <g id="edge32" class="edge">
        <title>mrs.domain.model.reservation.room.ReservableRoomId&#45;&gt;mrs.domain.model.facility.room.RoomId</title>
        <path fill="none" stroke="black" d="M223.12,-186.83C201.45,-177.2 174.66,-165.29 151.79,-155.13"/>
        <polygon fill="black" stroke="black" points="153.15,-151.9 142.59,-151.04 150.3,-158.3 153.15,-151.9"/>
    </g>
<!-- mrs.domain.model.reservation.room.ReservableRoomId&#45;&gt;mrs.domain.model.reservation.reservation.ReservedDate -->
    <g id="edge33" class="edge">
        <title>mrs.domain.model.reservation.room.ReservableRoomId&#45;&gt;mrs.domain.model.reservation.reservation.ReservedDate</title>
        <path fill="none" stroke="black" d="M303.87,-186.83C324.91,-177.24 350.9,-165.4 373.14,-155.27"/>
        <polygon fill="black" stroke="black" points="374.77,-158.37 382.42,-151.04 371.87,-152 374.77,-158.37"/>
    </g>
<!-- mrs.domain.model.reservation.room.ReservableRoomList -->
    <g id="node25" class="node">
        <title>mrs.domain.model.reservation.room.ReservableRoomList</title>
        <polygon fill="#eedd82" stroke="black" points="350,-373 178,-373 178,-335 350,-335 350,-373"/>
        <text text-anchor="middle" x="264" y="-357.8" font-family="Times New Roman,serif" font-size="14.00">
            予約可能会議室一覧
        </text>
        <text text-anchor="middle" x="264" y="-342.8" font-family="Times New Roman,serif" font-size="14.00">
            ReservableRoomList
        </text>
    </g>
<!-- mrs.domain.model.reservation.room.ReservableRoomList&#45;&gt;mrs.domain.model.reservation.room.ReservableRoom -->
    <g id="edge34" class="edge">
        <title>mrs.domain.model.reservation.room.ReservableRoomList&#45;&gt;mrs.domain.model.reservation.room.ReservableRoom</title>
        <path fill="none" stroke="black" d="M260.21,-334.83C258.61,-327.13 256.7,-317.97 254.92,-309.42"/>
        <polygon fill="black" stroke="black" points="258.3,-308.49 252.84,-299.41 251.45,-309.92 258.3,-308.49"/>
    </g>
<!-- mrs.domain.model.user.gust.Gust&#45;&gt;mrs.domain.model.auth.user.Password -->
    <g id="edge35" class="edge">
        <title>mrs.domain.model.user.gust.Gust&#45;&gt;mrs.domain.model.auth.user.Password</title>
        <path fill="none" stroke="black"
              d="M1538.46,-504.74C1520.85,-478.72 1484.57,-431.95 1440,-412 1408.72,-398 1317.97,-416.34 1286,-404 1272.5,-398.79 1259.75,-389.31 1249.51,-380.06"/>
        <polygon fill="black" stroke="black" points="1251.85,-377.46 1242.19,-373.11 1247.03,-382.53 1251.85,-377.46"/>
    </g>
<!-- mrs.domain.model.user.gust.Gust&#45;&gt;mrs.domain.model.auth.user.RoleName -->
    <g id="edge36" class="edge">
        <title>mrs.domain.model.user.gust.Gust&#45;&gt;mrs.domain.model.auth.user.RoleName</title>
        <path fill="none" stroke="black"
              d="M1584.08,-505.29C1590.89,-502.21 1598.08,-499.27 1605,-497 1622.64,-491.21 1634.2,-503.33 1646,-489 1667.76,-462.59 1666.72,-439.23 1646,-412 1628.44,-388.93 1555.56,-372.78 1501.44,-363.71"/>
        <polygon fill="black" stroke="black" points="1502,-360.25 1491.57,-362.09 1500.87,-367.16 1502,-360.25"/>
    </g>
<!-- mrs.domain.model.user.gust.Gust&#45;&gt;mrs.domain.model.auth.user.User -->
    <g id="edge37" class="edge">
        <title>mrs.domain.model.user.gust.Gust&#45;&gt;mrs.domain.model.auth.user.User</title>
        <path fill="none" stroke="black"
              d="M1522.15,-504.78C1516.35,-501.71 1510.13,-498.9 1504,-497 1464.8,-484.85 1452.62,-494.91 1412,-489 1343.47,-479.03 1264.98,-461.81 1217.22,-450.66"/>
        <polygon fill="black" stroke="black" points="1217.75,-447.19 1207.21,-448.31 1216.15,-454.01 1217.75,-447.19"/>
    </g>
<!-- mrs.domain.model.user.gust.Gust&#45;&gt;mrs.domain.model.auth.user.UserId -->
    <g id="edge38" class="edge">
        <title>mrs.domain.model.user.gust.Gust&#45;&gt;mrs.domain.model.auth.user.UserId</title>
        <path fill="none" stroke="black"
              d="M1522.09,-504.96C1516.3,-501.87 1510.1,-499.02 1504,-497 1476.78,-488 1467.93,-495.47 1440,-489 1337.44,-465.23 1319.4,-431.76 1216,-412 1178.42,-404.82 1079.73,-417.68 1044,-404 1030.59,-398.87 1017.93,-389.49 1007.72,-380.3"/>
        <polygon fill="black" stroke="black" points="1010.09,-377.73 1000.43,-373.39 1005.28,-382.81 1010.09,-377.73"/>
    </g>
<!-- mrs.domain.model.user.gust.Gust&#45;&gt;mrs.domain.model.auth.user.UserName -->
    <g id="edge39" class="edge">
        <title>mrs.domain.model.user.gust.Gust&#45;&gt;mrs.domain.model.auth.user.UserName</title>
        <path fill="none" stroke="black"
              d="M1563.11,-504.74C1565.94,-499.85 1568.52,-494.42 1570,-489 1578.99,-455.98 1593.68,-436.7 1570,-412 1555.38,-396.75 1399.26,-412.7 1380,-404 1368.98,-399.02 1359.24,-390.17 1351.53,-381.34"/>
        <polygon fill="black" stroke="black" points="1354.06,-378.9 1345.04,-373.35 1348.63,-383.32 1354.06,-378.9"/>
    </g>
<!-- mrs.domain.model.user.gust.Gust&#45;&gt;mrs.domain.model.contact.ContactPerson -->
    <g id="edge40" class="edge">
        <title>mrs.domain.model.user.gust.Gust&#45;&gt;mrs.domain.model.contact.ContactPerson</title>
        <path fill="none" stroke="black"
              d="M1523.25,-504.94C1517.16,-501.68 1510.56,-498.76 1504,-497 1465.16,-486.55 818.38,-501.05 780,-489 763.91,-483.95 748.17,-473.99 735.53,-464.37"/>
        <polygon fill="black" stroke="black" points="737.7,-461.63 727.7,-458.14 733.35,-467.11 737.7,-461.63"/>
    </g>
<!-- mrs.domain.model.user.member.Member&#45;&gt;mrs.domain.model.auth.user.Password -->
    <g id="edge41" class="edge">
        <title>mrs.domain.model.user.member.Member&#45;&gt;mrs.domain.model.auth.user.Password</title>
        <path fill="none" stroke="black"
              d="M877.77,-510.86C890.75,-506.15 905.98,-500.96 920,-497 936.19,-492.42 942.28,-497.15 957,-489 998.79,-465.86 988.56,-431.89 1032,-412 1058.92,-399.68 1137.38,-414.66 1165,-404 1178.63,-398.74 1191.58,-389.24 1202.01,-380.01"/>
        <polygon fill="black" stroke="black" points="1204.53,-382.44 1209.47,-373.07 1199.76,-377.32 1204.53,-382.44"/>
    </g>
<!-- mrs.domain.model.user.member.Member&#45;&gt;mrs.domain.model.auth.user.RoleName -->
    <g id="edge42" class="edge">
        <title>mrs.domain.model.user.member.Member&#45;&gt;mrs.domain.model.auth.user.RoleName</title>
        <path fill="none" stroke="black"
              d="M877.51,-509.75C890.44,-504.88 905.72,-499.87 920,-497 949.68,-491.04 1028.51,-501.68 1056,-489 1099.1,-469.13 1086.63,-431.29 1130,-412 1155.39,-400.7 1353.97,-413.75 1380,-404 1393.45,-398.96 1406.12,-389.6 1416.32,-380.4"/>
        <polygon fill="black" stroke="black" points="1418.77,-382.9 1423.61,-373.47 1413.95,-377.82 1418.77,-382.9"/>
    </g>
<!-- mrs.domain.model.user.member.Member&#45;&gt;mrs.domain.model.auth.user.User -->
    <g id="edge43" class="edge">
        <title>mrs.domain.model.user.member.Member&#45;&gt;mrs.domain.model.auth.user.User</title>
        <path fill="none" stroke="black"
              d="M877.85,-509.5C890.71,-504.67 905.83,-499.74 920,-497 959.75,-489.32 1063.62,-501.89 1102,-489 1117.57,-483.77 1132.84,-474.03 1145.19,-464.6"/>
        <polygon fill="black" stroke="black" points="1147.61,-467.15 1153.26,-458.18 1143.25,-461.67 1147.61,-467.15"/>
    </g>
<!-- mrs.domain.model.user.member.Member&#45;&gt;mrs.domain.model.auth.user.UserId -->
    <g id="edge44" class="edge">
        <title>mrs.domain.model.user.member.Member&#45;&gt;mrs.domain.model.auth.user.UserId</title>
        <path fill="none" stroke="black"
              d="M877.71,-513.94C892.03,-508.57 908.32,-500.51 920,-489 950.06,-459.38 967.85,-412.85 976.76,-383.15"/>
        <polygon fill="black" stroke="black" points="980.17,-383.97 979.55,-373.4 973.44,-382.05 980.17,-383.97"/>
    </g>
<!-- mrs.domain.model.user.member.Member&#45;&gt;mrs.domain.model.auth.user.UserName -->
    <g id="edge45" class="edge">
        <title>mrs.domain.model.user.member.Member&#45;&gt;mrs.domain.model.auth.user.UserName</title>
        <path fill="none" stroke="black"
              d="M877.55,-509.97C890.5,-505.14 905.76,-500.09 920,-497 939.41,-492.79 991.38,-498.16 1009,-489 1048.73,-468.33 1033.75,-431.63 1074,-412 1116.37,-391.34 1242.99,-423.31 1286,-404 1297.03,-399.05 1306.77,-390.19 1314.48,-381.36"/>
        <polygon fill="black" stroke="black" points="1317.38,-383.34 1320.97,-373.37 1311.95,-378.93 1317.38,-383.34"/>
    </g>
<!-- mrs.domain.model.user.member.Member&#45;&gt;mrs.domain.model.contact.ContactPerson -->
    <g id="edge46" class="edge">
        <title>mrs.domain.model.user.member.Member&#45;&gt;mrs.domain.model.contact.ContactPerson</title>
        <path fill="none" stroke="black"
              d="M814.35,-507.68C803.32,-502.09 790.97,-495.52 780,-489 767.03,-481.29 753.24,-472.14 741.23,-463.85"/>
        <polygon fill="black" stroke="black" points="743.04,-460.85 732.83,-458 739.04,-466.59 743.04,-460.85"/>
    </g>
<!-- mrs.domain.model.user.member.Member&#45;&gt;mrs.domain.model.reservation.reservation.Reservation -->
    <g id="edge47" class="edge">
        <title>mrs.domain.model.user.member.Member&#45;&gt;mrs.domain.model.reservation.reservation.Reservation</title>
        <path fill="none" stroke="black"
              d="M874.71,-504.89C879.69,-500.35 884.17,-495.03 887,-489 901.55,-458.03 909.18,-438.06 887,-412 849.08,-367.45 675.26,-357.61 586.9,-355.51"/>
        <polygon fill="black" stroke="black" points="586.89,-352.01 576.82,-355.3 586.74,-359.01 586.89,-352.01"/>
    </g>
<!-- mrs.domain.model.user.member.MemberId -->
    <g id="node28" class="node">
        <title>mrs.domain.model.user.member.MemberId</title>
        <polygon fill="#eedd82" stroke="black" points="878,-458 792,-458 792,-420 878,-420 878,-458"/>
        <text text-anchor="middle" x="835" y="-442.8" font-family="Times New Roman,serif" font-size="14.00">会員番号
        </text>
        <text text-anchor="middle" x="835" y="-427.8" font-family="Times New Roman,serif" font-size="14.00">MemberId
        </text>
    </g>
<!-- mrs.domain.model.user.member.Member&#45;&gt;mrs.domain.model.user.member.MemberId -->
    <g id="edge48" class="edge">
        <title>mrs.domain.model.user.member.Member&#45;&gt;mrs.domain.model.user.member.MemberId</title>
        <path fill="none" stroke="black" d="M843.61,-504.99C842.2,-494.3 840.37,-480.5 838.76,-468.37"/>
        <polygon fill="black" stroke="black" points="842.2,-467.71 837.42,-458.26 835.26,-468.63 842.2,-467.71"/>
    </g>
<!-- mrs.domain.model.user.staff.Staff -->
    <g id="node29" class="node">
        <title>mrs.domain.model.user.staff.Staff</title>
        <polygon fill="#eedd82" stroke="black" points="1703,-543 1617,-543 1617,-505 1703,-505 1703,-543"/>
        <text text-anchor="middle" x="1660" y="-527.8" font-family="Times New Roman,serif" font-size="14.00">スタッフ</text>
        <text text-anchor="middle" x="1660" y="-512.8" font-family="Times New Roman,serif" font-size="14.00">Staff
        </text>
    </g>
<!-- mrs.domain.model.user.staff.Staff&#45;&gt;mrs.domain.model.auth.user.Password -->
    <g id="edge49" class="edge">
        <title>mrs.domain.model.user.staff.Staff&#45;&gt;mrs.domain.model.auth.user.Password</title>
        <path fill="none" stroke="black"
              d="M1657.45,-505C1652.75,-479.32 1640.07,-432.95 1608,-412 1593.02,-402.21 1302.78,-410.22 1286,-404 1272.33,-398.94 1259.48,-389.38 1249.21,-380.04"/>
        <polygon fill="black" stroke="black" points="1251.53,-377.41 1241.89,-373.02 1246.68,-382.46 1251.53,-377.41"/>
    </g>
<!-- mrs.domain.model.user.staff.Staff&#45;&gt;mrs.domain.model.auth.user.RoleName -->
    <g id="edge50" class="edge">
        <title>mrs.domain.model.user.staff.Staff&#45;&gt;mrs.domain.model.auth.user.RoleName</title>
        <path fill="none" stroke="black"
              d="M1703.06,-519.71C1723.84,-515.69 1747.03,-507.11 1760,-489 1779.93,-461.18 1781.97,-438.23 1760,-412 1727.74,-373.48 1585.53,-360.97 1501.93,-356.92"/>
        <polygon fill="black" stroke="black" points="1501.94,-353.42 1491.79,-356.46 1501.62,-360.41 1501.94,-353.42"/>
    </g>
<!-- mrs.domain.model.user.staff.Staff&#45;&gt;mrs.domain.model.auth.user.User -->
    <g id="edge51" class="edge">
        <title>mrs.domain.model.user.staff.Staff&#45;&gt;mrs.domain.model.auth.user.User</title>
        <path fill="none" stroke="black"
              d="M1620.66,-504.88C1612.65,-501.8 1604.16,-498.97 1596,-497 1556.1,-487.39 1544.76,-493.79 1504,-489 1400.98,-476.91 1280.64,-457.84 1217.26,-447.42"/>
        <polygon fill="black" stroke="black" points="1217.65,-443.94 1207.22,-445.76 1216.51,-450.84 1217.65,-443.94"/>
    </g>
<!-- mrs.domain.model.user.staff.Staff&#45;&gt;mrs.domain.model.auth.user.UserId -->
    <g id="edge52" class="edge">
        <title>mrs.domain.model.user.staff.Staff&#45;&gt;mrs.domain.model.auth.user.UserId</title>
        <path fill="none" stroke="black"
              d="M1630.08,-504.99C1622.64,-500.1 1614.85,-494.6 1608,-489 1570.78,-458.56 1576.21,-430.91 1532,-412 1482.14,-390.67 1094.93,-422.63 1044,-404 1030.31,-398.99 1017.46,-389.44 1007.19,-380.1"/>
        <polygon fill="black" stroke="black" points="1009.5,-377.47 999.87,-373.06 1004.66,-382.52 1009.5,-377.47"/>
    </g>
<!-- mrs.domain.model.user.staff.Staff&#45;&gt;mrs.domain.model.auth.user.UserName -->
    <g id="edge53" class="edge">
        <title>mrs.domain.model.user.staff.Staff&#45;&gt;mrs.domain.model.auth.user.UserName</title>
        <path fill="none" stroke="black"
              d="M1675.95,-504.7C1679.25,-499.9 1682.25,-494.51 1684,-489 1694.35,-456.38 1707.88,-436.51 1684,-412 1672.21,-399.9 1395.45,-410.83 1380,-404 1368.94,-399.11 1359.2,-390.27 1351.49,-381.43"/>
        <polygon fill="black" stroke="black" points="1354.02,-378.99 1345.01,-373.43 1348.58,-383.4 1354.02,-378.99"/>
    </g>
<!-- mrs.domain.model.user.staff.Staff&#45;&gt;mrs.domain.model.reservation.reservation.Reservation -->
    <g id="edge54" class="edge">
        <title>mrs.domain.model.user.staff.Staff&#45;&gt;mrs.domain.model.reservation.reservation.Reservation</title>
        <path fill="none" stroke="black"
              d="M1620.26,-504.99C1612.35,-501.94 1604.01,-499.09 1596,-497 1582.13,-493.38 1543.21,-497.94 1532,-489 1503.53,-466.3 1533.68,-433.09 1504,-412 1490.78,-402.6 936.18,-405.14 920,-404 800.12,-395.58 660.4,-375.11 586.68,-363.46"/>
        <polygon fill="black" stroke="black" points="587.15,-359.99 576.72,-361.88 586.05,-366.91 587.15,-359.99"/>
    </g>
</g>
</svg>
