<?xml version="1.0" encoding="UTF-8" standalone="no"?>
<!DOCTYPE svg PUBLIC "-//W3C//DTD SVG 1.1//EN"
        "http://www.w3.org/Graphics/SVG/1.1/DTD/svg11.dtd">
<!-- Generated by graphviz version 3.0.0 (20220226.1711)
 -->
<!-- Title: ビジネスルール関連図 Pages: 1 -->
<svg width="409pt" height="277pt"
     viewBox="0.00 0.00 409.00 277.00" xmlns="http://www.w3.org/2000/svg">
    <g id="graph0" class="graph" transform="scale(1 1) rotate(0) translate(4 273)">
        <title>ビジネスルール関連図</title>
        <polygon fill="white" stroke="transparent" points="-4,4 -4,-273 405,-273 405,4 -4,4"/>
        <text text-anchor="middle" x="200.5" y="-7.8" font-family="Times New Roman,serif" font-size="14.00">ビジネスルール関連図
        </text>
        <g id="clust2" class="cluster">
            <title>cluster_mrs.domain.model.reservation</title>
            <polygon fill="lemonchiffon" stroke="#eedd82" stroke-width="2"
                     points="169,-186 169,-261 269,-261 269,-186 169,-186"/>
            <text text-anchor="middle" x="219" y="-245.8" font-family="Times New Roman,serif" font-size="14.00">
                reservation
            </text>
        </g>
        <g id="clust1" class="cluster">
            <title>cluster_mrs.domain.model</title>
            <polygon fill="lemonchiffon" stroke="#eedd82" stroke-width="2"
                     points="8,-31 8,-178 129,-178 129,-31 8,-31"/>
            <text text-anchor="middle" x="68.5" y="-162.8" font-family="Times New Roman,serif" font-size="14.00">
                mrs.domain.model
            </text>
        </g>
        <g id="clust3" class="cluster">
            <title>cluster_mrs.domain.model.room</title>
            <polygon fill="lemonchiffon" stroke="#eedd82" stroke-width="2"
                     points="137,-31 137,-178 393,-178 393,-31 137,-31"/>
            <text text-anchor="middle" x="265" y="-162.8" font-family="Times New Roman,serif" font-size="14.00">room
            </text>
        </g>
        <!-- mrs.domain.model.RoleName -->
        <g id="node1" class="node">
            <title>mrs.domain.model.RoleName</title>
            <polygon fill="#eedd82" stroke="black" points="120.5,-75 45.5,-75 45.5,-39 120.5,-39 120.5,-75"/>
            <text text-anchor="middle" x="83" y="-53.3" font-family="Times New Roman,serif" font-size="14.00">RoleName
            </text>
        </g>
        <!-- mrs.domain.model.User -->
        <g id="node2" class="node">
            <title>mrs.domain.model.User</title>
            <polygon fill="#eedd82" stroke="black" points="115,-147 61,-147 61,-111 115,-111 115,-147"/>
            <text text-anchor="middle" x="88" y="-125.3" font-family="Times New Roman,serif" font-size="14.00">User
            </text>
        </g>
        <!-- mrs.domain.model.User&#45;&gt;mrs.domain.model.RoleName -->
        <g id="edge6" class="edge">
            <title>mrs.domain.model.User&#45;&gt;mrs.domain.model.RoleName</title>
            <path fill="none" stroke="black" d="M86.76,-110.7C86.21,-102.98 85.55,-93.71 84.94,-85.11"/>
            <polygon fill="black" stroke="black" points="88.43,-84.83 84.22,-75.1 81.44,-85.33 88.43,-84.83"/>
        </g>
        <!-- mrs.domain.model.reservation.Reservation -->
        <g id="node3" class="node">
            <title>mrs.domain.model.reservation.Reservation</title>
            <polygon fill="#eedd82" stroke="black" points="260.5,-230 177.5,-230 177.5,-194 260.5,-194 260.5,-230"/>
            <text text-anchor="middle" x="219" y="-208.3" font-family="Times New Roman,serif" font-size="14.00">
                Reservation
            </text>
        </g>
        <!-- mrs.domain.model.reservation.Reservation&#45;&gt;mrs.domain.model.User -->
        <g id="edge1" class="edge">
            <title>mrs.domain.model.reservation.Reservation&#45;&gt;mrs.domain.model.User</title>
            <path fill="none" stroke="black"
                  d="M177.34,-199.27C162.62,-194.05 146.4,-187.01 133,-178 123.66,-171.72 114.85,-163.17 107.54,-155.02"/>
            <polygon fill="black" stroke="black" points="110.18,-152.73 101.02,-147.42 104.87,-157.28 110.18,-152.73"/>
        </g>
        <!-- mrs.domain.model.room.ReservableRoom -->
        <g id="node5" class="node">
            <title>mrs.domain.model.room.ReservableRoom</title>
            <polygon fill="#eedd82" stroke="black" points="275.5,-147 162.5,-147 162.5,-111 275.5,-111 275.5,-147"/>
            <text text-anchor="middle" x="219" y="-125.3" font-family="Times New Roman,serif" font-size="14.00">
                ReservableRoom
            </text>
        </g>
        <!-- mrs.domain.model.reservation.Reservation&#45;&gt;mrs.domain.model.room.ReservableRoom -->
        <g id="edge2" class="edge">
            <title>mrs.domain.model.reservation.Reservation&#45;&gt;mrs.domain.model.room.ReservableRoom</title>
            <path fill="none" stroke="black" d="M219,-193.82C219,-183.19 219,-169.31 219,-157.2"/>
            <polygon fill="black" stroke="black" points="222.5,-157.15 219,-147.15 215.5,-157.15 222.5,-157.15"/>
        </g>
        <!-- mrs.domain.model.room.ReservableRoomId -->
        <g id="node6" class="node">
            <title>mrs.domain.model.room.ReservableRoomId</title>
            <polygon fill="#eedd82" stroke="black" points="384.5,-75 259.5,-75 259.5,-39 384.5,-39 384.5,-75"/>
            <text text-anchor="middle" x="322" y="-53.3" font-family="Times New Roman,serif" font-size="14.00">
                ReservableRoomId
            </text>
        </g>
        <!-- mrs.domain.model.reservation.Reservation&#45;&gt;mrs.domain.model.room.ReservableRoomId -->
        <g id="edge3" class="edge">
            <title>mrs.domain.model.reservation.Reservation&#45;&gt;mrs.domain.model.room.ReservableRoomId</title>
            <path fill="none" stroke="black"
                  d="M260.65,-196.06C269.3,-191.37 277.69,-185.43 284,-178 306.5,-151.5 315.71,-111.59 319.46,-85.18"/>
            <polygon fill="black" stroke="black" points="322.95,-85.46 320.72,-75.1 316,-84.59 322.95,-85.46"/>
        </g>
        <!-- mrs.domain.model.room.MeetingRoom -->
        <g id="node4" class="node">
            <title>mrs.domain.model.room.MeetingRoom</title>
            <polygon fill="#eedd82" stroke="black" points="241,-75 145,-75 145,-39 241,-39 241,-75"/>
            <text text-anchor="middle" x="193" y="-53.3" font-family="Times New Roman,serif" font-size="14.00">
                MeetingRoom
            </text>
        </g>
        <!-- mrs.domain.model.room.ReservableRoom&#45;&gt;mrs.domain.model.room.MeetingRoom -->
        <g id="edge4" class="edge">
            <title>mrs.domain.model.room.ReservableRoom&#45;&gt;mrs.domain.model.room.MeetingRoom</title>
            <path fill="none" stroke="black" d="M212.57,-110.7C209.64,-102.81 206.11,-93.3 202.86,-84.55"/>
            <polygon fill="black" stroke="black" points="206.12,-83.26 199.35,-75.1 199.55,-85.7 206.12,-83.26"/>
        </g>
        <!-- mrs.domain.model.room.ReservableRoom&#45;&gt;mrs.domain.model.room.ReservableRoomId -->
        <g id="edge5" class="edge">
            <title>mrs.domain.model.room.ReservableRoom&#45;&gt;mrs.domain.model.room.ReservableRoomId</title>
            <path fill="none" stroke="black" d="M244.2,-110.88C257.41,-101.89 273.79,-90.76 288.11,-81.03"/>
            <polygon fill="black" stroke="black" points="290.4,-83.71 296.71,-75.19 286.47,-77.92 290.4,-83.71"/>
        </g>
    </g>
</svg>
