<?xml version="1.0" encoding="UTF-8" standalone="no"?>
<!DOCTYPE svg PUBLIC "-//W3C//DTD SVG 1.1//EN"
        "http://www.w3.org/Graphics/SVG/1.1/DTD/svg11.dtd">
<!-- Generated by graphviz version 3.0.0 (20220226.1711)
 -->
<!-- Title: ビジネスルール関連図 Pages: 1 -->
<svg width="1578pt" height="588pt"
     viewBox="0.00 0.00 1578.00 588.00" xmlns="http://www.w3.org/2000/svg">
    <g id="graph0" class="graph" transform="scale(1 1) rotate(0) translate(4 584)">
        <title>ビジネスルール関連図</title>
        <polygon fill="white" stroke="transparent" points="-4,4 -4,-584 1574,-584 1574,4 -4,4"/>
        <text text-anchor="middle" x="785" y="-7.8" font-family="Times New Roman,serif" font-size="14.00">ビジネスルール関連図
        </text>
        <g id="clust1" class="cluster">
            <title>cluster_mrs.domain.model.auth.user</title>
            <polygon fill="lemonchiffon" stroke="#eedd82" stroke-width="2"
                     points="8,-252 8,-572 580,-572 580,-252 8,-252"/>
            <text text-anchor="middle" x="294" y="-556.8" font-family="Times New Roman,serif" font-size="14.00">
                auth.user
            </text>
        </g>
        <g id="clust2" class="cluster">
            <title>cluster_mrs.domain.model.auth.user.administrator</title>
            <polygon fill="lemonchiffon" stroke="#eedd82" stroke-width="2"
                     points="791,-495 791,-572 934,-572 934,-495 791,-495"/>
            <text text-anchor="middle" x="862.5" y="-556.8" font-family="Times New Roman,serif" font-size="14.00">
                auth.user.administrator
            </text>
        </g>
        <g id="clust3" class="cluster">
            <title>cluster_mrs.domain.model.auth.user.member</title>
            <polygon fill="lemonchiffon" stroke="#eedd82" stroke-width="2"
                     points="588,-410 588,-572 704,-572 704,-410 588,-410"/>
            <text text-anchor="middle" x="646" y="-556.8" font-family="Times New Roman,serif" font-size="14.00">
                auth.user.member
            </text>
        </g>
        <g id="clust4" class="cluster">
            <title>cluster_mrs.domain.model.facility.room</title>
            <polygon fill="lemonchiffon" stroke="#eedd82" stroke-width="2"
                     points="1426,-31 1426,-402 1562,-402 1562,-31 1426,-31"/>
            <text text-anchor="middle" x="1494" y="-386.8" font-family="Times New Roman,serif" font-size="14.00">
                facility.room
            </text>
        </g>
        <g id="clust6" class="cluster">
            <title>cluster_mrs.domain.model.reservation.room</title>
            <polygon fill="lemonchiffon" stroke="#eedd82" stroke-width="2"
                     points="1230,-177 1230,-402 1418,-402 1418,-177 1230,-177"/>
            <text text-anchor="middle" x="1324" y="-386.8" font-family="Times New Roman,serif" font-size="14.00">
                reservation.room
            </text>
        </g>
        <g id="clust5" class="cluster">
            <title>cluster_mrs.domain.model.reservation.reservation</title>
            <polygon fill="lemonchiffon" stroke="#eedd82" stroke-width="2"
                     points="994,-103 994,-487 1222,-487 1222,-103 994,-103"/>
            <text text-anchor="middle" x="1108" y="-471.8" font-family="Times New Roman,serif" font-size="14.00">
                reservation.reservation
            </text>
        </g>
        <!-- mrs.domain.model.auth.user.Password -->
        <g id="node1" class="node">
            <title>mrs.domain.model.auth.user.Password</title>
            <polygon fill="#eedd82" stroke="black" points="478.5,-371 375.5,-371 375.5,-333 478.5,-333 478.5,-371"/>
            <text text-anchor="middle" x="427" y="-355.8" font-family="Times New Roman,serif" font-size="14.00">パスワード
            </text>
            <text text-anchor="middle" x="427" y="-340.8" font-family="Times New Roman,serif" font-size="14.00">
                Password
            </text>
        </g>
        <!-- mrs.domain.model.auth.user.PasswordException -->
        <g id="node2" class="node">
            <title>mrs.domain.model.auth.user.PasswordException</title>
            <polygon fill="#eedd82" stroke="black" points="499,-296 371,-296 371,-260 499,-260 499,-296"/>
            <text text-anchor="middle" x="435" y="-274.3" font-family="Times New Roman,serif" font-size="14.00">
                PasswordException
            </text>
        </g>
        <!-- mrs.domain.model.auth.user.Password&#45;&gt;mrs.domain.model.auth.user.PasswordException -->
        <g id="edge14" class="edge">
            <title>mrs.domain.model.auth.user.Password&#45;&gt;mrs.domain.model.auth.user.PasswordException</title>
            <path fill="none" stroke="black" d="M429.02,-332.83C429.9,-324.89 430.95,-315.41 431.93,-306.63"/>
            <polygon fill="black" stroke="black" points="435.44,-306.74 433.06,-296.42 428.48,-305.97 435.44,-306.74"/>
        </g>
        <!-- mrs.domain.model.auth.user.RoleName -->
        <g id="node3" class="node">
            <title>mrs.domain.model.auth.user.RoleName</title>
            <polygon fill="#eedd82" stroke="black" points="236.5,-371 133.5,-371 133.5,-333 236.5,-333 236.5,-371"/>
            <text text-anchor="middle" x="185" y="-355.8" font-family="Times New Roman,serif" font-size="14.00">利用者区分
            </text>
            <text text-anchor="middle" x="185" y="-340.8" font-family="Times New Roman,serif" font-size="14.00">
                RoleName
            </text>
        </g>
        <!-- mrs.domain.model.auth.user.User -->
        <g id="node4" class="node">
            <title>mrs.domain.model.auth.user.User</title>
            <polygon fill="#eedd82" stroke="black" points="461,-456 393,-456 393,-418 461,-418 461,-456"/>
            <text text-anchor="middle" x="427" y="-440.8" font-family="Times New Roman,serif" font-size="14.00">利用者
            </text>
            <text text-anchor="middle" x="427" y="-425.8" font-family="Times New Roman,serif" font-size="14.00">User
            </text>
        </g>
        <!-- mrs.domain.model.auth.user.User&#45;&gt;mrs.domain.model.auth.user.Password -->
        <g id="edge15" class="edge">
            <title>mrs.domain.model.auth.user.User&#45;&gt;mrs.domain.model.auth.user.Password</title>
            <path fill="none" stroke="black" d="M427,-417.99C427,-407.3 427,-393.5 427,-381.37"/>
            <polygon fill="black" stroke="black" points="430.5,-381.26 427,-371.26 423.5,-381.26 430.5,-381.26"/>
        </g>
        <!-- mrs.domain.model.auth.user.User&#45;&gt;mrs.domain.model.auth.user.RoleName -->
        <g id="edge16" class="edge">
            <title>mrs.domain.model.auth.user.User&#45;&gt;mrs.domain.model.auth.user.RoleName</title>
            <path fill="none" stroke="black"
                  d="M392.94,-434.66C355.18,-432.05 293.25,-424.41 245,-402 232.3,-396.1 220,-386.89 209.88,-378.04"/>
            <polygon fill="black" stroke="black" points="212.01,-375.25 202.26,-371.09 207.29,-380.42 212.01,-375.25"/>
        </g>
        <!-- mrs.domain.model.auth.user.UserException -->
        <g id="node6" class="node">
            <title>mrs.domain.model.auth.user.UserException</title>
            <polygon fill="#eedd82" stroke="black" points="115.5,-370 16.5,-370 16.5,-334 115.5,-334 115.5,-370"/>
            <text text-anchor="middle" x="66" y="-348.3" font-family="Times New Roman,serif" font-size="14.00">
                UserException
            </text>
        </g>
        <!-- mrs.domain.model.auth.user.User&#45;&gt;mrs.domain.model.auth.user.UserException -->
        <g id="edge17" class="edge">
            <title>mrs.domain.model.auth.user.User&#45;&gt;mrs.domain.model.auth.user.UserException</title>
            <path fill="none" stroke="black"
                  d="M392.98,-434.67C324.34,-431.57 171.71,-422.54 124,-402 110.82,-396.32 98.35,-386.61 88.39,-377.32"/>
            <polygon fill="black" stroke="black" points="90.55,-374.55 80.96,-370.05 85.65,-379.55 90.55,-374.55"/>
        </g>
        <!-- mrs.domain.model.auth.user.UserId -->
        <g id="node7" class="node">
            <title>mrs.domain.model.auth.user.UserId</title>
            <polygon fill="#eedd82" stroke="black" points="357.5,-371 254.5,-371 254.5,-333 357.5,-333 357.5,-371"/>
            <text text-anchor="middle" x="306" y="-355.8" font-family="Times New Roman,serif" font-size="14.00">利用者番号
            </text>
            <text text-anchor="middle" x="306" y="-340.8" font-family="Times New Roman,serif" font-size="14.00">UserId
            </text>
        </g>
        <!-- mrs.domain.model.auth.user.User&#45;&gt;mrs.domain.model.auth.user.UserId -->
        <g id="edge18" class="edge">
            <title>mrs.domain.model.auth.user.User&#45;&gt;mrs.domain.model.auth.user.UserId</title>
            <path fill="none" stroke="black"
                  d="M392.8,-418.33C383.89,-413.35 374.42,-407.72 366,-402 355.22,-394.68 344.01,-385.88 334.23,-377.77"/>
            <polygon fill="black" stroke="black" points="336.3,-374.94 326.4,-371.17 331.79,-380.3 336.3,-374.94"/>
        </g>
        <!-- mrs.domain.model.auth.user.UserName -->
        <g id="node9" class="node">
            <title>mrs.domain.model.auth.user.UserName</title>
            <polygon fill="#eedd82" stroke="black" points="571.5,-371 496.5,-371 496.5,-333 571.5,-333 571.5,-371"/>
            <text text-anchor="middle" x="534" y="-355.8" font-family="Times New Roman,serif" font-size="14.00">氏名
            </text>
            <text text-anchor="middle" x="534" y="-340.8" font-family="Times New Roman,serif" font-size="14.00">
                UserName
            </text>
        </g>
        <!-- mrs.domain.model.auth.user.User&#45;&gt;mrs.domain.model.auth.user.UserName -->
        <g id="edge19" class="edge">
            <title>mrs.domain.model.auth.user.User&#45;&gt;mrs.domain.model.auth.user.UserName</title>
            <path fill="none" stroke="black"
                  d="M461.11,-418.94C469.87,-413.96 479.06,-408.17 487,-402 495.79,-395.16 504.5,-386.7 511.98,-378.73"/>
            <polygon fill="black" stroke="black" points="514.87,-380.77 519.02,-371.02 509.7,-376.05 514.87,-380.77"/>
        </g>
        <!-- mrs.domain.model.reservation.reservation.Reservation -->
        <g id="node16" class="node">
            <title>mrs.domain.model.reservation.reservation.Reservation</title>
            <polygon fill="#eedd82" stroke="black"
                     points="1133.5,-371 1050.5,-371 1050.5,-333 1133.5,-333 1133.5,-371"/>
            <text text-anchor="middle" x="1092" y="-355.8" font-family="Times New Roman,serif" font-size="14.00">予約
            </text>
            <text text-anchor="middle" x="1092" y="-340.8" font-family="Times New Roman,serif" font-size="14.00">
                Reservation
            </text>
        </g>
        <!-- mrs.domain.model.auth.user.User&#45;&gt;mrs.domain.model.reservation.reservation.Reservation -->
        <g id="edge20" class="edge">
            <title>mrs.domain.model.auth.user.User&#45;&gt;mrs.domain.model.reservation.reservation.Reservation</title>
            <path fill="none" stroke="black"
                  d="M461.27,-430.96C495.05,-425.37 547.57,-416.31 593,-410 756.15,-387.35 949.75,-367.58 1040.46,-358.42"/>
            <polygon fill="black" stroke="black"
                     points="1040.88,-361.9 1050.48,-357.41 1040.18,-354.93 1040.88,-361.9"/>
        </g>
        <!-- mrs.domain.model.auth.user.UserDetailsImpl -->
        <g id="node5" class="node">
            <title>mrs.domain.model.auth.user.UserDetailsImpl</title>
            <polygon fill="#eedd82" stroke="black" points="387,-541 281,-541 281,-503 387,-503 387,-541"/>
            <text text-anchor="middle" x="334" y="-525.8" font-family="Times New Roman,serif" font-size="14.00">利用者
            </text>
            <text text-anchor="middle" x="334" y="-510.8" font-family="Times New Roman,serif" font-size="14.00">
                UserDetailsImpl
            </text>
        </g>
        <!-- mrs.domain.model.auth.user.UserDetailsImpl&#45;&gt;mrs.domain.model.auth.user.Password -->
        <g id="edge21" class="edge">
            <title>mrs.domain.model.auth.user.UserDetailsImpl&#45;&gt;mrs.domain.model.auth.user.Password</title>
            <path fill="none" stroke="black"
                  d="M340.78,-502.7C349.46,-480.18 365.58,-441.1 384,-410 390.3,-399.36 398.22,-388.35 405.55,-378.89"/>
            <polygon fill="black" stroke="black" points="408.32,-381.02 411.77,-371.01 402.82,-376.69 408.32,-381.02"/>
        </g>
        <!-- mrs.domain.model.auth.user.UserDetailsImpl&#45;&gt;mrs.domain.model.auth.user.RoleName -->
        <g id="edge22" class="edge">
            <title>mrs.domain.model.auth.user.UserDetailsImpl&#45;&gt;mrs.domain.model.auth.user.RoleName</title>
            <path fill="none" stroke="black" d="M317.77,-502.7C291.17,-472.7 238.21,-412.99 207.83,-378.74"/>
            <polygon fill="black" stroke="black" points="210.24,-376.18 200.98,-371.02 205,-380.83 210.24,-376.18"/>
        </g>
        <!-- mrs.domain.model.auth.user.UserDetailsImpl&#45;&gt;mrs.domain.model.auth.user.User -->
        <g id="edge23" class="edge">
            <title>mrs.domain.model.auth.user.UserDetailsImpl&#45;&gt;mrs.domain.model.auth.user.User</title>
            <path fill="none" stroke="black" d="M354.18,-502.99C367.25,-491.32 384.46,-475.97 398.87,-463.11"/>
            <polygon fill="black" stroke="black" points="401.41,-465.53 406.54,-456.26 396.75,-460.31 401.41,-465.53"/>
        </g>
        <!-- mrs.domain.model.auth.user.UserDetailsImpl&#45;&gt;mrs.domain.model.auth.user.UserId -->
        <g id="edge24" class="edge">
            <title>mrs.domain.model.auth.user.UserDetailsImpl&#45;&gt;mrs.domain.model.auth.user.UserId</title>
            <path fill="none" stroke="black" d="M330.95,-502.7C326.06,-473.34 316.42,-415.5 310.66,-380.94"/>
            <polygon fill="black" stroke="black" points="314.1,-380.31 309,-371.02 307.2,-381.46 314.1,-380.31"/>
        </g>
        <!-- mrs.domain.model.auth.user.UserIdException -->
        <g id="node8" class="node">
            <title>mrs.domain.model.auth.user.UserIdException</title>
            <polygon fill="#eedd82" stroke="black" points="352.5,-296 241.5,-296 241.5,-260 352.5,-260 352.5,-296"/>
            <text text-anchor="middle" x="297" y="-274.3" font-family="Times New Roman,serif" font-size="14.00">
                UserIdException
            </text>
        </g>
        <!-- mrs.domain.model.auth.user.UserId&#45;&gt;mrs.domain.model.auth.user.UserIdException -->
        <g id="edge25" class="edge">
            <title>mrs.domain.model.auth.user.UserId&#45;&gt;mrs.domain.model.auth.user.UserIdException</title>
            <path fill="none" stroke="black" d="M303.73,-332.83C302.74,-324.89 301.55,-315.41 300.45,-306.63"/>
            <polygon fill="black" stroke="black" points="303.89,-305.91 299.18,-296.42 296.94,-306.77 303.89,-305.91"/>
        </g>
        <!-- mrs.domain.model.auth.user.administrator.Administrator -->
        <g id="node10" class="node">
            <title>mrs.domain.model.auth.user.administrator.Administrator</title>
            <polygon fill="#eedd82" stroke="black" points="908.5,-541 815.5,-541 815.5,-503 908.5,-503 908.5,-541"/>
            <text text-anchor="middle" x="862" y="-525.8" font-family="Times New Roman,serif" font-size="14.00">管理者
            </text>
            <text text-anchor="middle" x="862" y="-510.8" font-family="Times New Roman,serif" font-size="14.00">
                Administrator
            </text>
        </g>
        <!-- mrs.domain.model.auth.user.administrator.Administrator&#45;&gt;mrs.domain.model.auth.user.Password -->
        <g id="edge1" class="edge">
            <title>mrs.domain.model.auth.user.administrator.Administrator&#45;&gt;mrs.domain.model.auth.user.Password
            </title>
            <path fill="none" stroke="black"
                  d="M861.39,-502.73C859.45,-477.16 851.75,-431.44 822,-410 806.9,-399.12 504.46,-408.46 487,-402 473.33,-396.94 460.48,-387.39 450.21,-378.05"/>
            <polygon fill="black" stroke="black" points="452.52,-375.42 442.88,-371.02 447.68,-380.47 452.52,-375.42"/>
        </g>
        <!-- mrs.domain.model.auth.user.administrator.Administrator&#45;&gt;mrs.domain.model.auth.user.RoleName -->
        <g id="edge2" class="edge">
            <title>mrs.domain.model.auth.user.administrator.Administrator&#45;&gt;mrs.domain.model.auth.user.RoleName
            </title>
            <path fill="none" stroke="black"
                  d="M815.25,-511.67C797.37,-506.5 777.55,-498.66 762,-487 728.56,-461.92 744.92,-429.61 708,-410 685.28,-397.93 269.16,-410.85 245,-402 231.31,-396.99 218.46,-387.44 208.19,-378.09"/>
            <polygon fill="black" stroke="black" points="210.51,-375.46 200.87,-371.06 205.66,-380.51 210.51,-375.46"/>
        </g>
        <!-- mrs.domain.model.auth.user.administrator.Administrator&#45;&gt;mrs.domain.model.auth.user.User -->
        <g id="edge3" class="edge">
            <title>mrs.domain.model.auth.user.administrator.Administrator&#45;&gt;mrs.domain.model.auth.user.User
            </title>
            <path fill="none" stroke="black"
                  d="M815.34,-511.84C784.89,-506.18 744.22,-499.22 708,-495 653.14,-488.62 638.3,-497.08 584,-487 544.86,-479.74 501.79,-465.85 470.68,-454.71"/>
            <polygon fill="black" stroke="black" points="471.61,-451.33 461.01,-451.2 469.22,-457.91 471.61,-451.33"/>
        </g>
        <!-- mrs.domain.model.auth.user.administrator.Administrator&#45;&gt;mrs.domain.model.auth.user.UserId -->
        <g id="edge4" class="edge">
            <title>mrs.domain.model.auth.user.administrator.Administrator&#45;&gt;mrs.domain.model.auth.user.UserId
            </title>
            <path fill="none" stroke="black"
                  d="M849.83,-502.96C830.95,-476.78 791.87,-429.27 745,-410 706.04,-393.98 405.52,-416.56 366,-402 352.32,-396.96 339.47,-387.41 329.2,-378.06"/>
            <polygon fill="black" stroke="black" points="331.52,-375.44 321.88,-371.04 326.67,-380.49 331.52,-375.44"/>
        </g>
        <!-- mrs.domain.model.auth.user.administrator.Administrator&#45;&gt;mrs.domain.model.auth.user.UserName -->
        <g id="edge5" class="edge">
            <title>mrs.domain.model.auth.user.administrator.Administrator&#45;&gt;mrs.domain.model.auth.user.UserName
            </title>
            <path fill="none" stroke="black"
                  d="M886.9,-502.74C891.41,-498.15 895.48,-492.84 898,-487 911.55,-455.57 920.25,-436 898,-410 857.85,-363.07 671.16,-354.51 581.85,-353.13"/>
            <polygon fill="black" stroke="black" points="581.76,-349.63 571.71,-353 581.67,-356.63 581.76,-349.63"/>
        </g>
        <!-- mrs.domain.model.auth.user.administrator.Administrator&#45;&gt;mrs.domain.model.reservation.reservation.Reservation -->
        <g id="edge6" class="edge">
            <title>mrs.domain.model.auth.user.administrator.Administrator&#45;&gt;mrs.domain.model.reservation.reservation.Reservation</title>
            <path fill="none" stroke="black"
                  d="M908.71,-516.11C951.12,-510.85 1009.75,-501.27 1028,-487 1045.75,-473.12 1069.09,-415.75 1082.11,-380.73"/>
            <polygon fill="black" stroke="black"
                     points="1085.5,-381.67 1085.66,-371.08 1078.93,-379.26 1085.5,-381.67"/>
        </g>
        <!-- mrs.domain.model.auth.user.member.Member -->
        <g id="node11" class="node">
            <title>mrs.domain.model.auth.user.member.Member</title>
            <polygon fill="#eedd82" stroke="black" points="695.5,-541 632.5,-541 632.5,-503 695.5,-503 695.5,-541"/>
            <text text-anchor="middle" x="664" y="-525.8" font-family="Times New Roman,serif" font-size="14.00">会員
            </text>
            <text text-anchor="middle" x="664" y="-510.8" font-family="Times New Roman,serif" font-size="14.00">Member
            </text>
        </g>
        <!-- mrs.domain.model.auth.user.member.Member&#45;&gt;mrs.domain.model.auth.user.Password -->
        <g id="edge7" class="edge">
            <title>mrs.domain.model.auth.user.member.Member&#45;&gt;mrs.domain.model.auth.user.Password</title>
            <path fill="none" stroke="black"
                  d="M695.58,-515.21C733.69,-507.91 793.52,-495.3 800,-487 821.06,-460.03 823.89,-434.51 800,-410 787.86,-397.54 503.31,-408.05 487,-402 473.33,-396.93 460.49,-387.37 450.21,-378.03"/>
            <polygon fill="black" stroke="black" points="452.53,-375.41 442.89,-371.01 447.69,-380.46 452.53,-375.41"/>
        </g>
        <!-- mrs.domain.model.auth.user.member.Member&#45;&gt;mrs.domain.model.auth.user.RoleName -->
        <g id="edge8" class="edge">
            <title>mrs.domain.model.auth.user.member.Member&#45;&gt;mrs.domain.model.auth.user.RoleName</title>
            <path fill="none" stroke="black"
                  d="M681.92,-502.96C685.63,-498.15 689.01,-492.69 691,-487 702.27,-454.69 714.98,-434.41 691,-410 682.32,-401.16 256.63,-406.26 245,-402 231.32,-396.98 218.46,-387.43 208.19,-378.09"/>
            <polygon fill="black" stroke="black" points="210.51,-375.46 200.87,-371.06 205.66,-380.51 210.51,-375.46"/>
        </g>
        <!-- mrs.domain.model.auth.user.member.Member&#45;&gt;mrs.domain.model.auth.user.User -->
        <g id="edge9" class="edge">
            <title>mrs.domain.model.auth.user.member.Member&#45;&gt;mrs.domain.model.auth.user.User</title>
            <path fill="none" stroke="black" d="M632.04,-509.81C590.4,-495.22 517.41,-469.66 470.69,-453.3"/>
            <polygon fill="black" stroke="black" points="471.73,-449.96 461.14,-449.95 469.42,-456.56 471.73,-449.96"/>
        </g>
        <!-- mrs.domain.model.auth.user.member.Member&#45;&gt;mrs.domain.model.auth.user.UserId -->
        <g id="edge10" class="edge">
            <title>mrs.domain.model.auth.user.member.Member&#45;&gt;mrs.domain.model.auth.user.UserId</title>
            <path fill="none" stroke="black"
                  d="M695.71,-510.65C706.65,-505.39 717.73,-497.76 724,-487 741.23,-457.43 747.93,-434.47 724,-410 710.09,-395.78 384.66,-408.89 366,-402 352.33,-396.95 339.48,-387.4 329.2,-378.06"/>
            <polygon fill="black" stroke="black" points="331.52,-375.43 321.88,-371.03 326.67,-380.48 331.52,-375.43"/>
        </g>
        <!-- mrs.domain.model.auth.user.member.Member&#45;&gt;mrs.domain.model.auth.user.UserName -->
        <g id="edge11" class="edge">
            <title>mrs.domain.model.auth.user.member.Member&#45;&gt;mrs.domain.model.auth.user.UserName</title>
            <path fill="none" stroke="black"
                  d="M695.67,-513.22C720.4,-507.41 755.7,-499.7 787,-495 796.82,-493.53 869.3,-494.33 876,-487 899.09,-461.74 898.12,-436.11 876,-410 838.84,-366.13 666.7,-355.99 581.72,-353.67"/>
            <polygon fill="black" stroke="black" points="581.64,-350.17 571.56,-353.42 581.47,-357.17 581.64,-350.17"/>
        </g>
        <!-- mrs.domain.model.auth.user.member.MemberId -->
        <g id="node12" class="node">
            <title>mrs.domain.model.auth.user.member.MemberId</title>
            <polygon fill="#eedd82" stroke="black" points="682,-456 596,-456 596,-418 682,-418 682,-456"/>
            <text text-anchor="middle" x="639" y="-440.8" font-family="Times New Roman,serif" font-size="14.00">会員番号
            </text>
            <text text-anchor="middle" x="639" y="-425.8" font-family="Times New Roman,serif" font-size="14.00">
                MemberId
            </text>
        </g>
        <!-- mrs.domain.model.auth.user.member.Member&#45;&gt;mrs.domain.model.auth.user.member.MemberId -->
        <g id="edge12" class="edge">
            <title>mrs.domain.model.auth.user.member.Member&#45;&gt;mrs.domain.model.auth.user.member.MemberId</title>
            <path fill="none" stroke="black" d="M658.58,-502.99C655.32,-492.19 651.11,-478.22 647.43,-466"/>
            <polygon fill="black" stroke="black" points="650.74,-464.83 644.5,-456.26 644.03,-466.85 650.74,-464.83"/>
        </g>
        <!-- mrs.domain.model.auth.user.member.Member&#45;&gt;mrs.domain.model.reservation.reservation.Reservation -->
        <g id="edge13" class="edge">
            <title>
                mrs.domain.model.auth.user.member.Member&#45;&gt;mrs.domain.model.reservation.reservation.Reservation
            </title>
            <path fill="none" stroke="black"
                  d="M695.65,-513.07C720.36,-507.17 755.66,-499.42 787,-495 835.98,-488.09 851.34,-503.41 898,-487 932.99,-474.69 1015.66,-412.66 1060.97,-377.47"/>
            <polygon fill="black" stroke="black"
                     points="1063.24,-380.14 1068.97,-371.23 1058.93,-374.62 1063.24,-380.14"/>
        </g>
        <!-- mrs.domain.model.facility.room.MeetingRoom -->
        <g id="node13" class="node">
            <title>mrs.domain.model.facility.room.MeetingRoom</title>
            <polygon fill="#eedd82" stroke="black" points="1532,-371 1436,-371 1436,-333 1532,-333 1532,-371"/>
            <text text-anchor="middle" x="1484" y="-355.8" font-family="Times New Roman,serif" font-size="14.00">会議室
            </text>
            <text text-anchor="middle" x="1484" y="-340.8" font-family="Times New Roman,serif" font-size="14.00">
                MeetingRoom
            </text>
        </g>
        <!-- mrs.domain.model.facility.room.RoomId -->
        <g id="node14" class="node">
            <title>mrs.domain.model.facility.room.RoomId</title>
            <polygon fill="#eedd82" stroke="black"
                     points="1537.5,-149 1434.5,-149 1434.5,-111 1537.5,-111 1537.5,-149"/>
            <text text-anchor="middle" x="1486" y="-133.8" font-family="Times New Roman,serif" font-size="14.00">会議室番号
            </text>
            <text text-anchor="middle" x="1486" y="-118.8" font-family="Times New Roman,serif" font-size="14.00">
                RoomId
            </text>
        </g>
        <!-- mrs.domain.model.facility.room.MeetingRoom&#45;&gt;mrs.domain.model.facility.room.RoomId -->
        <g id="edge26" class="edge">
            <title>mrs.domain.model.facility.room.MeetingRoom&#45;&gt;mrs.domain.model.facility.room.RoomId</title>
            <path fill="none" stroke="black" d="M1484.16,-333C1484.51,-294.8 1485.32,-205.41 1485.74,-159.43"/>
            <polygon fill="black" stroke="black"
                     points="1489.24,-159.28 1485.83,-149.25 1482.24,-159.22 1489.24,-159.28"/>
        </g>
        <!-- mrs.domain.model.reservation.room.ReservableRoom -->
        <g id="node21" class="node">
            <title>mrs.domain.model.reservation.room.ReservableRoom</title>
            <polygon fill="#eedd82" stroke="black"
                     points="1407.5,-297 1270.5,-297 1270.5,-259 1407.5,-259 1407.5,-297"/>
            <text text-anchor="middle" x="1339" y="-281.8" font-family="Times New Roman,serif" font-size="14.00">
                予約可能会議室
            </text>
            <text text-anchor="middle" x="1339" y="-266.8" font-family="Times New Roman,serif" font-size="14.00">
                ReservableRoom
            </text>
        </g>
        <!-- mrs.domain.model.facility.room.MeetingRoom&#45;&gt;mrs.domain.model.reservation.room.ReservableRoom -->
        <g id="edge27" class="edge">
            <title>mrs.domain.model.facility.room.MeetingRoom&#45;&gt;mrs.domain.model.reservation.room.ReservableRoom
            </title>
            <path fill="none" stroke="black" d="M1453.36,-332.83C1435.07,-323.29 1411.46,-311.51 1390.42,-301.4"/>
            <polygon fill="black" stroke="black" points="1391.8,-298.18 1381.27,-297.04 1388.79,-304.5 1391.8,-298.18"/>
        </g>
        <!-- mrs.domain.model.facility.room.RoomIdException -->
        <g id="node15" class="node">
            <title>mrs.domain.model.facility.room.RoomIdException</title>
            <polygon fill="#eedd82" stroke="black" points="1554,-75 1434,-75 1434,-39 1554,-39 1554,-75"/>
            <text text-anchor="middle" x="1494" y="-53.3" font-family="Times New Roman,serif" font-size="14.00">
                RoomIdException
            </text>
        </g>
        <!-- mrs.domain.model.facility.room.RoomId&#45;&gt;mrs.domain.model.facility.room.RoomIdException -->
        <g id="edge28" class="edge">
            <title>mrs.domain.model.facility.room.RoomId&#45;&gt;mrs.domain.model.facility.room.RoomIdException</title>
            <path fill="none" stroke="black" d="M1488.06,-110.72C1488.94,-102.89 1489.99,-93.59 1490.96,-84.99"/>
            <polygon fill="black" stroke="black" points="1494.44,-85.33 1492.08,-75 1487.49,-84.55 1494.44,-85.33"/>
        </g>
        <!-- mrs.domain.model.reservation.reservation.Reservation&#45;&gt;mrs.domain.model.auth.user.User -->
        <g id="edge29" class="edge">
            <title>mrs.domain.model.reservation.reservation.Reservation&#45;&gt;mrs.domain.model.auth.user.User</title>
            <path fill="none" stroke="black"
                  d="M1050.24,-356.49C961.98,-364.53 750.81,-385.6 575,-410 539.87,-414.88 500.5,-421.4 471.1,-426.69"/>
            <polygon fill="black" stroke="black" points="470.35,-423.27 461.14,-428.51 471.61,-430.16 470.35,-423.27"/>
        </g>
        <!-- mrs.domain.model.reservation.reservation.ReservationId -->
        <g id="node17" class="node">
            <title>mrs.domain.model.reservation.reservation.ReservationId</title>
            <polygon fill="#eedd82" stroke="black"
                     points="1097.5,-297 1002.5,-297 1002.5,-259 1097.5,-259 1097.5,-297"/>
            <text text-anchor="middle" x="1050" y="-281.8" font-family="Times New Roman,serif" font-size="14.00">予約番号
            </text>
            <text text-anchor="middle" x="1050" y="-266.8" font-family="Times New Roman,serif" font-size="14.00">
                ReservationId
            </text>
        </g>
        <!-- mrs.domain.model.reservation.reservation.Reservation&#45;&gt;mrs.domain.model.reservation.reservation.ReservationId -->
        <g id="edge30" class="edge">
            <title>mrs.domain.model.reservation.reservation.Reservation&#45;&gt;mrs.domain.model.reservation.reservation.ReservationId</title>
            <path fill="none" stroke="black" d="M1081.4,-332.83C1076.71,-324.79 1071.1,-315.17 1065.92,-306.29"/>
            <polygon fill="black" stroke="black"
                     points="1068.8,-304.29 1060.74,-297.41 1062.76,-307.81 1068.8,-304.29"/>
        </g>
        <!-- mrs.domain.model.reservation.reservation.ReservedTime -->
        <g id="node20" class="node">
            <title>mrs.domain.model.reservation.reservation.ReservedTime</title>
            <polygon fill="#eedd82" stroke="black" points="1214,-297 1116,-297 1116,-259 1214,-259 1214,-297"/>
            <text text-anchor="middle" x="1165" y="-281.8" font-family="Times New Roman,serif" font-size="14.00">予約時間
            </text>
            <text text-anchor="middle" x="1165" y="-266.8" font-family="Times New Roman,serif" font-size="14.00">
                ReservedTime
            </text>
        </g>
        <!-- mrs.domain.model.reservation.reservation.Reservation&#45;&gt;mrs.domain.model.reservation.reservation.ReservedTime -->
        <g id="edge31" class="edge">
            <title>mrs.domain.model.reservation.reservation.Reservation&#45;&gt;mrs.domain.model.reservation.reservation.ReservedTime</title>
            <path fill="none" stroke="black" d="M1110.42,-332.83C1119.15,-324.22 1129.73,-313.79 1139.24,-304.4"/>
            <polygon fill="black" stroke="black"
                     points="1141.92,-306.68 1146.58,-297.16 1137.01,-301.69 1141.92,-306.68"/>
        </g>
        <!-- mrs.domain.model.reservation.reservation.Reservation&#45;&gt;mrs.domain.model.reservation.room.ReservableRoom -->
        <g id="edge32" class="edge">
            <title>mrs.domain.model.reservation.reservation.Reservation&#45;&gt;mrs.domain.model.reservation.room.ReservableRoom</title>
            <path fill="none" stroke="black" d="M1133.61,-337.29C1168.51,-326.69 1219.2,-311.84 1261.52,-299.78"/>
            <polygon fill="black" stroke="black"
                     points="1262.58,-303.12 1271.24,-297.02 1260.67,-296.39 1262.58,-303.12"/>
        </g>
        <!-- mrs.domain.model.reservation.room.ReservableRoomId -->
        <g id="node22" class="node">
            <title>mrs.domain.model.reservation.room.ReservableRoomId</title>
            <polygon fill="#eedd82" stroke="black" points="1400,-223 1248,-223 1248,-185 1400,-185 1400,-223"/>
            <text text-anchor="middle" x="1324" y="-207.8" font-family="Times New Roman,serif" font-size="14.00">
                予約可能会議室ID
            </text>
            <text text-anchor="middle" x="1324" y="-192.8" font-family="Times New Roman,serif" font-size="14.00">
                ReservableRoomId
            </text>
        </g>
        <!-- mrs.domain.model.reservation.reservation.Reservation&#45;&gt;mrs.domain.model.reservation.room.ReservableRoomId -->
        <g id="edge33" class="edge">
            <title>mrs.domain.model.reservation.reservation.Reservation&#45;&gt;mrs.domain.model.reservation.room.ReservableRoomId</title>
            <path fill="none" stroke="black"
                  d="M1133.77,-339.31C1160.83,-330.46 1195.95,-316.47 1223,-297 1244.48,-281.54 1242.68,-270.09 1262,-252 1270.45,-244.08 1280.2,-236.2 1289.43,-229.21"/>
            <polygon fill="black" stroke="black"
                     points="1291.75,-231.84 1297.7,-223.07 1287.58,-226.22 1291.75,-231.84"/>
        </g>
        <!-- mrs.domain.model.reservation.reservation.ReservationList -->
        <g id="node18" class="node">
            <title>mrs.domain.model.reservation.reservation.ReservationList</title>
            <polygon fill="#eedd82" stroke="black" points="1184,-456 1080,-456 1080,-418 1184,-418 1184,-456"/>
            <text text-anchor="middle" x="1132" y="-440.8" font-family="Times New Roman,serif" font-size="14.00">予約一覧
            </text>
            <text text-anchor="middle" x="1132" y="-425.8" font-family="Times New Roman,serif" font-size="14.00">
                ReservationList
            </text>
        </g>
        <!-- mrs.domain.model.reservation.reservation.ReservationList&#45;&gt;mrs.domain.model.reservation.reservation.Reservation -->
        <g id="edge34" class="edge">
            <title>mrs.domain.model.reservation.reservation.ReservationList&#45;&gt;mrs.domain.model.reservation.reservation.Reservation</title>
            <path fill="none" stroke="black" d="M1123.32,-417.99C1118.01,-406.97 1111.11,-392.66 1105.14,-380.27"/>
            <polygon fill="black" stroke="black" points="1108.3,-378.75 1100.8,-371.26 1101.99,-381.79 1108.3,-378.75"/>
        </g>
        <!-- mrs.domain.model.reservation.reservation.ReservedDate -->
        <g id="node19" class="node">
            <title>mrs.domain.model.reservation.reservation.ReservedDate</title>
            <polygon fill="#eedd82" stroke="black"
                     points="1213.5,-149 1118.5,-149 1118.5,-111 1213.5,-111 1213.5,-149"/>
            <text text-anchor="middle" x="1166" y="-133.8" font-family="Times New Roman,serif" font-size="14.00">予約日
            </text>
            <text text-anchor="middle" x="1166" y="-118.8" font-family="Times New Roman,serif" font-size="14.00">
                ReservedDate
            </text>
        </g>
        <!-- mrs.domain.model.reservation.room.ReservableRoom&#45;&gt;mrs.domain.model.facility.room.MeetingRoom -->
        <g id="edge35" class="edge">
            <title>mrs.domain.model.reservation.room.ReservableRoom&#45;&gt;mrs.domain.model.facility.room.MeetingRoom
            </title>
            <path fill="none" stroke="black" d="M1369.63,-297.16C1387.84,-306.67 1411.34,-318.4 1432.33,-328.48"/>
            <polygon fill="black" stroke="black"
                     points="1430.93,-331.68 1441.46,-332.83 1433.94,-325.37 1430.93,-331.68"/>
        </g>
        <!-- mrs.domain.model.reservation.room.ReservableRoom&#45;&gt;mrs.domain.model.reservation.reservation.Reservation -->
        <g id="edge36" class="edge">
            <title>mrs.domain.model.reservation.room.ReservableRoom&#45;&gt;mrs.domain.model.reservation.reservation.Reservation</title>
            <path fill="none" stroke="black" d="M1283.08,-297.03C1241.14,-309.62 1184.26,-326.15 1143.43,-337.58"/>
            <polygon fill="black" stroke="black"
                     points="1142.37,-334.24 1133.68,-340.3 1144.25,-340.98 1142.37,-334.24"/>
        </g>
        <!-- mrs.domain.model.reservation.room.ReservableRoom&#45;&gt;mrs.domain.model.reservation.room.ReservableRoomId -->
        <g id="edge37" class="edge">
            <title>mrs.domain.model.reservation.room.ReservableRoom&#45;&gt;mrs.domain.model.reservation.room.ReservableRoomId</title>
            <path fill="none" stroke="black" d="M1335.21,-258.83C1333.61,-251.13 1331.7,-241.97 1329.92,-233.42"/>
            <polygon fill="black" stroke="black"
                     points="1333.3,-232.49 1327.84,-223.41 1326.45,-233.92 1333.3,-232.49"/>
        </g>
        <!-- mrs.domain.model.reservation.room.ReservableRoomId&#45;&gt;mrs.domain.model.facility.room.RoomId -->
        <g id="edge38" class="edge">
            <title>mrs.domain.model.reservation.room.ReservableRoomId&#45;&gt;mrs.domain.model.facility.room.RoomId
            </title>
            <path fill="none" stroke="black" d="M1364.88,-184.83C1386.55,-175.2 1413.34,-163.29 1436.21,-153.13"/>
            <polygon fill="black" stroke="black" points="1437.7,-156.3 1445.41,-149.04 1434.85,-149.9 1437.7,-156.3"/>
        </g>
        <!-- mrs.domain.model.reservation.room.ReservableRoomId&#45;&gt;mrs.domain.model.reservation.reservation.ReservedDate -->
        <g id="edge39" class="edge">
            <title>mrs.domain.model.reservation.room.ReservableRoomId&#45;&gt;mrs.domain.model.reservation.reservation.ReservedDate</title>
            <path fill="none" stroke="black" d="M1284.13,-184.83C1263.09,-175.24 1237.1,-163.4 1214.86,-153.27"/>
            <polygon fill="black" stroke="black" points="1216.13,-150 1205.58,-149.04 1213.23,-156.37 1216.13,-150"/>
        </g>
        <!-- mrs.domain.model.reservation.room.ReservableRoomList -->
        <g id="node23" class="node">
            <title>mrs.domain.model.reservation.room.ReservableRoomList</title>
            <polygon fill="#eedd82" stroke="black" points="1410,-371 1238,-371 1238,-333 1410,-333 1410,-371"/>
            <text text-anchor="middle" x="1324" y="-355.8" font-family="Times New Roman,serif" font-size="14.00">
                予約可能会議室一覧
            </text>
            <text text-anchor="middle" x="1324" y="-340.8" font-family="Times New Roman,serif" font-size="14.00">
                ReservableRoomList
            </text>
        </g>
        <!-- mrs.domain.model.reservation.room.ReservableRoomList&#45;&gt;mrs.domain.model.reservation.room.ReservableRoom -->
        <g id="edge40" class="edge">
            <title>mrs.domain.model.reservation.room.ReservableRoomList&#45;&gt;mrs.domain.model.reservation.room.ReservableRoom</title>
            <path fill="none" stroke="black" d="M1327.79,-332.83C1329.39,-325.13 1331.3,-315.97 1333.08,-307.42"/>
            <polygon fill="black" stroke="black"
                     points="1336.55,-307.92 1335.16,-297.41 1329.7,-306.49 1336.55,-307.92"/>
        </g>
    </g>
</svg>
