<?xml version="1.0" encoding="UTF-8" standalone="no"?>
<!DOCTYPE svg PUBLIC "-//W3C//DTD SVG 1.1//EN"
 "http://www.w3.org/Graphics/SVG/1.1/DTD/svg11.dtd">
<!-- Generated by graphviz version 2.47.3 (20210619.1520)
 -->
<!-- Title: 集中ビジネスルールツリー図 Pages: 1 -->
<svg width="813pt" height="897pt"
 viewBox="0.00 0.00 813.00 897.22" xmlns="http://www.w3.org/2000/svg" xmlns:xlink="http://www.w3.org/1999/xlink">
<g id="graph0" class="graph" transform="scale(1 1) rotate(0) translate(4 893.22)">
<title>集中ビジネスルールツリー図</title>
<polygon fill="white" stroke="transparent" points="-4,4 -4,-893.22 809,-893.22 809,4 -4,4"/>
<text text-anchor="middle" x="402.5" y="-7.8" font-family="Times,serif" font-size="14.00">集中ビジネスルールツリー図</text>
<!-- mrs.domain.model.auth.user.Password -->
<g id="node1" class="node">
<title>mrs.domain.model.auth.user.Password</title>
<polygon fill="#eedd82" stroke="black" points="526,-559.78 394,-559.78 394,-518.78 526,-518.78 526,-559.78"/>
<text text-anchor="middle" x="460" y="-531.78" font-family="Times,serif" font-size="30.00">Password</text>
</g>
<!-- mrs.domain.model.auth.user.RoleName -->
<g id="node2" class="node">
<title>mrs.domain.model.auth.user.RoleName</title>
<polygon fill="#eedd82" stroke="black" points="543,-425.28 377,-425.28 377,-351.28 543,-351.28 543,-425.28"/>
<text text-anchor="middle" x="460" y="-397.28" font-family="Times,serif" font-size="30.00">利用者区分</text>
<text text-anchor="middle" x="460" y="-364.28" font-family="Times,serif" font-size="30.00">RoleName</text>
</g>
<!-- mrs.domain.model.auth.user.User -->
<g id="node3" class="node">
<title>mrs.domain.model.auth.user.User</title>
<polygon fill="#eedd82" stroke="black" points="296,-425.28 190,-425.28 190,-351.28 296,-351.28 296,-425.28"/>
<text text-anchor="middle" x="243" y="-397.28" font-family="Times,serif" font-size="30.00">利用者</text>
<text text-anchor="middle" x="243" y="-364.28" font-family="Times,serif" font-size="30.00">User</text>
</g>
<!-- mrs.domain.model.auth.user.User&#45;&gt;mrs.domain.model.auth.user.Password -->
<g id="edge1" class="edge">
<title>mrs.domain.model.auth.user.User&#45;&gt;mrs.domain.model.auth.user.Password</title>
<path fill="none" stroke="black" d="M296.04,-408.27C311.86,-416.17 328.38,-426.47 341,-439.28 365.83,-464.48 350.42,-486.93 377,-510.28 379.5,-512.47 382.17,-514.5 384.97,-516.38"/>
<polygon fill="black" stroke="black" points="383.32,-519.47 393.7,-521.58 386.9,-513.46 383.32,-519.47"/>
</g>
<!-- mrs.domain.model.auth.user.User&#45;&gt;mrs.domain.model.auth.user.RoleName -->
<g id="edge20" class="edge">
<title>mrs.domain.model.auth.user.User&#45;&gt;mrs.domain.model.auth.user.RoleName</title>
<path fill="none" stroke="black" d="M296.05,-388.28C317.25,-388.28 342.42,-388.28 366.56,-388.28"/>
<polygon fill="black" stroke="black" points="366.82,-391.78 376.82,-388.28 366.82,-384.78 366.82,-391.78"/>
</g>
<!-- mrs.domain.model.auth.user.UserId -->
<g id="node5" class="node">
<title>mrs.domain.model.auth.user.UserId</title>
<polygon fill="#eedd82" stroke="black" points="509,-500.78 411,-500.78 411,-459.78 509,-459.78 509,-500.78"/>
<text text-anchor="middle" x="460" y="-472.78" font-family="Times,serif" font-size="30.00">UserId</text>
</g>
<!-- mrs.domain.model.auth.user.User&#45;&gt;mrs.domain.model.auth.user.UserId -->
<g id="edge15" class="edge">
<title>mrs.domain.model.auth.user.User&#45;&gt;mrs.domain.model.auth.user.UserId</title>
<path fill="none" stroke="black" d="M296.05,-410.55C327.83,-424.15 368.52,-441.56 401.29,-455.58"/>
<polygon fill="black" stroke="black" points="400.18,-458.91 410.75,-459.63 402.93,-452.48 400.18,-458.91"/>
</g>
<!-- mrs.domain.model.auth.user.UserName -->
<g id="node6" class="node">
<title>mrs.domain.model.auth.user.UserName</title>
<polygon fill="#eedd82" stroke="black" points="532.5,-300.78 387.5,-300.78 387.5,-259.78 532.5,-259.78 532.5,-300.78"/>
<text text-anchor="middle" x="460" y="-272.78" font-family="Times,serif" font-size="30.00">UserName</text>
</g>
<!-- mrs.domain.model.auth.user.User&#45;&gt;mrs.domain.model.auth.user.UserName -->
<g id="edge25" class="edge">
<title>mrs.domain.model.auth.user.User&#45;&gt;mrs.domain.model.auth.user.UserName</title>
<path fill="none" stroke="black" d="M296.05,-362.14C330.35,-344.9 375.03,-322.46 408.93,-305.43"/>
<polygon fill="black" stroke="black" points="410.82,-308.4 418.19,-300.78 407.68,-302.14 410.82,-308.4"/>
</g>
<!-- mrs.domain.model.reservation.reservation.Reservation -->
<g id="node10" class="node">
<title>mrs.domain.model.reservation.reservation.Reservation</title>
<polygon fill="#eedd82" stroke="black" points="540,-208.28 380,-208.28 380,-134.28 540,-134.28 540,-208.28"/>
<text text-anchor="middle" x="460" y="-180.28" font-family="Times,serif" font-size="30.00">予約</text>
<text text-anchor="middle" x="460" y="-147.28" font-family="Times,serif" font-size="30.00">Reservation</text>
</g>
<!-- mrs.domain.model.auth.user.User&#45;&gt;mrs.domain.model.reservation.reservation.Reservation -->
<g id="edge29" class="edge">
<title>mrs.domain.model.auth.user.User&#45;&gt;mrs.domain.model.reservation.reservation.Reservation</title>
<path fill="none" stroke="black" d="M272.48,-351.1C299.2,-320.92 340.41,-277.86 377,-241.28 385.41,-232.87 394.39,-224.05 403.22,-215.6"/>
<polygon fill="black" stroke="black" points="405.75,-218.02 410.58,-208.6 400.92,-212.95 405.75,-218.02"/>
</g>
<!-- mrs.domain.model.auth.user.UserDetailsImpl -->
<g id="node4" class="node">
<title>mrs.domain.model.auth.user.UserDetailsImpl</title>
<polygon fill="lemonchiffon" stroke="black" points="109,-849.28 0,-849.28 0,-811.28 109,-811.28 109,-849.28"/>
<text text-anchor="middle" x="54.5" y="-834.08" font-family="Times,serif" font-size="14.00">利用者</text>
<text text-anchor="middle" x="54.5" y="-819.08" font-family="Times,serif" font-size="14.00">UserDetailsImpl</text>
</g>
<!-- mrs.domain.model.auth.user.UserDetailsImpl&#45;&gt;mrs.domain.model.auth.user.Password -->
<g id="edge2" class="edge">
<title>mrs.domain.model.auth.user.UserDetailsImpl&#45;&gt;mrs.domain.model.auth.user.Password</title>
<path fill="none" stroke="black" d="M93.18,-849.35C151.83,-876.06 265.99,-915.79 341,-863.28 438.56,-794.98 455.75,-637.19 458.57,-570.23"/>
<polygon fill="black" stroke="black" points="462.08,-570.03 458.92,-559.92 455.08,-569.8 462.08,-570.03"/>
</g>
<!-- mrs.domain.model.auth.user.UserDetailsImpl&#45;&gt;mrs.domain.model.auth.user.RoleName -->
<g id="edge21" class="edge">
<title>mrs.domain.model.auth.user.UserDetailsImpl&#45;&gt;mrs.domain.model.auth.user.RoleName</title>
<path fill="none" stroke="black" d="M109.12,-820.95C174.95,-806.48 284.76,-771.99 341,-696.28 406.63,-607.93 321.29,-546.19 377,-451.28 380.96,-444.53 385.95,-438.25 391.51,-432.48"/>
<polygon fill="black" stroke="black" points="394.03,-434.9 398.81,-425.45 389.18,-429.86 394.03,-434.9"/>
</g>
<!-- mrs.domain.model.auth.user.UserDetailsImpl&#45;&gt;mrs.domain.model.auth.user.User -->
<g id="edge6" class="edge">
<title>mrs.domain.model.auth.user.UserDetailsImpl&#45;&gt;mrs.domain.model.auth.user.User</title>
<path fill="none" stroke="black" d="M65.16,-810.95C76.86,-786.91 96.55,-744.39 109,-706.28 131.36,-637.82 117.98,-615.04 145,-548.28 161.54,-507.41 187.81,-464.89 208.84,-433.97"/>
<polygon fill="black" stroke="black" points="211.84,-435.79 214.62,-425.57 206.07,-431.82 211.84,-435.79"/>
</g>
<!-- mrs.domain.model.auth.user.UserDetailsImpl&#45;&gt;mrs.domain.model.auth.user.UserId -->
<g id="edge16" class="edge">
<title>mrs.domain.model.auth.user.UserDetailsImpl&#45;&gt;mrs.domain.model.auth.user.UserId</title>
<path fill="none" stroke="black" d="M109.15,-837.36C182.36,-845.72 308.25,-855.02 341,-825.28 393.16,-777.91 333.42,-565.64 377,-510.28 383.33,-502.24 392.02,-496.35 401.39,-492.04"/>
<polygon fill="black" stroke="black" points="402.93,-495.2 410.92,-488.24 400.34,-488.7 402.93,-495.2"/>
</g>
<!-- mrs.domain.model.contact.Contact -->
<g id="node7" class="node">
<title>mrs.domain.model.contact.Contact</title>
<polygon fill="lemonchiffon" stroke="black" points="97.5,-538.28 11.5,-538.28 11.5,-500.28 97.5,-500.28 97.5,-538.28"/>
<text text-anchor="middle" x="54.5" y="-523.08" font-family="Times,serif" font-size="14.00">問い合わせ</text>
<text text-anchor="middle" x="54.5" y="-508.08" font-family="Times,serif" font-size="14.00">Contact</text>
</g>
<!-- mrs.domain.model.contact.Contact&#45;&gt;mrs.domain.model.auth.user.User -->
<g id="edge7" class="edge">
<title>mrs.domain.model.contact.Contact&#45;&gt;mrs.domain.model.auth.user.User</title>
<path fill="none" stroke="black" d="M82.62,-500.23C108.42,-482.11 148.13,-454.22 181.46,-430.81"/>
<polygon fill="black" stroke="black" points="183.61,-433.57 189.78,-424.96 179.58,-427.84 183.61,-433.57"/>
</g>
<!-- mrs.domain.model.contact.ContactPerson -->
<g id="node8" class="node">
<title>mrs.domain.model.contact.ContactPerson</title>
<polygon fill="#eedd82" stroke="black" points="341,-631.28 145,-631.28 145,-557.28 341,-557.28 341,-631.28"/>
<text text-anchor="middle" x="243" y="-603.28" font-family="Times,serif" font-size="30.00">問い合わせ人</text>
<text text-anchor="middle" x="243" y="-570.28" font-family="Times,serif" font-size="30.00">ContactPerson</text>
</g>
<!-- mrs.domain.model.contact.Contact&#45;&gt;mrs.domain.model.contact.ContactPerson -->
<g id="edge34" class="edge">
<title>mrs.domain.model.contact.Contact&#45;&gt;mrs.domain.model.contact.ContactPerson</title>
<path fill="none" stroke="black" d="M97.82,-536.3C110.72,-541.49 125.51,-547.43 140.58,-553.49"/>
<polygon fill="black" stroke="black" points="139.4,-556.79 149.98,-557.27 142.01,-550.3 139.4,-556.79"/>
</g>
<!-- mrs.domain.model.facility.room.MeetingRoom -->
<g id="node9" class="node">
<title>mrs.domain.model.facility.room.MeetingRoom</title>
<polygon fill="lemonchiffon" stroke="black" points="508.5,-116.28 411.5,-116.28 411.5,-80.28 508.5,-80.28 508.5,-116.28"/>
<text text-anchor="middle" x="460" y="-94.58" font-family="Times,serif" font-size="14.00">MeetingRoom</text>
</g>
<!-- mrs.domain.model.reservation.room.ReservableRoom -->
<g id="node12" class="node">
<title>mrs.domain.model.reservation.room.ReservableRoom</title>
<polygon fill="#eedd82" stroke="black" points="805,-171.28 579,-171.28 579,-97.28 805,-97.28 805,-171.28"/>
<text text-anchor="middle" x="692" y="-143.28" font-family="Times,serif" font-size="30.00">予約可能会議室</text>
<text text-anchor="middle" x="692" y="-110.28" font-family="Times,serif" font-size="30.00">ReservableRoom</text>
</g>
<!-- mrs.domain.model.facility.room.MeetingRoom&#45;&gt;mrs.domain.model.reservation.room.ReservableRoom -->
<g id="edge12" class="edge">
<title>mrs.domain.model.facility.room.MeetingRoom&#45;&gt;mrs.domain.model.reservation.room.ReservableRoom</title>
<path fill="none" stroke="black" d="M508.66,-105.74C526.38,-108.51 547.39,-111.8 568.74,-115.14"/>
<polygon fill="black" stroke="black" points="568.47,-118.64 578.9,-116.73 569.56,-111.73 568.47,-118.64"/>
</g>
<!-- mrs.domain.model.reservation.reservation.Reservation&#45;&gt;mrs.domain.model.auth.user.User -->
<g id="edge8" class="edge">
<title>mrs.domain.model.reservation.reservation.Reservation&#45;&gt;mrs.domain.model.auth.user.User</title>
<path fill="none" stroke="black" d="M428.36,-208.35C412.84,-224.1 393.78,-242.51 377,-259.28 349.05,-287.22 318.41,-318.94 293.58,-344.02"/>
<polygon fill="black" stroke="black" points="290.98,-341.68 286.41,-351.24 295.94,-346.61 290.98,-341.68"/>
</g>
<!-- mrs.domain.model.reservation.reservation.Reservation&#45;&gt;mrs.domain.model.reservation.room.ReservableRoom -->
<g id="edge13" class="edge">
<title>mrs.domain.model.reservation.reservation.Reservation&#45;&gt;mrs.domain.model.reservation.room.ReservableRoom</title>
<path fill="none" stroke="black" d="M540.15,-152.1C549.41,-150.45 559.01,-148.81 568.69,-147.22"/>
<polygon fill="black" stroke="black" points="569.47,-150.64 578.78,-145.58 568.35,-143.73 569.47,-150.64"/>
</g>
<!-- mrs.domain.model.reservation.reservation.ReservationList -->
<g id="node11" class="node">
<title>mrs.domain.model.reservation.reservation.ReservationList</title>
<polygon fill="lemonchiffon" stroke="black" points="295.5,-105.28 190.5,-105.28 190.5,-67.28 295.5,-67.28 295.5,-105.28"/>
<text text-anchor="middle" x="243" y="-90.08" font-family="Times,serif" font-size="14.00">予約一覧</text>
<text text-anchor="middle" x="243" y="-75.08" font-family="Times,serif" font-size="14.00">ReservationList</text>
</g>
<!-- mrs.domain.model.reservation.reservation.ReservationList&#45;&gt;mrs.domain.model.reservation.reservation.Reservation -->
<g id="edge30" class="edge">
<title>mrs.domain.model.reservation.reservation.ReservationList&#45;&gt;mrs.domain.model.reservation.reservation.Reservation</title>
<path fill="none" stroke="black" d="M295.65,-102.92C310.39,-107.92 326.41,-113.6 341,-119.28 350.56,-123 360.49,-127.06 370.33,-131.22"/>
<polygon fill="black" stroke="black" points="369.16,-134.52 379.74,-135.22 371.91,-128.08 369.16,-134.52"/>
</g>
<!-- mrs.domain.model.reservation.room.ReservableRoom&#45;&gt;mrs.domain.model.reservation.reservation.Reservation -->
<g id="edge31" class="edge">
<title>mrs.domain.model.reservation.room.ReservableRoom&#45;&gt;mrs.domain.model.reservation.reservation.Reservation</title>
<path fill="none" stroke="black" d="M578.78,-159.08C569.19,-160.63 559.58,-162.13 550.21,-163.52"/>
<polygon fill="black" stroke="black" points="549.54,-160.09 540.15,-165 550.55,-167.01 549.54,-160.09"/>
</g>
<!-- mrs.domain.model.reservation.room.ReservableRoomList -->
<g id="node13" class="node">
<title>mrs.domain.model.reservation.room.ReservableRoomList</title>
<polygon fill="lemonchiffon" stroke="black" points="531,-62.28 389,-62.28 389,-24.28 531,-24.28 531,-62.28"/>
<text text-anchor="middle" x="460" y="-47.08" font-family="Times,serif" font-size="14.00">予約可能会議室一覧</text>
<text text-anchor="middle" x="460" y="-32.08" font-family="Times,serif" font-size="14.00">ReservableRoomList</text>
</g>
<!-- mrs.domain.model.reservation.room.ReservableRoomList&#45;&gt;mrs.domain.model.reservation.room.ReservableRoom -->
<g id="edge14" class="edge">
<title>mrs.domain.model.reservation.room.ReservableRoomList&#45;&gt;mrs.domain.model.reservation.room.ReservableRoom</title>
<path fill="none" stroke="black" d="M518.54,-62.33C526.78,-65.23 535.13,-68.27 543,-71.28 560.77,-78.08 579.56,-85.73 597.57,-93.28"/>
<polygon fill="black" stroke="black" points="596.33,-96.56 606.91,-97.22 599.05,-90.11 596.33,-96.56"/>
</g>
<!-- mrs.domain.model.user.gust.Gust -->
<g id="node14" class="node">
<title>mrs.domain.model.user.gust.Gust</title>
<polygon fill="lemonchiffon" stroke="black" points="83.5,-697.28 25.5,-697.28 25.5,-659.28 83.5,-659.28 83.5,-697.28"/>
<text text-anchor="middle" x="54.5" y="-682.08" font-family="Times,serif" font-size="14.00">ゲスト</text>
<text text-anchor="middle" x="54.5" y="-667.08" font-family="Times,serif" font-size="14.00">Gust</text>
</g>
<!-- mrs.domain.model.user.gust.Gust&#45;&gt;mrs.domain.model.auth.user.Password -->
<g id="edge3" class="edge">
<title>mrs.domain.model.user.gust.Gust&#45;&gt;mrs.domain.model.auth.user.Password</title>
<path fill="none" stroke="black" d="M72.11,-697.32C88.6,-714.65 115.6,-739.03 145,-749.28 227.26,-777.94 265.81,-793.27 341,-749.28 407.75,-710.22 439.64,-618.01 452.2,-569.82"/>
<polygon fill="black" stroke="black" points="455.63,-570.51 454.66,-559.96 448.84,-568.81 455.63,-570.51"/>
</g>
<!-- mrs.domain.model.user.gust.Gust&#45;&gt;mrs.domain.model.auth.user.RoleName -->
<g id="edge22" class="edge">
<title>mrs.domain.model.user.gust.Gust&#45;&gt;mrs.domain.model.auth.user.RoleName</title>
<path fill="none" stroke="black" d="M83.68,-682.14C148.05,-690.3 303.25,-705.98 341,-673.28 416.56,-607.84 325.76,-537.1 377,-451.28 381.01,-444.56 386.04,-438.3 391.61,-432.54"/>
<polygon fill="black" stroke="black" points="394.14,-434.97 398.93,-425.52 389.29,-429.92 394.14,-434.97"/>
</g>
<!-- mrs.domain.model.user.gust.Gust&#45;&gt;mrs.domain.model.auth.user.User -->
<g id="edge9" class="edge">
<title>mrs.domain.model.user.gust.Gust&#45;&gt;mrs.domain.model.auth.user.User</title>
<path fill="none" stroke="black" d="M67.74,-659.25C96.84,-614 170.84,-498.92 212.45,-434.23"/>
<polygon fill="black" stroke="black" points="215.63,-435.75 218.1,-425.45 209.74,-431.97 215.63,-435.75"/>
</g>
<!-- mrs.domain.model.user.gust.Gust&#45;&gt;mrs.domain.model.auth.user.UserId -->
<g id="edge17" class="edge">
<title>mrs.domain.model.user.gust.Gust&#45;&gt;mrs.domain.model.auth.user.UserId</title>
<path fill="none" stroke="black" d="M83.7,-693.64C139.79,-721.89 266.38,-773.72 341,-711.28 410.6,-653.04 318.63,-579.77 377,-510.28 383.51,-502.53 392.2,-496.78 401.49,-492.52"/>
<polygon fill="black" stroke="black" points="402.94,-495.71 410.92,-488.73 400.34,-489.21 402.94,-495.71"/>
</g>
<!-- mrs.domain.model.user.gust.Gust&#45;&gt;mrs.domain.model.auth.user.UserName -->
<g id="edge26" class="edge">
<title>mrs.domain.model.user.gust.Gust&#45;&gt;mrs.domain.model.auth.user.UserName</title>
<path fill="none" stroke="black" d="M83.84,-676.46C152.42,-671.78 323.08,-658.42 341,-640.28 387.88,-592.83 343.75,-400.11 377,-342.28 385.1,-328.19 397.81,-316.28 410.83,-306.78"/>
<polygon fill="black" stroke="black" points="413.13,-309.44 419.38,-300.89 409.16,-303.68 413.13,-309.44"/>
</g>
<!-- mrs.domain.model.user.gust.Gust&#45;&gt;mrs.domain.model.contact.ContactPerson -->
<g id="edge35" class="edge">
<title>mrs.domain.model.user.gust.Gust&#45;&gt;mrs.domain.model.contact.ContactPerson</title>
<path fill="none" stroke="black" d="M83.83,-665.52C101.81,-657.42 126.18,-646.44 150.41,-635.53"/>
<polygon fill="black" stroke="black" points="151.99,-638.66 159.67,-631.36 149.12,-632.28 151.99,-638.66"/>
</g>
<!-- mrs.domain.model.user.member.Member -->
<g id="node15" class="node">
<title>mrs.domain.model.user.member.Member</title>
<polygon fill="lemonchiffon" stroke="black" points="86.5,-407.28 22.5,-407.28 22.5,-369.28 86.5,-369.28 86.5,-407.28"/>
<text text-anchor="middle" x="54.5" y="-392.08" font-family="Times,serif" font-size="14.00">会員</text>
<text text-anchor="middle" x="54.5" y="-377.08" font-family="Times,serif" font-size="14.00">Member</text>
</g>
<!-- mrs.domain.model.user.member.Member&#45;&gt;mrs.domain.model.auth.user.Password -->
<g id="edge4" class="edge">
<title>mrs.domain.model.user.member.Member&#45;&gt;mrs.domain.model.auth.user.Password</title>
<path fill="none" stroke="black" d="M72.06,-407.3C88.71,-425.22 116,-451.45 145,-466.28 220.92,-505.1 317.68,-523.57 383.6,-532.16"/>
<polygon fill="black" stroke="black" points="383.54,-535.68 393.9,-533.45 384.42,-528.73 383.54,-535.68"/>
</g>
<!-- mrs.domain.model.user.member.Member&#45;&gt;mrs.domain.model.auth.user.RoleName -->
<g id="edge23" class="edge">
<title>mrs.domain.model.user.member.Member&#45;&gt;mrs.domain.model.auth.user.RoleName</title>
<path fill="none" stroke="black" d="M83.95,-369.22C100.89,-359.04 123.27,-347.54 145,-342.28 229.67,-321.79 255.39,-326.18 341,-342.28 349.64,-343.9 358.45,-346.14 367.18,-348.76"/>
<polygon fill="black" stroke="black" points="366.39,-352.18 376.98,-351.87 368.51,-345.51 366.39,-352.18"/>
</g>
<!-- mrs.domain.model.user.member.Member&#45;&gt;mrs.domain.model.auth.user.User -->
<g id="edge10" class="edge">
<title>mrs.domain.model.user.member.Member&#45;&gt;mrs.domain.model.auth.user.User</title>
<path fill="none" stroke="black" d="M86.72,-388.28C111.96,-388.28 148.31,-388.28 179.5,-388.28"/>
<polygon fill="black" stroke="black" points="179.85,-391.78 189.85,-388.28 179.85,-384.78 179.85,-391.78"/>
</g>
<!-- mrs.domain.model.user.member.Member&#45;&gt;mrs.domain.model.auth.user.UserId -->
<g id="edge18" class="edge">
<title>mrs.domain.model.user.member.Member&#45;&gt;mrs.domain.model.auth.user.UserId</title>
<path fill="none" stroke="black" d="M86.3,-407.32C103.08,-416.85 124.54,-427.72 145,-434.28 231.36,-461.95 336.46,-473.06 400.51,-477.46"/>
<polygon fill="black" stroke="black" points="400.61,-480.97 410.82,-478.13 401.07,-473.99 400.61,-480.97"/>
</g>
<!-- mrs.domain.model.user.member.Member&#45;&gt;mrs.domain.model.auth.user.UserName -->
<g id="edge27" class="edge">
<title>mrs.domain.model.user.member.Member&#45;&gt;mrs.domain.model.auth.user.UserName</title>
<path fill="none" stroke="black" d="M76.18,-369.02C93.28,-354.25 118.92,-334.69 145,-324.28 219.97,-294.34 312.09,-284.26 377.11,-281.11"/>
<polygon fill="black" stroke="black" points="377.47,-284.6 387.31,-280.67 377.16,-277.61 377.47,-284.6"/>
</g>
<!-- mrs.domain.model.user.member.Member&#45;&gt;mrs.domain.model.contact.ContactPerson -->
<g id="edge36" class="edge">
<title>mrs.domain.model.user.member.Member&#45;&gt;mrs.domain.model.contact.ContactPerson</title>
<path fill="none" stroke="black" d="M64.88,-407.47C83.08,-444.15 123.27,-522.39 145,-543.28 147.85,-546.02 150.88,-548.65 154.03,-551.17"/>
<polygon fill="black" stroke="black" points="152.01,-554.03 162.12,-557.22 156.2,-548.42 152.01,-554.03"/>
</g>
<!-- mrs.domain.model.user.member.Member&#45;&gt;mrs.domain.model.reservation.reservation.Reservation -->
<g id="edge32" class="edge">
<title>mrs.domain.model.user.member.Member&#45;&gt;mrs.domain.model.reservation.reservation.Reservation</title>
<path fill="none" stroke="black" d="M69.38,-369.14C89.65,-341.63 126.89,-292.84 145,-280.28 213.1,-233.04 303.62,-204.5 369.97,-188.54"/>
<polygon fill="black" stroke="black" points="371.06,-191.88 379.99,-186.18 369.46,-185.07 371.06,-191.88"/>
</g>
<!-- mrs.domain.model.user.staff.Staff -->
<g id="node16" class="node">
<title>mrs.domain.model.user.staff.Staff</title>
<polygon fill="lemonchiffon" stroke="black" points="90.5,-304.28 18.5,-304.28 18.5,-266.28 90.5,-266.28 90.5,-304.28"/>
<text text-anchor="middle" x="54.5" y="-289.08" font-family="Times,serif" font-size="14.00">スタッフ</text>
<text text-anchor="middle" x="54.5" y="-274.08" font-family="Times,serif" font-size="14.00">Staff</text>
</g>
<!-- mrs.domain.model.user.staff.Staff&#45;&gt;mrs.domain.model.auth.user.Password -->
<g id="edge5" class="edge">
<title>mrs.domain.model.user.staff.Staff&#45;&gt;mrs.domain.model.auth.user.Password</title>
<path fill="none" stroke="black" d="M70.5,-304.42C81.78,-319.22 97.23,-340.48 109,-360.28 127.68,-391.72 115.72,-412.37 145,-434.28 215.73,-487.2 264.35,-423.36 341,-467.28 362.63,-479.67 356.53,-496.06 377,-510.28 379.52,-512.03 382.16,-513.69 384.89,-515.25"/>
<polygon fill="black" stroke="black" points="383.34,-518.39 393.82,-519.95 386.59,-512.2 383.34,-518.39"/>
</g>
<!-- mrs.domain.model.user.staff.Staff&#45;&gt;mrs.domain.model.auth.user.RoleName -->
<g id="edge24" class="edge">
<title>mrs.domain.model.user.staff.Staff&#45;&gt;mrs.domain.model.auth.user.RoleName</title>
<path fill="none" stroke="black" d="M90.68,-286.04C145.49,-288.11 254,-295.8 341,-324.28 358.1,-329.88 375.62,-337.92 391.75,-346.42"/>
<polygon fill="black" stroke="black" points="390.09,-349.51 400.55,-351.18 393.42,-343.35 390.09,-349.51"/>
</g>
<!-- mrs.domain.model.user.staff.Staff&#45;&gt;mrs.domain.model.auth.user.User -->
<g id="edge11" class="edge">
<title>mrs.domain.model.user.staff.Staff&#45;&gt;mrs.domain.model.auth.user.User</title>
<path fill="none" stroke="black" d="M87.62,-304.38C104.59,-314.36 125.81,-326.67 145,-337.28 156.54,-343.66 168.95,-350.33 180.9,-356.66"/>
<polygon fill="black" stroke="black" points="179.45,-359.85 189.93,-361.42 182.72,-353.66 179.45,-359.85"/>
</g>
<!-- mrs.domain.model.user.staff.Staff&#45;&gt;mrs.domain.model.auth.user.UserId -->
<g id="edge19" class="edge">
<title>mrs.domain.model.user.staff.Staff&#45;&gt;mrs.domain.model.auth.user.UserId</title>
<path fill="none" stroke="black" d="M90.59,-295.52C107.03,-300.1 126.92,-305.34 145,-309.28 231.31,-328.07 272.44,-286.57 341,-342.28 375.08,-369.97 348.17,-401.16 377,-434.28 383.98,-442.3 392.73,-449.22 401.88,-455.08"/>
<polygon fill="black" stroke="black" points="400.36,-458.25 410.74,-460.37 403.95,-452.24 400.36,-458.25"/>
</g>
<!-- mrs.domain.model.user.staff.Staff&#45;&gt;mrs.domain.model.auth.user.UserName -->
<g id="edge28" class="edge">
<title>mrs.domain.model.user.staff.Staff&#45;&gt;mrs.domain.model.auth.user.UserName</title>
<path fill="none" stroke="black" d="M67.57,-266.12C82.62,-244.22 110.61,-209.58 145,-195.28 225.43,-161.83 258.1,-168.53 341,-195.28 350.46,-198.33 392.91,-229.77 424.2,-253.54"/>
<polygon fill="black" stroke="black" points="422.21,-256.42 432.29,-259.7 426.45,-250.85 422.21,-256.42"/>
</g>
<!-- mrs.domain.model.user.staff.Staff&#45;&gt;mrs.domain.model.reservation.reservation.Reservation -->
<g id="edge33" class="edge">
<title>mrs.domain.model.user.staff.Staff&#45;&gt;mrs.domain.model.reservation.reservation.Reservation</title>
<path fill="none" stroke="black" d="M56.3,-266C59.36,-220.49 74.08,-106.55 145,-58.28 217.01,-9.26 266.23,-13.58 341,-58.28 370.01,-75.63 353.32,-101.16 377,-125.28 377.77,-126.07 378.56,-126.84 379.36,-127.61"/>
<polygon fill="black" stroke="black" points="377.13,-130.3 386.96,-134.25 381.74,-125.04 377.13,-130.3"/>
</g>
</g>
</svg>
