<?xml version="1.0" encoding="UTF-8" standalone="no"?>
<!DOCTYPE svg PUBLIC "-//W3C//DTD SVG 1.1//EN"
        "http://www.w3.org/Graphics/SVG/1.1/DTD/svg11.dtd">
<!-- Generated by graphviz version 3.0.0 (20220226.1711)
 -->
<!-- Title: ビジネスルール関連図 Pages: 1 -->
<svg width="512pt" height="272pt"
     viewBox="0.00 0.00 512.00 272.00" xmlns="http://www.w3.org/2000/svg">
    <g id="graph0" class="graph" transform="scale(1 1) rotate(0) translate(4 268)">
        <title>ビジネスルール関連図</title>
        <polygon fill="white" stroke="transparent" points="-4,4 -4,-268 508,-268 508,4 -4,4"/>
        <text text-anchor="middle" x="252" y="-7.8" font-family="Times New Roman,serif" font-size="14.00">ビジネスルール関連図
        </text>
        <g id="clust3" class="cluster">
            <title>cluster_mrs.domain.model.user</title>
            <polygon fill="lemonchiffon" stroke="#eedd82" stroke-width="2"
                     points="334,-31 334,-256 496,-256 496,-31 334,-31"/>
            <text text-anchor="middle" x="415" y="-240.8" font-family="Times New Roman,serif" font-size="14.00">user
            </text>
        </g>
        <g id="clust1" class="cluster">
            <title>cluster_mrs.domain.model.reservation.reservation</title>
            <polygon fill="lemonchiffon" stroke="#eedd82" stroke-width="2"
                     points="184,-179 184,-256 326,-256 326,-179 184,-179"/>
            <text text-anchor="middle" x="255" y="-240.8" font-family="Times New Roman,serif" font-size="14.00">
                reservation.reservation
            </text>
        </g>
        <g id="clust2" class="cluster">
            <title>cluster_mrs.domain.model.reservation.room</title>
            <polygon fill="lemonchiffon" stroke="#eedd82" stroke-width="2"
                     points="8,-31 8,-256 176,-256 176,-31 8,-31"/>
            <text text-anchor="middle" x="92" y="-240.8" font-family="Times New Roman,serif" font-size="14.00">
                reservation.room
            </text>
        </g>
        <!-- mrs.domain.model.reservation.reservation.Reservation -->
        <g id="node1" class="node">
            <title>mrs.domain.model.reservation.reservation.Reservation</title>
            <polygon fill="#eedd82" stroke="black" points="275.5,-225 192.5,-225 192.5,-187 275.5,-187 275.5,-225"/>
            <text text-anchor="middle" x="234" y="-209.8" font-family="Times New Roman,serif" font-size="14.00">予約
            </text>
            <text text-anchor="middle" x="234" y="-194.8" font-family="Times New Roman,serif" font-size="14.00">
                Reservation
            </text>
        </g>
        <!-- mrs.domain.model.reservation.room.ReservableRoom -->
        <g id="node3" class="node">
            <title>mrs.domain.model.reservation.room.ReservableRoom</title>
            <polygon fill="#eedd82" stroke="black" points="163.5,-151 26.5,-151 26.5,-113 163.5,-113 163.5,-151"/>
            <text text-anchor="middle" x="95" y="-135.8" font-family="Times New Roman,serif" font-size="14.00">予約可能会議室
            </text>
            <text text-anchor="middle" x="95" y="-120.8" font-family="Times New Roman,serif" font-size="14.00">
                ReservableRoom
            </text>
        </g>
        <!-- mrs.domain.model.reservation.reservation.Reservation&#45;&gt;mrs.domain.model.reservation.room.ReservableRoom -->
        <g id="edge1" class="edge">
            <title>mrs.domain.model.reservation.reservation.Reservation&#45;&gt;mrs.domain.model.reservation.room.ReservableRoom</title>
            <path fill="none" stroke="black" d="M204.88,-186.83C187.46,-177.33 164.96,-165.61 144.82,-155.54"/>
            <polygon fill="black" stroke="black" points="146.28,-152.35 135.76,-151.04 143.16,-158.62 146.28,-152.35"/>
        </g>
        <!-- mrs.domain.model.reservation.room.ReservableRoomId -->
        <g id="node4" class="node">
            <title>mrs.domain.model.reservation.room.ReservableRoomId</title>
            <polygon fill="#eedd82" stroke="black" points="168,-77 16,-77 16,-39 168,-39 168,-77"/>
            <text text-anchor="middle" x="92" y="-61.8" font-family="Times New Roman,serif" font-size="14.00">
                予約可能会議室ID
            </text>
            <text text-anchor="middle" x="92" y="-46.8" font-family="Times New Roman,serif" font-size="14.00">
                ReservableRoomId
            </text>
        </g>
        <!-- mrs.domain.model.reservation.reservation.Reservation&#45;&gt;mrs.domain.model.reservation.room.ReservableRoomId -->
        <g id="edge2" class="edge">
            <title>mrs.domain.model.reservation.reservation.Reservation&#45;&gt;mrs.domain.model.reservation.room.ReservableRoomId</title>
            <path fill="none" stroke="black"
                  d="M224.82,-186.88C214.22,-167.13 195.33,-135.39 173,-113 161.54,-101.52 147.29,-91.05 133.95,-82.46"/>
            <polygon fill="black" stroke="black" points="135.69,-79.42 125.36,-77.09 131.98,-85.36 135.69,-79.42"/>
        </g>
        <!-- mrs.domain.model.user.User -->
        <g id="node7" class="node">
            <title>mrs.domain.model.user.User</title>
            <polygon fill="#eedd82" stroke="black" points="396,-151 342,-151 342,-113 396,-113 396,-151"/>
            <text text-anchor="middle" x="369" y="-135.8" font-family="Times New Roman,serif" font-size="14.00">会員
            </text>
            <text text-anchor="middle" x="369" y="-120.8" font-family="Times New Roman,serif" font-size="14.00">User
            </text>
        </g>
        <!-- mrs.domain.model.reservation.reservation.Reservation&#45;&gt;mrs.domain.model.user.User -->
        <g id="edge3" class="edge">
            <title>mrs.domain.model.reservation.reservation.Reservation&#45;&gt;mrs.domain.model.user.User</title>
            <path fill="none" stroke="black" d="M262.11,-186.83C282.59,-175.31 310.36,-160.54 332.52,-149.38"/>
            <polygon fill="black" stroke="black" points="334.25,-152.43 341.64,-144.84 331.13,-146.16 334.25,-152.43"/>
        </g>
        <!-- mrs.domain.model.reservation.room.MeetingRoom -->
        <g id="node2" class="node">
            <title>mrs.domain.model.reservation.room.MeetingRoom</title>
            <polygon fill="#eedd82" stroke="black" points="143,-225 47,-225 47,-187 143,-187 143,-225"/>
            <text text-anchor="middle" x="95" y="-209.8" font-family="Times New Roman,serif" font-size="14.00">会議室
            </text>
            <text text-anchor="middle" x="95" y="-194.8" font-family="Times New Roman,serif" font-size="14.00">
                MeetingRoom
            </text>
        </g>
        <!-- mrs.domain.model.reservation.room.MeetingRoom&#45;&gt;mrs.domain.model.reservation.room.ReservableRoom -->
        <g id="edge4" class="edge">
            <title>mrs.domain.model.reservation.room.MeetingRoom&#45;&gt;mrs.domain.model.reservation.room.ReservableRoom</title>
            <path fill="none" stroke="black" d="M89.05,-186.83C88.3,-179.13 88.08,-169.97 88.38,-161.42"/>
            <polygon fill="black" stroke="black" points="91.88,-161.62 89.02,-151.41 84.89,-161.17 91.88,-161.62"/>
        </g>
        <!-- mrs.domain.model.reservation.room.ReservableRoom&#45;&gt;mrs.domain.model.reservation.reservation.Reservation -->
        <g id="edge5" class="edge">
            <title>mrs.domain.model.reservation.room.ReservableRoom&#45;&gt;mrs.domain.model.reservation.reservation.Reservation</title>
            <path fill="none" stroke="black" d="M124.11,-151.16C141.46,-160.63 163.86,-172.29 183.94,-182.34"/>
            <polygon fill="black" stroke="black" points="182.46,-185.52 192.97,-186.83 185.57,-179.25 182.46,-185.52"/>
        </g>
        <!-- mrs.domain.model.reservation.room.ReservableRoom&#45;&gt;mrs.domain.model.reservation.room.MeetingRoom -->
        <g id="edge6" class="edge">
            <title>mrs.domain.model.reservation.room.ReservableRoom&#45;&gt;mrs.domain.model.reservation.room.MeetingRoom</title>
            <path fill="none" stroke="black" d="M100.98,-151.41C101.71,-159.06 101.92,-168.11 101.62,-176.57"/>
            <polygon fill="black" stroke="black" points="98.1,-176.63 100.95,-186.83 105.09,-177.08 98.1,-176.63"/>
        </g>
        <!-- mrs.domain.model.reservation.room.ReservableRoom&#45;&gt;mrs.domain.model.reservation.room.ReservableRoomId -->
        <g id="edge7" class="edge">
            <title>mrs.domain.model.reservation.room.ReservableRoom&#45;&gt;mrs.domain.model.reservation.room.ReservableRoomId</title>
            <path fill="none" stroke="black" d="M94.24,-112.83C93.92,-105.13 93.54,-95.97 93.18,-87.42"/>
            <polygon fill="black" stroke="black" points="96.68,-87.26 92.77,-77.41 89.69,-87.55 96.68,-87.26"/>
        </g>
        <!-- mrs.domain.model.user.ReservationUserDetails -->
        <g id="node5" class="node">
            <title>mrs.domain.model.user.ReservationUserDetails</title>
            <polygon fill="#eedd82" stroke="black" points="488,-225 342,-225 342,-187 488,-187 488,-225"/>
            <text text-anchor="middle" x="415" y="-209.8" font-family="Times New Roman,serif" font-size="14.00">
                認証済み利用者
            </text>
            <text text-anchor="middle" x="415" y="-194.8" font-family="Times New Roman,serif" font-size="14.00">
                ReservationUserDetails
            </text>
        </g>
        <!-- mrs.domain.model.user.RoleName -->
        <g id="node6" class="node">
            <title>mrs.domain.model.user.RoleName</title>
            <polygon fill="#eedd82" stroke="black" points="455.5,-77 352.5,-77 352.5,-39 455.5,-39 455.5,-77"/>
            <text text-anchor="middle" x="404" y="-61.8" font-family="Times New Roman,serif" font-size="14.00">利用者区分
            </text>
            <text text-anchor="middle" x="404" y="-46.8" font-family="Times New Roman,serif" font-size="14.00">
                RoleName
            </text>
        </g>
        <!-- mrs.domain.model.user.ReservationUserDetails&#45;&gt;mrs.domain.model.user.RoleName -->
        <g id="edge8" class="edge">
            <title>mrs.domain.model.user.ReservationUserDetails&#45;&gt;mrs.domain.model.user.RoleName</title>
            <path fill="none" stroke="black" d="M413.63,-186.8C411.75,-161.89 408.36,-116.89 406.15,-87.49"/>
            <polygon fill="black" stroke="black" points="409.63,-87.13 405.39,-77.43 402.65,-87.66 409.63,-87.13"/>
        </g>
        <!-- mrs.domain.model.user.ReservationUserDetails&#45;&gt;mrs.domain.model.user.User -->
        <g id="edge9" class="edge">
            <title>mrs.domain.model.user.ReservationUserDetails&#45;&gt;mrs.domain.model.user.User</title>
            <path fill="none" stroke="black" d="M403.39,-186.83C398.2,-178.71 391.98,-168.96 386.26,-160.01"/>
            <polygon fill="black" stroke="black" points="389.1,-157.96 380.76,-151.41 383.2,-161.72 389.1,-157.96"/>
        </g>
        <!-- mrs.domain.model.user.User&#45;&gt;mrs.domain.model.reservation.reservation.Reservation -->
        <g id="edge10" class="edge">
            <title>mrs.domain.model.user.User&#45;&gt;mrs.domain.model.reservation.reservation.Reservation</title>
            <path fill="none" stroke="black" d="M341.78,-150.67C324.88,-160.19 302.77,-172.06 282.94,-182.27"/>
            <polygon fill="black" stroke="black" points="281.33,-179.16 274.02,-186.83 284.52,-185.4 281.33,-179.16"/>
        </g>
        <!-- mrs.domain.model.user.User&#45;&gt;mrs.domain.model.user.RoleName -->
        <g id="edge11" class="edge">
            <title>mrs.domain.model.user.User&#45;&gt;mrs.domain.model.user.RoleName</title>
            <path fill="none" stroke="black" d="M377.83,-112.83C381.7,-104.88 386.32,-95.37 390.6,-86.57"/>
            <polygon fill="black" stroke="black" points="393.82,-87.94 395.05,-77.41 387.53,-84.88 393.82,-87.94"/>
        </g>
    </g>
</svg>
