<?xml version="1.0" encoding="UTF-8" standalone="no"?>
<!DOCTYPE svg PUBLIC "-//W3C//DTD SVG 1.1//EN"
        "http://www.w3.org/Graphics/SVG/1.1/DTD/svg11.dtd">
<!-- Generated by graphviz version 3.0.0 (20220226.1711)
 -->
<!-- Title: ビジネスルール関連図 Pages: 1 -->
<svg width="810pt" height="355pt"
     viewBox="0.00 0.00 810.00 355.00" xmlns="http://www.w3.org/2000/svg">
    <g id="graph0" class="graph" transform="scale(1 1) rotate(0) translate(4 351)">
        <title>ビジネスルール関連図</title>
        <polygon fill="white" stroke="transparent" points="-4,4 -4,-351 806,-351 806,4 -4,4"/>
        <text text-anchor="middle" x="401" y="-7.8" font-family="Times New Roman,serif" font-size="14.00">ビジネスルール関連図
        </text>
        <g id="clust3" class="cluster">
            <title>cluster_mrs.domain.model.room</title>
            <polygon fill="lemonchiffon" stroke="#eedd82" stroke-width="2"
                     points="232,-103 232,-254 514,-254 514,-103 232,-103"/>
            <text text-anchor="middle" x="373" y="-238.8" font-family="Times New Roman,serif" font-size="14.00">room
            </text>
        </g>
        <g id="clust1" class="cluster">
            <title>cluster_mrs.domain.model.autogen.sample</title>
            <polygon fill="lemonchiffon" stroke="#eedd82" stroke-width="2"
                     points="8,-31 8,-338 224,-338 224,-31 8,-31"/>
            <text text-anchor="middle" x="116" y="-322.8" font-family="Times New Roman,serif" font-size="14.00">
                autogen.sample
            </text>
        </g>
        <g id="clust2" class="cluster">
            <title>cluster_mrs.domain.model.reservation</title>
            <polygon fill="lemonchiffon" stroke="#eedd82" stroke-width="2"
                     points="397,-262 397,-339 497,-339 497,-262 397,-262"/>
            <text text-anchor="middle" x="447" y="-323.8" font-family="Times New Roman,serif" font-size="14.00">
                reservation
            </text>
        </g>
        <g id="clust4" class="cluster">
            <title>cluster_mrs.domain.model.todo</title>
            <polygon fill="lemonchiffon" stroke="#eedd82" stroke-width="2"
                     points="692,-262 692,-339 794,-339 794,-262 692,-262"/>
            <text text-anchor="middle" x="743" y="-323.8" font-family="Times New Roman,serif" font-size="14.00">todo
            </text>
        </g>
        <g id="clust5" class="cluster">
            <title>cluster_mrs.domain.model.user</title>
            <polygon fill="lemonchiffon" stroke="#eedd82" stroke-width="2"
                     points="522,-103 522,-339 684,-339 684,-103 522,-103"/>
            <text text-anchor="middle" x="603" y="-323.8" font-family="Times New Roman,serif" font-size="14.00">user
            </text>
        </g>
        <!-- mrs.domain.model.autogen.sample.Todo -->
        <g id="node1" class="node">
            <title>mrs.domain.model.autogen.sample.Todo</title>
            <polygon fill="#eedd82" stroke="red" points="216,-307 162,-307 162,-271 216,-271 216,-307"/>
            <text text-anchor="middle" x="189" y="-285.3" font-family="Times New Roman,serif" font-size="14.00">Todo
            </text>
        </g>
        <!-- mrs.domain.model.autogen.sample.TodoExample -->
        <g id="node2" class="node">
            <title>mrs.domain.model.autogen.sample.TodoExample</title>
            <polygon fill="#eedd82" stroke="black" points="144,-307 48,-307 48,-271 144,-271 144,-307"/>
            <text text-anchor="middle" x="96" y="-285.3" font-family="Times New Roman,serif" font-size="14.00">
                TodoExample
            </text>
        </g>
        <!-- mrs.domain.model.autogen.sample.TodoExample$Criteria -->
        <g id="node3" class="node">
            <title>mrs.domain.model.autogen.sample.TodoExample$Criteria</title>
            <polygon fill="#eedd82" stroke="black" points="187.5,-222 44.5,-222 44.5,-186 187.5,-186 187.5,-222"/>
            <text text-anchor="middle" x="116" y="-200.3" font-family="Times New Roman,serif" font-size="14.00">
                TodoExample$Criteria
            </text>
        </g>
        <!-- mrs.domain.model.autogen.sample.TodoExample&#45;&gt;mrs.domain.model.autogen.sample.TodoExample$Criteria -->
        <g id="edge4" class="edge">
            <title>mrs.domain.model.autogen.sample.TodoExample&#45;&gt;mrs.domain.model.autogen.sample.TodoExample$Criteria</title>
            <path fill="none" stroke="black" d="M100.14,-270.8C102.83,-259.67 106.37,-244.94 109.44,-232.24"/>
            <polygon fill="black" stroke="black" points="112.92,-232.72 111.86,-222.18 106.12,-231.08 112.92,-232.72"/>
        </g>
        <!-- mrs.domain.model.autogen.sample.TodoExample$GeneratedCriteria -->
        <g id="node5" class="node">
            <title>mrs.domain.model.autogen.sample.TodoExample$GeneratedCriteria</title>
            <polygon fill="#eedd82" stroke="black" points="216,-148 16,-148 16,-112 216,-112 216,-148"/>
            <text text-anchor="middle" x="116" y="-126.3" font-family="Times New Roman,serif" font-size="14.00">
                TodoExample$GeneratedCriteria
            </text>
        </g>
        <!-- mrs.domain.model.autogen.sample.TodoExample$Criteria&#45;&gt;mrs.domain.model.autogen.sample.TodoExample$GeneratedCriteria -->
        <g id="edge1" class="edge">
            <title>mrs.domain.model.autogen.sample.TodoExample$Criteria&#45;&gt;mrs.domain.model.autogen.sample.TodoExample$GeneratedCriteria</title>
            <path fill="none" stroke="black" d="M110.16,-185.94C109.3,-177.81 109.05,-167.88 109.41,-158.7"/>
            <polygon fill="black" stroke="black" points="112.92,-158.66 110.12,-148.44 105.94,-158.18 112.92,-158.66"/>
        </g>
        <!-- mrs.domain.model.autogen.sample.TodoExample$Criterion -->
        <g id="node4" class="node">
            <title>mrs.domain.model.autogen.sample.TodoExample$Criterion</title>
            <polygon fill="#eedd82" stroke="black" points="192,-75 40,-75 40,-39 192,-39 192,-75"/>
            <text text-anchor="middle" x="116" y="-53.3" font-family="Times New Roman,serif" font-size="14.00">
                TodoExample$Criterion
            </text>
        </g>
        <!-- mrs.domain.model.autogen.sample.TodoExample$GeneratedCriteria&#45;&gt;mrs.domain.model.autogen.sample.TodoExample$Criteria -->
        <g id="edge2" class="edge">
            <title>mrs.domain.model.autogen.sample.TodoExample$GeneratedCriteria&#45;&gt;mrs.domain.model.autogen.sample.TodoExample$Criteria</title>
            <path fill="none" stroke="black" d="M121.88,-148.44C122.72,-156.63 122.95,-166.57 122.57,-175.72"/>
            <polygon fill="black" stroke="black" points="119.06,-175.71 121.84,-185.94 126.04,-176.21 119.06,-175.71"/>
        </g>
        <!-- mrs.domain.model.autogen.sample.TodoExample$GeneratedCriteria&#45;&gt;mrs.domain.model.autogen.sample.TodoExample$Criterion -->
        <g id="edge3" class="edge">
            <title>mrs.domain.model.autogen.sample.TodoExample$GeneratedCriteria&#45;&gt;mrs.domain.model.autogen.sample.TodoExample$Criterion</title>
            <path fill="none" stroke="black" d="M116,-111.81C116,-103.79 116,-94.05 116,-85.07"/>
            <polygon fill="black" stroke="black" points="119.5,-85.03 116,-75.03 112.5,-85.03 119.5,-85.03"/>
        </g>
        <!-- mrs.domain.model.reservation.Reservation -->
        <g id="node6" class="node">
            <title>mrs.domain.model.reservation.Reservation</title>
            <polygon fill="#eedd82" stroke="black" points="488.5,-308 405.5,-308 405.5,-270 488.5,-270 488.5,-308"/>
            <text text-anchor="middle" x="447" y="-292.8" font-family="Times New Roman,serif" font-size="14.00">予約
            </text>
            <text text-anchor="middle" x="447" y="-277.8" font-family="Times New Roman,serif" font-size="14.00">
                Reservation
            </text>
        </g>
        <!-- mrs.domain.model.room.ReservableRoom -->
        <g id="node8" class="node">
            <title>mrs.domain.model.room.ReservableRoom</title>
            <polygon fill="#eedd82" stroke="black" points="418.5,-223 281.5,-223 281.5,-185 418.5,-185 418.5,-223"/>
            <text text-anchor="middle" x="350" y="-207.8" font-family="Times New Roman,serif" font-size="14.00">
                予約可能会議室
            </text>
            <text text-anchor="middle" x="350" y="-192.8" font-family="Times New Roman,serif" font-size="14.00">
                ReservableRoom
            </text>
        </g>
        <!-- mrs.domain.model.reservation.Reservation&#45;&gt;mrs.domain.model.room.ReservableRoom -->
        <g id="edge5" class="edge">
            <title>mrs.domain.model.reservation.Reservation&#45;&gt;mrs.domain.model.room.ReservableRoom</title>
            <path fill="none" stroke="black" d="M425.95,-269.99C412.32,-258.32 394.37,-242.97 379.34,-230.11"/>
            <polygon fill="black" stroke="black" points="381.22,-227.1 371.34,-223.26 376.66,-232.42 381.22,-227.1"/>
        </g>
        <!-- mrs.domain.model.room.ReservableRoomId -->
        <g id="node9" class="node">
            <title>mrs.domain.model.room.ReservableRoomId</title>
            <polygon fill="#eedd82" stroke="black" points="506,-149 354,-149 354,-111 506,-111 506,-149"/>
            <text text-anchor="middle" x="430" y="-133.8" font-family="Times New Roman,serif" font-size="14.00">
                予約可能会議室ID
            </text>
            <text text-anchor="middle" x="430" y="-118.8" font-family="Times New Roman,serif" font-size="14.00">
                ReservableRoomId
            </text>
        </g>
        <!-- mrs.domain.model.reservation.Reservation&#45;&gt;mrs.domain.model.room.ReservableRoomId -->
        <g id="edge6" class="edge">
            <title>mrs.domain.model.reservation.Reservation&#45;&gt;mrs.domain.model.room.ReservableRoomId</title>
            <path fill="none" stroke="black" d="M445.05,-269.99C442.12,-242.93 436.55,-191.52 433.07,-159.38"/>
            <polygon fill="black" stroke="black" points="436.54,-158.85 431.98,-149.28 429.58,-159.6 436.54,-158.85"/>
        </g>
        <!-- mrs.domain.model.user.User -->
        <g id="node13" class="node">
            <title>mrs.domain.model.user.User</title>
            <polygon fill="#eedd82" stroke="black" points="598,-223 530,-223 530,-185 598,-185 598,-223"/>
            <text text-anchor="middle" x="564" y="-207.8" font-family="Times New Roman,serif" font-size="14.00">利用者
            </text>
            <text text-anchor="middle" x="564" y="-192.8" font-family="Times New Roman,serif" font-size="14.00">User
            </text>
        </g>
        <!-- mrs.domain.model.reservation.Reservation&#45;&gt;mrs.domain.model.user.User -->
        <g id="edge7" class="edge">
            <title>mrs.domain.model.reservation.Reservation&#45;&gt;mrs.domain.model.user.User</title>
            <path fill="none" stroke="black"
                  d="M488.65,-271.22C498.68,-266.34 509.07,-260.54 518,-254 526.9,-247.49 535.49,-239.11 542.8,-231.12"/>
            <polygon fill="black" stroke="black" points="545.66,-233.18 549.64,-223.36 540.4,-228.55 545.66,-233.18"/>
        </g>
        <!-- mrs.domain.model.room.MeetingRoom -->
        <g id="node7" class="node">
            <title>mrs.domain.model.room.MeetingRoom</title>
            <polygon fill="#eedd82" stroke="black" points="336,-149 240,-149 240,-111 336,-111 336,-149"/>
            <text text-anchor="middle" x="288" y="-133.8" font-family="Times New Roman,serif" font-size="14.00">会議室
            </text>
            <text text-anchor="middle" x="288" y="-118.8" font-family="Times New Roman,serif" font-size="14.00">
                MeetingRoom
            </text>
        </g>
        <!-- mrs.domain.model.room.ReservableRoom&#45;&gt;mrs.domain.model.room.MeetingRoom -->
        <g id="edge8" class="edge">
            <title>mrs.domain.model.room.ReservableRoom&#45;&gt;mrs.domain.model.room.MeetingRoom</title>
            <path fill="none" stroke="black" d="M334.35,-184.83C327.14,-176.45 318.44,-166.35 310.54,-157.17"/>
            <polygon fill="black" stroke="black" points="313.03,-154.71 303.86,-149.41 307.73,-159.27 313.03,-154.71"/>
        </g>
        <!-- mrs.domain.model.room.ReservableRoom&#45;&gt;mrs.domain.model.room.ReservableRoomId -->
        <g id="edge9" class="edge">
            <title>mrs.domain.model.room.ReservableRoom&#45;&gt;mrs.domain.model.room.ReservableRoomId</title>
            <path fill="none" stroke="black" d="M370.19,-184.83C379.85,-176.13 391.58,-165.58 402.08,-156.13"/>
            <polygon fill="black" stroke="black" points="404.73,-158.45 409.82,-149.16 400.04,-153.25 404.73,-158.45"/>
        </g>
        <!-- mrs.domain.model.todo.Todo -->
        <g id="node10" class="node">
            <title>mrs.domain.model.todo.Todo</title>
            <polygon fill="#eedd82" stroke="red" points="786,-308 700,-308 700,-270 786,-270 786,-308"/>
            <text text-anchor="middle" x="743" y="-292.8" font-family="Times New Roman,serif" font-size="14.00">やること
            </text>
            <text text-anchor="middle" x="743" y="-277.8" font-family="Times New Roman,serif" font-size="14.00">Todo
            </text>
        </g>
        <!-- mrs.domain.model.user.ReservationUserDetails -->
        <g id="node11" class="node">
            <title>mrs.domain.model.user.ReservationUserDetails</title>
            <polygon fill="#eedd82" stroke="black" points="676,-308 530,-308 530,-270 676,-270 676,-308"/>
            <text text-anchor="middle" x="603" y="-292.8" font-family="Times New Roman,serif" font-size="14.00">
                認証済み利用者
            </text>
            <text text-anchor="middle" x="603" y="-277.8" font-family="Times New Roman,serif" font-size="14.00">
                ReservationUserDetails
            </text>
        </g>
        <!-- mrs.domain.model.user.RoleName -->
        <g id="node12" class="node">
            <title>mrs.domain.model.user.RoleName</title>
            <polygon fill="#eedd82" stroke="black" points="650.5,-149 547.5,-149 547.5,-111 650.5,-111 650.5,-149"/>
            <text text-anchor="middle" x="599" y="-133.8" font-family="Times New Roman,serif" font-size="14.00">利用者区分
            </text>
            <text text-anchor="middle" x="599" y="-118.8" font-family="Times New Roman,serif" font-size="14.00">
                RoleName
            </text>
        </g>
        <!-- mrs.domain.model.user.ReservationUserDetails&#45;&gt;mrs.domain.model.user.RoleName -->
        <g id="edge10" class="edge">
            <title>mrs.domain.model.user.ReservationUserDetails&#45;&gt;mrs.domain.model.user.RoleName</title>
            <path fill="none" stroke="black"
                  d="M605.55,-269.68C606.15,-264.61 606.7,-259.1 607,-254 608.79,-223.39 609.25,-215.58 607,-185 606.38,-176.63 605.24,-167.58 604,-159.33"/>
            <polygon fill="black" stroke="black" points="607.45,-158.74 602.41,-149.42 600.54,-159.85 607.45,-158.74"/>
        </g>
        <!-- mrs.domain.model.user.ReservationUserDetails&#45;&gt;mrs.domain.model.user.User -->
        <g id="edge11" class="edge">
            <title>mrs.domain.model.user.ReservationUserDetails&#45;&gt;mrs.domain.model.user.User</title>
            <path fill="none" stroke="black" d="M594.54,-269.99C589.41,-259.08 582.77,-244.94 576.99,-232.64"/>
            <polygon fill="black" stroke="black" points="580,-230.82 572.58,-223.26 573.67,-233.8 580,-230.82"/>
        </g>
        <!-- mrs.domain.model.user.User&#45;&gt;mrs.domain.model.user.RoleName -->
        <g id="edge12" class="edge">
            <title>mrs.domain.model.user.User&#45;&gt;mrs.domain.model.user.RoleName</title>
            <path fill="none" stroke="black" d="M572.83,-184.83C576.7,-176.88 581.32,-167.37 585.6,-158.57"/>
            <polygon fill="black" stroke="black" points="588.82,-159.94 590.05,-149.41 582.53,-156.88 588.82,-159.94"/>
        </g>
    </g>
</svg>
