<?xml version="1.0" encoding="UTF-8" standalone="no"?>
<!DOCTYPE svg PUBLIC "-//W3C//DTD SVG 1.1//EN"
        "http://www.w3.org/Graphics/SVG/1.1/DTD/svg11.dtd">
<!-- Generated by graphviz version 3.0.0 (20220226.1711)
 -->
<!-- Title: ビジネスルール関連図 Pages: 1 -->
<svg width="1272pt" height="516pt"
     viewBox="0.00 0.00 1272.00 516.00" xmlns="http://www.w3.org/2000/svg">
    <g id="graph0" class="graph" transform="scale(1 1) rotate(0) translate(4 512)">
        <title>ビジネスルール関連図</title>
        <polygon fill="white" stroke="transparent" points="-4,4 -4,-512 1268,-512 1268,4 -4,4"/>
        <text text-anchor="middle" x="632" y="-7.8" font-family="Times New Roman,serif" font-size="14.00">ビジネスルール関連図
        </text>
        <g id="clust2" class="cluster">
            <title>cluster_mrs.domain.model.auth.member</title>
            <polygon fill="lemonchiffon" stroke="#eedd82" stroke-width="2"
                     points="350,-338 350,-500 452,-500 452,-338 350,-338"/>
            <text text-anchor="middle" x="401" y="-484.8" font-family="Times New Roman,serif" font-size="14.00">
                auth.member
            </text>
        </g>
        <g id="clust3" class="cluster">
            <title>cluster_mrs.domain.model.auth.user</title>
            <polygon fill="lemonchiffon" stroke="#eedd82" stroke-width="2"
                     points="8,-253 8,-500 342,-500 342,-253 8,-253"/>
            <text text-anchor="middle" x="175" y="-484.8" font-family="Times New Roman,serif" font-size="14.00">
                auth.user
            </text>
        </g>
        <g id="clust4" class="cluster">
            <title>cluster_mrs.domain.model.reservation.reservation</title>
            <polygon fill="lemonchiffon" stroke="#eedd82" stroke-width="2"
                     points="718,-179 718,-415 946,-415 946,-179 718,-179"/>
            <text text-anchor="middle" x="832" y="-399.8" font-family="Times New Roman,serif" font-size="14.00">
                reservation.reservation
            </text>
        </g>
        <g id="clust1" class="cluster">
            <title>cluster_mrs.domain.model.auth.administrator</title>
            <polygon fill="lemonchiffon" stroke="#eedd82" stroke-width="2"
                     points="566,-423 566,-500 682,-500 682,-423 566,-423"/>
            <text text-anchor="middle" x="624" y="-484.8" font-family="Times New Roman,serif" font-size="14.00">
                auth.administrator
            </text>
        </g>
        <g id="clust5" class="cluster">
            <title>cluster_mrs.domain.model.reservation.room</title>
            <polygon fill="lemonchiffon" stroke="#eedd82" stroke-width="2"
                     points="954,-31 954,-330 1256,-330 1256,-31 954,-31"/>
            <text text-anchor="middle" x="1105" y="-314.8" font-family="Times New Roman,serif" font-size="14.00">
                reservation.room
            </text>
        </g>
        <!-- mrs.domain.model.auth.administrator.Administrator -->
        <g id="node1" class="node">
            <title>mrs.domain.model.auth.administrator.Administrator</title>
            <polygon fill="#eedd82" stroke="black" points="670.5,-469 577.5,-469 577.5,-431 670.5,-431 670.5,-469"/>
            <text text-anchor="middle" x="624" y="-453.8" font-family="Times New Roman,serif" font-size="14.00">管理者
            </text>
            <text text-anchor="middle" x="624" y="-438.8" font-family="Times New Roman,serif" font-size="14.00">
                Administrator
            </text>
        </g>
        <!-- mrs.domain.model.auth.user.RoleName -->
        <g id="node4" class="node">
            <title>mrs.domain.model.auth.user.RoleName</title>
            <polygon fill="#eedd82" stroke="black" points="240.5,-299 137.5,-299 137.5,-261 240.5,-261 240.5,-299"/>
            <text text-anchor="middle" x="189" y="-283.8" font-family="Times New Roman,serif" font-size="14.00">利用者区分
            </text>
            <text text-anchor="middle" x="189" y="-268.8" font-family="Times New Roman,serif" font-size="14.00">
                RoleName
            </text>
        </g>
        <!-- mrs.domain.model.auth.administrator.Administrator&#45;&gt;mrs.domain.model.auth.user.RoleName -->
        <g id="edge1" class="edge">
            <title>mrs.domain.model.auth.administrator.Administrator&#45;&gt;mrs.domain.model.auth.user.RoleName</title>
            <path fill="none" stroke="black"
                  d="M619.84,-430.89C612.84,-405.08 596.01,-358.55 562,-338 532.22,-320.01 281.62,-342.1 249,-330 235.33,-324.93 222.49,-315.37 212.21,-306.03"/>
            <polygon fill="black" stroke="black" points="214.53,-303.41 204.89,-299.01 209.69,-308.46 214.53,-303.41"/>
        </g>
        <!-- mrs.domain.model.auth.user.User -->
        <g id="node5" class="node">
            <title>mrs.domain.model.auth.user.User</title>
            <polygon fill="#eedd82" stroke="black" points="330,-384 262,-384 262,-346 330,-346 330,-384"/>
            <text text-anchor="middle" x="296" y="-368.8" font-family="Times New Roman,serif" font-size="14.00">利用者
            </text>
            <text text-anchor="middle" x="296" y="-353.8" font-family="Times New Roman,serif" font-size="14.00">User
            </text>
        </g>
        <!-- mrs.domain.model.auth.administrator.Administrator&#45;&gt;mrs.domain.model.auth.user.User -->
        <g id="edge2" class="edge">
            <title>mrs.domain.model.auth.administrator.Administrator&#45;&gt;mrs.domain.model.auth.user.User</title>
            <path fill="none" stroke="black"
                  d="M577.43,-440.76C543.78,-435.05 497.2,-427.68 456,-423 431.65,-420.23 368.34,-425.08 346,-415 334.52,-409.82 324.14,-400.8 315.85,-391.9"/>
            <polygon fill="black" stroke="black" points="318.35,-389.44 309.13,-384.21 313.08,-394.05 318.35,-389.44"/>
        </g>
        <!-- mrs.domain.model.auth.user.UserId -->
        <g id="node7" class="node">
            <title>mrs.domain.model.auth.user.UserId</title>
            <polygon fill="#eedd82" stroke="black" points="119.5,-299 16.5,-299 16.5,-261 119.5,-261 119.5,-299"/>
            <text text-anchor="middle" x="68" y="-283.8" font-family="Times New Roman,serif" font-size="14.00">利用者番号
            </text>
            <text text-anchor="middle" x="68" y="-268.8" font-family="Times New Roman,serif" font-size="14.00">UserId
            </text>
        </g>
        <!-- mrs.domain.model.auth.administrator.Administrator&#45;&gt;mrs.domain.model.auth.user.UserId -->
        <g id="edge3" class="edge">
            <title>mrs.domain.model.auth.administrator.Administrator&#45;&gt;mrs.domain.model.auth.user.UserId</title>
            <path fill="none" stroke="black"
                  d="M587.79,-430.87C579.12,-426.06 570.05,-420.63 562,-415 519.41,-385.22 522.43,-356.84 474,-338 438.16,-324.06 164.07,-343.33 128,-330 114.33,-324.95 101.48,-315.39 91.21,-306.05"/>
            <polygon fill="black" stroke="black" points="93.52,-303.42 83.88,-299.03 88.68,-308.47 93.52,-303.42"/>
        </g>
        <!-- mrs.domain.model.auth.user.UserName -->
        <g id="node8" class="node">
            <title>mrs.domain.model.auth.user.UserName</title>
            <polygon fill="#eedd82" stroke="black" points="333.5,-299 258.5,-299 258.5,-261 333.5,-261 333.5,-299"/>
            <text text-anchor="middle" x="296" y="-283.8" font-family="Times New Roman,serif" font-size="14.00">氏名
            </text>
            <text text-anchor="middle" x="296" y="-268.8" font-family="Times New Roman,serif" font-size="14.00">
                UserName
            </text>
        </g>
        <!-- mrs.domain.model.auth.administrator.Administrator&#45;&gt;mrs.domain.model.auth.user.UserName -->
        <g id="edge4" class="edge">
            <title>mrs.domain.model.auth.administrator.Administrator&#45;&gt;mrs.domain.model.auth.user.UserName</title>
            <path fill="none" stroke="black"
                  d="M633.72,-430.9C645.19,-406.77 660.1,-364.08 638,-338 600.84,-294.13 428.7,-283.99 343.72,-281.67"/>
            <polygon fill="black" stroke="black" points="343.64,-278.17 333.56,-281.42 343.47,-285.17 343.64,-278.17"/>
        </g>
        <!-- mrs.domain.model.reservation.reservation.Reservation -->
        <g id="node9" class="node">
            <title>mrs.domain.model.reservation.reservation.Reservation</title>
            <polygon fill="#eedd82" stroke="black" points="812.5,-299 729.5,-299 729.5,-261 812.5,-261 812.5,-299"/>
            <text text-anchor="middle" x="771" y="-283.8" font-family="Times New Roman,serif" font-size="14.00">予約
            </text>
            <text text-anchor="middle" x="771" y="-268.8" font-family="Times New Roman,serif" font-size="14.00">
                Reservation
            </text>
        </g>
        <!-- mrs.domain.model.auth.administrator.Administrator&#45;&gt;mrs.domain.model.reservation.reservation.Reservation -->
        <g id="edge5" class="edge">
            <title>mrs.domain.model.auth.administrator.Administrator&#45;&gt;mrs.domain.model.reservation.reservation.Reservation</title>
            <path fill="none" stroke="black"
                  d="M670.57,-439.24C685.91,-434.13 702.07,-426.45 714,-415 729.89,-399.74 750.57,-343.15 762.14,-308.57"/>
            <polygon fill="black" stroke="black" points="765.48,-309.63 765.29,-299.04 758.83,-307.44 765.48,-309.63"/>
        </g>
        <!-- mrs.domain.model.auth.member.Member -->
        <g id="node2" class="node">
            <title>mrs.domain.model.auth.member.Member</title>
            <polygon fill="#eedd82" stroke="black" points="443.5,-469 380.5,-469 380.5,-431 443.5,-431 443.5,-469"/>
            <text text-anchor="middle" x="412" y="-453.8" font-family="Times New Roman,serif" font-size="14.00">会員
            </text>
            <text text-anchor="middle" x="412" y="-438.8" font-family="Times New Roman,serif" font-size="14.00">Member
            </text>
        </g>
        <!-- mrs.domain.model.auth.member.MemberId -->
        <g id="node3" class="node">
            <title>mrs.domain.model.auth.member.MemberId</title>
            <polygon fill="#eedd82" stroke="black" points="444,-384 358,-384 358,-346 444,-346 444,-384"/>
            <text text-anchor="middle" x="401" y="-368.8" font-family="Times New Roman,serif" font-size="14.00">会員番号
            </text>
            <text text-anchor="middle" x="401" y="-353.8" font-family="Times New Roman,serif" font-size="14.00">
                MemberId
            </text>
        </g>
        <!-- mrs.domain.model.auth.member.Member&#45;&gt;mrs.domain.model.auth.member.MemberId -->
        <g id="edge6" class="edge">
            <title>mrs.domain.model.auth.member.Member&#45;&gt;mrs.domain.model.auth.member.MemberId</title>
            <path fill="none" stroke="black" d="M409.61,-430.99C408.2,-420.3 406.37,-406.5 404.76,-394.37"/>
            <polygon fill="black" stroke="black" points="408.2,-393.71 403.42,-384.26 401.26,-394.63 408.2,-393.71"/>
        </g>
        <!-- mrs.domain.model.auth.member.Member&#45;&gt;mrs.domain.model.auth.user.RoleName -->
        <g id="edge7" class="edge">
            <title>mrs.domain.model.auth.member.Member&#45;&gt;mrs.domain.model.auth.user.RoleName</title>
            <path fill="none" stroke="black"
                  d="M443.57,-442.86C459.17,-438.06 476.61,-429.64 486,-415 504.47,-386.19 509.79,-362.6 486,-338 476.84,-328.53 261.33,-334.63 249,-330 235.56,-324.95 222.89,-315.59 212.69,-306.39"/>
            <polygon fill="black" stroke="black" points="215.06,-303.81 205.4,-299.46 210.24,-308.89 215.06,-303.81"/>
        </g>
        <!-- mrs.domain.model.auth.member.Member&#45;&gt;mrs.domain.model.auth.user.User -->
        <g id="edge8" class="edge">
            <title>mrs.domain.model.auth.member.Member&#45;&gt;mrs.domain.model.auth.user.User</title>
            <path fill="none" stroke="black"
                  d="M380.32,-435.08C369.05,-429.52 356.55,-422.62 346,-415 336.5,-408.14 327.05,-399.49 318.98,-391.37"/>
            <polygon fill="black" stroke="black" points="321.45,-388.89 311.98,-384.14 316.42,-393.76 321.45,-388.89"/>
        </g>
        <!-- mrs.domain.model.auth.member.Member&#45;&gt;mrs.domain.model.auth.user.UserId -->
        <g id="edge9" class="edge">
            <title>mrs.domain.model.auth.member.Member&#45;&gt;mrs.domain.model.auth.user.UserId</title>
            <path fill="none" stroke="black"
                  d="M440.71,-430.89C445.69,-426.35 450.17,-421.03 453,-415 467.55,-384.03 476.9,-362.49 453,-338 440.39,-325.07 144.94,-336.27 128,-330 114.33,-324.94 101.48,-315.38 91.21,-306.04"/>
            <polygon fill="black" stroke="black" points="93.53,-303.41 83.88,-299.02 88.68,-308.47 93.53,-303.41"/>
        </g>
        <!-- mrs.domain.model.auth.member.Member&#45;&gt;mrs.domain.model.auth.user.UserName -->
        <g id="edge10" class="edge">
            <title>mrs.domain.model.auth.member.Member&#45;&gt;mrs.domain.model.auth.user.UserName</title>
            <path fill="none" stroke="black"
                  d="M443.59,-448.99C469.8,-447.1 505.66,-439.73 524,-415 544.38,-387.51 545.06,-364.97 524,-338 502.04,-309.88 403.68,-293.58 343.55,-286.07"/>
            <polygon fill="black" stroke="black" points="343.87,-282.58 333.53,-284.86 343.03,-289.53 343.87,-282.58"/>
        </g>
        <!-- mrs.domain.model.auth.member.Member&#45;&gt;mrs.domain.model.reservation.reservation.Reservation -->
        <g id="edge11" class="edge">
            <title>mrs.domain.model.auth.member.Member&#45;&gt;mrs.domain.model.reservation.reservation.Reservation
            </title>
            <path fill="none" stroke="black"
                  d="M443.72,-443.54C471.19,-438.19 511.64,-428.82 545,-415 617.54,-384.95 694.71,-334.72 737.49,-305.04"/>
            <polygon fill="black" stroke="black" points="739.63,-307.81 745.83,-299.21 735.62,-302.07 739.63,-307.81"/>
        </g>
        <!-- mrs.domain.model.auth.user.User&#45;&gt;mrs.domain.model.auth.user.RoleName -->
        <g id="edge12" class="edge">
            <title>mrs.domain.model.auth.user.User&#45;&gt;mrs.domain.model.auth.user.RoleName</title>
            <path fill="none" stroke="black"
                  d="M270.43,-345.92C263.42,-340.85 255.87,-335.28 249,-330 238.84,-322.19 227.93,-313.4 218.23,-305.44"/>
            <polygon fill="black" stroke="black" points="220.36,-302.66 210.42,-299 215.9,-308.06 220.36,-302.66"/>
        </g>
        <!-- mrs.domain.model.auth.user.User&#45;&gt;mrs.domain.model.auth.user.UserId -->
        <g id="edge13" class="edge">
            <title>mrs.domain.model.auth.user.User&#45;&gt;mrs.domain.model.auth.user.UserId</title>
            <path fill="none" stroke="black"
                  d="M261.98,-361.93C226.93,-358.72 171.44,-350.57 128,-330 115.34,-324 103.05,-314.78 92.92,-305.94"/>
            <polygon fill="black" stroke="black" points="95.05,-303.15 85.3,-299 90.34,-308.32 95.05,-303.15"/>
        </g>
        <!-- mrs.domain.model.auth.user.User&#45;&gt;mrs.domain.model.auth.user.UserName -->
        <g id="edge14" class="edge">
            <title>mrs.domain.model.auth.user.User&#45;&gt;mrs.domain.model.auth.user.UserName</title>
            <path fill="none" stroke="black" d="M296,-345.99C296,-335.3 296,-321.5 296,-309.37"/>
            <polygon fill="black" stroke="black" points="299.5,-309.26 296,-299.26 292.5,-309.26 299.5,-309.26"/>
        </g>
        <!-- mrs.domain.model.auth.user.User&#45;&gt;mrs.domain.model.reservation.reservation.Reservation -->
        <g id="edge15" class="edge">
            <title>mrs.domain.model.auth.user.User&#45;&gt;mrs.domain.model.reservation.reservation.Reservation</title>
            <path fill="none" stroke="black"
                  d="M330.1,-348.6C338.13,-344.57 346.7,-340.63 355,-338 482.03,-297.81 639.15,-285.96 719.14,-282.46"/>
            <polygon fill="black" stroke="black" points="719.59,-285.95 729.44,-282.04 719.3,-278.95 719.59,-285.95"/>
        </g>
        <!-- mrs.domain.model.auth.user.UserDetailsImpl -->
        <g id="node6" class="node">
            <title>mrs.domain.model.auth.user.UserDetailsImpl</title>
            <polygon fill="#eedd82" stroke="black" points="242,-469 136,-469 136,-431 242,-431 242,-469"/>
            <text text-anchor="middle" x="189" y="-453.8" font-family="Times New Roman,serif" font-size="14.00">利用者
            </text>
            <text text-anchor="middle" x="189" y="-438.8" font-family="Times New Roman,serif" font-size="14.00">
                UserDetailsImpl
            </text>
        </g>
        <!-- mrs.domain.model.auth.user.UserDetailsImpl&#45;&gt;mrs.domain.model.auth.user.RoleName -->
        <g id="edge16" class="edge">
            <title>mrs.domain.model.auth.user.UserDetailsImpl&#45;&gt;mrs.domain.model.auth.user.RoleName</title>
            <path fill="none" stroke="black" d="M189,-430.7C189,-401.46 189,-343.99 189,-309.39"/>
            <polygon fill="black" stroke="black" points="192.5,-309.02 189,-299.02 185.5,-309.02 192.5,-309.02"/>
        </g>
        <!-- mrs.domain.model.auth.user.UserDetailsImpl&#45;&gt;mrs.domain.model.auth.user.User -->
        <g id="edge17" class="edge">
            <title>mrs.domain.model.auth.user.UserDetailsImpl&#45;&gt;mrs.domain.model.auth.user.User</title>
            <path fill="none" stroke="black" d="M212.22,-430.99C227.54,-419.11 247.79,-403.4 264.55,-390.4"/>
            <polygon fill="black" stroke="black" points="266.7,-393.16 272.46,-384.26 262.41,-387.62 266.7,-393.16"/>
        </g>
        <!-- mrs.domain.model.auth.user.UserDetailsImpl&#45;&gt;mrs.domain.model.auth.user.UserId -->
        <g id="edge18" class="edge">
            <title>mrs.domain.model.auth.user.UserDetailsImpl&#45;&gt;mrs.domain.model.auth.user.UserId</title>
            <path fill="none" stroke="black" d="M175.82,-430.7C154.31,-400.83 111.57,-341.49 86.85,-307.17"/>
            <polygon fill="black" stroke="black" points="89.66,-305.09 80.98,-299.02 83.98,-309.18 89.66,-305.09"/>
        </g>
        <!-- mrs.domain.model.reservation.reservation.Reservation&#45;&gt;mrs.domain.model.auth.user.User -->
        <g id="edge19" class="edge">
            <title>mrs.domain.model.reservation.reservation.Reservation&#45;&gt;mrs.domain.model.auth.user.User</title>
            <path fill="none" stroke="black"
                  d="M729.27,-281.69C650.44,-284.01 475.76,-294.1 337,-338 333.68,-339.05 330.32,-340.31 327.01,-341.7"/>
            <polygon fill="black" stroke="black" points="325.54,-338.53 317.93,-345.91 328.48,-344.88 325.54,-338.53"/>
        </g>
        <!-- mrs.domain.model.reservation.reservation.ReservationId -->
        <g id="node10" class="node">
            <title>mrs.domain.model.reservation.reservation.ReservationId</title>
            <polygon fill="#eedd82" stroke="black" points="821.5,-225 726.5,-225 726.5,-187 821.5,-187 821.5,-225"/>
            <text text-anchor="middle" x="774" y="-209.8" font-family="Times New Roman,serif" font-size="14.00">予約番号
            </text>
            <text text-anchor="middle" x="774" y="-194.8" font-family="Times New Roman,serif" font-size="14.00">
                ReservationId
            </text>
        </g>
        <!-- mrs.domain.model.reservation.reservation.Reservation&#45;&gt;mrs.domain.model.reservation.reservation.ReservationId -->
        <g id="edge20" class="edge">
            <title>mrs.domain.model.reservation.reservation.Reservation&#45;&gt;mrs.domain.model.reservation.reservation.ReservationId</title>
            <path fill="none" stroke="black" d="M771.76,-260.83C772.08,-253.13 772.46,-243.97 772.82,-235.42"/>
            <polygon fill="black" stroke="black" points="776.31,-235.55 773.23,-225.41 769.32,-235.26 776.31,-235.55"/>
        </g>
        <!-- mrs.domain.model.reservation.reservation.ReservedTime -->
        <g id="node12" class="node">
            <title>mrs.domain.model.reservation.reservation.ReservedTime</title>
            <polygon fill="#eedd82" stroke="black" points="938,-225 840,-225 840,-187 938,-187 938,-225"/>
            <text text-anchor="middle" x="889" y="-209.8" font-family="Times New Roman,serif" font-size="14.00">予約時間
            </text>
            <text text-anchor="middle" x="889" y="-194.8" font-family="Times New Roman,serif" font-size="14.00">
                ReservedTime
            </text>
        </g>
        <!-- mrs.domain.model.reservation.reservation.Reservation&#45;&gt;mrs.domain.model.reservation.reservation.ReservedTime -->
        <g id="edge21" class="edge">
            <title>mrs.domain.model.reservation.reservation.Reservation&#45;&gt;mrs.domain.model.reservation.reservation.ReservedTime</title>
            <path fill="none" stroke="black" d="M800.78,-260.83C815.87,-251.62 834.38,-240.33 850.53,-230.47"/>
            <polygon fill="black" stroke="black" points="852.52,-233.36 859.23,-225.16 848.87,-227.38 852.52,-233.36"/>
        </g>
        <!-- mrs.domain.model.reservation.room.ReservableRoom -->
        <g id="node14" class="node">
            <title>mrs.domain.model.reservation.room.ReservableRoom</title>
            <polygon fill="#eedd82" stroke="black" points="1120.5,-225 983.5,-225 983.5,-187 1120.5,-187 1120.5,-225"/>
            <text text-anchor="middle" x="1052" y="-209.8" font-family="Times New Roman,serif" font-size="14.00">
                予約可能会議室
            </text>
            <text text-anchor="middle" x="1052" y="-194.8" font-family="Times New Roman,serif" font-size="14.00">
                ReservableRoom
            </text>
        </g>
        <!-- mrs.domain.model.reservation.reservation.Reservation&#45;&gt;mrs.domain.model.reservation.room.ReservableRoom -->
        <g id="edge22" class="edge">
            <title>mrs.domain.model.reservation.reservation.Reservation&#45;&gt;mrs.domain.model.reservation.room.ReservableRoom</title>
            <path fill="none" stroke="black" d="M812.77,-269.51C856.2,-258.91 924.9,-241.43 977.6,-227.64"/>
            <polygon fill="black" stroke="black" points="978.8,-230.95 987.58,-225.03 977.02,-224.18 978.8,-230.95"/>
        </g>
        <!-- mrs.domain.model.reservation.room.ReservableRoomId -->
        <g id="node15" class="node">
            <title>mrs.domain.model.reservation.room.ReservableRoomId</title>
            <polygon fill="#eedd82" stroke="black" points="1128,-151 976,-151 976,-113 1128,-113 1128,-151"/>
            <text text-anchor="middle" x="1052" y="-135.8" font-family="Times New Roman,serif" font-size="14.00">
                予約可能会議室ID
            </text>
            <text text-anchor="middle" x="1052" y="-120.8" font-family="Times New Roman,serif" font-size="14.00">
                ReservableRoomId
            </text>
        </g>
        <!-- mrs.domain.model.reservation.reservation.Reservation&#45;&gt;mrs.domain.model.reservation.room.ReservableRoomId -->
        <g id="edge23" class="edge">
            <title>mrs.domain.model.reservation.reservation.Reservation&#45;&gt;mrs.domain.model.reservation.room.ReservableRoomId</title>
            <path fill="none" stroke="black"
                  d="M745.96,-260.87C735.19,-251.51 723.77,-239.11 718,-225 710.26,-206.08 704.57,-194.41 718,-179 749.49,-142.87 877.38,-134.14 965.44,-132.54"/>
            <polygon fill="black" stroke="black" points="965.76,-136.04 975.7,-132.38 965.65,-129.04 965.76,-136.04"/>
        </g>
        <!-- mrs.domain.model.reservation.reservation.ReservationList -->
        <g id="node11" class="node">
            <title>mrs.domain.model.reservation.reservation.ReservationList</title>
            <polygon fill="#eedd82" stroke="black" points="870,-384 766,-384 766,-346 870,-346 870,-384"/>
            <text text-anchor="middle" x="818" y="-368.8" font-family="Times New Roman,serif" font-size="14.00">予約一覧
            </text>
            <text text-anchor="middle" x="818" y="-353.8" font-family="Times New Roman,serif" font-size="14.00">
                ReservationList
            </text>
        </g>
        <!-- mrs.domain.model.reservation.reservation.ReservationList&#45;&gt;mrs.domain.model.reservation.reservation.Reservation -->
        <g id="edge24" class="edge">
            <title>mrs.domain.model.reservation.reservation.ReservationList&#45;&gt;mrs.domain.model.reservation.reservation.Reservation</title>
            <path fill="none" stroke="black" d="M807.8,-345.99C801.56,-334.97 793.46,-320.66 786.44,-308.27"/>
            <polygon fill="black" stroke="black" points="789.31,-306.24 781.34,-299.26 783.22,-309.69 789.31,-306.24"/>
        </g>
        <!-- mrs.domain.model.reservation.room.MeetingRoom -->
        <g id="node13" class="node">
            <title>mrs.domain.model.reservation.room.MeetingRoom</title>
            <polygon fill="#eedd82" stroke="black" points="1248,-299 1152,-299 1152,-261 1248,-261 1248,-299"/>
            <text text-anchor="middle" x="1200" y="-283.8" font-family="Times New Roman,serif" font-size="14.00">会議室
            </text>
            <text text-anchor="middle" x="1200" y="-268.8" font-family="Times New Roman,serif" font-size="14.00">
                MeetingRoom
            </text>
        </g>
        <!-- mrs.domain.model.reservation.room.MeetingRoom&#45;&gt;mrs.domain.model.reservation.room.ReservableRoom -->
        <g id="edge25" class="edge">
            <title>mrs.domain.model.reservation.room.MeetingRoom&#45;&gt;mrs.domain.model.reservation.room.ReservableRoom</title>
            <path fill="none" stroke="black" d="M1156.7,-260.83C1136.41,-251.41 1112.44,-239.81 1092.51,-229.79"/>
            <polygon fill="black" stroke="black"
                     points="1093.89,-226.56 1083.38,-225.16 1090.72,-232.8 1093.89,-226.56"/>
        </g>
        <!-- mrs.domain.model.reservation.room.RoomId -->
        <g id="node18" class="node">
            <title>mrs.domain.model.reservation.room.RoomId</title>
            <polygon fill="#eedd82" stroke="black" points="1229.5,-77 1126.5,-77 1126.5,-39 1229.5,-39 1229.5,-77"/>
            <text text-anchor="middle" x="1178" y="-61.8" font-family="Times New Roman,serif" font-size="14.00">会議室番号
            </text>
            <text text-anchor="middle" x="1178" y="-46.8" font-family="Times New Roman,serif" font-size="14.00">RoomId
            </text>
        </g>
        <!-- mrs.domain.model.reservation.room.MeetingRoom&#45;&gt;mrs.domain.model.reservation.room.RoomId -->
        <g id="edge26" class="edge">
            <title>mrs.domain.model.reservation.room.MeetingRoom&#45;&gt;mrs.domain.model.reservation.room.RoomId
            </title>
            <path fill="none" stroke="black" d="M1198.2,-261C1194.38,-222.8 1185.44,-133.41 1180.84,-87.43"/>
            <polygon fill="black" stroke="black" points="1184.3,-86.85 1179.83,-77.25 1177.34,-87.55 1184.3,-86.85"/>
        </g>
        <!-- mrs.domain.model.reservation.room.ReservableRoom&#45;&gt;mrs.domain.model.reservation.reservation.Reservation -->
        <g id="edge27" class="edge">
            <title>mrs.domain.model.reservation.room.ReservableRoom&#45;&gt;mrs.domain.model.reservation.reservation.Reservation</title>
            <path fill="none" stroke="black" d="M983.37,-223.12C933.67,-235.49 867.63,-252.43 822.42,-264.4"/>
            <polygon fill="black" stroke="black" points="821.3,-261.08 812.54,-267.03 823.1,-267.84 821.3,-261.08"/>
        </g>
        <!-- mrs.domain.model.reservation.room.ReservableRoom&#45;&gt;mrs.domain.model.reservation.room.MeetingRoom -->
        <g id="edge28" class="edge">
            <title>mrs.domain.model.reservation.room.ReservableRoom&#45;&gt;mrs.domain.model.reservation.room.MeetingRoom</title>
            <path fill="none" stroke="black" d="M1095.02,-225.04C1115.35,-234.48 1139.43,-246.13 1159.44,-256.19"/>
            <polygon fill="black" stroke="black"
                     points="1158.1,-259.43 1168.61,-260.83 1161.27,-253.19 1158.1,-259.43"/>
        </g>
        <!-- mrs.domain.model.reservation.room.ReservableRoom&#45;&gt;mrs.domain.model.reservation.room.ReservableRoomId -->
        <g id="edge29" class="edge">
            <title>mrs.domain.model.reservation.room.ReservableRoom&#45;&gt;mrs.domain.model.reservation.room.ReservableRoomId</title>
            <path fill="none" stroke="black" d="M1052,-186.83C1052,-179.13 1052,-169.97 1052,-161.42"/>
            <polygon fill="black" stroke="black" points="1055.5,-161.41 1052,-151.41 1048.5,-161.41 1055.5,-161.41"/>
        </g>
        <!-- mrs.domain.model.reservation.room.ReservedDate -->
        <g id="node17" class="node">
            <title>mrs.domain.model.reservation.room.ReservedDate</title>
            <polygon fill="#eedd82" stroke="black" points="1099.5,-77 1004.5,-77 1004.5,-39 1099.5,-39 1099.5,-77"/>
            <text text-anchor="middle" x="1052" y="-61.8" font-family="Times New Roman,serif" font-size="14.00">予約日
            </text>
            <text text-anchor="middle" x="1052" y="-46.8" font-family="Times New Roman,serif" font-size="14.00">
                ReservedDate
            </text>
        </g>
        <!-- mrs.domain.model.reservation.room.ReservableRoomId&#45;&gt;mrs.domain.model.reservation.room.ReservedDate -->
        <g id="edge30" class="edge">
            <title>mrs.domain.model.reservation.room.ReservableRoomId&#45;&gt;mrs.domain.model.reservation.room.ReservedDate</title>
            <path fill="none" stroke="black" d="M1052,-112.83C1052,-105.13 1052,-95.97 1052,-87.42"/>
            <polygon fill="black" stroke="black" points="1055.5,-87.41 1052,-77.41 1048.5,-87.41 1055.5,-87.41"/>
        </g>
        <!-- mrs.domain.model.reservation.room.ReservableRoomId&#45;&gt;mrs.domain.model.reservation.room.RoomId -->
        <g id="edge31" class="edge">
            <title>mrs.domain.model.reservation.room.ReservableRoomId&#45;&gt;mrs.domain.model.reservation.room.RoomId
            </title>
            <path fill="none" stroke="black" d="M1083.8,-112.83C1100.06,-103.54 1120.04,-92.12 1137.41,-82.2"/>
            <polygon fill="black" stroke="black" points="1139.27,-85.16 1146.22,-77.16 1135.8,-79.09 1139.27,-85.16"/>
        </g>
        <!-- mrs.domain.model.reservation.room.ReservableRoomList -->
        <g id="node16" class="node">
            <title>mrs.domain.model.reservation.room.ReservableRoomList</title>
            <polygon fill="#eedd82" stroke="black" points="1134,-299 962,-299 962,-261 1134,-261 1134,-299"/>
            <text text-anchor="middle" x="1048" y="-283.8" font-family="Times New Roman,serif" font-size="14.00">
                予約可能会議室一覧
            </text>
            <text text-anchor="middle" x="1048" y="-268.8" font-family="Times New Roman,serif" font-size="14.00">
                ReservableRoomList
            </text>
        </g>
        <!-- mrs.domain.model.reservation.room.ReservableRoomList&#45;&gt;mrs.domain.model.reservation.room.ReservableRoom -->
        <g id="edge32" class="edge">
            <title>mrs.domain.model.reservation.room.ReservableRoomList&#45;&gt;mrs.domain.model.reservation.room.ReservableRoom</title>
            <path fill="none" stroke="black" d="M1049.01,-260.83C1049.44,-253.13 1049.95,-243.97 1050.42,-235.42"/>
            <polygon fill="black" stroke="black"
                     points="1053.92,-235.59 1050.98,-225.41 1046.93,-235.2 1053.92,-235.59"/>
        </g>
    </g>
</svg>
