<?xml version="1.0" encoding="UTF-8" standalone="no"?>
<!DOCTYPE svg PUBLIC "-//W3C//DTD SVG 1.1//EN"
        "http://www.w3.org/Graphics/SVG/1.1/DTD/svg11.dtd">
<!-- Generated by graphviz version 3.0.0 (20220226.1711)
 -->
<!-- Title: ビジネスルール関連図 Pages: 1 -->
<svg width="987pt" height="430pt"
     viewBox="0.00 0.00 987.00 430.00" xmlns="http://www.w3.org/2000/svg">
    <g id="graph0" class="graph" transform="scale(1 1) rotate(0) translate(4 426)">
        <title>ビジネスルール関連図</title>
        <polygon fill="white" stroke="transparent" points="-4,4 -4,-426 983,-426 983,4 -4,4"/>
        <text text-anchor="middle" x="489.5" y="-7.8" font-family="Times New Roman,serif" font-size="14.00">ビジネスルール関連図
        </text>
        <g id="clust4" class="cluster">
            <title>cluster_mrs.domain.model.reservation.room</title>
            <polygon fill="lemonchiffon" stroke="#eedd82" stroke-width="2"
                     points="107,-31 107,-330 409,-330 409,-31 107,-31"/>
            <text text-anchor="middle" x="258" y="-314.8" font-family="Times New Roman,serif" font-size="14.00">
                reservation.room
            </text>
        </g>
        <g id="clust3" class="cluster">
            <title>cluster_mrs.domain.model.reservation.reservation</title>
            <polygon fill="lemonchiffon" stroke="#eedd82" stroke-width="2"
                     points="417,-179 417,-414 645,-414 645,-179 417,-179"/>
            <text text-anchor="middle" x="531" y="-398.8" font-family="Times New Roman,serif" font-size="14.00">
                reservation.reservation
            </text>
        </g>
        <g id="clust2" class="cluster">
            <title>cluster_mrs.domain.model.autogen.usr</title>
            <polygon fill="lemonchiffon" stroke="#eedd82" stroke-width="2"
                     points="328,-338 328,-413 409,-413 409,-338 328,-338"/>
            <text text-anchor="middle" x="368.5" y="-397.8" font-family="Times New Roman,serif" font-size="14.00">
                autogen.usr
            </text>
        </g>
        <g id="clust1" class="cluster">
            <title>cluster_mrs.domain.model.autogen.reservation</title>
            <polygon fill="lemonchiffon" stroke="#eedd82" stroke-width="2"
                     points="8,-338 8,-413 320,-413 320,-338 8,-338"/>
            <text text-anchor="middle" x="164" y="-397.8" font-family="Times New Roman,serif" font-size="14.00">
                autogen.reservation
            </text>
        </g>
        <g id="clust5" class="cluster">
            <title>cluster_mrs.domain.model.user</title>
            <polygon fill="lemonchiffon" stroke="#eedd82" stroke-width="2"
                     points="653,-105 653,-330 971,-330 971,-105 653,-105"/>
            <text text-anchor="middle" x="812" y="-314.8" font-family="Times New Roman,serif" font-size="14.00">user
            </text>
        </g>
        <!-- mrs.domain.model.autogen.reservation.予約 -->
        <g id="node1" class="node">
            <title>mrs.domain.model.autogen.reservation.予約</title>
            <polygon fill="#eedd82" stroke="red" points="312,-382 258,-382 258,-346 312,-346 312,-382"/>
            <text text-anchor="middle" x="285" y="-360.3" font-family="Times New Roman,serif" font-size="14.00">予約
            </text>
        </g>
        <!-- mrs.domain.model.autogen.reservation.予約可能会議室 -->
        <g id="node2" class="node">
            <title>mrs.domain.model.autogen.reservation.予約可能会議室</title>
            <polygon fill="#eedd82" stroke="red" points="239.5,-382 102.5,-382 102.5,-346 239.5,-346 239.5,-382"/>
            <text text-anchor="middle" x="171" y="-360.3" font-family="Times New Roman,serif" font-size="14.00">
                予約可能会議室
            </text>
        </g>
        <!-- mrs.domain.model.autogen.reservation.会議室 -->
        <g id="node3" class="node">
            <title>mrs.domain.model.autogen.reservation.会議室</title>
            <polygon fill="#eedd82" stroke="red" points="84,-382 16,-382 16,-346 84,-346 84,-382"/>
            <text text-anchor="middle" x="50" y="-360.3" font-family="Times New Roman,serif" font-size="14.00">会議室
            </text>
        </g>
        <!-- mrs.domain.model.autogen.usr.会員 -->
        <g id="node4" class="node">
            <title>mrs.domain.model.autogen.usr.会員</title>
            <polygon fill="#eedd82" stroke="red" points="395,-382 341,-382 341,-346 395,-346 395,-382"/>
            <text text-anchor="middle" x="368" y="-360.3" font-family="Times New Roman,serif" font-size="14.00">会員
            </text>
        </g>
        <!-- mrs.domain.model.reservation.reservation.Reservation -->
        <g id="node5" class="node">
            <title>mrs.domain.model.reservation.reservation.Reservation</title>
            <polygon fill="#eedd82" stroke="black" points="516.5,-299 433.5,-299 433.5,-261 516.5,-261 516.5,-299"/>
            <text text-anchor="middle" x="475" y="-283.8" font-family="Times New Roman,serif" font-size="14.00">予約
            </text>
            <text text-anchor="middle" x="475" y="-268.8" font-family="Times New Roman,serif" font-size="14.00">
                Reservation
            </text>
        </g>
        <!-- mrs.domain.model.reservation.reservation.ReservationId -->
        <g id="node6" class="node">
            <title>mrs.domain.model.reservation.reservation.ReservationId</title>
            <polygon fill="#eedd82" stroke="black" points="520.5,-225 425.5,-225 425.5,-187 520.5,-187 520.5,-225"/>
            <text text-anchor="middle" x="473" y="-209.8" font-family="Times New Roman,serif" font-size="14.00">予約番号
            </text>
            <text text-anchor="middle" x="473" y="-194.8" font-family="Times New Roman,serif" font-size="14.00">
                ReservationId
            </text>
        </g>
        <!-- mrs.domain.model.reservation.reservation.Reservation&#45;&gt;mrs.domain.model.reservation.reservation.ReservationId -->
        <g id="edge1" class="edge">
            <title>mrs.domain.model.reservation.reservation.Reservation&#45;&gt;mrs.domain.model.reservation.reservation.ReservationId</title>
            <path fill="none" stroke="black" d="M474.5,-260.83C474.28,-253.13 474.03,-243.97 473.79,-235.42"/>
            <polygon fill="black" stroke="black" points="477.29,-235.31 473.51,-225.41 470.29,-235.51 477.29,-235.31"/>
        </g>
        <!-- mrs.domain.model.reservation.reservation.ReservedTime -->
        <g id="node8" class="node">
            <title>mrs.domain.model.reservation.reservation.ReservedTime</title>
            <polygon fill="#eedd82" stroke="black" points="637,-225 539,-225 539,-187 637,-187 637,-225"/>
            <text text-anchor="middle" x="588" y="-209.8" font-family="Times New Roman,serif" font-size="14.00">予約時間
            </text>
            <text text-anchor="middle" x="588" y="-194.8" font-family="Times New Roman,serif" font-size="14.00">
                ReservedTime
            </text>
        </g>
        <!-- mrs.domain.model.reservation.reservation.Reservation&#45;&gt;mrs.domain.model.reservation.reservation.ReservedTime -->
        <g id="edge2" class="edge">
            <title>mrs.domain.model.reservation.reservation.Reservation&#45;&gt;mrs.domain.model.reservation.reservation.ReservedTime</title>
            <path fill="none" stroke="black" d="M503.51,-260.83C517.83,-251.71 535.36,-240.54 550.73,-230.74"/>
            <polygon fill="black" stroke="black" points="552.94,-233.49 559.49,-225.16 549.18,-227.58 552.94,-233.49"/>
        </g>
        <!-- mrs.domain.model.reservation.room.ReservableRoom -->
        <g id="node10" class="node">
            <title>mrs.domain.model.reservation.room.ReservableRoom</title>
            <polygon fill="#eedd82" stroke="black" points="358.5,-225 221.5,-225 221.5,-187 358.5,-187 358.5,-225"/>
            <text text-anchor="middle" x="290" y="-209.8" font-family="Times New Roman,serif" font-size="14.00">
                予約可能会議室
            </text>
            <text text-anchor="middle" x="290" y="-194.8" font-family="Times New Roman,serif" font-size="14.00">
                ReservableRoom
            </text>
        </g>
        <!-- mrs.domain.model.reservation.reservation.Reservation&#45;&gt;mrs.domain.model.reservation.room.ReservableRoom -->
        <g id="edge3" class="edge">
            <title>mrs.domain.model.reservation.reservation.Reservation&#45;&gt;mrs.domain.model.reservation.room.ReservableRoom</title>
            <path fill="none" stroke="black" d="M433.41,-264.95C405.78,-254.73 369.45,-240.69 340.22,-228.99"/>
            <polygon fill="black" stroke="black" points="341.19,-225.6 330.61,-225.12 338.58,-232.1 341.19,-225.6"/>
        </g>
        <!-- mrs.domain.model.reservation.room.ReservableRoomId -->
        <g id="node11" class="node">
            <title>mrs.domain.model.reservation.room.ReservableRoomId</title>
            <polygon fill="#eedd82" stroke="black" points="366,-151 214,-151 214,-113 366,-113 366,-151"/>
            <text text-anchor="middle" x="290" y="-135.8" font-family="Times New Roman,serif" font-size="14.00">
                予約可能会議室ID
            </text>
            <text text-anchor="middle" x="290" y="-120.8" font-family="Times New Roman,serif" font-size="14.00">
                ReservableRoomId
            </text>
        </g>
        <!-- mrs.domain.model.reservation.reservation.Reservation&#45;&gt;mrs.domain.model.reservation.room.ReservableRoomId -->
        <g id="edge4" class="edge">
            <title>mrs.domain.model.reservation.reservation.Reservation&#45;&gt;mrs.domain.model.reservation.room.ReservableRoomId</title>
            <path fill="none" stroke="black"
                  d="M455.38,-260.77C444.14,-250.32 429.76,-236.93 417,-225 395.18,-204.6 391.9,-196.92 368,-179 357.17,-170.88 344.81,-163.03 333.17,-156.17"/>
            <polygon fill="black" stroke="black" points="334.86,-153.1 324.45,-151.13 331.36,-159.16 334.86,-153.1"/>
        </g>
        <!-- mrs.domain.model.user.User -->
        <g id="node16" class="node">
            <title>mrs.domain.model.user.User</title>
            <polygon fill="#eedd82" stroke="black" points="802,-225 748,-225 748,-187 802,-187 802,-225"/>
            <text text-anchor="middle" x="775" y="-209.8" font-family="Times New Roman,serif" font-size="14.00">会員
            </text>
            <text text-anchor="middle" x="775" y="-194.8" font-family="Times New Roman,serif" font-size="14.00">User
            </text>
        </g>
        <!-- mrs.domain.model.reservation.reservation.Reservation&#45;&gt;mrs.domain.model.user.User -->
        <g id="edge5" class="edge">
            <title>mrs.domain.model.reservation.reservation.Reservation&#45;&gt;mrs.domain.model.user.User</title>
            <path fill="none" stroke="black" d="M516.72,-270.1C575.55,-256.64 681.69,-231.18 737.91,-217.07"/>
            <polygon fill="black" stroke="black" points="738.96,-220.41 747.8,-214.57 737.25,-213.62 738.96,-220.41"/>
        </g>
        <!-- mrs.domain.model.reservation.reservation.ReservationList -->
        <g id="node7" class="node">
            <title>mrs.domain.model.reservation.reservation.ReservationList</title>
            <polygon fill="#eedd82" stroke="black" points="529,-383 425,-383 425,-345 529,-345 529,-383"/>
            <text text-anchor="middle" x="477" y="-367.8" font-family="Times New Roman,serif" font-size="14.00">予約一覧
            </text>
            <text text-anchor="middle" x="477" y="-352.8" font-family="Times New Roman,serif" font-size="14.00">
                ReservationList
            </text>
        </g>
        <!-- mrs.domain.model.reservation.reservation.ReservationList&#45;&gt;mrs.domain.model.reservation.reservation.Reservation -->
        <g id="edge6" class="edge">
            <title>mrs.domain.model.reservation.reservation.ReservationList&#45;&gt;mrs.domain.model.reservation.reservation.Reservation</title>
            <path fill="none" stroke="black" d="M476.56,-344.8C476.3,-334.4 475.98,-321.12 475.69,-309.38"/>
            <polygon fill="black" stroke="black" points="479.19,-309.06 475.44,-299.15 472.19,-309.23 479.19,-309.06"/>
        </g>
        <!-- mrs.domain.model.reservation.room.MeetingRoom -->
        <g id="node9" class="node">
            <title>mrs.domain.model.reservation.room.MeetingRoom</title>
            <polygon fill="#eedd82" stroke="black" points="211,-299 115,-299 115,-261 211,-261 211,-299"/>
            <text text-anchor="middle" x="163" y="-283.8" font-family="Times New Roman,serif" font-size="14.00">会議室
            </text>
            <text text-anchor="middle" x="163" y="-268.8" font-family="Times New Roman,serif" font-size="14.00">
                MeetingRoom
            </text>
        </g>
        <!-- mrs.domain.model.reservation.room.MeetingRoom&#45;&gt;mrs.domain.model.reservation.room.ReservableRoom -->
        <g id="edge7" class="edge">
            <title>mrs.domain.model.reservation.room.MeetingRoom&#45;&gt;mrs.domain.model.reservation.room.ReservableRoom</title>
            <path fill="none" stroke="black" d="M189.1,-260.83C204.58,-251.54 224.59,-240.12 242.73,-230.2"/>
            <polygon fill="black" stroke="black" points="244.89,-233.01 252.01,-225.16 241.55,-226.85 244.89,-233.01"/>
        </g>
        <!-- mrs.domain.model.reservation.room.RoomId -->
        <g id="node14" class="node">
            <title>mrs.domain.model.reservation.room.RoomId</title>
            <polygon fill="#eedd82" stroke="black" points="222.5,-77 119.5,-77 119.5,-39 222.5,-39 222.5,-77"/>
            <text text-anchor="middle" x="171" y="-61.8" font-family="Times New Roman,serif" font-size="14.00">会議室番号
            </text>
            <text text-anchor="middle" x="171" y="-46.8" font-family="Times New Roman,serif" font-size="14.00">RoomId
            </text>
        </g>
        <!-- mrs.domain.model.reservation.room.MeetingRoom&#45;&gt;mrs.domain.model.reservation.room.RoomId -->
        <g id="edge8" class="edge">
            <title>mrs.domain.model.reservation.room.MeetingRoom&#45;&gt;mrs.domain.model.reservation.room.RoomId
            </title>
            <path fill="none" stroke="black" d="M163.65,-261C165.04,-222.8 168.29,-133.41 169.97,-87.43"/>
            <polygon fill="black" stroke="black" points="173.47,-87.37 170.34,-77.25 166.48,-87.12 173.47,-87.37"/>
        </g>
        <!-- mrs.domain.model.reservation.room.ReservableRoom&#45;&gt;mrs.domain.model.reservation.reservation.Reservation -->
        <g id="edge9" class="edge">
            <title>mrs.domain.model.reservation.room.ReservableRoom&#45;&gt;mrs.domain.model.reservation.reservation.Reservation</title>
            <path fill="none" stroke="black" d="M342.29,-225.04C368.15,-234.73 399.17,-246.76 424.75,-257"/>
            <polygon fill="black" stroke="black" points="423.69,-260.35 434.27,-260.83 426.3,-253.85 423.69,-260.35"/>
        </g>
        <!-- mrs.domain.model.reservation.room.ReservableRoom&#45;&gt;mrs.domain.model.reservation.room.MeetingRoom -->
        <g id="edge10" class="edge">
            <title>mrs.domain.model.reservation.room.ReservableRoom&#45;&gt;mrs.domain.model.reservation.room.MeetingRoom</title>
            <path fill="none" stroke="black" d="M263.91,-225.16C248.43,-234.46 228.43,-245.87 210.28,-255.8"/>
            <polygon fill="black" stroke="black" points="208.12,-252.99 201,-260.83 211.46,-259.14 208.12,-252.99"/>
        </g>
        <!-- mrs.domain.model.reservation.room.ReservableRoom&#45;&gt;mrs.domain.model.reservation.room.ReservableRoomId -->
        <g id="edge11" class="edge">
            <title>mrs.domain.model.reservation.room.ReservableRoom&#45;&gt;mrs.domain.model.reservation.room.ReservableRoomId</title>
            <path fill="none" stroke="black" d="M290,-186.83C290,-179.13 290,-169.97 290,-161.42"/>
            <polygon fill="black" stroke="black" points="293.5,-161.41 290,-151.41 286.5,-161.41 293.5,-161.41"/>
        </g>
        <!-- mrs.domain.model.reservation.room.ReservedDate -->
        <g id="node13" class="node">
            <title>mrs.domain.model.reservation.room.ReservedDate</title>
            <polygon fill="#eedd82" stroke="black" points="337.5,-77 242.5,-77 242.5,-39 337.5,-39 337.5,-77"/>
            <text text-anchor="middle" x="290" y="-61.8" font-family="Times New Roman,serif" font-size="14.00">予約日
            </text>
            <text text-anchor="middle" x="290" y="-46.8" font-family="Times New Roman,serif" font-size="14.00">
                ReservedDate
            </text>
        </g>
        <!-- mrs.domain.model.reservation.room.ReservableRoomId&#45;&gt;mrs.domain.model.reservation.room.ReservedDate -->
        <g id="edge12" class="edge">
            <title>mrs.domain.model.reservation.room.ReservableRoomId&#45;&gt;mrs.domain.model.reservation.room.ReservedDate</title>
            <path fill="none" stroke="black" d="M290,-112.83C290,-105.13 290,-95.97 290,-87.42"/>
            <polygon fill="black" stroke="black" points="293.5,-87.41 290,-77.41 286.5,-87.41 293.5,-87.41"/>
        </g>
        <!-- mrs.domain.model.reservation.room.ReservableRoomId&#45;&gt;mrs.domain.model.reservation.room.RoomId -->
        <g id="edge13" class="edge">
            <title>mrs.domain.model.reservation.room.ReservableRoomId&#45;&gt;mrs.domain.model.reservation.room.RoomId
            </title>
            <path fill="none" stroke="black" d="M259.97,-112.83C244.75,-103.62 226.09,-92.33 209.79,-82.47"/>
            <polygon fill="black" stroke="black" points="211.39,-79.34 201.02,-77.16 207.76,-85.33 211.39,-79.34"/>
        </g>
        <!-- mrs.domain.model.reservation.room.ReservableRoomList -->
        <g id="node12" class="node">
            <title>mrs.domain.model.reservation.room.ReservableRoomList</title>
            <polygon fill="#eedd82" stroke="black" points="401,-299 229,-299 229,-261 401,-261 401,-299"/>
            <text text-anchor="middle" x="315" y="-283.8" font-family="Times New Roman,serif" font-size="14.00">
                予約可能会議室一覧
            </text>
            <text text-anchor="middle" x="315" y="-268.8" font-family="Times New Roman,serif" font-size="14.00">
                ReservableRoomList
            </text>
        </g>
        <!-- mrs.domain.model.reservation.room.ReservableRoomList&#45;&gt;mrs.domain.model.reservation.room.ReservableRoom -->
        <g id="edge14" class="edge">
            <title>mrs.domain.model.reservation.room.ReservableRoomList&#45;&gt;mrs.domain.model.reservation.room.ReservableRoom</title>
            <path fill="none" stroke="black" d="M308.69,-260.83C305.99,-253.05 302.77,-243.77 299.77,-235.13"/>
            <polygon fill="black" stroke="black" points="302.98,-233.71 296.39,-225.41 296.37,-236.01 302.98,-233.71"/>
        </g>
        <!-- mrs.domain.model.user.RoleName -->
        <g id="node15" class="node">
            <title>mrs.domain.model.user.RoleName</title>
            <polygon fill="#eedd82" stroke="black" points="962.5,-151 859.5,-151 859.5,-113 962.5,-113 962.5,-151"/>
            <text text-anchor="middle" x="911" y="-135.8" font-family="Times New Roman,serif" font-size="14.00">利用者区分
            </text>
            <text text-anchor="middle" x="911" y="-120.8" font-family="Times New Roman,serif" font-size="14.00">
                RoleName
            </text>
        </g>
        <!-- mrs.domain.model.user.User&#45;&gt;mrs.domain.model.reservation.reservation.Reservation -->
        <g id="edge15" class="edge">
            <title>mrs.domain.model.user.User&#45;&gt;mrs.domain.model.reservation.reservation.Reservation</title>
            <path fill="none" stroke="black" d="M747.75,-212.62C697.7,-223.85 590.89,-249.36 526.73,-265.28"/>
            <polygon fill="black" stroke="black" points="525.67,-261.94 516.81,-267.75 527.36,-268.73 525.67,-261.94"/>
        </g>
        <!-- mrs.domain.model.user.User&#45;&gt;mrs.domain.model.user.RoleName -->
        <g id="edge16" class="edge">
            <title>mrs.domain.model.user.User&#45;&gt;mrs.domain.model.user.RoleName</title>
            <path fill="none" stroke="black" d="M802.19,-190.6C820.98,-180.66 846.37,-167.22 867.89,-155.82"/>
            <polygon fill="black" stroke="black" points="869.65,-158.85 876.85,-151.08 866.37,-152.67 869.65,-158.85"/>
        </g>
        <!-- mrs.domain.model.user.UserId -->
        <g id="node18" class="node">
            <title>mrs.domain.model.user.UserId</title>
            <polygon fill="#eedd82" stroke="black" points="841,-151 755,-151 755,-113 841,-113 841,-151"/>
            <text text-anchor="middle" x="798" y="-135.8" font-family="Times New Roman,serif" font-size="14.00">会員番号
            </text>
            <text text-anchor="middle" x="798" y="-120.8" font-family="Times New Roman,serif" font-size="14.00">UserId
            </text>
        </g>
        <!-- mrs.domain.model.user.User&#45;&gt;mrs.domain.model.user.UserId -->
        <g id="edge17" class="edge">
            <title>mrs.domain.model.user.User&#45;&gt;mrs.domain.model.user.UserId</title>
            <path fill="none" stroke="black" d="M780.8,-186.83C783.29,-179.05 786.25,-169.77 789.01,-161.13"/>
            <polygon fill="black" stroke="black" points="792.41,-162 792.12,-151.41 785.74,-159.87 792.41,-162"/>
        </g>
        <!-- mrs.domain.model.user.UserName -->
        <g id="node19" class="node">
            <title>mrs.domain.model.user.UserName</title>
            <polygon fill="#eedd82" stroke="black" points="736.5,-151 661.5,-151 661.5,-113 736.5,-113 736.5,-151"/>
            <text text-anchor="middle" x="699" y="-135.8" font-family="Times New Roman,serif" font-size="14.00">氏名
            </text>
            <text text-anchor="middle" x="699" y="-120.8" font-family="Times New Roman,serif" font-size="14.00">
                UserName
            </text>
        </g>
        <!-- mrs.domain.model.user.User&#45;&gt;mrs.domain.model.user.UserName -->
        <g id="edge18" class="edge">
            <title>mrs.domain.model.user.User&#45;&gt;mrs.domain.model.user.UserName</title>
            <path fill="none" stroke="black" d="M755.82,-186.83C746.64,-178.13 735.5,-167.58 725.52,-158.13"/>
            <polygon fill="black" stroke="black" points="727.84,-155.5 718.17,-151.16 723.02,-160.58 727.84,-155.5"/>
        </g>
        <!-- mrs.domain.model.user.UserDetailsImpl -->
        <g id="node17" class="node">
            <title>mrs.domain.model.user.UserDetailsImpl</title>
            <polygon fill="#eedd82" stroke="black" points="889.5,-299 752.5,-299 752.5,-261 889.5,-261 889.5,-299"/>
            <text text-anchor="middle" x="821" y="-283.8" font-family="Times New Roman,serif" font-size="14.00">
                認証済み利用者
            </text>
            <text text-anchor="middle" x="821" y="-268.8" font-family="Times New Roman,serif" font-size="14.00">
                UserDetailsImpl
            </text>
        </g>
        <!-- mrs.domain.model.user.UserDetailsImpl&#45;&gt;mrs.domain.model.user.RoleName -->
        <g id="edge19" class="edge">
            <title>mrs.domain.model.user.UserDetailsImpl&#45;&gt;mrs.domain.model.user.RoleName</title>
            <path fill="none" stroke="black" d="M832.22,-260.8C847.85,-235.45 876.29,-189.31 894.38,-159.95"/>
            <polygon fill="black" stroke="black" points="897.37,-161.77 899.64,-151.43 891.42,-158.1 897.37,-161.77"/>
        </g>
        <!-- mrs.domain.model.user.UserDetailsImpl&#45;&gt;mrs.domain.model.user.User -->
        <g id="edge20" class="edge">
            <title>mrs.domain.model.user.UserDetailsImpl&#45;&gt;mrs.domain.model.user.User</title>
            <path fill="none" stroke="black" d="M809.39,-260.83C804.2,-252.71 797.98,-242.96 792.26,-234.01"/>
            <polygon fill="black" stroke="black" points="795.1,-231.96 786.76,-225.41 789.2,-235.72 795.1,-231.96"/>
        </g>
        <!-- mrs.domain.model.user.UserDetailsImpl&#45;&gt;mrs.domain.model.user.UserId -->
        <g id="edge21" class="edge">
            <title>mrs.domain.model.user.UserDetailsImpl&#45;&gt;mrs.domain.model.user.UserId</title>
            <path fill="none" stroke="black"
                  d="M820.14,-260.8C818.97,-240.65 816.37,-207.28 811,-179 809.9,-173.19 808.4,-167.05 806.82,-161.22"/>
            <polygon fill="black" stroke="black" points="810.06,-159.82 803.93,-151.18 803.33,-161.76 810.06,-159.82"/>
        </g>
    </g>
</svg>
