<?xml version="1.0" encoding="UTF-8" standalone="no"?>
<!DOCTYPE svg PUBLIC "-//W3C//DTD SVG 1.1//EN"
        "http://www.w3.org/Graphics/SVG/1.1/DTD/svg11.dtd">
<!-- Generated by graphviz version 3.0.0 (20220226.1711)
 -->
<!-- Title: 集中ビジネスルールツリー図 Pages: 1 -->
<svg width="1252pt" height="401pt"
     viewBox="0.00 0.00 1252.00 401.00" xmlns="http://www.w3.org/2000/svg">
    <g id="graph0" class="graph" transform="scale(1 1) rotate(0) translate(4 397)">
        <title>集中ビジネスルールツリー図</title>
        <polygon fill="white" stroke="transparent" points="-4,4 -4,-397 1248,-397 1248,4 -4,4"/>
        <text text-anchor="middle" x="622" y="-7.8" font-family="Times New Roman,serif" font-size="14.00">
            集中ビジネスルールツリー図
        </text>
        <!-- mrs.domain.model.auth.RoleName -->
        <g id="node1" class="node">
            <title>mrs.domain.model.auth.RoleName</title>
            <polygon fill="#eedd82" stroke="black" points="456,-393 282,-393 282,-319 456,-319 456,-393"/>
            <text text-anchor="middle" x="369" y="-365" font-family="Times New Roman,serif" font-size="30.00">利用者区分
            </text>
            <text text-anchor="middle" x="369" y="-332" font-family="Times New Roman,serif" font-size="30.00">RoleName
            </text>
        </g>
        <!-- mrs.domain.model.auth.User -->
        <g id="node2" class="node">
            <title>mrs.domain.model.auth.User</title>
            <polygon fill="#eedd82" stroke="black" points="234,-263 154,-263 154,-189 234,-189 234,-263"/>
            <text text-anchor="middle" x="194" y="-235" font-family="Times New Roman,serif" font-size="30.00">会員</text>
            <text text-anchor="middle" x="194" y="-202" font-family="Times New Roman,serif" font-size="30.00">User
            </text>
        </g>
        <!-- mrs.domain.model.auth.User&#45;&gt;mrs.domain.model.auth.RoleName -->
        <g id="edge10" class="edge">
            <title>mrs.domain.model.auth.User&#45;&gt;mrs.domain.model.auth.RoleName</title>
            <path fill="none" stroke="black"
                  d="M228.98,-263.11C244.3,-278.66 263.16,-296.28 282,-310 283.41,-311.03 284.85,-312.05 286.31,-313.06"/>
            <polygon fill="black" stroke="black" points="284.6,-316.13 294.87,-318.74 288.47,-310.29 284.6,-316.13"/>
        </g>
        <!-- mrs.domain.model.auth.UserId -->
        <g id="node4" class="node">
            <title>mrs.domain.model.auth.UserId</title>
            <polygon fill="#eedd82" stroke="black" points="440.5,-301 297.5,-301 297.5,-227 440.5,-227 440.5,-301"/>
            <text text-anchor="middle" x="369" y="-273" font-family="Times New Roman,serif" font-size="30.00">会員番号
            </text>
            <text text-anchor="middle" x="369" y="-240" font-family="Times New Roman,serif" font-size="30.00">UserId
            </text>
        </g>
        <!-- mrs.domain.model.auth.User&#45;&gt;mrs.domain.model.auth.UserId -->
        <g id="edge1" class="edge">
            <title>mrs.domain.model.auth.User&#45;&gt;mrs.domain.model.auth.UserId</title>
            <path fill="none" stroke="black" d="M234.26,-234.62C250.06,-238.09 268.9,-242.23 287.37,-246.29"/>
            <polygon fill="black" stroke="black" points="286.76,-249.74 297.28,-248.47 288.27,-242.9 286.76,-249.74"/>
        </g>
        <!-- mrs.domain.model.reservation.reservation.Reservation -->
        <g id="node5" class="node">
            <title>mrs.domain.model.reservation.reservation.Reservation</title>
            <polygon fill="#eedd82" stroke="black" points="448,-97 290,-97 290,-23 448,-23 448,-97"/>
            <text text-anchor="middle" x="369" y="-69" font-family="Times New Roman,serif" font-size="30.00">予約</text>
            <text text-anchor="middle" x="369" y="-36" font-family="Times New Roman,serif" font-size="30.00">
                Reservation
            </text>
        </g>
        <!-- mrs.domain.model.auth.User&#45;&gt;mrs.domain.model.reservation.reservation.Reservation -->
        <g id="edge3" class="edge">
            <title>mrs.domain.model.auth.User&#45;&gt;mrs.domain.model.reservation.reservation.Reservation</title>
            <path fill="none" stroke="black"
                  d="M211.51,-188.84C227.05,-160.69 252.33,-122.88 282,-97 282.16,-96.86 282.32,-96.72 282.48,-96.58"/>
            <polygon fill="black" stroke="black" points="284.4,-99.53 290,-90.53 280.01,-94.07 284.4,-99.53"/>
        </g>
        <!-- mrs.domain.model.auth.UserDetailsImpl -->
        <g id="node3" class="node">
            <title>mrs.domain.model.auth.UserDetailsImpl</title>
            <polygon fill="lemonchiffon" stroke="black" points="106,-310 0,-310 0,-272 106,-272 106,-310"/>
            <text text-anchor="middle" x="53" y="-294.8" font-family="Times New Roman,serif" font-size="14.00">利用者
            </text>
            <text text-anchor="middle" x="53" y="-279.8" font-family="Times New Roman,serif" font-size="14.00">
                UserDetailsImpl
            </text>
        </g>
        <!-- mrs.domain.model.auth.UserDetailsImpl&#45;&gt;mrs.domain.model.auth.RoleName -->
        <g id="edge11" class="edge">
            <title>mrs.domain.model.auth.UserDetailsImpl&#45;&gt;mrs.domain.model.auth.RoleName</title>
            <path fill="none" stroke="black" d="M106.2,-301.81C151.19,-311.12 217.29,-324.8 271.82,-336.09"/>
            <polygon fill="black" stroke="black" points="271.36,-339.57 281.86,-338.17 272.78,-332.71 271.36,-339.57"/>
        </g>
        <!-- mrs.domain.model.auth.UserDetailsImpl&#45;&gt;mrs.domain.model.auth.User -->
        <g id="edge8" class="edge">
            <title>mrs.domain.model.auth.UserDetailsImpl&#45;&gt;mrs.domain.model.auth.User</title>
            <path fill="none" stroke="black" d="M94.95,-271.85C110.48,-264.59 128.32,-256.25 144.48,-248.69"/>
            <polygon fill="black" stroke="black" points="146.2,-251.75 153.77,-244.34 143.23,-245.41 146.2,-251.75"/>
        </g>
        <!-- mrs.domain.model.auth.UserDetailsImpl&#45;&gt;mrs.domain.model.auth.UserId -->
        <g id="edge2" class="edge">
            <title>mrs.domain.model.auth.UserDetailsImpl&#45;&gt;mrs.domain.model.auth.UserId</title>
            <path fill="none" stroke="black" d="M106.2,-286.51C155.56,-282.27 230.34,-275.84 287.36,-270.93"/>
            <polygon fill="black" stroke="black" points="287.76,-274.41 297.43,-270.07 287.16,-267.44 287.76,-274.41"/>
        </g>
        <!-- mrs.domain.model.reservation.reservation.Reservation&#45;&gt;mrs.domain.model.auth.User -->
        <g id="edge9" class="edge">
            <title>mrs.domain.model.reservation.reservation.Reservation&#45;&gt;mrs.domain.model.auth.User</title>
            <path fill="none" stroke="black"
                  d="M306.97,-97.02C298.15,-102.45 289.53,-108.43 282,-115 260.52,-133.74 241.33,-158.74 226.48,-180.33"/>
            <polygon fill="black" stroke="black" points="223.51,-178.49 220.8,-188.73 229.3,-182.41 223.51,-178.49"/>
        </g>
        <!-- mrs.domain.model.reservation.room.ReservableRoom -->
        <g id="node8" class="node">
            <title>mrs.domain.model.reservation.room.ReservableRoom</title>
            <polygon fill="#eedd82" stroke="black" points="729,-162 492,-162 492,-88 729,-88 729,-162"/>
            <text text-anchor="middle" x="610.5" y="-134" font-family="Times New Roman,serif" font-size="30.00">
                予約可能会議室
            </text>
            <text text-anchor="middle" x="610.5" y="-101" font-family="Times New Roman,serif" font-size="30.00">
                ReservableRoom
            </text>
        </g>
        <!-- mrs.domain.model.reservation.reservation.Reservation&#45;&gt;mrs.domain.model.reservation.room.ReservableRoom -->
        <g id="edge12" class="edge">
            <title>mrs.domain.model.reservation.reservation.Reservation&#45;&gt;mrs.domain.model.reservation.room.ReservableRoom</title>
            <path fill="none" stroke="black" d="M448.09,-74.82C460.83,-78.04 474.29,-81.57 487.79,-85.22"/>
            <polygon fill="black" stroke="black" points="487.04,-88.64 497.61,-87.9 488.88,-81.89 487.04,-88.64"/>
        </g>
        <!-- mrs.domain.model.reservation.room.ReservableRoomId -->
        <g id="node9" class="node">
            <title>mrs.domain.model.reservation.room.ReservableRoomId</title>
            <polygon fill="#eedd82" stroke="black" points="1034,-162 765,-162 765,-88 1034,-88 1034,-162"/>
            <text text-anchor="middle" x="899.5" y="-134" font-family="Times New Roman,serif" font-size="30.00">
                予約可能会議室ID
            </text>
            <text text-anchor="middle" x="899.5" y="-101" font-family="Times New Roman,serif" font-size="30.00">
                ReservableRoomId
            </text>
        </g>
        <!-- mrs.domain.model.reservation.reservation.Reservation&#45;&gt;mrs.domain.model.reservation.room.ReservableRoomId -->
        <g id="edge15" class="edge">
            <title>mrs.domain.model.reservation.reservation.Reservation&#45;&gt;mrs.domain.model.reservation.room.ReservableRoomId</title>
            <path fill="none" stroke="black"
                  d="M448.24,-59.38C521.3,-59.93 633.17,-63.64 729,-79 740.41,-80.83 752.15,-83.12 763.88,-85.71"/>
            <polygon fill="black" stroke="black" points="763.2,-89.14 773.73,-87.94 764.75,-82.31 763.2,-89.14"/>
        </g>
        <!-- mrs.domain.model.reservation.reservation.ReservationList -->
        <g id="node6" class="node">
            <title>mrs.domain.model.reservation.reservation.ReservationList</title>
            <polygon fill="lemonchiffon" stroke="black" points="246,-79 142,-79 142,-41 246,-41 246,-79"/>
            <text text-anchor="middle" x="194" y="-63.8" font-family="Times New Roman,serif" font-size="14.00">予約一覧
            </text>
            <text text-anchor="middle" x="194" y="-48.8" font-family="Times New Roman,serif" font-size="14.00">
                ReservationList
            </text>
        </g>
        <!-- mrs.domain.model.reservation.reservation.ReservationList&#45;&gt;mrs.domain.model.reservation.reservation.Reservation -->
        <g id="edge4" class="edge">
            <title>mrs.domain.model.reservation.reservation.ReservationList&#45;&gt;mrs.domain.model.reservation.reservation.Reservation</title>
            <path fill="none" stroke="black" d="M246.44,-60C256.99,-60 268.38,-60 279.81,-60"/>
            <polygon fill="black" stroke="black" points="279.85,-63.5 289.85,-60 279.85,-56.5 279.85,-63.5"/>
        </g>
        <!-- mrs.domain.model.reservation.room.MeetingRoom -->
        <g id="node7" class="node">
            <title>mrs.domain.model.reservation.room.MeetingRoom</title>
            <polygon fill="lemonchiffon" stroke="black" points="417,-209 321,-209 321,-171 417,-171 417,-209"/>
            <text text-anchor="middle" x="369" y="-193.8" font-family="Times New Roman,serif" font-size="14.00">会議室
            </text>
            <text text-anchor="middle" x="369" y="-178.8" font-family="Times New Roman,serif" font-size="14.00">
                MeetingRoom
            </text>
        </g>
        <!-- mrs.domain.model.reservation.room.MeetingRoom&#45;&gt;mrs.domain.model.reservation.room.ReservableRoom -->
        <g id="edge13" class="edge">
            <title>mrs.domain.model.reservation.room.MeetingRoom&#45;&gt;mrs.domain.model.reservation.room.ReservableRoom</title>
            <path fill="none" stroke="black" d="M417.03,-177.24C435.92,-172.11 458.7,-165.93 481.88,-159.64"/>
            <polygon fill="black" stroke="black" points="483.09,-162.93 491.83,-156.94 481.26,-156.18 483.09,-162.93"/>
        </g>
        <!-- mrs.domain.model.reservation.room.RoomId -->
        <g id="node11" class="node">
            <title>mrs.domain.model.reservation.room.RoomId</title>
            <polygon fill="#eedd82" stroke="black" points="1244,-194 1070,-194 1070,-120 1244,-120 1244,-194"/>
            <text text-anchor="middle" x="1157" y="-166" font-family="Times New Roman,serif" font-size="30.00">会議室番号
            </text>
            <text text-anchor="middle" x="1157" y="-133" font-family="Times New Roman,serif" font-size="30.00">RoomId
            </text>
        </g>
        <!-- mrs.domain.model.reservation.room.MeetingRoom&#45;&gt;mrs.domain.model.reservation.room.RoomId -->
        <g id="edge6" class="edge">
            <title>mrs.domain.model.reservation.room.MeetingRoom&#45;&gt;mrs.domain.model.reservation.room.RoomId
            </title>
            <path fill="none" stroke="black"
                  d="M417.17,-190.04C526,-189.82 803.08,-187.52 1034,-171 1042.33,-170.4 1050.97,-169.66 1059.62,-168.83"/>
            <polygon fill="black" stroke="black"
                     points="1060.17,-172.3 1069.77,-167.83 1059.48,-165.33 1060.17,-172.3"/>
        </g>
        <!-- mrs.domain.model.reservation.room.ReservableRoom&#45;&gt;mrs.domain.model.reservation.reservation.Reservation -->
        <g id="edge5" class="edge">
            <title>mrs.domain.model.reservation.room.ReservableRoom&#45;&gt;mrs.domain.model.reservation.reservation.Reservation</title>
            <path fill="none" stroke="black" d="M491.97,-99.85C480.46,-96.74 468.92,-93.53 457.77,-90.35"/>
            <polygon fill="black" stroke="black" points="458.67,-86.97 448.09,-87.57 456.73,-93.7 458.67,-86.97"/>
        </g>
        <!-- mrs.domain.model.reservation.room.ReservableRoom&#45;&gt;mrs.domain.model.reservation.room.ReservableRoomId -->
        <g id="edge16" class="edge">
            <title>mrs.domain.model.reservation.room.ReservableRoom&#45;&gt;mrs.domain.model.reservation.room.ReservableRoomId</title>
            <path fill="none" stroke="black" d="M729.06,-125C737.52,-125 746.1,-125 754.68,-125"/>
            <polygon fill="black" stroke="black" points="754.75,-128.5 764.75,-125 754.75,-121.5 754.75,-128.5"/>
        </g>
        <!-- mrs.domain.model.reservation.room.ReservableRoomId&#45;&gt;mrs.domain.model.reservation.room.RoomId -->
        <g id="edge7" class="edge">
            <title>mrs.domain.model.reservation.room.ReservableRoomId&#45;&gt;mrs.domain.model.reservation.room.RoomId
            </title>
            <path fill="none" stroke="black" d="M1034.24,-141.75C1042.82,-142.82 1051.37,-143.9 1059.72,-144.94"/>
            <polygon fill="black" stroke="black"
                     points="1059.45,-148.44 1069.81,-146.21 1060.32,-141.49 1059.45,-148.44"/>
        </g>
        <!-- mrs.domain.model.reservation.room.ReservableRoomList -->
        <g id="node10" class="node">
            <title>mrs.domain.model.reservation.room.ReservableRoomList</title>
            <polygon fill="lemonchiffon" stroke="black" points="455,-153 283,-153 283,-115 455,-115 455,-153"/>
            <text text-anchor="middle" x="369" y="-137.8" font-family="Times New Roman,serif" font-size="14.00">
                予約可能会議室一覧
            </text>
            <text text-anchor="middle" x="369" y="-122.8" font-family="Times New Roman,serif" font-size="14.00">
                ReservableRoomList
            </text>
        </g>
        <!-- mrs.domain.model.reservation.room.ReservableRoomList&#45;&gt;mrs.domain.model.reservation.room.ReservableRoom -->
        <g id="edge14" class="edge">
            <title>mrs.domain.model.reservation.room.ReservableRoomList&#45;&gt;mrs.domain.model.reservation.room.ReservableRoom</title>
            <path fill="none" stroke="black" d="M455.11,-130.8C463.81,-130.47 472.77,-130.14 481.79,-129.8"/>
            <polygon fill="black" stroke="black" points="482.13,-133.29 491.99,-129.42 481.86,-126.29 482.13,-133.29"/>
        </g>
    </g>
</svg>
