<?xml version="1.0" encoding="UTF-8" standalone="no"?>
<!DOCTYPE svg PUBLIC "-//W3C//DTD SVG 1.1//EN"
        "http://www.w3.org/Graphics/SVG/1.1/DTD/svg11.dtd">
<!-- Generated by graphviz version 3.0.0 (20220226.1711)
 -->
<!-- Title: ビジネスルール関連図 Pages: 1 -->
<svg width="1430pt" height="588pt"
     viewBox="0.00 0.00 1430.26 588.00" xmlns="http://www.w3.org/2000/svg">
    <g id="graph0" class="graph" transform="scale(1 1) rotate(0) translate(4 584)">
        <title>ビジネスルール関連図</title>
        <polygon fill="white" stroke="transparent" points="-4,4 -4,-584 1426.26,-584 1426.26,4 -4,4"/>
        <text text-anchor="middle" x="711.13" y="-7.8" font-family="Times New Roman,serif" font-size="14.00">
            ビジネスルール関連図
        </text>
        <g id="clust2" class="cluster">
            <title>cluster_mrs.domain.model.facility.room</title>
            <polygon fill="lemonchiffon" stroke="#eedd82" stroke-width="2"
                     points="8,-31 8,-402 144,-402 144,-31 8,-31"/>
            <text text-anchor="middle" x="76" y="-386.8" font-family="Times New Roman,serif" font-size="14.00">
                facility.room
            </text>
        </g>
        <g id="clust3" class="cluster">
            <title>cluster_mrs.domain.model.reservation.reservation</title>
            <polygon fill="lemonchiffon" stroke="#eedd82" stroke-width="2"
                     points="348,-103 348,-487 576,-487 576,-103 348,-103"/>
            <text text-anchor="middle" x="462" y="-471.8" font-family="Times New Roman,serif" font-size="14.00">
                reservation.reservation
            </text>
        </g>
        <g id="clust4" class="cluster">
            <title>cluster_mrs.domain.model.reservation.room</title>
            <polygon fill="lemonchiffon" stroke="#eedd82" stroke-width="2"
                     points="152,-177 152,-402 340,-402 340,-177 152,-177"/>
            <text text-anchor="middle" x="246" y="-386.8" font-family="Times New Roman,serif" font-size="14.00">
                reservation.room
            </text>
        </g>
        <g id="clust1" class="cluster">
            <title>cluster_mrs.domain.model.auth.user</title>
            <polygon fill="lemonchiffon" stroke="#eedd82" stroke-width="2"
                     points="584,-252 584,-572 1156,-572 1156,-252 584,-252"/>
            <text text-anchor="middle" x="870" y="-556.8" font-family="Times New Roman,serif" font-size="14.00">
                auth.user
            </text>
        </g>
        <g id="clust6" class="cluster">
            <title>cluster_mrs.domain.model.user.staff</title>
            <polygon fill="lemonchiffon" stroke="#eedd82" stroke-width="2"
                     points="474,-495 474,-572 576,-572 576,-495 474,-495"/>
            <text text-anchor="middle" x="525" y="-556.8" font-family="Times New Roman,serif" font-size="14.00">
                user.staff
            </text>
        </g>
        <g id="clust5" class="cluster">
            <title>cluster_mrs.domain.model.user.member</title>
            <polygon fill="lemonchiffon" stroke="#eedd82" stroke-width="2"
                     points="1194,-410 1194,-572 1296,-572 1296,-410 1194,-410"/>
            <text text-anchor="middle" x="1245" y="-556.8" font-family="Times New Roman,serif" font-size="14.00">
                user.member
            </text>
        </g>
        <!-- mrs.domain.model.auth.user.Password -->
        <g id="node1" class="node">
            <title>mrs.domain.model.auth.user.Password</title>
            <polygon fill="#eedd82" stroke="black" points="695.5,-371 592.5,-371 592.5,-333 695.5,-333 695.5,-371"/>
            <text text-anchor="middle" x="644" y="-355.8" font-family="Times New Roman,serif" font-size="14.00">パスワード
            </text>
            <text text-anchor="middle" x="644" y="-340.8" font-family="Times New Roman,serif" font-size="14.00">
                Password
            </text>
        </g>
        <!-- mrs.domain.model.auth.user.PasswordException -->
        <g id="node2" class="node">
            <title>mrs.domain.model.auth.user.PasswordException</title>
            <polygon fill="#eedd82" stroke="black" points="720,-296 592,-296 592,-260 720,-260 720,-296"/>
            <text text-anchor="middle" x="656" y="-274.3" font-family="Times New Roman,serif" font-size="14.00">
                PasswordException
            </text>
        </g>
        <!-- mrs.domain.model.auth.user.Password&#45;&gt;mrs.domain.model.auth.user.PasswordException -->
        <g id="edge1" class="edge">
            <title>mrs.domain.model.auth.user.Password&#45;&gt;mrs.domain.model.auth.user.PasswordException</title>
            <path fill="none" stroke="black" d="M647.03,-332.83C648.37,-324.81 649.97,-315.2 651.44,-306.34"/>
            <polygon fill="black" stroke="black" points="654.91,-306.86 653.1,-296.42 648,-305.71 654.91,-306.86"/>
        </g>
        <!-- mrs.domain.model.auth.user.RoleName -->
        <g id="node3" class="node">
            <title>mrs.domain.model.auth.user.RoleName</title>
            <polygon fill="#eedd82" stroke="black" points="816.5,-371 713.5,-371 713.5,-333 816.5,-333 816.5,-371"/>
            <text text-anchor="middle" x="765" y="-355.8" font-family="Times New Roman,serif" font-size="14.00">利用者区分
            </text>
            <text text-anchor="middle" x="765" y="-340.8" font-family="Times New Roman,serif" font-size="14.00">
                RoleName
            </text>
        </g>
        <!-- mrs.domain.model.auth.user.User -->
        <g id="node4" class="node">
            <title>mrs.domain.model.auth.user.User</title>
            <polygon fill="#eedd82" stroke="black" points="852,-456 784,-456 784,-418 852,-418 852,-456"/>
            <text text-anchor="middle" x="818" y="-440.8" font-family="Times New Roman,serif" font-size="14.00">利用者
            </text>
            <text text-anchor="middle" x="818" y="-425.8" font-family="Times New Roman,serif" font-size="14.00">User
            </text>
        </g>
        <!-- mrs.domain.model.auth.user.User&#45;&gt;mrs.domain.model.auth.user.Password -->
        <g id="edge2" class="edge">
            <title>mrs.domain.model.auth.user.User&#45;&gt;mrs.domain.model.auth.user.Password</title>
            <path fill="none" stroke="black"
                  d="M783.83,-421.49C773.14,-417.34 761.2,-413.11 750,-410 730.43,-404.57 723.5,-410.4 705,-402 691.99,-396.09 679.37,-386.77 669.02,-377.83"/>
            <polygon fill="black" stroke="black" points="671.36,-375.22 661.58,-371.13 666.67,-380.42 671.36,-375.22"/>
        </g>
        <!-- mrs.domain.model.auth.user.User&#45;&gt;mrs.domain.model.auth.user.RoleName -->
        <g id="edge3" class="edge">
            <title>mrs.domain.model.auth.user.User&#45;&gt;mrs.domain.model.auth.user.RoleName</title>
            <path fill="none" stroke="black" d="M806.5,-417.99C799.4,-406.86 790.15,-392.38 782.18,-379.91"/>
            <polygon fill="black" stroke="black" points="784.99,-377.81 776.66,-371.26 779.09,-381.57 784.99,-377.81"/>
        </g>
        <!-- mrs.domain.model.auth.user.UserException -->
        <g id="node6" class="node">
            <title>mrs.domain.model.auth.user.UserException</title>
            <polygon fill="#eedd82" stroke="black" points="933.5,-370 834.5,-370 834.5,-334 933.5,-334 933.5,-370"/>
            <text text-anchor="middle" x="884" y="-348.3" font-family="Times New Roman,serif" font-size="14.00">
                UserException
            </text>
        </g>
        <!-- mrs.domain.model.auth.user.User&#45;&gt;mrs.domain.model.auth.user.UserException -->
        <g id="edge4" class="edge">
            <title>mrs.domain.model.auth.user.User&#45;&gt;mrs.domain.model.auth.user.UserException</title>
            <path fill="none" stroke="black" d="M832.32,-417.99C841.59,-406.34 853.79,-390.99 864.01,-378.14"/>
            <polygon fill="black" stroke="black" points="866.9,-380.13 870.38,-370.12 861.42,-375.77 866.9,-380.13"/>
        </g>
        <!-- mrs.domain.model.auth.user.UserId -->
        <g id="node7" class="node">
            <title>mrs.domain.model.auth.user.UserId</title>
            <polygon fill="#eedd82" stroke="black"
                     points="1147.5,-371 1044.5,-371 1044.5,-333 1147.5,-333 1147.5,-371"/>
            <text text-anchor="middle" x="1096" y="-355.8" font-family="Times New Roman,serif" font-size="14.00">利用者番号
            </text>
            <text text-anchor="middle" x="1096" y="-340.8" font-family="Times New Roman,serif" font-size="14.00">
                UserId
            </text>
        </g>
        <!-- mrs.domain.model.auth.user.User&#45;&gt;mrs.domain.model.auth.user.UserId -->
        <g id="edge5" class="edge">
            <title>mrs.domain.model.auth.user.User&#45;&gt;mrs.domain.model.auth.user.UserId</title>
            <path fill="none" stroke="black"
                  d="M852.29,-430.18C884.67,-424.75 934.59,-416.52 978,-410 1003.73,-406.14 1012.14,-412.4 1036,-402 1048.94,-396.36 1061.35,-387.11 1071.5,-378.16"/>
            <polygon fill="black" stroke="black"
                     points="1074.15,-380.48 1079.11,-371.12 1069.39,-375.34 1074.15,-380.48"/>
        </g>
        <!-- mrs.domain.model.auth.user.UserName -->
        <g id="node9" class="node">
            <title>mrs.domain.model.auth.user.UserName</title>
            <polygon fill="#eedd82" stroke="black" points="1026.5,-371 951.5,-371 951.5,-333 1026.5,-333 1026.5,-371"/>
            <text text-anchor="middle" x="989" y="-355.8" font-family="Times New Roman,serif" font-size="14.00">氏名
            </text>
            <text text-anchor="middle" x="989" y="-340.8" font-family="Times New Roman,serif" font-size="14.00">
                UserName
            </text>
        </g>
        <!-- mrs.domain.model.auth.user.User&#45;&gt;mrs.domain.model.auth.user.UserName -->
        <g id="edge6" class="edge">
            <title>mrs.domain.model.auth.user.User&#45;&gt;mrs.domain.model.auth.user.UserName</title>
            <path fill="none" stroke="black"
                  d="M852.09,-431.89C878.41,-427.54 914.95,-418.86 943,-402 952.85,-396.08 961.93,-387.46 969.38,-379.09"/>
            <polygon fill="black" stroke="black" points="972.22,-381.15 975.99,-371.25 966.87,-376.64 972.22,-381.15"/>
        </g>
        <!-- mrs.domain.model.reservation.reservation.Reservation -->
        <g id="node13" class="node">
            <title>mrs.domain.model.reservation.reservation.Reservation</title>
            <polygon fill="#eedd82" stroke="black" points="523.5,-371 440.5,-371 440.5,-333 523.5,-333 523.5,-371"/>
            <text text-anchor="middle" x="482" y="-355.8" font-family="Times New Roman,serif" font-size="14.00">予約
            </text>
            <text text-anchor="middle" x="482" y="-340.8" font-family="Times New Roman,serif" font-size="14.00">
                Reservation
            </text>
        </g>
        <!-- mrs.domain.model.auth.user.User&#45;&gt;mrs.domain.model.reservation.reservation.Reservation -->
        <g id="edge7" class="edge">
            <title>mrs.domain.model.auth.user.User&#45;&gt;mrs.domain.model.reservation.reservation.Reservation</title>
            <path fill="none" stroke="black"
                  d="M783.85,-434.88C735.19,-432.45 644.31,-424.9 571,-402 550.78,-395.68 529.6,-385.59 512.87,-376.2"/>
            <polygon fill="black" stroke="black" points="514.47,-373.08 504.07,-371.08 510.96,-379.13 514.47,-373.08"/>
        </g>
        <!-- mrs.domain.model.auth.user.UserDetailsImpl -->
        <g id="node5" class="node">
            <title>mrs.domain.model.auth.user.UserDetailsImpl</title>
            <polygon fill="#eedd82" stroke="black" points="844,-541 738,-541 738,-503 844,-503 844,-541"/>
            <text text-anchor="middle" x="791" y="-525.8" font-family="Times New Roman,serif" font-size="14.00">利用者
            </text>
            <text text-anchor="middle" x="791" y="-510.8" font-family="Times New Roman,serif" font-size="14.00">
                UserDetailsImpl
            </text>
        </g>
        <!-- mrs.domain.model.auth.user.UserDetailsImpl&#45;&gt;mrs.domain.model.auth.user.Password -->
        <g id="edge8" class="edge">
            <title>mrs.domain.model.auth.user.UserDetailsImpl&#45;&gt;mrs.domain.model.auth.user.Password</title>
            <path fill="none" stroke="black"
                  d="M774.18,-502.73C769.56,-497.66 764.56,-492.14 760,-487 727.03,-449.89 689.55,-406.34 666.34,-379.21"/>
            <polygon fill="black" stroke="black" points="668.77,-376.66 659.61,-371.34 663.45,-381.21 668.77,-376.66"/>
        </g>
        <!-- mrs.domain.model.auth.user.UserDetailsImpl&#45;&gt;mrs.domain.model.auth.user.RoleName -->
        <g id="edge9" class="edge">
            <title>mrs.domain.model.auth.user.UserDetailsImpl&#45;&gt;mrs.domain.model.auth.user.RoleName</title>
            <path fill="none" stroke="black"
                  d="M780.92,-502.76C778.6,-497.78 776.39,-492.3 775,-487 765.62,-451.35 764.01,-408.65 764.15,-381.19"/>
            <polygon fill="black" stroke="black" points="767.65,-381.16 764.29,-371.12 760.65,-381.07 767.65,-381.16"/>
        </g>
        <!-- mrs.domain.model.auth.user.UserDetailsImpl&#45;&gt;mrs.domain.model.auth.user.User -->
        <g id="edge10" class="edge">
            <title>mrs.domain.model.auth.user.UserDetailsImpl&#45;&gt;mrs.domain.model.auth.user.User</title>
            <path fill="none" stroke="black" d="M796.86,-502.99C800.37,-492.19 804.92,-478.22 808.89,-466"/>
            <polygon fill="black" stroke="black" points="812.29,-466.85 812.06,-456.26 805.64,-464.69 812.29,-466.85"/>
        </g>
        <!-- mrs.domain.model.auth.user.UserDetailsImpl&#45;&gt;mrs.domain.model.auth.user.UserId -->
        <g id="edge11" class="edge">
            <title>mrs.domain.model.auth.user.UserDetailsImpl&#45;&gt;mrs.domain.model.auth.user.UserId</title>
            <path fill="none" stroke="black"
                  d="M836.02,-502.89C886.47,-481.75 969.85,-444.26 1036,-402 1047.16,-394.87 1058.6,-385.98 1068.47,-377.74"/>
            <polygon fill="black" stroke="black"
                     points="1071.01,-380.17 1076.34,-371.02 1066.47,-374.85 1071.01,-380.17"/>
        </g>
        <!-- mrs.domain.model.auth.user.UserIdException -->
        <g id="node8" class="node">
            <title>mrs.domain.model.auth.user.UserIdException</title>
            <polygon fill="#eedd82" stroke="black"
                     points="1147.5,-296 1036.5,-296 1036.5,-260 1147.5,-260 1147.5,-296"/>
            <text text-anchor="middle" x="1092" y="-274.3" font-family="Times New Roman,serif" font-size="14.00">
                UserIdException
            </text>
        </g>
        <!-- mrs.domain.model.auth.user.UserId&#45;&gt;mrs.domain.model.auth.user.UserIdException -->
        <g id="edge12" class="edge">
            <title>mrs.domain.model.auth.user.UserId&#45;&gt;mrs.domain.model.auth.user.UserIdException</title>
            <path fill="none" stroke="black" d="M1094.99,-332.83C1094.55,-324.89 1094.02,-315.41 1093.53,-306.63"/>
            <polygon fill="black" stroke="black"
                     points="1097.02,-306.21 1092.97,-296.42 1090.03,-306.6 1097.02,-306.21"/>
        </g>
        <!-- mrs.domain.model.facility.room.MeetingRoom -->
        <g id="node10" class="node">
            <title>mrs.domain.model.facility.room.MeetingRoom</title>
            <polygon fill="#eedd82" stroke="black" points="135,-371 39,-371 39,-333 135,-333 135,-371"/>
            <text text-anchor="middle" x="87" y="-355.8" font-family="Times New Roman,serif" font-size="14.00">会議室
            </text>
            <text text-anchor="middle" x="87" y="-340.8" font-family="Times New Roman,serif" font-size="14.00">
                MeetingRoom
            </text>
        </g>
        <!-- mrs.domain.model.facility.room.RoomId -->
        <g id="node11" class="node">
            <title>mrs.domain.model.facility.room.RoomId</title>
            <polygon fill="#eedd82" stroke="black" points="135.5,-149 32.5,-149 32.5,-111 135.5,-111 135.5,-149"/>
            <text text-anchor="middle" x="84" y="-133.8" font-family="Times New Roman,serif" font-size="14.00">会議室番号
            </text>
            <text text-anchor="middle" x="84" y="-118.8" font-family="Times New Roman,serif" font-size="14.00">RoomId
            </text>
        </g>
        <!-- mrs.domain.model.facility.room.MeetingRoom&#45;&gt;mrs.domain.model.facility.room.RoomId -->
        <g id="edge13" class="edge">
            <title>mrs.domain.model.facility.room.MeetingRoom&#45;&gt;mrs.domain.model.facility.room.RoomId</title>
            <path fill="none" stroke="black" d="M86.75,-333C86.23,-294.8 85.01,-205.41 84.39,-159.43"/>
            <polygon fill="black" stroke="black" points="87.89,-159.2 84.25,-149.25 80.89,-159.3 87.89,-159.2"/>
        </g>
        <!-- mrs.domain.model.reservation.room.ReservableRoom -->
        <g id="node18" class="node">
            <title>mrs.domain.model.reservation.room.ReservableRoom</title>
            <polygon fill="#eedd82" stroke="black" points="299.5,-297 162.5,-297 162.5,-259 299.5,-259 299.5,-297"/>
            <text text-anchor="middle" x="231" y="-281.8" font-family="Times New Roman,serif" font-size="14.00">
                予約可能会議室
            </text>
            <text text-anchor="middle" x="231" y="-266.8" font-family="Times New Roman,serif" font-size="14.00">
                ReservableRoom
            </text>
        </g>
        <!-- mrs.domain.model.facility.room.MeetingRoom&#45;&gt;mrs.domain.model.reservation.room.ReservableRoom -->
        <g id="edge14" class="edge">
            <title>mrs.domain.model.facility.room.MeetingRoom&#45;&gt;mrs.domain.model.reservation.room.ReservableRoom
            </title>
            <path fill="none" stroke="black" d="M129.29,-332.83C149.05,-323.41 172.38,-311.81 191.75,-301.79"/>
            <polygon fill="black" stroke="black" points="193.38,-304.89 200.63,-297.16 190.14,-298.68 193.38,-304.89"/>
        </g>
        <!-- mrs.domain.model.facility.room.RoomIdException -->
        <g id="node12" class="node">
            <title>mrs.domain.model.facility.room.RoomIdException</title>
            <polygon fill="#eedd82" stroke="black" points="136,-75 16,-75 16,-39 136,-39 136,-75"/>
            <text text-anchor="middle" x="76" y="-53.3" font-family="Times New Roman,serif" font-size="14.00">
                RoomIdException
            </text>
        </g>
        <!-- mrs.domain.model.facility.room.RoomId&#45;&gt;mrs.domain.model.facility.room.RoomIdException -->
        <g id="edge15" class="edge">
            <title>mrs.domain.model.facility.room.RoomId&#45;&gt;mrs.domain.model.facility.room.RoomIdException</title>
            <path fill="none" stroke="black" d="M81.94,-110.72C81.06,-102.89 80.01,-93.59 79.04,-84.99"/>
            <polygon fill="black" stroke="black" points="82.51,-84.55 77.92,-75 75.56,-85.33 82.51,-84.55"/>
        </g>
        <!-- mrs.domain.model.reservation.reservation.Reservation&#45;&gt;mrs.domain.model.auth.user.User -->
        <g id="edge16" class="edge">
            <title>mrs.domain.model.reservation.reservation.Reservation&#45;&gt;mrs.domain.model.auth.user.User</title>
            <path fill="none" stroke="black"
                  d="M519.6,-371.08C539.73,-381.72 565.03,-394.51 589,-402 651.6,-421.55 727.01,-429.91 773.84,-433.45"/>
            <polygon fill="black" stroke="black" points="773.74,-436.95 783.96,-434.18 774.23,-429.97 773.74,-436.95"/>
        </g>
        <!-- mrs.domain.model.reservation.reservation.ReservationId -->
        <g id="node14" class="node">
            <title>mrs.domain.model.reservation.reservation.ReservationId</title>
            <polygon fill="#eedd82" stroke="black" points="567.5,-297 472.5,-297 472.5,-259 567.5,-259 567.5,-297"/>
            <text text-anchor="middle" x="520" y="-281.8" font-family="Times New Roman,serif" font-size="14.00">予約番号
            </text>
            <text text-anchor="middle" x="520" y="-266.8" font-family="Times New Roman,serif" font-size="14.00">
                ReservationId
            </text>
        </g>
        <!-- mrs.domain.model.reservation.reservation.Reservation&#45;&gt;mrs.domain.model.reservation.reservation.ReservationId -->
        <g id="edge17" class="edge">
            <title>mrs.domain.model.reservation.reservation.Reservation&#45;&gt;mrs.domain.model.reservation.reservation.ReservationId</title>
            <path fill="none" stroke="black" d="M491.59,-332.83C495.83,-324.79 500.91,-315.17 505.6,-306.29"/>
            <polygon fill="black" stroke="black" points="508.71,-307.89 510.28,-297.41 502.52,-304.62 508.71,-307.89"/>
        </g>
        <!-- mrs.domain.model.reservation.reservation.ReservedTime -->
        <g id="node17" class="node">
            <title>mrs.domain.model.reservation.reservation.ReservedTime</title>
            <polygon fill="#eedd82" stroke="black" points="454,-297 356,-297 356,-259 454,-259 454,-297"/>
            <text text-anchor="middle" x="405" y="-281.8" font-family="Times New Roman,serif" font-size="14.00">予約時間
            </text>
            <text text-anchor="middle" x="405" y="-266.8" font-family="Times New Roman,serif" font-size="14.00">
                ReservedTime
            </text>
        </g>
        <!-- mrs.domain.model.reservation.reservation.Reservation&#45;&gt;mrs.domain.model.reservation.reservation.ReservedTime -->
        <g id="edge18" class="edge">
            <title>mrs.domain.model.reservation.reservation.Reservation&#45;&gt;mrs.domain.model.reservation.reservation.ReservedTime</title>
            <path fill="none" stroke="black" d="M462.57,-332.83C453.27,-324.13 441.98,-313.58 431.87,-304.13"/>
            <polygon fill="black" stroke="black" points="434.12,-301.44 424.42,-297.16 429.34,-306.55 434.12,-301.44"/>
        </g>
        <!-- mrs.domain.model.reservation.reservation.Reservation&#45;&gt;mrs.domain.model.reservation.room.ReservableRoom -->
        <g id="edge19" class="edge">
            <title>mrs.domain.model.reservation.reservation.Reservation&#45;&gt;mrs.domain.model.reservation.room.ReservableRoom</title>
            <path fill="none" stroke="black" d="M440.48,-337.54C404.9,-326.91 352.79,-311.89 309.41,-299.72"/>
            <polygon fill="black" stroke="black" points="310.3,-296.34 299.73,-297.01 308.42,-303.08 310.3,-296.34"/>
        </g>
        <!-- mrs.domain.model.reservation.room.ReservableRoomId -->
        <g id="node19" class="node">
            <title>mrs.domain.model.reservation.room.ReservableRoomId</title>
            <polygon fill="#eedd82" stroke="black" points="322,-223 170,-223 170,-185 322,-185 322,-223"/>
            <text text-anchor="middle" x="246" y="-207.8" font-family="Times New Roman,serif" font-size="14.00">
                予約可能会議室ID
            </text>
            <text text-anchor="middle" x="246" y="-192.8" font-family="Times New Roman,serif" font-size="14.00">
                ReservableRoomId
            </text>
        </g>
        <!-- mrs.domain.model.reservation.reservation.Reservation&#45;&gt;mrs.domain.model.reservation.room.ReservableRoomId -->
        <g id="edge20" class="edge">
            <title>mrs.domain.model.reservation.reservation.Reservation&#45;&gt;mrs.domain.model.reservation.room.ReservableRoomId</title>
            <path fill="none" stroke="black"
                  d="M440.48,-340.03C412.39,-331.31 375.38,-317.2 347,-297 325.44,-281.65 327.32,-270.09 308,-252 299.55,-244.08 289.8,-236.2 280.57,-229.21"/>
            <polygon fill="black" stroke="black" points="282.42,-226.22 272.3,-223.07 278.25,-231.84 282.42,-226.22"/>
        </g>
        <!-- mrs.domain.model.reservation.reservation.ReservationList -->
        <g id="node15" class="node">
            <title>mrs.domain.model.reservation.reservation.ReservationList</title>
            <polygon fill="#eedd82" stroke="black" points="497,-456 393,-456 393,-418 497,-418 497,-456"/>
            <text text-anchor="middle" x="445" y="-440.8" font-family="Times New Roman,serif" font-size="14.00">予約一覧
            </text>
            <text text-anchor="middle" x="445" y="-425.8" font-family="Times New Roman,serif" font-size="14.00">
                ReservationList
            </text>
        </g>
        <!-- mrs.domain.model.reservation.reservation.ReservationList&#45;&gt;mrs.domain.model.reservation.reservation.Reservation -->
        <g id="edge21" class="edge">
            <title>mrs.domain.model.reservation.reservation.ReservationList&#45;&gt;mrs.domain.model.reservation.reservation.Reservation</title>
            <path fill="none" stroke="black" d="M453.03,-417.99C457.89,-407.08 464.2,-392.94 469.68,-380.64"/>
            <polygon fill="black" stroke="black" points="472.98,-381.82 473.86,-371.26 466.59,-378.97 472.98,-381.82"/>
        </g>
        <!-- mrs.domain.model.reservation.reservation.ReservedDate -->
        <g id="node16" class="node">
            <title>mrs.domain.model.reservation.reservation.ReservedDate</title>
            <polygon fill="#eedd82" stroke="black" points="451.5,-149 356.5,-149 356.5,-111 451.5,-111 451.5,-149"/>
            <text text-anchor="middle" x="404" y="-133.8" font-family="Times New Roman,serif" font-size="14.00">予約日
            </text>
            <text text-anchor="middle" x="404" y="-118.8" font-family="Times New Roman,serif" font-size="14.00">
                ReservedDate
            </text>
        </g>
        <!-- mrs.domain.model.reservation.room.ReservableRoom&#45;&gt;mrs.domain.model.facility.room.MeetingRoom -->
        <g id="edge22" class="edge">
            <title>mrs.domain.model.reservation.room.ReservableRoom&#45;&gt;mrs.domain.model.facility.room.MeetingRoom
            </title>
            <path fill="none" stroke="black" d="M188.98,-297.04C169.18,-306.48 145.74,-318.13 126.3,-328.19"/>
            <polygon fill="black" stroke="black" points="124.64,-325.11 117.38,-332.83 127.87,-331.31 124.64,-325.11"/>
        </g>
        <!-- mrs.domain.model.reservation.room.ReservableRoom&#45;&gt;mrs.domain.model.reservation.reservation.Reservation -->
        <g id="edge23" class="edge">
            <title>mrs.domain.model.reservation.room.ReservableRoom&#45;&gt;mrs.domain.model.reservation.reservation.Reservation</title>
            <path fill="none" stroke="black" d="M288.19,-297.11C331.01,-309.75 388.99,-326.33 430.4,-337.74"/>
            <polygon fill="black" stroke="black" points="429.72,-341.18 440.29,-340.45 431.57,-334.43 429.72,-341.18"/>
        </g>
        <!-- mrs.domain.model.reservation.room.ReservableRoom&#45;&gt;mrs.domain.model.reservation.room.ReservableRoomId -->
        <g id="edge24" class="edge">
            <title>mrs.domain.model.reservation.room.ReservableRoom&#45;&gt;mrs.domain.model.reservation.room.ReservableRoomId</title>
            <path fill="none" stroke="black" d="M234.79,-258.83C236.39,-251.13 238.3,-241.97 240.08,-233.42"/>
            <polygon fill="black" stroke="black" points="243.55,-233.92 242.16,-223.41 236.7,-232.49 243.55,-233.92"/>
        </g>
        <!-- mrs.domain.model.reservation.room.ReservableRoomId&#45;&gt;mrs.domain.model.facility.room.RoomId -->
        <g id="edge25" class="edge">
            <title>mrs.domain.model.reservation.room.ReservableRoomId&#45;&gt;mrs.domain.model.facility.room.RoomId
            </title>
            <path fill="none" stroke="black" d="M205.12,-184.83C183.45,-175.2 156.66,-163.29 133.79,-153.13"/>
            <polygon fill="black" stroke="black" points="135.15,-149.9 124.59,-149.04 132.3,-156.3 135.15,-149.9"/>
        </g>
        <!-- mrs.domain.model.reservation.room.ReservableRoomId&#45;&gt;mrs.domain.model.reservation.reservation.ReservedDate -->
        <g id="edge26" class="edge">
            <title>mrs.domain.model.reservation.room.ReservableRoomId&#45;&gt;mrs.domain.model.reservation.reservation.ReservedDate</title>
            <path fill="none" stroke="black" d="M285.87,-184.83C306.91,-175.24 332.9,-163.4 355.14,-153.27"/>
            <polygon fill="black" stroke="black" points="356.77,-156.37 364.42,-149.04 353.87,-150 356.77,-156.37"/>
        </g>
        <!-- mrs.domain.model.reservation.room.ReservableRoomList -->
        <g id="node20" class="node">
            <title>mrs.domain.model.reservation.room.ReservableRoomList</title>
            <polygon fill="#eedd82" stroke="black" points="332,-371 160,-371 160,-333 332,-333 332,-371"/>
            <text text-anchor="middle" x="246" y="-355.8" font-family="Times New Roman,serif" font-size="14.00">
                予約可能会議室一覧
            </text>
            <text text-anchor="middle" x="246" y="-340.8" font-family="Times New Roman,serif" font-size="14.00">
                ReservableRoomList
            </text>
        </g>
        <!-- mrs.domain.model.reservation.room.ReservableRoomList&#45;&gt;mrs.domain.model.reservation.room.ReservableRoom -->
        <g id="edge27" class="edge">
            <title>mrs.domain.model.reservation.room.ReservableRoomList&#45;&gt;mrs.domain.model.reservation.room.ReservableRoom</title>
            <path fill="none" stroke="black" d="M242.21,-332.83C240.61,-325.13 238.7,-315.97 236.92,-307.42"/>
            <polygon fill="black" stroke="black" points="240.3,-306.49 234.84,-297.41 233.45,-307.92 240.3,-306.49"/>
        </g>
        <!-- mrs.domain.model.user.member.Member -->
        <g id="node21" class="node">
            <title>mrs.domain.model.user.member.Member</title>
            <polygon fill="#eedd82" stroke="black"
                     points="1287.5,-541 1224.5,-541 1224.5,-503 1287.5,-503 1287.5,-541"/>
            <text text-anchor="middle" x="1256" y="-525.8" font-family="Times New Roman,serif" font-size="14.00">会員
            </text>
            <text text-anchor="middle" x="1256" y="-510.8" font-family="Times New Roman,serif" font-size="14.00">
                Member
            </text>
        </g>
        <!-- mrs.domain.model.user.member.Member&#45;&gt;mrs.domain.model.auth.user.Password -->
        <g id="edge28" class="edge">
            <title>mrs.domain.model.user.member.Member&#45;&gt;mrs.domain.model.auth.user.Password</title>
            <path fill="none" stroke="black"
                  d="M1284.71,-502.89C1289.69,-498.35 1294.17,-493.03 1297,-487 1311.55,-456.03 1321.03,-434.36 1297,-410 1285.45,-398.29 720.48,-407.56 705,-402 691.15,-397.02 678.09,-387.47 667.64,-378.12"/>
            <polygon fill="black" stroke="black" points="669.86,-375.4 660.18,-371.09 665.05,-380.5 669.86,-375.4"/>
        </g>
        <!-- mrs.domain.model.user.member.Member&#45;&gt;mrs.domain.model.auth.user.RoleName -->
        <g id="edge29" class="edge">
            <title>mrs.domain.model.user.member.Member&#45;&gt;mrs.domain.model.auth.user.RoleName</title>
            <path fill="none" stroke="black"
                  d="M1287.57,-514.86C1303.17,-510.06 1320.61,-501.64 1330,-487 1348.47,-458.19 1354.01,-434.39 1330,-410 1320.18,-400.02 839.17,-406.75 826,-402 812.15,-397 799.1,-387.46 788.64,-378.11"/>
            <polygon fill="black" stroke="black" points="790.87,-375.39 781.19,-371.07 786.06,-380.48 790.87,-375.39"/>
        </g>
        <!-- mrs.domain.model.user.member.Member&#45;&gt;mrs.domain.model.auth.user.User -->
        <g id="edge30" class="edge">
            <title>mrs.domain.model.user.member.Member&#45;&gt;mrs.domain.model.auth.user.User</title>
            <path fill="none" stroke="black"
                  d="M1224.2,-511.53C1205.59,-506.21 1181.59,-499.71 1160,-495 1053.93,-471.86 927.57,-453.03 862.16,-443.93"/>
            <polygon fill="black" stroke="black" points="862.58,-440.45 852.19,-442.55 861.62,-447.39 862.58,-440.45"/>
        </g>
        <!-- mrs.domain.model.user.member.Member&#45;&gt;mrs.domain.model.auth.user.UserId -->
        <g id="edge31" class="edge">
            <title>mrs.domain.model.user.member.Member&#45;&gt;mrs.domain.model.auth.user.UserId</title>
            <path fill="none" stroke="black"
                  d="M1287.51,-518.39C1327.05,-514.39 1391.46,-505.2 1406,-487 1427.36,-460.26 1427.9,-436.3 1406,-410 1375.06,-372.85 1239.15,-359.83 1157.91,-355.33"/>
            <polygon fill="black" stroke="black"
                     points="1157.97,-351.82 1147.8,-354.79 1157.6,-358.82 1157.97,-351.82"/>
        </g>
        <!-- mrs.domain.model.user.member.Member&#45;&gt;mrs.domain.model.auth.user.UserName -->
        <g id="edge32" class="edge">
            <title>mrs.domain.model.user.member.Member&#45;&gt;mrs.domain.model.auth.user.UserName</title>
            <path fill="none" stroke="black"
                  d="M1287.59,-520.99C1313.8,-519.1 1349.66,-511.73 1368,-487 1388.38,-459.51 1391.91,-434.49 1368,-410 1355.11,-396.8 1052.88,-409.44 1036,-402 1024.93,-397.12 1015.19,-388.28 1007.48,-379.44"/>
            <polygon fill="black" stroke="black" points="1010.01,-377.01 1001,-371.44 1004.57,-381.41 1010.01,-377.01"/>
        </g>
        <!-- mrs.domain.model.user.member.Member&#45;&gt;mrs.domain.model.reservation.reservation.Reservation -->
        <g id="edge33" class="edge">
            <title>mrs.domain.model.user.member.Member&#45;&gt;mrs.domain.model.reservation.reservation.Reservation
            </title>
            <path fill="none" stroke="black"
                  d="M1224.32,-509.05C1213.29,-503.66 1201.55,-496.36 1193,-487 1167.88,-459.51 1190.94,-430.71 1160,-410 1146.61,-401.04 595.66,-405.81 580,-402 558.59,-396.79 536.5,-386.27 518.72,-376.3"/>
            <polygon fill="black" stroke="black" points="520.25,-373.15 509.84,-371.17 516.75,-379.21 520.25,-373.15"/>
        </g>
        <!-- mrs.domain.model.user.member.MemberId -->
        <g id="node22" class="node">
            <title>mrs.domain.model.user.member.MemberId</title>
            <polygon fill="#eedd82" stroke="black" points="1288,-456 1202,-456 1202,-418 1288,-418 1288,-456"/>
            <text text-anchor="middle" x="1245" y="-440.8" font-family="Times New Roman,serif" font-size="14.00">会員番号
            </text>
            <text text-anchor="middle" x="1245" y="-425.8" font-family="Times New Roman,serif" font-size="14.00">
                MemberId
            </text>
        </g>
        <!-- mrs.domain.model.user.member.Member&#45;&gt;mrs.domain.model.user.member.MemberId -->
        <g id="edge34" class="edge">
            <title>mrs.domain.model.user.member.Member&#45;&gt;mrs.domain.model.user.member.MemberId</title>
            <path fill="none" stroke="black" d="M1253.61,-502.99C1252.2,-492.3 1250.37,-478.5 1248.76,-466.37"/>
            <polygon fill="black" stroke="black"
                     points="1252.2,-465.71 1247.42,-456.26 1245.26,-466.63 1252.2,-465.71"/>
        </g>
        <!-- mrs.domain.model.user.staff.Staff -->
        <g id="node23" class="node">
            <title>mrs.domain.model.user.staff.Staff</title>
            <polygon fill="#eedd82" stroke="black" points="568,-541 482,-541 482,-503 568,-503 568,-541"/>
            <text text-anchor="middle" x="525" y="-525.8" font-family="Times New Roman,serif" font-size="14.00">スタッフ
            </text>
            <text text-anchor="middle" x="525" y="-510.8" font-family="Times New Roman,serif" font-size="14.00">Staff
            </text>
        </g>
        <!-- mrs.domain.model.user.staff.Staff&#45;&gt;mrs.domain.model.auth.user.Password -->
        <g id="edge35" class="edge">
            <title>mrs.domain.model.user.staff.Staff&#45;&gt;mrs.domain.model.auth.user.Password</title>
            <path fill="none" stroke="black"
                  d="M561.03,-502.88C567.89,-498.34 574.6,-493.02 580,-487 594.93,-470.37 618.99,-414.8 632.97,-380.66"/>
            <polygon fill="black" stroke="black" points="636.28,-381.82 636.8,-371.24 629.79,-379.19 636.28,-381.82"/>
        </g>
        <!-- mrs.domain.model.user.staff.Staff&#45;&gt;mrs.domain.model.auth.user.RoleName -->
        <g id="edge36" class="edge">
            <title>mrs.domain.model.user.staff.Staff&#45;&gt;mrs.domain.model.auth.user.RoleName</title>
            <path fill="none" stroke="black"
                  d="M560.33,-502.93C566.77,-500.03 573.51,-497.25 580,-495 595.08,-489.78 602,-496.26 615,-487 647.84,-463.6 629.73,-432.8 663,-410 678.67,-399.26 687.78,-410.03 705,-402 717.69,-396.08 729.99,-386.86 740.11,-378.02"/>
            <polygon fill="black" stroke="black" points="742.7,-380.39 747.73,-371.07 737.98,-375.22 742.7,-380.39"/>
        </g>
        <!-- mrs.domain.model.user.staff.Staff&#45;&gt;mrs.domain.model.auth.user.User -->
        <g id="edge37" class="edge">
            <title>mrs.domain.model.user.staff.Staff&#45;&gt;mrs.domain.model.auth.user.User</title>
            <path fill="none" stroke="black"
                  d="M557.97,-502.9C565.05,-499.73 572.63,-496.86 580,-495 644.73,-478.65 665.85,-505.49 730,-487 748.96,-481.53 768.31,-471.36 784.01,-461.7"/>
            <polygon fill="black" stroke="black" points="786.25,-464.43 792.81,-456.11 782.49,-458.52 786.25,-464.43"/>
        </g>
        <!-- mrs.domain.model.user.staff.Staff&#45;&gt;mrs.domain.model.auth.user.UserId -->
        <g id="edge38" class="edge">
            <title>mrs.domain.model.user.staff.Staff&#45;&gt;mrs.domain.model.auth.user.UserId</title>
            <path fill="none" stroke="black"
                  d="M558.29,-502.87C565.29,-499.75 572.75,-496.9 580,-495 603.92,-488.72 668.29,-496.79 691,-487 737.51,-466.95 728.09,-429.08 775,-410 828.75,-388.14 981.65,-422.32 1036,-402 1049.45,-396.97 1062.12,-387.61 1072.32,-378.41"/>
            <polygon fill="black" stroke="black"
                     points="1074.77,-380.91 1079.61,-371.48 1069.95,-375.83 1074.77,-380.91"/>
        </g>
        <!-- mrs.domain.model.user.staff.Staff&#45;&gt;mrs.domain.model.auth.user.UserName -->
        <g id="edge39" class="edge">
            <title>mrs.domain.model.user.staff.Staff&#45;&gt;mrs.domain.model.auth.user.UserName</title>
            <path fill="none" stroke="black"
                  d="M558.64,-502.95C565.55,-499.87 572.89,-497.01 580,-495 611.41,-486.13 625.29,-504.24 653,-487 687.44,-465.57 666.77,-430.11 702,-410 725.27,-396.72 918.59,-413.05 943,-402 953.91,-397.06 963.46,-388.21 970.99,-379.38"/>
            <polygon fill="black" stroke="black" points="973.86,-381.4 977.32,-371.39 968.37,-377.05 973.86,-381.4"/>
        </g>
        <!-- mrs.domain.model.user.staff.Staff&#45;&gt;mrs.domain.model.reservation.reservation.Reservation -->
        <g id="edge40" class="edge">
            <title>mrs.domain.model.user.staff.Staff&#45;&gt;mrs.domain.model.reservation.reservation.Reservation
            </title>
            <path fill="none" stroke="black"
                  d="M523.16,-502.64C520.64,-480.39 515.31,-441.91 506,-410 503.1,-400.06 498.97,-389.51 494.96,-380.23"/>
            <polygon fill="black" stroke="black" points="498.15,-378.79 490.88,-371.09 491.76,-381.65 498.15,-378.79"/>
        </g>
    </g>
</svg>
