<?xml version="1.0" encoding="UTF-8" standalone="no"?>
<!DOCTYPE svg PUBLIC "-//W3C//DTD SVG 1.1//EN"
        "http://www.w3.org/Graphics/SVG/1.1/DTD/svg11.dtd">
<!-- Generated by graphviz version 3.0.0 (20220226.1711)
 -->
<!-- Title: 集中ビジネスルールツリー図 Pages: 1 -->
<svg width="1259pt" height="505pt"
     viewBox="0.00 0.00 1259.00 505.00" xmlns="http://www.w3.org/2000/svg">
    <g id="graph0" class="graph" transform="scale(1 1) rotate(0) translate(4 501)">
        <title>集中ビジネスルールツリー図</title>
        <polygon fill="white" stroke="transparent" points="-4,4 -4,-501 1255,-501 1255,4 -4,4"/>
        <text text-anchor="middle" x="625.5" y="-7.8" font-family="Times New Roman,serif" font-size="14.00">
            集中ビジネスルールツリー図
        </text>
        <!-- mrs.domain.model.auth.administrator.Administrator -->
        <g id="node1" class="node">
            <title>mrs.domain.model.auth.administrator.Administrator</title>
            <polygon fill="lemonchiffon" stroke="black" points="99.5,-242 6.5,-242 6.5,-204 99.5,-204 99.5,-242"/>
            <text text-anchor="middle" x="53" y="-226.8" font-family="Times New Roman,serif" font-size="14.00">管理者
            </text>
            <text text-anchor="middle" x="53" y="-211.8" font-family="Times New Roman,serif" font-size="14.00">
                Administrator
            </text>
        </g>
        <!-- mrs.domain.model.auth.user.RoleName -->
        <g id="node3" class="node">
            <title>mrs.domain.model.auth.user.RoleName</title>
            <polygon fill="#eedd82" stroke="black" points="463,-485 289,-485 289,-411 463,-411 463,-485"/>
            <text text-anchor="middle" x="376" y="-457" font-family="Times New Roman,serif" font-size="30.00">利用者区分
            </text>
            <text text-anchor="middle" x="376" y="-424" font-family="Times New Roman,serif" font-size="30.00">RoleName
            </text>
        </g>
        <!-- mrs.domain.model.auth.administrator.Administrator&#45;&gt;mrs.domain.model.auth.user.RoleName -->
        <g id="edge21" class="edge">
            <title>mrs.domain.model.auth.administrator.Administrator&#45;&gt;mrs.domain.model.auth.user.RoleName</title>
            <path fill="none" stroke="black"
                  d="M73.14,-242.25C90.47,-259.27 117.02,-284.37 142,-304 203.74,-352.51 221.64,-361.66 289,-402 291.16,-403.29 293.36,-404.59 295.59,-405.89"/>
            <polygon fill="black" stroke="black" points="293.88,-408.94 304.29,-410.89 297.36,-402.88 293.88,-408.94"/>
        </g>
        <!-- mrs.domain.model.auth.user.User -->
        <g id="node4" class="node">
            <title>mrs.domain.model.auth.user.User</title>
            <polygon fill="#eedd82" stroke="black" points="253,-260 142,-260 142,-186 253,-186 253,-260"/>
            <text text-anchor="middle" x="197.5" y="-232" font-family="Times New Roman,serif" font-size="30.00">利用者
            </text>
            <text text-anchor="middle" x="197.5" y="-199" font-family="Times New Roman,serif" font-size="30.00">User
            </text>
        </g>
        <!-- mrs.domain.model.auth.administrator.Administrator&#45;&gt;mrs.domain.model.auth.user.User -->
        <g id="edge8" class="edge">
            <title>mrs.domain.model.auth.administrator.Administrator&#45;&gt;mrs.domain.model.auth.user.User</title>
            <path fill="none" stroke="black" d="M99.87,-223C109.98,-223 120.88,-223 131.58,-223"/>
            <polygon fill="black" stroke="black" points="131.76,-226.5 141.76,-223 131.76,-219.5 131.76,-226.5"/>
        </g>
        <!-- mrs.domain.model.auth.user.UserId -->
        <g id="node6" class="node">
            <title>mrs.domain.model.auth.user.UserId</title>
            <polygon fill="#eedd82" stroke="black" points="463,-393 289,-393 289,-319 463,-319 463,-393"/>
            <text text-anchor="middle" x="376" y="-365" font-family="Times New Roman,serif" font-size="30.00">利用者番号
            </text>
            <text text-anchor="middle" x="376" y="-332" font-family="Times New Roman,serif" font-size="30.00">UserId
            </text>
        </g>
        <!-- mrs.domain.model.auth.administrator.Administrator&#45;&gt;mrs.domain.model.auth.user.UserId -->
        <g id="edge17" class="edge">
            <title>mrs.domain.model.auth.administrator.Administrator&#45;&gt;mrs.domain.model.auth.user.UserId</title>
            <path fill="none" stroke="black"
                  d="M88.2,-242.14C104.3,-250.82 123.89,-260.92 142,-269 186.36,-288.78 236.73,-307.98 279.25,-323.29"/>
            <polygon fill="black" stroke="black" points="278.17,-326.61 288.76,-326.69 280.53,-320.02 278.17,-326.61"/>
        </g>
        <!-- mrs.domain.model.auth.user.UserName -->
        <g id="node7" class="node">
            <title>mrs.domain.model.auth.user.UserName</title>
            <polygon fill="#eedd82" stroke="black" points="448,-301 304,-301 304,-227 448,-227 448,-301"/>
            <text text-anchor="middle" x="376" y="-273" font-family="Times New Roman,serif" font-size="30.00">氏名</text>
            <text text-anchor="middle" x="376" y="-240" font-family="Times New Roman,serif" font-size="30.00">UserName
            </text>
        </g>
        <!-- mrs.domain.model.auth.administrator.Administrator&#45;&gt;mrs.domain.model.auth.user.UserName -->
        <g id="edge25" class="edge">
            <title>mrs.domain.model.auth.administrator.Administrator&#45;&gt;mrs.domain.model.auth.user.UserName</title>
            <path fill="none" stroke="black"
                  d="M81.93,-203.95C98.57,-193.76 120.57,-182.26 142,-177 189.91,-165.23 208.06,-156.65 253,-177 275.09,-187 270,-202.93 289,-218 291.03,-219.61 293.13,-221.19 295.27,-222.75"/>
            <polygon fill="black" stroke="black" points="293.54,-225.8 303.76,-228.58 297.5,-220.03 293.54,-225.8"/>
        </g>
        <!-- mrs.domain.model.reservation.reservation.Reservation -->
        <g id="node8" class="node">
            <title>mrs.domain.model.reservation.reservation.Reservation</title>
            <polygon fill="#eedd82" stroke="black" points="455,-97 297,-97 297,-23 455,-23 455,-97"/>
            <text text-anchor="middle" x="376" y="-69" font-family="Times New Roman,serif" font-size="30.00">予約</text>
            <text text-anchor="middle" x="376" y="-36" font-family="Times New Roman,serif" font-size="30.00">
                Reservation
            </text>
        </g>
        <!-- mrs.domain.model.auth.administrator.Administrator&#45;&gt;mrs.domain.model.reservation.reservation.Reservation -->
        <g id="edge1" class="edge">
            <title>mrs.domain.model.auth.administrator.Administrator&#45;&gt;mrs.domain.model.reservation.reservation.Reservation</title>
            <path fill="none" stroke="black"
                  d="M56.83,-203.83C63.62,-165.62 84.75,-80.56 142,-45 184.59,-18.55 240.4,-21.16 286.73,-30.92"/>
            <polygon fill="black" stroke="black" points="286.24,-34.4 296.77,-33.17 287.78,-27.57 286.24,-34.4"/>
        </g>
        <!-- mrs.domain.model.auth.member.Member -->
        <g id="node2" class="node">
            <title>mrs.domain.model.auth.member.Member</title>
            <polygon fill="lemonchiffon" stroke="black" points="84.5,-345 21.5,-345 21.5,-307 84.5,-307 84.5,-345"/>
            <text text-anchor="middle" x="53" y="-329.8" font-family="Times New Roman,serif" font-size="14.00">会員</text>
            <text text-anchor="middle" x="53" y="-314.8" font-family="Times New Roman,serif" font-size="14.00">Member
            </text>
        </g>
        <!-- mrs.domain.model.auth.member.Member&#45;&gt;mrs.domain.model.auth.user.RoleName -->
        <g id="edge22" class="edge">
            <title>mrs.domain.model.auth.member.Member&#45;&gt;mrs.domain.model.auth.user.RoleName</title>
            <path fill="none" stroke="black"
                  d="M66.69,-345.12C81.89,-366.29 109.41,-399.58 142,-416 183.87,-437.09 235.04,-445.7 278.76,-448.78"/>
            <polygon fill="black" stroke="black" points="278.63,-452.28 288.83,-449.4 279.07,-445.29 278.63,-452.28"/>
        </g>
        <!-- mrs.domain.model.auth.member.Member&#45;&gt;mrs.domain.model.auth.user.User -->
        <g id="edge9" class="edge">
            <title>mrs.domain.model.auth.member.Member&#45;&gt;mrs.domain.model.auth.user.User</title>
            <path fill="none" stroke="black" d="M80.47,-306.87C96.32,-295.41 117.13,-280.37 136.75,-266.19"/>
            <polygon fill="black" stroke="black" points="139.01,-268.87 145.07,-260.17 134.91,-263.2 139.01,-268.87"/>
        </g>
        <!-- mrs.domain.model.auth.member.Member&#45;&gt;mrs.domain.model.auth.user.UserId -->
        <g id="edge18" class="edge">
            <title>mrs.domain.model.auth.member.Member&#45;&gt;mrs.domain.model.auth.user.UserId</title>
            <path fill="none" stroke="black"
                  d="M84.86,-331.6C101.7,-334.48 122.94,-337.83 142,-340 186.76,-345.09 236.54,-348.77 278.57,-351.31"/>
            <polygon fill="black" stroke="black" points="278.61,-354.82 288.8,-351.92 279.02,-347.83 278.61,-354.82"/>
        </g>
        <!-- mrs.domain.model.auth.member.Member&#45;&gt;mrs.domain.model.auth.user.UserName -->
        <g id="edge26" class="edge">
            <title>mrs.domain.model.auth.member.Member&#45;&gt;mrs.domain.model.auth.user.UserName</title>
            <path fill="none" stroke="black" d="M84.78,-320.06C132.49,-310.84 225.88,-292.8 293.87,-279.67"/>
            <polygon fill="black" stroke="black" points="294.56,-283.1 303.71,-277.77 293.23,-276.23 294.56,-283.1"/>
        </g>
        <!-- mrs.domain.model.auth.member.Member&#45;&gt;mrs.domain.model.reservation.reservation.Reservation -->
        <g id="edge2" class="edge">
            <title>mrs.domain.model.auth.member.Member&#45;&gt;mrs.domain.model.reservation.reservation.Reservation
            </title>
            <path fill="none" stroke="black"
                  d="M68.53,-306.8C79.46,-291.96 94.48,-270.69 106,-251 124.47,-219.43 116.3,-203.02 142,-177 182.25,-136.24 239.65,-107.18 287.41,-88.22"/>
            <polygon fill="black" stroke="black" points="288.77,-91.45 296.82,-84.56 286.24,-84.92 288.77,-91.45"/>
        </g>
        <!-- mrs.domain.model.auth.user.User&#45;&gt;mrs.domain.model.auth.user.RoleName -->
        <g id="edge23" class="edge">
            <title>mrs.domain.model.auth.user.User&#45;&gt;mrs.domain.model.auth.user.RoleName</title>
            <path fill="none" stroke="black"
                  d="M209.82,-260.27C223.33,-299.56 249.21,-361.28 289,-402 289.77,-402.79 290.55,-403.56 291.36,-404.33"/>
            <polygon fill="black" stroke="black" points="289.1,-407.01 298.93,-410.95 293.71,-401.74 289.1,-407.01"/>
        </g>
        <!-- mrs.domain.model.auth.user.User&#45;&gt;mrs.domain.model.auth.user.UserId -->
        <g id="edge19" class="edge">
            <title>mrs.domain.model.auth.user.User&#45;&gt;mrs.domain.model.auth.user.UserId</title>
            <path fill="none" stroke="black"
                  d="M238.53,-260.17C243.43,-264.8 248.34,-269.5 253,-274 269.26,-289.73 270.83,-296.52 289,-310 290.4,-311.04 291.83,-312.07 293.28,-313.09"/>
            <polygon fill="black" stroke="black" points="291.55,-316.15 301.8,-318.82 295.46,-310.34 291.55,-316.15"/>
        </g>
        <!-- mrs.domain.model.auth.user.User&#45;&gt;mrs.domain.model.auth.user.UserName -->
        <g id="edge27" class="edge">
            <title>mrs.domain.model.auth.user.User&#45;&gt;mrs.domain.model.auth.user.UserName</title>
            <path fill="none" stroke="black" d="M253.38,-235.75C266.24,-238.74 280.22,-241.98 293.96,-245.18"/>
            <polygon fill="black" stroke="black" points="293.37,-248.63 303.91,-247.49 294.96,-241.81 293.37,-248.63"/>
        </g>
        <!-- mrs.domain.model.auth.user.User&#45;&gt;mrs.domain.model.reservation.reservation.Reservation -->
        <g id="edge3" class="edge">
            <title>mrs.domain.model.auth.user.User&#45;&gt;mrs.domain.model.reservation.reservation.Reservation</title>
            <path fill="none" stroke="black"
                  d="M232.21,-185.88C239.53,-178.65 246.89,-170.89 253,-163 273.46,-136.58 265.28,-120.53 289,-97 289.15,-96.85 289.3,-96.7 289.45,-96.55"/>
            <polygon fill="black" stroke="black" points="291.51,-99.41 296.62,-90.13 286.84,-94.2 291.51,-99.41"/>
        </g>
        <!-- mrs.domain.model.auth.user.UserDetailsImpl -->
        <g id="node5" class="node">
            <title>mrs.domain.model.auth.user.UserDetailsImpl</title>
            <polygon fill="lemonchiffon" stroke="black" points="106,-497 0,-497 0,-459 106,-459 106,-497"/>
            <text text-anchor="middle" x="53" y="-481.8" font-family="Times New Roman,serif" font-size="14.00">利用者
            </text>
            <text text-anchor="middle" x="53" y="-466.8" font-family="Times New Roman,serif" font-size="14.00">
                UserDetailsImpl
            </text>
        </g>
        <!-- mrs.domain.model.auth.user.UserDetailsImpl&#45;&gt;mrs.domain.model.auth.user.RoleName -->
        <g id="edge24" class="edge">
            <title>mrs.domain.model.auth.user.UserDetailsImpl&#45;&gt;mrs.domain.model.auth.user.RoleName</title>
            <path fill="none" stroke="black"
                  d="M106.42,-487.73C118.09,-489.51 130.43,-491.09 142,-492 191.18,-495.89 204.4,-500.5 253,-492 261.54,-490.51 270.27,-488.47 278.94,-486.08"/>
            <polygon fill="black" stroke="black" points="280.07,-489.4 288.7,-483.25 278.12,-482.68 280.07,-489.4"/>
        </g>
        <!-- mrs.domain.model.auth.user.UserDetailsImpl&#45;&gt;mrs.domain.model.auth.user.User -->
        <g id="edge10" class="edge">
            <title>mrs.domain.model.auth.user.UserDetailsImpl&#45;&gt;mrs.domain.model.auth.user.User</title>
            <path fill="none" stroke="black" d="M64.71,-458.83C87.07,-418.81 139.27,-325.41 170.85,-268.9"/>
            <polygon fill="black" stroke="black" points="173.91,-270.59 175.74,-260.16 167.8,-267.18 173.91,-270.59"/>
        </g>
        <!-- mrs.domain.model.auth.user.UserDetailsImpl&#45;&gt;mrs.domain.model.auth.user.UserId -->
        <g id="edge20" class="edge">
            <title>mrs.domain.model.auth.user.UserDetailsImpl&#45;&gt;mrs.domain.model.auth.user.UserId</title>
            <path fill="none" stroke="black" d="M104.16,-458.94C150.93,-441.16 221.92,-414.18 279.49,-392.3"/>
            <polygon fill="black" stroke="black" points="280.87,-395.52 288.98,-388.69 278.39,-388.97 280.87,-395.52"/>
        </g>
        <!-- mrs.domain.model.reservation.reservation.Reservation&#45;&gt;mrs.domain.model.auth.user.User -->
        <g id="edge11" class="edge">
            <title>mrs.domain.model.reservation.reservation.Reservation&#45;&gt;mrs.domain.model.auth.user.User</title>
            <path fill="none" stroke="black"
                  d="M311.87,-97.04C303.63,-102.37 295.73,-108.32 289,-115 267.5,-136.32 272.2,-151.51 255.1,-177.47"/>
            <polygon fill="black" stroke="black" points="252.04,-175.73 249.04,-185.89 257.72,-179.82 252.04,-175.73"/>
        </g>
        <!-- mrs.domain.model.reservation.room.ReservableRoom -->
        <g id="node11" class="node">
            <title>mrs.domain.model.reservation.room.ReservableRoom</title>
            <polygon fill="#eedd82" stroke="black" points="736,-162 499,-162 499,-88 736,-88 736,-162"/>
            <text text-anchor="middle" x="617.5" y="-134" font-family="Times New Roman,serif" font-size="30.00">
                予約可能会議室
            </text>
            <text text-anchor="middle" x="617.5" y="-101" font-family="Times New Roman,serif" font-size="30.00">
                ReservableRoom
            </text>
        </g>
        <!-- mrs.domain.model.reservation.reservation.Reservation&#45;&gt;mrs.domain.model.reservation.room.ReservableRoom -->
        <g id="edge14" class="edge">
            <title>mrs.domain.model.reservation.reservation.Reservation&#45;&gt;mrs.domain.model.reservation.room.ReservableRoom</title>
            <path fill="none" stroke="black" d="M455.09,-74.82C467.83,-78.04 481.29,-81.57 494.79,-85.22"/>
            <polygon fill="black" stroke="black" points="494.04,-88.64 504.61,-87.9 495.88,-81.89 494.04,-88.64"/>
        </g>
        <!-- mrs.domain.model.reservation.room.ReservableRoomId -->
        <g id="node12" class="node">
            <title>mrs.domain.model.reservation.room.ReservableRoomId</title>
            <polygon fill="#eedd82" stroke="black" points="1041,-162 772,-162 772,-88 1041,-88 1041,-162"/>
            <text text-anchor="middle" x="906.5" y="-134" font-family="Times New Roman,serif" font-size="30.00">
                予約可能会議室ID
            </text>
            <text text-anchor="middle" x="906.5" y="-101" font-family="Times New Roman,serif" font-size="30.00">
                ReservableRoomId
            </text>
        </g>
        <!-- mrs.domain.model.reservation.reservation.Reservation&#45;&gt;mrs.domain.model.reservation.room.ReservableRoomId -->
        <g id="edge12" class="edge">
            <title>mrs.domain.model.reservation.reservation.Reservation&#45;&gt;mrs.domain.model.reservation.room.ReservableRoomId</title>
            <path fill="none" stroke="black"
                  d="M455.24,-59.38C528.3,-59.93 640.17,-63.64 736,-79 747.41,-80.83 759.15,-83.12 770.88,-85.71"/>
            <polygon fill="black" stroke="black" points="770.2,-89.14 780.73,-87.94 771.75,-82.31 770.2,-89.14"/>
        </g>
        <!-- mrs.domain.model.reservation.reservation.ReservationList -->
        <g id="node9" class="node">
            <title>mrs.domain.model.reservation.reservation.ReservationList</title>
            <polygon fill="lemonchiffon" stroke="black" points="249.5,-92 145.5,-92 145.5,-54 249.5,-54 249.5,-92"/>
            <text text-anchor="middle" x="197.5" y="-76.8" font-family="Times New Roman,serif" font-size="14.00">予約一覧
            </text>
            <text text-anchor="middle" x="197.5" y="-61.8" font-family="Times New Roman,serif" font-size="14.00">
                ReservationList
            </text>
        </g>
        <!-- mrs.domain.model.reservation.reservation.ReservationList&#45;&gt;mrs.domain.model.reservation.reservation.Reservation -->
        <g id="edge4" class="edge">
            <title>mrs.domain.model.reservation.reservation.ReservationList&#45;&gt;mrs.domain.model.reservation.reservation.Reservation</title>
            <path fill="none" stroke="black" d="M249.55,-69.24C261.2,-68.38 273.91,-67.45 286.62,-66.51"/>
            <polygon fill="black" stroke="black" points="287.08,-69.99 296.79,-65.76 286.56,-63 287.08,-69.99"/>
        </g>
        <!-- mrs.domain.model.reservation.room.MeetingRoom -->
        <g id="node10" class="node">
            <title>mrs.domain.model.reservation.room.MeetingRoom</title>
            <polygon fill="lemonchiffon" stroke="black" points="424,-209 328,-209 328,-171 424,-171 424,-209"/>
            <text text-anchor="middle" x="376" y="-193.8" font-family="Times New Roman,serif" font-size="14.00">会議室
            </text>
            <text text-anchor="middle" x="376" y="-178.8" font-family="Times New Roman,serif" font-size="14.00">
                MeetingRoom
            </text>
        </g>
        <!-- mrs.domain.model.reservation.room.MeetingRoom&#45;&gt;mrs.domain.model.reservation.room.ReservableRoom -->
        <g id="edge15" class="edge">
            <title>mrs.domain.model.reservation.room.MeetingRoom&#45;&gt;mrs.domain.model.reservation.room.ReservableRoom</title>
            <path fill="none" stroke="black" d="M424.03,-177.24C442.92,-172.11 465.7,-165.93 488.88,-159.64"/>
            <polygon fill="black" stroke="black" points="490.09,-162.93 498.83,-156.94 488.26,-156.18 490.09,-162.93"/>
        </g>
        <!-- mrs.domain.model.reservation.room.RoomId -->
        <g id="node14" class="node">
            <title>mrs.domain.model.reservation.room.RoomId</title>
            <polygon fill="#eedd82" stroke="black" points="1251,-194 1077,-194 1077,-120 1251,-120 1251,-194"/>
            <text text-anchor="middle" x="1164" y="-166" font-family="Times New Roman,serif" font-size="30.00">会議室番号
            </text>
            <text text-anchor="middle" x="1164" y="-133" font-family="Times New Roman,serif" font-size="30.00">RoomId
            </text>
        </g>
        <!-- mrs.domain.model.reservation.room.MeetingRoom&#45;&gt;mrs.domain.model.reservation.room.RoomId -->
        <g id="edge6" class="edge">
            <title>mrs.domain.model.reservation.room.MeetingRoom&#45;&gt;mrs.domain.model.reservation.room.RoomId
            </title>
            <path fill="none" stroke="black"
                  d="M424.17,-190.04C533,-189.82 810.08,-187.52 1041,-171 1049.33,-170.4 1057.97,-169.66 1066.62,-168.83"/>
            <polygon fill="black" stroke="black"
                     points="1067.17,-172.3 1076.77,-167.83 1066.48,-165.33 1067.17,-172.3"/>
        </g>
        <!-- mrs.domain.model.reservation.room.ReservableRoom&#45;&gt;mrs.domain.model.reservation.reservation.Reservation -->
        <g id="edge5" class="edge">
            <title>mrs.domain.model.reservation.room.ReservableRoom&#45;&gt;mrs.domain.model.reservation.reservation.Reservation</title>
            <path fill="none" stroke="black" d="M498.97,-99.85C487.46,-96.74 475.92,-93.53 464.77,-90.35"/>
            <polygon fill="black" stroke="black" points="465.67,-86.97 455.09,-87.57 463.73,-93.7 465.67,-86.97"/>
        </g>
        <!-- mrs.domain.model.reservation.room.ReservableRoom&#45;&gt;mrs.domain.model.reservation.room.ReservableRoomId -->
        <g id="edge13" class="edge">
            <title>mrs.domain.model.reservation.room.ReservableRoom&#45;&gt;mrs.domain.model.reservation.room.ReservableRoomId</title>
            <path fill="none" stroke="black" d="M736.06,-125C744.52,-125 753.1,-125 761.68,-125"/>
            <polygon fill="black" stroke="black" points="761.75,-128.5 771.75,-125 761.75,-121.5 761.75,-128.5"/>
        </g>
        <!-- mrs.domain.model.reservation.room.ReservableRoomId&#45;&gt;mrs.domain.model.reservation.room.RoomId -->
        <g id="edge7" class="edge">
            <title>mrs.domain.model.reservation.room.ReservableRoomId&#45;&gt;mrs.domain.model.reservation.room.RoomId
            </title>
            <path fill="none" stroke="black" d="M1041.24,-141.75C1049.82,-142.82 1058.37,-143.9 1066.72,-144.94"/>
            <polygon fill="black" stroke="black"
                     points="1066.45,-148.44 1076.81,-146.21 1067.32,-141.49 1066.45,-148.44"/>
        </g>
        <!-- mrs.domain.model.reservation.room.ReservableRoomList -->
        <g id="node13" class="node">
            <title>mrs.domain.model.reservation.room.ReservableRoomList</title>
            <polygon fill="lemonchiffon" stroke="black" points="462,-153 290,-153 290,-115 462,-115 462,-153"/>
            <text text-anchor="middle" x="376" y="-137.8" font-family="Times New Roman,serif" font-size="14.00">
                予約可能会議室一覧
            </text>
            <text text-anchor="middle" x="376" y="-122.8" font-family="Times New Roman,serif" font-size="14.00">
                ReservableRoomList
            </text>
        </g>
        <!-- mrs.domain.model.reservation.room.ReservableRoomList&#45;&gt;mrs.domain.model.reservation.room.ReservableRoom -->
        <g id="edge16" class="edge">
            <title>mrs.domain.model.reservation.room.ReservableRoomList&#45;&gt;mrs.domain.model.reservation.room.ReservableRoom</title>
            <path fill="none" stroke="black" d="M462.11,-130.8C470.81,-130.47 479.77,-130.14 488.79,-129.8"/>
            <polygon fill="black" stroke="black" points="489.13,-133.29 498.99,-129.42 488.86,-126.29 489.13,-133.29"/>
        </g>
    </g>
</svg>
