<?xml version="1.0" encoding="UTF-8" standalone="no"?>
<!DOCTYPE svg PUBLIC "-//W3C//DTD SVG 1.1//EN"
        "http://www.w3.org/Graphics/SVG/1.1/DTD/svg11.dtd">
<!-- Generated by graphviz version 3.0.0 (20220226.1711)
 -->
<!-- Title: 集中ビジネスルールツリー図 Pages: 1 -->
<svg width="744pt" height="647pt"
     viewBox="0.00 0.00 744.00 647.25" xmlns="http://www.w3.org/2000/svg">
    <g id="graph0" class="graph" transform="scale(1 1) rotate(0) translate(4 643.25)">
        <title>集中ビジネスルールツリー図</title>
        <polygon fill="white" stroke="transparent" points="-4,4 -4,-643.25 740,-643.25 740,4 -4,4"/>
        <text text-anchor="middle" x="368" y="-7.8" font-family="Times New Roman,serif" font-size="14.00">
            集中ビジネスルールツリー図
        </text>
        <!-- mrs.domain.model.auth.user.Password -->
        <g id="node1" class="node">
            <title>mrs.domain.model.auth.user.Password</title>
            <polygon fill="#eedd82" stroke="black" points="463,-593 289,-593 289,-519 463,-519 463,-593"/>
            <text text-anchor="middle" x="376" y="-565" font-family="Times New Roman,serif" font-size="30.00">パスワード
            </text>
            <text text-anchor="middle" x="376" y="-532" font-family="Times New Roman,serif" font-size="30.00">Password
            </text>
        </g>
        <!-- mrs.domain.model.auth.user.RoleName -->
        <g id="node2" class="node">
            <title>mrs.domain.model.auth.user.RoleName</title>
            <polygon fill="#eedd82" stroke="black" points="463,-489 289,-489 289,-415 463,-415 463,-489"/>
            <text text-anchor="middle" x="376" y="-461" font-family="Times New Roman,serif" font-size="30.00">利用者区分
            </text>
            <text text-anchor="middle" x="376" y="-428" font-family="Times New Roman,serif" font-size="30.00">RoleName
            </text>
        </g>
        <!-- mrs.domain.model.auth.user.User -->
        <g id="node3" class="node">
            <title>mrs.domain.model.auth.user.User</title>
            <polygon fill="#eedd82" stroke="black" points="253,-358 142,-358 142,-284 253,-284 253,-358"/>
            <text text-anchor="middle" x="197.5" y="-330" font-family="Times New Roman,serif" font-size="30.00">利用者
            </text>
            <text text-anchor="middle" x="197.5" y="-297" font-family="Times New Roman,serif" font-size="30.00">User
            </text>
        </g>
        <!-- mrs.domain.model.auth.user.User&#45;&gt;mrs.domain.model.auth.user.Password -->
        <g id="edge1" class="edge">
            <title>mrs.domain.model.auth.user.User&#45;&gt;mrs.domain.model.auth.user.Password</title>
            <path fill="none" stroke="black"
                  d="M211.15,-358.14C225.53,-396.39 251.92,-456.15 289,-498 293.49,-503.07 298.52,-507.91 303.84,-512.46"/>
            <polygon fill="black" stroke="black" points="301.83,-515.34 311.79,-518.93 306.24,-509.91 301.83,-515.34"/>
        </g>
        <!-- mrs.domain.model.auth.user.User&#45;&gt;mrs.domain.model.auth.user.RoleName -->
        <g id="edge21" class="edge">
            <title>mrs.domain.model.auth.user.User&#45;&gt;mrs.domain.model.auth.user.RoleName</title>
            <path fill="none" stroke="black"
                  d="M234.56,-358.35C250.47,-373.77 269.87,-391.22 289,-405 291.05,-406.48 293.16,-407.95 295.3,-409.39"/>
            <polygon fill="black" stroke="black" points="293.45,-412.36 303.74,-414.89 297.27,-406.5 293.45,-412.36"/>
        </g>
        <!-- mrs.domain.model.auth.user.UserId -->
        <g id="node5" class="node">
            <title>mrs.domain.model.auth.user.UserId</title>
            <polygon fill="#eedd82" stroke="black" points="463,-396 289,-396 289,-322 463,-322 463,-396"/>
            <text text-anchor="middle" x="376" y="-368" font-family="Times New Roman,serif" font-size="30.00">利用者番号
            </text>
            <text text-anchor="middle" x="376" y="-335" font-family="Times New Roman,serif" font-size="30.00">UserId
            </text>
        </g>
        <!-- mrs.domain.model.auth.user.User&#45;&gt;mrs.domain.model.auth.user.UserId -->
        <g id="edge5" class="edge">
            <title>mrs.domain.model.auth.user.User&#45;&gt;mrs.domain.model.auth.user.UserId</title>
            <path fill="none" stroke="black" d="M253.38,-332.82C261.54,-334.57 270.15,-336.43 278.86,-338.3"/>
            <polygon fill="black" stroke="black" points="278.21,-341.74 288.72,-340.42 279.68,-334.9 278.21,-341.74"/>
        </g>
        <!-- mrs.domain.model.auth.user.UserName -->
        <g id="node6" class="node">
            <title>mrs.domain.model.auth.user.UserName</title>
            <polygon fill="#eedd82" stroke="black" points="448,-301 304,-301 304,-227 448,-227 448,-301"/>
            <text text-anchor="middle" x="376" y="-273" font-family="Times New Roman,serif" font-size="30.00">氏名</text>
            <text text-anchor="middle" x="376" y="-240" font-family="Times New Roman,serif" font-size="30.00">UserName
            </text>
        </g>
        <!-- mrs.domain.model.auth.user.User&#45;&gt;mrs.domain.model.auth.user.UserName -->
        <g id="edge25" class="edge">
            <title>mrs.domain.model.auth.user.User&#45;&gt;mrs.domain.model.auth.user.UserName</title>
            <path fill="none" stroke="black" d="M253.38,-303.28C266.37,-299.08 280.49,-294.52 294.36,-290.04"/>
            <polygon fill="black" stroke="black" points="295.47,-293.36 303.91,-286.96 293.31,-286.7 295.47,-293.36"/>
        </g>
        <!-- mrs.domain.model.reservation.reservation.Reservation -->
        <g id="node11" class="node">
            <title>mrs.domain.model.reservation.reservation.Reservation</title>
            <polygon fill="#eedd82" stroke="black" points="455,-209 297,-209 297,-135 455,-135 455,-209"/>
            <text text-anchor="middle" x="376" y="-181" font-family="Times New Roman,serif" font-size="30.00">予約</text>
            <text text-anchor="middle" x="376" y="-148" font-family="Times New Roman,serif" font-size="30.00">
                Reservation
            </text>
        </g>
        <!-- mrs.domain.model.auth.user.User&#45;&gt;mrs.domain.model.reservation.reservation.Reservation -->
        <g id="edge13" class="edge">
            <title>mrs.domain.model.auth.user.User&#45;&gt;mrs.domain.model.reservation.reservation.Reservation</title>
            <path fill="none" stroke="black" d="M219.89,-283.94C235.54,-262.08 258.24,-234.94 288.87,-209.55"/>
            <polygon fill="black" stroke="black" points="291.24,-212.14 296.83,-203.14 286.85,-206.69 291.24,-212.14"/>
        </g>
        <!-- mrs.domain.model.auth.user.UserDetailsImpl -->
        <g id="node4" class="node">
            <title>mrs.domain.model.auth.user.UserDetailsImpl</title>
            <polygon fill="lemonchiffon" stroke="black" points="106,-576 0,-576 0,-538 106,-538 106,-576"/>
            <text text-anchor="middle" x="53" y="-560.8" font-family="Times New Roman,serif" font-size="14.00">利用者
            </text>
            <text text-anchor="middle" x="53" y="-545.8" font-family="Times New Roman,serif" font-size="14.00">
                UserDetailsImpl
            </text>
        </g>
        <!-- mrs.domain.model.auth.user.UserDetailsImpl&#45;&gt;mrs.domain.model.auth.user.Password -->
        <g id="edge2" class="edge">
            <title>mrs.domain.model.auth.user.UserDetailsImpl&#45;&gt;mrs.domain.model.auth.user.Password</title>
            <path fill="none" stroke="black"
                  d="M70.26,-576.04C86.43,-593.36 112.94,-617.74 142,-628 188.52,-644.43 205.41,-641 253,-628 275.32,-621.9 297.72,-610.56 317.11,-598.66"/>
            <polygon fill="black" stroke="black" points="319.22,-601.46 325.81,-593.16 315.48,-595.55 319.22,-601.46"/>
        </g>
        <!-- mrs.domain.model.auth.user.UserDetailsImpl&#45;&gt;mrs.domain.model.auth.user.RoleName -->
        <g id="edge22" class="edge">
            <title>mrs.domain.model.auth.user.UserDetailsImpl&#45;&gt;mrs.domain.model.auth.user.RoleName</title>
            <path fill="none" stroke="black"
                  d="M106.14,-549.51C146.88,-542.76 204.54,-531.22 253,-514 268.81,-508.38 285.19,-501.14 300.61,-493.6"/>
            <polygon fill="black" stroke="black" points="302.18,-496.73 309.57,-489.14 299.06,-490.47 302.18,-496.73"/>
        </g>
        <!-- mrs.domain.model.auth.user.UserDetailsImpl&#45;&gt;mrs.domain.model.auth.user.User -->
        <g id="edge9" class="edge">
            <title>mrs.domain.model.auth.user.UserDetailsImpl&#45;&gt;mrs.domain.model.auth.user.User</title>
            <path fill="none" stroke="black" d="M65.66,-537.69C88.03,-500.64 137.52,-418.68 168.81,-366.85"/>
            <polygon fill="black" stroke="black" points="171.88,-368.54 174.05,-358.18 165.89,-364.93 171.88,-368.54"/>
        </g>
        <!-- mrs.domain.model.auth.user.UserDetailsImpl&#45;&gt;mrs.domain.model.auth.user.UserId -->
        <g id="edge6" class="edge">
            <title>mrs.domain.model.auth.user.UserDetailsImpl&#45;&gt;mrs.domain.model.auth.user.UserId</title>
            <path fill="none" stroke="black"
                  d="M82.17,-537.98C125.87,-508.68 212.89,-451.17 289,-406 291.78,-404.35 294.62,-402.69 297.5,-401.02"/>
            <polygon fill="black" stroke="black" points="299.28,-404.03 306.22,-396.02 295.8,-397.96 299.28,-404.03"/>
        </g>
        <!-- mrs.domain.model.auth.user.administrator.Administrator -->
        <g id="node7" class="node">
            <title>mrs.domain.model.auth.user.administrator.Administrator</title>
            <polygon fill="lemonchiffon" stroke="black" points="99.5,-401 6.5,-401 6.5,-363 99.5,-363 99.5,-401"/>
            <text text-anchor="middle" x="53" y="-385.8" font-family="Times New Roman,serif" font-size="14.00">管理者
            </text>
            <text text-anchor="middle" x="53" y="-370.8" font-family="Times New Roman,serif" font-size="14.00">
                Administrator
            </text>
        </g>
        <!-- mrs.domain.model.auth.user.administrator.Administrator&#45;&gt;mrs.domain.model.auth.user.Password -->
        <g id="edge3" class="edge">
            <title>mrs.domain.model.auth.user.administrator.Administrator&#45;&gt;mrs.domain.model.auth.user.Password
            </title>
            <path fill="none" stroke="black"
                  d="M57.34,-401.1C64.92,-437.91 87.21,-518.02 142,-552 182.11,-576.88 234.06,-579.91 278.73,-575.84"/>
            <polygon fill="black" stroke="black" points="279.14,-579.32 288.73,-574.8 278.42,-572.36 279.14,-579.32"/>
        </g>
        <!-- mrs.domain.model.auth.user.administrator.Administrator&#45;&gt;mrs.domain.model.auth.user.RoleName -->
        <g id="edge23" class="edge">
            <title>mrs.domain.model.auth.user.administrator.Administrator&#45;&gt;mrs.domain.model.auth.user.RoleName
            </title>
            <path fill="none" stroke="black"
                  d="M76.97,-401.26C93.82,-414.17 117.88,-430.18 142,-438 185.54,-452.11 236.02,-456.49 278.83,-456.99"/>
            <polygon fill="black" stroke="black" points="278.96,-460.49 288.97,-457.04 278.99,-453.49 278.96,-460.49"/>
        </g>
        <!-- mrs.domain.model.auth.user.administrator.Administrator&#45;&gt;mrs.domain.model.auth.user.User -->
        <g id="edge10" class="edge">
            <title>mrs.domain.model.auth.user.administrator.Administrator&#45;&gt;mrs.domain.model.auth.user.User
            </title>
            <path fill="none" stroke="black" d="M98.7,-362.87C109.41,-358.28 121.06,-353.29 132.46,-348.42"/>
            <polygon fill="black" stroke="black" points="134.13,-351.51 141.95,-344.35 131.38,-345.07 134.13,-351.51"/>
        </g>
        <!-- mrs.domain.model.auth.user.administrator.Administrator&#45;&gt;mrs.domain.model.auth.user.UserId -->
        <g id="edge7" class="edge">
            <title>mrs.domain.model.auth.user.administrator.Administrator&#45;&gt;mrs.domain.model.auth.user.UserId
            </title>
            <path fill="none" stroke="black" d="M99.65,-378.73C146.04,-375.41 219.3,-370.16 278.6,-365.91"/>
            <polygon fill="black" stroke="black" points="279.02,-369.39 288.74,-365.18 278.52,-362.4 279.02,-369.39"/>
        </g>
        <!-- mrs.domain.model.auth.user.administrator.Administrator&#45;&gt;mrs.domain.model.auth.user.UserName -->
        <g id="edge26" class="edge">
            <title>mrs.domain.model.auth.user.administrator.Administrator&#45;&gt;mrs.domain.model.auth.user.UserName
            </title>
            <path fill="none" stroke="black"
                  d="M63.32,-362.74C76.76,-337.43 104.16,-293.98 142,-275 188.54,-251.66 247.1,-248.99 293.87,-252.11"/>
            <polygon fill="black" stroke="black" points="293.73,-255.61 303.97,-252.89 294.26,-248.63 293.73,-255.61"/>
        </g>
        <!-- mrs.domain.model.auth.user.administrator.Administrator&#45;&gt;mrs.domain.model.reservation.reservation.Reservation -->
        <g id="edge14" class="edge">
            <title>mrs.domain.model.auth.user.administrator.Administrator&#45;&gt;mrs.domain.model.reservation.reservation.Reservation</title>
            <path fill="none" stroke="black"
                  d="M66.04,-362.8C88.85,-326.52 136.61,-251.12 142,-247 184.09,-214.85 240.42,-196.23 287.16,-185.58"/>
            <polygon fill="black" stroke="black" points="287.96,-188.99 296.97,-183.43 286.46,-182.15 287.96,-188.99"/>
        </g>
        <!-- mrs.domain.model.auth.user.member.Member -->
        <g id="node8" class="node">
            <title>mrs.domain.model.auth.user.member.Member</title>
            <polygon fill="lemonchiffon" stroke="black" points="84.5,-289 21.5,-289 21.5,-251 84.5,-251 84.5,-289"/>
            <text text-anchor="middle" x="53" y="-273.8" font-family="Times New Roman,serif" font-size="14.00">会員</text>
            <text text-anchor="middle" x="53" y="-258.8" font-family="Times New Roman,serif" font-size="14.00">Member
            </text>
        </g>
        <!-- mrs.domain.model.auth.user.member.Member&#45;&gt;mrs.domain.model.auth.user.Password -->
        <g id="edge4" class="edge">
            <title>mrs.domain.model.auth.user.member.Member&#45;&gt;mrs.domain.model.auth.user.Password</title>
            <path fill="none" stroke="black"
                  d="M65.95,-289.08C88.87,-325.58 137.14,-402.15 142,-407 185.42,-450.34 243.54,-487.53 290.87,-513.92"/>
            <polygon fill="black" stroke="black" points="289.43,-517.12 299.88,-518.88 292.81,-510.99 289.43,-517.12"/>
        </g>
        <!-- mrs.domain.model.auth.user.member.Member&#45;&gt;mrs.domain.model.auth.user.RoleName -->
        <g id="edge24" class="edge">
            <title>mrs.domain.model.auth.user.member.Member&#45;&gt;mrs.domain.model.auth.user.RoleName</title>
            <path fill="none" stroke="black"
                  d="M67.09,-289.34C82.64,-310.99 110.49,-345.81 142,-367 183.45,-394.87 235.17,-414.93 279.34,-428.54"/>
            <polygon fill="black" stroke="black" points="278.35,-431.9 288.94,-431.43 280.37,-425.2 278.35,-431.9"/>
        </g>
        <!-- mrs.domain.model.auth.user.member.Member&#45;&gt;mrs.domain.model.auth.user.User -->
        <g id="edge11" class="edge">
            <title>mrs.domain.model.auth.user.member.Member&#45;&gt;mrs.domain.model.auth.user.User</title>
            <path fill="none" stroke="black" d="M84.57,-280.94C98.52,-285.93 115.59,-292.04 132.16,-297.97"/>
            <polygon fill="black" stroke="black" points="131.23,-301.36 141.83,-301.43 133.59,-294.77 131.23,-301.36"/>
        </g>
        <!-- mrs.domain.model.auth.user.member.Member&#45;&gt;mrs.domain.model.auth.user.UserId -->
        <g id="edge8" class="edge">
            <title>mrs.domain.model.auth.user.member.Member&#45;&gt;mrs.domain.model.auth.user.UserId</title>
            <path fill="none" stroke="black"
                  d="M84.76,-264.09C125.14,-257.79 197.41,-251.61 253,-275 273.57,-283.65 271.16,-296.59 289,-310 291.76,-312.08 294.62,-314.13 297.54,-316.15"/>
            <polygon fill="black" stroke="black" points="295.67,-319.1 305.93,-321.75 299.55,-313.28 295.67,-319.1"/>
        </g>
        <!-- mrs.domain.model.auth.user.member.Member&#45;&gt;mrs.domain.model.auth.user.UserName -->
        <g id="edge27" class="edge">
            <title>mrs.domain.model.auth.user.member.Member&#45;&gt;mrs.domain.model.auth.user.UserName</title>
            <path fill="none" stroke="black"
                  d="M72.14,-250.72C88.6,-234.73 114.46,-213.18 142,-204 188.8,-188.4 204.95,-192.82 253,-204 262.69,-206.25 279.23,-213.53 297.06,-222.28"/>
            <polygon fill="black" stroke="black" points="295.95,-225.64 306.46,-226.97 299.08,-219.37 295.95,-225.64"/>
        </g>
        <!-- mrs.domain.model.auth.user.member.Member&#45;&gt;mrs.domain.model.reservation.reservation.Reservation -->
        <g id="edge15" class="edge">
            <title>
                mrs.domain.model.auth.user.member.Member&#45;&gt;mrs.domain.model.reservation.reservation.Reservation
            </title>
            <path fill="none" stroke="black"
                  d="M55.61,-250.85C60.28,-208.84 77.94,-109.05 142,-67 183.24,-39.93 209.98,-42.85 253,-67 279.79,-82.04 266.67,-104.9 289,-126 289.93,-126.88 290.89,-127.75 291.86,-128.61"/>
            <polygon fill="black" stroke="black" points="289.68,-131.35 299.65,-134.96 294.11,-125.93 289.68,-131.35"/>
        </g>
        <!-- mrs.domain.model.reservation.reservation.ReservableRoom -->
        <g id="node9" class="node">
            <title>mrs.domain.model.reservation.reservation.ReservableRoom</title>
            <polygon fill="#eedd82" stroke="black" points="736,-172 499,-172 499,-98 736,-98 736,-172"/>
            <text text-anchor="middle" x="617.5" y="-144" font-family="Times New Roman,serif" font-size="30.00">
                予約可能会議室
            </text>
            <text text-anchor="middle" x="617.5" y="-111" font-family="Times New Roman,serif" font-size="30.00">
                ReservableRoom
            </text>
        </g>
        <!-- mrs.domain.model.reservation.reservation.ReservableRoom&#45;&gt;mrs.domain.model.reservation.reservation.Reservation -->
        <g id="edge16" class="edge">
            <title>mrs.domain.model.reservation.reservation.ReservableRoom&#45;&gt;mrs.domain.model.reservation.reservation.Reservation</title>
            <path fill="none" stroke="black" d="M498.97,-159.91C487.58,-161.68 476.15,-163.37 465.11,-164.92"/>
            <polygon fill="black" stroke="black" points="464.52,-161.47 455.09,-166.31 465.47,-168.41 464.52,-161.47"/>
        </g>
        <!-- mrs.domain.model.reservation.reservation.ReservableRoomList -->
        <g id="node10" class="node">
            <title>mrs.domain.model.reservation.reservation.ReservableRoomList</title>
            <polygon fill="lemonchiffon" stroke="black" points="462,-117 290,-117 290,-79 462,-79 462,-117"/>
            <text text-anchor="middle" x="376" y="-101.8" font-family="Times New Roman,serif" font-size="14.00">
                予約可能会議室一覧
            </text>
            <text text-anchor="middle" x="376" y="-86.8" font-family="Times New Roman,serif" font-size="14.00">
                ReservableRoomList
            </text>
        </g>
        <!-- mrs.domain.model.reservation.reservation.ReservableRoomList&#45;&gt;mrs.domain.model.reservation.reservation.ReservableRoom -->
        <g id="edge18" class="edge">
            <title>mrs.domain.model.reservation.reservation.ReservableRoomList&#45;&gt;mrs.domain.model.reservation.reservation.ReservableRoom</title>
            <path fill="none" stroke="black" d="M462.11,-111.15C470.9,-112.51 479.96,-113.91 489.08,-115.32"/>
            <polygon fill="black" stroke="black" points="488.57,-118.78 498.99,-116.85 489.64,-111.86 488.57,-118.78"/>
        </g>
        <!-- mrs.domain.model.reservation.reservation.Reservation&#45;&gt;mrs.domain.model.auth.user.User -->
        <g id="edge12" class="edge">
            <title>mrs.domain.model.reservation.reservation.Reservation&#45;&gt;mrs.domain.model.auth.user.User</title>
            <path fill="none" stroke="black"
                  d="M315.41,-209.12C306.21,-214.61 297.09,-220.58 289,-227 271.05,-241.24 253.8,-259.33 239.27,-275.89"/>
            <polygon fill="black" stroke="black" points="236.26,-274.01 232.36,-283.87 241.55,-278.6 236.26,-274.01"/>
        </g>
        <!-- mrs.domain.model.reservation.reservation.Reservation&#45;&gt;mrs.domain.model.reservation.reservation.ReservableRoom -->
        <g id="edge19" class="edge">
            <title>mrs.domain.model.reservation.reservation.Reservation&#45;&gt;mrs.domain.model.reservation.reservation.ReservableRoom</title>
            <path fill="none" stroke="black" d="M455.09,-153.56C465.96,-151.68 477.36,-149.8 488.86,-147.98"/>
            <polygon fill="black" stroke="black" points="489.63,-151.4 498.97,-146.41 488.56,-144.49 489.63,-151.4"/>
        </g>
        <!-- mrs.domain.model.reservation.reservation.ReservationList -->
        <g id="node12" class="node">
            <title>mrs.domain.model.reservation.reservation.ReservationList</title>
            <polygon fill="lemonchiffon" stroke="black" points="249.5,-114 145.5,-114 145.5,-76 249.5,-76 249.5,-114"/>
            <text text-anchor="middle" x="197.5" y="-98.8" font-family="Times New Roman,serif" font-size="14.00">予約一覧
            </text>
            <text text-anchor="middle" x="197.5" y="-83.8" font-family="Times New Roman,serif" font-size="14.00">
                ReservationList
            </text>
        </g>
        <!-- mrs.domain.model.reservation.reservation.ReservationList&#45;&gt;mrs.domain.model.reservation.reservation.Reservation -->
        <g id="edge17" class="edge">
            <title>mrs.domain.model.reservation.reservation.ReservationList&#45;&gt;mrs.domain.model.reservation.reservation.Reservation</title>
            <path fill="none" stroke="black" d="M242.13,-114.03C255.95,-120.06 271.76,-126.96 287.53,-133.84"/>
            <polygon fill="black" stroke="black" points="286.24,-137.09 296.8,-137.89 289.04,-130.68 286.24,-137.09"/>
        </g>
        <!-- mrs.domain.model.reservation.room.MeetingRoom -->
        <g id="node13" class="node">
            <title>mrs.domain.model.reservation.room.MeetingRoom</title>
            <polygon fill="lemonchiffon" stroke="black" points="424,-61 328,-61 328,-23 424,-23 424,-61"/>
            <text text-anchor="middle" x="376" y="-45.8" font-family="Times New Roman,serif" font-size="14.00">会議室
            </text>
            <text text-anchor="middle" x="376" y="-30.8" font-family="Times New Roman,serif" font-size="14.00">
                MeetingRoom
            </text>
        </g>
        <!-- mrs.domain.model.reservation.room.MeetingRoom&#45;&gt;mrs.domain.model.reservation.reservation.ReservableRoom -->
        <g id="edge20" class="edge">
            <title>mrs.domain.model.reservation.room.MeetingRoom&#45;&gt;mrs.domain.model.reservation.reservation.ReservableRoom</title>
            <path fill="none" stroke="black"
                  d="M424.12,-56.54C436.82,-60.67 450.5,-65.33 463,-70 482.66,-77.35 503.5,-85.75 523.27,-94.01"/>
            <polygon fill="black" stroke="black" points="522,-97.28 532.57,-97.93 524.71,-90.82 522,-97.28"/>
        </g>
    </g>
</svg>
