<?xml version="1.0" encoding="UTF-8" standalone="no"?>
<!DOCTYPE svg PUBLIC "-//W3C//DTD SVG 1.1//EN"
        "http://www.w3.org/Graphics/SVG/1.1/DTD/svg11.dtd">
<!-- Generated by graphviz version 3.0.0 (20220226.1711)
 -->
<!-- Title: 集中ビジネスルールツリー図 Pages: 1 -->
<svg width="744pt" height="294pt"
     viewBox="0.00 0.00 744.00 294.00" xmlns="http://www.w3.org/2000/svg">
    <g id="graph0" class="graph" transform="scale(1 1) rotate(0) translate(4 290)">
        <title>集中ビジネスルールツリー図</title>
        <polygon fill="white" stroke="transparent" points="-4,4 -4,-290 740,-290 740,4 -4,4"/>
        <text text-anchor="middle" x="368" y="-7.8" font-family="Times New Roman,serif" font-size="14.00">
            集中ビジネスルールツリー図
        </text>
        <!-- mrs.domain.model.reservation.reservation.Reservation -->
        <g id="node1" class="node">
            <title>mrs.domain.model.reservation.reservation.Reservation</title>
            <polygon fill="#eedd82" stroke="black" points="158,-208 0,-208 0,-134 158,-134 158,-208"/>
            <text text-anchor="middle" x="79" y="-180" font-family="Times New Roman,serif" font-size="30.00">予約</text>
            <text text-anchor="middle" x="79" y="-147" font-family="Times New Roman,serif" font-size="30.00">
                Reservation
            </text>
        </g>
        <!-- mrs.domain.model.reservation.room.ReservableRoom -->
        <g id="node3" class="node">
            <title>mrs.domain.model.reservation.room.ReservableRoom</title>
            <polygon fill="#eedd82" stroke="black" points="431,-273 194,-273 194,-199 431,-199 431,-273"/>
            <text text-anchor="middle" x="312.5" y="-245" font-family="Times New Roman,serif" font-size="30.00">
                予約可能会議室
            </text>
            <text text-anchor="middle" x="312.5" y="-212" font-family="Times New Roman,serif" font-size="30.00">
                ReservableRoom
            </text>
        </g>
        <!-- mrs.domain.model.reservation.reservation.Reservation&#45;&gt;mrs.domain.model.reservation.room.ReservableRoom -->
        <g id="edge3" class="edge">
            <title>mrs.domain.model.reservation.reservation.Reservation&#45;&gt;mrs.domain.model.reservation.room.ReservableRoom</title>
            <path fill="none" stroke="black" d="M158.05,-186.49C169.55,-189.51 181.6,-192.79 193.69,-196.17"/>
            <polygon fill="black" stroke="black" points="192.8,-199.56 203.37,-198.9 194.7,-192.82 192.8,-199.56"/>
        </g>
        <!-- mrs.domain.model.reservation.room.ReservableRoomId -->
        <g id="node4" class="node">
            <title>mrs.domain.model.reservation.room.ReservableRoomId</title>
            <polygon fill="#eedd82" stroke="black" points="736,-194 467,-194 467,-120 736,-120 736,-194"/>
            <text text-anchor="middle" x="601.5" y="-166" font-family="Times New Roman,serif" font-size="30.00">
                予約可能会議室ID
            </text>
            <text text-anchor="middle" x="601.5" y="-133" font-family="Times New Roman,serif" font-size="30.00">
                ReservableRoomId
            </text>
        </g>
        <!-- mrs.domain.model.reservation.reservation.Reservation&#45;&gt;mrs.domain.model.reservation.room.ReservableRoomId -->
        <g id="edge5" class="edge">
            <title>mrs.domain.model.reservation.reservation.Reservation&#45;&gt;mrs.domain.model.reservation.room.ReservableRoomId</title>
            <path fill="none" stroke="black" d="M158.21,-168.9C236.94,-166.78 360.21,-163.46 456.64,-160.87"/>
            <polygon fill="black" stroke="black" points="456.87,-164.36 466.77,-160.6 456.68,-157.37 456.87,-164.36"/>
        </g>
        <!-- mrs.domain.model.user.User -->
        <g id="node7" class="node">
            <title>mrs.domain.model.user.User</title>
            <polygon fill="#eedd82" stroke="black" points="352.5,-143 272.5,-143 272.5,-69 352.5,-69 352.5,-143"/>
            <text text-anchor="middle" x="312.5" y="-115" font-family="Times New Roman,serif" font-size="30.00">会員
            </text>
            <text text-anchor="middle" x="312.5" y="-82" font-family="Times New Roman,serif" font-size="30.00">User
            </text>
        </g>
        <!-- mrs.domain.model.reservation.reservation.Reservation&#45;&gt;mrs.domain.model.user.User -->
        <g id="edge10" class="edge">
            <title>mrs.domain.model.reservation.reservation.Reservation&#45;&gt;mrs.domain.model.user.User</title>
            <path fill="none" stroke="black" d="M158.05,-142.66C192.61,-132.34 232.19,-121.49 262.5,-114.13"/>
            <polygon fill="black" stroke="black" points="263.49,-117.49 272.4,-111.77 261.86,-110.68 263.49,-117.49"/>
        </g>
        <!-- mrs.domain.model.reservation.room.MeetingRoom -->
        <g id="node2" class="node">
            <title>mrs.domain.model.reservation.room.MeetingRoom</title>
            <polygon fill="#eedd82" stroke="black" points="695.5,-286 507.5,-286 507.5,-212 695.5,-212 695.5,-286"/>
            <text text-anchor="middle" x="601.5" y="-258" font-family="Times New Roman,serif" font-size="30.00">会議室
            </text>
            <text text-anchor="middle" x="601.5" y="-225" font-family="Times New Roman,serif" font-size="30.00">
                MeetingRoom
            </text>
        </g>
        <!-- mrs.domain.model.reservation.room.MeetingRoom&#45;&gt;mrs.domain.model.reservation.room.ReservableRoom -->
        <g id="edge4" class="edge">
            <title>mrs.domain.model.reservation.room.MeetingRoom&#45;&gt;mrs.domain.model.reservation.room.ReservableRoom</title>
            <path fill="none" stroke="black" d="M507.26,-251.14C486.19,-250.52 463.45,-249.61 441.23,-248.5"/>
            <polygon fill="black" stroke="black" points="441.23,-244.99 431.06,-247.98 440.87,-251.99 441.23,-244.99"/>
        </g>
        <!-- mrs.domain.model.reservation.room.ReservableRoom&#45;&gt;mrs.domain.model.reservation.reservation.Reservation -->
        <g id="edge7" class="edge">
            <title>mrs.domain.model.reservation.room.ReservableRoom&#45;&gt;mrs.domain.model.reservation.reservation.Reservation</title>
            <path fill="none" stroke="black" d="M193.86,-209.72C185.04,-207.23 176.23,-204.7 167.64,-202.18"/>
            <polygon fill="black" stroke="black" points="168.63,-198.82 158.05,-199.34 166.65,-205.53 168.63,-198.82"/>
        </g>
        <!-- mrs.domain.model.reservation.room.ReservableRoom&#45;&gt;mrs.domain.model.reservation.room.MeetingRoom -->
        <g id="edge9" class="edge">
            <title>mrs.domain.model.reservation.room.ReservableRoom&#45;&gt;mrs.domain.model.reservation.room.MeetingRoom</title>
            <path fill="none" stroke="black" d="M431.06,-234.67C452.98,-235.5 475.73,-236.58 497.18,-237.81"/>
            <polygon fill="black" stroke="black" points="497.07,-241.31 507.26,-238.41 497.49,-234.32 497.07,-241.31"/>
        </g>
        <!-- mrs.domain.model.reservation.room.ReservableRoom&#45;&gt;mrs.domain.model.reservation.room.ReservableRoomId -->
        <g id="edge6" class="edge">
            <title>mrs.domain.model.reservation.room.ReservableRoom&#45;&gt;mrs.domain.model.reservation.room.ReservableRoomId</title>
            <path fill="none" stroke="black" d="M431.06,-203.64C439.61,-201.29 448.29,-198.9 456.96,-196.51"/>
            <polygon fill="black" stroke="black" points="458.04,-199.85 466.75,-193.82 456.18,-193.1 458.04,-199.85"/>
        </g>
        <!-- mrs.domain.model.user.ReservationUserDetails -->
        <g id="node5" class="node">
            <title>mrs.domain.model.user.ReservationUserDetails</title>
            <polygon fill="lemonchiffon" stroke="black" points="152,-88 6,-88 6,-50 152,-50 152,-88"/>
            <text text-anchor="middle" x="79" y="-72.8" font-family="Times New Roman,serif" font-size="14.00">認証済み利用者
            </text>
            <text text-anchor="middle" x="79" y="-57.8" font-family="Times New Roman,serif" font-size="14.00">
                ReservationUserDetails
            </text>
        </g>
        <!-- mrs.domain.model.user.RoleName -->
        <g id="node6" class="node">
            <title>mrs.domain.model.user.RoleName</title>
            <polygon fill="#eedd82" stroke="black" points="688.5,-97 514.5,-97 514.5,-23 688.5,-23 688.5,-97"/>
            <text text-anchor="middle" x="601.5" y="-69" font-family="Times New Roman,serif" font-size="30.00">利用者区分
            </text>
            <text text-anchor="middle" x="601.5" y="-36" font-family="Times New Roman,serif" font-size="30.00">
                RoleName
            </text>
        </g>
        <!-- mrs.domain.model.user.ReservationUserDetails&#45;&gt;mrs.domain.model.user.RoleName -->
        <g id="edge1" class="edge">
            <title>mrs.domain.model.user.ReservationUserDetails&#45;&gt;mrs.domain.model.user.RoleName</title>
            <path fill="none" stroke="black"
                  d="M152.01,-62.45C165.93,-61.43 180.41,-60.54 194,-60 300.11,-55.82 421.92,-56.55 504.32,-57.87"/>
            <polygon fill="black" stroke="black" points="504.36,-61.37 514.42,-58.04 504.48,-54.37 504.36,-61.37"/>
        </g>
        <!-- mrs.domain.model.user.ReservationUserDetails&#45;&gt;mrs.domain.model.user.User -->
        <g id="edge11" class="edge">
            <title>mrs.domain.model.user.ReservationUserDetails&#45;&gt;mrs.domain.model.user.User</title>
            <path fill="none" stroke="black" d="M152.3,-80.55C188.09,-86.28 230.37,-93.03 262.36,-98.15"/>
            <polygon fill="black" stroke="black" points="261.93,-101.62 272.36,-99.74 263.04,-94.71 261.93,-101.62"/>
        </g>
        <!-- mrs.domain.model.user.User&#45;&gt;mrs.domain.model.reservation.reservation.Reservation -->
        <g id="edge8" class="edge">
            <title>mrs.domain.model.user.User&#45;&gt;mrs.domain.model.reservation.reservation.Reservation</title>
            <path fill="none" stroke="black" d="M272.4,-122.19C243.89,-131.57 204.09,-143.19 168.09,-152.84"/>
            <polygon fill="black" stroke="black" points="166.82,-149.56 158.05,-155.51 168.62,-156.32 166.82,-149.56"/>
        </g>
        <!-- mrs.domain.model.user.User&#45;&gt;mrs.domain.model.user.RoleName -->
        <g id="edge2" class="edge">
            <title>mrs.domain.model.user.User&#45;&gt;mrs.domain.model.user.RoleName</title>
            <path fill="none" stroke="black" d="M352.5,-99.75C391.38,-93.52 452.6,-83.7 504.49,-75.39"/>
            <polygon fill="black" stroke="black" points="505.08,-78.84 514.4,-73.8 503.97,-71.93 505.08,-78.84"/>
        </g>
    </g>
</svg>
