<?xml version="1.0" encoding="UTF-8" standalone="no"?>
<!DOCTYPE svg PUBLIC "-//W3C//DTD SVG 1.1//EN"
        "http://www.w3.org/Graphics/SVG/1.1/DTD/svg11.dtd">
<!-- Generated by graphviz version 3.0.0 (20220226.1711)
 -->
<!-- Title: ビジネスルール関連図 Pages: 1 -->
<svg width="1457pt" height="431pt"
     viewBox="0.00 0.00 1457.00 431.00" xmlns="http://www.w3.org/2000/svg">
    <g id="graph0" class="graph" transform="scale(1 1) rotate(0) translate(4 427)">
        <title>ビジネスルール関連図</title>
        <polygon fill="white" stroke="transparent" points="-4,4 -4,-427 1453,-427 1453,4 -4,4"/>
        <text text-anchor="middle" x="724.5" y="-7.8" font-family="Times New Roman,serif" font-size="14.00">ビジネスルール関連図
        </text>
        <g id="clust2" class="cluster">
            <title>cluster_mrs.domain.model.auth.user.administrator</title>
            <polygon fill="lemonchiffon" stroke="#eedd82" stroke-width="2"
                     points="749,-338 749,-415 892,-415 892,-338 749,-338"/>
            <text text-anchor="middle" x="820.5" y="-399.8" font-family="Times New Roman,serif" font-size="14.00">
                auth.user.administrator
            </text>
        </g>
        <g id="clust3" class="cluster">
            <title>cluster_mrs.domain.model.auth.user.member</title>
            <polygon fill="lemonchiffon" stroke="#eedd82" stroke-width="2"
                     points="471,-264 471,-415 587,-415 587,-264 471,-264"/>
            <text text-anchor="middle" x="529" y="-399.8" font-family="Times New Roman,serif" font-size="14.00">
                auth.user.member
            </text>
        </g>
        <g id="clust1" class="cluster">
            <title>cluster_mrs.domain.model.auth.user</title>
            <polygon fill="lemonchiffon" stroke="#eedd82" stroke-width="2"
                     points="8,-179 8,-415 463,-415 463,-179 8,-179"/>
            <text text-anchor="middle" x="235.5" y="-399.8" font-family="Times New Roman,serif" font-size="14.00">
                auth.user
            </text>
        </g>
        <g id="clust4" class="cluster">
            <title>cluster_mrs.domain.model.reservation.reservation</title>
            <polygon fill="lemonchiffon" stroke="#eedd82" stroke-width="2"
                     points="915,-31 915,-415 1313,-415 1313,-31 915,-31"/>
            <text text-anchor="middle" x="1114" y="-399.8" font-family="Times New Roman,serif" font-size="14.00">
                reservation.reservation
            </text>
        </g>
        <g id="clust5" class="cluster">
            <title>cluster_mrs.domain.model.reservation.room</title>
            <polygon fill="lemonchiffon" stroke="#eedd82" stroke-width="2"
                     points="1321,-31 1321,-256 1441,-256 1441,-31 1321,-31"/>
            <text text-anchor="middle" x="1381" y="-240.8" font-family="Times New Roman,serif" font-size="14.00">
                reservation.room
            </text>
        </g>
        <!-- mrs.domain.model.auth.user.Password -->
        <g id="node1" class="node">
            <title>mrs.domain.model.auth.user.Password</title>
            <polygon fill="#eedd82" stroke="black" points="361.5,-225 258.5,-225 258.5,-187 361.5,-187 361.5,-225"/>
            <text text-anchor="middle" x="310" y="-209.8" font-family="Times New Roman,serif" font-size="14.00">パスワード
            </text>
            <text text-anchor="middle" x="310" y="-194.8" font-family="Times New Roman,serif" font-size="14.00">
                Password
            </text>
        </g>
        <!-- mrs.domain.model.auth.user.RoleName -->
        <g id="node2" class="node">
            <title>mrs.domain.model.auth.user.RoleName</title>
            <polygon fill="#eedd82" stroke="black" points="119.5,-225 16.5,-225 16.5,-187 119.5,-187 119.5,-225"/>
            <text text-anchor="middle" x="68" y="-209.8" font-family="Times New Roman,serif" font-size="14.00">利用者区分
            </text>
            <text text-anchor="middle" x="68" y="-194.8" font-family="Times New Roman,serif" font-size="14.00">
                RoleName
            </text>
        </g>
        <!-- mrs.domain.model.auth.user.User -->
        <g id="node3" class="node">
            <title>mrs.domain.model.auth.user.User</title>
            <polygon fill="#eedd82" stroke="black" points="382,-310 314,-310 314,-272 382,-272 382,-310"/>
            <text text-anchor="middle" x="348" y="-294.8" font-family="Times New Roman,serif" font-size="14.00">利用者
            </text>
            <text text-anchor="middle" x="348" y="-279.8" font-family="Times New Roman,serif" font-size="14.00">User
            </text>
        </g>
        <!-- mrs.domain.model.auth.user.User&#45;&gt;mrs.domain.model.auth.user.Password -->
        <g id="edge14" class="edge">
            <title>mrs.domain.model.auth.user.User&#45;&gt;mrs.domain.model.auth.user.Password</title>
            <path fill="none" stroke="black" d="M339.75,-271.99C334.76,-261.08 328.29,-246.94 322.65,-234.64"/>
            <polygon fill="black" stroke="black" points="325.71,-232.9 318.36,-225.26 319.34,-235.81 325.71,-232.9"/>
        </g>
        <!-- mrs.domain.model.auth.user.User&#45;&gt;mrs.domain.model.auth.user.RoleName -->
        <g id="edge15" class="edge">
            <title>mrs.domain.model.auth.user.User&#45;&gt;mrs.domain.model.auth.user.RoleName</title>
            <path fill="none" stroke="black"
                  d="M313.65,-290.19C268.99,-289.24 189.43,-283.36 128,-256 115.11,-250.26 102.7,-240.99 92.55,-232.05"/>
            <polygon fill="black" stroke="black" points="94.65,-229.23 84.93,-225.02 89.91,-234.37 94.65,-229.23"/>
        </g>
        <!-- mrs.domain.model.auth.user.UserId -->
        <g id="node5" class="node">
            <title>mrs.domain.model.auth.user.UserId</title>
            <polygon fill="#eedd82" stroke="black" points="240.5,-225 137.5,-225 137.5,-187 240.5,-187 240.5,-225"/>
            <text text-anchor="middle" x="189" y="-209.8" font-family="Times New Roman,serif" font-size="14.00">利用者番号
            </text>
            <text text-anchor="middle" x="189" y="-194.8" font-family="Times New Roman,serif" font-size="14.00">UserId
            </text>
        </g>
        <!-- mrs.domain.model.auth.user.User&#45;&gt;mrs.domain.model.auth.user.UserId -->
        <g id="edge16" class="edge">
            <title>mrs.domain.model.auth.user.User&#45;&gt;mrs.domain.model.auth.user.UserId</title>
            <path fill="none" stroke="black"
                  d="M313.74,-281.48C294.08,-275.81 269.33,-267.31 249,-256 237.13,-249.39 225.29,-240.37 215.3,-231.87"/>
            <polygon fill="black" stroke="black" points="217.54,-229.19 207.72,-225.22 212.93,-234.45 217.54,-229.19"/>
        </g>
        <!-- mrs.domain.model.auth.user.UserName -->
        <g id="node6" class="node">
            <title>mrs.domain.model.auth.user.UserName</title>
            <polygon fill="#eedd82" stroke="black" points="454.5,-225 379.5,-225 379.5,-187 454.5,-187 454.5,-225"/>
            <text text-anchor="middle" x="417" y="-209.8" font-family="Times New Roman,serif" font-size="14.00">氏名
            </text>
            <text text-anchor="middle" x="417" y="-194.8" font-family="Times New Roman,serif" font-size="14.00">
                UserName
            </text>
        </g>
        <!-- mrs.domain.model.auth.user.User&#45;&gt;mrs.domain.model.auth.user.UserName -->
        <g id="edge17" class="edge">
            <title>mrs.domain.model.auth.user.User&#45;&gt;mrs.domain.model.auth.user.UserName</title>
            <path fill="none" stroke="black" d="M362.97,-271.99C372.4,-260.65 384.73,-245.82 395.23,-233.18"/>
            <polygon fill="black" stroke="black" points="398.12,-235.19 401.82,-225.26 392.73,-230.71 398.12,-235.19"/>
        </g>
        <!-- mrs.domain.model.reservation.reservation.Reservation -->
        <g id="node13" class="node">
            <title>mrs.domain.model.reservation.reservation.Reservation</title>
            <polygon fill="#eedd82" stroke="black"
                     points="1104.5,-225 1021.5,-225 1021.5,-187 1104.5,-187 1104.5,-225"/>
            <text text-anchor="middle" x="1063" y="-209.8" font-family="Times New Roman,serif" font-size="14.00">予約
            </text>
            <text text-anchor="middle" x="1063" y="-194.8" font-family="Times New Roman,serif" font-size="14.00">
                Reservation
            </text>
        </g>
        <!-- mrs.domain.model.auth.user.User&#45;&gt;mrs.domain.model.reservation.reservation.Reservation -->
        <g id="edge18" class="edge">
            <title>mrs.domain.model.auth.user.User&#45;&gt;mrs.domain.model.reservation.reservation.Reservation</title>
            <path fill="none" stroke="black"
                  d="M382.1,-283.13C408.01,-277.26 444.14,-268.99 476,-264 672.58,-233.24 908.42,-216.61 1011.13,-210.18"/>
            <polygon fill="black" stroke="black"
                     points="1011.47,-213.66 1021.23,-209.55 1011.03,-206.68 1011.47,-213.66"/>
        </g>
        <!-- mrs.domain.model.auth.user.UserDetailsImpl -->
        <g id="node4" class="node">
            <title>mrs.domain.model.auth.user.UserDetailsImpl</title>
            <polygon fill="#eedd82" stroke="black" points="289,-384 183,-384 183,-346 289,-346 289,-384"/>
            <text text-anchor="middle" x="236" y="-368.8" font-family="Times New Roman,serif" font-size="14.00">利用者
            </text>
            <text text-anchor="middle" x="236" y="-353.8" font-family="Times New Roman,serif" font-size="14.00">
                UserDetailsImpl
            </text>
        </g>
        <!-- mrs.domain.model.auth.user.UserDetailsImpl&#45;&gt;mrs.domain.model.auth.user.Password -->
        <g id="edge19" class="edge">
            <title>mrs.domain.model.auth.user.UserDetailsImpl&#45;&gt;mrs.domain.model.auth.user.Password</title>
            <path fill="none" stroke="black" d="M244.49,-345.99C257.36,-318.69 281.9,-266.63 297.02,-234.55"/>
            <polygon fill="black" stroke="black" points="300.28,-235.82 301.38,-225.28 293.95,-232.84 300.28,-235.82"/>
        </g>
        <!-- mrs.domain.model.auth.user.UserDetailsImpl&#45;&gt;mrs.domain.model.auth.user.RoleName -->
        <g id="edge20" class="edge">
            <title>mrs.domain.model.auth.user.UserDetailsImpl&#45;&gt;mrs.domain.model.auth.user.RoleName</title>
            <path fill="none" stroke="black" d="M216.73,-345.99C186.81,-318.03 129.08,-264.08 95.02,-232.25"/>
            <polygon fill="black" stroke="black" points="97,-229.31 87.31,-225.04 92.22,-234.43 97,-229.31"/>
        </g>
        <!-- mrs.domain.model.auth.user.UserDetailsImpl&#45;&gt;mrs.domain.model.auth.user.User -->
        <g id="edge21" class="edge">
            <title>mrs.domain.model.auth.user.UserDetailsImpl&#45;&gt;mrs.domain.model.auth.user.User</title>
            <path fill="none" stroke="black" d="M264.26,-345.83C278.46,-336.71 295.83,-325.54 311.06,-315.74"/>
            <polygon fill="black" stroke="black" points="313.23,-318.51 319.75,-310.16 309.44,-312.63 313.23,-318.51"/>
        </g>
        <!-- mrs.domain.model.auth.user.UserDetailsImpl&#45;&gt;mrs.domain.model.auth.user.UserId -->
        <g id="edge22" class="edge">
            <title>mrs.domain.model.auth.user.UserDetailsImpl&#45;&gt;mrs.domain.model.auth.user.UserId</title>
            <path fill="none" stroke="black" d="M230.61,-345.99C222.47,-318.81 206.98,-267.07 197.37,-234.96"/>
            <polygon fill="black" stroke="black" points="200.69,-233.86 194.47,-225.28 193.99,-235.87 200.69,-233.86"/>
        </g>
        <!-- mrs.domain.model.auth.user.administrator.Administrator -->
        <g id="node7" class="node">
            <title>mrs.domain.model.auth.user.administrator.Administrator</title>
            <polygon fill="#eedd82" stroke="black" points="875.5,-384 782.5,-384 782.5,-346 875.5,-346 875.5,-384"/>
            <text text-anchor="middle" x="829" y="-368.8" font-family="Times New Roman,serif" font-size="14.00">管理者
            </text>
            <text text-anchor="middle" x="829" y="-353.8" font-family="Times New Roman,serif" font-size="14.00">
                Administrator
            </text>
        </g>
        <!-- mrs.domain.model.auth.user.administrator.Administrator&#45;&gt;mrs.domain.model.auth.user.Password -->
        <g id="edge1" class="edge">
            <title>mrs.domain.model.auth.user.administrator.Administrator&#45;&gt;mrs.domain.model.auth.user.Password
            </title>
            <path fill="none" stroke="black"
                  d="M837.29,-345.66C846.05,-323.14 855.97,-285.33 835,-264 825.94,-254.79 382.13,-260.44 370,-256 356.31,-250.99 343.46,-241.44 333.19,-232.09"/>
            <polygon fill="black" stroke="black" points="335.51,-229.46 325.87,-225.06 330.66,-234.51 335.51,-229.46"/>
        </g>
        <!-- mrs.domain.model.auth.user.administrator.Administrator&#45;&gt;mrs.domain.model.auth.user.RoleName -->
        <g id="edge2" class="edge">
            <title>mrs.domain.model.auth.user.administrator.Administrator&#45;&gt;mrs.domain.model.auth.user.RoleName
            </title>
            <path fill="none" stroke="black"
                  d="M797.17,-345.98C752.68,-321.89 668.63,-280.34 591,-264 540.65,-253.4 176.31,-273.69 128,-256 114.31,-250.99 101.46,-241.44 91.19,-232.09"/>
            <polygon fill="black" stroke="black" points="93.51,-229.46 83.87,-225.06 88.66,-234.51 93.51,-229.46"/>
        </g>
        <!-- mrs.domain.model.auth.user.administrator.Administrator&#45;&gt;mrs.domain.model.auth.user.User -->
        <g id="edge3" class="edge">
            <title>mrs.domain.model.auth.user.administrator.Administrator&#45;&gt;mrs.domain.model.auth.user.User
            </title>
            <path fill="none" stroke="black"
                  d="M782.42,-357.08C713.49,-346.84 580.26,-327.01 467,-310 442.18,-306.27 414.46,-302.08 392.02,-298.68"/>
            <polygon fill="black" stroke="black" points="392.52,-295.22 382.11,-297.18 391.47,-302.14 392.52,-295.22"/>
        </g>
        <!-- mrs.domain.model.auth.user.administrator.Administrator&#45;&gt;mrs.domain.model.auth.user.UserId -->
        <g id="edge4" class="edge">
            <title>mrs.domain.model.auth.user.administrator.Administrator&#45;&gt;mrs.domain.model.auth.user.UserId
            </title>
            <path fill="none" stroke="black"
                  d="M829.1,-345.61C828.11,-322.3 822.48,-282.89 797,-264 772.54,-245.87 277.6,-266.43 249,-256 235.31,-251.01 222.45,-241.46 212.18,-232.11"/>
            <polygon fill="black" stroke="black" points="214.5,-229.48 204.86,-225.08 209.65,-234.53 214.5,-229.48"/>
        </g>
        <!-- mrs.domain.model.auth.user.administrator.Administrator&#45;&gt;mrs.domain.model.auth.user.UserName -->
        <g id="edge5" class="edge">
            <title>mrs.domain.model.auth.user.administrator.Administrator&#45;&gt;mrs.domain.model.auth.user.UserName
            </title>
            <path fill="none" stroke="black"
                  d="M847.79,-345.91C867.93,-324.34 894.34,-288.17 873,-264 846.27,-233.73 576.59,-215.68 464.97,-209.46"/>
            <polygon fill="black" stroke="black" points="464.85,-205.95 454.68,-208.9 464.47,-212.94 464.85,-205.95"/>
        </g>
        <!-- mrs.domain.model.auth.user.administrator.Administrator&#45;&gt;mrs.domain.model.reservation.reservation.Reservation -->
        <g id="edge6" class="edge">
            <title>mrs.domain.model.auth.user.administrator.Administrator&#45;&gt;mrs.domain.model.reservation.reservation.Reservation</title>
            <path fill="none" stroke="black"
                  d="M856.77,-345.84C872.68,-335.41 893,-322.03 911,-310 951.17,-283.17 997.04,-252.01 1027.79,-231.05"/>
            <polygon fill="black" stroke="black"
                     points="1030.15,-233.68 1036.44,-225.15 1026.2,-227.9 1030.15,-233.68"/>
        </g>
        <!-- mrs.domain.model.auth.user.member.Member -->
        <g id="node8" class="node">
            <title>mrs.domain.model.auth.user.member.Member</title>
            <polygon fill="#eedd82" stroke="black" points="578.5,-384 515.5,-384 515.5,-346 578.5,-346 578.5,-384"/>
            <text text-anchor="middle" x="547" y="-368.8" font-family="Times New Roman,serif" font-size="14.00">会員
            </text>
            <text text-anchor="middle" x="547" y="-353.8" font-family="Times New Roman,serif" font-size="14.00">Member
            </text>
        </g>
        <!-- mrs.domain.model.auth.user.member.Member&#45;&gt;mrs.domain.model.auth.user.Password -->
        <g id="edge7" class="edge">
            <title>mrs.domain.model.auth.user.member.Member&#45;&gt;mrs.domain.model.auth.user.Password</title>
            <path fill="none" stroke="black"
                  d="M578.69,-355.87C601.54,-348.16 630.77,-334.08 645,-310 655.4,-292.4 659.24,-278.67 645,-264 634.35,-253.04 384.32,-261.34 370,-256 356.54,-250.98 343.87,-241.62 333.68,-232.42"/>
            <polygon fill="black" stroke="black" points="336.05,-229.84 326.39,-225.49 331.22,-234.92 336.05,-229.84"/>
        </g>
        <!-- mrs.domain.model.auth.user.member.Member&#45;&gt;mrs.domain.model.auth.user.RoleName -->
        <g id="edge8" class="edge">
            <title>mrs.domain.model.auth.user.member.Member&#45;&gt;mrs.domain.model.auth.user.RoleName</title>
            <path fill="none" stroke="black"
                  d="M560.81,-345.89C576.04,-323.62 595.67,-286.07 574,-264 565.32,-255.16 139.63,-260.26 128,-256 114.32,-250.98 101.46,-241.43 91.19,-232.09"/>
            <polygon fill="black" stroke="black" points="93.51,-229.46 83.87,-225.06 88.66,-234.51 93.51,-229.46"/>
        </g>
        <!-- mrs.domain.model.auth.user.member.Member&#45;&gt;mrs.domain.model.auth.user.User -->
        <g id="edge9" class="edge">
            <title>mrs.domain.model.auth.user.member.Member&#45;&gt;mrs.domain.model.auth.user.User</title>
            <path fill="none" stroke="black" d="M515.47,-352.59C482.07,-340.51 429.09,-321.34 391.68,-307.8"/>
            <polygon fill="black" stroke="black" points="392.64,-304.43 382.05,-304.32 390.26,-311.01 392.64,-304.43"/>
        </g>
        <!-- mrs.domain.model.auth.user.member.Member&#45;&gt;mrs.domain.model.auth.user.UserId -->
        <g id="edge10" class="edge">
            <title>mrs.domain.model.auth.user.member.Member&#45;&gt;mrs.domain.model.auth.user.UserId</title>
            <path fill="none" stroke="black"
                  d="M576.22,-345.82C588.11,-336.68 600.56,-324.47 607,-310 615.32,-291.32 621.29,-278.62 607,-264 593.09,-249.78 267.66,-262.89 249,-256 235.33,-250.95 222.48,-241.4 212.2,-232.06"/>
            <polygon fill="black" stroke="black" points="214.52,-229.43 204.88,-225.03 209.67,-234.48 214.52,-229.43"/>
        </g>
        <!-- mrs.domain.model.auth.user.member.Member&#45;&gt;mrs.domain.model.auth.user.UserName -->
        <g id="edge11" class="edge">
            <title>mrs.domain.model.auth.user.member.Member&#45;&gt;mrs.domain.model.auth.user.UserName</title>
            <path fill="none" stroke="black"
                  d="M578.6,-361.36C610.97,-356.78 659.74,-344.26 683,-310 694.48,-293.09 695.85,-279.9 683,-264 656.06,-230.68 533.7,-215.96 464.7,-210.21"/>
            <polygon fill="black" stroke="black" points="464.76,-206.7 454.51,-209.39 464.2,-213.68 464.76,-206.7"/>
        </g>
        <!-- mrs.domain.model.auth.user.member.MemberId -->
        <g id="node9" class="node">
            <title>mrs.domain.model.auth.user.member.MemberId</title>
            <polygon fill="#eedd82" stroke="black" points="565,-310 479,-310 479,-272 565,-272 565,-310"/>
            <text text-anchor="middle" x="522" y="-294.8" font-family="Times New Roman,serif" font-size="14.00">会員番号
            </text>
            <text text-anchor="middle" x="522" y="-279.8" font-family="Times New Roman,serif" font-size="14.00">
                MemberId
            </text>
        </g>
        <!-- mrs.domain.model.auth.user.member.Member&#45;&gt;mrs.domain.model.auth.user.member.MemberId -->
        <g id="edge12" class="edge">
            <title>mrs.domain.model.auth.user.member.Member&#45;&gt;mrs.domain.model.auth.user.member.MemberId</title>
            <path fill="none" stroke="black" d="M540.69,-345.83C537.99,-338.05 534.77,-328.77 531.77,-320.13"/>
            <polygon fill="black" stroke="black" points="534.98,-318.71 528.39,-310.41 528.37,-321.01 534.98,-318.71"/>
        </g>
        <!-- mrs.domain.model.auth.user.member.Member&#45;&gt;mrs.domain.model.reservation.reservation.Reservation -->
        <g id="edge13" class="edge">
            <title>
                mrs.domain.model.auth.user.member.Member&#45;&gt;mrs.domain.model.reservation.reservation.Reservation
            </title>
            <path fill="none" stroke="black" d="M578.5,-354.42C664.77,-328.17 905.49,-254.92 1011.62,-222.63"/>
            <polygon fill="black" stroke="black" points="1012.92,-225.9 1021.46,-219.64 1010.88,-219.2 1012.92,-225.9"/>
        </g>
        <!-- mrs.domain.model.reservation.reservation.ReservableRoom -->
        <g id="node10" class="node">
            <title>mrs.domain.model.reservation.reservation.ReservableRoom</title>
            <polygon fill="#eedd82" stroke="black"
                     points="1278.5,-310 1141.5,-310 1141.5,-272 1278.5,-272 1278.5,-310"/>
            <text text-anchor="middle" x="1210" y="-294.8" font-family="Times New Roman,serif" font-size="14.00">
                予約可能会議室
            </text>
            <text text-anchor="middle" x="1210" y="-279.8" font-family="Times New Roman,serif" font-size="14.00">
                ReservableRoom
            </text>
        </g>
        <!-- mrs.domain.model.reservation.reservation.ReservableRoomId -->
        <g id="node11" class="node">
            <title>mrs.domain.model.reservation.reservation.ReservableRoomId</title>
            <polygon fill="#eedd82" stroke="black" points="1305,-151 1153,-151 1153,-113 1305,-113 1305,-151"/>
            <text text-anchor="middle" x="1229" y="-135.8" font-family="Times New Roman,serif" font-size="14.00">
                予約可能会議室ID
            </text>
            <text text-anchor="middle" x="1229" y="-120.8" font-family="Times New Roman,serif" font-size="14.00">
                ReservableRoomId
            </text>
        </g>
        <!-- mrs.domain.model.reservation.reservation.ReservableRoom&#45;&gt;mrs.domain.model.reservation.reservation.ReservableRoomId -->
        <g id="edge23" class="edge">
            <title>mrs.domain.model.reservation.reservation.ReservableRoom&#45;&gt;mrs.domain.model.reservation.reservation.ReservableRoomId</title>
            <path fill="none" stroke="black" d="M1212.18,-271.99C1215.45,-244.93 1221.68,-193.52 1225.57,-161.38"/>
            <polygon fill="black" stroke="black"
                     points="1229.06,-161.63 1226.79,-151.28 1222.11,-160.79 1229.06,-161.63"/>
        </g>
        <!-- mrs.domain.model.reservation.reservation.ReservableRoom&#45;&gt;mrs.domain.model.reservation.reservation.Reservation -->
        <g id="edge24" class="edge">
            <title>mrs.domain.model.reservation.reservation.ReservableRoom&#45;&gt;mrs.domain.model.reservation.reservation.Reservation</title>
            <path fill="none" stroke="black" d="M1172.42,-271.99C1149.65,-259.84 1120.88,-243.68 1098.49,-230.51"/>
            <polygon fill="black" stroke="black"
                     points="1100.02,-227.35 1089.64,-225.26 1096.45,-233.37 1100.02,-227.35"/>
        </g>
        <!-- mrs.domain.model.reservation.room.MeetingRoom -->
        <g id="node18" class="node">
            <title>mrs.domain.model.reservation.room.MeetingRoom</title>
            <polygon fill="#eedd82" stroke="black" points="1427,-225 1331,-225 1331,-187 1427,-187 1427,-225"/>
            <text text-anchor="middle" x="1379" y="-209.8" font-family="Times New Roman,serif" font-size="14.00">会議室
            </text>
            <text text-anchor="middle" x="1379" y="-194.8" font-family="Times New Roman,serif" font-size="14.00">
                MeetingRoom
            </text>
        </g>
        <!-- mrs.domain.model.reservation.reservation.ReservableRoom&#45;&gt;mrs.domain.model.reservation.room.MeetingRoom -->
        <g id="edge25" class="edge">
            <title>mrs.domain.model.reservation.reservation.ReservableRoom&#45;&gt;mrs.domain.model.reservation.room.MeetingRoom</title>
            <path fill="none" stroke="black"
                  d="M1278.53,-275.16C1294.66,-270.13 1311.37,-263.77 1326,-256 1338.12,-249.56 1350.23,-240.68 1359.95,-232.24"/>
            <polygon fill="black" stroke="black" points="1362.5,-234.66 1367.51,-225.32 1357.77,-229.5 1362.5,-234.66"/>
        </g>
        <!-- mrs.domain.model.reservation.reservation.ReservedDate -->
        <g id="node16" class="node">
            <title>mrs.domain.model.reservation.reservation.ReservedDate</title>
            <polygon fill="#eedd82" stroke="black" points="1276.5,-77 1181.5,-77 1181.5,-39 1276.5,-39 1276.5,-77"/>
            <text text-anchor="middle" x="1229" y="-61.8" font-family="Times New Roman,serif" font-size="14.00">予約日
            </text>
            <text text-anchor="middle" x="1229" y="-46.8" font-family="Times New Roman,serif" font-size="14.00">
                ReservedDate
            </text>
        </g>
        <!-- mrs.domain.model.reservation.reservation.ReservableRoomId&#45;&gt;mrs.domain.model.reservation.reservation.ReservedDate -->
        <g id="edge26" class="edge">
            <title>mrs.domain.model.reservation.reservation.ReservableRoomId&#45;&gt;mrs.domain.model.reservation.reservation.ReservedDate</title>
            <path fill="none" stroke="black" d="M1229,-112.83C1229,-105.13 1229,-95.97 1229,-87.42"/>
            <polygon fill="black" stroke="black" points="1232.5,-87.41 1229,-77.41 1225.5,-87.41 1232.5,-87.41"/>
        </g>
        <!-- mrs.domain.model.reservation.room.RoomId -->
        <g id="node19" class="node">
            <title>mrs.domain.model.reservation.room.RoomId</title>
            <polygon fill="#eedd82" stroke="black" points="1432.5,-77 1329.5,-77 1329.5,-39 1432.5,-39 1432.5,-77"/>
            <text text-anchor="middle" x="1381" y="-61.8" font-family="Times New Roman,serif" font-size="14.00">会議室番号
            </text>
            <text text-anchor="middle" x="1381" y="-46.8" font-family="Times New Roman,serif" font-size="14.00">RoomId
            </text>
        </g>
        <!-- mrs.domain.model.reservation.reservation.ReservableRoomId&#45;&gt;mrs.domain.model.reservation.room.RoomId -->
        <g id="edge27" class="edge">
            <title>mrs.domain.model.reservation.reservation.ReservableRoomId&#45;&gt;mrs.domain.model.reservation.room.RoomId</title>
            <path fill="none" stroke="black" d="M1267.36,-112.83C1287.5,-103.29 1312.38,-91.51 1333.71,-81.4"/>
            <polygon fill="black" stroke="black" points="1335.38,-84.48 1342.92,-77.04 1332.38,-78.16 1335.38,-84.48"/>
        </g>
        <!-- mrs.domain.model.reservation.reservation.ReservableRoomList -->
        <g id="node12" class="node">
            <title>mrs.domain.model.reservation.reservation.ReservableRoomList</title>
            <polygon fill="#eedd82" stroke="black" points="1296,-384 1124,-384 1124,-346 1296,-346 1296,-384"/>
            <text text-anchor="middle" x="1210" y="-368.8" font-family="Times New Roman,serif" font-size="14.00">
                予約可能会議室一覧
            </text>
            <text text-anchor="middle" x="1210" y="-353.8" font-family="Times New Roman,serif" font-size="14.00">
                ReservableRoomList
            </text>
        </g>
        <!-- mrs.domain.model.reservation.reservation.ReservableRoomList&#45;&gt;mrs.domain.model.reservation.reservation.ReservableRoom -->
        <g id="edge28" class="edge">
            <title>mrs.domain.model.reservation.reservation.ReservableRoomList&#45;&gt;mrs.domain.model.reservation.reservation.ReservableRoom</title>
            <path fill="none" stroke="black" d="M1210,-345.83C1210,-338.13 1210,-328.97 1210,-320.42"/>
            <polygon fill="black" stroke="black" points="1213.5,-320.41 1210,-310.41 1206.5,-320.41 1213.5,-320.41"/>
        </g>
        <!-- mrs.domain.model.reservation.reservation.Reservation&#45;&gt;mrs.domain.model.auth.user.User -->
        <g id="edge29" class="edge">
            <title>mrs.domain.model.reservation.reservation.Reservation&#45;&gt;mrs.domain.model.auth.user.User</title>
            <path fill="none" stroke="black"
                  d="M1021.43,-209C922.82,-214.4 668.01,-231.14 458,-264 436.02,-267.44 412,-272.44 391.96,-277.15"/>
            <polygon fill="black" stroke="black" points="391.08,-273.76 382.17,-279.49 392.71,-280.57 391.08,-273.76"/>
        </g>
        <!-- mrs.domain.model.reservation.reservation.Reservation&#45;&gt;mrs.domain.model.reservation.reservation.ReservableRoom -->
        <g id="edge30" class="edge">
            <title>mrs.domain.model.reservation.reservation.Reservation&#45;&gt;mrs.domain.model.reservation.reservation.ReservableRoom</title>
            <path fill="none" stroke="black" d="M1100.78,-225.12C1123.66,-237.34 1152.56,-253.57 1174.94,-266.74"/>
            <polygon fill="black" stroke="black"
                     points="1173.4,-269.89 1183.78,-271.99 1176.97,-263.88 1173.4,-269.89"/>
        </g>
        <!-- mrs.domain.model.reservation.reservation.Reservation&#45;&gt;mrs.domain.model.reservation.reservation.ReservableRoomId -->
        <g id="edge31" class="edge">
            <title>mrs.domain.model.reservation.reservation.Reservation&#45;&gt;mrs.domain.model.reservation.reservation.ReservableRoomId</title>
            <path fill="none" stroke="black" d="M1104.89,-186.83C1127.09,-177.2 1154.54,-165.29 1177.98,-155.13"/>
            <polygon fill="black" stroke="black"
                     points="1179.63,-158.23 1187.41,-151.04 1176.85,-151.81 1179.63,-158.23"/>
        </g>
        <!-- mrs.domain.model.reservation.reservation.ReservationId -->
        <g id="node14" class="node">
            <title>mrs.domain.model.reservation.reservation.ReservationId</title>
            <polygon fill="#eedd82" stroke="black" points="1018.5,-151 923.5,-151 923.5,-113 1018.5,-113 1018.5,-151"/>
            <text text-anchor="middle" x="971" y="-135.8" font-family="Times New Roman,serif" font-size="14.00">予約番号
            </text>
            <text text-anchor="middle" x="971" y="-120.8" font-family="Times New Roman,serif" font-size="14.00">
                ReservationId
            </text>
        </g>
        <!-- mrs.domain.model.reservation.reservation.Reservation&#45;&gt;mrs.domain.model.reservation.reservation.ReservationId -->
        <g id="edge32" class="edge">
            <title>mrs.domain.model.reservation.reservation.Reservation&#45;&gt;mrs.domain.model.reservation.reservation.ReservationId</title>
            <path fill="none" stroke="black" d="M1039.78,-186.83C1028.45,-177.96 1014.65,-167.16 1002.4,-157.57"/>
            <polygon fill="black" stroke="black"
                     points="1004.24,-154.57 994.21,-151.16 999.93,-160.08 1004.24,-154.57"/>
        </g>
        <!-- mrs.domain.model.reservation.reservation.ReservedTime -->
        <g id="node17" class="node">
            <title>mrs.domain.model.reservation.reservation.ReservedTime</title>
            <polygon fill="#eedd82" stroke="black" points="1135,-151 1037,-151 1037,-113 1135,-113 1135,-151"/>
            <text text-anchor="middle" x="1086" y="-135.8" font-family="Times New Roman,serif" font-size="14.00">予約時間
            </text>
            <text text-anchor="middle" x="1086" y="-120.8" font-family="Times New Roman,serif" font-size="14.00">
                ReservedTime
            </text>
        </g>
        <!-- mrs.domain.model.reservation.reservation.Reservation&#45;&gt;mrs.domain.model.reservation.reservation.ReservedTime -->
        <g id="edge33" class="edge">
            <title>mrs.domain.model.reservation.reservation.Reservation&#45;&gt;mrs.domain.model.reservation.reservation.ReservedTime</title>
            <path fill="none" stroke="black" d="M1068.8,-186.83C1071.29,-179.05 1074.25,-169.77 1077.01,-161.13"/>
            <polygon fill="black" stroke="black" points="1080.41,-162 1080.12,-151.41 1073.74,-159.87 1080.41,-162"/>
        </g>
        <!-- mrs.domain.model.reservation.reservation.ReservationList -->
        <g id="node15" class="node">
            <title>mrs.domain.model.reservation.reservation.ReservationList</title>
            <polygon fill="#eedd82" stroke="black" points="1115,-310 1011,-310 1011,-272 1115,-272 1115,-310"/>
            <text text-anchor="middle" x="1063" y="-294.8" font-family="Times New Roman,serif" font-size="14.00">予約一覧
            </text>
            <text text-anchor="middle" x="1063" y="-279.8" font-family="Times New Roman,serif" font-size="14.00">
                ReservationList
            </text>
        </g>
        <!-- mrs.domain.model.reservation.reservation.ReservationList&#45;&gt;mrs.domain.model.reservation.reservation.Reservation -->
        <g id="edge34" class="edge">
            <title>mrs.domain.model.reservation.reservation.ReservationList&#45;&gt;mrs.domain.model.reservation.reservation.Reservation</title>
            <path fill="none" stroke="black" d="M1063,-271.99C1063,-261.3 1063,-247.5 1063,-235.37"/>
            <polygon fill="black" stroke="black" points="1066.5,-235.26 1063,-225.26 1059.5,-235.26 1066.5,-235.26"/>
        </g>
        <!-- mrs.domain.model.reservation.room.MeetingRoom&#45;&gt;mrs.domain.model.reservation.reservation.ReservableRoom -->
        <g id="edge35" class="edge">
            <title>mrs.domain.model.reservation.room.MeetingRoom&#45;&gt;mrs.domain.model.reservation.reservation.ReservableRoom</title>
            <path fill="none" stroke="black"
                  d="M1352.06,-225.08C1339.25,-235.32 1323.63,-247.7 1308,-256 1299.22,-260.66 1289.69,-264.82 1280.13,-268.48"/>
            <polygon fill="black" stroke="black"
                     points="1278.77,-265.25 1270.59,-271.98 1281.19,-271.82 1278.77,-265.25"/>
        </g>
        <!-- mrs.domain.model.reservation.room.MeetingRoom&#45;&gt;mrs.domain.model.reservation.room.RoomId -->
        <g id="edge36" class="edge">
            <title>mrs.domain.model.reservation.room.MeetingRoom&#45;&gt;mrs.domain.model.reservation.room.RoomId
            </title>
            <path fill="none" stroke="black" d="M1379.25,-186.8C1379.59,-161.89 1380.21,-116.89 1380.61,-87.49"/>
            <polygon fill="black" stroke="black" points="1384.11,-87.47 1380.75,-77.43 1377.11,-87.38 1384.11,-87.47"/>
        </g>
    </g>
</svg>
