<?xml version="1.0" encoding="UTF-8" standalone="no"?>
<!DOCTYPE svg PUBLIC "-//W3C//DTD SVG 1.1//EN"
        "http://www.w3.org/Graphics/SVG/1.1/DTD/svg11.dtd">
<!-- Generated by graphviz version 3.0.0 (20220226.1711)
 -->
<!-- Title: 集中ビジネスルールツリー図 Pages: 1 -->
<svg width="744pt" height="632pt"
     viewBox="0.00 0.00 744.00 631.73" xmlns="http://www.w3.org/2000/svg">
    <g id="graph0" class="graph" transform="scale(1 1) rotate(0) translate(4 627.73)">
        <title>集中ビジネスルールツリー図</title>
        <polygon fill="white" stroke="transparent" points="-4,4 -4,-627.73 740,-627.73 740,4 -4,4"/>
        <text text-anchor="middle" x="368" y="-7.8" font-family="Times New Roman,serif" font-size="14.00">
            集中ビジネスルールツリー図
        </text>
        <!-- mrs.domain.model.auth.user.Password -->
        <g id="node1" class="node">
            <title>mrs.domain.model.auth.user.Password</title>
            <polygon fill="#eedd82" stroke="black" points="463,-486 289,-486 289,-412 463,-412 463,-486"/>
            <text text-anchor="middle" x="376" y="-458" font-family="Times New Roman,serif" font-size="30.00">パスワード
            </text>
            <text text-anchor="middle" x="376" y="-425" font-family="Times New Roman,serif" font-size="30.00">Password
            </text>
        </g>
        <!-- mrs.domain.model.auth.user.RoleName -->
        <g id="node2" class="node">
            <title>mrs.domain.model.auth.user.RoleName</title>
            <polygon fill="#eedd82" stroke="black" points="463,-394 289,-394 289,-320 463,-320 463,-394"/>
            <text text-anchor="middle" x="376" y="-366" font-family="Times New Roman,serif" font-size="30.00">利用者区分
            </text>
            <text text-anchor="middle" x="376" y="-333" font-family="Times New Roman,serif" font-size="30.00">RoleName
            </text>
        </g>
        <!-- mrs.domain.model.auth.user.User -->
        <g id="node3" class="node">
            <title>mrs.domain.model.auth.user.User</title>
            <polygon fill="#eedd82" stroke="black" points="253,-305 142,-305 142,-231 253,-231 253,-305"/>
            <text text-anchor="middle" x="197.5" y="-277" font-family="Times New Roman,serif" font-size="30.00">利用者
            </text>
            <text text-anchor="middle" x="197.5" y="-244" font-family="Times New Roman,serif" font-size="30.00">User
            </text>
        </g>
        <!-- mrs.domain.model.auth.user.User&#45;&gt;mrs.domain.model.auth.user.Password -->
        <g id="edge12" class="edge">
            <title>mrs.domain.model.auth.user.User&#45;&gt;mrs.domain.model.auth.user.Password</title>
            <path fill="none" stroke="black"
                  d="M216.86,-305.14C232.8,-334.51 258.14,-375.07 289,-403 289.95,-403.86 290.93,-404.72 291.92,-405.56"/>
            <polygon fill="black" stroke="black" points="289.79,-408.34 299.8,-411.79 294.13,-402.85 289.79,-408.34"/>
        </g>
        <!-- mrs.domain.model.auth.user.User&#45;&gt;mrs.domain.model.auth.user.RoleName -->
        <g id="edge25" class="edge">
            <title>mrs.domain.model.auth.user.User&#45;&gt;mrs.domain.model.auth.user.RoleName</title>
            <path fill="none" stroke="black" d="M253.38,-295.67C265.71,-301.89 279.06,-308.62 292.25,-315.27"/>
            <polygon fill="black" stroke="black" points="290.84,-318.48 301.34,-319.86 293.99,-312.23 290.84,-318.48"/>
        </g>
        <!-- mrs.domain.model.auth.user.UserId -->
        <g id="node5" class="node">
            <title>mrs.domain.model.auth.user.UserId</title>
            <polygon fill="#eedd82" stroke="black" points="463,-589 289,-589 289,-515 463,-515 463,-589"/>
            <text text-anchor="middle" x="376" y="-561" font-family="Times New Roman,serif" font-size="30.00">利用者番号
            </text>
            <text text-anchor="middle" x="376" y="-528" font-family="Times New Roman,serif" font-size="30.00">UserId
            </text>
        </g>
        <!-- mrs.domain.model.auth.user.User&#45;&gt;mrs.domain.model.auth.user.UserId -->
        <g id="edge21" class="edge">
            <title>mrs.domain.model.auth.user.User&#45;&gt;mrs.domain.model.auth.user.UserId</title>
            <path fill="none" stroke="black"
                  d="M206.08,-305.32C217.37,-353.43 242.44,-437.71 289,-495 292.76,-499.63 297,-504.02 301.53,-508.16"/>
            <polygon fill="black" stroke="black" points="299.52,-511.04 309.39,-514.87 304.06,-505.71 299.52,-511.04"/>
        </g>
        <!-- mrs.domain.model.auth.user.UserName -->
        <g id="node6" class="node">
            <title>mrs.domain.model.auth.user.UserName</title>
            <polygon fill="#eedd82" stroke="black" points="448,-302 304,-302 304,-228 448,-228 448,-302"/>
            <text text-anchor="middle" x="376" y="-274" font-family="Times New Roman,serif" font-size="30.00">氏名</text>
            <text text-anchor="middle" x="376" y="-241" font-family="Times New Roman,serif" font-size="30.00">UserName
            </text>
        </g>
        <!-- mrs.domain.model.auth.user.User&#45;&gt;mrs.domain.model.auth.user.UserName -->
        <g id="edge1" class="edge">
            <title>mrs.domain.model.auth.user.User&#45;&gt;mrs.domain.model.auth.user.UserName</title>
            <path fill="none" stroke="black" d="M253.38,-267.07C266.12,-266.85 279.95,-266.62 293.56,-266.38"/>
            <polygon fill="black" stroke="black" points="293.97,-269.88 303.91,-266.21 293.85,-262.88 293.97,-269.88"/>
        </g>
        <!-- mrs.domain.model.reservation.reservation.Reservation -->
        <g id="node9" class="node">
            <title>mrs.domain.model.reservation.reservation.Reservation</title>
            <polygon fill="#eedd82" stroke="black" points="455,-154 297,-154 297,-80 455,-80 455,-154"/>
            <text text-anchor="middle" x="376" y="-126" font-family="Times New Roman,serif" font-size="30.00">予約</text>
            <text text-anchor="middle" x="376" y="-93" font-family="Times New Roman,serif" font-size="30.00">
                Reservation
            </text>
        </g>
        <!-- mrs.domain.model.auth.user.User&#45;&gt;mrs.domain.model.reservation.reservation.Reservation -->
        <g id="edge16" class="edge">
            <title>mrs.domain.model.auth.user.User&#45;&gt;mrs.domain.model.reservation.reservation.Reservation</title>
            <path fill="none" stroke="black" d="M219.43,-230.84C235.02,-208.5 257.84,-180.58 288.77,-154.66"/>
            <polygon fill="black" stroke="black" points="291.26,-157.14 296.81,-148.11 286.84,-151.71 291.26,-157.14"/>
        </g>
        <!-- mrs.domain.model.auth.user.UserDetailsImpl -->
        <g id="node4" class="node">
            <title>mrs.domain.model.auth.user.UserDetailsImpl</title>
            <polygon fill="lemonchiffon" stroke="black" points="106,-561 0,-561 0,-523 106,-523 106,-561"/>
            <text text-anchor="middle" x="53" y="-545.8" font-family="Times New Roman,serif" font-size="14.00">利用者
            </text>
            <text text-anchor="middle" x="53" y="-530.8" font-family="Times New Roman,serif" font-size="14.00">
                UserDetailsImpl
            </text>
        </g>
        <!-- mrs.domain.model.auth.user.UserDetailsImpl&#45;&gt;mrs.domain.model.auth.user.Password -->
        <g id="edge13" class="edge">
            <title>mrs.domain.model.auth.user.UserDetailsImpl&#45;&gt;mrs.domain.model.auth.user.Password</title>
            <path fill="none" stroke="black"
                  d="M106.19,-533.32C146.71,-525.97 204.05,-514.19 253,-499 262.01,-496.21 271.27,-493.02 280.48,-489.63"/>
            <polygon fill="black" stroke="black" points="281.91,-492.83 290.04,-486.04 279.45,-486.28 281.91,-492.83"/>
        </g>
        <!-- mrs.domain.model.auth.user.UserDetailsImpl&#45;&gt;mrs.domain.model.auth.user.RoleName -->
        <g id="edge26" class="edge">
            <title>mrs.domain.model.auth.user.UserDetailsImpl&#45;&gt;mrs.domain.model.auth.user.RoleName</title>
            <path fill="none" stroke="black"
                  d="M85.3,-522.91C130.1,-495.71 215.27,-444.5 289,-403 291.26,-401.73 293.56,-400.44 295.88,-399.15"/>
            <polygon fill="black" stroke="black" points="297.87,-402.05 304.93,-394.16 294.48,-395.93 297.87,-402.05"/>
        </g>
        <!-- mrs.domain.model.auth.user.UserDetailsImpl&#45;&gt;mrs.domain.model.auth.user.User -->
        <g id="edge4" class="edge">
            <title>mrs.domain.model.auth.user.UserDetailsImpl&#45;&gt;mrs.domain.model.auth.user.User</title>
            <path fill="none" stroke="black" d="M64.02,-522.73C86.38,-479.75 140.85,-375.01 172.55,-314.06"/>
            <polygon fill="black" stroke="black" points="175.73,-315.52 177.24,-305.03 169.52,-312.29 175.73,-315.52"/>
        </g>
        <!-- mrs.domain.model.auth.user.UserDetailsImpl&#45;&gt;mrs.domain.model.auth.user.UserId -->
        <g id="edge22" class="edge">
            <title>mrs.domain.model.auth.user.UserDetailsImpl&#45;&gt;mrs.domain.model.auth.user.UserId</title>
            <path fill="none" stroke="black"
                  d="M70.26,-561.04C86.43,-578.36 112.94,-602.74 142,-613 188.52,-629.43 204.99,-624.33 253,-613 270.79,-608.8 288.95,-601.58 305.63,-593.56"/>
            <polygon fill="black" stroke="black" points="307.34,-596.61 314.74,-589.03 304.23,-590.35 307.34,-596.61"/>
        </g>
        <!-- mrs.domain.model.contact.Contact -->
        <g id="node7" class="node">
            <title>mrs.domain.model.contact.Contact</title>
            <polygon fill="lemonchiffon" stroke="black" points="104.5,-287 1.5,-287 1.5,-249 104.5,-249 104.5,-287"/>
            <text text-anchor="middle" x="53" y="-271.8" font-family="Times New Roman,serif" font-size="14.00">問い合わせ
            </text>
            <text text-anchor="middle" x="53" y="-256.8" font-family="Times New Roman,serif" font-size="14.00">Contact
            </text>
        </g>
        <!-- mrs.domain.model.contact.Contact&#45;&gt;mrs.domain.model.auth.user.User -->
        <g id="edge5" class="edge">
            <title>mrs.domain.model.contact.Contact&#45;&gt;mrs.domain.model.auth.user.User</title>
            <path fill="none" stroke="black" d="M104.64,-268C113.36,-268 122.53,-268 131.56,-268"/>
            <polygon fill="black" stroke="black" points="131.67,-271.5 141.67,-268 131.67,-264.5 131.67,-271.5"/>
        </g>
        <!-- mrs.domain.model.facility.room.MeetingRoom -->
        <g id="node8" class="node">
            <title>mrs.domain.model.facility.room.MeetingRoom</title>
            <polygon fill="lemonchiffon" stroke="black" points="424,-210 328,-210 328,-172 424,-172 424,-210"/>
            <text text-anchor="middle" x="376" y="-194.8" font-family="Times New Roman,serif" font-size="14.00">会議室
            </text>
            <text text-anchor="middle" x="376" y="-179.8" font-family="Times New Roman,serif" font-size="14.00">
                MeetingRoom
            </text>
        </g>
        <!-- mrs.domain.model.reservation.room.ReservableRoom -->
        <g id="node11" class="node">
            <title>mrs.domain.model.reservation.room.ReservableRoom</title>
            <polygon fill="#eedd82" stroke="black" points="736,-154 499,-154 499,-80 736,-80 736,-154"/>
            <text text-anchor="middle" x="617.5" y="-126" font-family="Times New Roman,serif" font-size="30.00">
                予約可能会議室
            </text>
            <text text-anchor="middle" x="617.5" y="-93" font-family="Times New Roman,serif" font-size="30.00">
                ReservableRoom
            </text>
        </g>
        <!-- mrs.domain.model.facility.room.MeetingRoom&#45;&gt;mrs.domain.model.reservation.room.ReservableRoom -->
        <g id="edge9" class="edge">
            <title>mrs.domain.model.facility.room.MeetingRoom&#45;&gt;mrs.domain.model.reservation.room.ReservableRoom
            </title>
            <path fill="none" stroke="black" d="M424.03,-176.47C443.01,-170.6 465.91,-163.53 489.19,-156.34"/>
            <polygon fill="black" stroke="black" points="490.3,-159.66 498.83,-153.36 488.24,-152.97 490.3,-159.66"/>
        </g>
        <!-- mrs.domain.model.reservation.reservation.Reservation&#45;&gt;mrs.domain.model.auth.user.User -->
        <g id="edge6" class="edge">
            <title>mrs.domain.model.reservation.reservation.Reservation&#45;&gt;mrs.domain.model.auth.user.User</title>
            <path fill="none" stroke="black"
                  d="M315.35,-154.05C306.16,-159.55 297.06,-165.54 289,-172 270.43,-186.87 252.71,-205.92 237.95,-223.17"/>
            <polygon fill="black" stroke="black" points="235.15,-221.06 231.38,-230.96 240.5,-225.57 235.15,-221.06"/>
        </g>
        <!-- mrs.domain.model.reservation.reservation.Reservation&#45;&gt;mrs.domain.model.reservation.room.ReservableRoom -->
        <g id="edge10" class="edge">
            <title>mrs.domain.model.reservation.reservation.Reservation&#45;&gt;mrs.domain.model.reservation.room.ReservableRoom</title>
            <path fill="none" stroke="black" d="M455.09,-110.63C465.96,-110.42 477.36,-110.3 488.86,-110.26"/>
            <polygon fill="black" stroke="black" points="488.98,-113.76 498.97,-110.25 488.97,-106.76 488.98,-113.76"/>
        </g>
        <!-- mrs.domain.model.reservation.reservation.ReservationList -->
        <g id="node10" class="node">
            <title>mrs.domain.model.reservation.reservation.ReservationList</title>
            <polygon fill="lemonchiffon" stroke="black" points="249.5,-61 145.5,-61 145.5,-23 249.5,-23 249.5,-61"/>
            <text text-anchor="middle" x="197.5" y="-45.8" font-family="Times New Roman,serif" font-size="14.00">予約一覧
            </text>
            <text text-anchor="middle" x="197.5" y="-30.8" font-family="Times New Roman,serif" font-size="14.00">
                ReservationList
            </text>
        </g>
        <!-- mrs.domain.model.reservation.reservation.ReservationList&#45;&gt;mrs.domain.model.reservation.reservation.Reservation -->
        <g id="edge17" class="edge">
            <title>mrs.domain.model.reservation.reservation.ReservationList&#45;&gt;mrs.domain.model.reservation.reservation.Reservation</title>
            <path fill="none" stroke="black" d="M243.5,-61.12C256.94,-66.83 272.17,-73.31 287.38,-79.77"/>
            <polygon fill="black" stroke="black" points="286.25,-83.09 296.82,-83.78 288.99,-76.65 286.25,-83.09"/>
        </g>
        <!-- mrs.domain.model.reservation.room.ReservableRoom&#45;&gt;mrs.domain.model.reservation.reservation.Reservation -->
        <g id="edge18" class="edge">
            <title>mrs.domain.model.reservation.room.ReservableRoom&#45;&gt;mrs.domain.model.reservation.reservation.Reservation</title>
            <path fill="none" stroke="black" d="M498.97,-123.75C487.58,-123.76 476.15,-123.69 465.11,-123.54"/>
            <polygon fill="black" stroke="black" points="465.15,-120.04 455.09,-123.37 465.03,-127.04 465.15,-120.04"/>
        </g>
        <!-- mrs.domain.model.reservation.room.ReservableRoomList -->
        <g id="node12" class="node">
            <title>mrs.domain.model.reservation.room.ReservableRoomList</title>
            <polygon fill="lemonchiffon" stroke="black" points="462,-62 290,-62 290,-24 462,-24 462,-62"/>
            <text text-anchor="middle" x="376" y="-46.8" font-family="Times New Roman,serif" font-size="14.00">
                予約可能会議室一覧
            </text>
            <text text-anchor="middle" x="376" y="-31.8" font-family="Times New Roman,serif" font-size="14.00">
                ReservableRoomList
            </text>
        </g>
        <!-- mrs.domain.model.reservation.room.ReservableRoomList&#45;&gt;mrs.domain.model.reservation.room.ReservableRoom -->
        <g id="edge11" class="edge">
            <title>mrs.domain.model.reservation.room.ReservableRoomList&#45;&gt;mrs.domain.model.reservation.room.ReservableRoom</title>
            <path fill="none" stroke="black" d="M438.68,-62.06C454.23,-66.86 471.51,-72.2 489.01,-77.61"/>
            <polygon fill="black" stroke="black" points="488.15,-81.01 498.74,-80.62 490.22,-74.32 488.15,-81.01"/>
        </g>
        <!-- mrs.domain.model.user.member.Member -->
        <g id="node13" class="node">
            <title>mrs.domain.model.user.member.Member</title>
            <polygon fill="lemonchiffon" stroke="black" points="84.5,-371 21.5,-371 21.5,-333 84.5,-333 84.5,-371"/>
            <text text-anchor="middle" x="53" y="-355.8" font-family="Times New Roman,serif" font-size="14.00">会員</text>
            <text text-anchor="middle" x="53" y="-340.8" font-family="Times New Roman,serif" font-size="14.00">Member
            </text>
        </g>
        <!-- mrs.domain.model.user.member.Member&#45;&gt;mrs.domain.model.auth.user.Password -->
        <g id="edge14" class="edge">
            <title>mrs.domain.model.user.member.Member&#45;&gt;mrs.domain.model.auth.user.Password</title>
            <path fill="none" stroke="black"
                  d="M71.49,-371.29C87.92,-388.04 114.1,-411.37 142,-423 184.69,-440.8 235.39,-447.92 278.58,-450.33"/>
            <polygon fill="black" stroke="black" points="278.66,-453.84 288.82,-450.83 279,-446.85 278.66,-453.84"/>
        </g>
        <!-- mrs.domain.model.user.member.Member&#45;&gt;mrs.domain.model.auth.user.RoleName -->
        <g id="edge27" class="edge">
            <title>mrs.domain.model.user.member.Member&#45;&gt;mrs.domain.model.auth.user.RoleName</title>
            <path fill="none" stroke="black" d="M84.78,-352.48C129.03,-353.17 212.59,-354.47 278.73,-355.5"/>
            <polygon fill="black" stroke="black" points="278.71,-359 288.77,-355.66 278.82,-352 278.71,-359"/>
        </g>
        <!-- mrs.domain.model.user.member.Member&#45;&gt;mrs.domain.model.auth.user.User -->
        <g id="edge7" class="edge">
            <title>mrs.domain.model.user.member.Member&#45;&gt;mrs.domain.model.auth.user.User</title>
            <path fill="none" stroke="black" d="M84.57,-333.98C98.78,-325.61 116.23,-315.32 133.09,-305.38"/>
            <polygon fill="black" stroke="black" points="134.99,-308.32 141.83,-300.23 131.44,-302.29 134.99,-308.32"/>
        </g>
        <!-- mrs.domain.model.user.member.Member&#45;&gt;mrs.domain.model.auth.user.UserId -->
        <g id="edge23" class="edge">
            <title>mrs.domain.model.user.member.Member&#45;&gt;mrs.domain.model.auth.user.UserId</title>
            <path fill="none" stroke="black"
                  d="M56.73,-371.28C63.36,-410.23 84.29,-497.9 142,-537 181.39,-563.69 233.64,-569.06 278.67,-567.05"/>
            <polygon fill="black" stroke="black" points="278.98,-570.53 288.76,-566.47 278.58,-563.55 278.98,-570.53"/>
        </g>
        <!-- mrs.domain.model.user.member.Member&#45;&gt;mrs.domain.model.auth.user.UserName -->
        <g id="edge2" class="edge">
            <title>mrs.domain.model.user.member.Member&#45;&gt;mrs.domain.model.auth.user.UserName</title>
            <path fill="none" stroke="black"
                  d="M84.78,-348.01C124.26,-342.46 194.61,-331.13 253,-314 266.61,-310.01 280.81,-305.06 294.5,-299.87"/>
            <polygon fill="black" stroke="black" points="295.82,-303.11 303.88,-296.24 293.3,-296.58 295.82,-303.11"/>
        </g>
        <!-- mrs.domain.model.user.member.Member&#45;&gt;mrs.domain.model.reservation.reservation.Reservation -->
        <g id="edge19" class="edge">
            <title>mrs.domain.model.user.member.Member&#45;&gt;mrs.domain.model.reservation.reservation.Reservation
            </title>
            <path fill="none" stroke="black"
                  d="M74.56,-332.75C84.81,-322.48 96.93,-309.24 106,-296 126.67,-265.83 115.76,-247.48 142,-222 182.2,-182.96 239.45,-156.89 287.14,-140.48"/>
            <polygon fill="black" stroke="black" points="288.48,-143.73 296.85,-137.23 286.25,-137.09 288.48,-143.73"/>
        </g>
        <!-- mrs.domain.model.user.staff.Staff -->
        <g id="node14" class="node">
            <title>mrs.domain.model.user.staff.Staff</title>
            <polygon fill="lemonchiffon" stroke="black" points="96,-226 10,-226 10,-188 96,-188 96,-226"/>
            <text text-anchor="middle" x="53" y="-210.8" font-family="Times New Roman,serif" font-size="14.00">スタッフ
            </text>
            <text text-anchor="middle" x="53" y="-195.8" font-family="Times New Roman,serif" font-size="14.00">Staff
            </text>
        </g>
        <!-- mrs.domain.model.user.staff.Staff&#45;&gt;mrs.domain.model.auth.user.Password -->
        <g id="edge15" class="edge">
            <title>mrs.domain.model.user.staff.Staff&#45;&gt;mrs.domain.model.auth.user.Password</title>
            <path fill="none" stroke="black"
                  d="M89.91,-226.04C95.74,-230.14 101.37,-234.82 106,-240 130.36,-267.28 117.35,-286.98 142,-314 193.47,-370.42 222.64,-365.2 289,-403 291.25,-404.28 293.54,-405.58 295.86,-406.88"/>
            <polygon fill="black" stroke="black" points="294.46,-410.1 304.9,-411.9 297.86,-403.98 294.46,-410.1"/>
        </g>
        <!-- mrs.domain.model.user.staff.Staff&#45;&gt;mrs.domain.model.auth.user.RoleName -->
        <g id="edge28" class="edge">
            <title>mrs.domain.model.user.staff.Staff&#45;&gt;mrs.domain.model.auth.user.RoleName</title>
            <path fill="none" stroke="black"
                  d="M96.05,-198.25C139.61,-191.7 207.53,-188.79 253,-222 287.46,-247.17 260.48,-279.26 289,-311 289.62,-311.69 290.25,-312.37 290.89,-313.04"/>
            <polygon fill="black" stroke="black" points="288.53,-315.62 298.21,-319.92 293.32,-310.52 288.53,-315.62"/>
        </g>
        <!-- mrs.domain.model.user.staff.Staff&#45;&gt;mrs.domain.model.auth.user.User -->
        <g id="edge8" class="edge">
            <title>mrs.domain.model.user.staff.Staff&#45;&gt;mrs.domain.model.auth.user.User</title>
            <path fill="none" stroke="black" d="M96.37,-225.14C107.74,-230.01 120.3,-235.38 132.57,-240.63"/>
            <polygon fill="black" stroke="black" points="131.3,-243.89 141.87,-244.61 134.05,-237.46 131.3,-243.89"/>
        </g>
        <!-- mrs.domain.model.user.staff.Staff&#45;&gt;mrs.domain.model.auth.user.UserId -->
        <g id="edge24" class="edge">
            <title>mrs.domain.model.user.staff.Staff&#45;&gt;mrs.domain.model.auth.user.UserId</title>
            <path fill="none" stroke="black"
                  d="M91.45,-226.01C96.9,-230.04 102.01,-234.71 106,-240 140.04,-285.14 111.92,-314.14 142,-362 188.89,-436.59 219.42,-440.95 289,-495 295.07,-499.71 301.52,-504.45 308.05,-509.06"/>
            <polygon fill="black" stroke="black" points="306.13,-511.99 316.34,-514.83 310.13,-506.25 306.13,-511.99"/>
        </g>
        <!-- mrs.domain.model.user.staff.Staff&#45;&gt;mrs.domain.model.auth.user.UserName -->
        <g id="edge3" class="edge">
            <title>mrs.domain.model.user.staff.Staff&#45;&gt;mrs.domain.model.auth.user.UserName</title>
            <path fill="none" stroke="black"
                  d="M96.11,-193.01C137.34,-181.64 201.3,-170.28 253,-189 272.58,-196.09 271.73,-207.36 289,-219 291.09,-220.41 293.23,-221.81 295.4,-223.19"/>
            <polygon fill="black" stroke="black" points="293.58,-226.18 303.92,-228.48 297.26,-220.23 293.58,-226.18"/>
        </g>
        <!-- mrs.domain.model.user.staff.Staff&#45;&gt;mrs.domain.model.reservation.reservation.Reservation -->
        <g id="edge20" class="edge">
            <title>mrs.domain.model.user.staff.Staff&#45;&gt;mrs.domain.model.reservation.reservation.Reservation
            </title>
            <path fill="none" stroke="black"
                  d="M96.27,-191.24C110.68,-186.09 126.96,-180.54 142,-176 189.54,-161.64 243.22,-147.88 287.07,-137.27"/>
            <polygon fill="black" stroke="black" points="287.94,-140.66 296.85,-134.92 286.31,-133.85 287.94,-140.66"/>
        </g>
    </g>
</svg>
