<?xml version="1.0" encoding="UTF-8" standalone="no"?>
<!DOCTYPE svg PUBLIC "-//W3C//DTD SVG 1.1//EN"
        "http://www.w3.org/Graphics/SVG/1.1/DTD/svg11.dtd">
<!-- Generated by graphviz version 3.0.0 (20220226.1711)
 -->
<!-- Title: ビジネスルール関連図 Pages: 1 -->
<svg width="1574pt" height="431pt"
     viewBox="0.00 0.00 1574.00 431.00" xmlns="http://www.w3.org/2000/svg">
    <g id="graph0" class="graph" transform="scale(1 1) rotate(0) translate(4 427)">
        <title>ビジネスルール関連図</title>
        <polygon fill="white" stroke="transparent" points="-4,4 -4,-427 1570,-427 1570,4 -4,4"/>
        <text text-anchor="middle" x="783" y="-7.8" font-family="Times New Roman,serif" font-size="14.00">ビジネスルール関連図
        </text>
        <g id="clust2" class="cluster">
            <title>cluster_mrs.domain.model.auth.user.administrator</title>
            <polygon fill="lemonchiffon" stroke="#eedd82" stroke-width="2"
                     points="873,-338 873,-415 1016,-415 1016,-338 873,-338"/>
            <text text-anchor="middle" x="944.5" y="-399.8" font-family="Times New Roman,serif" font-size="14.00">
                auth.user.administrator
            </text>
        </g>
        <g id="clust3" class="cluster">
            <title>cluster_mrs.domain.model.auth.user.member</title>
            <polygon fill="lemonchiffon" stroke="#eedd82" stroke-width="2"
                     points="588,-264 588,-415 704,-415 704,-264 588,-264"/>
            <text text-anchor="middle" x="646" y="-399.8" font-family="Times New Roman,serif" font-size="14.00">
                auth.user.member
            </text>
        </g>
        <g id="clust4" class="cluster">
            <title>cluster_mrs.domain.model.reservation.reservation</title>
            <polygon fill="lemonchiffon" stroke="#eedd82" stroke-width="2"
                     points="1032,-31 1032,-415 1430,-415 1430,-31 1032,-31"/>
            <text text-anchor="middle" x="1231" y="-399.8" font-family="Times New Roman,serif" font-size="14.00">
                reservation.reservation
            </text>
        </g>
        <g id="clust1" class="cluster">
            <title>cluster_mrs.domain.model.auth.user</title>
            <polygon fill="lemonchiffon" stroke="#eedd82" stroke-width="2"
                     points="8,-106 8,-415 580,-415 580,-106 8,-106"/>
            <text text-anchor="middle" x="294" y="-399.8" font-family="Times New Roman,serif" font-size="14.00">
                auth.user
            </text>
        </g>
        <g id="clust5" class="cluster">
            <title>cluster_mrs.domain.model.reservation.room</title>
            <polygon fill="lemonchiffon" stroke="#eedd82" stroke-width="2"
                     points="1438,-31 1438,-256 1558,-256 1558,-31 1438,-31"/>
            <text text-anchor="middle" x="1498" y="-240.8" font-family="Times New Roman,serif" font-size="14.00">
                reservation.room
            </text>
        </g>
        <!-- mrs.domain.model.auth.user.Password -->
        <g id="node1" class="node">
            <title>mrs.domain.model.auth.user.Password</title>
            <polygon fill="#eedd82" stroke="black" points="357.5,-225 254.5,-225 254.5,-187 357.5,-187 357.5,-225"/>
            <text text-anchor="middle" x="306" y="-209.8" font-family="Times New Roman,serif" font-size="14.00">パスワード
            </text>
            <text text-anchor="middle" x="306" y="-194.8" font-family="Times New Roman,serif" font-size="14.00">
                Password
            </text>
        </g>
        <!-- mrs.domain.model.auth.user.PasswordException -->
        <g id="node2" class="node">
            <title>mrs.domain.model.auth.user.PasswordException</title>
            <polygon fill="#eedd82" stroke="black" points="378,-150 250,-150 250,-114 378,-114 378,-150"/>
            <text text-anchor="middle" x="314" y="-128.3" font-family="Times New Roman,serif" font-size="14.00">
                PasswordException
            </text>
        </g>
        <!-- mrs.domain.model.auth.user.Password&#45;&gt;mrs.domain.model.auth.user.PasswordException -->
        <g id="edge14" class="edge">
            <title>mrs.domain.model.auth.user.Password&#45;&gt;mrs.domain.model.auth.user.PasswordException</title>
            <path fill="none" stroke="black" d="M308.02,-186.83C308.9,-178.89 309.95,-169.41 310.93,-160.63"/>
            <polygon fill="black" stroke="black" points="314.44,-160.74 312.06,-150.42 307.48,-159.97 314.44,-160.74"/>
        </g>
        <!-- mrs.domain.model.auth.user.RoleName -->
        <g id="node3" class="node">
            <title>mrs.domain.model.auth.user.RoleName</title>
            <polygon fill="#eedd82" stroke="black" points="478.5,-225 375.5,-225 375.5,-187 478.5,-187 478.5,-225"/>
            <text text-anchor="middle" x="427" y="-209.8" font-family="Times New Roman,serif" font-size="14.00">利用者区分
            </text>
            <text text-anchor="middle" x="427" y="-194.8" font-family="Times New Roman,serif" font-size="14.00">
                RoleName
            </text>
        </g>
        <!-- mrs.domain.model.auth.user.User -->
        <g id="node4" class="node">
            <title>mrs.domain.model.auth.user.User</title>
            <polygon fill="#eedd82" stroke="black" points="461,-310 393,-310 393,-272 461,-272 461,-310"/>
            <text text-anchor="middle" x="427" y="-294.8" font-family="Times New Roman,serif" font-size="14.00">利用者
            </text>
            <text text-anchor="middle" x="427" y="-279.8" font-family="Times New Roman,serif" font-size="14.00">User
            </text>
        </g>
        <!-- mrs.domain.model.auth.user.User&#45;&gt;mrs.domain.model.auth.user.Password -->
        <g id="edge15" class="edge">
            <title>mrs.domain.model.auth.user.User&#45;&gt;mrs.domain.model.auth.user.Password</title>
            <path fill="none" stroke="black"
                  d="M392.8,-272.33C383.89,-267.35 374.42,-261.72 366,-256 355.22,-248.68 344.01,-239.88 334.23,-231.77"/>
            <polygon fill="black" stroke="black" points="336.3,-228.94 326.4,-225.17 331.79,-234.3 336.3,-228.94"/>
        </g>
        <!-- mrs.domain.model.auth.user.User&#45;&gt;mrs.domain.model.auth.user.RoleName -->
        <g id="edge16" class="edge">
            <title>mrs.domain.model.auth.user.User&#45;&gt;mrs.domain.model.auth.user.RoleName</title>
            <path fill="none" stroke="black" d="M427,-271.99C427,-261.3 427,-247.5 427,-235.37"/>
            <polygon fill="black" stroke="black" points="430.5,-235.26 427,-225.26 423.5,-235.26 430.5,-235.26"/>
        </g>
        <!-- mrs.domain.model.auth.user.UserException -->
        <g id="node6" class="node">
            <title>mrs.domain.model.auth.user.UserException</title>
            <polygon fill="#eedd82" stroke="black" points="115.5,-224 16.5,-224 16.5,-188 115.5,-188 115.5,-224"/>
            <text text-anchor="middle" x="66" y="-202.3" font-family="Times New Roman,serif" font-size="14.00">
                UserException
            </text>
        </g>
        <!-- mrs.domain.model.auth.user.User&#45;&gt;mrs.domain.model.auth.user.UserException -->
        <g id="edge17" class="edge">
            <title>mrs.domain.model.auth.user.User&#45;&gt;mrs.domain.model.auth.user.UserException</title>
            <path fill="none" stroke="black"
                  d="M392.98,-288.67C324.34,-285.57 171.71,-276.54 124,-256 110.82,-250.32 98.35,-240.61 88.39,-231.32"/>
            <polygon fill="black" stroke="black" points="90.55,-228.55 80.96,-224.05 85.65,-233.55 90.55,-228.55"/>
        </g>
        <!-- mrs.domain.model.auth.user.UserId -->
        <g id="node7" class="node">
            <title>mrs.domain.model.auth.user.UserId</title>
            <polygon fill="#eedd82" stroke="black" points="236.5,-225 133.5,-225 133.5,-187 236.5,-187 236.5,-225"/>
            <text text-anchor="middle" x="185" y="-209.8" font-family="Times New Roman,serif" font-size="14.00">利用者番号
            </text>
            <text text-anchor="middle" x="185" y="-194.8" font-family="Times New Roman,serif" font-size="14.00">UserId
            </text>
        </g>
        <!-- mrs.domain.model.auth.user.User&#45;&gt;mrs.domain.model.auth.user.UserId -->
        <g id="edge18" class="edge">
            <title>mrs.domain.model.auth.user.User&#45;&gt;mrs.domain.model.auth.user.UserId</title>
            <path fill="none" stroke="black"
                  d="M392.94,-288.66C355.18,-286.05 293.25,-278.41 245,-256 232.3,-250.1 220,-240.89 209.88,-232.04"/>
            <polygon fill="black" stroke="black" points="212.01,-229.25 202.26,-225.09 207.29,-234.42 212.01,-229.25"/>
        </g>
        <!-- mrs.domain.model.auth.user.UserName -->
        <g id="node9" class="node">
            <title>mrs.domain.model.auth.user.UserName</title>
            <polygon fill="#eedd82" stroke="black" points="571.5,-225 496.5,-225 496.5,-187 571.5,-187 571.5,-225"/>
            <text text-anchor="middle" x="534" y="-209.8" font-family="Times New Roman,serif" font-size="14.00">氏名
            </text>
            <text text-anchor="middle" x="534" y="-194.8" font-family="Times New Roman,serif" font-size="14.00">
                UserName
            </text>
        </g>
        <!-- mrs.domain.model.auth.user.User&#45;&gt;mrs.domain.model.auth.user.UserName -->
        <g id="edge19" class="edge">
            <title>mrs.domain.model.auth.user.User&#45;&gt;mrs.domain.model.auth.user.UserName</title>
            <path fill="none" stroke="black"
                  d="M461.11,-272.94C469.87,-267.96 479.06,-262.17 487,-256 495.79,-249.16 504.5,-240.7 511.98,-232.73"/>
            <polygon fill="black" stroke="black" points="514.87,-234.77 519.02,-225.02 509.7,-230.05 514.87,-234.77"/>
        </g>
        <!-- mrs.domain.model.reservation.reservation.Reservation -->
        <g id="node16" class="node">
            <title>mrs.domain.model.reservation.reservation.Reservation</title>
            <polygon fill="#eedd82" stroke="black"
                     points="1221.5,-225 1138.5,-225 1138.5,-187 1221.5,-187 1221.5,-225"/>
            <text text-anchor="middle" x="1180" y="-209.8" font-family="Times New Roman,serif" font-size="14.00">予約
            </text>
            <text text-anchor="middle" x="1180" y="-194.8" font-family="Times New Roman,serif" font-size="14.00">
                Reservation
            </text>
        </g>
        <!-- mrs.domain.model.auth.user.User&#45;&gt;mrs.domain.model.reservation.reservation.Reservation -->
        <g id="edge20" class="edge">
            <title>mrs.domain.model.auth.user.User&#45;&gt;mrs.domain.model.reservation.reservation.Reservation</title>
            <path fill="none" stroke="black"
                  d="M461.12,-282.32C491.12,-276.68 535.69,-269.13 575,-264 778.74,-237.42 1023.18,-217.9 1128.15,-210.39"/>
            <polygon fill="black" stroke="black"
                     points="1128.43,-213.88 1138.16,-209.68 1127.94,-206.9 1128.43,-213.88"/>
        </g>
        <!-- mrs.domain.model.auth.user.UserDetailsImpl -->
        <g id="node5" class="node">
            <title>mrs.domain.model.auth.user.UserDetailsImpl</title>
            <polygon fill="#eedd82" stroke="black" points="387,-384 281,-384 281,-346 387,-346 387,-384"/>
            <text text-anchor="middle" x="334" y="-368.8" font-family="Times New Roman,serif" font-size="14.00">利用者
            </text>
            <text text-anchor="middle" x="334" y="-353.8" font-family="Times New Roman,serif" font-size="14.00">
                UserDetailsImpl
            </text>
        </g>
        <!-- mrs.domain.model.auth.user.UserDetailsImpl&#45;&gt;mrs.domain.model.auth.user.Password -->
        <g id="edge21" class="edge">
            <title>mrs.domain.model.auth.user.UserDetailsImpl&#45;&gt;mrs.domain.model.auth.user.Password</title>
            <path fill="none" stroke="black" d="M330.79,-345.99C325.96,-318.93 316.79,-267.52 311.06,-235.38"/>
            <polygon fill="black" stroke="black" points="314.46,-234.51 309.26,-225.28 307.57,-235.74 314.46,-234.51"/>
        </g>
        <!-- mrs.domain.model.auth.user.UserDetailsImpl&#45;&gt;mrs.domain.model.auth.user.RoleName -->
        <g id="edge22" class="edge">
            <title>mrs.domain.model.auth.user.UserDetailsImpl&#45;&gt;mrs.domain.model.auth.user.RoleName</title>
            <path fill="none" stroke="black"
                  d="M341.9,-345.77C351.04,-325.3 367.02,-291.39 384,-264 390.52,-253.49 398.49,-242.51 405.78,-233.03"/>
            <polygon fill="black" stroke="black" points="408.56,-235.16 411.97,-225.13 403.05,-230.84 408.56,-235.16"/>
        </g>
        <!-- mrs.domain.model.auth.user.UserDetailsImpl&#45;&gt;mrs.domain.model.auth.user.User -->
        <g id="edge23" class="edge">
            <title>mrs.domain.model.auth.user.UserDetailsImpl&#45;&gt;mrs.domain.model.auth.user.User</title>
            <path fill="none" stroke="black" d="M357.47,-345.83C369.03,-336.88 383.14,-325.96 395.62,-316.3"/>
            <polygon fill="black" stroke="black" points="397.78,-319.05 403.54,-310.16 393.49,-313.52 397.78,-319.05"/>
        </g>
        <!-- mrs.domain.model.auth.user.UserDetailsImpl&#45;&gt;mrs.domain.model.auth.user.UserId -->
        <g id="edge24" class="edge">
            <title>mrs.domain.model.auth.user.UserDetailsImpl&#45;&gt;mrs.domain.model.auth.user.UserId</title>
            <path fill="none" stroke="black" d="M316.91,-345.99C290.55,-318.22 239.88,-264.82 209.59,-232.91"/>
            <polygon fill="black" stroke="black" points="211.77,-230.13 202.35,-225.28 206.7,-234.95 211.77,-230.13"/>
        </g>
        <!-- mrs.domain.model.auth.user.UserIdException -->
        <g id="node8" class="node">
            <title>mrs.domain.model.auth.user.UserIdException</title>
            <polygon fill="#eedd82" stroke="black" points="231.5,-150 120.5,-150 120.5,-114 231.5,-114 231.5,-150"/>
            <text text-anchor="middle" x="176" y="-128.3" font-family="Times New Roman,serif" font-size="14.00">
                UserIdException
            </text>
        </g>
        <!-- mrs.domain.model.auth.user.UserId&#45;&gt;mrs.domain.model.auth.user.UserIdException -->
        <g id="edge25" class="edge">
            <title>mrs.domain.model.auth.user.UserId&#45;&gt;mrs.domain.model.auth.user.UserIdException</title>
            <path fill="none" stroke="black" d="M182.73,-186.83C181.74,-178.89 180.55,-169.41 179.45,-160.63"/>
            <polygon fill="black" stroke="black" points="182.89,-159.91 178.18,-150.42 175.94,-160.77 182.89,-159.91"/>
        </g>
        <!-- mrs.domain.model.auth.user.administrator.Administrator -->
        <g id="node10" class="node">
            <title>mrs.domain.model.auth.user.administrator.Administrator</title>
            <polygon fill="#eedd82" stroke="black" points="999.5,-384 906.5,-384 906.5,-346 999.5,-346 999.5,-384"/>
            <text text-anchor="middle" x="953" y="-368.8" font-family="Times New Roman,serif" font-size="14.00">管理者
            </text>
            <text text-anchor="middle" x="953" y="-353.8" font-family="Times New Roman,serif" font-size="14.00">
                Administrator
            </text>
        </g>
        <!-- mrs.domain.model.auth.user.administrator.Administrator&#45;&gt;mrs.domain.model.auth.user.Password -->
        <g id="edge1" class="edge">
            <title>mrs.domain.model.auth.user.administrator.Administrator&#45;&gt;mrs.domain.model.auth.user.Password
            </title>
            <path fill="none" stroke="black"
                  d="M951.8,-345.89C949.18,-322.5 940.79,-282.6 914,-264 888.99,-246.64 394.6,-266.43 366,-256 352.31,-251.01 339.45,-241.46 329.18,-232.11"/>
            <polygon fill="black" stroke="black" points="331.5,-229.48 321.86,-225.08 326.65,-234.53 331.5,-229.48"/>
        </g>
        <!-- mrs.domain.model.auth.user.administrator.Administrator&#45;&gt;mrs.domain.model.auth.user.RoleName -->
        <g id="edge2" class="edge">
            <title>mrs.domain.model.auth.user.administrator.Administrator&#45;&gt;mrs.domain.model.auth.user.RoleName
            </title>
            <path fill="none" stroke="black"
                  d="M959.54,-345.61C966.26,-323.05 973.04,-285.19 952,-264 942.9,-254.83 499.13,-260.44 487,-256 473.31,-250.99 460.46,-241.44 450.19,-232.09"/>
            <polygon fill="black" stroke="black" points="452.51,-229.46 442.87,-225.06 447.66,-234.51 452.51,-229.46"/>
        </g>
        <!-- mrs.domain.model.auth.user.administrator.Administrator&#45;&gt;mrs.domain.model.auth.user.User -->
        <g id="edge3" class="edge">
            <title>mrs.domain.model.auth.user.administrator.Administrator&#45;&gt;mrs.domain.model.auth.user.User
            </title>
            <path fill="none" stroke="black" d="M906.32,-357.61C805.77,-343.85 569.85,-311.55 471.39,-298.08"/>
            <polygon fill="black" stroke="black" points="471.57,-294.57 461.19,-296.68 470.62,-301.5 471.57,-294.57"/>
        </g>
        <!-- mrs.domain.model.auth.user.administrator.Administrator&#45;&gt;mrs.domain.model.auth.user.UserId -->
        <g id="edge4" class="edge">
            <title>mrs.domain.model.auth.user.administrator.Administrator&#45;&gt;mrs.domain.model.auth.user.UserId
            </title>
            <path fill="none" stroke="black"
                  d="M920.16,-345.98C874.28,-321.89 787.66,-280.35 708,-264 657.6,-253.66 293.31,-273.69 245,-256 231.31,-250.99 218.46,-241.44 208.19,-232.09"/>
            <polygon fill="black" stroke="black" points="210.51,-229.46 200.87,-225.06 205.66,-234.51 210.51,-229.46"/>
        </g>
        <!-- mrs.domain.model.auth.user.administrator.Administrator&#45;&gt;mrs.domain.model.auth.user.UserName -->
        <g id="edge5" class="edge">
            <title>mrs.domain.model.auth.user.administrator.Administrator&#45;&gt;mrs.domain.model.auth.user.UserName
            </title>
            <path fill="none" stroke="black"
                  d="M969.77,-345.71C987.68,-323.95 1010.83,-287.59 990,-264 963.27,-233.73 693.59,-215.68 581.97,-209.46"/>
            <polygon fill="black" stroke="black" points="581.85,-205.95 571.68,-208.9 581.47,-212.94 581.85,-205.95"/>
        </g>
        <!-- mrs.domain.model.auth.user.administrator.Administrator&#45;&gt;mrs.domain.model.reservation.reservation.Reservation -->
        <g id="edge6" class="edge">
            <title>mrs.domain.model.auth.user.administrator.Administrator&#45;&gt;mrs.domain.model.reservation.reservation.Reservation</title>
            <path fill="none" stroke="black" d="M979.04,-345.99C1020.07,-317.61 1099.78,-262.48 1145.52,-230.85"/>
            <polygon fill="black" stroke="black"
                     points="1147.68,-233.61 1153.92,-225.04 1143.7,-227.85 1147.68,-233.61"/>
        </g>
        <!-- mrs.domain.model.auth.user.member.Member -->
        <g id="node11" class="node">
            <title>mrs.domain.model.auth.user.member.Member</title>
            <polygon fill="#eedd82" stroke="black" points="695.5,-384 632.5,-384 632.5,-346 695.5,-346 695.5,-384"/>
            <text text-anchor="middle" x="664" y="-368.8" font-family="Times New Roman,serif" font-size="14.00">会員
            </text>
            <text text-anchor="middle" x="664" y="-353.8" font-family="Times New Roman,serif" font-size="14.00">Member
            </text>
        </g>
        <!-- mrs.domain.model.auth.user.member.Member&#45;&gt;mrs.domain.model.auth.user.Password -->
        <g id="edge7" class="edge">
            <title>mrs.domain.model.auth.user.member.Member&#45;&gt;mrs.domain.model.auth.user.Password</title>
            <path fill="none" stroke="black"
                  d="M693.22,-345.82C705.11,-336.68 717.56,-324.47 724,-310 732.32,-291.32 738.29,-278.62 724,-264 710.09,-249.78 384.66,-262.89 366,-256 352.33,-250.95 339.48,-241.4 329.2,-232.06"/>
            <polygon fill="black" stroke="black" points="331.52,-229.43 321.88,-225.03 326.67,-234.48 331.52,-229.43"/>
        </g>
        <!-- mrs.domain.model.auth.user.member.Member&#45;&gt;mrs.domain.model.auth.user.RoleName -->
        <g id="edge8" class="edge">
            <title>mrs.domain.model.auth.user.member.Member&#45;&gt;mrs.domain.model.auth.user.RoleName</title>
            <path fill="none" stroke="black"
                  d="M695.69,-355.87C718.54,-348.16 747.77,-334.08 762,-310 772.4,-292.4 776.24,-278.67 762,-264 751.35,-253.04 501.32,-261.34 487,-256 473.54,-250.98 460.87,-241.62 450.68,-232.42"/>
            <polygon fill="black" stroke="black" points="453.05,-229.84 443.39,-225.49 448.22,-234.92 453.05,-229.84"/>
        </g>
        <!-- mrs.domain.model.auth.user.member.Member&#45;&gt;mrs.domain.model.auth.user.User -->
        <g id="edge9" class="edge">
            <title>mrs.domain.model.auth.user.member.Member&#45;&gt;mrs.domain.model.auth.user.User</title>
            <path fill="none" stroke="black"
                  d="M632.15,-353.41C617.51,-348.61 599.91,-342.91 584,-338 545.92,-326.24 502.42,-313.55 470.88,-304.48"/>
            <polygon fill="black" stroke="black" points="471.66,-301.07 461.08,-301.67 469.73,-307.8 471.66,-301.07"/>
        </g>
        <!-- mrs.domain.model.auth.user.member.Member&#45;&gt;mrs.domain.model.auth.user.UserId -->
        <g id="edge10" class="edge">
            <title>mrs.domain.model.auth.user.member.Member&#45;&gt;mrs.domain.model.auth.user.UserId</title>
            <path fill="none" stroke="black"
                  d="M677.81,-345.89C693.04,-323.62 712.67,-286.07 691,-264 682.32,-255.16 256.63,-260.26 245,-256 231.32,-250.98 218.46,-241.43 208.19,-232.09"/>
            <polygon fill="black" stroke="black" points="210.51,-229.46 200.87,-225.06 205.66,-234.51 210.51,-229.46"/>
        </g>
        <!-- mrs.domain.model.auth.user.member.Member&#45;&gt;mrs.domain.model.auth.user.UserName -->
        <g id="edge11" class="edge">
            <title>mrs.domain.model.auth.user.member.Member&#45;&gt;mrs.domain.model.auth.user.UserName</title>
            <path fill="none" stroke="black"
                  d="M695.6,-361.36C727.97,-356.78 776.74,-344.26 800,-310 811.48,-293.09 812.85,-279.9 800,-264 773.06,-230.68 650.7,-215.96 581.7,-210.21"/>
            <polygon fill="black" stroke="black" points="581.76,-206.7 571.51,-209.39 581.2,-213.68 581.76,-206.7"/>
        </g>
        <!-- mrs.domain.model.auth.user.member.MemberId -->
        <g id="node12" class="node">
            <title>mrs.domain.model.auth.user.member.MemberId</title>
            <polygon fill="#eedd82" stroke="black" points="682,-310 596,-310 596,-272 682,-272 682,-310"/>
            <text text-anchor="middle" x="639" y="-294.8" font-family="Times New Roman,serif" font-size="14.00">会員番号
            </text>
            <text text-anchor="middle" x="639" y="-279.8" font-family="Times New Roman,serif" font-size="14.00">
                MemberId
            </text>
        </g>
        <!-- mrs.domain.model.auth.user.member.Member&#45;&gt;mrs.domain.model.auth.user.member.MemberId -->
        <g id="edge12" class="edge">
            <title>mrs.domain.model.auth.user.member.Member&#45;&gt;mrs.domain.model.auth.user.member.MemberId</title>
            <path fill="none" stroke="black" d="M657.69,-345.83C654.99,-338.05 651.77,-328.77 648.77,-320.13"/>
            <polygon fill="black" stroke="black" points="651.98,-318.71 645.39,-310.41 645.37,-321.01 651.98,-318.71"/>
        </g>
        <!-- mrs.domain.model.auth.user.member.Member&#45;&gt;mrs.domain.model.reservation.reservation.Reservation -->
        <g id="edge13" class="edge">
            <title>
                mrs.domain.model.auth.user.member.Member&#45;&gt;mrs.domain.model.reservation.reservation.Reservation
            </title>
            <path fill="none" stroke="black" d="M695.5,-354.42C781.77,-328.17 1022.49,-254.92 1128.62,-222.63"/>
            <polygon fill="black" stroke="black" points="1129.92,-225.9 1138.46,-219.64 1127.88,-219.2 1129.92,-225.9"/>
        </g>
        <!-- mrs.domain.model.reservation.reservation.ReservableRoom -->
        <g id="node13" class="node">
            <title>mrs.domain.model.reservation.reservation.ReservableRoom</title>
            <polygon fill="#eedd82" stroke="black"
                     points="1395.5,-310 1258.5,-310 1258.5,-272 1395.5,-272 1395.5,-310"/>
            <text text-anchor="middle" x="1327" y="-294.8" font-family="Times New Roman,serif" font-size="14.00">
                予約可能会議室
            </text>
            <text text-anchor="middle" x="1327" y="-279.8" font-family="Times New Roman,serif" font-size="14.00">
                ReservableRoom
            </text>
        </g>
        <!-- mrs.domain.model.reservation.reservation.ReservableRoomId -->
        <g id="node14" class="node">
            <title>mrs.domain.model.reservation.reservation.ReservableRoomId</title>
            <polygon fill="#eedd82" stroke="black" points="1422,-151 1270,-151 1270,-113 1422,-113 1422,-151"/>
            <text text-anchor="middle" x="1346" y="-135.8" font-family="Times New Roman,serif" font-size="14.00">
                予約可能会議室ID
            </text>
            <text text-anchor="middle" x="1346" y="-120.8" font-family="Times New Roman,serif" font-size="14.00">
                ReservableRoomId
            </text>
        </g>
        <!-- mrs.domain.model.reservation.reservation.ReservableRoom&#45;&gt;mrs.domain.model.reservation.reservation.ReservableRoomId -->
        <g id="edge26" class="edge">
            <title>mrs.domain.model.reservation.reservation.ReservableRoom&#45;&gt;mrs.domain.model.reservation.reservation.ReservableRoomId</title>
            <path fill="none" stroke="black" d="M1329.18,-271.99C1332.45,-244.93 1338.68,-193.52 1342.57,-161.38"/>
            <polygon fill="black" stroke="black"
                     points="1346.06,-161.63 1343.79,-151.28 1339.11,-160.79 1346.06,-161.63"/>
        </g>
        <!-- mrs.domain.model.reservation.reservation.ReservableRoom&#45;&gt;mrs.domain.model.reservation.reservation.Reservation -->
        <g id="edge27" class="edge">
            <title>mrs.domain.model.reservation.reservation.ReservableRoom&#45;&gt;mrs.domain.model.reservation.reservation.Reservation</title>
            <path fill="none" stroke="black" d="M1289.42,-271.99C1266.65,-259.84 1237.88,-243.68 1215.49,-230.51"/>
            <polygon fill="black" stroke="black"
                     points="1217.02,-227.35 1206.64,-225.26 1213.45,-233.37 1217.02,-227.35"/>
        </g>
        <!-- mrs.domain.model.reservation.room.MeetingRoom -->
        <g id="node21" class="node">
            <title>mrs.domain.model.reservation.room.MeetingRoom</title>
            <polygon fill="#eedd82" stroke="black" points="1544,-225 1448,-225 1448,-187 1544,-187 1544,-225"/>
            <text text-anchor="middle" x="1496" y="-209.8" font-family="Times New Roman,serif" font-size="14.00">会議室
            </text>
            <text text-anchor="middle" x="1496" y="-194.8" font-family="Times New Roman,serif" font-size="14.00">
                MeetingRoom
            </text>
        </g>
        <!-- mrs.domain.model.reservation.reservation.ReservableRoom&#45;&gt;mrs.domain.model.reservation.room.MeetingRoom -->
        <g id="edge28" class="edge">
            <title>mrs.domain.model.reservation.reservation.ReservableRoom&#45;&gt;mrs.domain.model.reservation.room.MeetingRoom</title>
            <path fill="none" stroke="black"
                  d="M1395.53,-275.16C1411.66,-270.13 1428.37,-263.77 1443,-256 1455.12,-249.56 1467.23,-240.68 1476.95,-232.24"/>
            <polygon fill="black" stroke="black" points="1479.5,-234.66 1484.51,-225.32 1474.77,-229.5 1479.5,-234.66"/>
        </g>
        <!-- mrs.domain.model.reservation.reservation.ReservedDate -->
        <g id="node19" class="node">
            <title>mrs.domain.model.reservation.reservation.ReservedDate</title>
            <polygon fill="#eedd82" stroke="black" points="1393.5,-77 1298.5,-77 1298.5,-39 1393.5,-39 1393.5,-77"/>
            <text text-anchor="middle" x="1346" y="-61.8" font-family="Times New Roman,serif" font-size="14.00">予約日
            </text>
            <text text-anchor="middle" x="1346" y="-46.8" font-family="Times New Roman,serif" font-size="14.00">
                ReservedDate
            </text>
        </g>
        <!-- mrs.domain.model.reservation.reservation.ReservableRoomId&#45;&gt;mrs.domain.model.reservation.reservation.ReservedDate -->
        <g id="edge29" class="edge">
            <title>mrs.domain.model.reservation.reservation.ReservableRoomId&#45;&gt;mrs.domain.model.reservation.reservation.ReservedDate</title>
            <path fill="none" stroke="black" d="M1346,-112.83C1346,-105.13 1346,-95.97 1346,-87.42"/>
            <polygon fill="black" stroke="black" points="1349.5,-87.41 1346,-77.41 1342.5,-87.41 1349.5,-87.41"/>
        </g>
        <!-- mrs.domain.model.reservation.room.RoomId -->
        <g id="node22" class="node">
            <title>mrs.domain.model.reservation.room.RoomId</title>
            <polygon fill="#eedd82" stroke="black" points="1549.5,-77 1446.5,-77 1446.5,-39 1549.5,-39 1549.5,-77"/>
            <text text-anchor="middle" x="1498" y="-61.8" font-family="Times New Roman,serif" font-size="14.00">会議室番号
            </text>
            <text text-anchor="middle" x="1498" y="-46.8" font-family="Times New Roman,serif" font-size="14.00">RoomId
            </text>
        </g>
        <!-- mrs.domain.model.reservation.reservation.ReservableRoomId&#45;&gt;mrs.domain.model.reservation.room.RoomId -->
        <g id="edge30" class="edge">
            <title>mrs.domain.model.reservation.reservation.ReservableRoomId&#45;&gt;mrs.domain.model.reservation.room.RoomId</title>
            <path fill="none" stroke="black" d="M1384.36,-112.83C1404.5,-103.29 1429.38,-91.51 1450.71,-81.4"/>
            <polygon fill="black" stroke="black" points="1452.38,-84.48 1459.92,-77.04 1449.38,-78.16 1452.38,-84.48"/>
        </g>
        <!-- mrs.domain.model.reservation.reservation.ReservableRoomList -->
        <g id="node15" class="node">
            <title>mrs.domain.model.reservation.reservation.ReservableRoomList</title>
            <polygon fill="#eedd82" stroke="black" points="1413,-384 1241,-384 1241,-346 1413,-346 1413,-384"/>
            <text text-anchor="middle" x="1327" y="-368.8" font-family="Times New Roman,serif" font-size="14.00">
                予約可能会議室一覧
            </text>
            <text text-anchor="middle" x="1327" y="-353.8" font-family="Times New Roman,serif" font-size="14.00">
                ReservableRoomList
            </text>
        </g>
        <!-- mrs.domain.model.reservation.reservation.ReservableRoomList&#45;&gt;mrs.domain.model.reservation.reservation.ReservableRoom -->
        <g id="edge31" class="edge">
            <title>mrs.domain.model.reservation.reservation.ReservableRoomList&#45;&gt;mrs.domain.model.reservation.reservation.ReservableRoom</title>
            <path fill="none" stroke="black" d="M1327,-345.83C1327,-338.13 1327,-328.97 1327,-320.42"/>
            <polygon fill="black" stroke="black" points="1330.5,-320.41 1327,-310.41 1323.5,-320.41 1330.5,-320.41"/>
        </g>
        <!-- mrs.domain.model.reservation.reservation.Reservation&#45;&gt;mrs.domain.model.auth.user.User -->
        <g id="edge32" class="edge">
            <title>mrs.domain.model.reservation.reservation.Reservation&#45;&gt;mrs.domain.model.auth.user.User</title>
            <path fill="none" stroke="black"
                  d="M1138.35,-210.35C1042,-217.84 797.08,-237.37 593,-264 551.79,-269.38 504.79,-277.41 471.22,-283.13"/>
            <polygon fill="black" stroke="black" points="470.53,-279.69 461.25,-284.82 471.7,-286.59 470.53,-279.69"/>
        </g>
        <!-- mrs.domain.model.reservation.reservation.Reservation&#45;&gt;mrs.domain.model.reservation.reservation.ReservableRoom -->
        <g id="edge33" class="edge">
            <title>mrs.domain.model.reservation.reservation.Reservation&#45;&gt;mrs.domain.model.reservation.reservation.ReservableRoom</title>
            <path fill="none" stroke="black" d="M1217.78,-225.12C1240.66,-237.34 1269.56,-253.57 1291.94,-266.74"/>
            <polygon fill="black" stroke="black"
                     points="1290.4,-269.89 1300.78,-271.99 1293.97,-263.88 1290.4,-269.89"/>
        </g>
        <!-- mrs.domain.model.reservation.reservation.Reservation&#45;&gt;mrs.domain.model.reservation.reservation.ReservableRoomId -->
        <g id="edge34" class="edge">
            <title>mrs.domain.model.reservation.reservation.Reservation&#45;&gt;mrs.domain.model.reservation.reservation.ReservableRoomId</title>
            <path fill="none" stroke="black" d="M1221.89,-186.83C1244.09,-177.2 1271.54,-165.29 1294.98,-155.13"/>
            <polygon fill="black" stroke="black"
                     points="1296.63,-158.23 1304.41,-151.04 1293.85,-151.81 1296.63,-158.23"/>
        </g>
        <!-- mrs.domain.model.reservation.reservation.ReservationId -->
        <g id="node17" class="node">
            <title>mrs.domain.model.reservation.reservation.ReservationId</title>
            <polygon fill="#eedd82" stroke="black"
                     points="1135.5,-151 1040.5,-151 1040.5,-113 1135.5,-113 1135.5,-151"/>
            <text text-anchor="middle" x="1088" y="-135.8" font-family="Times New Roman,serif" font-size="14.00">予約番号
            </text>
            <text text-anchor="middle" x="1088" y="-120.8" font-family="Times New Roman,serif" font-size="14.00">
                ReservationId
            </text>
        </g>
        <!-- mrs.domain.model.reservation.reservation.Reservation&#45;&gt;mrs.domain.model.reservation.reservation.ReservationId -->
        <g id="edge35" class="edge">
            <title>mrs.domain.model.reservation.reservation.Reservation&#45;&gt;mrs.domain.model.reservation.reservation.ReservationId</title>
            <path fill="none" stroke="black" d="M1156.78,-186.83C1145.45,-177.96 1131.65,-167.16 1119.4,-157.57"/>
            <polygon fill="black" stroke="black"
                     points="1121.24,-154.57 1111.21,-151.16 1116.93,-160.08 1121.24,-154.57"/>
        </g>
        <!-- mrs.domain.model.reservation.reservation.ReservedTime -->
        <g id="node20" class="node">
            <title>mrs.domain.model.reservation.reservation.ReservedTime</title>
            <polygon fill="#eedd82" stroke="black" points="1252,-151 1154,-151 1154,-113 1252,-113 1252,-151"/>
            <text text-anchor="middle" x="1203" y="-135.8" font-family="Times New Roman,serif" font-size="14.00">予約時間
            </text>
            <text text-anchor="middle" x="1203" y="-120.8" font-family="Times New Roman,serif" font-size="14.00">
                ReservedTime
            </text>
        </g>
        <!-- mrs.domain.model.reservation.reservation.Reservation&#45;&gt;mrs.domain.model.reservation.reservation.ReservedTime -->
        <g id="edge36" class="edge">
            <title>mrs.domain.model.reservation.reservation.Reservation&#45;&gt;mrs.domain.model.reservation.reservation.ReservedTime</title>
            <path fill="none" stroke="black" d="M1185.8,-186.83C1188.29,-179.05 1191.25,-169.77 1194.01,-161.13"/>
            <polygon fill="black" stroke="black" points="1197.41,-162 1197.12,-151.41 1190.74,-159.87 1197.41,-162"/>
        </g>
        <!-- mrs.domain.model.reservation.reservation.ReservationList -->
        <g id="node18" class="node">
            <title>mrs.domain.model.reservation.reservation.ReservationList</title>
            <polygon fill="#eedd82" stroke="black" points="1232,-310 1128,-310 1128,-272 1232,-272 1232,-310"/>
            <text text-anchor="middle" x="1180" y="-294.8" font-family="Times New Roman,serif" font-size="14.00">予約一覧
            </text>
            <text text-anchor="middle" x="1180" y="-279.8" font-family="Times New Roman,serif" font-size="14.00">
                ReservationList
            </text>
        </g>
        <!-- mrs.domain.model.reservation.reservation.ReservationList&#45;&gt;mrs.domain.model.reservation.reservation.Reservation -->
        <g id="edge37" class="edge">
            <title>mrs.domain.model.reservation.reservation.ReservationList&#45;&gt;mrs.domain.model.reservation.reservation.Reservation</title>
            <path fill="none" stroke="black" d="M1180,-271.99C1180,-261.3 1180,-247.5 1180,-235.37"/>
            <polygon fill="black" stroke="black" points="1183.5,-235.26 1180,-225.26 1176.5,-235.26 1183.5,-235.26"/>
        </g>
        <!-- mrs.domain.model.reservation.room.MeetingRoom&#45;&gt;mrs.domain.model.reservation.reservation.ReservableRoom -->
        <g id="edge38" class="edge">
            <title>mrs.domain.model.reservation.room.MeetingRoom&#45;&gt;mrs.domain.model.reservation.reservation.ReservableRoom</title>
            <path fill="none" stroke="black"
                  d="M1469.06,-225.08C1456.25,-235.32 1440.63,-247.7 1425,-256 1416.22,-260.66 1406.69,-264.82 1397.13,-268.48"/>
            <polygon fill="black" stroke="black"
                     points="1395.77,-265.25 1387.59,-271.98 1398.19,-271.82 1395.77,-265.25"/>
        </g>
        <!-- mrs.domain.model.reservation.room.MeetingRoom&#45;&gt;mrs.domain.model.reservation.room.RoomId -->
        <g id="edge39" class="edge">
            <title>mrs.domain.model.reservation.room.MeetingRoom&#45;&gt;mrs.domain.model.reservation.room.RoomId
            </title>
            <path fill="none" stroke="black" d="M1496.25,-186.8C1496.59,-161.89 1497.21,-116.89 1497.61,-87.49"/>
            <polygon fill="black" stroke="black" points="1501.11,-87.47 1497.75,-77.43 1494.11,-87.38 1501.11,-87.47"/>
        </g>
    </g>
</svg>
