<?xml version="1.0" encoding="UTF-8" standalone="no"?>
<!DOCTYPE svg PUBLIC "-//W3C//DTD SVG 1.1//EN"
        "http://www.w3.org/Graphics/SVG/1.1/DTD/svg11.dtd">
<!-- Generated by graphviz version 3.0.0 (20220226.1711)
 -->
<!-- Title: ビジネスルール関連図 Pages: 1 -->
<svg width="887pt" height="500pt"
     viewBox="0.00 0.00 887.00 500.00" xmlns="http://www.w3.org/2000/svg">
    <g id="graph0" class="graph" transform="scale(1 1) rotate(0) translate(4 496)">
        <title>ビジネスルール関連図</title>
        <polygon fill="white" stroke="transparent" points="-4,4 -4,-496 883,-496 883,4 -4,4"/>
        <text text-anchor="middle" x="439.5" y="-7.8" font-family="Times New Roman,serif" font-size="14.00">ビジネスルール関連図
        </text>
        <g id="clust1" class="cluster">
            <title>cluster_mrs.domain.model.auth</title>
            <polygon fill="lemonchiffon" stroke="#eedd82" stroke-width="2"
                     points="554,-253 554,-484 871,-484 871,-253 554,-253"/>
            <text text-anchor="middle" x="712.5" y="-468.8" font-family="Times New Roman,serif" font-size="14.00">auth
            </text>
        </g>
        <g id="clust2" class="cluster">
            <title>cluster_mrs.domain.model.reservation.reservation</title>
            <polygon fill="lemonchiffon" stroke="#eedd82" stroke-width="2"
                     points="318,-179 318,-407 546,-407 546,-179 318,-179"/>
            <text text-anchor="middle" x="432" y="-391.8" font-family="Times New Roman,serif" font-size="14.00">
                reservation.reservation
            </text>
        </g>
        <g id="clust3" class="cluster">
            <title>cluster_mrs.domain.model.reservation.room</title>
            <polygon fill="lemonchiffon" stroke="#eedd82" stroke-width="2"
                     points="8,-31 8,-330 310,-330 310,-31 8,-31"/>
            <text text-anchor="middle" x="159" y="-314.8" font-family="Times New Roman,serif" font-size="14.00">
                reservation.room
            </text>
        </g>
        <!-- mrs.domain.model.auth.RoleName -->
        <g id="node1" class="node">
            <title>mrs.domain.model.auth.RoleName</title>
            <polygon fill="#eedd82" stroke="black" points="862.5,-299 759.5,-299 759.5,-261 862.5,-261 862.5,-299"/>
            <text text-anchor="middle" x="811" y="-283.8" font-family="Times New Roman,serif" font-size="14.00">利用者区分
            </text>
            <text text-anchor="middle" x="811" y="-268.8" font-family="Times New Roman,serif" font-size="14.00">
                RoleName
            </text>
        </g>
        <!-- mrs.domain.model.auth.User -->
        <g id="node2" class="node">
            <title>mrs.domain.model.auth.User</title>
            <polygon fill="#eedd82" stroke="black" points="717,-376 663,-376 663,-338 717,-338 717,-376"/>
            <text text-anchor="middle" x="690" y="-360.8" font-family="Times New Roman,serif" font-size="14.00">会員
            </text>
            <text text-anchor="middle" x="690" y="-345.8" font-family="Times New Roman,serif" font-size="14.00">User
            </text>
        </g>
        <!-- mrs.domain.model.auth.User&#45;&gt;mrs.domain.model.auth.RoleName -->
        <g id="edge1" class="edge">
            <title>mrs.domain.model.auth.User&#45;&gt;mrs.domain.model.auth.RoleName</title>
            <path fill="none" stroke="black"
                  d="M717.23,-346.31C728.07,-341.96 740.46,-336.37 751,-330 762.53,-323.03 774.23,-314 784.2,-305.61"/>
            <polygon fill="black" stroke="black" points="786.5,-308.24 791.78,-299.05 781.93,-302.94 786.5,-308.24"/>
        </g>
        <!-- mrs.domain.model.auth.UserId -->
        <g id="node4" class="node">
            <title>mrs.domain.model.auth.UserId</title>
            <polygon fill="#eedd82" stroke="black" points="648,-299 562,-299 562,-261 648,-261 648,-299"/>
            <text text-anchor="middle" x="605" y="-283.8" font-family="Times New Roman,serif" font-size="14.00">会員番号
            </text>
            <text text-anchor="middle" x="605" y="-268.8" font-family="Times New Roman,serif" font-size="14.00">UserId
            </text>
        </g>
        <!-- mrs.domain.model.auth.User&#45;&gt;mrs.domain.model.auth.UserId -->
        <g id="edge2" class="edge">
            <title>mrs.domain.model.auth.User&#45;&gt;mrs.domain.model.auth.UserId</title>
            <path fill="none" stroke="black"
                  d="M667.47,-338C664.26,-335.35 661.03,-332.63 658,-330 649.3,-322.46 640.02,-314.02 631.69,-306.3"/>
            <polygon fill="black" stroke="black" points="634.06,-303.72 624.36,-299.45 629.28,-308.84 634.06,-303.72"/>
        </g>
        <!-- mrs.domain.model.auth.UserName -->
        <g id="node5" class="node">
            <title>mrs.domain.model.auth.UserName</title>
            <polygon fill="#eedd82" stroke="black" points="741.5,-299 666.5,-299 666.5,-261 741.5,-261 741.5,-299"/>
            <text text-anchor="middle" x="704" y="-283.8" font-family="Times New Roman,serif" font-size="14.00">氏名
            </text>
            <text text-anchor="middle" x="704" y="-268.8" font-family="Times New Roman,serif" font-size="14.00">
                UserName
            </text>
        </g>
        <!-- mrs.domain.model.auth.User&#45;&gt;mrs.domain.model.auth.UserName -->
        <g id="edge3" class="edge">
            <title>mrs.domain.model.auth.User&#45;&gt;mrs.domain.model.auth.UserName</title>
            <path fill="none" stroke="black" d="M693.39,-337.84C694.99,-329.25 696.95,-318.79 698.74,-309.19"/>
            <polygon fill="black" stroke="black" points="702.2,-309.72 700.59,-299.25 695.32,-308.44 702.2,-309.72"/>
        </g>
        <!-- mrs.domain.model.reservation.reservation.Reservation -->
        <g id="node6" class="node">
            <title>mrs.domain.model.reservation.reservation.Reservation</title>
            <polygon fill="#eedd82" stroke="black" points="528.5,-299 445.5,-299 445.5,-261 528.5,-261 528.5,-299"/>
            <text text-anchor="middle" x="487" y="-283.8" font-family="Times New Roman,serif" font-size="14.00">予約
            </text>
            <text text-anchor="middle" x="487" y="-268.8" font-family="Times New Roman,serif" font-size="14.00">
                Reservation
            </text>
        </g>
        <!-- mrs.domain.model.auth.User&#45;&gt;mrs.domain.model.reservation.reservation.Reservation -->
        <g id="edge4" class="edge">
            <title>mrs.domain.model.auth.User&#45;&gt;mrs.domain.model.reservation.reservation.Reservation</title>
            <path fill="none" stroke="black"
                  d="M662.73,-354.16C635.36,-351.56 592.94,-345.25 559,-330 545.58,-323.97 532.44,-314.51 521.03,-305.5"/>
            <polygon fill="black" stroke="black" points="523.03,-302.62 513.05,-299.08 518.65,-308.07 523.03,-302.62"/>
        </g>
        <!-- mrs.domain.model.auth.UserDetailsImpl -->
        <g id="node3" class="node">
            <title>mrs.domain.model.auth.UserDetailsImpl</title>
            <polygon fill="#eedd82" stroke="black" points="743,-453 637,-453 637,-415 743,-415 743,-453"/>
            <text text-anchor="middle" x="690" y="-437.8" font-family="Times New Roman,serif" font-size="14.00">利用者
            </text>
            <text text-anchor="middle" x="690" y="-422.8" font-family="Times New Roman,serif" font-size="14.00">
                UserDetailsImpl
            </text>
        </g>
        <!-- mrs.domain.model.auth.UserDetailsImpl&#45;&gt;mrs.domain.model.auth.RoleName -->
        <g id="edge5" class="edge">
            <title>mrs.domain.model.auth.UserDetailsImpl&#45;&gt;mrs.domain.model.auth.RoleName</title>
            <path fill="none" stroke="black"
                  d="M717.21,-414.97C720.31,-412.45 723.32,-409.77 726,-407 755.39,-376.65 781.27,-334.97 796.53,-308.01"/>
            <polygon fill="black" stroke="black" points="799.67,-309.57 801.47,-299.13 793.55,-306.17 799.67,-309.57"/>
        </g>
        <!-- mrs.domain.model.auth.UserDetailsImpl&#45;&gt;mrs.domain.model.auth.User -->
        <g id="edge6" class="edge">
            <title>mrs.domain.model.auth.UserDetailsImpl&#45;&gt;mrs.domain.model.auth.User</title>
            <path fill="none" stroke="black" d="M690,-414.84C690,-406.34 690,-396.01 690,-386.5"/>
            <polygon fill="black" stroke="black" points="693.5,-386.25 690,-376.25 686.5,-386.25 693.5,-386.25"/>
        </g>
        <!-- mrs.domain.model.auth.UserDetailsImpl&#45;&gt;mrs.domain.model.auth.UserId -->
        <g id="edge7" class="edge">
            <title>mrs.domain.model.auth.UserDetailsImpl&#45;&gt;mrs.domain.model.auth.UserId</title>
            <path fill="none" stroke="black"
                  d="M661.45,-414.88C658.72,-412.44 656.17,-409.81 654,-407 631.32,-377.66 617.97,-336.53 611.07,-309.35"/>
            <polygon fill="black" stroke="black" points="614.4,-308.22 608.66,-299.32 607.59,-309.86 614.4,-308.22"/>
        </g>
        <!-- mrs.domain.model.reservation.reservation.Reservation&#45;&gt;mrs.domain.model.auth.User -->
        <g id="edge8" class="edge">
            <title>mrs.domain.model.reservation.reservation.Reservation&#45;&gt;mrs.domain.model.auth.User</title>
            <path fill="none" stroke="black"
                  d="M497.52,-299.08C508.09,-309.71 524.32,-322.5 541,-330 576.55,-345.98 621.42,-352.14 652.74,-354.51"/>
            <polygon fill="black" stroke="black" points="652.61,-358.01 662.82,-355.18 653.07,-351.02 652.61,-358.01"/>
        </g>
        <!-- mrs.domain.model.reservation.reservation.ReservationId -->
        <g id="node7" class="node">
            <title>mrs.domain.model.reservation.reservation.ReservationId</title>
            <polygon fill="#eedd82" stroke="black" points="421.5,-225 326.5,-225 326.5,-187 421.5,-187 421.5,-225"/>
            <text text-anchor="middle" x="374" y="-209.8" font-family="Times New Roman,serif" font-size="14.00">予約番号
            </text>
            <text text-anchor="middle" x="374" y="-194.8" font-family="Times New Roman,serif" font-size="14.00">
                ReservationId
            </text>
        </g>
        <!-- mrs.domain.model.reservation.reservation.Reservation&#45;&gt;mrs.domain.model.reservation.reservation.ReservationId -->
        <g id="edge9" class="edge">
            <title>mrs.domain.model.reservation.reservation.Reservation&#45;&gt;mrs.domain.model.reservation.reservation.ReservationId</title>
            <path fill="none" stroke="black" d="M458.49,-260.83C444.17,-251.71 426.64,-240.54 411.27,-230.74"/>
            <polygon fill="black" stroke="black" points="412.82,-227.58 402.51,-225.16 409.06,-233.49 412.82,-227.58"/>
        </g>
        <!-- mrs.domain.model.reservation.reservation.ReservedTime -->
        <g id="node9" class="node">
            <title>mrs.domain.model.reservation.reservation.ReservedTime</title>
            <polygon fill="#eedd82" stroke="black" points="538,-225 440,-225 440,-187 538,-187 538,-225"/>
            <text text-anchor="middle" x="489" y="-209.8" font-family="Times New Roman,serif" font-size="14.00">予約時間
            </text>
            <text text-anchor="middle" x="489" y="-194.8" font-family="Times New Roman,serif" font-size="14.00">
                ReservedTime
            </text>
        </g>
        <!-- mrs.domain.model.reservation.reservation.Reservation&#45;&gt;mrs.domain.model.reservation.reservation.ReservedTime -->
        <g id="edge10" class="edge">
            <title>mrs.domain.model.reservation.reservation.Reservation&#45;&gt;mrs.domain.model.reservation.reservation.ReservedTime</title>
            <path fill="none" stroke="black" d="M487.5,-260.83C487.72,-253.13 487.97,-243.97 488.21,-235.42"/>
            <polygon fill="black" stroke="black" points="491.71,-235.51 488.49,-225.41 484.71,-235.31 491.71,-235.51"/>
        </g>
        <!-- mrs.domain.model.reservation.room.ReservableRoom -->
        <g id="node11" class="node">
            <title>mrs.domain.model.reservation.room.ReservableRoom</title>
            <polygon fill="#eedd82" stroke="black" points="276.5,-225 139.5,-225 139.5,-187 276.5,-187 276.5,-225"/>
            <text text-anchor="middle" x="208" y="-209.8" font-family="Times New Roman,serif" font-size="14.00">
                予約可能会議室
            </text>
            <text text-anchor="middle" x="208" y="-194.8" font-family="Times New Roman,serif" font-size="14.00">
                ReservableRoom
            </text>
        </g>
        <!-- mrs.domain.model.reservation.reservation.Reservation&#45;&gt;mrs.domain.model.reservation.room.ReservableRoom -->
        <g id="edge11" class="edge">
            <title>mrs.domain.model.reservation.reservation.Reservation&#45;&gt;mrs.domain.model.reservation.room.ReservableRoom</title>
            <path fill="none" stroke="black" d="M445.49,-266.95C403.61,-255.69 338.05,-238.7 286.38,-225.68"/>
            <polygon fill="black" stroke="black" points="287.12,-222.26 276.57,-223.21 285.41,-229.04 287.12,-222.26"/>
        </g>
        <!-- mrs.domain.model.reservation.room.ReservableRoomId -->
        <g id="node12" class="node">
            <title>mrs.domain.model.reservation.room.ReservableRoomId</title>
            <polygon fill="#eedd82" stroke="black" points="284,-151 132,-151 132,-113 284,-113 284,-151"/>
            <text text-anchor="middle" x="208" y="-135.8" font-family="Times New Roman,serif" font-size="14.00">
                予約可能会議室ID
            </text>
            <text text-anchor="middle" x="208" y="-120.8" font-family="Times New Roman,serif" font-size="14.00">
                ReservableRoomId
            </text>
        </g>
        <!-- mrs.domain.model.reservation.reservation.Reservation&#45;&gt;mrs.domain.model.reservation.room.ReservableRoomId -->
        <g id="edge12" class="edge">
            <title>mrs.domain.model.reservation.reservation.Reservation&#45;&gt;mrs.domain.model.reservation.room.ReservableRoomId</title>
            <path fill="none" stroke="black"
                  d="M516.22,-260.82C528.11,-251.68 540.56,-239.47 547,-225 555.32,-206.32 560.45,-194.4 547,-179 514.83,-142.17 383.81,-133.69 294.4,-132.32"/>
            <polygon fill="black" stroke="black" points="294.3,-128.82 284.25,-132.2 294.21,-135.82 294.3,-128.82"/>
        </g>
        <!-- mrs.domain.model.reservation.reservation.ReservationList -->
        <g id="node8" class="node">
            <title>mrs.domain.model.reservation.reservation.ReservationList</title>
            <polygon fill="#eedd82" stroke="black" points="538,-376 434,-376 434,-338 538,-338 538,-376"/>
            <text text-anchor="middle" x="486" y="-360.8" font-family="Times New Roman,serif" font-size="14.00">予約一覧
            </text>
            <text text-anchor="middle" x="486" y="-345.8" font-family="Times New Roman,serif" font-size="14.00">
                ReservationList
            </text>
        </g>
        <!-- mrs.domain.model.reservation.reservation.ReservationList&#45;&gt;mrs.domain.model.reservation.reservation.Reservation -->
        <g id="edge13" class="edge">
            <title>mrs.domain.model.reservation.reservation.ReservationList&#45;&gt;mrs.domain.model.reservation.reservation.Reservation</title>
            <path fill="none" stroke="black" d="M486.24,-337.84C486.36,-329.34 486.49,-319.01 486.62,-309.5"/>
            <polygon fill="black" stroke="black" points="490.12,-309.29 486.76,-299.25 483.12,-309.2 490.12,-309.29"/>
        </g>
        <!-- mrs.domain.model.reservation.room.MeetingRoom -->
        <g id="node10" class="node">
            <title>mrs.domain.model.reservation.room.MeetingRoom</title>
            <polygon fill="#eedd82" stroke="black" points="112,-299 16,-299 16,-261 112,-261 112,-299"/>
            <text text-anchor="middle" x="64" y="-283.8" font-family="Times New Roman,serif" font-size="14.00">会議室
            </text>
            <text text-anchor="middle" x="64" y="-268.8" font-family="Times New Roman,serif" font-size="14.00">
                MeetingRoom
            </text>
        </g>
        <!-- mrs.domain.model.reservation.room.MeetingRoom&#45;&gt;mrs.domain.model.reservation.room.ReservableRoom -->
        <g id="edge14" class="edge">
            <title>mrs.domain.model.reservation.room.MeetingRoom&#45;&gt;mrs.domain.model.reservation.room.ReservableRoom</title>
            <path fill="none" stroke="black" d="M94.38,-260.83C112.54,-251.29 135.99,-239.51 156.89,-229.4"/>
            <polygon fill="black" stroke="black" points="158.48,-232.52 165.98,-225.04 155.45,-226.21 158.48,-232.52"/>
        </g>
        <!-- mrs.domain.model.reservation.room.RoomId -->
        <g id="node15" class="node">
            <title>mrs.domain.model.reservation.room.RoomId</title>
            <polygon fill="#eedd82" stroke="black" points="134.5,-77 31.5,-77 31.5,-39 134.5,-39 134.5,-77"/>
            <text text-anchor="middle" x="83" y="-61.8" font-family="Times New Roman,serif" font-size="14.00">会議室番号
            </text>
            <text text-anchor="middle" x="83" y="-46.8" font-family="Times New Roman,serif" font-size="14.00">RoomId
            </text>
        </g>
        <!-- mrs.domain.model.reservation.room.MeetingRoom&#45;&gt;mrs.domain.model.reservation.room.RoomId -->
        <g id="edge15" class="edge">
            <title>mrs.domain.model.reservation.room.MeetingRoom&#45;&gt;mrs.domain.model.reservation.room.RoomId
            </title>
            <path fill="none" stroke="black" d="M65.55,-261C68.85,-222.8 76.57,-133.41 80.55,-87.43"/>
            <polygon fill="black" stroke="black" points="84.05,-87.52 81.42,-77.25 77.08,-86.91 84.05,-87.52"/>
        </g>
        <!-- mrs.domain.model.reservation.room.ReservableRoom&#45;&gt;mrs.domain.model.reservation.reservation.Reservation -->
        <g id="edge16" class="edge">
            <title>mrs.domain.model.reservation.room.ReservableRoom&#45;&gt;mrs.domain.model.reservation.reservation.Reservation</title>
            <path fill="none" stroke="black" d="M271.92,-225.03C321.6,-238.18 389.52,-255.64 435.69,-267.09"/>
            <polygon fill="black" stroke="black" points="434.95,-270.51 445.49,-269.51 436.62,-263.72 434.95,-270.51"/>
        </g>
        <!-- mrs.domain.model.reservation.room.ReservableRoom&#45;&gt;mrs.domain.model.reservation.room.MeetingRoom -->
        <g id="edge17" class="edge">
            <title>mrs.domain.model.reservation.room.ReservableRoom&#45;&gt;mrs.domain.model.reservation.room.MeetingRoom</title>
            <path fill="none" stroke="black" d="M177.63,-225.16C159.54,-234.67 136.2,-246.4 115.36,-256.48"/>
            <polygon fill="black" stroke="black" points="113.79,-253.35 106.29,-260.83 116.82,-259.66 113.79,-253.35"/>
        </g>
        <!-- mrs.domain.model.reservation.room.ReservableRoom&#45;&gt;mrs.domain.model.reservation.room.ReservableRoomId -->
        <g id="edge18" class="edge">
            <title>mrs.domain.model.reservation.room.ReservableRoom&#45;&gt;mrs.domain.model.reservation.room.ReservableRoomId</title>
            <path fill="none" stroke="black" d="M208,-186.83C208,-179.13 208,-169.97 208,-161.42"/>
            <polygon fill="black" stroke="black" points="211.5,-161.41 208,-151.41 204.5,-161.41 211.5,-161.41"/>
        </g>
        <!-- mrs.domain.model.reservation.room.ReservedDate -->
        <g id="node14" class="node">
            <title>mrs.domain.model.reservation.room.ReservedDate</title>
            <polygon fill="#eedd82" stroke="black" points="255.5,-77 160.5,-77 160.5,-39 255.5,-39 255.5,-77"/>
            <text text-anchor="middle" x="208" y="-61.8" font-family="Times New Roman,serif" font-size="14.00">予約日
            </text>
            <text text-anchor="middle" x="208" y="-46.8" font-family="Times New Roman,serif" font-size="14.00">
                ReservedDate
            </text>
        </g>
        <!-- mrs.domain.model.reservation.room.ReservableRoomId&#45;&gt;mrs.domain.model.reservation.room.ReservedDate -->
        <g id="edge19" class="edge">
            <title>mrs.domain.model.reservation.room.ReservableRoomId&#45;&gt;mrs.domain.model.reservation.room.ReservedDate</title>
            <path fill="none" stroke="black" d="M208,-112.83C208,-105.13 208,-95.97 208,-87.42"/>
            <polygon fill="black" stroke="black" points="211.5,-87.41 208,-77.41 204.5,-87.41 211.5,-87.41"/>
        </g>
        <!-- mrs.domain.model.reservation.room.ReservableRoomId&#45;&gt;mrs.domain.model.reservation.room.RoomId -->
        <g id="edge20" class="edge">
            <title>mrs.domain.model.reservation.room.ReservableRoomId&#45;&gt;mrs.domain.model.reservation.room.RoomId
            </title>
            <path fill="none" stroke="black" d="M176.46,-112.83C160.32,-103.54 140.5,-92.12 123.27,-82.2"/>
            <polygon fill="black" stroke="black" points="124.94,-79.12 114.53,-77.16 121.45,-85.19 124.94,-79.12"/>
        </g>
        <!-- mrs.domain.model.reservation.room.ReservableRoomList -->
        <g id="node13" class="node">
            <title>mrs.domain.model.reservation.room.ReservableRoomList</title>
            <polygon fill="#eedd82" stroke="black" points="302,-299 130,-299 130,-261 302,-261 302,-299"/>
            <text text-anchor="middle" x="216" y="-283.8" font-family="Times New Roman,serif" font-size="14.00">
                予約可能会議室一覧
            </text>
            <text text-anchor="middle" x="216" y="-268.8" font-family="Times New Roman,serif" font-size="14.00">
                ReservableRoomList
            </text>
        </g>
        <!-- mrs.domain.model.reservation.room.ReservableRoomList&#45;&gt;mrs.domain.model.reservation.room.ReservableRoom -->
        <g id="edge21" class="edge">
            <title>mrs.domain.model.reservation.room.ReservableRoomList&#45;&gt;mrs.domain.model.reservation.room.ReservableRoom</title>
            <path fill="none" stroke="black" d="M213.98,-260.83C213.13,-253.13 212.11,-243.97 211.16,-235.42"/>
            <polygon fill="black" stroke="black" points="214.63,-234.97 210.05,-225.41 207.67,-235.74 214.63,-234.97"/>
        </g>
    </g>
</svg>
