<?xml version="1.0" encoding="UTF-8" standalone="no"?>
<!DOCTYPE svg PUBLIC "-//W3C//DTD SVG 1.1//EN"
        "http://www.w3.org/Graphics/SVG/1.1/DTD/svg11.dtd">
<!-- Generated by graphviz version 3.0.0 (20220226.1711)
 -->
<!-- Title: 集中ビジネスルールツリー図 Pages: 1 -->
<svg width="744pt" height="647pt"
     viewBox="0.00 0.00 744.00 646.68" xmlns="http://www.w3.org/2000/svg">
    <g id="graph0" class="graph" transform="scale(1 1) rotate(0) translate(4 642.68)">
        <title>集中ビジネスルールツリー図</title>
        <polygon fill="white" stroke="transparent" points="-4,4 -4,-642.68 740,-642.68 740,4 -4,4"/>
        <text text-anchor="middle" x="368" y="-7.8" font-family="Times New Roman,serif" font-size="14.00">
            集中ビジネスルールツリー図
        </text>
        <!-- mrs.domain.model.auth.user.Password -->
        <g id="node1" class="node">
            <title>mrs.domain.model.auth.user.Password</title>
            <polygon fill="#eedd82" stroke="black" points="463,-582 289,-582 289,-508 463,-508 463,-582"/>
            <text text-anchor="middle" x="376" y="-554" font-family="Times New Roman,serif" font-size="30.00">パスワード
            </text>
            <text text-anchor="middle" x="376" y="-521" font-family="Times New Roman,serif" font-size="30.00">Password
            </text>
        </g>
        <!-- mrs.domain.model.auth.user.RoleName -->
        <g id="node2" class="node">
            <title>mrs.domain.model.auth.user.RoleName</title>
            <polygon fill="#eedd82" stroke="black" points="463,-489 289,-489 289,-415 463,-415 463,-489"/>
            <text text-anchor="middle" x="376" y="-461" font-family="Times New Roman,serif" font-size="30.00">利用者区分
            </text>
            <text text-anchor="middle" x="376" y="-428" font-family="Times New Roman,serif" font-size="30.00">RoleName
            </text>
        </g>
        <!-- mrs.domain.model.auth.user.User -->
        <g id="node3" class="node">
            <title>mrs.domain.model.auth.user.User</title>
            <polygon fill="#eedd82" stroke="black" points="253,-357 142,-357 142,-283 253,-283 253,-357"/>
            <text text-anchor="middle" x="197.5" y="-329" font-family="Times New Roman,serif" font-size="30.00">利用者
            </text>
            <text text-anchor="middle" x="197.5" y="-296" font-family="Times New Roman,serif" font-size="30.00">User
            </text>
        </g>
        <!-- mrs.domain.model.auth.user.User&#45;&gt;mrs.domain.model.auth.user.Password -->
        <g id="edge16" class="edge">
            <title>mrs.domain.model.auth.user.User&#45;&gt;mrs.domain.model.auth.user.Password</title>
            <path fill="none" stroke="black"
                  d="M210.07,-357.35C223.71,-396.38 249.64,-457.45 289,-498 290.04,-499.07 291.1,-500.12 292.2,-501.15"/>
            <polygon fill="black" stroke="black" points="289.91,-503.8 299.76,-507.7 294.49,-498.51 289.91,-503.8"/>
        </g>
        <!-- mrs.domain.model.auth.user.User&#45;&gt;mrs.domain.model.auth.user.RoleName -->
        <g id="edge20" class="edge">
            <title>mrs.domain.model.auth.user.User&#45;&gt;mrs.domain.model.auth.user.RoleName</title>
            <path fill="none" stroke="black"
                  d="M234.07,-357.4C250.04,-373.11 269.63,-390.96 289,-405 291.05,-406.49 293.15,-407.96 295.29,-409.41"/>
            <polygon fill="black" stroke="black" points="293.43,-412.38 303.72,-414.93 297.27,-406.52 293.43,-412.38"/>
        </g>
        <!-- mrs.domain.model.auth.user.UserId -->
        <g id="node5" class="node">
            <title>mrs.domain.model.auth.user.UserId</title>
            <polygon fill="#eedd82" stroke="black" points="463,-396 289,-396 289,-322 463,-322 463,-396"/>
            <text text-anchor="middle" x="376" y="-368" font-family="Times New Roman,serif" font-size="30.00">利用者番号
            </text>
            <text text-anchor="middle" x="376" y="-335" font-family="Times New Roman,serif" font-size="30.00">UserId
            </text>
        </g>
        <!-- mrs.domain.model.auth.user.User&#45;&gt;mrs.domain.model.auth.user.UserId -->
        <g id="edge24" class="edge">
            <title>mrs.domain.model.auth.user.User&#45;&gt;mrs.domain.model.auth.user.UserId</title>
            <path fill="none" stroke="black" d="M253.38,-332.13C261.54,-333.93 270.15,-335.83 278.86,-337.76"/>
            <polygon fill="black" stroke="black" points="278.2,-341.2 288.72,-339.94 279.71,-334.36 278.2,-341.2"/>
        </g>
        <!-- mrs.domain.model.auth.user.UserName -->
        <g id="node6" class="node">
            <title>mrs.domain.model.auth.user.UserName</title>
            <polygon fill="#eedd82" stroke="black" points="448,-301 304,-301 304,-227 448,-227 448,-301"/>
            <text text-anchor="middle" x="376" y="-273" font-family="Times New Roman,serif" font-size="30.00">氏名</text>
            <text text-anchor="middle" x="376" y="-240" font-family="Times New Roman,serif" font-size="30.00">UserName
            </text>
        </g>
        <!-- mrs.domain.model.auth.user.User&#45;&gt;mrs.domain.model.auth.user.UserName -->
        <g id="edge1" class="edge">
            <title>mrs.domain.model.auth.user.User&#45;&gt;mrs.domain.model.auth.user.UserName</title>
            <path fill="none" stroke="black" d="M253.38,-302.59C266.37,-298.47 280.49,-293.99 294.36,-289.59"/>
            <polygon fill="black" stroke="black" points="295.43,-292.92 303.91,-286.56 293.32,-286.24 295.43,-292.92"/>
        </g>
        <!-- mrs.domain.model.reservation.reservation.Reservation -->
        <g id="node10" class="node">
            <title>mrs.domain.model.reservation.reservation.Reservation</title>
            <polygon fill="#eedd82" stroke="black" points="455,-153 297,-153 297,-79 455,-79 455,-153"/>
            <text text-anchor="middle" x="376" y="-125" font-family="Times New Roman,serif" font-size="30.00">予約</text>
            <text text-anchor="middle" x="376" y="-92" font-family="Times New Roman,serif" font-size="30.00">
                Reservation
            </text>
        </g>
        <!-- mrs.domain.model.auth.user.User&#45;&gt;mrs.domain.model.reservation.reservation.Reservation -->
        <g id="edge4" class="edge">
            <title>mrs.domain.model.auth.user.User&#45;&gt;mrs.domain.model.reservation.reservation.Reservation</title>
            <path fill="none" stroke="black"
                  d="M209.98,-282.82C224.16,-245.81 251.13,-189.78 289,-153 289.15,-152.85 289.3,-152.71 289.46,-152.56"/>
            <polygon fill="black" stroke="black" points="291.5,-155.43 296.69,-146.19 286.87,-150.17 291.5,-155.43"/>
        </g>
        <!-- mrs.domain.model.auth.user.UserDetailsImpl -->
        <g id="node4" class="node">
            <title>mrs.domain.model.auth.user.UserDetailsImpl</title>
            <polygon fill="lemonchiffon" stroke="black" points="106,-575 0,-575 0,-537 106,-537 106,-575"/>
            <text text-anchor="middle" x="53" y="-559.8" font-family="Times New Roman,serif" font-size="14.00">利用者
            </text>
            <text text-anchor="middle" x="53" y="-544.8" font-family="Times New Roman,serif" font-size="14.00">
                UserDetailsImpl
            </text>
        </g>
        <!-- mrs.domain.model.auth.user.UserDetailsImpl&#45;&gt;mrs.domain.model.auth.user.Password -->
        <g id="edge17" class="edge">
            <title>mrs.domain.model.auth.user.UserDetailsImpl&#45;&gt;mrs.domain.model.auth.user.Password</title>
            <path fill="none" stroke="black"
                  d="M70.26,-575.04C86.43,-592.36 112.94,-616.74 142,-627 188.52,-643.43 205.81,-641.39 253,-627 278.97,-619.08 304.42,-603.59 325.3,-588.18"/>
            <polygon fill="black" stroke="black" points="327.51,-590.89 333.37,-582.06 323.28,-585.32 327.51,-590.89"/>
        </g>
        <!-- mrs.domain.model.auth.user.UserDetailsImpl&#45;&gt;mrs.domain.model.auth.user.RoleName -->
        <g id="edge21" class="edge">
            <title>mrs.domain.model.auth.user.UserDetailsImpl&#45;&gt;mrs.domain.model.auth.user.RoleName</title>
            <path fill="none" stroke="black"
                  d="M106.11,-548.42C146.83,-541.62 204.49,-530.06 253,-513 268.26,-507.63 284.07,-500.78 299.04,-493.63"/>
            <polygon fill="black" stroke="black" points="300.78,-496.67 308.24,-489.14 297.72,-490.38 300.78,-496.67"/>
        </g>
        <!-- mrs.domain.model.auth.user.UserDetailsImpl&#45;&gt;mrs.domain.model.auth.user.User -->
        <g id="edge9" class="edge">
            <title>mrs.domain.model.auth.user.UserDetailsImpl&#45;&gt;mrs.domain.model.auth.user.User</title>
            <path fill="none" stroke="black" d="M65.66,-536.69C88.03,-499.64 137.52,-417.68 168.81,-365.85"/>
            <polygon fill="black" stroke="black" points="171.88,-367.54 174.05,-357.18 165.89,-363.93 171.88,-367.54"/>
        </g>
        <!-- mrs.domain.model.auth.user.UserDetailsImpl&#45;&gt;mrs.domain.model.auth.user.UserId -->
        <g id="edge25" class="edge">
            <title>mrs.domain.model.auth.user.UserDetailsImpl&#45;&gt;mrs.domain.model.auth.user.UserId</title>
            <path fill="none" stroke="black"
                  d="M82.55,-536.89C126.39,-507.74 213.18,-450.85 289,-406 291.78,-404.35 294.63,-402.69 297.51,-401.03"/>
            <polygon fill="black" stroke="black" points="299.29,-404.04 306.23,-396.04 295.81,-397.97 299.29,-404.04"/>
        </g>
        <!-- mrs.domain.model.auth.user.administrator.Administrator -->
        <g id="node7" class="node">
            <title>mrs.domain.model.auth.user.administrator.Administrator</title>
            <polygon fill="lemonchiffon" stroke="black" points="99.5,-400 6.5,-400 6.5,-362 99.5,-362 99.5,-400"/>
            <text text-anchor="middle" x="53" y="-384.8" font-family="Times New Roman,serif" font-size="14.00">管理者
            </text>
            <text text-anchor="middle" x="53" y="-369.8" font-family="Times New Roman,serif" font-size="14.00">
                Administrator
            </text>
        </g>
        <!-- mrs.domain.model.auth.user.administrator.Administrator&#45;&gt;mrs.domain.model.auth.user.Password -->
        <g id="edge18" class="edge">
            <title>mrs.domain.model.auth.user.administrator.Administrator&#45;&gt;mrs.domain.model.auth.user.Password
            </title>
            <path fill="none" stroke="black"
                  d="M57.29,-400.19C64.78,-437.14 86.92,-517.49 142,-551 182.33,-575.54 234.3,-576.46 278.92,-570.2"/>
            <polygon fill="black" stroke="black" points="279.56,-573.65 288.91,-568.66 278.49,-566.73 279.56,-573.65"/>
        </g>
        <!-- mrs.domain.model.auth.user.administrator.Administrator&#45;&gt;mrs.domain.model.auth.user.RoleName -->
        <g id="edge22" class="edge">
            <title>mrs.domain.model.auth.user.administrator.Administrator&#45;&gt;mrs.domain.model.auth.user.RoleName
            </title>
            <path fill="none" stroke="black"
                  d="M76.99,-400.23C93.84,-413.12 117.9,-429.13 142,-437 185.52,-451.21 236,-455.8 278.81,-456.49"/>
            <polygon fill="black" stroke="black" points="278.92,-459.99 288.96,-456.59 278.99,-452.99 278.92,-459.99"/>
        </g>
        <!-- mrs.domain.model.auth.user.administrator.Administrator&#45;&gt;mrs.domain.model.auth.user.User -->
        <g id="edge10" class="edge">
            <title>mrs.domain.model.auth.user.administrator.Administrator&#45;&gt;mrs.domain.model.auth.user.User
            </title>
            <path fill="none" stroke="black" d="M98.7,-361.87C109.41,-357.28 121.06,-352.29 132.46,-347.42"/>
            <polygon fill="black" stroke="black" points="134.13,-350.51 141.95,-343.35 131.38,-344.07 134.13,-350.51"/>
        </g>
        <!-- mrs.domain.model.auth.user.administrator.Administrator&#45;&gt;mrs.domain.model.auth.user.UserId -->
        <g id="edge26" class="edge">
            <title>mrs.domain.model.auth.user.administrator.Administrator&#45;&gt;mrs.domain.model.auth.user.UserId
            </title>
            <path fill="none" stroke="black" d="M99.65,-377.87C146.04,-374.69 219.3,-369.67 278.6,-365.61"/>
            <polygon fill="black" stroke="black" points="279.01,-369.09 288.74,-364.91 278.53,-362.1 279.01,-369.09"/>
        </g>
        <!-- mrs.domain.model.auth.user.administrator.Administrator&#45;&gt;mrs.domain.model.auth.user.UserName -->
        <g id="edge2" class="edge">
            <title>mrs.domain.model.auth.user.administrator.Administrator&#45;&gt;mrs.domain.model.auth.user.UserName
            </title>
            <path fill="none" stroke="black"
                  d="M63.31,-361.72C76.73,-336.38 104.12,-292.9 142,-274 188.58,-250.76 247.14,-248.34 293.9,-251.69"/>
            <polygon fill="black" stroke="black" points="293.74,-255.19 303.99,-252.52 294.31,-248.22 293.74,-255.19"/>
        </g>
        <!-- mrs.domain.model.auth.user.administrator.Administrator&#45;&gt;mrs.domain.model.reservation.reservation.Reservation -->
        <g id="edge5" class="edge">
            <title>mrs.domain.model.auth.user.administrator.Administrator&#45;&gt;mrs.domain.model.reservation.reservation.Reservation</title>
            <path fill="none" stroke="black"
                  d="M65.75,-361.91C87.38,-326.92 132.2,-255.24 142,-246 184.18,-206.22 240.8,-174.27 287.67,-151.99"/>
            <polygon fill="black" stroke="black" points="289.34,-155.08 296.91,-147.67 286.37,-148.74 289.34,-155.08"/>
        </g>
        <!-- mrs.domain.model.auth.user.member.Member -->
        <g id="node8" class="node">
            <title>mrs.domain.model.auth.user.member.Member</title>
            <polygon fill="lemonchiffon" stroke="black" points="84.5,-288 21.5,-288 21.5,-250 84.5,-250 84.5,-288"/>
            <text text-anchor="middle" x="53" y="-272.8" font-family="Times New Roman,serif" font-size="14.00">会員</text>
            <text text-anchor="middle" x="53" y="-257.8" font-family="Times New Roman,serif" font-size="14.00">Member
            </text>
        </g>
        <!-- mrs.domain.model.auth.user.member.Member&#45;&gt;mrs.domain.model.auth.user.Password -->
        <g id="edge19" class="edge">
            <title>mrs.domain.model.auth.user.member.Member&#45;&gt;mrs.domain.model.auth.user.Password</title>
            <path fill="none" stroke="black"
                  d="M65.95,-288.08C88.85,-324.6 137.11,-401.17 142,-406 182.59,-446.12 236.96,-479.4 282.97,-503.33"/>
            <polygon fill="black" stroke="black" points="281.56,-506.54 292.05,-507.99 284.75,-500.31 281.56,-506.54"/>
        </g>
        <!-- mrs.domain.model.auth.user.member.Member&#45;&gt;mrs.domain.model.auth.user.RoleName -->
        <g id="edge23" class="edge">
            <title>mrs.domain.model.auth.user.member.Member&#45;&gt;mrs.domain.model.auth.user.RoleName</title>
            <path fill="none" stroke="black"
                  d="M67.1,-288.32C82.67,-309.95 110.53,-344.75 142,-366 183.45,-393.98 235.17,-414.26 279.35,-428.08"/>
            <polygon fill="black" stroke="black" points="278.36,-431.43 288.94,-431.01 280.41,-424.74 278.36,-431.43"/>
        </g>
        <!-- mrs.domain.model.auth.user.member.Member&#45;&gt;mrs.domain.model.auth.user.User -->
        <g id="edge11" class="edge">
            <title>mrs.domain.model.auth.user.member.Member&#45;&gt;mrs.domain.model.auth.user.User</title>
            <path fill="none" stroke="black" d="M84.57,-279.94C98.52,-284.93 115.59,-291.04 132.16,-296.97"/>
            <polygon fill="black" stroke="black" points="131.23,-300.36 141.83,-300.43 133.59,-293.77 131.23,-300.36"/>
        </g>
        <!-- mrs.domain.model.auth.user.member.Member&#45;&gt;mrs.domain.model.auth.user.UserId -->
        <g id="edge27" class="edge">
            <title>mrs.domain.model.auth.user.member.Member&#45;&gt;mrs.domain.model.auth.user.UserId</title>
            <path fill="none" stroke="black"
                  d="M84.81,-262.97C125.25,-256.54 197.58,-250.22 253,-274 273.79,-282.92 271.01,-296.28 289,-310 291.75,-312.1 294.59,-314.16 297.51,-316.2"/>
            <polygon fill="black" stroke="black" points="295.62,-319.14 305.87,-321.83 299.53,-313.34 295.62,-319.14"/>
        </g>
        <!-- mrs.domain.model.auth.user.member.Member&#45;&gt;mrs.domain.model.auth.user.UserName -->
        <g id="edge3" class="edge">
            <title>mrs.domain.model.auth.user.member.Member&#45;&gt;mrs.domain.model.auth.user.UserName</title>
            <path fill="none" stroke="black"
                  d="M72.14,-249.72C88.6,-233.73 114.46,-212.18 142,-203 188.8,-187.4 204.99,-191.67 253,-203 258.27,-204.24 275.35,-212.39 295.12,-222.34"/>
            <polygon fill="black" stroke="black" points="293.55,-225.46 304.05,-226.86 296.71,-219.22 293.55,-225.46"/>
        </g>
        <!-- mrs.domain.model.auth.user.member.Member&#45;&gt;mrs.domain.model.reservation.reservation.Reservation -->
        <g id="edge6" class="edge">
            <title>
                mrs.domain.model.auth.user.member.Member&#45;&gt;mrs.domain.model.reservation.reservation.Reservation
            </title>
            <path fill="none" stroke="black"
                  d="M55.61,-249.85C60.28,-207.84 77.94,-108.05 142,-66 183.24,-38.93 204.6,-56.47 253,-66 264.49,-68.26 276.27,-71.62 287.75,-75.54"/>
            <polygon fill="black" stroke="black" points="286.72,-78.89 297.31,-78.96 289.07,-72.3 286.72,-78.89"/>
        </g>
        <!-- mrs.domain.model.facility.room.MeetingRoom -->
        <g id="node9" class="node">
            <title>mrs.domain.model.facility.room.MeetingRoom</title>
            <polygon fill="lemonchiffon" stroke="black" points="424,-209 328,-209 328,-171 424,-171 424,-209"/>
            <text text-anchor="middle" x="376" y="-193.8" font-family="Times New Roman,serif" font-size="14.00">会議室
            </text>
            <text text-anchor="middle" x="376" y="-178.8" font-family="Times New Roman,serif" font-size="14.00">
                MeetingRoom
            </text>
        </g>
        <!-- mrs.domain.model.reservation.room.ReservableRoom -->
        <g id="node12" class="node">
            <title>mrs.domain.model.reservation.room.ReservableRoom</title>
            <polygon fill="#eedd82" stroke="black" points="736,-153 499,-153 499,-79 736,-79 736,-153"/>
            <text text-anchor="middle" x="617.5" y="-125" font-family="Times New Roman,serif" font-size="30.00">
                予約可能会議室
            </text>
            <text text-anchor="middle" x="617.5" y="-92" font-family="Times New Roman,serif" font-size="30.00">
                ReservableRoom
            </text>
        </g>
        <!-- mrs.domain.model.facility.room.MeetingRoom&#45;&gt;mrs.domain.model.reservation.room.ReservableRoom -->
        <g id="edge13" class="edge">
            <title>mrs.domain.model.facility.room.MeetingRoom&#45;&gt;mrs.domain.model.reservation.room.ReservableRoom
            </title>
            <path fill="none" stroke="black" d="M424.03,-175.47C443.01,-169.6 465.91,-162.53 489.19,-155.34"/>
            <polygon fill="black" stroke="black" points="490.3,-158.66 498.83,-152.36 488.24,-151.97 490.3,-158.66"/>
        </g>
        <!-- mrs.domain.model.reservation.reservation.Reservation&#45;&gt;mrs.domain.model.auth.user.User -->
        <g id="edge12" class="edge">
            <title>mrs.domain.model.reservation.reservation.Reservation&#45;&gt;mrs.domain.model.auth.user.User</title>
            <path fill="none" stroke="black"
                  d="M312,-153.17C303.74,-158.48 295.8,-164.39 289,-171 258.87,-200.27 235.63,-241.72 220.26,-273.57"/>
            <polygon fill="black" stroke="black" points="217.05,-272.16 215.93,-282.7 223.38,-275.16 217.05,-272.16"/>
        </g>
        <!-- mrs.domain.model.reservation.reservation.Reservation&#45;&gt;mrs.domain.model.reservation.room.ReservableRoom -->
        <g id="edge14" class="edge">
            <title>mrs.domain.model.reservation.reservation.Reservation&#45;&gt;mrs.domain.model.reservation.room.ReservableRoom</title>
            <path fill="none" stroke="black" d="M455.09,-109.63C465.96,-109.42 477.36,-109.3 488.86,-109.26"/>
            <polygon fill="black" stroke="black" points="488.98,-112.76 498.97,-109.25 488.97,-105.76 488.98,-112.76"/>
        </g>
        <!-- mrs.domain.model.reservation.reservation.ReservationList -->
        <g id="node11" class="node">
            <title>mrs.domain.model.reservation.reservation.ReservationList</title>
            <polygon fill="lemonchiffon" stroke="black" points="249.5,-113 145.5,-113 145.5,-75 249.5,-75 249.5,-113"/>
            <text text-anchor="middle" x="197.5" y="-97.8" font-family="Times New Roman,serif" font-size="14.00">予約一覧
            </text>
            <text text-anchor="middle" x="197.5" y="-82.8" font-family="Times New Roman,serif" font-size="14.00">
                ReservationList
            </text>
        </g>
        <!-- mrs.domain.model.reservation.reservation.ReservationList&#45;&gt;mrs.domain.model.reservation.reservation.Reservation -->
        <g id="edge7" class="edge">
            <title>mrs.domain.model.reservation.reservation.ReservationList&#45;&gt;mrs.domain.model.reservation.reservation.Reservation</title>
            <path fill="none" stroke="black" d="M249.55,-100.36C261.2,-101.82 273.91,-103.4 286.62,-104.98"/>
            <polygon fill="black" stroke="black" points="286.44,-108.49 296.79,-106.25 287.3,-101.54 286.44,-108.49"/>
        </g>
        <!-- mrs.domain.model.reservation.room.ReservableRoom&#45;&gt;mrs.domain.model.reservation.reservation.Reservation -->
        <g id="edge8" class="edge">
            <title>mrs.domain.model.reservation.room.ReservableRoom&#45;&gt;mrs.domain.model.reservation.reservation.Reservation</title>
            <path fill="none" stroke="black" d="M498.97,-122.75C487.58,-122.76 476.15,-122.69 465.11,-122.54"/>
            <polygon fill="black" stroke="black" points="465.15,-119.04 455.09,-122.37 465.03,-126.04 465.15,-119.04"/>
        </g>
        <!-- mrs.domain.model.reservation.room.ReservableRoomList -->
        <g id="node13" class="node">
            <title>mrs.domain.model.reservation.room.ReservableRoomList</title>
            <polygon fill="lemonchiffon" stroke="black" points="462,-61 290,-61 290,-23 462,-23 462,-61"/>
            <text text-anchor="middle" x="376" y="-45.8" font-family="Times New Roman,serif" font-size="14.00">
                予約可能会議室一覧
            </text>
            <text text-anchor="middle" x="376" y="-30.8" font-family="Times New Roman,serif" font-size="14.00">
                ReservableRoomList
            </text>
        </g>
        <!-- mrs.domain.model.reservation.room.ReservableRoomList&#45;&gt;mrs.domain.model.reservation.room.ReservableRoom -->
        <g id="edge15" class="edge">
            <title>mrs.domain.model.reservation.room.ReservableRoomList&#45;&gt;mrs.domain.model.reservation.room.ReservableRoom</title>
            <path fill="none" stroke="black" d="M438.68,-61.06C454.23,-65.86 471.51,-71.2 489.01,-76.61"/>
            <polygon fill="black" stroke="black" points="488.15,-80.01 498.74,-79.62 490.22,-73.32 488.15,-80.01"/>
        </g>
    </g>
</svg>
