<?xml version="1.0" encoding="UTF-8" standalone="no"?>
<!DOCTYPE svg PUBLIC "-//W3C//DTD SVG 1.1//EN"
        "http://www.w3.org/Graphics/SVG/1.1/DTD/svg11.dtd">
<!-- Generated by graphviz version 3.0.0 (20220226.1711)
 -->
<!-- Title: ビジネスルール関連図 Pages: 1 -->
<svg width="1584pt" height="739pt"
     viewBox="0.00 0.00 1584.00 739.00" xmlns="http://www.w3.org/2000/svg">
    <g id="graph0" class="graph" transform="scale(1 1) rotate(0) translate(4 735)">
        <title>ビジネスルール関連図</title>
        <polygon fill="white" stroke="transparent" points="-4,4 -4,-735 1580,-735 1580,4 -4,4"/>
        <text text-anchor="middle" x="788" y="-7.8" font-family="Times New Roman,serif" font-size="14.00">ビジネスルール関連図
        </text>
        <g id="clust2" class="cluster">
            <title>cluster_mrs.domain.model.contact</title>
            <polygon fill="lemonchiffon" stroke="#eedd82" stroke-width="2"
                     points="118,-496 118,-723 272,-723 272,-496 118,-496"/>
            <text text-anchor="middle" x="195" y="-707.8" font-family="Times New Roman,serif" font-size="14.00">
                contact
            </text>
        </g>
        <g id="clust3" class="cluster">
            <title>cluster_mrs.domain.model.facility.room</title>
            <polygon fill="lemonchiffon" stroke="#eedd82" stroke-width="2"
                     points="1432,-31 1432,-402 1568,-402 1568,-31 1432,-31"/>
            <text text-anchor="middle" x="1500" y="-386.8" font-family="Times New Roman,serif" font-size="14.00">
                facility.room
            </text>
        </g>
        <g id="clust1" class="cluster">
            <title>cluster_mrs.domain.model.auth.user</title>
            <polygon fill="lemonchiffon" stroke="#eedd82" stroke-width="2"
                     points="280,-252 280,-572 852,-572 852,-252 280,-252"/>
            <text text-anchor="middle" x="566" y="-556.8" font-family="Times New Roman,serif" font-size="14.00">
                auth.user
            </text>
        </g>
        <g id="clust7" class="cluster">
            <title>cluster_mrs.domain.model.user.staff</title>
            <polygon fill="lemonchiffon" stroke="#eedd82" stroke-width="2"
                     points="8,-495 8,-572 110,-572 110,-495 8,-495"/>
            <text text-anchor="middle" x="59" y="-556.8" font-family="Times New Roman,serif" font-size="14.00">
                user.staff
            </text>
        </g>
        <g id="clust4" class="cluster">
            <title>cluster_mrs.domain.model.reservation.reservation</title>
            <polygon fill="lemonchiffon" stroke="#eedd82" stroke-width="2"
                     points="1000,-103 1000,-487 1228,-487 1228,-103 1000,-103"/>
            <text text-anchor="middle" x="1114" y="-471.8" font-family="Times New Roman,serif" font-size="14.00">
                reservation.reservation
            </text>
        </g>
        <g id="clust5" class="cluster">
            <title>cluster_mrs.domain.model.reservation.room</title>
            <polygon fill="lemonchiffon" stroke="#eedd82" stroke-width="2"
                     points="1236,-177 1236,-402 1424,-402 1424,-177 1236,-177"/>
            <text text-anchor="middle" x="1330" y="-386.8" font-family="Times New Roman,serif" font-size="14.00">
                reservation.room
            </text>
        </g>
        <g id="clust6" class="cluster">
            <title>cluster_mrs.domain.model.user.member</title>
            <polygon fill="lemonchiffon" stroke="#eedd82" stroke-width="2"
                     points="890,-410 890,-572 992,-572 992,-410 890,-410"/>
            <text text-anchor="middle" x="941" y="-556.8" font-family="Times New Roman,serif" font-size="14.00">
                user.member
            </text>
        </g>
        <!-- mrs.domain.model.auth.user.Password -->
        <g id="node1" class="node">
            <title>mrs.domain.model.auth.user.Password</title>
            <polygon fill="#eedd82" stroke="black" points="391.5,-371 288.5,-371 288.5,-333 391.5,-333 391.5,-371"/>
            <text text-anchor="middle" x="340" y="-355.8" font-family="Times New Roman,serif" font-size="14.00">パスワード
            </text>
            <text text-anchor="middle" x="340" y="-340.8" font-family="Times New Roman,serif" font-size="14.00">
                Password
            </text>
        </g>
        <!-- mrs.domain.model.auth.user.PasswordException -->
        <g id="node2" class="node">
            <title>mrs.domain.model.auth.user.PasswordException</title>
            <polygon fill="#eedd82" stroke="black" points="416,-296 288,-296 288,-260 416,-260 416,-296"/>
            <text text-anchor="middle" x="352" y="-274.3" font-family="Times New Roman,serif" font-size="14.00">
                PasswordException
            </text>
        </g>
        <!-- mrs.domain.model.auth.user.Password&#45;&gt;mrs.domain.model.auth.user.PasswordException -->
        <g id="edge1" class="edge">
            <title>mrs.domain.model.auth.user.Password&#45;&gt;mrs.domain.model.auth.user.PasswordException</title>
            <path fill="none" stroke="black" d="M343.03,-332.83C344.37,-324.81 345.97,-315.2 347.44,-306.34"/>
            <polygon fill="black" stroke="black" points="350.91,-306.86 349.1,-296.42 344,-305.71 350.91,-306.86"/>
        </g>
        <!-- mrs.domain.model.auth.user.RoleName -->
        <g id="node3" class="node">
            <title>mrs.domain.model.auth.user.RoleName</title>
            <polygon fill="#eedd82" stroke="black" points="512.5,-371 409.5,-371 409.5,-333 512.5,-333 512.5,-371"/>
            <text text-anchor="middle" x="461" y="-355.8" font-family="Times New Roman,serif" font-size="14.00">利用者区分
            </text>
            <text text-anchor="middle" x="461" y="-340.8" font-family="Times New Roman,serif" font-size="14.00">
                RoleName
            </text>
        </g>
        <!-- mrs.domain.model.auth.user.User -->
        <g id="node4" class="node">
            <title>mrs.domain.model.auth.user.User</title>
            <polygon fill="#eedd82" stroke="black" points="601,-456 533,-456 533,-418 601,-418 601,-456"/>
            <text text-anchor="middle" x="567" y="-440.8" font-family="Times New Roman,serif" font-size="14.00">利用者
            </text>
            <text text-anchor="middle" x="567" y="-425.8" font-family="Times New Roman,serif" font-size="14.00">User
            </text>
        </g>
        <!-- mrs.domain.model.auth.user.User&#45;&gt;mrs.domain.model.auth.user.Password -->
        <g id="edge2" class="edge">
            <title>mrs.domain.model.auth.user.User&#45;&gt;mrs.domain.model.auth.user.Password</title>
            <path fill="none" stroke="black"
                  d="M532.77,-433.72C498.13,-430.35 443.73,-422.08 401,-402 388.29,-396.03 375.9,-386.89 365.64,-378.12"/>
            <polygon fill="black" stroke="black" points="367.7,-375.26 357.91,-371.22 363.05,-380.49 367.7,-375.26"/>
        </g>
        <!-- mrs.domain.model.auth.user.User&#45;&gt;mrs.domain.model.auth.user.RoleName -->
        <g id="edge3" class="edge">
            <title>mrs.domain.model.auth.user.User&#45;&gt;mrs.domain.model.auth.user.RoleName</title>
            <path fill="none" stroke="black"
                  d="M542.61,-417.78C535.9,-412.71 528.64,-407.18 522,-402 511.87,-394.11 500.9,-385.36 491.1,-377.47"/>
            <polygon fill="black" stroke="black" points="493.16,-374.64 483.18,-371.08 488.77,-380.08 493.16,-374.64"/>
        </g>
        <!-- mrs.domain.model.auth.user.UserException -->
        <g id="node6" class="node">
            <title>mrs.domain.model.auth.user.UserException</title>
            <polygon fill="#eedd82" stroke="black" points="843.5,-370 744.5,-370 744.5,-334 843.5,-334 843.5,-370"/>
            <text text-anchor="middle" x="794" y="-348.3" font-family="Times New Roman,serif" font-size="14.00">
                UserException
            </text>
        </g>
        <!-- mrs.domain.model.auth.user.User&#45;&gt;mrs.domain.model.auth.user.UserException -->
        <g id="edge4" class="edge">
            <title>mrs.domain.model.auth.user.User&#45;&gt;mrs.domain.model.auth.user.UserException</title>
            <path fill="none" stroke="black"
                  d="M601.29,-434.12C636.61,-431.05 692.48,-423.02 736,-402 748.74,-395.85 760.99,-386.24 770.92,-377.16"/>
            <polygon fill="black" stroke="black" points="773.54,-379.5 778.36,-370.07 768.71,-374.44 773.54,-379.5"/>
        </g>
        <!-- mrs.domain.model.auth.user.UserId -->
        <g id="node7" class="node">
            <title>mrs.domain.model.auth.user.UserId</title>
            <polygon fill="#eedd82" stroke="black" points="633.5,-371 530.5,-371 530.5,-333 633.5,-333 633.5,-371"/>
            <text text-anchor="middle" x="582" y="-355.8" font-family="Times New Roman,serif" font-size="14.00">利用者番号
            </text>
            <text text-anchor="middle" x="582" y="-340.8" font-family="Times New Roman,serif" font-size="14.00">UserId
            </text>
        </g>
        <!-- mrs.domain.model.auth.user.User&#45;&gt;mrs.domain.model.auth.user.UserId -->
        <g id="edge5" class="edge">
            <title>mrs.domain.model.auth.user.User&#45;&gt;mrs.domain.model.auth.user.UserId</title>
            <path fill="none" stroke="black" d="M570.25,-417.99C572.19,-407.3 574.68,-393.5 576.87,-381.37"/>
            <polygon fill="black" stroke="black" points="580.37,-381.72 578.7,-371.26 573.48,-380.48 580.37,-381.72"/>
        </g>
        <!-- mrs.domain.model.auth.user.UserName -->
        <g id="node9" class="node">
            <title>mrs.domain.model.auth.user.UserName</title>
            <polygon fill="#eedd82" stroke="black" points="726.5,-371 651.5,-371 651.5,-333 726.5,-333 726.5,-371"/>
            <text text-anchor="middle" x="689" y="-355.8" font-family="Times New Roman,serif" font-size="14.00">氏名
            </text>
            <text text-anchor="middle" x="689" y="-340.8" font-family="Times New Roman,serif" font-size="14.00">
                UserName
            </text>
        </g>
        <!-- mrs.domain.model.auth.user.User&#45;&gt;mrs.domain.model.auth.user.UserName -->
        <g id="edge6" class="edge">
            <title>mrs.domain.model.auth.user.User&#45;&gt;mrs.domain.model.auth.user.UserName</title>
            <path fill="none" stroke="black"
                  d="M601.08,-424.13C614.77,-418.52 630.28,-411.06 643,-402 652.22,-395.43 661.06,-386.81 668.48,-378.63"/>
            <polygon fill="black" stroke="black" points="671.19,-380.84 675.12,-371 665.92,-376.24 671.19,-380.84"/>
        </g>
        <!-- mrs.domain.model.reservation.reservation.Reservation -->
        <g id="node16" class="node">
            <title>mrs.domain.model.reservation.reservation.Reservation</title>
            <polygon fill="#eedd82" stroke="black"
                     points="1099.5,-371 1016.5,-371 1016.5,-333 1099.5,-333 1099.5,-371"/>
            <text text-anchor="middle" x="1058" y="-355.8" font-family="Times New Roman,serif" font-size="14.00">予約
            </text>
            <text text-anchor="middle" x="1058" y="-340.8" font-family="Times New Roman,serif" font-size="14.00">
                Reservation
            </text>
        </g>
        <!-- mrs.domain.model.auth.user.User&#45;&gt;mrs.domain.model.reservation.reservation.Reservation -->
        <g id="edge7" class="edge">
            <title>mrs.domain.model.auth.user.User&#45;&gt;mrs.domain.model.reservation.reservation.Reservation</title>
            <path fill="none" stroke="black"
                  d="M601.2,-433.77C657.09,-429.47 770.52,-418.95 865,-402 913.42,-393.31 967.55,-379.98 1006.22,-369.42"/>
            <polygon fill="black" stroke="black" points="1007.5,-372.7 1016.2,-366.66 1005.63,-365.95 1007.5,-372.7"/>
        </g>
        <!-- mrs.domain.model.auth.user.UserDetailsImpl -->
        <g id="node5" class="node">
            <title>mrs.domain.model.auth.user.UserDetailsImpl</title>
            <polygon fill="#eedd82" stroke="black" points="518,-541 412,-541 412,-503 518,-503 518,-541"/>
            <text text-anchor="middle" x="465" y="-525.8" font-family="Times New Roman,serif" font-size="14.00">利用者
            </text>
            <text text-anchor="middle" x="465" y="-510.8" font-family="Times New Roman,serif" font-size="14.00">
                UserDetailsImpl
            </text>
        </g>
        <!-- mrs.domain.model.auth.user.UserDetailsImpl&#45;&gt;mrs.domain.model.auth.user.Password -->
        <g id="edge8" class="edge">
            <title>mrs.domain.model.auth.user.UserDetailsImpl&#45;&gt;mrs.domain.model.auth.user.Password</title>
            <path fill="none" stroke="black" d="M451.38,-502.7C429.16,-472.83 385.01,-413.49 359.48,-379.17"/>
            <polygon fill="black" stroke="black" points="362.19,-376.96 353.41,-371.02 356.57,-381.13 362.19,-376.96"/>
        </g>
        <!-- mrs.domain.model.auth.user.UserDetailsImpl&#45;&gt;mrs.domain.model.auth.user.RoleName -->
        <g id="edge9" class="edge">
            <title>mrs.domain.model.auth.user.UserDetailsImpl&#45;&gt;mrs.domain.model.auth.user.RoleName</title>
            <path fill="none" stroke="black" d="M464.56,-502.7C463.87,-473.46 462.5,-415.99 461.68,-381.39"/>
            <polygon fill="black" stroke="black" points="465.17,-380.94 461.43,-371.02 458.17,-381.1 465.17,-380.94"/>
        </g>
        <!-- mrs.domain.model.auth.user.UserDetailsImpl&#45;&gt;mrs.domain.model.auth.user.User -->
        <g id="edge10" class="edge">
            <title>mrs.domain.model.auth.user.UserDetailsImpl&#45;&gt;mrs.domain.model.auth.user.User</title>
            <path fill="none" stroke="black" d="M487.13,-502.99C501.6,-491.22 520.69,-475.68 536.58,-462.75"/>
            <polygon fill="black" stroke="black" points="539.01,-465.29 544.56,-456.26 534.59,-459.86 539.01,-465.29"/>
        </g>
        <!-- mrs.domain.model.auth.user.UserDetailsImpl&#45;&gt;mrs.domain.model.auth.user.UserId -->
        <g id="edge11" class="edge">
            <title>mrs.domain.model.auth.user.UserDetailsImpl&#45;&gt;mrs.domain.model.auth.user.UserId</title>
            <path fill="none" stroke="black"
                  d="M472.63,-502.71C482.63,-479.85 501.54,-440.08 524,-410 532.48,-398.64 543.23,-387.42 553.17,-377.98"/>
            <polygon fill="black" stroke="black" points="555.6,-380.5 560.55,-371.14 550.84,-375.37 555.6,-380.5"/>
        </g>
        <!-- mrs.domain.model.auth.user.UserIdException -->
        <g id="node8" class="node">
            <title>mrs.domain.model.auth.user.UserIdException</title>
            <polygon fill="#eedd82" stroke="black" points="637.5,-296 526.5,-296 526.5,-260 637.5,-260 637.5,-296"/>
            <text text-anchor="middle" x="582" y="-274.3" font-family="Times New Roman,serif" font-size="14.00">
                UserIdException
            </text>
        </g>
        <!-- mrs.domain.model.auth.user.UserId&#45;&gt;mrs.domain.model.auth.user.UserIdException -->
        <g id="edge12" class="edge">
            <title>mrs.domain.model.auth.user.UserId&#45;&gt;mrs.domain.model.auth.user.UserIdException</title>
            <path fill="none" stroke="black" d="M582,-332.83C582,-324.89 582,-315.41 582,-306.63"/>
            <polygon fill="black" stroke="black" points="585.5,-306.42 582,-296.42 578.5,-306.42 585.5,-306.42"/>
        </g>
        <!-- mrs.domain.model.contact.Contact -->
        <g id="node10" class="node">
            <title>mrs.domain.model.contact.Contact</title>
            <polygon fill="#eedd82" stroke="black" points="263.5,-618 160.5,-618 160.5,-580 263.5,-580 263.5,-618"/>
            <text text-anchor="middle" x="212" y="-602.8" font-family="Times New Roman,serif" font-size="14.00">問い合わせ
            </text>
            <text text-anchor="middle" x="212" y="-587.8" font-family="Times New Roman,serif" font-size="14.00">
                Contact
            </text>
        </g>
        <!-- mrs.domain.model.contact.Contact&#45;&gt;mrs.domain.model.auth.user.User -->
        <g id="edge13" class="edge">
            <title>mrs.domain.model.contact.Contact&#45;&gt;mrs.domain.model.auth.user.User</title>
            <path fill="none" stroke="black"
                  d="M263.64,-596.88C347.76,-594.6 507.05,-588.18 527,-572 558.37,-546.55 565.86,-497.58 567.26,-466.41"/>
            <polygon fill="black" stroke="black" points="570.76,-466.29 567.53,-456.2 563.77,-466.1 570.76,-466.29"/>
        </g>
        <!-- mrs.domain.model.contact.ContactId -->
        <g id="node11" class="node">
            <title>mrs.domain.model.contact.ContactId</title>
            <polygon fill="#eedd82" stroke="black" points="248.5,-540 175.5,-540 175.5,-504 248.5,-504 248.5,-540"/>
            <text text-anchor="middle" x="212" y="-518.3" font-family="Times New Roman,serif" font-size="14.00">
                ContactId
            </text>
        </g>
        <!-- mrs.domain.model.contact.Contact&#45;&gt;mrs.domain.model.contact.ContactId -->
        <g id="edge14" class="edge">
            <title>mrs.domain.model.contact.Contact&#45;&gt;mrs.domain.model.contact.ContactId</title>
            <path fill="none" stroke="black" d="M212,-579.84C212,-570.99 212,-560.16 212,-550.34"/>
            <polygon fill="black" stroke="black" points="215.5,-550.22 212,-540.22 208.5,-550.22 215.5,-550.22"/>
        </g>
        <!-- mrs.domain.model.user.member.Member -->
        <g id="node24" class="node">
            <title>mrs.domain.model.user.member.Member</title>
            <polygon fill="#eedd82" stroke="black" points="961.5,-541 898.5,-541 898.5,-503 961.5,-503 961.5,-541"/>
            <text text-anchor="middle" x="930" y="-525.8" font-family="Times New Roman,serif" font-size="14.00">会員
            </text>
            <text text-anchor="middle" x="930" y="-510.8" font-family="Times New Roman,serif" font-size="14.00">Member
            </text>
        </g>
        <!-- mrs.domain.model.contact.Contact&#45;&gt;mrs.domain.model.user.member.Member -->
        <g id="edge15" class="edge">
            <title>mrs.domain.model.contact.Contact&#45;&gt;mrs.domain.model.user.member.Member</title>
            <path fill="none" stroke="black"
                  d="M263.53,-597.51C406.33,-595.93 800.37,-589.98 856,-572 872.24,-566.75 888.27,-556.88 901.24,-547.36"/>
            <polygon fill="black" stroke="black" points="903.48,-550.06 909.3,-541.2 899.23,-544.49 903.48,-550.06"/>
        </g>
        <!-- mrs.domain.model.contact.ContactList -->
        <g id="node12" class="node">
            <title>mrs.domain.model.contact.ContactList</title>
            <polygon fill="#eedd82" stroke="black" points="263.5,-692 126.5,-692 126.5,-654 263.5,-654 263.5,-692"/>
            <text text-anchor="middle" x="195" y="-676.8" font-family="Times New Roman,serif" font-size="14.00">
                問い合わせ一覧
            </text>
            <text text-anchor="middle" x="195" y="-661.8" font-family="Times New Roman,serif" font-size="14.00">
                ContactList
            </text>
        </g>
        <!-- mrs.domain.model.contact.ContactList&#45;&gt;mrs.domain.model.contact.Contact -->
        <g id="edge16" class="edge">
            <title>mrs.domain.model.contact.ContactList&#45;&gt;mrs.domain.model.contact.Contact</title>
            <path fill="none" stroke="black" d="M199.29,-653.83C201.11,-646.13 203.27,-636.97 205.29,-628.42"/>
            <polygon fill="black" stroke="black" points="208.76,-628.95 207.65,-618.41 201.95,-627.34 208.76,-628.95"/>
        </g>
        <!-- mrs.domain.model.facility.room.MeetingRoom -->
        <g id="node13" class="node">
            <title>mrs.domain.model.facility.room.MeetingRoom</title>
            <polygon fill="#eedd82" stroke="black" points="1538,-371 1442,-371 1442,-333 1538,-333 1538,-371"/>
            <text text-anchor="middle" x="1490" y="-355.8" font-family="Times New Roman,serif" font-size="14.00">会議室
            </text>
            <text text-anchor="middle" x="1490" y="-340.8" font-family="Times New Roman,serif" font-size="14.00">
                MeetingRoom
            </text>
        </g>
        <!-- mrs.domain.model.facility.room.RoomId -->
        <g id="node14" class="node">
            <title>mrs.domain.model.facility.room.RoomId</title>
            <polygon fill="#eedd82" stroke="black"
                     points="1543.5,-149 1440.5,-149 1440.5,-111 1543.5,-111 1543.5,-149"/>
            <text text-anchor="middle" x="1492" y="-133.8" font-family="Times New Roman,serif" font-size="14.00">会議室番号
            </text>
            <text text-anchor="middle" x="1492" y="-118.8" font-family="Times New Roman,serif" font-size="14.00">
                RoomId
            </text>
        </g>
        <!-- mrs.domain.model.facility.room.MeetingRoom&#45;&gt;mrs.domain.model.facility.room.RoomId -->
        <g id="edge17" class="edge">
            <title>mrs.domain.model.facility.room.MeetingRoom&#45;&gt;mrs.domain.model.facility.room.RoomId</title>
            <path fill="none" stroke="black" d="M1490.16,-333C1490.51,-294.8 1491.32,-205.41 1491.74,-159.43"/>
            <polygon fill="black" stroke="black"
                     points="1495.24,-159.28 1491.83,-149.25 1488.24,-159.22 1495.24,-159.28"/>
        </g>
        <!-- mrs.domain.model.reservation.room.ReservableRoom -->
        <g id="node21" class="node">
            <title>mrs.domain.model.reservation.room.ReservableRoom</title>
            <polygon fill="#eedd82" stroke="black"
                     points="1413.5,-297 1276.5,-297 1276.5,-259 1413.5,-259 1413.5,-297"/>
            <text text-anchor="middle" x="1345" y="-281.8" font-family="Times New Roman,serif" font-size="14.00">
                予約可能会議室
            </text>
            <text text-anchor="middle" x="1345" y="-266.8" font-family="Times New Roman,serif" font-size="14.00">
                ReservableRoom
            </text>
        </g>
        <!-- mrs.domain.model.facility.room.MeetingRoom&#45;&gt;mrs.domain.model.reservation.room.ReservableRoom -->
        <g id="edge18" class="edge">
            <title>mrs.domain.model.facility.room.MeetingRoom&#45;&gt;mrs.domain.model.reservation.room.ReservableRoom
            </title>
            <path fill="none" stroke="black" d="M1459.36,-332.83C1441.07,-323.29 1417.46,-311.51 1396.42,-301.4"/>
            <polygon fill="black" stroke="black" points="1397.8,-298.18 1387.27,-297.04 1394.79,-304.5 1397.8,-298.18"/>
        </g>
        <!-- mrs.domain.model.facility.room.RoomIdException -->
        <g id="node15" class="node">
            <title>mrs.domain.model.facility.room.RoomIdException</title>
            <polygon fill="#eedd82" stroke="black" points="1560,-75 1440,-75 1440,-39 1560,-39 1560,-75"/>
            <text text-anchor="middle" x="1500" y="-53.3" font-family="Times New Roman,serif" font-size="14.00">
                RoomIdException
            </text>
        </g>
        <!-- mrs.domain.model.facility.room.RoomId&#45;&gt;mrs.domain.model.facility.room.RoomIdException -->
        <g id="edge19" class="edge">
            <title>mrs.domain.model.facility.room.RoomId&#45;&gt;mrs.domain.model.facility.room.RoomIdException</title>
            <path fill="none" stroke="black" d="M1494.06,-110.72C1494.94,-102.89 1495.99,-93.59 1496.96,-84.99"/>
            <polygon fill="black" stroke="black" points="1500.44,-85.33 1498.08,-75 1493.49,-84.55 1500.44,-85.33"/>
        </g>
        <!-- mrs.domain.model.reservation.reservation.Reservation&#45;&gt;mrs.domain.model.auth.user.User -->
        <g id="edge20" class="edge">
            <title>mrs.domain.model.reservation.reservation.Reservation&#45;&gt;mrs.domain.model.auth.user.User</title>
            <path fill="none" stroke="black"
                  d="M1016.36,-362.89C973.8,-373.85 906.14,-391.39 847,-402 764.31,-416.84 667.11,-426.74 611.61,-431.87"/>
            <polygon fill="black" stroke="black" points="611.05,-428.4 601.41,-432.8 611.69,-435.37 611.05,-428.4"/>
        </g>
        <!-- mrs.domain.model.reservation.reservation.ReservationId -->
        <g id="node17" class="node">
            <title>mrs.domain.model.reservation.reservation.ReservationId</title>
            <polygon fill="#eedd82" stroke="black"
                     points="1103.5,-297 1008.5,-297 1008.5,-259 1103.5,-259 1103.5,-297"/>
            <text text-anchor="middle" x="1056" y="-281.8" font-family="Times New Roman,serif" font-size="14.00">予約番号
            </text>
            <text text-anchor="middle" x="1056" y="-266.8" font-family="Times New Roman,serif" font-size="14.00">
                ReservationId
            </text>
        </g>
        <!-- mrs.domain.model.reservation.reservation.Reservation&#45;&gt;mrs.domain.model.reservation.reservation.ReservationId -->
        <g id="edge21" class="edge">
            <title>mrs.domain.model.reservation.reservation.Reservation&#45;&gt;mrs.domain.model.reservation.reservation.ReservationId</title>
            <path fill="none" stroke="black" d="M1057.5,-332.83C1057.28,-325.13 1057.03,-315.97 1056.79,-307.42"/>
            <polygon fill="black" stroke="black"
                     points="1060.29,-307.31 1056.51,-297.41 1053.29,-307.51 1060.29,-307.31"/>
        </g>
        <!-- mrs.domain.model.reservation.reservation.ReservedTime -->
        <g id="node20" class="node">
            <title>mrs.domain.model.reservation.reservation.ReservedTime</title>
            <polygon fill="#eedd82" stroke="black" points="1220,-297 1122,-297 1122,-259 1220,-259 1220,-297"/>
            <text text-anchor="middle" x="1171" y="-281.8" font-family="Times New Roman,serif" font-size="14.00">予約時間
            </text>
            <text text-anchor="middle" x="1171" y="-266.8" font-family="Times New Roman,serif" font-size="14.00">
                ReservedTime
            </text>
        </g>
        <!-- mrs.domain.model.reservation.reservation.Reservation&#45;&gt;mrs.domain.model.reservation.reservation.ReservedTime -->
        <g id="edge22" class="edge">
            <title>mrs.domain.model.reservation.reservation.Reservation&#45;&gt;mrs.domain.model.reservation.reservation.ReservedTime</title>
            <path fill="none" stroke="black" d="M1086.51,-332.83C1100.83,-323.71 1118.36,-312.54 1133.73,-302.74"/>
            <polygon fill="black" stroke="black"
                     points="1135.94,-305.49 1142.49,-297.16 1132.18,-299.58 1135.94,-305.49"/>
        </g>
        <!-- mrs.domain.model.reservation.reservation.Reservation&#45;&gt;mrs.domain.model.reservation.room.ReservableRoom -->
        <g id="edge23" class="edge">
            <title>mrs.domain.model.reservation.reservation.Reservation&#45;&gt;mrs.domain.model.reservation.room.ReservableRoom</title>
            <path fill="none" stroke="black" d="M1099.64,-341.73C1143.99,-331.13 1214.98,-313.45 1269.25,-299.55"/>
            <polygon fill="black" stroke="black" points="1270.37,-302.88 1279.18,-297 1268.63,-296.1 1270.37,-302.88"/>
        </g>
        <!-- mrs.domain.model.reservation.room.ReservableRoomId -->
        <g id="node22" class="node">
            <title>mrs.domain.model.reservation.room.ReservableRoomId</title>
            <polygon fill="#eedd82" stroke="black" points="1406,-223 1254,-223 1254,-185 1406,-185 1406,-223"/>
            <text text-anchor="middle" x="1330" y="-207.8" font-family="Times New Roman,serif" font-size="14.00">
                予約可能会議室ID
            </text>
            <text text-anchor="middle" x="1330" y="-192.8" font-family="Times New Roman,serif" font-size="14.00">
                ReservableRoomId
            </text>
        </g>
        <!-- mrs.domain.model.reservation.reservation.Reservation&#45;&gt;mrs.domain.model.reservation.room.ReservableRoomId -->
        <g id="edge24" class="edge">
            <title>mrs.domain.model.reservation.reservation.Reservation&#45;&gt;mrs.domain.model.reservation.room.ReservableRoomId</title>
            <path fill="none" stroke="black"
                  d="M1099.79,-344.44C1136.23,-337.24 1189.32,-323.07 1229,-297 1251.12,-282.47 1248.68,-270.09 1268,-252 1276.45,-244.08 1286.2,-236.2 1295.43,-229.21"/>
            <polygon fill="black" stroke="black"
                     points="1297.75,-231.84 1303.7,-223.07 1293.58,-226.22 1297.75,-231.84"/>
        </g>
        <!-- mrs.domain.model.reservation.reservation.ReservationList -->
        <g id="node18" class="node">
            <title>mrs.domain.model.reservation.reservation.ReservationList</title>
            <polygon fill="#eedd82" stroke="black" points="1112,-456 1008,-456 1008,-418 1112,-418 1112,-456"/>
            <text text-anchor="middle" x="1060" y="-440.8" font-family="Times New Roman,serif" font-size="14.00">予約一覧
            </text>
            <text text-anchor="middle" x="1060" y="-425.8" font-family="Times New Roman,serif" font-size="14.00">
                ReservationList
            </text>
        </g>
        <!-- mrs.domain.model.reservation.reservation.ReservationList&#45;&gt;mrs.domain.model.reservation.reservation.Reservation -->
        <g id="edge25" class="edge">
            <title>mrs.domain.model.reservation.reservation.ReservationList&#45;&gt;mrs.domain.model.reservation.reservation.Reservation</title>
            <path fill="none" stroke="black" d="M1059.57,-417.99C1059.31,-407.3 1058.98,-393.5 1058.68,-381.37"/>
            <polygon fill="black" stroke="black"
                     points="1062.18,-381.17 1058.44,-371.26 1055.18,-381.34 1062.18,-381.17"/>
        </g>
        <!-- mrs.domain.model.reservation.reservation.ReservedDate -->
        <g id="node19" class="node">
            <title>mrs.domain.model.reservation.reservation.ReservedDate</title>
            <polygon fill="#eedd82" stroke="black"
                     points="1219.5,-149 1124.5,-149 1124.5,-111 1219.5,-111 1219.5,-149"/>
            <text text-anchor="middle" x="1172" y="-133.8" font-family="Times New Roman,serif" font-size="14.00">予約日
            </text>
            <text text-anchor="middle" x="1172" y="-118.8" font-family="Times New Roman,serif" font-size="14.00">
                ReservedDate
            </text>
        </g>
        <!-- mrs.domain.model.reservation.room.ReservableRoom&#45;&gt;mrs.domain.model.facility.room.MeetingRoom -->
        <g id="edge26" class="edge">
            <title>mrs.domain.model.reservation.room.ReservableRoom&#45;&gt;mrs.domain.model.facility.room.MeetingRoom
            </title>
            <path fill="none" stroke="black" d="M1375.63,-297.16C1393.84,-306.67 1417.34,-318.4 1438.33,-328.48"/>
            <polygon fill="black" stroke="black"
                     points="1436.93,-331.68 1447.46,-332.83 1439.94,-325.37 1436.93,-331.68"/>
        </g>
        <!-- mrs.domain.model.reservation.room.ReservableRoom&#45;&gt;mrs.domain.model.reservation.reservation.Reservation -->
        <g id="edge27" class="edge">
            <title>mrs.domain.model.reservation.room.ReservableRoom&#45;&gt;mrs.domain.model.reservation.reservation.Reservation</title>
            <path fill="none" stroke="black" d="M1276.48,-294.76C1225.18,-307.26 1156.18,-324.59 1109.51,-336.7"/>
            <polygon fill="black" stroke="black"
                     points="1108.41,-333.37 1099.61,-339.27 1110.17,-340.14 1108.41,-333.37"/>
        </g>
        <!-- mrs.domain.model.reservation.room.ReservableRoom&#45;&gt;mrs.domain.model.reservation.room.ReservableRoomId -->
        <g id="edge28" class="edge">
            <title>mrs.domain.model.reservation.room.ReservableRoom&#45;&gt;mrs.domain.model.reservation.room.ReservableRoomId</title>
            <path fill="none" stroke="black" d="M1341.21,-258.83C1339.61,-251.13 1337.7,-241.97 1335.92,-233.42"/>
            <polygon fill="black" stroke="black"
                     points="1339.3,-232.49 1333.84,-223.41 1332.45,-233.92 1339.3,-232.49"/>
        </g>
        <!-- mrs.domain.model.reservation.room.ReservableRoomId&#45;&gt;mrs.domain.model.facility.room.RoomId -->
        <g id="edge29" class="edge">
            <title>mrs.domain.model.reservation.room.ReservableRoomId&#45;&gt;mrs.domain.model.facility.room.RoomId
            </title>
            <path fill="none" stroke="black" d="M1370.88,-184.83C1392.55,-175.2 1419.34,-163.29 1442.21,-153.13"/>
            <polygon fill="black" stroke="black" points="1443.7,-156.3 1451.41,-149.04 1440.85,-149.9 1443.7,-156.3"/>
        </g>
        <!-- mrs.domain.model.reservation.room.ReservableRoomId&#45;&gt;mrs.domain.model.reservation.reservation.ReservedDate -->
        <g id="edge30" class="edge">
            <title>mrs.domain.model.reservation.room.ReservableRoomId&#45;&gt;mrs.domain.model.reservation.reservation.ReservedDate</title>
            <path fill="none" stroke="black" d="M1290.13,-184.83C1269.09,-175.24 1243.1,-163.4 1220.86,-153.27"/>
            <polygon fill="black" stroke="black" points="1222.13,-150 1211.58,-149.04 1219.23,-156.37 1222.13,-150"/>
        </g>
        <!-- mrs.domain.model.reservation.room.ReservableRoomList -->
        <g id="node23" class="node">
            <title>mrs.domain.model.reservation.room.ReservableRoomList</title>
            <polygon fill="#eedd82" stroke="black" points="1416,-371 1244,-371 1244,-333 1416,-333 1416,-371"/>
            <text text-anchor="middle" x="1330" y="-355.8" font-family="Times New Roman,serif" font-size="14.00">
                予約可能会議室一覧
            </text>
            <text text-anchor="middle" x="1330" y="-340.8" font-family="Times New Roman,serif" font-size="14.00">
                ReservableRoomList
            </text>
        </g>
        <!-- mrs.domain.model.reservation.room.ReservableRoomList&#45;&gt;mrs.domain.model.reservation.room.ReservableRoom -->
        <g id="edge31" class="edge">
            <title>mrs.domain.model.reservation.room.ReservableRoomList&#45;&gt;mrs.domain.model.reservation.room.ReservableRoom</title>
            <path fill="none" stroke="black" d="M1333.79,-332.83C1335.39,-325.13 1337.3,-315.97 1339.08,-307.42"/>
            <polygon fill="black" stroke="black"
                     points="1342.55,-307.92 1341.16,-297.41 1335.7,-306.49 1342.55,-307.92"/>
        </g>
        <!-- mrs.domain.model.user.member.Member&#45;&gt;mrs.domain.model.auth.user.Password -->
        <g id="edge32" class="edge">
            <title>mrs.domain.model.user.member.Member&#45;&gt;mrs.domain.model.auth.user.Password</title>
            <path fill="none" stroke="black"
                  d="M898.15,-507.53C885.29,-502.7 870.17,-497.77 856,-495 819.75,-487.92 723.91,-501.63 690,-487 644.69,-467.45 655.41,-429.32 610,-410 567.23,-391.8 444.54,-418.26 401,-402 387.31,-396.89 374.35,-387.42 363.93,-378.16"/>
            <polygon fill="black" stroke="black" points="366.18,-375.47 356.49,-371.19 361.4,-380.58 366.18,-375.47"/>
        </g>
        <!-- mrs.domain.model.user.member.Member&#45;&gt;mrs.domain.model.auth.user.RoleName -->
        <g id="edge33" class="edge">
            <title>mrs.domain.model.user.member.Member&#45;&gt;mrs.domain.model.auth.user.RoleName</title>
            <path fill="none" stroke="black"
                  d="M898.47,-507.87C885.53,-503.03 870.26,-497.99 856,-495 833.1,-490.19 771.66,-497.98 751,-487 712.45,-466.51 728.84,-429.94 690,-410 656.75,-392.93 556.95,-415.24 522,-402 508.33,-396.82 495.38,-387.34 484.96,-378.09"/>
            <polygon fill="black" stroke="black" points="487.21,-375.4 477.51,-371.14 482.43,-380.52 487.21,-375.4"/>
        </g>
        <!-- mrs.domain.model.user.member.Member&#45;&gt;mrs.domain.model.auth.user.User -->
        <g id="edge34" class="edge">
            <title>mrs.domain.model.user.member.Member&#45;&gt;mrs.domain.model.auth.user.User</title>
            <path fill="none" stroke="black"
                  d="M898.16,-507.48C885.3,-502.64 870.18,-497.72 856,-495 813.63,-486.87 703.71,-498.04 662,-487 641.57,-481.59 620.51,-471.3 603.43,-461.53"/>
            <polygon fill="black" stroke="black" points="604.77,-458.26 594.38,-456.2 601.21,-464.29 604.77,-458.26"/>
        </g>
        <!-- mrs.domain.model.user.member.Member&#45;&gt;mrs.domain.model.auth.user.UserId -->
        <g id="edge35" class="edge">
            <title>mrs.domain.model.user.member.Member&#45;&gt;mrs.domain.model.auth.user.UserId</title>
            <path fill="none" stroke="black"
                  d="M898.36,-508.37C885.4,-503.59 870.15,-498.48 856,-495 832.01,-489.1 821.8,-500.32 801,-487 766.64,-464.99 786.11,-430.78 751,-410 730.29,-397.74 665.39,-410.82 643,-402 629.5,-396.68 616.65,-387.28 606.26,-378.12"/>
            <polygon fill="black" stroke="black" points="608.54,-375.45 598.82,-371.23 603.78,-380.59 608.54,-375.45"/>
        </g>
        <!-- mrs.domain.model.user.member.Member&#45;&gt;mrs.domain.model.auth.user.UserName -->
        <g id="edge36" class="edge">
            <title>mrs.domain.model.user.member.Member&#45;&gt;mrs.domain.model.auth.user.UserName</title>
            <path fill="none" stroke="black"
                  d="M898.2,-505.07C889.04,-499.86 879.29,-493.67 871,-487 834.98,-457.99 842.07,-431.26 801,-410 775.15,-396.62 762.02,-415.04 736,-402 725.35,-396.66 715.78,-387.91 708.1,-379.26"/>
            <polygon fill="black" stroke="black" points="710.69,-376.9 701.61,-371.45 705.31,-381.37 710.69,-376.9"/>
        </g>
        <!-- mrs.domain.model.user.member.Member&#45;&gt;mrs.domain.model.reservation.reservation.Reservation -->
        <g id="edge37" class="edge">
            <title>mrs.domain.model.user.member.Member&#45;&gt;mrs.domain.model.reservation.reservation.Reservation
            </title>
            <path fill="none" stroke="black"
                  d="M901.29,-502.89C896.31,-498.35 891.83,-493.03 889,-487 874.45,-456.03 869.04,-437.8 889,-410 915.44,-373.17 966.92,-359.83 1006.15,-355.15"/>
            <polygon fill="black" stroke="black"
                     points="1006.76,-358.6 1016.34,-354.09 1006.03,-351.64 1006.76,-358.6"/>
        </g>
        <!-- mrs.domain.model.user.member.MemberId -->
        <g id="node25" class="node">
            <title>mrs.domain.model.user.member.MemberId</title>
            <polygon fill="#eedd82" stroke="black" points="984,-456 898,-456 898,-418 984,-418 984,-456"/>
            <text text-anchor="middle" x="941" y="-440.8" font-family="Times New Roman,serif" font-size="14.00">会員番号
            </text>
            <text text-anchor="middle" x="941" y="-425.8" font-family="Times New Roman,serif" font-size="14.00">
                MemberId
            </text>
        </g>
        <!-- mrs.domain.model.user.member.Member&#45;&gt;mrs.domain.model.user.member.MemberId -->
        <g id="edge38" class="edge">
            <title>mrs.domain.model.user.member.Member&#45;&gt;mrs.domain.model.user.member.MemberId</title>
            <path fill="none" stroke="black" d="M932.39,-502.99C933.8,-492.3 935.63,-478.5 937.24,-466.37"/>
            <polygon fill="black" stroke="black" points="940.74,-466.63 938.58,-456.26 933.8,-465.71 940.74,-466.63"/>
        </g>
        <!-- mrs.domain.model.user.staff.Staff -->
        <g id="node26" class="node">
            <title>mrs.domain.model.user.staff.Staff</title>
            <polygon fill="#eedd82" stroke="black" points="102,-541 16,-541 16,-503 102,-503 102,-541"/>
            <text text-anchor="middle" x="59" y="-525.8" font-family="Times New Roman,serif" font-size="14.00">スタッフ
            </text>
            <text text-anchor="middle" x="59" y="-510.8" font-family="Times New Roman,serif" font-size="14.00">Staff
            </text>
        </g>
        <!-- mrs.domain.model.user.staff.Staff&#45;&gt;mrs.domain.model.auth.user.Password -->
        <g id="edge39" class="edge">
            <title>mrs.domain.model.user.staff.Staff&#45;&gt;mrs.domain.model.auth.user.Password</title>
            <path fill="none" stroke="black"
                  d="M64.24,-502.64C72.28,-477.81 90.09,-433.89 121,-410 166.18,-375.08 230.64,-361.44 277.94,-356.17"/>
            <polygon fill="black" stroke="black" points="278.46,-359.63 288.05,-355.14 277.75,-352.67 278.46,-359.63"/>
        </g>
        <!-- mrs.domain.model.user.staff.Staff&#45;&gt;mrs.domain.model.auth.user.RoleName -->
        <g id="edge40" class="edge">
            <title>mrs.domain.model.user.staff.Staff&#45;&gt;mrs.domain.model.auth.user.RoleName</title>
            <path fill="none" stroke="black"
                  d="M90.03,-502.92C96.97,-498.19 104.04,-492.77 110,-487 140.21,-457.75 127.94,-429.87 165,-410 188.12,-397.6 376.44,-411.23 401,-402 414.44,-396.95 427.11,-387.59 437.31,-378.39"/>
            <polygon fill="black" stroke="black" points="439.76,-380.89 444.6,-371.46 434.94,-375.81 439.76,-380.89"/>
        </g>
        <!-- mrs.domain.model.user.staff.Staff&#45;&gt;mrs.domain.model.auth.user.User -->
        <g id="edge41" class="edge">
            <title>mrs.domain.model.user.staff.Staff&#45;&gt;mrs.domain.model.auth.user.User</title>
            <path fill="none" stroke="black"
                  d="M91.96,-502.88C99.05,-499.72 106.62,-496.85 114,-495 148.53,-486.34 238.61,-490.83 274,-487 362.82,-477.39 465.59,-458.35 522.76,-447.04"/>
            <polygon fill="black" stroke="black" points="523.77,-450.41 532.9,-445.02 522.4,-443.54 523.77,-450.41"/>
        </g>
        <!-- mrs.domain.model.user.staff.Staff&#45;&gt;mrs.domain.model.auth.user.UserId -->
        <g id="edge42" class="edge">
            <title>mrs.domain.model.user.staff.Staff&#45;&gt;mrs.domain.model.auth.user.UserId</title>
            <path fill="none" stroke="black"
                  d="M94,-502.97C100.54,-500.03 107.39,-497.22 114,-495 130.36,-489.5 137.6,-496.51 152,-487 186.89,-463.98 169.16,-429.75 206,-410 236.95,-393.4 489.07,-414.21 522,-402 535.67,-396.93 548.51,-387.37 558.79,-378.04"/>
            <polygon fill="black" stroke="black" points="561.32,-380.46 566.11,-371.01 556.47,-375.41 561.32,-380.46"/>
        </g>
        <!-- mrs.domain.model.user.staff.Staff&#45;&gt;mrs.domain.model.auth.user.UserName -->
        <g id="edge43" class="edge">
            <title>mrs.domain.model.user.staff.Staff&#45;&gt;mrs.domain.model.auth.user.UserName</title>
            <path fill="none" stroke="black"
                  d="M92.63,-502.91C99.54,-499.82 106.88,-496.98 114,-495 148,-485.54 162.63,-504.98 193,-487 228.75,-465.84 209.42,-429.7 246,-410 284.84,-389.08 602.69,-419.93 643,-402 653.94,-397.13 663.5,-388.3 671.02,-379.46"/>
            <polygon fill="black" stroke="black" points="673.9,-381.47 677.35,-371.45 668.4,-377.13 673.9,-381.47"/>
        </g>
        <!-- mrs.domain.model.user.staff.Staff&#45;&gt;mrs.domain.model.reservation.reservation.Reservation -->
        <g id="edge44" class="edge">
            <title>mrs.domain.model.user.staff.Staff&#45;&gt;mrs.domain.model.reservation.reservation.Reservation
            </title>
            <path fill="none" stroke="black"
                  d="M91.99,-502.98C99.07,-499.81 106.64,-496.91 114,-495 139.65,-488.33 210.61,-501.18 233,-487 266.12,-466.04 242.33,-430.07 276,-410 289.84,-401.75 840.01,-404.02 856,-402 908.09,-395.41 966.22,-380.48 1006.7,-368.82"/>
            <polygon fill="black" stroke="black"
                     points="1007.72,-372.17 1016.34,-366.01 1005.76,-365.45 1007.72,-372.17"/>
        </g>
    </g>
</svg>
