<?xml version="1.0" encoding="UTF-8" standalone="no"?>
<!DOCTYPE svg PUBLIC "-//W3C//DTD SVG 1.1//EN"
 "http://www.w3.org/Graphics/SVG/1.1/DTD/svg11.dtd">
<!-- Generated by graphviz version 2.47.3 (20210619.1520)
 -->
<!-- Title: ビジネスルール関連図 Pages: 1 -->
<svg width="1606pt" height="737pt"
 viewBox="0.00 0.00 1605.91 737.00" xmlns="http://www.w3.org/2000/svg" xmlns:xlink="http://www.w3.org/1999/xlink">
<g id="graph0" class="graph" transform="scale(1 1) rotate(0) translate(4 733)">
<title>ビジネスルール関連図</title>
<polygon fill="white" stroke="transparent" points="-4,4 -4,-733 1601.91,-733 1601.91,4 -4,4"/>
<text text-anchor="middle" x="798.96" y="-7.8" font-family="Times,serif" font-size="14.00">ビジネスルール関連図</text>
<g id="clust4" class="cluster">
<title>cluster_mrs.domain.model.reservation.reservation</title>
<polygon fill="lemonchiffon" stroke="#eedd82" stroke-width="2" points="322,-103 322,-485 550,-485 550,-103 322,-103"/>
<text text-anchor="middle" x="436" y="-469.8" font-family="Times,serif" font-size="14.00">reservation.reservation</text>
</g>
<g id="clust5" class="cluster">
<title>cluster_mrs.domain.model.reservation.room</title>
<polygon fill="lemonchiffon" stroke="#eedd82" stroke-width="2" points="152,-175 152,-400 310,-400 310,-175 152,-175"/>
<text text-anchor="middle" x="231" y="-384.8" font-family="Times,serif" font-size="14.00">reservation.room</text>
</g>
<g id="clust1" class="cluster">
<title>cluster_mrs.domain.model.auth.user</title>
<polygon fill="lemonchiffon" stroke="#eedd82" stroke-width="2" points="846,-250 846,-570 1322,-570 1322,-250 846,-250"/>
<text text-anchor="middle" x="1084" y="-554.8" font-family="Times,serif" font-size="14.00">auth.user</text>
</g>
<g id="clust2" class="cluster">
<title>cluster_mrs.domain.model.contact</title>
<polygon fill="lemonchiffon" stroke="#eedd82" stroke-width="2" points="558,-408 558,-721 708,-721 708,-408 558,-408"/>
<text text-anchor="middle" x="633" y="-705.8" font-family="Times,serif" font-size="14.00">contact</text>
</g>
<g id="clust3" class="cluster">
<title>cluster_mrs.domain.model.facility.room</title>
<polygon fill="lemonchiffon" stroke="#eedd82" stroke-width="2" points="8,-31 8,-399 144,-399 144,-31 8,-31"/>
<text text-anchor="middle" x="76" y="-383.8" font-family="Times,serif" font-size="14.00">facility.room</text>
</g>
<g id="clust6" class="cluster">
<title>cluster_mrs.domain.model.user.gust</title>
<polygon fill="lemonchiffon" stroke="#eedd82" stroke-width="2" points="1330,-493 1330,-570 1404,-570 1404,-493 1330,-493"/>
<text text-anchor="middle" x="1367" y="-554.8" font-family="Times,serif" font-size="14.00">user.gust</text>
</g>
<g id="clust7" class="cluster">
<title>cluster_mrs.domain.model.user.member</title>
<polygon fill="lemonchiffon" stroke="#eedd82" stroke-width="2" points="716,-409 716,-570 808,-570 808,-409 716,-409"/>
<text text-anchor="middle" x="762" y="-554.8" font-family="Times,serif" font-size="14.00">user.member</text>
</g>
<g id="clust8" class="cluster">
<title>cluster_mrs.domain.model.user.staff</title>
<polygon fill="lemonchiffon" stroke="#eedd82" stroke-width="2" points="1430,-493 1430,-570 1518,-570 1518,-493 1430,-493"/>
<text text-anchor="middle" x="1474" y="-554.8" font-family="Times,serif" font-size="14.00">user.staff</text>
</g>
<!-- mrs.domain.model.auth.user.Password -->
<g id="node1" class="node">
<title>mrs.domain.model.auth.user.Password</title>
<polygon fill="#eedd82" stroke="black" points="1116,-368 1046,-368 1046,-332 1116,-332 1116,-368"/>
<text text-anchor="middle" x="1081" y="-346.3" font-family="Times,serif" font-size="14.00">Password</text>
</g>
<!-- mrs.domain.model.auth.user.PasswordException -->
<g id="node2" class="node">
<title>mrs.domain.model.auth.user.PasswordException</title>
<polygon fill="#eedd82" stroke="black" points="1144.5,-294 1017.5,-294 1017.5,-258 1144.5,-258 1144.5,-294"/>
<text text-anchor="middle" x="1081" y="-272.3" font-family="Times,serif" font-size="14.00">PasswordException</text>
</g>
<!-- mrs.domain.model.auth.user.Password&#45;&gt;mrs.domain.model.auth.user.PasswordException -->
<g id="edge17" class="edge">
<title>mrs.domain.model.auth.user.Password&#45;&gt;mrs.domain.model.auth.user.PasswordException</title>
<path fill="none" stroke="black" d="M1081,-331.94C1081,-323.81 1081,-313.88 1081,-304.7"/>
<polygon fill="black" stroke="black" points="1084.5,-304.44 1081,-294.44 1077.5,-304.44 1084.5,-304.44"/>
</g>
<!-- mrs.domain.model.auth.user.RoleName -->
<g id="node3" class="node">
<title>mrs.domain.model.auth.user.RoleName</title>
<polygon fill="#eedd82" stroke="black" points="1314,-369 1228,-369 1228,-331 1314,-331 1314,-369"/>
<text text-anchor="middle" x="1271" y="-353.8" font-family="Times,serif" font-size="14.00">利用者区分</text>
<text text-anchor="middle" x="1271" y="-338.8" font-family="Times,serif" font-size="14.00">RoleName</text>
</g>
<!-- mrs.domain.model.auth.user.User -->
<g id="node4" class="node">
<title>mrs.domain.model.auth.user.User</title>
<polygon fill="#eedd82" stroke="black" points="1086,-454 1028,-454 1028,-416 1086,-416 1086,-454"/>
<text text-anchor="middle" x="1057" y="-438.8" font-family="Times,serif" font-size="14.00">利用者</text>
<text text-anchor="middle" x="1057" y="-423.8" font-family="Times,serif" font-size="14.00">User</text>
</g>
<!-- mrs.domain.model.auth.user.User&#45;&gt;mrs.domain.model.auth.user.Password -->
<g id="edge11" class="edge">
<title>mrs.domain.model.auth.user.User&#45;&gt;mrs.domain.model.auth.user.Password</title>
<path fill="none" stroke="black" d="M1062.21,-415.99C1065.42,-404.89 1069.59,-390.45 1073.19,-378"/>
<polygon fill="black" stroke="black" points="1076.63,-378.7 1076.05,-368.12 1069.91,-376.76 1076.63,-378.7"/>
</g>
<!-- mrs.domain.model.auth.user.User&#45;&gt;mrs.domain.model.auth.user.RoleName -->
<g id="edge12" class="edge">
<title>mrs.domain.model.auth.user.User&#45;&gt;mrs.domain.model.auth.user.RoleName</title>
<path fill="none" stroke="black" d="M1086.16,-428.77C1129.57,-420.85 1207.35,-406.09 1219,-400 1230.23,-394.14 1240.77,-385.16 1249.39,-376.48"/>
<polygon fill="black" stroke="black" points="1252.11,-378.69 1256.43,-369.02 1247.02,-373.88 1252.11,-378.69"/>
</g>
<!-- mrs.domain.model.auth.user.UserException -->
<g id="node6" class="node">
<title>mrs.domain.model.auth.user.UserException</title>
<polygon fill="#eedd82" stroke="black" points="1028,-368 928,-368 928,-332 1028,-332 1028,-368"/>
<text text-anchor="middle" x="978" y="-346.3" font-family="Times,serif" font-size="14.00">UserException</text>
</g>
<!-- mrs.domain.model.auth.user.User&#45;&gt;mrs.domain.model.auth.user.UserException -->
<g id="edge13" class="edge">
<title>mrs.domain.model.auth.user.User&#45;&gt;mrs.domain.model.auth.user.UserException</title>
<path fill="none" stroke="black" d="M1039.86,-415.99C1028.55,-404.11 1013.61,-388.41 1001.24,-375.41"/>
<polygon fill="black" stroke="black" points="1003.73,-372.95 994.3,-368.12 998.66,-377.78 1003.73,-372.95"/>
</g>
<!-- mrs.domain.model.auth.user.UserId -->
<g id="node7" class="node">
<title>mrs.domain.model.auth.user.UserId</title>
<polygon fill="#eedd82" stroke="black" points="909.5,-368 854.5,-368 854.5,-332 909.5,-332 909.5,-368"/>
<text text-anchor="middle" x="882" y="-346.3" font-family="Times,serif" font-size="14.00">UserId</text>
</g>
<!-- mrs.domain.model.auth.user.User&#45;&gt;mrs.domain.model.auth.user.UserId -->
<g id="edge14" class="edge">
<title>mrs.domain.model.auth.user.User&#45;&gt;mrs.domain.model.auth.user.UserId</title>
<path fill="none" stroke="black" d="M1031.09,-415.76C1025.66,-412.68 1019.81,-409.89 1014,-408 993.85,-401.46 937.55,-410.23 919,-400 909.34,-394.67 901.44,-385.64 895.46,-376.78"/>
<polygon fill="black" stroke="black" points="898.35,-374.79 890.13,-368.11 892.39,-378.46 898.35,-374.79"/>
</g>
<!-- mrs.domain.model.auth.user.UserName -->
<g id="node9" class="node">
<title>mrs.domain.model.auth.user.UserName</title>
<polygon fill="#eedd82" stroke="black" points="1210,-368 1134,-368 1134,-332 1210,-332 1210,-368"/>
<text text-anchor="middle" x="1172" y="-346.3" font-family="Times,serif" font-size="14.00">UserName</text>
</g>
<!-- mrs.domain.model.auth.user.User&#45;&gt;mrs.domain.model.auth.user.UserName -->
<g id="edge15" class="edge">
<title>mrs.domain.model.auth.user.User&#45;&gt;mrs.domain.model.auth.user.UserName</title>
<path fill="none" stroke="black" d="M1086.04,-422.15C1098.59,-416.37 1113.1,-408.77 1125,-400 1134.35,-393.11 1143.46,-384.27 1151.14,-376"/>
<polygon fill="black" stroke="black" points="1153.95,-378.1 1158.02,-368.32 1148.74,-373.43 1153.95,-378.1"/>
</g>
<!-- mrs.domain.model.reservation.reservation.Reservation -->
<g id="node17" class="node">
<title>mrs.domain.model.reservation.reservation.Reservation</title>
<polygon fill="#eedd82" stroke="black" points="532.5,-369 449.5,-369 449.5,-331 532.5,-331 532.5,-369"/>
<text text-anchor="middle" x="491" y="-353.8" font-family="Times,serif" font-size="14.00">予約</text>
<text text-anchor="middle" x="491" y="-338.8" font-family="Times,serif" font-size="14.00">Reservation</text>
</g>
<!-- mrs.domain.model.auth.user.User&#45;&gt;mrs.domain.model.reservation.reservation.Reservation -->
<g id="edge16" class="edge">
<title>mrs.domain.model.auth.user.User&#45;&gt;mrs.domain.model.reservation.reservation.Reservation</title>
<path fill="none" stroke="black" d="M1027.78,-430.16C936.86,-417.49 658.85,-376.78 542.72,-359.2"/>
<polygon fill="black" stroke="black" points="543.07,-355.72 532.66,-357.68 542.02,-362.64 543.07,-355.72"/>
</g>
<!-- mrs.domain.model.auth.user.UserDetailsImpl -->
<g id="node5" class="node">
<title>mrs.domain.model.auth.user.UserDetailsImpl</title>
<polygon fill="#eedd82" stroke="black" points="1135.5,-539 1026.5,-539 1026.5,-501 1135.5,-501 1135.5,-539"/>
<text text-anchor="middle" x="1081" y="-523.8" font-family="Times,serif" font-size="14.00">利用者</text>
<text text-anchor="middle" x="1081" y="-508.8" font-family="Times,serif" font-size="14.00">UserDetailsImpl</text>
</g>
<!-- mrs.domain.model.auth.user.UserDetailsImpl&#45;&gt;mrs.domain.model.auth.user.Password -->
<g id="edge7" class="edge">
<title>mrs.domain.model.auth.user.UserDetailsImpl&#45;&gt;mrs.domain.model.auth.user.Password</title>
<path fill="none" stroke="black" d="M1090.06,-500.7C1092.09,-495.73 1093.96,-490.26 1095,-485 1101.64,-451.43 1099.11,-441.97 1095,-408 1093.79,-397.97 1091.41,-387.16 1088.96,-377.68"/>
<polygon fill="black" stroke="black" points="1092.33,-376.74 1086.32,-368.01 1085.58,-378.58 1092.33,-376.74"/>
</g>
<!-- mrs.domain.model.auth.user.UserDetailsImpl&#45;&gt;mrs.domain.model.auth.user.RoleName -->
<g id="edge8" class="edge">
<title>mrs.domain.model.auth.user.UserDetailsImpl&#45;&gt;mrs.domain.model.auth.user.RoleName</title>
<path fill="none" stroke="black" d="M1102.77,-500.74C1130.18,-477.63 1178.59,-436.43 1219,-400 1227.29,-392.52 1236.18,-384.25 1244.22,-376.66"/>
<polygon fill="black" stroke="black" points="1247.08,-378.78 1251.93,-369.36 1242.26,-373.7 1247.08,-378.78"/>
</g>
<!-- mrs.domain.model.auth.user.UserDetailsImpl&#45;&gt;mrs.domain.model.auth.user.User -->
<g id="edge9" class="edge">
<title>mrs.domain.model.auth.user.UserDetailsImpl&#45;&gt;mrs.domain.model.auth.user.User</title>
<path fill="none" stroke="black" d="M1075.79,-500.99C1072.67,-490.19 1068.63,-476.22 1065.1,-464"/>
<polygon fill="black" stroke="black" points="1068.42,-462.9 1062.28,-454.26 1061.7,-464.84 1068.42,-462.9"/>
</g>
<!-- mrs.domain.model.auth.user.UserDetailsImpl&#45;&gt;mrs.domain.model.auth.user.UserId -->
<g id="edge10" class="edge">
<title>mrs.domain.model.auth.user.UserDetailsImpl&#45;&gt;mrs.domain.model.auth.user.UserId</title>
<path fill="none" stroke="black" d="M1045.17,-500.96C1036.4,-496.11 1027.19,-490.64 1019,-485 970.96,-451.92 959.04,-442.42 919,-400 912.12,-392.71 905.31,-384.17 899.43,-376.28"/>
<polygon fill="black" stroke="black" points="902.18,-374.1 893.48,-368.06 896.51,-378.21 902.18,-374.1"/>
</g>
<!-- mrs.domain.model.auth.user.UserIdException -->
<g id="node8" class="node">
<title>mrs.domain.model.auth.user.UserIdException</title>
<polygon fill="#eedd82" stroke="black" points="965.5,-294 854.5,-294 854.5,-258 965.5,-258 965.5,-294"/>
<text text-anchor="middle" x="910" y="-272.3" font-family="Times,serif" font-size="14.00">UserIdException</text>
</g>
<!-- mrs.domain.model.auth.user.UserId&#45;&gt;mrs.domain.model.auth.user.UserIdException -->
<g id="edge18" class="edge">
<title>mrs.domain.model.auth.user.UserId&#45;&gt;mrs.domain.model.auth.user.UserIdException</title>
<path fill="none" stroke="black" d="M888.64,-331.94C891.9,-323.54 895.91,-313.23 899.57,-303.81"/>
<polygon fill="black" stroke="black" points="902.86,-305.03 903.22,-294.44 896.33,-302.49 902.86,-305.03"/>
</g>
<!-- mrs.domain.model.contact.Contact -->
<g id="node10" class="node">
<title>mrs.domain.model.contact.Contact</title>
<polygon fill="#eedd82" stroke="black" points="700,-616 614,-616 614,-578 700,-578 700,-616"/>
<text text-anchor="middle" x="657" y="-600.8" font-family="Times,serif" font-size="14.00">問い合わせ</text>
<text text-anchor="middle" x="657" y="-585.8" font-family="Times,serif" font-size="14.00">Contact</text>
</g>
<!-- mrs.domain.model.contact.Contact&#45;&gt;mrs.domain.model.auth.user.User -->
<g id="edge1" class="edge">
<title>mrs.domain.model.contact.Contact&#45;&gt;mrs.domain.model.auth.user.User</title>
<path fill="none" stroke="black" d="M700.16,-591.93C731.67,-588.2 775.13,-581.47 812,-570 897.25,-543.48 917.84,-531.59 994,-485 1005.75,-477.81 1017.88,-468.82 1028.31,-460.5"/>
<polygon fill="black" stroke="black" points="1030.73,-463.05 1036.28,-454.03 1026.32,-457.62 1030.73,-463.05"/>
</g>
<!-- mrs.domain.model.contact.ContactId -->
<g id="node11" class="node">
<title>mrs.domain.model.contact.ContactId</title>
<polygon fill="#eedd82" stroke="black" points="680,-539 566,-539 566,-501 680,-501 680,-539"/>
<text text-anchor="middle" x="623" y="-523.8" font-family="Times,serif" font-size="14.00">問い合わせ番号</text>
<text text-anchor="middle" x="623" y="-508.8" font-family="Times,serif" font-size="14.00">ContactId</text>
</g>
<!-- mrs.domain.model.contact.Contact&#45;&gt;mrs.domain.model.contact.ContactId -->
<g id="edge2" class="edge">
<title>mrs.domain.model.contact.Contact&#45;&gt;mrs.domain.model.contact.ContactId</title>
<path fill="none" stroke="black" d="M648.77,-577.84C644.79,-569.07 639.93,-558.34 635.5,-548.58"/>
<polygon fill="black" stroke="black" points="638.59,-546.91 631.27,-539.25 632.21,-549.8 638.59,-546.91"/>
</g>
<!-- mrs.domain.model.contact.ContactPerson -->
<g id="node13" class="node">
<title>mrs.domain.model.contact.ContactPerson</title>
<polygon fill="#eedd82" stroke="black" points="700,-454 600,-454 600,-416 700,-416 700,-454"/>
<text text-anchor="middle" x="650" y="-438.8" font-family="Times,serif" font-size="14.00">問い合わせ人</text>
<text text-anchor="middle" x="650" y="-423.8" font-family="Times,serif" font-size="14.00">ContactPerson</text>
</g>
<!-- mrs.domain.model.contact.Contact&#45;&gt;mrs.domain.model.contact.ContactPerson -->
<g id="edge3" class="edge">
<title>mrs.domain.model.contact.Contact&#45;&gt;mrs.domain.model.contact.ContactPerson</title>
<path fill="none" stroke="black" d="M683.7,-577.89C685.81,-575.48 687.65,-572.84 689,-570 703.71,-539.1 699.11,-525.69 689,-493 685.62,-482.06 679.33,-471.35 672.78,-462.23"/>
<polygon fill="black" stroke="black" points="675.35,-459.83 666.5,-454 669.79,-464.07 675.35,-459.83"/>
</g>
<!-- mrs.domain.model.user.gust.Gust -->
<g id="node25" class="node">
<title>mrs.domain.model.user.gust.Gust</title>
<polygon fill="#eedd82" stroke="black" points="1396,-539 1338,-539 1338,-501 1396,-501 1396,-539"/>
<text text-anchor="middle" x="1367" y="-523.8" font-family="Times,serif" font-size="14.00">ゲスト</text>
<text text-anchor="middle" x="1367" y="-508.8" font-family="Times,serif" font-size="14.00">Gust</text>
</g>
<!-- mrs.domain.model.contact.Contact&#45;&gt;mrs.domain.model.user.gust.Gust -->
<g id="edge4" class="edge">
<title>mrs.domain.model.contact.Contact&#45;&gt;mrs.domain.model.user.gust.Gust</title>
<path fill="none" stroke="black" d="M700.12,-596.34C839.19,-597.16 1270.12,-597.44 1326,-570 1336.11,-565.04 1344.65,-556.3 1351.28,-547.57"/>
<polygon fill="black" stroke="black" points="1354.18,-549.52 1357.03,-539.32 1348.44,-545.52 1354.18,-549.52"/>
</g>
<!-- mrs.domain.model.user.member.Member -->
<g id="node26" class="node">
<title>mrs.domain.model.user.member.Member</title>
<polygon fill="#eedd82" stroke="black" points="800,-539 736,-539 736,-501 800,-501 800,-539"/>
<text text-anchor="middle" x="768" y="-523.8" font-family="Times,serif" font-size="14.00">会員</text>
<text text-anchor="middle" x="768" y="-508.8" font-family="Times,serif" font-size="14.00">Member</text>
</g>
<!-- mrs.domain.model.contact.Contact&#45;&gt;mrs.domain.model.user.member.Member -->
<g id="edge5" class="edge">
<title>mrs.domain.model.contact.Contact&#45;&gt;mrs.domain.model.user.member.Member</title>
<path fill="none" stroke="black" d="M698.53,-577.9C703.18,-575.43 707.76,-572.78 712,-570 722.53,-563.1 733.16,-554.35 742.28,-546.16"/>
<polygon fill="black" stroke="black" points="744.89,-548.52 749.88,-539.17 740.15,-543.37 744.89,-548.52"/>
</g>
<!-- mrs.domain.model.contact.ContactList -->
<g id="node12" class="node">
<title>mrs.domain.model.contact.ContactList</title>
<polygon fill="#eedd82" stroke="black" points="700,-690 586,-690 586,-652 700,-652 700,-690"/>
<text text-anchor="middle" x="643" y="-674.8" font-family="Times,serif" font-size="14.00">問い合わせ一覧</text>
<text text-anchor="middle" x="643" y="-659.8" font-family="Times,serif" font-size="14.00">ContactList</text>
</g>
<!-- mrs.domain.model.contact.ContactList&#45;&gt;mrs.domain.model.contact.Contact -->
<g id="edge6" class="edge">
<title>mrs.domain.model.contact.ContactList&#45;&gt;mrs.domain.model.contact.Contact</title>
<path fill="none" stroke="black" d="M646.53,-651.83C648.03,-644.13 649.81,-634.97 651.47,-626.42"/>
<polygon fill="black" stroke="black" points="654.95,-626.9 653.42,-616.41 648.08,-625.56 654.95,-626.9"/>
</g>
<!-- mrs.domain.model.facility.room.MeetingRoom -->
<g id="node14" class="node">
<title>mrs.domain.model.facility.room.MeetingRoom</title>
<polygon fill="#eedd82" stroke="black" points="135.5,-368 38.5,-368 38.5,-332 135.5,-332 135.5,-368"/>
<text text-anchor="middle" x="87" y="-346.3" font-family="Times,serif" font-size="14.00">MeetingRoom</text>
</g>
<!-- mrs.domain.model.facility.room.RoomId -->
<g id="node15" class="node">
<title>mrs.domain.model.facility.room.RoomId</title>
<polygon fill="#eedd82" stroke="black" points="118,-147 56,-147 56,-111 118,-111 118,-147"/>
<text text-anchor="middle" x="87" y="-125.3" font-family="Times,serif" font-size="14.00">RoomId</text>
</g>
<!-- mrs.domain.model.facility.room.MeetingRoom&#45;&gt;mrs.domain.model.facility.room.RoomId -->
<g id="edge51" class="edge">
<title>mrs.domain.model.facility.room.MeetingRoom&#45;&gt;mrs.domain.model.facility.room.RoomId</title>
<path fill="none" stroke="black" d="M87,-331.82C87,-293.92 87,-202.9 87,-157.18"/>
<polygon fill="black" stroke="black" points="90.5,-157.1 87,-147.1 83.5,-157.1 90.5,-157.1"/>
</g>
<!-- mrs.domain.model.reservation.room.ReservableRoom -->
<g id="node22" class="node">
<title>mrs.domain.model.reservation.room.ReservableRoom</title>
<polygon fill="#eedd82" stroke="black" points="274,-295 160,-295 160,-257 274,-257 274,-295"/>
<text text-anchor="middle" x="217" y="-279.8" font-family="Times,serif" font-size="14.00">予約可能会議室</text>
<text text-anchor="middle" x="217" y="-264.8" font-family="Times,serif" font-size="14.00">ReservableRoom</text>
</g>
<!-- mrs.domain.model.facility.room.MeetingRoom&#45;&gt;mrs.domain.model.reservation.room.ReservableRoom -->
<g id="edge52" class="edge">
<title>mrs.domain.model.facility.room.MeetingRoom&#45;&gt;mrs.domain.model.reservation.room.ReservableRoom</title>
<path fill="none" stroke="black" d="M111.97,-331.94C128.2,-322.39 149.76,-310.35 169.16,-299.98"/>
<polygon fill="black" stroke="black" points="170.99,-302.98 178.19,-295.2 167.71,-296.79 170.99,-302.98"/>
</g>
<!-- mrs.domain.model.facility.room.RoomIdException -->
<g id="node16" class="node">
<title>mrs.domain.model.facility.room.RoomIdException</title>
<polygon fill="#eedd82" stroke="black" points="135.5,-75 16.5,-75 16.5,-39 135.5,-39 135.5,-75"/>
<text text-anchor="middle" x="76" y="-53.3" font-family="Times,serif" font-size="14.00">RoomIdException</text>
</g>
<!-- mrs.domain.model.facility.room.RoomId&#45;&gt;mrs.domain.model.facility.room.RoomIdException -->
<g id="edge53" class="edge">
<title>mrs.domain.model.facility.room.RoomId&#45;&gt;mrs.domain.model.facility.room.RoomIdException</title>
<path fill="none" stroke="black" d="M84.28,-110.7C83.07,-102.98 81.61,-93.71 80.26,-85.11"/>
<polygon fill="black" stroke="black" points="83.7,-84.44 78.69,-75.1 76.78,-85.53 83.7,-84.44"/>
</g>
<!-- mrs.domain.model.reservation.reservation.Reservation&#45;&gt;mrs.domain.model.auth.user.User -->
<g id="edge26" class="edge">
<title>mrs.domain.model.reservation.reservation.Reservation&#45;&gt;mrs.domain.model.auth.user.User</title>
<path fill="none" stroke="black" d="M532.77,-356.6C638.52,-371.5 915.18,-412.06 1017.94,-427.72"/>
<polygon fill="black" stroke="black" points="1017.48,-431.19 1027.89,-429.24 1018.54,-424.27 1017.48,-431.19"/>
</g>
<!-- mrs.domain.model.reservation.reservation.ReservationId -->
<g id="node18" class="node">
<title>mrs.domain.model.reservation.reservation.ReservationId</title>
<polygon fill="#eedd82" stroke="black" points="425.5,-294 330.5,-294 330.5,-258 425.5,-258 425.5,-294"/>
<text text-anchor="middle" x="378" y="-272.3" font-family="Times,serif" font-size="14.00">ReservationId</text>
</g>
<!-- mrs.domain.model.reservation.reservation.Reservation&#45;&gt;mrs.domain.model.reservation.reservation.ReservationId -->
<g id="edge27" class="edge">
<title>mrs.domain.model.reservation.reservation.Reservation&#45;&gt;mrs.domain.model.reservation.reservation.ReservationId</title>
<path fill="none" stroke="black" d="M462.49,-330.83C447.59,-321.34 429.22,-309.64 413.42,-299.57"/>
<polygon fill="black" stroke="black" points="415.26,-296.59 404.95,-294.17 411.5,-302.5 415.26,-296.59"/>
</g>
<!-- mrs.domain.model.reservation.reservation.ReservedTime -->
<g id="node21" class="node">
<title>mrs.domain.model.reservation.reservation.ReservedTime</title>
<polygon fill="#eedd82" stroke="black" points="542,-294 444,-294 444,-258 542,-258 542,-294"/>
<text text-anchor="middle" x="493" y="-272.3" font-family="Times,serif" font-size="14.00">ReservedTime</text>
</g>
<!-- mrs.domain.model.reservation.reservation.Reservation&#45;&gt;mrs.domain.model.reservation.reservation.ReservedTime -->
<g id="edge28" class="edge">
<title>mrs.domain.model.reservation.reservation.Reservation&#45;&gt;mrs.domain.model.reservation.reservation.ReservedTime</title>
<path fill="none" stroke="black" d="M491.5,-330.83C491.73,-322.89 491.99,-313.41 492.23,-304.63"/>
<polygon fill="black" stroke="black" points="495.74,-304.51 492.52,-294.42 488.74,-304.32 495.74,-304.51"/>
</g>
<!-- mrs.domain.model.reservation.reservation.Reservation&#45;&gt;mrs.domain.model.reservation.room.ReservableRoom -->
<g id="edge29" class="edge">
<title>mrs.domain.model.reservation.reservation.Reservation&#45;&gt;mrs.domain.model.reservation.room.ReservableRoom</title>
<path fill="none" stroke="black" d="M449.44,-336.7C405.48,-324.67 335.62,-306.27 283.91,-293.08"/>
<polygon fill="black" stroke="black" points="284.7,-289.67 274.15,-290.59 282.98,-296.45 284.7,-289.67"/>
</g>
<!-- mrs.domain.model.reservation.room.ReservableRoomId -->
<g id="node23" class="node">
<title>mrs.domain.model.reservation.room.ReservableRoomId</title>
<polygon fill="#eedd82" stroke="black" points="295.5,-221 166.5,-221 166.5,-183 295.5,-183 295.5,-221"/>
<text text-anchor="middle" x="231" y="-205.8" font-family="Times,serif" font-size="14.00">予約可能会議室ID</text>
<text text-anchor="middle" x="231" y="-190.8" font-family="Times,serif" font-size="14.00">ReservableRoomId</text>
</g>
<!-- mrs.domain.model.reservation.reservation.Reservation&#45;&gt;mrs.domain.model.reservation.room.ReservableRoomId -->
<g id="edge30" class="edge">
<title>mrs.domain.model.reservation.reservation.Reservation&#45;&gt;mrs.domain.model.reservation.room.ReservableRoomId</title>
<path fill="none" stroke="black" d="M449.37,-342.51C413.09,-335.36 360.28,-321.22 321,-295 299.23,-280.47 301.2,-268.82 283,-250 275.77,-242.52 267.57,-234.79 259.85,-227.82"/>
<polygon fill="black" stroke="black" points="262.14,-225.18 252.35,-221.13 257.48,-230.4 262.14,-225.18"/>
</g>
<!-- mrs.domain.model.reservation.reservation.ReservationList -->
<g id="node19" class="node">
<title>mrs.domain.model.reservation.reservation.ReservationList</title>
<polygon fill="#eedd82" stroke="black" points="541.5,-454 436.5,-454 436.5,-416 541.5,-416 541.5,-454"/>
<text text-anchor="middle" x="489" y="-438.8" font-family="Times,serif" font-size="14.00">予約一覧</text>
<text text-anchor="middle" x="489" y="-423.8" font-family="Times,serif" font-size="14.00">ReservationList</text>
</g>
<!-- mrs.domain.model.reservation.reservation.ReservationList&#45;&gt;mrs.domain.model.reservation.reservation.Reservation -->
<g id="edge25" class="edge">
<title>mrs.domain.model.reservation.reservation.ReservationList&#45;&gt;mrs.domain.model.reservation.reservation.Reservation</title>
<path fill="none" stroke="black" d="M489.43,-415.99C489.69,-405.3 490.02,-391.5 490.32,-379.37"/>
<polygon fill="black" stroke="black" points="493.82,-379.34 490.56,-369.26 486.82,-379.17 493.82,-379.34"/>
</g>
<!-- mrs.domain.model.reservation.reservation.ReservedDate -->
<g id="node20" class="node">
<title>mrs.domain.model.reservation.reservation.ReservedDate</title>
<polygon fill="#eedd82" stroke="black" points="425.5,-147 330.5,-147 330.5,-111 425.5,-111 425.5,-147"/>
<text text-anchor="middle" x="378" y="-125.3" font-family="Times,serif" font-size="14.00">ReservedDate</text>
</g>
<!-- mrs.domain.model.reservation.room.ReservableRoom&#45;&gt;mrs.domain.model.facility.room.MeetingRoom -->
<g id="edge19" class="edge">
<title>mrs.domain.model.reservation.room.ReservableRoom&#45;&gt;mrs.domain.model.facility.room.MeetingRoom</title>
<path fill="none" stroke="black" d="M190.1,-295.2C173.46,-304.94 151.79,-317 132.57,-327.23"/>
<polygon fill="black" stroke="black" points="130.86,-324.17 123.65,-331.94 134.13,-330.36 130.86,-324.17"/>
</g>
<!-- mrs.domain.model.reservation.room.ReservableRoom&#45;&gt;mrs.domain.model.reservation.reservation.Reservation -->
<g id="edge20" class="edge">
<title>mrs.domain.model.reservation.room.ReservableRoom&#45;&gt;mrs.domain.model.reservation.reservation.Reservation</title>
<path fill="none" stroke="black" d="M274.02,-293.5C322.84,-306.71 392.4,-324.94 439.55,-336.85"/>
<polygon fill="black" stroke="black" points="438.71,-340.25 449.26,-339.29 440.41,-333.46 438.71,-340.25"/>
</g>
<!-- mrs.domain.model.reservation.room.ReservableRoom&#45;&gt;mrs.domain.model.reservation.room.ReservableRoomId -->
<g id="edge21" class="edge">
<title>mrs.domain.model.reservation.room.ReservableRoom&#45;&gt;mrs.domain.model.reservation.room.ReservableRoomId</title>
<path fill="none" stroke="black" d="M220.53,-256.83C222.03,-249.13 223.81,-239.97 225.47,-231.42"/>
<polygon fill="black" stroke="black" points="228.95,-231.9 227.42,-221.41 222.08,-230.56 228.95,-231.9"/>
</g>
<!-- mrs.domain.model.reservation.room.ReservableRoomId&#45;&gt;mrs.domain.model.facility.room.RoomId -->
<g id="edge22" class="edge">
<title>mrs.domain.model.reservation.room.ReservableRoomId&#45;&gt;mrs.domain.model.facility.room.RoomId</title>
<path fill="none" stroke="black" d="M194.29,-182.9C173.82,-172.81 148.3,-160.22 127.28,-149.86"/>
<polygon fill="black" stroke="black" points="128.79,-146.7 118.27,-145.42 125.7,-152.98 128.79,-146.7"/>
</g>
<!-- mrs.domain.model.reservation.room.ReservableRoomId&#45;&gt;mrs.domain.model.reservation.reservation.ReservedDate -->
<g id="edge23" class="edge">
<title>mrs.domain.model.reservation.room.ReservableRoomId&#45;&gt;mrs.domain.model.reservation.reservation.ReservedDate</title>
<path fill="none" stroke="black" d="M268.47,-182.9C288.24,-173.35 312.63,-161.57 333.37,-151.55"/>
<polygon fill="black" stroke="black" points="335.13,-154.59 342.62,-147.09 332.09,-148.29 335.13,-154.59"/>
</g>
<!-- mrs.domain.model.reservation.room.ReservableRoomList -->
<g id="node24" class="node">
<title>mrs.domain.model.reservation.room.ReservableRoomList</title>
<polygon fill="#eedd82" stroke="black" points="302,-369 160,-369 160,-331 302,-331 302,-369"/>
<text text-anchor="middle" x="231" y="-353.8" font-family="Times,serif" font-size="14.00">予約可能会議室一覧</text>
<text text-anchor="middle" x="231" y="-338.8" font-family="Times,serif" font-size="14.00">ReservableRoomList</text>
</g>
<!-- mrs.domain.model.reservation.room.ReservableRoomList&#45;&gt;mrs.domain.model.reservation.room.ReservableRoom -->
<g id="edge24" class="edge">
<title>mrs.domain.model.reservation.room.ReservableRoomList&#45;&gt;mrs.domain.model.reservation.room.ReservableRoom</title>
<path fill="none" stroke="black" d="M227.47,-330.83C225.97,-323.13 224.19,-313.97 222.53,-305.42"/>
<polygon fill="black" stroke="black" points="225.92,-304.56 220.58,-295.41 219.05,-305.9 225.92,-304.56"/>
</g>
<!-- mrs.domain.model.user.gust.Gust&#45;&gt;mrs.domain.model.auth.user.Password -->
<g id="edge45" class="edge">
<title>mrs.domain.model.user.gust.Gust&#45;&gt;mrs.domain.model.auth.user.Password</title>
<path fill="none" stroke="black" d="M1358.59,-500.82C1345.49,-474.92 1317.57,-428.28 1278,-408 1247.7,-392.47 1155.72,-414.68 1125,-400 1114.1,-394.79 1104.7,-385.54 1097.42,-376.46"/>
<polygon fill="black" stroke="black" points="1100.13,-374.23 1091.35,-368.3 1094.51,-378.41 1100.13,-374.23"/>
</g>
<!-- mrs.domain.model.user.gust.Gust&#45;&gt;mrs.domain.model.auth.user.RoleName -->
<g id="edge46" class="edge">
<title>mrs.domain.model.user.gust.Gust&#45;&gt;mrs.domain.model.auth.user.RoleName</title>
<path fill="none" stroke="black" d="M1396.21,-504.56C1405.56,-500.37 1416.06,-496.09 1426,-493 1444.14,-487.35 1455.89,-499.64 1468,-485 1489.82,-458.63 1488.56,-435.36 1468,-408 1450.7,-384.99 1376.64,-368.3 1324.44,-359.13"/>
<polygon fill="black" stroke="black" points="1324.76,-355.64 1314.31,-357.4 1323.58,-362.54 1324.76,-355.64"/>
</g>
<!-- mrs.domain.model.user.gust.Gust&#45;&gt;mrs.domain.model.auth.user.User -->
<g id="edge47" class="edge">
<title>mrs.domain.model.user.gust.Gust&#45;&gt;mrs.domain.model.auth.user.User</title>
<path fill="none" stroke="black" d="M1342.34,-500.84C1337.16,-497.76 1331.57,-494.94 1326,-493 1293.92,-481.83 1283.44,-490.97 1250,-485 1195.96,-475.35 1134.69,-458.81 1095.96,-447.65"/>
<polygon fill="black" stroke="black" points="1096.72,-444.23 1086.14,-444.8 1094.77,-450.95 1096.72,-444.23"/>
</g>
<!-- mrs.domain.model.user.gust.Gust&#45;&gt;mrs.domain.model.auth.user.UserId -->
<g id="edge48" class="edge">
<title>mrs.domain.model.user.gust.Gust&#45;&gt;mrs.domain.model.auth.user.UserId</title>
<path fill="none" stroke="black" d="M1341.8,-500.84C1336.76,-497.84 1331.35,-495.05 1326,-493 1305.8,-485.28 1298.78,-491.01 1278,-485 1193.24,-460.47 1181.08,-427.42 1095,-408 1075.9,-403.69 936.32,-409.12 919,-400 909.24,-394.86 901.32,-385.87 895.35,-376.98"/>
<polygon fill="black" stroke="black" points="898.24,-374.98 890.04,-368.27 892.26,-378.63 898.24,-374.98"/>
</g>
<!-- mrs.domain.model.user.gust.Gust&#45;&gt;mrs.domain.model.auth.user.UserName -->
<g id="edge49" class="edge">
<title>mrs.domain.model.user.gust.Gust&#45;&gt;mrs.domain.model.auth.user.UserName</title>
<path fill="none" stroke="black" d="M1383.61,-500.78C1387.05,-495.98 1390.17,-490.57 1392,-485 1402.67,-452.48 1415.63,-432.75 1392,-408 1378.71,-394.08 1236.52,-407.96 1219,-400 1207.54,-394.8 1197.47,-385.42 1189.62,-376.24"/>
<polygon fill="black" stroke="black" points="1192.29,-373.98 1183.31,-368.35 1186.82,-378.35 1192.29,-373.98"/>
</g>
<!-- mrs.domain.model.user.gust.Gust&#45;&gt;mrs.domain.model.contact.ContactPerson -->
<g id="edge50" class="edge">
<title>mrs.domain.model.user.gust.Gust&#45;&gt;mrs.domain.model.contact.ContactPerson</title>
<path fill="none" stroke="black" d="M1343.36,-500.96C1337.93,-497.7 1331.98,-494.78 1326,-493 1293.3,-483.27 744.15,-496.41 712,-485 697.99,-480.03 684.73,-470.48 674.09,-461.13"/>
<polygon fill="black" stroke="black" points="676.22,-458.33 666.51,-454.09 671.46,-463.46 676.22,-458.33"/>
</g>
<!-- mrs.domain.model.user.member.Member&#45;&gt;mrs.domain.model.auth.user.Password -->
<g id="edge31" class="edge">
<title>mrs.domain.model.user.member.Member&#45;&gt;mrs.domain.model.auth.user.Password</title>
<path fill="none" stroke="black" d="M800.22,-507.01C813.13,-502.38 828.19,-497.2 842,-493 855.61,-488.86 861.27,-493.05 873,-485 907.67,-461.2 891.34,-428.6 928,-408 949.17,-396.1 1015.2,-410.7 1037,-400 1047.84,-394.68 1057.23,-385.4 1064.52,-376.34"/>
<polygon fill="black" stroke="black" points="1067.42,-378.31 1070.6,-368.2 1061.81,-374.12 1067.42,-378.31"/>
</g>
<!-- mrs.domain.model.user.member.Member&#45;&gt;mrs.domain.model.auth.user.RoleName -->
<g id="edge32" class="edge">
<title>mrs.domain.model.user.member.Member&#45;&gt;mrs.domain.model.auth.user.RoleName</title>
<path fill="none" stroke="black" d="M800.25,-505.56C813.03,-500.8 828,-495.9 842,-493 866.65,-487.89 932.6,-496.49 955,-485 994.59,-464.69 979.1,-427.7 1019,-408 1058.88,-388.31 1177.99,-417.23 1219,-400 1230.97,-394.97 1241.85,-385.86 1250.52,-376.85"/>
<polygon fill="black" stroke="black" points="1253.15,-379.15 1257.27,-369.39 1247.96,-374.46 1253.15,-379.15"/>
</g>
<!-- mrs.domain.model.user.member.Member&#45;&gt;mrs.domain.model.auth.user.User -->
<g id="edge33" class="edge">
<title>mrs.domain.model.user.member.Member&#45;&gt;mrs.domain.model.auth.user.User</title>
<path fill="none" stroke="black" d="M800.23,-505.43C813,-500.65 827.97,-495.77 842,-493 875.18,-486.44 962.31,-496.81 994,-485 1007.97,-479.79 1021.32,-470.31 1032.11,-461.06"/>
<polygon fill="black" stroke="black" points="1034.74,-463.41 1039.83,-454.11 1030.06,-458.2 1034.74,-463.41"/>
</g>
<!-- mrs.domain.model.user.member.Member&#45;&gt;mrs.domain.model.auth.user.UserId -->
<g id="edge34" class="edge">
<title>mrs.domain.model.user.member.Member&#45;&gt;mrs.domain.model.auth.user.UserId</title>
<path fill="none" stroke="black" d="M800.16,-510.86C814.76,-505.66 831.15,-497.49 842,-485 868.23,-454.8 877.26,-407.96 880.37,-378.42"/>
<polygon fill="black" stroke="black" points="883.87,-378.65 881.27,-368.38 876.89,-378.03 883.87,-378.65"/>
</g>
<!-- mrs.domain.model.user.member.Member&#45;&gt;mrs.domain.model.auth.user.UserName -->
<g id="edge35" class="edge">
<title>mrs.domain.model.user.member.Member&#45;&gt;mrs.domain.model.auth.user.UserName</title>
<path fill="none" stroke="black" d="M800.31,-505.84C813.1,-501.11 828.06,-496.17 842,-493 857.91,-489.38 901.07,-493.49 915,-485 950.05,-463.63 930.34,-428.33 966,-408 996.74,-390.48 1092.82,-414.69 1125,-400 1136.45,-394.78 1146.52,-385.39 1154.37,-376.22"/>
<polygon fill="black" stroke="black" points="1157.17,-378.33 1160.68,-368.33 1151.7,-373.95 1157.17,-378.33"/>
</g>
<!-- mrs.domain.model.user.member.Member&#45;&gt;mrs.domain.model.contact.ContactPerson -->
<g id="edge36" class="edge">
<title>mrs.domain.model.user.member.Member&#45;&gt;mrs.domain.model.contact.ContactPerson</title>
<path fill="none" stroke="black" d="M736.76,-500.96C728.57,-495.99 719.85,-490.45 712,-485 701.06,-477.4 689.51,-468.52 679.38,-460.42"/>
<polygon fill="black" stroke="black" points="681.57,-457.7 671.59,-454.14 677.17,-463.14 681.57,-457.7"/>
</g>
<!-- mrs.domain.model.user.member.Member&#45;&gt;mrs.domain.model.reservation.reservation.Reservation -->
<g id="edge37" class="edge">
<title>mrs.domain.model.user.member.Member&#45;&gt;mrs.domain.model.reservation.reservation.Reservation</title>
<path fill="none" stroke="black" d="M796.71,-500.89C801.69,-496.35 806.17,-491.03 809,-485 823.55,-454.03 830.96,-434.25 809,-408 775.65,-368.14 623.93,-356.12 542.7,-352.52"/>
<polygon fill="black" stroke="black" points="542.82,-349.02 532.68,-352.1 542.53,-356.02 542.82,-349.02"/>
</g>
<!-- mrs.domain.model.user.member.MemberId -->
<g id="node27" class="node">
<title>mrs.domain.model.user.member.MemberId</title>
<polygon fill="#eedd82" stroke="black" points="800,-453 724,-453 724,-417 800,-417 800,-453"/>
<text text-anchor="middle" x="762" y="-431.3" font-family="Times,serif" font-size="14.00">MemberId</text>
</g>
<!-- mrs.domain.model.user.member.Member&#45;&gt;mrs.domain.model.user.member.MemberId -->
<g id="edge38" class="edge">
<title>mrs.domain.model.user.member.Member&#45;&gt;mrs.domain.model.user.member.MemberId</title>
<path fill="none" stroke="black" d="M766.7,-500.99C765.9,-490 764.87,-475.74 763.98,-463.37"/>
<polygon fill="black" stroke="black" points="767.45,-462.85 763.24,-453.12 760.47,-463.35 767.45,-462.85"/>
</g>
<!-- mrs.domain.model.user.staff.Staff -->
<g id="node28" class="node">
<title>mrs.domain.model.user.staff.Staff</title>
<polygon fill="#eedd82" stroke="black" points="1510,-539 1438,-539 1438,-501 1510,-501 1510,-539"/>
<text text-anchor="middle" x="1474" y="-523.8" font-family="Times,serif" font-size="14.00">スタッフ</text>
<text text-anchor="middle" x="1474" y="-508.8" font-family="Times,serif" font-size="14.00">Staff</text>
</g>
<!-- mrs.domain.model.user.staff.Staff&#45;&gt;mrs.domain.model.auth.user.Password -->
<g id="edge39" class="edge">
<title>mrs.domain.model.user.staff.Staff&#45;&gt;mrs.domain.model.auth.user.Password</title>
<path fill="none" stroke="black" d="M1472.71,-500.68C1469.81,-475.05 1460.42,-429.25 1430,-408 1402.21,-388.58 1155.78,-414.21 1125,-400 1114.03,-394.93 1104.62,-385.7 1097.35,-376.61"/>
<polygon fill="black" stroke="black" points="1100.06,-374.38 1091.3,-368.42 1094.43,-378.54 1100.06,-374.38"/>
</g>
<!-- mrs.domain.model.user.staff.Staff&#45;&gt;mrs.domain.model.auth.user.RoleName -->
<g id="edge40" class="edge">
<title>mrs.domain.model.user.staff.Staff&#45;&gt;mrs.domain.model.auth.user.RoleName</title>
<path fill="none" stroke="black" d="M1510.14,-518.08C1534.73,-515.34 1565.66,-507.27 1582,-485 1602.24,-457.41 1603.91,-434.29 1582,-408 1549.84,-369.41 1404.69,-356.86 1324.56,-352.85"/>
<polygon fill="black" stroke="black" points="1324.33,-349.33 1314.17,-352.36 1324,-356.32 1324.33,-349.33"/>
</g>
<!-- mrs.domain.model.user.staff.Staff&#45;&gt;mrs.domain.model.auth.user.User -->
<g id="edge41" class="edge">
<title>mrs.domain.model.user.staff.Staff&#45;&gt;mrs.domain.model.auth.user.User</title>
<path fill="none" stroke="black" d="M1437.93,-502.7C1428.37,-498.97 1417.94,-495.39 1408,-493 1372.4,-484.43 1362.27,-490.06 1326,-485 1243.8,-473.52 1148.4,-454.87 1096.18,-444.19"/>
<polygon fill="black" stroke="black" points="1096.83,-440.75 1086.33,-442.17 1095.42,-447.61 1096.83,-440.75"/>
</g>
<!-- mrs.domain.model.user.staff.Staff&#45;&gt;mrs.domain.model.auth.user.UserId -->
<g id="edge42" class="edge">
<title>mrs.domain.model.user.staff.Staff&#45;&gt;mrs.domain.model.auth.user.UserId</title>
<path fill="none" stroke="black" d="M1449.32,-500.86C1442.89,-495.89 1436.07,-490.38 1430,-485 1394.01,-453.12 1398.19,-426.95 1354,-408 1309.57,-388.95 962.07,-421.95 919,-400 909.17,-394.99 901.24,-386.02 895.28,-377.12"/>
<polygon fill="black" stroke="black" points="898.16,-375.11 889.98,-368.38 892.17,-378.74 898.16,-375.11"/>
</g>
<!-- mrs.domain.model.user.staff.Staff&#45;&gt;mrs.domain.model.auth.user.UserName -->
<g id="edge43" class="edge">
<title>mrs.domain.model.user.staff.Staff&#45;&gt;mrs.domain.model.auth.user.UserName</title>
<path fill="none" stroke="black" d="M1495.85,-500.7C1499.99,-496.05 1503.73,-490.73 1506,-485 1518.62,-453.19 1529.86,-432.53 1506,-408 1494.88,-396.57 1233.58,-406.46 1219,-400 1207.5,-394.9 1197.42,-385.54 1189.57,-376.35"/>
<polygon fill="black" stroke="black" points="1192.24,-374.08 1183.27,-368.43 1186.76,-378.44 1192.24,-374.08"/>
</g>
<!-- mrs.domain.model.user.staff.Staff&#45;&gt;mrs.domain.model.reservation.reservation.Reservation -->
<g id="edge44" class="edge">
<title>mrs.domain.model.user.staff.Staff&#45;&gt;mrs.domain.model.reservation.reservation.Reservation</title>
<path fill="none" stroke="black" d="M1437.84,-503.04C1428.28,-499.3 1417.88,-495.64 1408,-493 1384.56,-486.74 1372.8,-500.34 1354,-485 1325.79,-461.97 1355.65,-429.14 1326,-408 1315.05,-400.2 855.41,-401.04 842,-400 735.08,-391.68 611.04,-371.98 542.76,-360.25"/>
<polygon fill="black" stroke="black" points="543.14,-356.76 532.69,-358.5 541.95,-363.66 543.14,-356.76"/>
</g>
</g>
</svg>
