<?xml version="1.0" encoding="UTF-8" standalone="no"?>
<!DOCTYPE svg PUBLIC "-//W3C//DTD SVG 1.1//EN"
        "http://www.w3.org/Graphics/SVG/1.1/DTD/svg11.dtd">
<!-- Generated by graphviz version 3.0.0 (20220226.1711)
 -->
<!-- Title: 集中ビジネスルールツリー図 Pages: 1 -->
<svg width="1259pt" height="534pt"
     viewBox="0.00 0.00 1259.00 534.35" xmlns="http://www.w3.org/2000/svg">
    <g id="graph0" class="graph" transform="scale(1 1) rotate(0) translate(4 530.35)">
        <title>集中ビジネスルールツリー図</title>
        <polygon fill="white" stroke="transparent" points="-4,4 -4,-530.35 1255,-530.35 1255,4 -4,4"/>
        <text text-anchor="middle" x="625.5" y="-7.8" font-family="Times New Roman,serif" font-size="14.00">
            集中ビジネスルールツリー図
        </text>
        <!-- mrs.domain.model.auth.administrator.Administrator -->
        <g id="node1" class="node">
            <title>mrs.domain.model.auth.administrator.Administrator</title>
            <polygon fill="lemonchiffon" stroke="black" points="99.5,-269 6.5,-269 6.5,-231 99.5,-231 99.5,-269"/>
            <text text-anchor="middle" x="53" y="-253.8" font-family="Times New Roman,serif" font-size="14.00">管理者
            </text>
            <text text-anchor="middle" x="53" y="-238.8" font-family="Times New Roman,serif" font-size="14.00">
                Administrator
            </text>
        </g>
        <!-- mrs.domain.model.auth.user.RoleName -->
        <g id="node3" class="node">
            <title>mrs.domain.model.auth.user.RoleName</title>
            <polygon fill="#eedd82" stroke="black" points="463,-489 289,-489 289,-415 463,-415 463,-489"/>
            <text text-anchor="middle" x="376" y="-461" font-family="Times New Roman,serif" font-size="30.00">利用者区分
            </text>
            <text text-anchor="middle" x="376" y="-428" font-family="Times New Roman,serif" font-size="30.00">RoleName
            </text>
        </g>
        <!-- mrs.domain.model.auth.administrator.Administrator&#45;&gt;mrs.domain.model.auth.user.RoleName -->
        <g id="edge22" class="edge">
            <title>mrs.domain.model.auth.administrator.Administrator&#45;&gt;mrs.domain.model.auth.user.RoleName</title>
            <path fill="none" stroke="black"
                  d="M73.21,-269.1C90.36,-285.58 116.63,-309.43 142,-327 187.46,-358.48 241.72,-388.01 286.44,-410.45"/>
            <polygon fill="black" stroke="black" points="285.03,-413.66 295.54,-414.99 288.15,-407.39 285.03,-413.66"/>
        </g>
        <!-- mrs.domain.model.auth.user.User -->
        <g id="node4" class="node">
            <title>mrs.domain.model.auth.user.User</title>
            <polygon fill="#eedd82" stroke="black" points="253,-287 142,-287 142,-213 253,-213 253,-287"/>
            <text text-anchor="middle" x="197.5" y="-259" font-family="Times New Roman,serif" font-size="30.00">利用者
            </text>
            <text text-anchor="middle" x="197.5" y="-226" font-family="Times New Roman,serif" font-size="30.00">User
            </text>
        </g>
        <!-- mrs.domain.model.auth.administrator.Administrator&#45;&gt;mrs.domain.model.auth.user.User -->
        <g id="edge1" class="edge">
            <title>mrs.domain.model.auth.administrator.Administrator&#45;&gt;mrs.domain.model.auth.user.User</title>
            <path fill="none" stroke="black" d="M99.87,-250C109.98,-250 120.88,-250 131.58,-250"/>
            <polygon fill="black" stroke="black" points="131.76,-253.5 141.76,-250 131.76,-246.5 131.76,-253.5"/>
        </g>
        <!-- mrs.domain.model.auth.user.UserId -->
        <g id="node6" class="node">
            <title>mrs.domain.model.auth.user.UserId</title>
            <polygon fill="#eedd82" stroke="black" points="463,-396 289,-396 289,-322 463,-322 463,-396"/>
            <text text-anchor="middle" x="376" y="-368" font-family="Times New Roman,serif" font-size="30.00">利用者番号
            </text>
            <text text-anchor="middle" x="376" y="-335" font-family="Times New Roman,serif" font-size="30.00">UserId
            </text>
        </g>
        <!-- mrs.domain.model.auth.administrator.Administrator&#45;&gt;mrs.domain.model.auth.user.UserId -->
        <g id="edge5" class="edge">
            <title>mrs.domain.model.auth.administrator.Administrator&#45;&gt;mrs.domain.model.auth.user.UserId</title>
            <path fill="none" stroke="black"
                  d="M86.22,-269C102.54,-278.06 122.9,-288.53 142,-296 185.99,-313.21 236.41,-327.47 279.08,-338.06"/>
            <polygon fill="black" stroke="black" points="278.35,-341.48 288.9,-340.46 280.02,-334.68 278.35,-341.48"/>
        </g>
        <!-- mrs.domain.model.auth.user.UserName -->
        <g id="node7" class="node">
            <title>mrs.domain.model.auth.user.UserName</title>
            <polygon fill="#eedd82" stroke="black" points="448,-301 304,-301 304,-227 448,-227 448,-301"/>
            <text text-anchor="middle" x="376" y="-273" font-family="Times New Roman,serif" font-size="30.00">氏名</text>
            <text text-anchor="middle" x="376" y="-240" font-family="Times New Roman,serif" font-size="30.00">UserName
            </text>
        </g>
        <!-- mrs.domain.model.auth.administrator.Administrator&#45;&gt;mrs.domain.model.auth.user.UserName -->
        <g id="edge12" class="edge">
            <title>mrs.domain.model.auth.administrator.Administrator&#45;&gt;mrs.domain.model.auth.user.UserName</title>
            <path fill="none" stroke="black"
                  d="M81.93,-230.95C98.57,-220.76 120.57,-209.26 142,-204 189.91,-192.23 204.95,-192.82 253,-204 262.69,-206.25 279.23,-213.53 297.06,-222.28"/>
            <polygon fill="black" stroke="black" points="295.95,-225.64 306.46,-226.97 299.08,-219.37 295.95,-225.64"/>
        </g>
        <!-- mrs.domain.model.reservation.reservation.Reservation -->
        <g id="node11" class="node">
            <title>mrs.domain.model.reservation.reservation.Reservation</title>
            <polygon fill="#eedd82" stroke="black" points="455,-209 297,-209 297,-135 455,-135 455,-209"/>
            <text text-anchor="middle" x="376" y="-181" font-family="Times New Roman,serif" font-size="30.00">予約</text>
            <text text-anchor="middle" x="376" y="-148" font-family="Times New Roman,serif" font-size="30.00">
                Reservation
            </text>
        </g>
        <!-- mrs.domain.model.auth.administrator.Administrator&#45;&gt;mrs.domain.model.reservation.reservation.Reservation -->
        <g id="edge17" class="edge">
            <title>mrs.domain.model.auth.administrator.Administrator&#45;&gt;mrs.domain.model.reservation.reservation.Reservation</title>
            <path fill="none" stroke="black"
                  d="M56.83,-230.83C63.62,-192.62 84.75,-107.56 142,-72 183.91,-45.97 209.5,-48.72 253,-72 278.43,-85.61 267.64,-106.62 289,-126 289.95,-126.86 290.92,-127.72 291.91,-128.56"/>
            <polygon fill="black" stroke="black" points="289.78,-131.34 299.79,-134.8 294.13,-125.85 289.78,-131.34"/>
        </g>
        <!-- mrs.domain.model.auth.member.Member -->
        <g id="node2" class="node">
            <title>mrs.domain.model.auth.member.Member</title>
            <polygon fill="lemonchiffon" stroke="black" points="84.5,-372 21.5,-372 21.5,-334 84.5,-334 84.5,-372"/>
            <text text-anchor="middle" x="53" y="-356.8" font-family="Times New Roman,serif" font-size="14.00">会員</text>
            <text text-anchor="middle" x="53" y="-341.8" font-family="Times New Roman,serif" font-size="14.00">Member
            </text>
        </g>
        <!-- mrs.domain.model.auth.member.Member&#45;&gt;mrs.domain.model.auth.user.RoleName -->
        <g id="edge23" class="edge">
            <title>mrs.domain.model.auth.member.Member&#45;&gt;mrs.domain.model.auth.user.RoleName</title>
            <path fill="none" stroke="black"
                  d="M66.15,-372.31C81.03,-394 108.44,-428.11 142,-443 184.31,-461.77 235.31,-465.57 278.79,-464.03"/>
            <polygon fill="black" stroke="black" points="278.98,-467.52 288.81,-463.57 278.66,-460.53 278.98,-467.52"/>
        </g>
        <!-- mrs.domain.model.auth.member.Member&#45;&gt;mrs.domain.model.auth.user.User -->
        <g id="edge2" class="edge">
            <title>mrs.domain.model.auth.member.Member&#45;&gt;mrs.domain.model.auth.user.User</title>
            <path fill="none" stroke="black" d="M80.47,-333.87C96.32,-322.41 117.13,-307.37 136.75,-293.19"/>
            <polygon fill="black" stroke="black" points="139.01,-295.87 145.07,-287.17 134.91,-290.2 139.01,-295.87"/>
        </g>
        <!-- mrs.domain.model.auth.member.Member&#45;&gt;mrs.domain.model.auth.user.UserId -->
        <g id="edge6" class="edge">
            <title>mrs.domain.model.auth.member.Member&#45;&gt;mrs.domain.model.auth.user.UserId</title>
            <path fill="none" stroke="black"
                  d="M84.81,-359.12C101.63,-362.16 122.88,-365.49 142,-367 186.82,-370.54 236.62,-369.5 278.64,-367.19"/>
            <polygon fill="black" stroke="black" points="279.08,-370.67 288.86,-366.6 278.68,-363.69 279.08,-370.67"/>
        </g>
        <!-- mrs.domain.model.auth.member.Member&#45;&gt;mrs.domain.model.auth.user.UserName -->
        <g id="edge13" class="edge">
            <title>mrs.domain.model.auth.member.Member&#45;&gt;mrs.domain.model.auth.user.UserName</title>
            <path fill="none" stroke="black" d="M84.78,-344.47C132.49,-331.24 225.88,-305.34 293.87,-286.49"/>
            <polygon fill="black" stroke="black" points="295.01,-289.81 303.71,-283.76 293.14,-283.06 295.01,-289.81"/>
        </g>
        <!-- mrs.domain.model.auth.member.Member&#45;&gt;mrs.domain.model.reservation.reservation.Reservation -->
        <g id="edge18" class="edge">
            <title>mrs.domain.model.auth.member.Member&#45;&gt;mrs.domain.model.reservation.reservation.Reservation
            </title>
            <path fill="none" stroke="black"
                  d="M68.53,-333.8C79.46,-318.96 94.48,-297.69 106,-278 124.47,-246.43 112.39,-225.47 142,-204 183.27,-174.08 239.7,-165.73 286.69,-165.03"/>
            <polygon fill="black" stroke="black" points="286.88,-168.53 296.87,-165 286.86,-161.53 286.88,-168.53"/>
        </g>
        <!-- mrs.domain.model.auth.user.User&#45;&gt;mrs.domain.model.auth.user.RoleName -->
        <g id="edge24" class="edge">
            <title>mrs.domain.model.auth.user.User&#45;&gt;mrs.domain.model.auth.user.RoleName</title>
            <path fill="none" stroke="black"
                  d="M213.33,-287.29C228.33,-321.29 254.26,-371.23 289,-405 290.11,-406.07 291.24,-407.13 292.4,-408.17"/>
            <polygon fill="black" stroke="black" points="290.47,-411.11 300.41,-414.79 294.93,-405.72 290.47,-411.11"/>
        </g>
        <!-- mrs.domain.model.auth.user.User&#45;&gt;mrs.domain.model.auth.user.UserId -->
        <g id="edge7" class="edge">
            <title>mrs.domain.model.auth.user.User&#45;&gt;mrs.domain.model.auth.user.UserId</title>
            <path fill="none" stroke="black"
                  d="M253.15,-287.09C264.89,-294.81 277.28,-302.79 289,-310 292.62,-312.23 296.35,-314.49 300.12,-316.74"/>
            <polygon fill="black" stroke="black" points="298.61,-319.91 309,-322 302.18,-313.89 298.61,-319.91"/>
        </g>
        <!-- mrs.domain.model.auth.user.User&#45;&gt;mrs.domain.model.auth.user.UserName -->
        <g id="edge14" class="edge">
            <title>mrs.domain.model.auth.user.User&#45;&gt;mrs.domain.model.auth.user.UserName</title>
            <path fill="none" stroke="black" d="M253.38,-254.35C266.12,-255.36 279.95,-256.46 293.56,-257.54"/>
            <polygon fill="black" stroke="black" points="293.66,-261.06 303.91,-258.36 294.21,-254.08 293.66,-261.06"/>
        </g>
        <!-- mrs.domain.model.auth.user.User&#45;&gt;mrs.domain.model.reservation.reservation.Reservation -->
        <g id="edge19" class="edge">
            <title>mrs.domain.model.auth.user.User&#45;&gt;mrs.domain.model.reservation.reservation.Reservation</title>
            <path fill="none" stroke="black" d="M253.38,-219.45C264.24,-214.34 275.89,-209.04 287.52,-203.91"/>
            <polygon fill="black" stroke="black" points="289.07,-207.05 296.83,-199.83 286.27,-200.64 289.07,-207.05"/>
        </g>
        <!-- mrs.domain.model.auth.user.UserDetailsImpl -->
        <g id="node5" class="node">
            <title>mrs.domain.model.auth.user.UserDetailsImpl</title>
            <polygon fill="lemonchiffon" stroke="black" points="106,-524 0,-524 0,-486 106,-486 106,-524"/>
            <text text-anchor="middle" x="53" y="-508.8" font-family="Times New Roman,serif" font-size="14.00">利用者
            </text>
            <text text-anchor="middle" x="53" y="-493.8" font-family="Times New Roman,serif" font-size="14.00">
                UserDetailsImpl
            </text>
        </g>
        <!-- mrs.domain.model.auth.user.UserDetailsImpl&#45;&gt;mrs.domain.model.auth.user.RoleName -->
        <g id="edge25" class="edge">
            <title>mrs.domain.model.auth.user.UserDetailsImpl&#45;&gt;mrs.domain.model.auth.user.RoleName</title>
            <path fill="none" stroke="black"
                  d="M106.36,-517.65C146.97,-525.33 204.36,-531.48 253,-519 273.42,-513.76 294.08,-504.32 312.46,-494.14"/>
            <polygon fill="black" stroke="black" points="314.34,-497.09 321.29,-489.1 310.87,-491.02 314.34,-497.09"/>
        </g>
        <!-- mrs.domain.model.auth.user.UserDetailsImpl&#45;&gt;mrs.domain.model.auth.user.User -->
        <g id="edge3" class="edge">
            <title>mrs.domain.model.auth.user.UserDetailsImpl&#45;&gt;mrs.domain.model.auth.user.User</title>
            <path fill="none" stroke="black" d="M64.71,-485.83C87.07,-445.81 139.27,-352.41 170.85,-295.9"/>
            <polygon fill="black" stroke="black" points="173.91,-297.59 175.74,-287.16 167.8,-294.18 173.91,-297.59"/>
        </g>
        <!-- mrs.domain.model.auth.user.UserDetailsImpl&#45;&gt;mrs.domain.model.auth.user.UserId -->
        <g id="edge8" class="edge">
            <title>mrs.domain.model.auth.user.UserDetailsImpl&#45;&gt;mrs.domain.model.auth.user.UserId</title>
            <path fill="none" stroke="black" d="M95.97,-485.91C143.49,-464.3 222.34,-428.43 284.12,-400.34"/>
            <polygon fill="black" stroke="black" points="285.84,-403.4 293.49,-396.07 282.94,-397.03 285.84,-403.4"/>
        </g>
        <!-- mrs.domain.model.reservation.reservation.ReservableRoom -->
        <g id="node8" class="node">
            <title>mrs.domain.model.reservation.reservation.ReservableRoom</title>
            <polygon fill="#eedd82" stroke="black" points="736,-144 499,-144 499,-70 736,-70 736,-144"/>
            <text text-anchor="middle" x="617.5" y="-116" font-family="Times New Roman,serif" font-size="30.00">
                予約可能会議室
            </text>
            <text text-anchor="middle" x="617.5" y="-83" font-family="Times New Roman,serif" font-size="30.00">
                ReservableRoom
            </text>
        </g>
        <!-- mrs.domain.model.reservation.reservation.ReservableRoomId -->
        <g id="node9" class="node">
            <title>mrs.domain.model.reservation.reservation.ReservableRoomId</title>
            <polygon fill="#eedd82" stroke="black" points="1041,-144 772,-144 772,-70 1041,-70 1041,-144"/>
            <text text-anchor="middle" x="906.5" y="-116" font-family="Times New Roman,serif" font-size="30.00">
                予約可能会議室ID
            </text>
            <text text-anchor="middle" x="906.5" y="-83" font-family="Times New Roman,serif" font-size="30.00">
                ReservableRoomId
            </text>
        </g>
        <!-- mrs.domain.model.reservation.reservation.ReservableRoom&#45;&gt;mrs.domain.model.reservation.reservation.ReservableRoomId -->
        <g id="edge15" class="edge">
            <title>mrs.domain.model.reservation.reservation.ReservableRoom&#45;&gt;mrs.domain.model.reservation.reservation.ReservableRoomId</title>
            <path fill="none" stroke="black" d="M736.06,-107C744.52,-107 753.1,-107 761.68,-107"/>
            <polygon fill="black" stroke="black" points="761.75,-110.5 771.75,-107 761.75,-103.5 761.75,-110.5"/>
        </g>
        <!-- mrs.domain.model.reservation.reservation.ReservableRoom&#45;&gt;mrs.domain.model.reservation.reservation.Reservation -->
        <g id="edge20" class="edge">
            <title>mrs.domain.model.reservation.reservation.ReservableRoom&#45;&gt;mrs.domain.model.reservation.reservation.Reservation</title>
            <path fill="none" stroke="black" d="M504.61,-144.1C491.27,-147.77 477.8,-151.36 464.87,-154.69"/>
            <polygon fill="black" stroke="black" points="463.91,-151.32 455.09,-157.18 465.64,-158.1 463.91,-151.32"/>
        </g>
        <!-- mrs.domain.model.reservation.room.RoomId -->
        <g id="node14" class="node">
            <title>mrs.domain.model.reservation.room.RoomId</title>
            <polygon fill="#eedd82" stroke="black" points="1251,-111 1077,-111 1077,-37 1251,-37 1251,-111"/>
            <text text-anchor="middle" x="1164" y="-83" font-family="Times New Roman,serif" font-size="30.00">会議室番号
            </text>
            <text text-anchor="middle" x="1164" y="-50" font-family="Times New Roman,serif" font-size="30.00">RoomId
            </text>
        </g>
        <!-- mrs.domain.model.reservation.reservation.ReservableRoomId&#45;&gt;mrs.domain.model.reservation.room.RoomId -->
        <g id="edge26" class="edge">
            <title>mrs.domain.model.reservation.reservation.ReservableRoomId&#45;&gt;mrs.domain.model.reservation.room.RoomId</title>
            <path fill="none" stroke="black" d="M1041.24,-89.73C1049.82,-88.62 1058.37,-87.51 1066.72,-86.43"/>
            <polygon fill="black" stroke="black" points="1067.34,-89.88 1076.81,-85.13 1066.45,-82.94 1067.34,-89.88"/>
        </g>
        <!-- mrs.domain.model.reservation.reservation.ReservableRoomList -->
        <g id="node10" class="node">
            <title>mrs.domain.model.reservation.reservation.ReservableRoomList</title>
            <polygon fill="lemonchiffon" stroke="black" points="462,-117 290,-117 290,-79 462,-79 462,-117"/>
            <text text-anchor="middle" x="376" y="-101.8" font-family="Times New Roman,serif" font-size="14.00">
                予約可能会議室一覧
            </text>
            <text text-anchor="middle" x="376" y="-86.8" font-family="Times New Roman,serif" font-size="14.00">
                ReservableRoomList
            </text>
        </g>
        <!-- mrs.domain.model.reservation.reservation.ReservableRoomList&#45;&gt;mrs.domain.model.reservation.reservation.ReservableRoom -->
        <g id="edge9" class="edge">
            <title>mrs.domain.model.reservation.reservation.ReservableRoomList&#45;&gt;mrs.domain.model.reservation.reservation.ReservableRoom</title>
            <path fill="none" stroke="black" d="M462.11,-101.2C470.81,-101.53 479.77,-101.86 488.79,-102.2"/>
            <polygon fill="black" stroke="black" points="488.86,-105.71 498.99,-102.58 489.13,-98.71 488.86,-105.71"/>
        </g>
        <!-- mrs.domain.model.reservation.reservation.Reservation&#45;&gt;mrs.domain.model.auth.user.User -->
        <g id="edge4" class="edge">
            <title>mrs.domain.model.reservation.reservation.Reservation&#45;&gt;mrs.domain.model.auth.user.User</title>
            <path fill="none" stroke="black" d="M306.14,-209.03C291.92,-215.54 277,-222.11 262.95,-228.05"/>
            <polygon fill="black" stroke="black" points="261.25,-224.96 253.38,-232.05 263.95,-231.42 261.25,-224.96"/>
        </g>
        <!-- mrs.domain.model.reservation.reservation.Reservation&#45;&gt;mrs.domain.model.reservation.reservation.ReservableRoom -->
        <g id="edge10" class="edge">
            <title>mrs.domain.model.reservation.reservation.Reservation&#45;&gt;mrs.domain.model.reservation.reservation.ReservableRoom</title>
            <path fill="none" stroke="black" d="M455.09,-144.43C466.07,-141.25 477.59,-138 489.21,-134.81"/>
            <polygon fill="black" stroke="black" points="490.25,-138.15 498.97,-132.15 488.41,-131.4 490.25,-138.15"/>
        </g>
        <!-- mrs.domain.model.reservation.reservation.Reservation&#45;&gt;mrs.domain.model.reservation.reservation.ReservableRoomId -->
        <g id="edge16" class="edge">
            <title>mrs.domain.model.reservation.reservation.Reservation&#45;&gt;mrs.domain.model.reservation.reservation.ReservableRoomId</title>
            <path fill="none" stroke="black"
                  d="M455.24,-172.62C528.3,-172.07 640.17,-168.36 736,-153 747.41,-151.17 759.15,-148.88 770.88,-146.29"/>
            <polygon fill="black" stroke="black" points="771.75,-149.69 780.73,-144.06 770.2,-142.86 771.75,-149.69"/>
        </g>
        <!-- mrs.domain.model.reservation.reservation.ReservationList -->
        <g id="node12" class="node">
            <title>mrs.domain.model.reservation.reservation.ReservationList</title>
            <polygon fill="lemonchiffon" stroke="black" points="249.5,-119 145.5,-119 145.5,-81 249.5,-81 249.5,-119"/>
            <text text-anchor="middle" x="197.5" y="-103.8" font-family="Times New Roman,serif" font-size="14.00">予約一覧
            </text>
            <text text-anchor="middle" x="197.5" y="-88.8" font-family="Times New Roman,serif" font-size="14.00">
                ReservationList
            </text>
        </g>
        <!-- mrs.domain.model.reservation.reservation.ReservationList&#45;&gt;mrs.domain.model.reservation.reservation.Reservation -->
        <g id="edge21" class="edge">
            <title>mrs.domain.model.reservation.reservation.ReservationList&#45;&gt;mrs.domain.model.reservation.reservation.Reservation</title>
            <path fill="none" stroke="black" d="M245.34,-119.11C258.32,-124.4 272.85,-130.33 287.36,-136.25"/>
            <polygon fill="black" stroke="black" points="286.3,-139.6 296.88,-140.13 288.94,-133.11 286.3,-139.6"/>
        </g>
        <!-- mrs.domain.model.reservation.room.MeetingRoom -->
        <g id="node13" class="node">
            <title>mrs.domain.model.reservation.room.MeetingRoom</title>
            <polygon fill="lemonchiffon" stroke="black" points="424,-61 328,-61 328,-23 424,-23 424,-61"/>
            <text text-anchor="middle" x="376" y="-45.8" font-family="Times New Roman,serif" font-size="14.00">会議室
            </text>
            <text text-anchor="middle" x="376" y="-30.8" font-family="Times New Roman,serif" font-size="14.00">
                MeetingRoom
            </text>
        </g>
        <!-- mrs.domain.model.reservation.room.MeetingRoom&#45;&gt;mrs.domain.model.reservation.reservation.ReservableRoom -->
        <g id="edge11" class="edge">
            <title>mrs.domain.model.reservation.room.MeetingRoom&#45;&gt;mrs.domain.model.reservation.reservation.ReservableRoom</title>
            <path fill="none" stroke="black" d="M424.03,-54.76C442.92,-59.89 465.7,-66.07 488.88,-72.36"/>
            <polygon fill="black" stroke="black" points="488.26,-75.82 498.83,-75.06 490.09,-69.07 488.26,-75.82"/>
        </g>
        <!-- mrs.domain.model.reservation.room.MeetingRoom&#45;&gt;mrs.domain.model.reservation.room.RoomId -->
        <g id="edge27" class="edge">
            <title>mrs.domain.model.reservation.room.MeetingRoom&#45;&gt;mrs.domain.model.reservation.room.RoomId
            </title>
            <path fill="none" stroke="black"
                  d="M424.16,-42.09C532.98,-42.59 810.01,-45.41 1041,-61 1049.32,-61.56 1057.96,-62.26 1066.61,-63.03"/>
            <polygon fill="black" stroke="black" points="1066.48,-66.53 1076.76,-63.97 1067.13,-59.56 1066.48,-66.53"/>
        </g>
    </g>
</svg>
