<?xml version="1.0" encoding="UTF-8" standalone="no"?>
<!DOCTYPE svg PUBLIC "-//W3C//DTD SVG 1.1//EN"
 "http://www.w3.org/Graphics/SVG/1.1/DTD/svg11.dtd">
<!-- Generated by graphviz version 3.0.0 (20220226.1711)
 -->
<!-- Title: 集中ビジネスルールツリー図 Pages: 1 -->
<svg width="839pt" height="899pt"
     viewBox="0.00 0.00 839.00 898.78" xmlns="http://www.w3.org/2000/svg">
<g id="graph0" class="graph" transform="scale(1 1) rotate(0) translate(4 894.78)">
    <title>集中ビジネスルールツリー図</title>
    <polygon fill="white" stroke="transparent" points="-4,4 -4,-894.78 835,-894.78 835,4 -4,4"/>
    <text text-anchor="middle" x="415.5" y="-7.8" font-family="Times New Roman,serif" font-size="14.00">
        集中ビジネスルールツリー図
    </text>
    <!-- mrs.domain.model.auth.user.Password -->
    <g id="node1" class="node">
        <title>mrs.domain.model.auth.user.Password</title>
        <polygon fill="#eedd82" stroke="black" points="558,-616.17 384,-616.17 384,-542.17 558,-542.17 558,-616.17"/>
        <text text-anchor="middle" x="471" y="-588.17" font-family="Times New Roman,serif" font-size="30.00">パスワード
        </text>
        <text text-anchor="middle" x="471" y="-555.17" font-family="Times New Roman,serif" font-size="30.00">Password
        </text>
    </g>
    <!-- mrs.domain.model.auth.user.RoleName -->
    <g id="node2" class="node">
        <title>mrs.domain.model.auth.user.RoleName</title>
        <polygon fill="#eedd82" stroke="black" points="558,-427.17 384,-427.17 384,-353.17 558,-353.17 558,-427.17"/>
        <text text-anchor="middle" x="471" y="-399.17" font-family="Times New Roman,serif" font-size="30.00">
            利用者区分
        </text>
        <text text-anchor="middle" x="471" y="-366.17" font-family="Times New Roman,serif" font-size="30.00">RoleName
        </text>
    </g>
    <!-- mrs.domain.model.auth.user.User -->
    <g id="node3" class="node">
        <title>mrs.domain.model.auth.user.User</title>
        <polygon fill="#eedd82" stroke="black"
                 points="300.5,-427.17 189.5,-427.17 189.5,-353.17 300.5,-353.17 300.5,-427.17"/>
        <text text-anchor="middle" x="245" y="-399.17" font-family="Times New Roman,serif" font-size="30.00">利用者
        </text>
        <text text-anchor="middle" x="245" y="-366.17" font-family="Times New Roman,serif" font-size="30.00">User</text>
    </g>
    <!-- mrs.domain.model.auth.user.User&#45;&gt;mrs.domain.model.auth.user.Password -->
    <g id="edge29" class="edge">
        <title>mrs.domain.model.auth.user.User&#45;&gt;mrs.domain.model.auth.user.Password</title>
        <path fill="none" stroke="black"
              d="M300.71,-408.58C317.64,-416.45 335.18,-427.13 348,-441.17 377.61,-473.59 354.84,-500.34 384,-533.17 384.61,-533.86 385.24,-534.54 385.88,-535.22"/>
        <polygon fill="black" stroke="black" points="383.5,-537.79 393.17,-542.13 388.32,-532.71 383.5,-537.79"/>
    </g>
    <!-- mrs.domain.model.auth.user.User&#45;&gt;mrs.domain.model.auth.user.RoleName -->
    <g id="edge12" class="edge">
        <title>mrs.domain.model.auth.user.User&#45;&gt;mrs.domain.model.auth.user.RoleName</title>
        <path fill="none" stroke="black" d="M300.51,-390.17C322.48,-390.17 348.49,-390.17 373.46,-390.17"/>
        <polygon fill="black" stroke="black" points="373.71,-393.67 383.71,-390.17 373.71,-386.67 373.71,-393.67"/>
    </g>
    <!-- mrs.domain.model.auth.user.UserId -->
    <g id="node5" class="node">
        <title>mrs.domain.model.auth.user.UserId</title>
        <polygon fill="#eedd82" stroke="black" points="558,-524.17 384,-524.17 384,-450.17 558,-450.17 558,-524.17"/>
        <text text-anchor="middle" x="471" y="-496.17" font-family="Times New Roman,serif" font-size="30.00">
            利用者番号
        </text>
        <text text-anchor="middle" x="471" y="-463.17" font-family="Times New Roman,serif" font-size="30.00">UserId
        </text>
    </g>
<!-- mrs.domain.model.auth.user.User&#45;&gt;mrs.domain.model.auth.user.UserId -->
    <g id="edge17" class="edge">
        <title>mrs.domain.model.auth.user.User&#45;&gt;mrs.domain.model.auth.user.UserId</title>
        <path fill="none" stroke="black" d="M300.51,-413.77C322.89,-423.46 349.46,-434.97 374.85,-445.97"/>
        <polygon fill="black" stroke="black" points="373.58,-449.23 384.15,-449.99 376.36,-442.8 373.58,-449.23"/>
    </g>
<!-- mrs.domain.model.auth.user.UserName -->
    <g id="node6" class="node">
        <title>mrs.domain.model.auth.user.UserName</title>
        <polygon fill="#eedd82" stroke="black" points="543,-319.17 399,-319.17 399,-245.17 543,-245.17 543,-319.17"/>
        <text text-anchor="middle" x="471" y="-291.17" font-family="Times New Roman,serif" font-size="30.00">氏名</text>
        <text text-anchor="middle" x="471" y="-258.17" font-family="Times New Roman,serif" font-size="30.00">UserName
        </text>
    </g>
<!-- mrs.domain.model.auth.user.User&#45;&gt;mrs.domain.model.auth.user.UserName -->
    <g id="edge22" class="edge">
        <title>mrs.domain.model.auth.user.User&#45;&gt;mrs.domain.model.auth.user.UserName</title>
        <path fill="none" stroke="black" d="M300.51,-363.89C327.27,-350.98 360.03,-335.19 389.6,-320.93"/>
        <polygon fill="black" stroke="black" points="391.17,-324.06 398.66,-316.56 388.13,-317.75 391.17,-324.06"/>
    </g>
<!-- mrs.domain.model.reservation.reservation.Reservation -->
    <g id="node10" class="node">
        <title>mrs.domain.model.reservation.reservation.Reservation</title>
        <polygon fill="#eedd82" stroke="black" points="550,-210.17 392,-210.17 392,-136.17 550,-136.17 550,-210.17"/>
        <text text-anchor="middle" x="471" y="-182.17" font-family="Times New Roman,serif" font-size="30.00">予約</text>
        <text text-anchor="middle" x="471" y="-149.17" font-family="Times New Roman,serif" font-size="30.00">
            Reservation
        </text>
    </g>
<!-- mrs.domain.model.auth.user.User&#45;&gt;mrs.domain.model.reservation.reservation.Reservation -->
    <g id="edge7" class="edge">
        <title>mrs.domain.model.auth.user.User&#45;&gt;mrs.domain.model.reservation.reservation.Reservation</title>
        <path fill="none" stroke="black"
              d="M269.99,-353.16C296.28,-318.47 340.5,-266.58 384,-227.17 387.84,-223.68 391.88,-220.21 396.01,-216.79"/>
        <polygon fill="black" stroke="black" points="398.47,-219.3 404.07,-210.31 394.08,-213.85 398.47,-219.3"/>
    </g>
<!-- mrs.domain.model.auth.user.UserDetailsImpl -->
    <g id="node4" class="node">
        <title>mrs.domain.model.auth.user.UserDetailsImpl</title>
        <polygon fill="lemonchiffon" stroke="black" points="106,-851.17 0,-851.17 0,-813.17 106,-813.17 106,-851.17"/>
        <text text-anchor="middle" x="53" y="-835.97" font-family="Times New Roman,serif" font-size="14.00">利用者
        </text>
        <text text-anchor="middle" x="53" y="-820.97" font-family="Times New Roman,serif" font-size="14.00">
            UserDetailsImpl
        </text>
    </g>
<!-- mrs.domain.model.auth.user.UserDetailsImpl&#45;&gt;mrs.domain.model.auth.user.Password -->
    <g id="edge30" class="edge">
        <title>mrs.domain.model.auth.user.UserDetailsImpl&#45;&gt;mrs.domain.model.auth.user.Password</title>
        <path fill="none" stroke="black"
              d="M92.95,-851.32C153.04,-877.85 269.57,-916.98 348,-865.17 428.7,-811.86 456.2,-693.08 465.44,-626.59"/>
        <polygon fill="black" stroke="black" points="468.94,-626.75 466.77,-616.38 462,-625.84 468.94,-626.75"/>
    </g>
<!-- mrs.domain.model.auth.user.UserDetailsImpl&#45;&gt;mrs.domain.model.auth.user.RoleName -->
    <g id="edge13" class="edge">
        <title>mrs.domain.model.auth.user.UserDetailsImpl&#45;&gt;mrs.domain.model.auth.user.RoleName</title>
        <path fill="none" stroke="black"
              d="M106.04,-824.22C173.45,-810.99 289.27,-777.67 348,-699.17 417.36,-606.46 319.87,-537.56 384,-441.17 385.47,-438.95 387.08,-436.82 388.79,-434.77"/>
        <polygon fill="black" stroke="black" points="391.57,-436.93 395.91,-427.26 386.49,-432.11 391.57,-436.93"/>
    </g>
<!-- mrs.domain.model.auth.user.UserDetailsImpl&#45;&gt;mrs.domain.model.auth.user.User -->
    <g id="edge1" class="edge">
        <title>mrs.domain.model.auth.user.UserDetailsImpl&#45;&gt;mrs.domain.model.auth.user.User</title>
        <path fill="none" stroke="black"
              d="M63.36,-812.8C74.7,-788.73 93.8,-746.18 106,-708.17 128.01,-639.59 114.23,-616.62 142,-550.17 159.24,-508.91 186.87,-466.42 209.03,-435.61"/>
        <polygon fill="black" stroke="black" points="212.07,-437.38 215.12,-427.23 206.41,-433.26 212.07,-437.38"/>
    </g>
<!-- mrs.domain.model.auth.user.UserDetailsImpl&#45;&gt;mrs.domain.model.auth.user.UserId -->
    <g id="edge18" class="edge">
        <title>mrs.domain.model.auth.user.UserDetailsImpl&#45;&gt;mrs.domain.model.auth.user.UserId</title>
        <path fill="none" stroke="black"
              d="M106.08,-839.09C180.91,-847.78 313.67,-858.08 348,-827.17 396.92,-783.13 346.79,-587.46 384,-533.17 384.2,-532.88 384.4,-532.59 384.6,-532.31"/>
        <polygon fill="black" stroke="black" points="387.38,-534.43 391.07,-524.5 382,-529.97 387.38,-534.43"/>
    </g>
<!-- mrs.domain.model.contact.Contact -->
    <g id="node7" class="node">
        <title>mrs.domain.model.contact.Contact</title>
        <polygon fill="lemonchiffon" stroke="black"
                 points="104.5,-540.17 1.5,-540.17 1.5,-502.17 104.5,-502.17 104.5,-540.17"/>
        <text text-anchor="middle" x="53" y="-524.97" font-family="Times New Roman,serif" font-size="14.00">問い合わせ
        </text>
        <text text-anchor="middle" x="53" y="-509.97" font-family="Times New Roman,serif" font-size="14.00">Contact
        </text>
    </g>
<!-- mrs.domain.model.contact.Contact&#45;&gt;mrs.domain.model.auth.user.User -->
    <g id="edge2" class="edge">
        <title>mrs.domain.model.contact.Contact&#45;&gt;mrs.domain.model.auth.user.User</title>
        <path fill="none" stroke="black" d="M81.63,-502.12C107.72,-484.13 147.78,-456.51 181.58,-433.2"/>
        <polygon fill="black" stroke="black" points="183.78,-435.94 190.03,-427.38 179.81,-430.17 183.78,-435.94"/>
    </g>
<!-- mrs.domain.model.contact.ContactPerson -->
    <g id="node8" class="node">
        <title>mrs.domain.model.contact.ContactPerson</title>
        <polygon fill="#eedd82" stroke="black" points="348,-633.17 142,-633.17 142,-559.17 348,-559.17 348,-633.17"/>
        <text text-anchor="middle" x="245" y="-605.17" font-family="Times New Roman,serif" font-size="30.00">問い合わせ人
        </text>
        <text text-anchor="middle" x="245" y="-572.17" font-family="Times New Roman,serif" font-size="30.00">
            ContactPerson
        </text>
    </g>
<!-- mrs.domain.model.contact.Contact&#45;&gt;mrs.domain.model.contact.ContactPerson -->
    <g id="edge34" class="edge">
        <title>mrs.domain.model.contact.Contact&#45;&gt;mrs.domain.model.contact.ContactPerson</title>
        <path fill="none" stroke="black" d="M102.44,-540.29C114.2,-544.93 127.24,-550.08 140.49,-555.31"/>
        <polygon fill="black" stroke="black" points="139.58,-558.71 150.17,-559.13 142.15,-552.2 139.58,-558.71"/>
    </g>
<!-- mrs.domain.model.facility.room.MeetingRoom -->
    <g id="node9" class="node">
        <title>mrs.domain.model.facility.room.MeetingRoom</title>
        <polygon fill="lemonchiffon" stroke="black" points="519,-118.17 423,-118.17 423,-80.17 519,-80.17 519,-118.17"/>
        <text text-anchor="middle" x="471" y="-102.97" font-family="Times New Roman,serif" font-size="14.00">会議室
        </text>
        <text text-anchor="middle" x="471" y="-87.97" font-family="Times New Roman,serif" font-size="14.00">
            MeetingRoom
        </text>
    </g>
<!-- mrs.domain.model.reservation.room.ReservableRoom -->
    <g id="node12" class="node">
        <title>mrs.domain.model.reservation.room.ReservableRoom</title>
        <polygon fill="#eedd82" stroke="black" points="831,-173.17 594,-173.17 594,-99.17 831,-99.17 831,-173.17"/>
        <text text-anchor="middle" x="712.5" y="-145.17" font-family="Times New Roman,serif" font-size="30.00">
            予約可能会議室
        </text>
        <text text-anchor="middle" x="712.5" y="-112.17" font-family="Times New Roman,serif" font-size="30.00">
            ReservableRoom
        </text>
    </g>
<!-- mrs.domain.model.facility.room.MeetingRoom&#45;&gt;mrs.domain.model.reservation.room.ReservableRoom -->
    <g id="edge26" class="edge">
        <title>mrs.domain.model.facility.room.MeetingRoom&#45;&gt;mrs.domain.model.reservation.room.ReservableRoom
        </title>
        <path fill="none" stroke="black" d="M519.03,-106.43C537.92,-109.35 560.7,-112.87 583.88,-116.45"/>
        <polygon fill="black" stroke="black" points="583.41,-119.92 593.83,-117.99 584.48,-113 583.41,-119.92"/>
    </g>
<!-- mrs.domain.model.reservation.reservation.Reservation&#45;&gt;mrs.domain.model.auth.user.User -->
    <g id="edge3" class="edge">
        <title>mrs.domain.model.reservation.reservation.Reservation&#45;&gt;mrs.domain.model.auth.user.User</title>
        <path fill="none" stroke="black"
              d="M427.08,-210.45C412.87,-221.15 397.3,-233.11 384,-245.17 349.57,-276.37 314.68,-315.39 288.59,-345.18"/>
        <polygon fill="black" stroke="black" points="285.76,-343.1 281.82,-352.93 291.03,-347.7 285.76,-343.1"/>
    </g>
<!-- mrs.domain.model.reservation.reservation.Reservation&#45;&gt;mrs.domain.model.reservation.room.ReservableRoom -->
    <g id="edge27" class="edge">
        <title>mrs.domain.model.reservation.reservation.Reservation&#45;&gt;mrs.domain.model.reservation.room.ReservableRoom</title>
        <path fill="none" stroke="black" d="M550.09,-154.73C560.96,-152.85 572.36,-150.96 583.86,-149.15"/>
        <polygon fill="black" stroke="black" points="584.63,-152.57 593.97,-147.57 583.56,-145.65 584.63,-152.57"/>
    </g>
<!-- mrs.domain.model.reservation.reservation.ReservationList -->
    <g id="node11" class="node">
        <title>mrs.domain.model.reservation.reservation.ReservationList</title>
        <polygon fill="lemonchiffon" stroke="black" points="297,-107.17 193,-107.17 193,-69.17 297,-69.17 297,-107.17"/>
        <text text-anchor="middle" x="245" y="-91.97" font-family="Times New Roman,serif" font-size="14.00">予約一覧
        </text>
        <text text-anchor="middle" x="245" y="-76.97" font-family="Times New Roman,serif" font-size="14.00">
            ReservationList
        </text>
    </g>
<!-- mrs.domain.model.reservation.reservation.ReservationList&#45;&gt;mrs.domain.model.reservation.reservation.Reservation -->
    <g id="edge8" class="edge">
        <title>mrs.domain.model.reservation.reservation.ReservationList&#45;&gt;mrs.domain.model.reservation.reservation.Reservation</title>
        <path fill="none" stroke="black"
              d="M297.16,-103.72C313.51,-108.96 331.61,-115.04 348,-121.17 359.32,-125.4 371.12,-130.08 382.73,-134.85"/>
        <polygon fill="black" stroke="black" points="381.42,-138.09 391.99,-138.69 384.1,-131.63 381.42,-138.09"/>
    </g>
<!-- mrs.domain.model.reservation.room.ReservableRoom&#45;&gt;mrs.domain.model.reservation.reservation.Reservation -->
    <g id="edge9" class="edge">
        <title>mrs.domain.model.reservation.room.ReservableRoom&#45;&gt;mrs.domain.model.reservation.reservation.Reservation</title>
        <path fill="none" stroke="black" d="M593.97,-161.07C582.58,-162.84 571.15,-164.54 560.11,-166.09"/>
        <polygon fill="black" stroke="black" points="559.52,-162.64 550.09,-167.48 560.47,-169.57 559.52,-162.64"/>
    </g>
<!-- mrs.domain.model.reservation.room.ReservableRoomList -->
    <g id="node13" class="node">
        <title>mrs.domain.model.reservation.room.ReservableRoomList</title>
        <polygon fill="lemonchiffon" stroke="black" points="557,-62.17 385,-62.17 385,-24.17 557,-24.17 557,-62.17"/>
        <text text-anchor="middle" x="471" y="-46.97" font-family="Times New Roman,serif" font-size="14.00">
            予約可能会議室一覧
        </text>
        <text text-anchor="middle" x="471" y="-31.97" font-family="Times New Roman,serif" font-size="14.00">
            ReservableRoomList
        </text>
    </g>
<!-- mrs.domain.model.reservation.room.ReservableRoomList&#45;&gt;mrs.domain.model.reservation.room.ReservableRoom -->
    <g id="edge28" class="edge">
        <title>mrs.domain.model.reservation.room.ReservableRoomList&#45;&gt;mrs.domain.model.reservation.room.ReservableRoom</title>
        <path fill="none" stroke="black"
              d="M532.84,-62.25C541.33,-65.13 549.91,-68.14 558,-71.17 577.66,-78.51 598.5,-86.91 618.27,-95.18"/>
        <polygon fill="black" stroke="black" points="617,-98.44 627.57,-99.09 619.71,-91.99 617,-98.44"/>
    </g>
<!-- mrs.domain.model.user.gust.Gust -->
    <g id="node14" class="node">
        <title>mrs.domain.model.user.gust.Gust</title>
        <polygon fill="lemonchiffon" stroke="black" points="87,-699.17 19,-699.17 19,-661.17 87,-661.17 87,-699.17"/>
        <text text-anchor="middle" x="53" y="-683.97" font-family="Times New Roman,serif" font-size="14.00">ゲスト</text>
        <text text-anchor="middle" x="53" y="-668.97" font-family="Times New Roman,serif" font-size="14.00">Gust</text>
    </g>
<!-- mrs.domain.model.user.gust.Gust&#45;&gt;mrs.domain.model.auth.user.Password -->
    <g id="edge31" class="edge">
        <title>mrs.domain.model.user.gust.Gust&#45;&gt;mrs.domain.model.auth.user.Password</title>
        <path fill="none" stroke="black"
              d="M70.26,-699.2C86.43,-716.53 112.94,-740.91 142,-751.17 228.33,-781.65 266.66,-793.2 348,-751.17 398.54,-725.05 432.68,-667.26 451.7,-625.88"/>
        <polygon fill="black" stroke="black" points="454.99,-627.09 455.87,-616.53 448.6,-624.24 454.99,-627.09"/>
    </g>
<!-- mrs.domain.model.user.gust.Gust&#45;&gt;mrs.domain.model.auth.user.RoleName -->
    <g id="edge14" class="edge">
        <title>mrs.domain.model.user.gust.Gust&#45;&gt;mrs.domain.model.auth.user.RoleName</title>
        <path fill="none" stroke="black"
              d="M87.09,-684.7C155.66,-693.29 310.02,-708.32 348,-675.17 427.28,-605.98 325.1,-528.36 384,-441.17 385.49,-438.96 387.11,-436.84 388.83,-434.8"/>
        <polygon fill="black" stroke="black" points="391.61,-436.96 395.99,-427.31 386.55,-432.12 391.61,-436.96"/>
    </g>
<!-- mrs.domain.model.user.gust.Gust&#45;&gt;mrs.domain.model.auth.user.User -->
    <g id="edge4" class="edge">
        <title>mrs.domain.model.user.gust.Gust&#45;&gt;mrs.domain.model.auth.user.User</title>
        <path fill="none" stroke="black" d="M66.47,-661.14C96.17,-615.8 171.82,-500.34 214.15,-435.72"/>
        <polygon fill="black" stroke="black" points="217.09,-437.62 219.65,-427.34 211.24,-433.78 217.09,-437.62"/>
    </g>
<!-- mrs.domain.model.user.gust.Gust&#45;&gt;mrs.domain.model.auth.user.UserId -->
    <g id="edge19" class="edge">
        <title>mrs.domain.model.user.gust.Gust&#45;&gt;mrs.domain.model.auth.user.UserId</title>
        <path fill="none" stroke="black"
              d="M87.03,-697.73C146.48,-726.64 272.33,-775.2 348,-713.17 411.09,-661.44 335.38,-598.68 384,-533.17 384.29,-532.78 384.58,-532.39 384.88,-532"/>
        <polygon fill="black" stroke="black" points="387.67,-534.14 391.73,-524.35 382.45,-529.47 387.67,-534.14"/>
    </g>
<!-- mrs.domain.model.user.gust.Gust&#45;&gt;mrs.domain.model.auth.user.UserName -->
    <g id="edge23" class="edge">
        <title>mrs.domain.model.user.gust.Gust&#45;&gt;mrs.domain.model.auth.user.UserName</title>
        <path fill="none" stroke="black"
              d="M87.17,-678.15C160.21,-673.39 329.86,-660.46 348,-642.17 394.97,-594.8 350.1,-401.61 384,-344.17 387.79,-337.74 392.55,-331.79 397.86,-326.33"/>
        <polygon fill="black" stroke="black" points="400.54,-328.61 405.4,-319.19 395.73,-323.52 400.54,-328.61"/>
    </g>
<!-- mrs.domain.model.user.gust.Gust&#45;&gt;mrs.domain.model.contact.ContactPerson -->
    <g id="edge35" class="edge">
        <title>mrs.domain.model.user.gust.Gust&#45;&gt;mrs.domain.model.contact.ContactPerson</title>
        <path fill="none" stroke="black" d="M87.1,-665.54C104.94,-657.64 127.96,-647.47 150.83,-637.36"/>
        <polygon fill="black" stroke="black" points="152.53,-640.43 160.26,-633.19 149.7,-634.03 152.53,-640.43"/>
    </g>
<!-- mrs.domain.model.user.member.Member -->
    <g id="node15" class="node">
        <title>mrs.domain.model.user.member.Member</title>
        <polygon fill="lemonchiffon" stroke="black"
                 points="84.5,-409.17 21.5,-409.17 21.5,-371.17 84.5,-371.17 84.5,-409.17"/>
        <text text-anchor="middle" x="53" y="-393.97" font-family="Times New Roman,serif" font-size="14.00">会員</text>
        <text text-anchor="middle" x="53" y="-378.97" font-family="Times New Roman,serif" font-size="14.00">Member
        </text>
    </g>
<!-- mrs.domain.model.user.member.Member&#45;&gt;mrs.domain.model.auth.user.Password -->
    <g id="edge32" class="edge">
        <title>mrs.domain.model.user.member.Member&#45;&gt;mrs.domain.model.auth.user.Password</title>
        <path fill="none" stroke="black"
              d="M70.75,-409.46C87.26,-427.42 114.02,-453.8 142,-470.17 181.82,-493.46 292.12,-528.09 373.88,-552.04"/>
        <polygon fill="black" stroke="black" points="373.12,-555.46 383.7,-554.91 375.08,-548.74 373.12,-555.46"/>
    </g>
<!-- mrs.domain.model.user.member.Member&#45;&gt;mrs.domain.model.auth.user.RoleName -->
    <g id="edge15" class="edge">
        <title>mrs.domain.model.user.member.Member&#45;&gt;mrs.domain.model.auth.user.RoleName</title>
        <path fill="none" stroke="black"
              d="M81.93,-371.11C98.57,-360.93 120.57,-349.43 142,-344.17 230.91,-322.33 257.93,-327.75 348,-344.17 356.58,-345.73 365.33,-347.86 374.02,-350.36"/>
        <polygon fill="black" stroke="black" points="373.2,-353.77 383.79,-353.32 375.23,-347.07 373.2,-353.77"/>
    </g>
<!-- mrs.domain.model.user.member.Member&#45;&gt;mrs.domain.model.auth.user.User -->
    <g id="edge5" class="edge">
        <title>mrs.domain.model.user.member.Member&#45;&gt;mrs.domain.model.auth.user.User</title>
        <path fill="none" stroke="black" d="M84.53,-390.17C109.99,-390.17 147.15,-390.17 179.2,-390.17"/>
        <polygon fill="black" stroke="black" points="179.4,-393.67 189.4,-390.17 179.4,-386.67 179.4,-393.67"/>
    </g>
<!-- mrs.domain.model.user.member.Member&#45;&gt;mrs.domain.model.auth.user.UserId -->
    <g id="edge20" class="edge">
        <title>mrs.domain.model.user.member.Member&#45;&gt;mrs.domain.model.auth.user.UserId</title>
        <path fill="none" stroke="black"
              d="M84.67,-409.38C101.1,-418.84 122.02,-429.59 142,-436.17 217.76,-461.1 307.47,-473.98 373.9,-480.55"/>
        <polygon fill="black" stroke="black" points="373.65,-484.05 383.94,-481.52 374.32,-477.08 373.65,-484.05"/>
    </g>
<!-- mrs.domain.model.user.member.Member&#45;&gt;mrs.domain.model.auth.user.UserName -->
    <g id="edge24" class="edge">
        <title>mrs.domain.model.user.member.Member&#45;&gt;mrs.domain.model.auth.user.UserName</title>
        <path fill="none" stroke="black"
              d="M73.51,-371.14C90.25,-356.03 115.75,-335.75 142,-325.17 221.8,-292.99 320.52,-283.75 388.7,-281.62"/>
        <polygon fill="black" stroke="black" points="389.05,-285.11 398.95,-281.34 388.86,-278.11 389.05,-285.11"/>
    </g>
<!-- mrs.domain.model.user.member.Member&#45;&gt;mrs.domain.model.contact.ContactPerson -->
    <g id="edge36" class="edge">
        <title>mrs.domain.model.user.member.Member&#45;&gt;mrs.domain.model.contact.ContactPerson</title>
        <path fill="none" stroke="black"
              d="M63.15,-409.4C80.92,-446.15 120.22,-524.51 142,-545.17 144.91,-547.92 147.99,-550.56 151.21,-553.09"/>
        <polygon fill="black" stroke="black" points="149.31,-556.04 159.44,-559.12 153.45,-550.39 149.31,-556.04"/>
    </g>
<!-- mrs.domain.model.user.member.Member&#45;&gt;mrs.domain.model.reservation.reservation.Reservation -->
    <g id="edge10" class="edge">
        <title>mrs.domain.model.user.member.Member&#45;&gt;mrs.domain.model.reservation.reservation.Reservation</title>
        <path fill="none" stroke="black"
              d="M67.2,-370.9C86.89,-342.64 123.61,-291.92 142,-279.17 214.29,-229.02 311.73,-201.51 381.59,-187.18"/>
        <polygon fill="black" stroke="black" points="382.57,-190.55 391.69,-185.15 381.19,-183.68 382.57,-190.55"/>
    </g>
<!-- mrs.domain.model.user.staff.Staff -->
    <g id="node16" class="node">
        <title>mrs.domain.model.user.staff.Staff</title>
        <polygon fill="lemonchiffon" stroke="black" points="96,-306.17 10,-306.17 10,-268.17 96,-268.17 96,-306.17"/>
        <text text-anchor="middle" x="53" y="-290.97" font-family="Times New Roman,serif" font-size="14.00">スタッフ</text>
        <text text-anchor="middle" x="53" y="-275.97" font-family="Times New Roman,serif" font-size="14.00">Staff</text>
    </g>
<!-- mrs.domain.model.user.staff.Staff&#45;&gt;mrs.domain.model.auth.user.Password -->
    <g id="edge33" class="edge">
        <title>mrs.domain.model.user.staff.Staff&#45;&gt;mrs.domain.model.auth.user.Password</title>
        <path fill="none" stroke="black"
              d="M68.53,-306.37C79.46,-321.21 94.48,-342.48 106,-362.17 124.47,-393.73 112.63,-414.37 142,-436.17 216.46,-491.42 271.93,-416.15 348,-469.17 374.78,-487.83 360.68,-510.34 384,-533.17 384.79,-533.94 385.59,-534.7 386.4,-535.45"/>
        <polygon fill="black" stroke="black" points="384.2,-538.17 394.1,-541.95 388.72,-532.82 384.2,-538.17"/>
    </g>
<!-- mrs.domain.model.user.staff.Staff&#45;&gt;mrs.domain.model.auth.user.RoleName -->
    <g id="edge16" class="edge">
        <title>mrs.domain.model.user.staff.Staff&#45;&gt;mrs.domain.model.auth.user.RoleName</title>
        <path fill="none" stroke="black"
              d="M96.41,-287.89C154.5,-289.94 261.47,-297.54 348,-325.17 366.04,-330.93 384.54,-339.31 401.52,-348.15"/>
        <polygon fill="black" stroke="black" points="400.3,-351.47 410.77,-353.1 403.6,-345.3 400.3,-351.47"/>
    </g>
<!-- mrs.domain.model.user.staff.Staff&#45;&gt;mrs.domain.model.auth.user.User -->
    <g id="edge6" class="edge">
        <title>mrs.domain.model.user.staff.Staff&#45;&gt;mrs.domain.model.auth.user.User</title>
        <path fill="none" stroke="black"
              d="M85.05,-306.24C101.77,-316.32 122.83,-328.73 142,-339.17 154.24,-345.83 167.47,-352.69 180.21,-359.13"/>
        <polygon fill="black" stroke="black" points="178.87,-362.38 189.38,-363.74 182.01,-356.12 178.87,-362.38"/>
    </g>
<!-- mrs.domain.model.user.staff.Staff&#45;&gt;mrs.domain.model.auth.user.UserId -->
    <g id="edge21" class="edge">
        <title>mrs.domain.model.user.staff.Staff&#45;&gt;mrs.domain.model.auth.user.UserId</title>
        <path fill="none" stroke="black"
              d="M96.3,-299.69C110.71,-303.7 126.98,-307.93 142,-311.17 232.64,-330.73 275.8,-285.98 348,-344.17 382.19,-371.72 355.57,-402.71 384,-436.17 386.14,-438.68 388.43,-441.1 390.84,-443.43"/>
        <polygon fill="black" stroke="black" points="388.61,-446.13 398.41,-450.14 393.25,-440.89 388.61,-446.13"/>
    </g>
<!-- mrs.domain.model.user.staff.Staff&#45;&gt;mrs.domain.model.auth.user.UserName -->
    <g id="edge25" class="edge">
        <title>mrs.domain.model.user.staff.Staff&#45;&gt;mrs.domain.model.auth.user.UserName</title>
        <path fill="none" stroke="black"
              d="M65.79,-268.01C80.51,-246.13 107.96,-211.49 142,-197.17 226.39,-161.66 260.65,-169.74 348,-197.17 355.59,-199.55 384.18,-219.36 411.78,-239.26"/>
        <polygon fill="black" stroke="black" points="409.75,-242.11 419.9,-245.14 413.85,-236.44 409.75,-242.11"/>
    </g>
<!-- mrs.domain.model.user.staff.Staff&#45;&gt;mrs.domain.model.reservation.reservation.Reservation -->
    <g id="edge11" class="edge">
        <title>mrs.domain.model.user.staff.Staff&#45;&gt;mrs.domain.model.reservation.reservation.Reservation</title>
        <path fill="none" stroke="black"
              d="M54.67,-267.91C57.42,-222.42 71.38,-108.53 142,-60.17 217.54,-8.43 269.42,-13.18 348,-60.17 377.01,-77.51 360.07,-103.29 384,-127.17 384.78,-127.94 385.57,-128.71 386.38,-129.47"/>
        <polygon fill="black" stroke="black" points="384.16,-132.17 394.03,-136.03 388.71,-126.86 384.16,-132.17"/>
    </g>
</g>
</svg>
