<?xml version="1.0" encoding="UTF-8" standalone="no"?>
<!DOCTYPE svg PUBLIC "-//W3C//DTD SVG 1.1//EN"
        "http://www.w3.org/Graphics/SVG/1.1/DTD/svg11.dtd">
<!-- Generated by graphviz version 3.0.0 (20220226.1711)
 -->
<!-- Title: 集中ビジネスルールツリー図 Pages: 1 -->
<svg width="1259pt" height="401pt"
     viewBox="0.00 0.00 1259.00 401.00" xmlns="http://www.w3.org/2000/svg">
    <g id="graph0" class="graph" transform="scale(1 1) rotate(0) translate(4 397)">
        <title>集中ビジネスルールツリー図</title>
        <polygon fill="white" stroke="transparent" points="-4,4 -4,-397 1255,-397 1255,4 -4,4"/>
        <text text-anchor="middle" x="625.5" y="-7.8" font-family="Times New Roman,serif" font-size="14.00">
            集中ビジネスルールツリー図
        </text>
        <!-- mrs.domain.model.auth.RoleName -->
        <g id="node1" class="node">
            <title>mrs.domain.model.auth.RoleName</title>
            <polygon fill="#eedd82" stroke="black" points="463,-393 289,-393 289,-319 463,-319 463,-393"/>
            <text text-anchor="middle" x="376" y="-365" font-family="Times New Roman,serif" font-size="30.00">利用者区分
            </text>
            <text text-anchor="middle" x="376" y="-332" font-family="Times New Roman,serif" font-size="30.00">RoleName
            </text>
        </g>
        <!-- mrs.domain.model.auth.User -->
        <g id="node2" class="node">
            <title>mrs.domain.model.auth.User</title>
            <polygon fill="#eedd82" stroke="black" points="253,-263 142,-263 142,-189 253,-189 253,-263"/>
            <text text-anchor="middle" x="197.5" y="-235" font-family="Times New Roman,serif" font-size="30.00">利用者
            </text>
            <text text-anchor="middle" x="197.5" y="-202" font-family="Times New Roman,serif" font-size="30.00">User
            </text>
        </g>
        <!-- mrs.domain.model.auth.User&#45;&gt;mrs.domain.model.auth.RoleName -->
        <g id="edge4" class="edge">
            <title>mrs.domain.model.auth.User&#45;&gt;mrs.domain.model.auth.RoleName</title>
            <path fill="none" stroke="black"
                  d="M234.07,-263.02C250.04,-278.55 269.63,-296.18 289,-310 290.6,-311.14 292.24,-312.28 293.9,-313.4"/>
            <polygon fill="black" stroke="black" points="292.09,-316.4 302.38,-318.92 295.91,-310.54 292.09,-316.4"/>
        </g>
        <!-- mrs.domain.model.auth.UserId -->
        <g id="node4" class="node">
            <title>mrs.domain.model.auth.UserId</title>
            <polygon fill="#eedd82" stroke="black" points="463,-301 289,-301 289,-227 463,-227 463,-301"/>
            <text text-anchor="middle" x="376" y="-273" font-family="Times New Roman,serif" font-size="30.00">利用者番号
            </text>
            <text text-anchor="middle" x="376" y="-240" font-family="Times New Roman,serif" font-size="30.00">UserId
            </text>
        </g>
        <!-- mrs.domain.model.auth.User&#45;&gt;mrs.domain.model.auth.UserId -->
        <g id="edge8" class="edge">
            <title>mrs.domain.model.auth.User&#45;&gt;mrs.domain.model.auth.UserId</title>
            <path fill="none" stroke="black" d="M253.38,-237.82C261.54,-239.57 270.15,-241.43 278.86,-243.3"/>
            <polygon fill="black" stroke="black" points="278.21,-246.74 288.72,-245.42 279.68,-239.9 278.21,-246.74"/>
        </g>
        <!-- mrs.domain.model.reservation.reservation.Reservation -->
        <g id="node5" class="node">
            <title>mrs.domain.model.reservation.reservation.Reservation</title>
            <polygon fill="#eedd82" stroke="black" points="455,-97 297,-97 297,-23 455,-23 455,-97"/>
            <text text-anchor="middle" x="376" y="-69" font-family="Times New Roman,serif" font-size="30.00">予約</text>
            <text text-anchor="middle" x="376" y="-36" font-family="Times New Roman,serif" font-size="30.00">
                Reservation
            </text>
        </g>
        <!-- mrs.domain.model.auth.User&#45;&gt;mrs.domain.model.reservation.reservation.Reservation -->
        <g id="edge1" class="edge">
            <title>mrs.domain.model.auth.User&#45;&gt;mrs.domain.model.reservation.reservation.Reservation</title>
            <path fill="none" stroke="black" d="M215.93,-188.88C231.12,-162.73 255.01,-128.23 288.8,-97.74"/>
            <polygon fill="black" stroke="black" points="291.4,-100.12 296.64,-90.9 286.8,-94.84 291.4,-100.12"/>
        </g>
        <!-- mrs.domain.model.auth.UserDetailsImpl -->
        <g id="node3" class="node">
            <title>mrs.domain.model.auth.UserDetailsImpl</title>
            <polygon fill="lemonchiffon" stroke="black" points="106,-310 0,-310 0,-272 106,-272 106,-310"/>
            <text text-anchor="middle" x="53" y="-294.8" font-family="Times New Roman,serif" font-size="14.00">利用者
            </text>
            <text text-anchor="middle" x="53" y="-279.8" font-family="Times New Roman,serif" font-size="14.00">
                UserDetailsImpl
            </text>
        </g>
        <!-- mrs.domain.model.auth.UserDetailsImpl&#45;&gt;mrs.domain.model.auth.RoleName -->
        <g id="edge5" class="edge">
            <title>mrs.domain.model.auth.UserDetailsImpl&#45;&gt;mrs.domain.model.auth.RoleName</title>
            <path fill="none" stroke="black" d="M106.29,-301.59C152.88,-311.02 222.24,-325.07 278.82,-336.52"/>
            <polygon fill="black" stroke="black" points="278.37,-340 288.87,-338.56 279.76,-333.14 278.37,-340"/>
        </g>
        <!-- mrs.domain.model.auth.UserDetailsImpl&#45;&gt;mrs.domain.model.auth.User -->
        <g id="edge6" class="edge">
            <title>mrs.domain.model.auth.UserDetailsImpl&#45;&gt;mrs.domain.model.auth.User</title>
            <path fill="none" stroke="black" d="M95.98,-271.85C107.43,-266.63 120.1,-260.85 132.48,-255.2"/>
            <polygon fill="black" stroke="black" points="134.21,-258.26 141.86,-250.92 131.31,-251.89 134.21,-258.26"/>
        </g>
        <!-- mrs.domain.model.auth.UserDetailsImpl&#45;&gt;mrs.domain.model.auth.UserId -->
        <g id="edge9" class="edge">
            <title>mrs.domain.model.auth.UserDetailsImpl&#45;&gt;mrs.domain.model.auth.UserId</title>
            <path fill="none" stroke="black" d="M106.29,-286.6C152.88,-282.68 222.24,-276.85 278.82,-272.09"/>
            <polygon fill="black" stroke="black" points="279.2,-275.57 288.87,-271.24 278.61,-268.6 279.2,-275.57"/>
        </g>
        <!-- mrs.domain.model.reservation.reservation.Reservation&#45;&gt;mrs.domain.model.auth.User -->
        <g id="edge7" class="edge">
            <title>mrs.domain.model.reservation.reservation.Reservation&#45;&gt;mrs.domain.model.auth.User</title>
            <path fill="none" stroke="black"
                  d="M314.08,-97.15C305.25,-102.56 296.59,-108.5 289,-115 267.04,-133.8 247.13,-158.8 231.62,-180.39"/>
            <polygon fill="black" stroke="black" points="228.6,-178.6 225.68,-188.78 234.31,-182.64 228.6,-178.6"/>
        </g>
        <!-- mrs.domain.model.reservation.room.ReservableRoom -->
        <g id="node8" class="node">
            <title>mrs.domain.model.reservation.room.ReservableRoom</title>
            <polygon fill="#eedd82" stroke="black" points="736,-162 499,-162 499,-88 736,-88 736,-162"/>
            <text text-anchor="middle" x="617.5" y="-134" font-family="Times New Roman,serif" font-size="30.00">
                予約可能会議室
            </text>
            <text text-anchor="middle" x="617.5" y="-101" font-family="Times New Roman,serif" font-size="30.00">
                ReservableRoom
            </text>
        </g>
        <!-- mrs.domain.model.reservation.reservation.Reservation&#45;&gt;mrs.domain.model.reservation.room.ReservableRoom -->
        <g id="edge12" class="edge">
            <title>mrs.domain.model.reservation.reservation.Reservation&#45;&gt;mrs.domain.model.reservation.room.ReservableRoom</title>
            <path fill="none" stroke="black" d="M455.09,-74.82C467.83,-78.04 481.29,-81.57 494.79,-85.22"/>
            <polygon fill="black" stroke="black" points="494.04,-88.64 504.61,-87.9 495.88,-81.89 494.04,-88.64"/>
        </g>
        <!-- mrs.domain.model.reservation.room.ReservableRoomId -->
        <g id="node9" class="node">
            <title>mrs.domain.model.reservation.room.ReservableRoomId</title>
            <polygon fill="#eedd82" stroke="black" points="1041,-162 772,-162 772,-88 1041,-88 1041,-162"/>
            <text text-anchor="middle" x="906.5" y="-134" font-family="Times New Roman,serif" font-size="30.00">
                予約可能会議室ID
            </text>
            <text text-anchor="middle" x="906.5" y="-101" font-family="Times New Roman,serif" font-size="30.00">
                ReservableRoomId
            </text>
        </g>
        <!-- mrs.domain.model.reservation.reservation.Reservation&#45;&gt;mrs.domain.model.reservation.room.ReservableRoomId -->
        <g id="edge15" class="edge">
            <title>mrs.domain.model.reservation.reservation.Reservation&#45;&gt;mrs.domain.model.reservation.room.ReservableRoomId</title>
            <path fill="none" stroke="black"
                  d="M455.24,-59.38C528.3,-59.93 640.17,-63.64 736,-79 747.41,-80.83 759.15,-83.12 770.88,-85.71"/>
            <polygon fill="black" stroke="black" points="770.2,-89.14 780.73,-87.94 771.75,-82.31 770.2,-89.14"/>
        </g>
        <!-- mrs.domain.model.reservation.reservation.ReservationList -->
        <g id="node6" class="node">
            <title>mrs.domain.model.reservation.reservation.ReservationList</title>
            <polygon fill="lemonchiffon" stroke="black" points="249.5,-79 145.5,-79 145.5,-41 249.5,-41 249.5,-79"/>
            <text text-anchor="middle" x="197.5" y="-63.8" font-family="Times New Roman,serif" font-size="14.00">予約一覧
            </text>
            <text text-anchor="middle" x="197.5" y="-48.8" font-family="Times New Roman,serif" font-size="14.00">
                ReservationList
            </text>
        </g>
        <!-- mrs.domain.model.reservation.reservation.ReservationList&#45;&gt;mrs.domain.model.reservation.reservation.Reservation -->
        <g id="edge2" class="edge">
            <title>mrs.domain.model.reservation.reservation.ReservationList&#45;&gt;mrs.domain.model.reservation.reservation.Reservation</title>
            <path fill="none" stroke="black" d="M249.55,-60C261.2,-60 273.91,-60 286.62,-60"/>
            <polygon fill="black" stroke="black" points="286.79,-63.5 296.79,-60 286.79,-56.5 286.79,-63.5"/>
        </g>
        <!-- mrs.domain.model.reservation.room.MeetingRoom -->
        <g id="node7" class="node">
            <title>mrs.domain.model.reservation.room.MeetingRoom</title>
            <polygon fill="lemonchiffon" stroke="black" points="424,-209 328,-209 328,-171 424,-171 424,-209"/>
            <text text-anchor="middle" x="376" y="-193.8" font-family="Times New Roman,serif" font-size="14.00">会議室
            </text>
            <text text-anchor="middle" x="376" y="-178.8" font-family="Times New Roman,serif" font-size="14.00">
                MeetingRoom
            </text>
        </g>
        <!-- mrs.domain.model.reservation.room.MeetingRoom&#45;&gt;mrs.domain.model.reservation.room.ReservableRoom -->
        <g id="edge13" class="edge">
            <title>mrs.domain.model.reservation.room.MeetingRoom&#45;&gt;mrs.domain.model.reservation.room.ReservableRoom</title>
            <path fill="none" stroke="black" d="M424.03,-177.24C442.92,-172.11 465.7,-165.93 488.88,-159.64"/>
            <polygon fill="black" stroke="black" points="490.09,-162.93 498.83,-156.94 488.26,-156.18 490.09,-162.93"/>
        </g>
        <!-- mrs.domain.model.reservation.room.RoomId -->
        <g id="node11" class="node">
            <title>mrs.domain.model.reservation.room.RoomId</title>
            <polygon fill="#eedd82" stroke="black" points="1251,-194 1077,-194 1077,-120 1251,-120 1251,-194"/>
            <text text-anchor="middle" x="1164" y="-166" font-family="Times New Roman,serif" font-size="30.00">会議室番号
            </text>
            <text text-anchor="middle" x="1164" y="-133" font-family="Times New Roman,serif" font-size="30.00">RoomId
            </text>
        </g>
        <!-- mrs.domain.model.reservation.room.MeetingRoom&#45;&gt;mrs.domain.model.reservation.room.RoomId -->
        <g id="edge10" class="edge">
            <title>mrs.domain.model.reservation.room.MeetingRoom&#45;&gt;mrs.domain.model.reservation.room.RoomId
            </title>
            <path fill="none" stroke="black"
                  d="M424.17,-190.04C533,-189.82 810.08,-187.52 1041,-171 1049.33,-170.4 1057.97,-169.66 1066.62,-168.83"/>
            <polygon fill="black" stroke="black"
                     points="1067.17,-172.3 1076.77,-167.83 1066.48,-165.33 1067.17,-172.3"/>
        </g>
        <!-- mrs.domain.model.reservation.room.ReservableRoom&#45;&gt;mrs.domain.model.reservation.reservation.Reservation -->
        <g id="edge3" class="edge">
            <title>mrs.domain.model.reservation.room.ReservableRoom&#45;&gt;mrs.domain.model.reservation.reservation.Reservation</title>
            <path fill="none" stroke="black" d="M498.97,-99.85C487.46,-96.74 475.92,-93.53 464.77,-90.35"/>
            <polygon fill="black" stroke="black" points="465.67,-86.97 455.09,-87.57 463.73,-93.7 465.67,-86.97"/>
        </g>
        <!-- mrs.domain.model.reservation.room.ReservableRoom&#45;&gt;mrs.domain.model.reservation.room.ReservableRoomId -->
        <g id="edge16" class="edge">
            <title>mrs.domain.model.reservation.room.ReservableRoom&#45;&gt;mrs.domain.model.reservation.room.ReservableRoomId</title>
            <path fill="none" stroke="black" d="M736.06,-125C744.52,-125 753.1,-125 761.68,-125"/>
            <polygon fill="black" stroke="black" points="761.75,-128.5 771.75,-125 761.75,-121.5 761.75,-128.5"/>
        </g>
        <!-- mrs.domain.model.reservation.room.ReservableRoomId&#45;&gt;mrs.domain.model.reservation.room.RoomId -->
        <g id="edge11" class="edge">
            <title>mrs.domain.model.reservation.room.ReservableRoomId&#45;&gt;mrs.domain.model.reservation.room.RoomId
            </title>
            <path fill="none" stroke="black" d="M1041.24,-141.75C1049.82,-142.82 1058.37,-143.9 1066.72,-144.94"/>
            <polygon fill="black" stroke="black"
                     points="1066.45,-148.44 1076.81,-146.21 1067.32,-141.49 1066.45,-148.44"/>
        </g>
        <!-- mrs.domain.model.reservation.room.ReservableRoomList -->
        <g id="node10" class="node">
            <title>mrs.domain.model.reservation.room.ReservableRoomList</title>
            <polygon fill="lemonchiffon" stroke="black" points="462,-153 290,-153 290,-115 462,-115 462,-153"/>
            <text text-anchor="middle" x="376" y="-137.8" font-family="Times New Roman,serif" font-size="14.00">
                予約可能会議室一覧
            </text>
            <text text-anchor="middle" x="376" y="-122.8" font-family="Times New Roman,serif" font-size="14.00">
                ReservableRoomList
            </text>
        </g>
        <!-- mrs.domain.model.reservation.room.ReservableRoomList&#45;&gt;mrs.domain.model.reservation.room.ReservableRoom -->
        <g id="edge14" class="edge">
            <title>mrs.domain.model.reservation.room.ReservableRoomList&#45;&gt;mrs.domain.model.reservation.room.ReservableRoom</title>
            <path fill="none" stroke="black" d="M462.11,-130.8C470.81,-130.47 479.77,-130.14 488.79,-129.8"/>
            <polygon fill="black" stroke="black" points="489.13,-133.29 498.99,-129.42 488.86,-126.29 489.13,-133.29"/>
        </g>
    </g>
</svg>
