<?xml version="1.0" encoding="UTF-8" standalone="no"?>
<!DOCTYPE svg PUBLIC "-//W3C//DTD SVG 1.1//EN"
        "http://www.w3.org/Graphics/SVG/1.1/DTD/svg11.dtd">
<!-- Generated by graphviz version 3.0.0 (20220226.1711)
 -->
<!-- Title: ビジネスルール関連図 Pages: 1 -->
<svg width="1260pt" height="431pt"
     viewBox="0.00 0.00 1260.00 431.00" xmlns="http://www.w3.org/2000/svg">
    <g id="graph0" class="graph" transform="scale(1 1) rotate(0) translate(4 427)">
        <title>ビジネスルール関連図</title>
        <polygon fill="white" stroke="transparent" points="-4,4 -4,-427 1256,-427 1256,4 -4,4"/>
        <text text-anchor="middle" x="626" y="-7.8" font-family="Times New Roman,serif" font-size="14.00">ビジネスルール関連図
        </text>
        <g id="clust2" class="cluster">
            <title>cluster_mrs.domain.model.auth.member</title>
            <polygon fill="lemonchiffon" stroke="#eedd82" stroke-width="2"
                     points="350,-264 350,-415 452,-415 452,-264 350,-264"/>
            <text text-anchor="middle" x="401" y="-399.8" font-family="Times New Roman,serif" font-size="14.00">
                auth.member
            </text>
        </g>
        <g id="clust3" class="cluster">
            <title>cluster_mrs.domain.model.auth.user</title>
            <polygon fill="lemonchiffon" stroke="#eedd82" stroke-width="2"
                     points="8,-179 8,-415 342,-415 342,-179 8,-179"/>
            <text text-anchor="middle" x="175" y="-399.8" font-family="Times New Roman,serif" font-size="14.00">
                auth.user
            </text>
        </g>
        <g id="clust4" class="cluster">
            <title>cluster_mrs.domain.model.reservation.reservation</title>
            <polygon fill="lemonchiffon" stroke="#eedd82" stroke-width="2"
                     points="718,-31 718,-415 1116,-415 1116,-31 718,-31"/>
            <text text-anchor="middle" x="917" y="-399.8" font-family="Times New Roman,serif" font-size="14.00">
                reservation.reservation
            </text>
        </g>
        <g id="clust5" class="cluster">
            <title>cluster_mrs.domain.model.reservation.room</title>
            <polygon fill="lemonchiffon" stroke="#eedd82" stroke-width="2"
                     points="1124,-31 1124,-256 1244,-256 1244,-31 1124,-31"/>
            <text text-anchor="middle" x="1184" y="-240.8" font-family="Times New Roman,serif" font-size="14.00">
                reservation.room
            </text>
        </g>
        <g id="clust1" class="cluster">
            <title>cluster_mrs.domain.model.auth.administrator</title>
            <polygon fill="lemonchiffon" stroke="#eedd82" stroke-width="2"
                     points="566,-338 566,-415 682,-415 682,-338 566,-338"/>
            <text text-anchor="middle" x="624" y="-399.8" font-family="Times New Roman,serif" font-size="14.00">
                auth.administrator
            </text>
        </g>
        <!-- mrs.domain.model.auth.administrator.Administrator -->
        <g id="node1" class="node">
            <title>mrs.domain.model.auth.administrator.Administrator</title>
            <polygon fill="#eedd82" stroke="black" points="670.5,-384 577.5,-384 577.5,-346 670.5,-346 670.5,-384"/>
            <text text-anchor="middle" x="624" y="-368.8" font-family="Times New Roman,serif" font-size="14.00">管理者
            </text>
            <text text-anchor="middle" x="624" y="-353.8" font-family="Times New Roman,serif" font-size="14.00">
                Administrator
            </text>
        </g>
        <!-- mrs.domain.model.auth.user.RoleName -->
        <g id="node4" class="node">
            <title>mrs.domain.model.auth.user.RoleName</title>
            <polygon fill="#eedd82" stroke="black" points="119.5,-225 16.5,-225 16.5,-187 119.5,-187 119.5,-225"/>
            <text text-anchor="middle" x="68" y="-209.8" font-family="Times New Roman,serif" font-size="14.00">利用者区分
            </text>
            <text text-anchor="middle" x="68" y="-194.8" font-family="Times New Roman,serif" font-size="14.00">
                RoleName
            </text>
        </g>
        <!-- mrs.domain.model.auth.administrator.Administrator&#45;&gt;mrs.domain.model.auth.user.RoleName -->
        <g id="edge1" class="edge">
            <title>mrs.domain.model.auth.administrator.Administrator&#45;&gt;mrs.domain.model.auth.user.RoleName</title>
            <path fill="none" stroke="black"
                  d="M604.14,-345.66C576.65,-321.62 524.34,-280.56 471,-264 434.59,-252.69 163.76,-269.22 128,-256 114.33,-250.95 101.48,-241.39 91.21,-232.05"/>
            <polygon fill="black" stroke="black" points="93.52,-229.42 83.88,-225.03 88.68,-234.47 93.52,-229.42"/>
        </g>
        <!-- mrs.domain.model.auth.user.User -->
        <g id="node5" class="node">
            <title>mrs.domain.model.auth.user.User</title>
            <polygon fill="#eedd82" stroke="black" points="330,-310 262,-310 262,-272 330,-272 330,-310"/>
            <text text-anchor="middle" x="296" y="-294.8" font-family="Times New Roman,serif" font-size="14.00">利用者
            </text>
            <text text-anchor="middle" x="296" y="-279.8" font-family="Times New Roman,serif" font-size="14.00">User
            </text>
        </g>
        <!-- mrs.domain.model.auth.administrator.Administrator&#45;&gt;mrs.domain.model.auth.user.User -->
        <g id="edge2" class="edge">
            <title>mrs.domain.model.auth.administrator.Administrator&#45;&gt;mrs.domain.model.auth.user.User</title>
            <path fill="none" stroke="black"
                  d="M577.26,-357.17C521.6,-348.53 426.11,-332.06 346,-310 344.07,-309.47 342.1,-308.9 340.12,-308.29"/>
            <polygon fill="black" stroke="black" points="340.8,-304.84 330.2,-305.1 338.65,-311.5 340.8,-304.84"/>
        </g>
        <!-- mrs.domain.model.auth.user.UserId -->
        <g id="node7" class="node">
            <title>mrs.domain.model.auth.user.UserId</title>
            <polygon fill="#eedd82" stroke="black" points="240.5,-225 137.5,-225 137.5,-187 240.5,-187 240.5,-225"/>
            <text text-anchor="middle" x="189" y="-209.8" font-family="Times New Roman,serif" font-size="14.00">利用者番号
            </text>
            <text text-anchor="middle" x="189" y="-194.8" font-family="Times New Roman,serif" font-size="14.00">UserId
            </text>
        </g>
        <!-- mrs.domain.model.auth.administrator.Administrator&#45;&gt;mrs.domain.model.auth.user.UserId -->
        <g id="edge3" class="edge">
            <title>mrs.domain.model.auth.administrator.Administrator&#45;&gt;mrs.domain.model.auth.user.UserId</title>
            <path fill="none" stroke="black"
                  d="M618.62,-345.64C610.6,-321.98 593.01,-281.78 562,-264 531.82,-246.69 281.62,-268.1 249,-256 235.33,-250.93 222.49,-241.37 212.21,-232.03"/>
            <polygon fill="black" stroke="black" points="214.53,-229.41 204.89,-225.01 209.69,-234.46 214.53,-229.41"/>
        </g>
        <!-- mrs.domain.model.auth.user.UserName -->
        <g id="node8" class="node">
            <title>mrs.domain.model.auth.user.UserName</title>
            <polygon fill="#eedd82" stroke="black" points="333.5,-225 258.5,-225 258.5,-187 333.5,-187 333.5,-225"/>
            <text text-anchor="middle" x="296" y="-209.8" font-family="Times New Roman,serif" font-size="14.00">氏名
            </text>
            <text text-anchor="middle" x="296" y="-194.8" font-family="Times New Roman,serif" font-size="14.00">
                UserName
            </text>
        </g>
        <!-- mrs.domain.model.auth.administrator.Administrator&#45;&gt;mrs.domain.model.auth.user.UserName -->
        <g id="edge4" class="edge">
            <title>mrs.domain.model.auth.administrator.Administrator&#45;&gt;mrs.domain.model.auth.user.UserName</title>
            <path fill="none" stroke="black"
                  d="M634.01,-345.81C644.62,-323.81 657.38,-286.87 638,-264 600.84,-220.13 428.7,-209.99 343.72,-207.67"/>
            <polygon fill="black" stroke="black" points="343.64,-204.17 333.56,-207.42 343.47,-211.17 343.64,-204.17"/>
        </g>
        <!-- mrs.domain.model.reservation.reservation.Reservation -->
        <g id="node12" class="node">
            <title>mrs.domain.model.reservation.reservation.Reservation</title>
            <polygon fill="#eedd82" stroke="black" points="907.5,-225 824.5,-225 824.5,-187 907.5,-187 907.5,-225"/>
            <text text-anchor="middle" x="866" y="-209.8" font-family="Times New Roman,serif" font-size="14.00">予約
            </text>
            <text text-anchor="middle" x="866" y="-194.8" font-family="Times New Roman,serif" font-size="14.00">
                Reservation
            </text>
        </g>
        <!-- mrs.domain.model.auth.administrator.Administrator&#45;&gt;mrs.domain.model.reservation.reservation.Reservation -->
        <g id="edge5" class="edge">
            <title>mrs.domain.model.auth.administrator.Administrator&#45;&gt;mrs.domain.model.reservation.reservation.Reservation</title>
            <path fill="none" stroke="black"
                  d="M655.08,-345.92C672.54,-335.63 694.65,-322.35 714,-310 754.97,-283.86 801.05,-252.32 831.62,-231.09"/>
            <polygon fill="black" stroke="black" points="833.99,-233.7 840.2,-225.12 829.99,-227.96 833.99,-233.7"/>
        </g>
        <!-- mrs.domain.model.auth.member.Member -->
        <g id="node2" class="node">
            <title>mrs.domain.model.auth.member.Member</title>
            <polygon fill="#eedd82" stroke="black" points="443.5,-384 380.5,-384 380.5,-346 443.5,-346 443.5,-384"/>
            <text text-anchor="middle" x="412" y="-368.8" font-family="Times New Roman,serif" font-size="14.00">会員
            </text>
            <text text-anchor="middle" x="412" y="-353.8" font-family="Times New Roman,serif" font-size="14.00">Member
            </text>
        </g>
        <!-- mrs.domain.model.auth.member.MemberId -->
        <g id="node3" class="node">
            <title>mrs.domain.model.auth.member.MemberId</title>
            <polygon fill="#eedd82" stroke="black" points="444,-310 358,-310 358,-272 444,-272 444,-310"/>
            <text text-anchor="middle" x="401" y="-294.8" font-family="Times New Roman,serif" font-size="14.00">会員番号
            </text>
            <text text-anchor="middle" x="401" y="-279.8" font-family="Times New Roman,serif" font-size="14.00">
                MemberId
            </text>
        </g>
        <!-- mrs.domain.model.auth.member.Member&#45;&gt;mrs.domain.model.auth.member.MemberId -->
        <g id="edge6" class="edge">
            <title>mrs.domain.model.auth.member.Member&#45;&gt;mrs.domain.model.auth.member.MemberId</title>
            <path fill="none" stroke="black" d="M409.22,-345.83C408.05,-338.13 406.65,-328.97 405.34,-320.42"/>
            <polygon fill="black" stroke="black" points="408.78,-319.77 403.81,-310.41 401.86,-320.83 408.78,-319.77"/>
        </g>
        <!-- mrs.domain.model.auth.member.Member&#45;&gt;mrs.domain.model.auth.user.RoleName -->
        <g id="edge7" class="edge">
            <title>mrs.domain.model.auth.member.Member&#45;&gt;mrs.domain.model.auth.user.RoleName</title>
            <path fill="none" stroke="black"
                  d="M429.97,-345.84C449.59,-323.87 475.41,-286.97 453,-264 440.39,-251.07 144.94,-262.27 128,-256 114.33,-250.94 101.48,-241.38 91.21,-232.04"/>
            <polygon fill="black" stroke="black" points="93.53,-229.41 83.88,-225.02 88.68,-234.47 93.53,-229.41"/>
        </g>
        <!-- mrs.domain.model.auth.member.Member&#45;&gt;mrs.domain.model.auth.user.User -->
        <g id="edge8" class="edge">
            <title>mrs.domain.model.auth.member.Member&#45;&gt;mrs.domain.model.auth.user.User</title>
            <path fill="none" stroke="black" d="M382.73,-345.83C367.89,-336.62 349.7,-325.33 333.81,-315.47"/>
            <polygon fill="black" stroke="black" points="335.6,-312.46 325.26,-310.16 331.91,-318.41 335.6,-312.46"/>
        </g>
        <!-- mrs.domain.model.auth.member.Member&#45;&gt;mrs.domain.model.auth.user.UserId -->
        <g id="edge9" class="edge">
            <title>mrs.domain.model.auth.member.Member&#45;&gt;mrs.domain.model.auth.user.UserId</title>
            <path fill="none" stroke="black"
                  d="M443.61,-349.76C459.42,-340.8 477.07,-327.58 486,-310 495.26,-291.77 500.21,-278.7 486,-264 476.84,-254.53 261.33,-260.63 249,-256 235.56,-250.95 222.89,-241.59 212.69,-232.39"/>
            <polygon fill="black" stroke="black" points="215.06,-229.81 205.4,-225.46 210.24,-234.89 215.06,-229.81"/>
        </g>
        <!-- mrs.domain.model.auth.member.Member&#45;&gt;mrs.domain.model.auth.user.UserName -->
        <g id="edge10" class="edge">
            <title>mrs.domain.model.auth.member.Member&#45;&gt;mrs.domain.model.auth.user.UserName</title>
            <path fill="none" stroke="black"
                  d="M443.53,-358.33C470.1,-351.7 506.49,-337.88 524,-310 534.87,-292.69 536.58,-280.11 524,-264 502.04,-235.88 403.68,-219.58 343.55,-212.07"/>
            <polygon fill="black" stroke="black" points="343.87,-208.58 333.53,-210.86 343.03,-215.53 343.87,-208.58"/>
        </g>
        <!-- mrs.domain.model.auth.member.Member&#45;&gt;mrs.domain.model.reservation.reservation.Reservation -->
        <g id="edge11" class="edge">
            <title>mrs.domain.model.auth.member.Member&#45;&gt;mrs.domain.model.reservation.reservation.Reservation
            </title>
            <path fill="none" stroke="black" d="M443.56,-353.08C520.86,-326.35 720.2,-257.42 814.77,-224.72"/>
            <polygon fill="black" stroke="black" points="816.09,-227.96 824.4,-221.39 813.81,-221.35 816.09,-227.96"/>
        </g>
        <!-- mrs.domain.model.auth.user.User&#45;&gt;mrs.domain.model.auth.user.RoleName -->
        <g id="edge12" class="edge">
            <title>mrs.domain.model.auth.user.User&#45;&gt;mrs.domain.model.auth.user.RoleName</title>
            <path fill="none" stroke="black"
                  d="M261.98,-287.93C226.93,-284.72 171.44,-276.57 128,-256 115.34,-250 103.05,-240.78 92.92,-231.94"/>
            <polygon fill="black" stroke="black" points="95.05,-229.15 85.3,-225 90.34,-234.32 95.05,-229.15"/>
        </g>
        <!-- mrs.domain.model.auth.user.User&#45;&gt;mrs.domain.model.auth.user.UserId -->
        <g id="edge13" class="edge">
            <title>mrs.domain.model.auth.user.User&#45;&gt;mrs.domain.model.auth.user.UserId</title>
            <path fill="none" stroke="black"
                  d="M270.43,-271.92C263.42,-266.85 255.87,-261.28 249,-256 238.84,-248.19 227.93,-239.4 218.23,-231.44"/>
            <polygon fill="black" stroke="black" points="220.36,-228.66 210.42,-225 215.9,-234.06 220.36,-228.66"/>
        </g>
        <!-- mrs.domain.model.auth.user.User&#45;&gt;mrs.domain.model.auth.user.UserName -->
        <g id="edge14" class="edge">
            <title>mrs.domain.model.auth.user.User&#45;&gt;mrs.domain.model.auth.user.UserName</title>
            <path fill="none" stroke="black" d="M296,-271.99C296,-261.3 296,-247.5 296,-235.37"/>
            <polygon fill="black" stroke="black" points="299.5,-235.26 296,-225.26 292.5,-235.26 299.5,-235.26"/>
        </g>
        <!-- mrs.domain.model.auth.user.User&#45;&gt;mrs.domain.model.reservation.reservation.Reservation -->
        <g id="edge15" class="edge">
            <title>mrs.domain.model.auth.user.User&#45;&gt;mrs.domain.model.reservation.reservation.Reservation</title>
            <path fill="none" stroke="black"
                  d="M330.06,-274.47C338.08,-270.44 346.67,-266.53 355,-264 517.73,-214.67 720.58,-207.01 814.3,-206.45"/>
            <polygon fill="black" stroke="black" points="814.38,-209.95 824.37,-206.42 814.36,-202.95 814.38,-209.95"/>
        </g>
        <!-- mrs.domain.model.auth.user.UserDetailsImpl -->
        <g id="node6" class="node">
            <title>mrs.domain.model.auth.user.UserDetailsImpl</title>
            <polygon fill="#eedd82" stroke="black" points="242,-384 136,-384 136,-346 242,-346 242,-384"/>
            <text text-anchor="middle" x="189" y="-368.8" font-family="Times New Roman,serif" font-size="14.00">利用者
            </text>
            <text text-anchor="middle" x="189" y="-353.8" font-family="Times New Roman,serif" font-size="14.00">
                UserDetailsImpl
            </text>
        </g>
        <!-- mrs.domain.model.auth.user.UserDetailsImpl&#45;&gt;mrs.domain.model.auth.user.RoleName -->
        <g id="edge16" class="edge">
            <title>mrs.domain.model.auth.user.UserDetailsImpl&#45;&gt;mrs.domain.model.auth.user.RoleName</title>
            <path fill="none" stroke="black" d="M175.12,-345.99C153.81,-318.34 112.91,-265.28 88.28,-233.31"/>
            <polygon fill="black" stroke="black" points="90.97,-231.07 82.09,-225.28 85.42,-235.34 90.97,-231.07"/>
        </g>
        <!-- mrs.domain.model.auth.user.UserDetailsImpl&#45;&gt;mrs.domain.model.auth.user.User -->
        <g id="edge17" class="edge">
            <title>mrs.domain.model.auth.user.UserDetailsImpl&#45;&gt;mrs.domain.model.auth.user.User</title>
            <path fill="none" stroke="black" d="M216,-345.83C229.43,-336.79 245.85,-325.75 260.3,-316.02"/>
            <polygon fill="black" stroke="black" points="262.67,-318.65 269.01,-310.16 258.76,-312.84 262.67,-318.65"/>
        </g>
        <!-- mrs.domain.model.auth.user.UserDetailsImpl&#45;&gt;mrs.domain.model.auth.user.UserId -->
        <g id="edge18" class="edge">
            <title>mrs.domain.model.auth.user.UserDetailsImpl&#45;&gt;mrs.domain.model.auth.user.UserId</title>
            <path fill="none" stroke="black" d="M189,-345.99C189,-318.93 189,-267.52 189,-235.38"/>
            <polygon fill="black" stroke="black" points="192.5,-235.28 189,-225.28 185.5,-235.28 192.5,-235.28"/>
        </g>
        <!-- mrs.domain.model.reservation.reservation.ReservableRoom -->
        <g id="node9" class="node">
            <title>mrs.domain.model.reservation.reservation.ReservableRoom</title>
            <polygon fill="#eedd82" stroke="black" points="1081.5,-310 944.5,-310 944.5,-272 1081.5,-272 1081.5,-310"/>
            <text text-anchor="middle" x="1013" y="-294.8" font-family="Times New Roman,serif" font-size="14.00">
                予約可能会議室
            </text>
            <text text-anchor="middle" x="1013" y="-279.8" font-family="Times New Roman,serif" font-size="14.00">
                ReservableRoom
            </text>
        </g>
        <!-- mrs.domain.model.reservation.reservation.ReservableRoomId -->
        <g id="node10" class="node">
            <title>mrs.domain.model.reservation.reservation.ReservableRoomId</title>
            <polygon fill="#eedd82" stroke="black" points="1108,-151 956,-151 956,-113 1108,-113 1108,-151"/>
            <text text-anchor="middle" x="1032" y="-135.8" font-family="Times New Roman,serif" font-size="14.00">
                予約可能会議室ID
            </text>
            <text text-anchor="middle" x="1032" y="-120.8" font-family="Times New Roman,serif" font-size="14.00">
                ReservableRoomId
            </text>
        </g>
        <!-- mrs.domain.model.reservation.reservation.ReservableRoom&#45;&gt;mrs.domain.model.reservation.reservation.ReservableRoomId -->
        <g id="edge19" class="edge">
            <title>mrs.domain.model.reservation.reservation.ReservableRoom&#45;&gt;mrs.domain.model.reservation.reservation.ReservableRoomId</title>
            <path fill="none" stroke="black" d="M1015.18,-271.99C1018.45,-244.93 1024.68,-193.52 1028.57,-161.38"/>
            <polygon fill="black" stroke="black"
                     points="1032.06,-161.63 1029.79,-151.28 1025.11,-160.79 1032.06,-161.63"/>
        </g>
        <!-- mrs.domain.model.reservation.reservation.ReservableRoom&#45;&gt;mrs.domain.model.reservation.reservation.Reservation -->
        <g id="edge20" class="edge">
            <title>mrs.domain.model.reservation.reservation.ReservableRoom&#45;&gt;mrs.domain.model.reservation.reservation.Reservation</title>
            <path fill="none" stroke="black" d="M975.42,-271.99C952.65,-259.84 923.88,-243.68 901.49,-230.51"/>
            <polygon fill="black" stroke="black" points="903.02,-227.35 892.64,-225.26 899.45,-233.37 903.02,-227.35"/>
        </g>
        <!-- mrs.domain.model.reservation.room.MeetingRoom -->
        <g id="node17" class="node">
            <title>mrs.domain.model.reservation.room.MeetingRoom</title>
            <polygon fill="#eedd82" stroke="black" points="1230,-225 1134,-225 1134,-187 1230,-187 1230,-225"/>
            <text text-anchor="middle" x="1182" y="-209.8" font-family="Times New Roman,serif" font-size="14.00">会議室
            </text>
            <text text-anchor="middle" x="1182" y="-194.8" font-family="Times New Roman,serif" font-size="14.00">
                MeetingRoom
            </text>
        </g>
        <!-- mrs.domain.model.reservation.reservation.ReservableRoom&#45;&gt;mrs.domain.model.reservation.room.MeetingRoom -->
        <g id="edge21" class="edge">
            <title>mrs.domain.model.reservation.reservation.ReservableRoom&#45;&gt;mrs.domain.model.reservation.room.MeetingRoom</title>
            <path fill="none" stroke="black"
                  d="M1081.53,-275.16C1097.66,-270.13 1114.37,-263.77 1129,-256 1141.12,-249.56 1153.23,-240.68 1162.95,-232.24"/>
            <polygon fill="black" stroke="black" points="1165.5,-234.66 1170.51,-225.32 1160.77,-229.5 1165.5,-234.66"/>
        </g>
        <!-- mrs.domain.model.reservation.reservation.ReservedDate -->
        <g id="node15" class="node">
            <title>mrs.domain.model.reservation.reservation.ReservedDate</title>
            <polygon fill="#eedd82" stroke="black" points="1079.5,-77 984.5,-77 984.5,-39 1079.5,-39 1079.5,-77"/>
            <text text-anchor="middle" x="1032" y="-61.8" font-family="Times New Roman,serif" font-size="14.00">予約日
            </text>
            <text text-anchor="middle" x="1032" y="-46.8" font-family="Times New Roman,serif" font-size="14.00">
                ReservedDate
            </text>
        </g>
        <!-- mrs.domain.model.reservation.reservation.ReservableRoomId&#45;&gt;mrs.domain.model.reservation.reservation.ReservedDate -->
        <g id="edge22" class="edge">
            <title>mrs.domain.model.reservation.reservation.ReservableRoomId&#45;&gt;mrs.domain.model.reservation.reservation.ReservedDate</title>
            <path fill="none" stroke="black" d="M1032,-112.83C1032,-105.13 1032,-95.97 1032,-87.42"/>
            <polygon fill="black" stroke="black" points="1035.5,-87.41 1032,-77.41 1028.5,-87.41 1035.5,-87.41"/>
        </g>
        <!-- mrs.domain.model.reservation.room.RoomId -->
        <g id="node18" class="node">
            <title>mrs.domain.model.reservation.room.RoomId</title>
            <polygon fill="#eedd82" stroke="black" points="1235.5,-77 1132.5,-77 1132.5,-39 1235.5,-39 1235.5,-77"/>
            <text text-anchor="middle" x="1184" y="-61.8" font-family="Times New Roman,serif" font-size="14.00">会議室番号
            </text>
            <text text-anchor="middle" x="1184" y="-46.8" font-family="Times New Roman,serif" font-size="14.00">RoomId
            </text>
        </g>
        <!-- mrs.domain.model.reservation.reservation.ReservableRoomId&#45;&gt;mrs.domain.model.reservation.room.RoomId -->
        <g id="edge23" class="edge">
            <title>mrs.domain.model.reservation.reservation.ReservableRoomId&#45;&gt;mrs.domain.model.reservation.room.RoomId</title>
            <path fill="none" stroke="black" d="M1070.36,-112.83C1090.5,-103.29 1115.38,-91.51 1136.71,-81.4"/>
            <polygon fill="black" stroke="black" points="1138.38,-84.48 1145.92,-77.04 1135.38,-78.16 1138.38,-84.48"/>
        </g>
        <!-- mrs.domain.model.reservation.reservation.ReservableRoomList -->
        <g id="node11" class="node">
            <title>mrs.domain.model.reservation.reservation.ReservableRoomList</title>
            <polygon fill="#eedd82" stroke="black" points="1099,-384 927,-384 927,-346 1099,-346 1099,-384"/>
            <text text-anchor="middle" x="1013" y="-368.8" font-family="Times New Roman,serif" font-size="14.00">
                予約可能会議室一覧
            </text>
            <text text-anchor="middle" x="1013" y="-353.8" font-family="Times New Roman,serif" font-size="14.00">
                ReservableRoomList
            </text>
        </g>
        <!-- mrs.domain.model.reservation.reservation.ReservableRoomList&#45;&gt;mrs.domain.model.reservation.reservation.ReservableRoom -->
        <g id="edge24" class="edge">
            <title>mrs.domain.model.reservation.reservation.ReservableRoomList&#45;&gt;mrs.domain.model.reservation.reservation.ReservableRoom</title>
            <path fill="none" stroke="black" d="M1013,-345.83C1013,-338.13 1013,-328.97 1013,-320.42"/>
            <polygon fill="black" stroke="black" points="1016.5,-320.41 1013,-310.41 1009.5,-320.41 1016.5,-320.41"/>
        </g>
        <!-- mrs.domain.model.reservation.reservation.Reservation&#45;&gt;mrs.domain.model.auth.user.User -->
        <g id="edge25" class="edge">
            <title>mrs.domain.model.reservation.reservation.Reservation&#45;&gt;mrs.domain.model.auth.user.User</title>
            <path fill="none" stroke="black"
                  d="M824.19,-206.43C733.18,-206.09 511.91,-210.97 337,-264 333.62,-265.02 330.2,-266.28 326.84,-267.67"/>
            <polygon fill="black" stroke="black" points="325.25,-264.55 317.63,-271.92 328.18,-270.91 325.25,-264.55"/>
        </g>
        <!-- mrs.domain.model.reservation.reservation.Reservation&#45;&gt;mrs.domain.model.reservation.reservation.ReservableRoom -->
        <g id="edge26" class="edge">
            <title>mrs.domain.model.reservation.reservation.Reservation&#45;&gt;mrs.domain.model.reservation.reservation.ReservableRoom</title>
            <path fill="none" stroke="black" d="M903.78,-225.12C926.66,-237.34 955.56,-253.57 977.94,-266.74"/>
            <polygon fill="black" stroke="black" points="976.4,-269.89 986.78,-271.99 979.97,-263.88 976.4,-269.89"/>
        </g>
        <!-- mrs.domain.model.reservation.reservation.Reservation&#45;&gt;mrs.domain.model.reservation.reservation.ReservableRoomId -->
        <g id="edge27" class="edge">
            <title>mrs.domain.model.reservation.reservation.Reservation&#45;&gt;mrs.domain.model.reservation.reservation.ReservableRoomId</title>
            <path fill="none" stroke="black" d="M907.89,-186.83C930.09,-177.2 957.54,-165.29 980.98,-155.13"/>
            <polygon fill="black" stroke="black" points="982.63,-158.23 990.41,-151.04 979.85,-151.81 982.63,-158.23"/>
        </g>
        <!-- mrs.domain.model.reservation.reservation.ReservationId -->
        <g id="node13" class="node">
            <title>mrs.domain.model.reservation.reservation.ReservationId</title>
            <polygon fill="#eedd82" stroke="black" points="821.5,-151 726.5,-151 726.5,-113 821.5,-113 821.5,-151"/>
            <text text-anchor="middle" x="774" y="-135.8" font-family="Times New Roman,serif" font-size="14.00">予約番号
            </text>
            <text text-anchor="middle" x="774" y="-120.8" font-family="Times New Roman,serif" font-size="14.00">
                ReservationId
            </text>
        </g>
        <!-- mrs.domain.model.reservation.reservation.Reservation&#45;&gt;mrs.domain.model.reservation.reservation.ReservationId -->
        <g id="edge28" class="edge">
            <title>mrs.domain.model.reservation.reservation.Reservation&#45;&gt;mrs.domain.model.reservation.reservation.ReservationId</title>
            <path fill="none" stroke="black" d="M842.78,-186.83C831.45,-177.96 817.65,-167.16 805.4,-157.57"/>
            <polygon fill="black" stroke="black" points="807.24,-154.57 797.21,-151.16 802.93,-160.08 807.24,-154.57"/>
        </g>
        <!-- mrs.domain.model.reservation.reservation.ReservedTime -->
        <g id="node16" class="node">
            <title>mrs.domain.model.reservation.reservation.ReservedTime</title>
            <polygon fill="#eedd82" stroke="black" points="938,-151 840,-151 840,-113 938,-113 938,-151"/>
            <text text-anchor="middle" x="889" y="-135.8" font-family="Times New Roman,serif" font-size="14.00">予約時間
            </text>
            <text text-anchor="middle" x="889" y="-120.8" font-family="Times New Roman,serif" font-size="14.00">
                ReservedTime
            </text>
        </g>
        <!-- mrs.domain.model.reservation.reservation.Reservation&#45;&gt;mrs.domain.model.reservation.reservation.ReservedTime -->
        <g id="edge29" class="edge">
            <title>mrs.domain.model.reservation.reservation.Reservation&#45;&gt;mrs.domain.model.reservation.reservation.ReservedTime</title>
            <path fill="none" stroke="black" d="M871.8,-186.83C874.29,-179.05 877.25,-169.77 880.01,-161.13"/>
            <polygon fill="black" stroke="black" points="883.41,-162 883.12,-151.41 876.74,-159.87 883.41,-162"/>
        </g>
        <!-- mrs.domain.model.reservation.reservation.ReservationList -->
        <g id="node14" class="node">
            <title>mrs.domain.model.reservation.reservation.ReservationList</title>
            <polygon fill="#eedd82" stroke="black" points="918,-310 814,-310 814,-272 918,-272 918,-310"/>
            <text text-anchor="middle" x="866" y="-294.8" font-family="Times New Roman,serif" font-size="14.00">予約一覧
            </text>
            <text text-anchor="middle" x="866" y="-279.8" font-family="Times New Roman,serif" font-size="14.00">
                ReservationList
            </text>
        </g>
        <!-- mrs.domain.model.reservation.reservation.ReservationList&#45;&gt;mrs.domain.model.reservation.reservation.Reservation -->
        <g id="edge30" class="edge">
            <title>mrs.domain.model.reservation.reservation.ReservationList&#45;&gt;mrs.domain.model.reservation.reservation.Reservation</title>
            <path fill="none" stroke="black" d="M866,-271.99C866,-261.3 866,-247.5 866,-235.37"/>
            <polygon fill="black" stroke="black" points="869.5,-235.26 866,-225.26 862.5,-235.26 869.5,-235.26"/>
        </g>
        <!-- mrs.domain.model.reservation.room.MeetingRoom&#45;&gt;mrs.domain.model.reservation.reservation.ReservableRoom -->
        <g id="edge31" class="edge">
            <title>mrs.domain.model.reservation.room.MeetingRoom&#45;&gt;mrs.domain.model.reservation.reservation.ReservableRoom</title>
            <path fill="none" stroke="black"
                  d="M1155.06,-225.08C1142.25,-235.32 1126.63,-247.7 1111,-256 1102.22,-260.66 1092.69,-264.82 1083.13,-268.48"/>
            <polygon fill="black" stroke="black"
                     points="1081.77,-265.25 1073.59,-271.98 1084.19,-271.82 1081.77,-265.25"/>
        </g>
        <!-- mrs.domain.model.reservation.room.MeetingRoom&#45;&gt;mrs.domain.model.reservation.room.RoomId -->
        <g id="edge32" class="edge">
            <title>mrs.domain.model.reservation.room.MeetingRoom&#45;&gt;mrs.domain.model.reservation.room.RoomId
            </title>
            <path fill="none" stroke="black" d="M1182.25,-186.8C1182.59,-161.89 1183.21,-116.89 1183.61,-87.49"/>
            <polygon fill="black" stroke="black" points="1187.11,-87.47 1183.75,-77.43 1180.11,-87.38 1187.11,-87.47"/>
        </g>
    </g>
</svg>
