<?xml version="1.0" encoding="UTF-8" standalone="no"?>
<!DOCTYPE svg PUBLIC "-//W3C//DTD SVG 1.1//EN"
        "http://www.w3.org/Graphics/SVG/1.1/DTD/svg11.dtd">
<!-- Generated by graphviz version 3.0.0 (20220226.1711)
 -->
<!-- Title: ビジネスルール関連図 Pages: 1 -->
<svg width="1464pt" height="739pt"
     viewBox="0.00 0.00 1464.00 739.00" xmlns="http://www.w3.org/2000/svg">
    <g id="graph0" class="graph" transform="scale(1 1) rotate(0) translate(4 735)">
        <title>ビジネスルール関連図</title>
        <polygon fill="white" stroke="transparent" points="-4,4 -4,-735 1460,-735 1460,4 -4,4"/>
        <text text-anchor="middle" x="728" y="-7.8" font-family="Times New Roman,serif" font-size="14.00">ビジネスルール関連図
        </text>
        <g id="clust2" class="cluster">
            <title>cluster_mrs.domain.model.contact</title>
            <polygon fill="lemonchiffon" stroke="#eedd82" stroke-width="2"
                     points="166,-410 166,-723 340,-723 340,-410 166,-410"/>
            <text text-anchor="middle" x="253" y="-707.8" font-family="Times New Roman,serif" font-size="14.00">
                contact
            </text>
        </g>
        <g id="clust3" class="cluster">
            <title>cluster_mrs.domain.model.facility.room</title>
            <polygon fill="lemonchiffon" stroke="#eedd82" stroke-width="2"
                     points="8,-31 8,-402 144,-402 144,-31 8,-31"/>
            <text text-anchor="middle" x="76" y="-386.8" font-family="Times New Roman,serif" font-size="14.00">
                facility.room
            </text>
        </g>
        <g id="clust1" class="cluster">
            <title>cluster_mrs.domain.model.auth.user</title>
            <polygon fill="lemonchiffon" stroke="#eedd82" stroke-width="2"
                     points="876,-252 876,-572 1448,-572 1448,-252 876,-252"/>
            <text text-anchor="middle" x="1162" y="-556.8" font-family="Times New Roman,serif" font-size="14.00">
                auth.user
            </text>
        </g>
        <g id="clust4" class="cluster">
            <title>cluster_mrs.domain.model.reservation.reservation</title>
            <polygon fill="lemonchiffon" stroke="#eedd82" stroke-width="2"
                     points="348,-103 348,-487 576,-487 576,-103 348,-103"/>
            <text text-anchor="middle" x="462" y="-471.8" font-family="Times New Roman,serif" font-size="14.00">
                reservation.reservation
            </text>
        </g>
        <g id="clust6" class="cluster">
            <title>cluster_mrs.domain.model.user.member</title>
            <polygon fill="lemonchiffon" stroke="#eedd82" stroke-width="2"
                     points="584,-410 584,-572 686,-572 686,-410 584,-410"/>
            <text text-anchor="middle" x="635" y="-556.8" font-family="Times New Roman,serif" font-size="14.00">
                user.member
            </text>
        </g>
        <g id="clust5" class="cluster">
            <title>cluster_mrs.domain.model.reservation.room</title>
            <polygon fill="lemonchiffon" stroke="#eedd82" stroke-width="2"
                     points="152,-177 152,-402 340,-402 340,-177 152,-177"/>
            <text text-anchor="middle" x="246" y="-386.8" font-family="Times New Roman,serif" font-size="14.00">
                reservation.room
            </text>
        </g>
        <g id="clust7" class="cluster">
            <title>cluster_mrs.domain.model.user.staff</title>
            <polygon fill="lemonchiffon" stroke="#eedd82" stroke-width="2"
                     points="766,-495 766,-572 868,-572 868,-495 766,-495"/>
            <text text-anchor="middle" x="817" y="-556.8" font-family="Times New Roman,serif" font-size="14.00">
                user.staff
            </text>
        </g>
        <!-- mrs.domain.model.auth.user.Password -->
        <g id="node1" class="node">
            <title>mrs.domain.model.auth.user.Password</title>
            <polygon fill="#eedd82" stroke="black"
                     points="1201.5,-371 1098.5,-371 1098.5,-333 1201.5,-333 1201.5,-371"/>
            <text text-anchor="middle" x="1150" y="-355.8" font-family="Times New Roman,serif" font-size="14.00">パスワード
            </text>
            <text text-anchor="middle" x="1150" y="-340.8" font-family="Times New Roman,serif" font-size="14.00">
                Password
            </text>
        </g>
        <!-- mrs.domain.model.auth.user.PasswordException -->
        <g id="node2" class="node">
            <title>mrs.domain.model.auth.user.PasswordException</title>
            <polygon fill="#eedd82" stroke="black" points="1222,-296 1094,-296 1094,-260 1222,-260 1222,-296"/>
            <text text-anchor="middle" x="1158" y="-274.3" font-family="Times New Roman,serif" font-size="14.00">
                PasswordException
            </text>
        </g>
        <!-- mrs.domain.model.auth.user.Password&#45;&gt;mrs.domain.model.auth.user.PasswordException -->
        <g id="edge1" class="edge">
            <title>mrs.domain.model.auth.user.Password&#45;&gt;mrs.domain.model.auth.user.PasswordException</title>
            <path fill="none" stroke="black" d="M1152.02,-332.83C1152.9,-324.89 1153.95,-315.41 1154.93,-306.63"/>
            <polygon fill="black" stroke="black"
                     points="1158.44,-306.74 1156.06,-296.42 1151.48,-305.97 1158.44,-306.74"/>
        </g>
        <!-- mrs.domain.model.auth.user.RoleName -->
        <g id="node3" class="node">
            <title>mrs.domain.model.auth.user.RoleName</title>
            <polygon fill="#eedd82" stroke="black"
                     points="1322.5,-371 1219.5,-371 1219.5,-333 1322.5,-333 1322.5,-371"/>
            <text text-anchor="middle" x="1271" y="-355.8" font-family="Times New Roman,serif" font-size="14.00">利用者区分
            </text>
            <text text-anchor="middle" x="1271" y="-340.8" font-family="Times New Roman,serif" font-size="14.00">
                RoleName
            </text>
        </g>
        <!-- mrs.domain.model.auth.user.User -->
        <g id="node4" class="node">
            <title>mrs.domain.model.auth.user.User</title>
            <polygon fill="#eedd82" stroke="black" points="1106,-456 1038,-456 1038,-418 1106,-418 1106,-456"/>
            <text text-anchor="middle" x="1072" y="-440.8" font-family="Times New Roman,serif" font-size="14.00">利用者
            </text>
            <text text-anchor="middle" x="1072" y="-425.8" font-family="Times New Roman,serif" font-size="14.00">User
            </text>
        </g>
        <!-- mrs.domain.model.auth.user.User&#45;&gt;mrs.domain.model.auth.user.Password -->
        <g id="edge2" class="edge">
            <title>mrs.domain.model.auth.user.User&#45;&gt;mrs.domain.model.auth.user.Password</title>
            <path fill="none" stroke="black" d="M1088.92,-417.99C1099.69,-406.54 1113.79,-391.53 1125.73,-378.82"/>
            <polygon fill="black" stroke="black"
                     points="1128.54,-380.95 1132.84,-371.26 1123.44,-376.15 1128.54,-380.95"/>
        </g>
        <!-- mrs.domain.model.auth.user.User&#45;&gt;mrs.domain.model.auth.user.RoleName -->
        <g id="edge3" class="edge">
            <title>mrs.domain.model.auth.user.User&#45;&gt;mrs.domain.model.auth.user.RoleName</title>
            <path fill="none" stroke="black"
                  d="M1106.02,-431.98C1135.1,-427.56 1177.43,-418.73 1211,-402 1223.44,-395.8 1235.62,-386.62 1245.72,-377.87"/>
            <polygon fill="black" stroke="black"
                     points="1248.24,-380.31 1253.33,-371.02 1243.56,-375.11 1248.24,-380.31"/>
        </g>
        <!-- mrs.domain.model.auth.user.UserException -->
        <g id="node6" class="node">
            <title>mrs.domain.model.auth.user.UserException</title>
            <polygon fill="#eedd82" stroke="black"
                     points="1439.5,-370 1340.5,-370 1340.5,-334 1439.5,-334 1439.5,-370"/>
            <text text-anchor="middle" x="1390" y="-348.3" font-family="Times New Roman,serif" font-size="14.00">
                UserException
            </text>
        </g>
        <!-- mrs.domain.model.auth.user.User&#45;&gt;mrs.domain.model.auth.user.UserException -->
        <g id="edge4" class="edge">
            <title>mrs.domain.model.auth.user.User&#45;&gt;mrs.domain.model.auth.user.UserException</title>
            <path fill="none" stroke="black"
                  d="M1106.08,-433.93C1167.07,-429.84 1292.23,-419.56 1332,-402 1344.94,-396.29 1357.22,-386.75 1367.13,-377.61"/>
            <polygon fill="black" stroke="black"
                     points="1369.78,-379.91 1374.53,-370.43 1364.91,-374.88 1369.78,-379.91"/>
        </g>
        <!-- mrs.domain.model.auth.user.UserId -->
        <g id="node7" class="node">
            <title>mrs.domain.model.auth.user.UserId</title>
            <polygon fill="#eedd82" stroke="black" points="1080.5,-371 977.5,-371 977.5,-333 1080.5,-333 1080.5,-371"/>
            <text text-anchor="middle" x="1029" y="-355.8" font-family="Times New Roman,serif" font-size="14.00">利用者番号
            </text>
            <text text-anchor="middle" x="1029" y="-340.8" font-family="Times New Roman,serif" font-size="14.00">
                UserId
            </text>
        </g>
        <!-- mrs.domain.model.auth.user.User&#45;&gt;mrs.domain.model.auth.user.UserId -->
        <g id="edge5" class="edge">
            <title>mrs.domain.model.auth.user.User&#45;&gt;mrs.domain.model.auth.user.UserId</title>
            <path fill="none" stroke="black" d="M1062.67,-417.99C1056.96,-406.97 1049.55,-392.66 1043.13,-380.27"/>
            <polygon fill="black" stroke="black"
                     points="1046.17,-378.53 1038.46,-371.26 1039.95,-381.75 1046.17,-378.53"/>
        </g>
        <!-- mrs.domain.model.auth.user.UserName -->
        <g id="node9" class="node">
            <title>mrs.domain.model.auth.user.UserName</title>
            <polygon fill="#eedd82" stroke="black" points="959.5,-371 884.5,-371 884.5,-333 959.5,-333 959.5,-371"/>
            <text text-anchor="middle" x="922" y="-355.8" font-family="Times New Roman,serif" font-size="14.00">氏名
            </text>
            <text text-anchor="middle" x="922" y="-340.8" font-family="Times New Roman,serif" font-size="14.00">
                UserName
            </text>
        </g>
        <!-- mrs.domain.model.auth.user.User&#45;&gt;mrs.domain.model.auth.user.UserName -->
        <g id="edge6" class="edge">
            <title>mrs.domain.model.auth.user.User&#45;&gt;mrs.domain.model.auth.user.UserName</title>
            <path fill="none" stroke="black"
                  d="M1037.71,-429.13C1016.75,-423.88 990.03,-415.26 969,-402 959.33,-395.9 950.24,-387.39 942.68,-379.17"/>
            <polygon fill="black" stroke="black" points="945.15,-376.68 935.93,-371.46 939.88,-381.29 945.15,-376.68"/>
        </g>
        <!-- mrs.domain.model.reservation.reservation.Reservation -->
        <g id="node17" class="node">
            <title>mrs.domain.model.reservation.reservation.Reservation</title>
            <polygon fill="#eedd82" stroke="black" points="517.5,-371 434.5,-371 434.5,-333 517.5,-333 517.5,-371"/>
            <text text-anchor="middle" x="476" y="-355.8" font-family="Times New Roman,serif" font-size="14.00">予約
            </text>
            <text text-anchor="middle" x="476" y="-340.8" font-family="Times New Roman,serif" font-size="14.00">
                Reservation
            </text>
        </g>
        <!-- mrs.domain.model.auth.user.User&#45;&gt;mrs.domain.model.reservation.reservation.Reservation -->
        <g id="edge7" class="edge">
            <title>mrs.domain.model.auth.user.User&#45;&gt;mrs.domain.model.reservation.reservation.Reservation</title>
            <path fill="none" stroke="black" d="M1037.77,-430.75C937.91,-416.25 647.11,-375.74 527.85,-359.68"/>
            <polygon fill="black" stroke="black" points="528.25,-356.2 517.87,-358.34 527.31,-363.14 528.25,-356.2"/>
        </g>
        <!-- mrs.domain.model.auth.user.UserDetailsImpl -->
        <g id="node5" class="node">
            <title>mrs.domain.model.auth.user.UserDetailsImpl</title>
            <polygon fill="#eedd82" stroke="black" points="1190,-541 1084,-541 1084,-503 1190,-503 1190,-541"/>
            <text text-anchor="middle" x="1137" y="-525.8" font-family="Times New Roman,serif" font-size="14.00">利用者
            </text>
            <text text-anchor="middle" x="1137" y="-510.8" font-family="Times New Roman,serif" font-size="14.00">
                UserDetailsImpl
            </text>
        </g>
        <!-- mrs.domain.model.auth.user.UserDetailsImpl&#45;&gt;mrs.domain.model.auth.user.Password -->
        <g id="edge8" class="edge">
            <title>mrs.domain.model.auth.user.UserDetailsImpl&#45;&gt;mrs.domain.model.auth.user.Password</title>
            <path fill="none" stroke="black" d="M1138.42,-502.7C1140.68,-473.46 1145.13,-415.99 1147.8,-381.39"/>
            <polygon fill="black" stroke="black"
                     points="1151.32,-381.26 1148.61,-371.02 1144.34,-380.72 1151.32,-381.26"/>
        </g>
        <!-- mrs.domain.model.auth.user.UserDetailsImpl&#45;&gt;mrs.domain.model.auth.user.RoleName -->
        <g id="edge9" class="edge">
            <title>mrs.domain.model.auth.user.UserDetailsImpl&#45;&gt;mrs.domain.model.auth.user.RoleName</title>
            <path fill="none" stroke="black" d="M1151.6,-502.7C1175.42,-472.83 1222.75,-413.49 1250.12,-379.17"/>
            <polygon fill="black" stroke="black"
                     points="1253.13,-381.02 1256.63,-371.02 1247.65,-376.66 1253.13,-381.02"/>
        </g>
        <!-- mrs.domain.model.auth.user.UserDetailsImpl&#45;&gt;mrs.domain.model.auth.user.User -->
        <g id="edge10" class="edge">
            <title>mrs.domain.model.auth.user.UserDetailsImpl&#45;&gt;mrs.domain.model.auth.user.User</title>
            <path fill="none" stroke="black" d="M1122.9,-502.99C1114.01,-491.65 1102.4,-476.82 1092.51,-464.18"/>
            <polygon fill="black" stroke="black"
                     points="1095.22,-461.98 1086.3,-456.26 1089.71,-466.29 1095.22,-461.98"/>
        </g>
        <!-- mrs.domain.model.auth.user.UserDetailsImpl&#45;&gt;mrs.domain.model.auth.user.UserId -->
        <g id="edge11" class="edge">
            <title>mrs.domain.model.auth.user.UserDetailsImpl&#45;&gt;mrs.domain.model.auth.user.UserId</title>
            <path fill="none" stroke="black"
                  d="M1135.61,-502.8C1133.13,-474.93 1127.03,-423.49 1115,-410 1107.23,-401.29 1100.28,-407.52 1090,-402 1077.82,-395.45 1065.68,-386.37 1055.48,-377.79"/>
            <polygon fill="black" stroke="black" points="1057.59,-375 1047.75,-371.09 1053.01,-380.28 1057.59,-375"/>
        </g>
        <!-- mrs.domain.model.auth.user.UserIdException -->
        <g id="node8" class="node">
            <title>mrs.domain.model.auth.user.UserIdException</title>
            <polygon fill="#eedd82" stroke="black" points="1075.5,-296 964.5,-296 964.5,-260 1075.5,-260 1075.5,-296"/>
            <text text-anchor="middle" x="1020" y="-274.3" font-family="Times New Roman,serif" font-size="14.00">
                UserIdException
            </text>
        </g>
        <!-- mrs.domain.model.auth.user.UserId&#45;&gt;mrs.domain.model.auth.user.UserIdException -->
        <g id="edge12" class="edge">
            <title>mrs.domain.model.auth.user.UserId&#45;&gt;mrs.domain.model.auth.user.UserIdException</title>
            <path fill="none" stroke="black" d="M1026.73,-332.83C1025.74,-324.89 1024.55,-315.41 1023.45,-306.63"/>
            <polygon fill="black" stroke="black"
                     points="1026.89,-305.91 1022.18,-296.42 1019.94,-306.77 1026.89,-305.91"/>
        </g>
        <!-- mrs.domain.model.contact.Contact -->
        <g id="node10" class="node">
            <title>mrs.domain.model.contact.Contact</title>
            <polygon fill="#eedd82" stroke="black" points="331.5,-618 228.5,-618 228.5,-580 331.5,-580 331.5,-618"/>
            <text text-anchor="middle" x="280" y="-602.8" font-family="Times New Roman,serif" font-size="14.00">問い合わせ
            </text>
            <text text-anchor="middle" x="280" y="-587.8" font-family="Times New Roman,serif" font-size="14.00">
                Contact
            </text>
        </g>
        <!-- mrs.domain.model.contact.Contact&#45;&gt;mrs.domain.model.auth.user.User -->
        <g id="edge13" class="edge">
            <title>mrs.domain.model.contact.Contact&#45;&gt;mrs.domain.model.auth.user.User</title>
            <path fill="none" stroke="black"
                  d="M331.63,-597.13C466.22,-594.66 820.93,-586.83 872,-572 944.85,-550.85 959.09,-532.21 1020,-487 1029.46,-479.98 1039.05,-471.43 1047.38,-463.45"/>
            <polygon fill="black" stroke="black"
                     points="1049.94,-465.84 1054.63,-456.34 1045.04,-460.84 1049.94,-465.84"/>
        </g>
        <!-- mrs.domain.model.contact.ContactId -->
        <g id="node11" class="node">
            <title>mrs.domain.model.contact.ContactId</title>
            <polygon fill="#eedd82" stroke="black" points="311.5,-541 174.5,-541 174.5,-503 311.5,-503 311.5,-541"/>
            <text text-anchor="middle" x="243" y="-525.8" font-family="Times New Roman,serif" font-size="14.00">
                問い合わせ番号
            </text>
            <text text-anchor="middle" x="243" y="-510.8" font-family="Times New Roman,serif" font-size="14.00">
                ContactId
            </text>
        </g>
        <!-- mrs.domain.model.contact.Contact&#45;&gt;mrs.domain.model.contact.ContactId -->
        <g id="edge14" class="edge">
            <title>mrs.domain.model.contact.Contact&#45;&gt;mrs.domain.model.contact.ContactId</title>
            <path fill="none" stroke="black" d="M271.04,-579.84C266.67,-570.97 261.31,-560.12 256.46,-550.27"/>
            <polygon fill="black" stroke="black" points="259.57,-548.67 252,-541.25 253.29,-551.76 259.57,-548.67"/>
        </g>
        <!-- mrs.domain.model.contact.ContactPerson -->
        <g id="node13" class="node">
            <title>mrs.domain.model.contact.ContactPerson</title>
            <polygon fill="#eedd82" stroke="black" points="332,-456 212,-456 212,-418 332,-418 332,-456"/>
            <text text-anchor="middle" x="272" y="-440.8" font-family="Times New Roman,serif" font-size="14.00">問い合わせ人
            </text>
            <text text-anchor="middle" x="272" y="-425.8" font-family="Times New Roman,serif" font-size="14.00">
                ContactPerson
            </text>
        </g>
        <!-- mrs.domain.model.contact.Contact&#45;&gt;mrs.domain.model.contact.ContactPerson -->
        <g id="edge15" class="edge">
            <title>mrs.domain.model.contact.Contact&#45;&gt;mrs.domain.model.contact.ContactPerson</title>
            <path fill="none" stroke="black"
                  d="M314,-579.92C316.36,-577.55 318.42,-574.91 320,-572 336.32,-541.92 331.73,-527.15 320,-495 315.78,-483.44 308.07,-472.6 300.04,-463.54"/>
            <polygon fill="black" stroke="black" points="302.4,-460.94 292.99,-456.06 297.31,-465.74 302.4,-460.94"/>
        </g>
        <!-- mrs.domain.model.user.member.Member -->
        <g id="node25" class="node">
            <title>mrs.domain.model.user.member.Member</title>
            <polygon fill="#eedd82" stroke="black" points="677.5,-541 614.5,-541 614.5,-503 677.5,-503 677.5,-541"/>
            <text text-anchor="middle" x="646" y="-525.8" font-family="Times New Roman,serif" font-size="14.00">会員
            </text>
            <text text-anchor="middle" x="646" y="-510.8" font-family="Times New Roman,serif" font-size="14.00">Member
            </text>
        </g>
        <!-- mrs.domain.model.contact.Contact&#45;&gt;mrs.domain.model.user.member.Member -->
        <g id="edge16" class="edge">
            <title>mrs.domain.model.contact.Contact&#45;&gt;mrs.domain.model.user.member.Member</title>
            <path fill="none" stroke="black" d="M331.66,-587.41C404.76,-572.43 536.94,-545.35 604.22,-531.56"/>
            <polygon fill="black" stroke="black" points="604.96,-534.98 614.05,-529.55 603.55,-528.13 604.96,-534.98"/>
        </g>
        <!-- mrs.domain.model.contact.ContactList -->
        <g id="node12" class="node">
            <title>mrs.domain.model.contact.ContactList</title>
            <polygon fill="#eedd82" stroke="black" points="331.5,-692 194.5,-692 194.5,-654 331.5,-654 331.5,-692"/>
            <text text-anchor="middle" x="263" y="-676.8" font-family="Times New Roman,serif" font-size="14.00">
                問い合わせ一覧
            </text>
            <text text-anchor="middle" x="263" y="-661.8" font-family="Times New Roman,serif" font-size="14.00">
                ContactList
            </text>
        </g>
        <!-- mrs.domain.model.contact.ContactList&#45;&gt;mrs.domain.model.contact.Contact -->
        <g id="edge17" class="edge">
            <title>mrs.domain.model.contact.ContactList&#45;&gt;mrs.domain.model.contact.Contact</title>
            <path fill="none" stroke="black" d="M267.29,-653.83C269.11,-646.13 271.27,-636.97 273.29,-628.42"/>
            <polygon fill="black" stroke="black" points="276.76,-628.95 275.65,-618.41 269.95,-627.34 276.76,-628.95"/>
        </g>
        <!-- mrs.domain.model.facility.room.MeetingRoom -->
        <g id="node14" class="node">
            <title>mrs.domain.model.facility.room.MeetingRoom</title>
            <polygon fill="#eedd82" stroke="black" points="135,-371 39,-371 39,-333 135,-333 135,-371"/>
            <text text-anchor="middle" x="87" y="-355.8" font-family="Times New Roman,serif" font-size="14.00">会議室
            </text>
            <text text-anchor="middle" x="87" y="-340.8" font-family="Times New Roman,serif" font-size="14.00">
                MeetingRoom
            </text>
        </g>
        <!-- mrs.domain.model.facility.room.RoomId -->
        <g id="node15" class="node">
            <title>mrs.domain.model.facility.room.RoomId</title>
            <polygon fill="#eedd82" stroke="black" points="135.5,-149 32.5,-149 32.5,-111 135.5,-111 135.5,-149"/>
            <text text-anchor="middle" x="84" y="-133.8" font-family="Times New Roman,serif" font-size="14.00">会議室番号
            </text>
            <text text-anchor="middle" x="84" y="-118.8" font-family="Times New Roman,serif" font-size="14.00">RoomId
            </text>
        </g>
        <!-- mrs.domain.model.facility.room.MeetingRoom&#45;&gt;mrs.domain.model.facility.room.RoomId -->
        <g id="edge18" class="edge">
            <title>mrs.domain.model.facility.room.MeetingRoom&#45;&gt;mrs.domain.model.facility.room.RoomId</title>
            <path fill="none" stroke="black" d="M86.75,-333C86.23,-294.8 85.01,-205.41 84.39,-159.43"/>
            <polygon fill="black" stroke="black" points="87.89,-159.2 84.25,-149.25 80.89,-159.3 87.89,-159.2"/>
        </g>
        <!-- mrs.domain.model.reservation.room.ReservableRoom -->
        <g id="node22" class="node">
            <title>mrs.domain.model.reservation.room.ReservableRoom</title>
            <polygon fill="#eedd82" stroke="black" points="299.5,-297 162.5,-297 162.5,-259 299.5,-259 299.5,-297"/>
            <text text-anchor="middle" x="231" y="-281.8" font-family="Times New Roman,serif" font-size="14.00">
                予約可能会議室
            </text>
            <text text-anchor="middle" x="231" y="-266.8" font-family="Times New Roman,serif" font-size="14.00">
                ReservableRoom
            </text>
        </g>
        <!-- mrs.domain.model.facility.room.MeetingRoom&#45;&gt;mrs.domain.model.reservation.room.ReservableRoom -->
        <g id="edge19" class="edge">
            <title>mrs.domain.model.facility.room.MeetingRoom&#45;&gt;mrs.domain.model.reservation.room.ReservableRoom
            </title>
            <path fill="none" stroke="black" d="M129.29,-332.83C149.05,-323.41 172.38,-311.81 191.75,-301.79"/>
            <polygon fill="black" stroke="black" points="193.38,-304.89 200.63,-297.16 190.14,-298.68 193.38,-304.89"/>
        </g>
        <!-- mrs.domain.model.facility.room.RoomIdException -->
        <g id="node16" class="node">
            <title>mrs.domain.model.facility.room.RoomIdException</title>
            <polygon fill="#eedd82" stroke="black" points="136,-75 16,-75 16,-39 136,-39 136,-75"/>
            <text text-anchor="middle" x="76" y="-53.3" font-family="Times New Roman,serif" font-size="14.00">
                RoomIdException
            </text>
        </g>
        <!-- mrs.domain.model.facility.room.RoomId&#45;&gt;mrs.domain.model.facility.room.RoomIdException -->
        <g id="edge20" class="edge">
            <title>mrs.domain.model.facility.room.RoomId&#45;&gt;mrs.domain.model.facility.room.RoomIdException</title>
            <path fill="none" stroke="black" d="M81.94,-110.72C81.06,-102.89 80.01,-93.59 79.04,-84.99"/>
            <polygon fill="black" stroke="black" points="82.51,-84.55 77.92,-75 75.56,-85.33 82.51,-84.55"/>
        </g>
        <!-- mrs.domain.model.reservation.reservation.Reservation&#45;&gt;mrs.domain.model.auth.user.User -->
        <g id="edge21" class="edge">
            <title>mrs.domain.model.reservation.reservation.Reservation&#45;&gt;mrs.domain.model.auth.user.User</title>
            <path fill="none" stroke="black" d="M517.56,-359.32C625.86,-374.95 915.62,-415.3 1027.33,-430.29"/>
            <polygon fill="black" stroke="black" points="1027.2,-433.8 1037.57,-431.65 1028.12,-426.86 1027.2,-433.8"/>
        </g>
        <!-- mrs.domain.model.reservation.reservation.ReservationId -->
        <g id="node18" class="node">
            <title>mrs.domain.model.reservation.reservation.ReservationId</title>
            <polygon fill="#eedd82" stroke="black" points="567.5,-297 472.5,-297 472.5,-259 567.5,-259 567.5,-297"/>
            <text text-anchor="middle" x="520" y="-281.8" font-family="Times New Roman,serif" font-size="14.00">予約番号
            </text>
            <text text-anchor="middle" x="520" y="-266.8" font-family="Times New Roman,serif" font-size="14.00">
                ReservationId
            </text>
        </g>
        <!-- mrs.domain.model.reservation.reservation.Reservation&#45;&gt;mrs.domain.model.reservation.reservation.ReservationId -->
        <g id="edge22" class="edge">
            <title>mrs.domain.model.reservation.reservation.Reservation&#45;&gt;mrs.domain.model.reservation.reservation.ReservationId</title>
            <path fill="none" stroke="black" d="M487.1,-332.83C492.07,-324.71 498.02,-314.96 503.49,-306.01"/>
            <polygon fill="black" stroke="black" points="506.52,-307.77 508.75,-297.41 500.55,-304.12 506.52,-307.77"/>
        </g>
        <!-- mrs.domain.model.reservation.reservation.ReservedTime -->
        <g id="node21" class="node">
            <title>mrs.domain.model.reservation.reservation.ReservedTime</title>
            <polygon fill="#eedd82" stroke="black" points="454,-297 356,-297 356,-259 454,-259 454,-297"/>
            <text text-anchor="middle" x="405" y="-281.8" font-family="Times New Roman,serif" font-size="14.00">予約時間
            </text>
            <text text-anchor="middle" x="405" y="-266.8" font-family="Times New Roman,serif" font-size="14.00">
                ReservedTime
            </text>
        </g>
        <!-- mrs.domain.model.reservation.reservation.Reservation&#45;&gt;mrs.domain.model.reservation.reservation.ReservedTime -->
        <g id="edge23" class="edge">
            <title>mrs.domain.model.reservation.reservation.Reservation&#45;&gt;mrs.domain.model.reservation.reservation.ReservedTime</title>
            <path fill="none" stroke="black" d="M458.08,-332.83C449.66,-324.28 439.46,-313.94 430.26,-304.62"/>
            <polygon fill="black" stroke="black" points="432.67,-302.08 423.16,-297.41 427.69,-306.99 432.67,-302.08"/>
        </g>
        <!-- mrs.domain.model.reservation.reservation.Reservation&#45;&gt;mrs.domain.model.reservation.room.ReservableRoom -->
        <g id="edge24" class="edge">
            <title>mrs.domain.model.reservation.reservation.Reservation&#45;&gt;mrs.domain.model.reservation.room.ReservableRoom</title>
            <path fill="none" stroke="black" d="M434.5,-337.2C400.05,-326.66 350.21,-311.94 308.45,-299.94"/>
            <polygon fill="black" stroke="black" points="309.16,-296.5 298.58,-297.11 307.23,-303.23 309.16,-296.5"/>
        </g>
        <!-- mrs.domain.model.reservation.room.ReservableRoomId -->
        <g id="node23" class="node">
            <title>mrs.domain.model.reservation.room.ReservableRoomId</title>
            <polygon fill="#eedd82" stroke="black" points="322,-223 170,-223 170,-185 322,-185 322,-223"/>
            <text text-anchor="middle" x="246" y="-207.8" font-family="Times New Roman,serif" font-size="14.00">
                予約可能会議室ID
            </text>
            <text text-anchor="middle" x="246" y="-192.8" font-family="Times New Roman,serif" font-size="14.00">
                ReservableRoomId
            </text>
        </g>
        <!-- mrs.domain.model.reservation.reservation.Reservation&#45;&gt;mrs.domain.model.reservation.room.ReservableRoomId -->
        <g id="edge25" class="edge">
            <title>mrs.domain.model.reservation.reservation.Reservation&#45;&gt;mrs.domain.model.reservation.room.ReservableRoomId</title>
            <path fill="none" stroke="black"
                  d="M434.28,-338.99C407.72,-330.08 373.45,-316.15 347,-297 325.56,-281.48 327.32,-270.09 308,-252 299.55,-244.08 289.8,-236.2 280.57,-229.21"/>
            <polygon fill="black" stroke="black" points="282.42,-226.22 272.3,-223.07 278.25,-231.84 282.42,-226.22"/>
        </g>
        <!-- mrs.domain.model.reservation.reservation.ReservationList -->
        <g id="node19" class="node">
            <title>mrs.domain.model.reservation.reservation.ReservationList</title>
            <polygon fill="#eedd82" stroke="black" points="568,-456 464,-456 464,-418 568,-418 568,-456"/>
            <text text-anchor="middle" x="516" y="-440.8" font-family="Times New Roman,serif" font-size="14.00">予約一覧
            </text>
            <text text-anchor="middle" x="516" y="-425.8" font-family="Times New Roman,serif" font-size="14.00">
                ReservationList
            </text>
        </g>
        <!-- mrs.domain.model.reservation.reservation.ReservationList&#45;&gt;mrs.domain.model.reservation.reservation.Reservation -->
        <g id="edge26" class="edge">
            <title>mrs.domain.model.reservation.reservation.ReservationList&#45;&gt;mrs.domain.model.reservation.reservation.Reservation</title>
            <path fill="none" stroke="black" d="M507.32,-417.99C502.01,-406.97 495.11,-392.66 489.14,-380.27"/>
            <polygon fill="black" stroke="black" points="492.3,-378.75 484.8,-371.26 485.99,-381.79 492.3,-378.75"/>
        </g>
        <!-- mrs.domain.model.reservation.reservation.ReservedDate -->
        <g id="node20" class="node">
            <title>mrs.domain.model.reservation.reservation.ReservedDate</title>
            <polygon fill="#eedd82" stroke="black" points="451.5,-149 356.5,-149 356.5,-111 451.5,-111 451.5,-149"/>
            <text text-anchor="middle" x="404" y="-133.8" font-family="Times New Roman,serif" font-size="14.00">予約日
            </text>
            <text text-anchor="middle" x="404" y="-118.8" font-family="Times New Roman,serif" font-size="14.00">
                ReservedDate
            </text>
        </g>
        <!-- mrs.domain.model.reservation.room.ReservableRoom&#45;&gt;mrs.domain.model.facility.room.MeetingRoom -->
        <g id="edge27" class="edge">
            <title>mrs.domain.model.reservation.room.ReservableRoom&#45;&gt;mrs.domain.model.facility.room.MeetingRoom
            </title>
            <path fill="none" stroke="black" d="M188.98,-297.04C169.18,-306.48 145.74,-318.13 126.3,-328.19"/>
            <polygon fill="black" stroke="black" points="124.64,-325.11 117.38,-332.83 127.87,-331.31 124.64,-325.11"/>
        </g>
        <!-- mrs.domain.model.reservation.room.ReservableRoom&#45;&gt;mrs.domain.model.reservation.reservation.Reservation -->
        <g id="edge28" class="edge">
            <title>mrs.domain.model.reservation.room.ReservableRoom&#45;&gt;mrs.domain.model.reservation.reservation.Reservation</title>
            <path fill="none" stroke="black" d="M286.75,-297.13C328.22,-309.68 384.31,-326.11 424.69,-337.51"/>
            <polygon fill="black" stroke="black" points="423.76,-340.88 434.34,-340.22 425.66,-334.15 423.76,-340.88"/>
        </g>
        <!-- mrs.domain.model.reservation.room.ReservableRoom&#45;&gt;mrs.domain.model.reservation.room.ReservableRoomId -->
        <g id="edge29" class="edge">
            <title>mrs.domain.model.reservation.room.ReservableRoom&#45;&gt;mrs.domain.model.reservation.room.ReservableRoomId</title>
            <path fill="none" stroke="black" d="M234.79,-258.83C236.39,-251.13 238.3,-241.97 240.08,-233.42"/>
            <polygon fill="black" stroke="black" points="243.55,-233.92 242.16,-223.41 236.7,-232.49 243.55,-233.92"/>
        </g>
        <!-- mrs.domain.model.reservation.room.ReservableRoomId&#45;&gt;mrs.domain.model.facility.room.RoomId -->
        <g id="edge30" class="edge">
            <title>mrs.domain.model.reservation.room.ReservableRoomId&#45;&gt;mrs.domain.model.facility.room.RoomId
            </title>
            <path fill="none" stroke="black" d="M205.12,-184.83C183.45,-175.2 156.66,-163.29 133.79,-153.13"/>
            <polygon fill="black" stroke="black" points="135.15,-149.9 124.59,-149.04 132.3,-156.3 135.15,-149.9"/>
        </g>
        <!-- mrs.domain.model.reservation.room.ReservableRoomId&#45;&gt;mrs.domain.model.reservation.reservation.ReservedDate -->
        <g id="edge31" class="edge">
            <title>mrs.domain.model.reservation.room.ReservableRoomId&#45;&gt;mrs.domain.model.reservation.reservation.ReservedDate</title>
            <path fill="none" stroke="black" d="M285.87,-184.83C306.91,-175.24 332.9,-163.4 355.14,-153.27"/>
            <polygon fill="black" stroke="black" points="356.77,-156.37 364.42,-149.04 353.87,-150 356.77,-156.37"/>
        </g>
        <!-- mrs.domain.model.reservation.room.ReservableRoomList -->
        <g id="node24" class="node">
            <title>mrs.domain.model.reservation.room.ReservableRoomList</title>
            <polygon fill="#eedd82" stroke="black" points="332,-371 160,-371 160,-333 332,-333 332,-371"/>
            <text text-anchor="middle" x="246" y="-355.8" font-family="Times New Roman,serif" font-size="14.00">
                予約可能会議室一覧
            </text>
            <text text-anchor="middle" x="246" y="-340.8" font-family="Times New Roman,serif" font-size="14.00">
                ReservableRoomList
            </text>
        </g>
        <!-- mrs.domain.model.reservation.room.ReservableRoomList&#45;&gt;mrs.domain.model.reservation.room.ReservableRoom -->
        <g id="edge32" class="edge">
            <title>mrs.domain.model.reservation.room.ReservableRoomList&#45;&gt;mrs.domain.model.reservation.room.ReservableRoom</title>
            <path fill="none" stroke="black" d="M242.21,-332.83C240.61,-325.13 238.7,-315.97 236.92,-307.42"/>
            <polygon fill="black" stroke="black" points="240.3,-306.49 234.84,-297.41 233.45,-307.92 240.3,-306.49"/>
        </g>
        <!-- mrs.domain.model.user.member.Member&#45;&gt;mrs.domain.model.auth.user.Password -->
        <g id="edge33" class="edge">
            <title>mrs.domain.model.user.member.Member&#45;&gt;mrs.domain.model.auth.user.Password</title>
            <path fill="none" stroke="black"
                  d="M677.62,-517.86C702.24,-514.03 736.12,-505.58 760,-487 791.47,-462.53 771.61,-430.16 806,-410 833.23,-394.04 1060.42,-413.02 1090,-402 1103.46,-396.99 1116.13,-387.63 1126.33,-378.43"/>
            <polygon fill="black" stroke="black"
                     points="1128.78,-380.92 1133.61,-371.49 1123.96,-375.85 1128.78,-380.92"/>
        </g>
        <!-- mrs.domain.model.user.member.Member&#45;&gt;mrs.domain.model.auth.user.RoleName -->
        <g id="edge34" class="edge">
            <title>mrs.domain.model.user.member.Member&#45;&gt;mrs.domain.model.auth.user.RoleName</title>
            <path fill="none" stroke="black"
                  d="M677.64,-513.91C721.49,-504.08 795.56,-487.46 797,-487 881.04,-460.09 893.82,-428.95 980,-410 1030.17,-398.97 1162.92,-420.08 1211,-402 1224.44,-396.94 1237.11,-387.58 1247.31,-378.38"/>
            <polygon fill="black" stroke="black"
                     points="1249.76,-380.88 1254.6,-371.46 1244.94,-375.81 1249.76,-380.88"/>
        </g>
        <!-- mrs.domain.model.user.member.Member&#45;&gt;mrs.domain.model.auth.user.User -->
        <g id="edge35" class="edge">
            <title>mrs.domain.model.user.member.Member&#45;&gt;mrs.domain.model.auth.user.User</title>
            <path fill="none" stroke="black"
                  d="M677.82,-512.88C701.02,-507.2 733.3,-499.8 762,-495 793.76,-489.69 802.2,-492.03 834,-487 902.13,-476.23 980.32,-459.23 1027.92,-448.35"/>
            <polygon fill="black" stroke="black"
                     points="1028.93,-451.71 1037.89,-446.06 1027.36,-444.89 1028.93,-451.71"/>
        </g>
        <!-- mrs.domain.model.user.member.Member&#45;&gt;mrs.domain.model.auth.user.UserId -->
        <g id="edge36" class="edge">
            <title>mrs.domain.model.user.member.Member&#45;&gt;mrs.domain.model.auth.user.UserId</title>
            <path fill="none" stroke="black"
                  d="M677.79,-512.02C692.77,-506.61 710.14,-498.48 723,-487 752.57,-460.6 734.02,-430.41 768,-410 787.16,-398.49 948.1,-409.92 969,-402 982.43,-396.91 995.09,-387.54 1005.3,-378.35"/>
            <polygon fill="black" stroke="black"
                     points="1007.75,-380.85 1012.59,-371.43 1002.93,-375.77 1007.75,-380.85"/>
        </g>
        <!-- mrs.domain.model.user.member.Member&#45;&gt;mrs.domain.model.auth.user.UserName -->
        <g id="edge37" class="edge">
            <title>mrs.domain.model.user.member.Member&#45;&gt;mrs.domain.model.auth.user.UserName</title>
            <path fill="none" stroke="black"
                  d="M670.78,-502.95C676.49,-498.14 682.27,-492.69 687,-487 712.07,-456.87 699.4,-434.5 730,-410 771.63,-376.68 832.28,-362.82 874.23,-357.07"/>
            <polygon fill="black" stroke="black" points="874.72,-360.54 884.2,-355.81 873.84,-353.59 874.72,-360.54"/>
        </g>
        <!-- mrs.domain.model.user.member.Member&#45;&gt;mrs.domain.model.contact.ContactPerson -->
        <g id="edge38" class="edge">
            <title>mrs.domain.model.user.member.Member&#45;&gt;mrs.domain.model.contact.ContactPerson</title>
            <path fill="none" stroke="black"
                  d="M614.32,-519.36C547.24,-515.59 393.04,-505.17 344,-487 328.68,-481.32 313.46,-471.71 300.99,-462.49"/>
            <polygon fill="black" stroke="black" points="302.9,-459.54 292.83,-456.23 298.63,-465.09 302.9,-459.54"/>
        </g>
        <!-- mrs.domain.model.user.member.Member&#45;&gt;mrs.domain.model.reservation.reservation.Reservation -->
        <g id="edge39" class="edge">
            <title>mrs.domain.model.user.member.Member&#45;&gt;mrs.domain.model.reservation.reservation.Reservation
            </title>
            <path fill="none" stroke="black"
                  d="M614.29,-520.1C565.35,-517.96 474.95,-510.82 455,-487 430.03,-457.19 446.01,-410.09 460.5,-380.4"/>
            <polygon fill="black" stroke="black" points="463.66,-381.91 465.1,-371.42 457.43,-378.72 463.66,-381.91"/>
        </g>
        <!-- mrs.domain.model.user.member.MemberId -->
        <g id="node26" class="node">
            <title>mrs.domain.model.user.member.MemberId</title>
            <polygon fill="#eedd82" stroke="black" points="678,-456 592,-456 592,-418 678,-418 678,-456"/>
            <text text-anchor="middle" x="635" y="-440.8" font-family="Times New Roman,serif" font-size="14.00">会員番号
            </text>
            <text text-anchor="middle" x="635" y="-425.8" font-family="Times New Roman,serif" font-size="14.00">
                MemberId
            </text>
        </g>
        <!-- mrs.domain.model.user.member.Member&#45;&gt;mrs.domain.model.user.member.MemberId -->
        <g id="edge40" class="edge">
            <title>mrs.domain.model.user.member.Member&#45;&gt;mrs.domain.model.user.member.MemberId</title>
            <path fill="none" stroke="black" d="M643.61,-502.99C642.2,-492.3 640.37,-478.5 638.76,-466.37"/>
            <polygon fill="black" stroke="black" points="642.2,-465.71 637.42,-456.26 635.26,-466.63 642.2,-465.71"/>
        </g>
        <!-- mrs.domain.model.user.staff.Staff -->
        <g id="node27" class="node">
            <title>mrs.domain.model.user.staff.Staff</title>
            <polygon fill="#eedd82" stroke="black" points="860,-541 774,-541 774,-503 860,-503 860,-541"/>
            <text text-anchor="middle" x="817" y="-525.8" font-family="Times New Roman,serif" font-size="14.00">スタッフ
            </text>
            <text text-anchor="middle" x="817" y="-510.8" font-family="Times New Roman,serif" font-size="14.00">Staff
            </text>
        </g>
        <!-- mrs.domain.model.user.staff.Staff&#45;&gt;mrs.domain.model.auth.user.Password -->
        <g id="edge41" class="edge">
            <title>mrs.domain.model.user.staff.Staff&#45;&gt;mrs.domain.model.auth.user.Password</title>
            <path fill="none" stroke="black"
                  d="M850.64,-502.95C857.55,-499.87 864.89,-497.01 872,-495 903.41,-486.13 917.13,-503.99 945,-487 980.05,-465.63 960.7,-430.94 996,-410 1014.03,-399.31 1070.57,-409.87 1090,-402 1103.31,-396.61 1115.96,-387.19 1126.18,-378.04"/>
            <polygon fill="black" stroke="black" points="1128.6,-380.57 1133.49,-371.17 1123.8,-375.47 1128.6,-380.57"/>
        </g>
        <!-- mrs.domain.model.user.staff.Staff&#45;&gt;mrs.domain.model.auth.user.RoleName -->
        <g id="edge42" class="edge">
            <title>mrs.domain.model.user.staff.Staff&#45;&gt;mrs.domain.model.auth.user.RoleName</title>
            <path fill="none" stroke="black"
                  d="M850.29,-502.87C857.29,-499.75 864.75,-496.9 872,-495 896.14,-488.67 962.81,-500.18 984,-487 1017.65,-466.06 995.06,-430.48 1029,-410 1046.33,-399.54 1192.09,-409.21 1211,-402 1224.42,-396.88 1237.08,-387.51 1247.29,-378.32"/>
            <polygon fill="black" stroke="black"
                     points="1249.73,-380.82 1254.58,-371.4 1244.92,-375.74 1249.73,-380.82"/>
        </g>
        <!-- mrs.domain.model.user.staff.Staff&#45;&gt;mrs.domain.model.auth.user.User -->
        <g id="edge43" class="edge">
            <title>mrs.domain.model.user.staff.Staff&#45;&gt;mrs.domain.model.auth.user.User</title>
            <path fill="none" stroke="black"
                  d="M849.97,-502.9C857.05,-499.73 864.63,-496.86 872,-495 904.8,-486.73 993.17,-500.92 1024,-487 1035.25,-481.92 1045.26,-472.92 1053.18,-464.01"/>
            <polygon fill="black" stroke="black"
                     points="1055.89,-466.23 1059.6,-456.3 1050.51,-461.75 1055.89,-466.23"/>
        </g>
        <!-- mrs.domain.model.user.staff.Staff&#45;&gt;mrs.domain.model.auth.user.UserId -->
        <g id="edge44" class="edge">
            <title>mrs.domain.model.user.staff.Staff&#45;&gt;mrs.domain.model.auth.user.UserId</title>
            <path fill="none" stroke="black"
                  d="M852.35,-503C858.8,-500.09 865.53,-497.29 872,-495 886.23,-489.97 892.57,-495.56 905,-487 939.22,-463.44 929.01,-439.76 958,-410 962.22,-405.67 964.21,-405.69 969,-402 979.07,-394.24 989.88,-385.53 999.52,-377.63"/>
            <polygon fill="black" stroke="black" points="1001.8,-380.28 1007.29,-371.22 997.35,-374.88 1001.8,-380.28"/>
        </g>
        <!-- mrs.domain.model.user.staff.Staff&#45;&gt;mrs.domain.model.auth.user.UserName -->
        <g id="edge45" class="edge">
            <title>mrs.domain.model.user.staff.Staff&#45;&gt;mrs.domain.model.auth.user.UserName</title>
            <path fill="none" stroke="black"
                  d="M854.02,-502.86C860.64,-498.37 867.02,-493.07 872,-487 897.53,-455.88 910.78,-410.45 917.06,-381.3"/>
            <polygon fill="black" stroke="black" points="920.52,-381.85 919.07,-371.36 913.66,-380.47 920.52,-381.85"/>
        </g>
        <!-- mrs.domain.model.user.staff.Staff&#45;&gt;mrs.domain.model.reservation.reservation.Reservation -->
        <g id="edge46" class="edge">
            <title>mrs.domain.model.user.staff.Staff&#45;&gt;mrs.domain.model.reservation.reservation.Reservation
            </title>
            <path fill="none" stroke="black"
                  d="M801.25,-502.77C778.95,-478.1 735.75,-434.36 690,-410 638.52,-382.59 572.92,-367.65 528,-360.03"/>
            <polygon fill="black" stroke="black" points="528.33,-356.53 517.89,-358.38 527.2,-363.44 528.33,-356.53"/>
        </g>
    </g>
</svg>
