<?xml version="1.0" encoding="UTF-8" standalone="no"?>
<!DOCTYPE svg PUBLIC "-//W3C//DTD SVG 1.1//EN"
 "http://www.w3.org/Graphics/SVG/1.1/DTD/svg11.dtd">
<!-- Generated by graphviz version 2.47.3 (20210619.1520)
 -->
<!-- Title: 区分図 Pages: 1 -->
<svg width="98pt" height="136pt"
 viewBox="0.00 0.00 98.00 136.00" xmlns="http://www.w3.org/2000/svg" xmlns:xlink="http://www.w3.org/1999/xlink">
<g id="graph0" class="graph" transform="scale(1 1) rotate(0) translate(4 109)">
<title>区分図</title>
<polygon fill="white" stroke="transparent" points="-4,27 -4,-109 94,-109 94,27 -4,27"/>
<text text-anchor="middle" x="45" y="15.2" font-family="Times,serif" font-size="14.00">区分図</text>
<!-- mrs.domain.model.auth.user.RoleName -->
<g id="node1" class="node">
<title>mrs.domain.model.auth.user.RoleName</title>
<polygon fill="lemonchiffon" stroke="black" points="90.24,-105.14 0.24,-105.14 0.24,-0.14 90.24,-0.14 90.24,-105.14"/>
<text text-anchor="start" x="10.24" y="-87.44" font-family="Times,serif" font-size="14.00">利用者区分</text>
<text text-anchor="start" x="15.24" y="-72.44" font-family="Times,serif" font-size="14.00">RoleName</text>
<polygon fill="none" stroke="black" points="8.24,-45.64 8.24,-66.64 82.24,-66.64 82.24,-45.64 8.24,-45.64"/>
<text text-anchor="start" x="24.24" y="-52.44" font-family="Times,serif" font-size="14.00">管理者</text>
<polygon fill="none" stroke="black" points="8.24,-24.64 8.24,-45.64 82.24,-45.64 82.24,-24.64 8.24,-24.64"/>
<text text-anchor="start" x="24.24" y="-31.44" font-family="Times,serif" font-size="14.00">ゲスト</text>
<polygon fill="none" stroke="black" points="8.24,-3.64 8.24,-24.64 82.24,-24.64 82.24,-3.64 8.24,-3.64"/>
<text text-anchor="start" x="31.24" y="-10.44" font-family="Times,serif" font-size="14.00">一般</text>
</g>
</g>
</svg>
