<?xml version="1.0" encoding="UTF-8" standalone="no"?>
<!DOCTYPE svg PUBLIC "-//W3C//DTD SVG 1.1//EN"
 "http://www.w3.org/Graphics/SVG/1.1/DTD/svg11.dtd">
<!-- Generated by graphviz version 3.0.0 (20220226.1711)
 -->
<!-- Title: 区分図 Pages: 1 -->
<svg width="115pt" height="136pt"
     viewBox="0.00 0.00 115.00 136.00" xmlns="http://www.w3.org/2000/svg">
<g id="graph0" class="graph" transform="scale(1 1) rotate(0) translate(4 109)">
    <title>区分図</title>
    <polygon fill="white" stroke="transparent" points="-4,27 -4,-109 111,-109 111,27 -4,27"/>
    <text text-anchor="middle" x="53.5" y="15.2" font-family="Times New Roman,serif" font-size="14.00">区分図</text>
    <!-- mrs.domain.model.auth.user.RoleName -->
    <g id="node1" class="node">
        <title>mrs.domain.model.auth.user.RoleName</title>
        <polygon fill="lemonchiffon" stroke="black"
                 points="106.64,-104.8 -0.36,-104.8 -0.36,0.2 106.64,0.2 106.64,-104.8"/>
        <text text-anchor="start" x="10.14" y="-87.1" font-family="Times New Roman,serif" font-size="14.00">利用者区分
        </text>
        <text text-anchor="start" x="24.14" y="-72.1" font-family="Times New Roman,serif" font-size="14.00">RoleName
        </text>
        <polygon fill="none" stroke="black" points="8.14,-45.3 8.14,-66.3 99.14,-66.3 99.14,-45.3 8.14,-45.3"/>
        <text text-anchor="start" x="27.64" y="-52.1" font-family="Times New Roman,serif" font-size="14.00">管理者
        </text>
        <polygon fill="none" stroke="black" points="8.14,-24.3 8.14,-45.3 99.14,-45.3 99.14,-24.3 8.14,-24.3"/>
        <text text-anchor="start" x="27.64" y="-31.1" font-family="Times New Roman,serif" font-size="14.00">ゲスト</text>
        <polygon fill="none" stroke="black" points="8.14,-3.3 8.14,-24.3 99.14,-24.3 99.14,-3.3 8.14,-3.3"/>
        <text text-anchor="start" x="36.14" y="-10.1" font-family="Times New Roman,serif" font-size="14.00">一般</text>
    </g>
</g>
</svg>
