<?xml version="1.0" encoding="UTF-8" standalone="no"?>
<!DOCTYPE svg PUBLIC "-//W3C//DTD SVG 1.1//EN"
        "http://www.w3.org/Graphics/SVG/1.1/DTD/svg11.dtd">
<!-- Generated by graphviz version 3.0.0 (20220226.1711)
 -->
<!-- Title: コンポーネント関連図 Pages: 1 -->
<svg width="388pt" height="281pt"
     viewBox="0.00 0.00 388.00 281.00" xmlns="http://www.w3.org/2000/svg">
    <g id="graph0" class="graph" transform="scale(1 1) rotate(0) translate(4 254)">
        <title>コンポーネント関連図</title>
        <polygon fill="white" stroke="transparent" points="-4,27 -4,-254 384,-254 384,27 -4,27"/>
        <text text-anchor="middle" x="190" y="15.2" font-family="Times New Roman,serif" font-size="14.00">コンポーネント関連図
        </text>
        <!-- SPRING_CONTROLLER -->
        <g id="node1" class="node">
            <title>SPRING_CONTROLLER</title>
            <polygon fill="#eedd82" stroke="black"
                     points="139.63,-53.32 66.63,-53.32 66.63,-49.32 62.63,-49.32 62.63,-45.32 66.63,-45.32 66.63,-25.32 62.63,-25.32 62.63,-21.32 66.63,-21.32 66.63,-17.32 139.63,-17.32 139.63,-53.32"/>
            <polyline fill="none" stroke="black" points="66.63,-49.32 70.63,-49.32 70.63,-45.32 66.63,-45.32 "/>
            <polyline fill="none" stroke="black" points="66.63,-25.32 70.63,-25.32 70.63,-21.32 66.63,-21.32 "/>
            <text text-anchor="middle" x="103.13" y="-31.62" font-family="Times New Roman,serif" font-size="14.00">
                Controller
            </text>
        </g>
        <!-- mrs.infrastructure.datasource.Message -->
        <g id="node3" class="node">
            <title>mrs.infrastructure.datasource.Message</title>
            <polygon fill="lightgrey" stroke="black"
                     points="232.83,-36.16 167.83,-36.16 167.83,-0.16 232.83,-0.16 232.83,-36.16"/>
            <text text-anchor="middle" x="200.33" y="-14.46" font-family="Times New Roman,serif" font-size="14.00">
                Message
            </text>
        </g>
        <!-- SPRING_CONTROLLER&#45;&gt;mrs.infrastructure.datasource.Message -->
        <g id="edge9" class="edge">
            <title>SPRING_CONTROLLER&#45;&gt;mrs.infrastructure.datasource.Message</title>
            <path fill="none" stroke="black" d="M139.88,-28.83C145.73,-27.8 151.83,-26.72 157.81,-25.67"/>
            <polygon fill="black" stroke="black" points="158.44,-29.11 167.68,-23.93 157.22,-22.22 158.44,-29.11"/>
            <text text-anchor="middle" x="145.34" y="-31.05" font-family="Times New Roman,serif" font-size="14.00">3
            </text>
        </g>
        <!-- SPRING_SERVICE -->
        <g id="node8" class="node">
            <title>SPRING_SERVICE</title>
            <polygon fill="#eedd82" stroke="black"
                     points="199.82,-145.86 141.82,-145.86 141.82,-141.86 137.82,-141.86 137.82,-137.86 141.82,-137.86 141.82,-117.86 137.82,-117.86 137.82,-113.86 141.82,-113.86 141.82,-109.86 199.82,-109.86 199.82,-145.86"/>
            <polyline fill="none" stroke="black" points="141.82,-141.86 145.82,-141.86 145.82,-137.86 141.82,-137.86 "/>
            <polyline fill="none" stroke="black" points="141.82,-117.86 145.82,-117.86 145.82,-113.86 141.82,-113.86 "/>
            <text text-anchor="middle" x="170.82" y="-124.16" font-family="Times New Roman,serif" font-size="14.00">
                Service
            </text>
        </g>
        <!-- SPRING_CONTROLLER&#45;&gt;SPRING_SERVICE -->
        <g id="edge1" class="edge">
            <title>SPRING_CONTROLLER&#45;&gt;SPRING_SERVICE</title>
            <path fill="none" stroke="black" d="M116.5,-53.6C126.51,-67.29 140.36,-86.21 151.56,-101.53"/>
            <polygon fill="black" stroke="black" points="148.74,-103.61 157.47,-109.61 154.39,-99.48 148.74,-103.61"/>
            <text text-anchor="middle" x="130.53" y="-81.37" font-family="Times New Roman,serif" font-size="14.00">7
            </text>
        </g>
        <!-- SPRING_REPOSITORY -->
        <g id="node2" class="node">
            <title>SPRING_REPOSITORY</title>
            <polygon fill="#eedd82" stroke="black"
                     points="231.18,-250.44 152.18,-250.44 152.18,-246.44 148.18,-246.44 148.18,-242.44 152.18,-242.44 152.18,-222.44 148.18,-222.44 148.18,-218.44 152.18,-218.44 152.18,-214.44 231.18,-214.44 231.18,-250.44"/>
            <polyline fill="none" stroke="black" points="152.18,-246.44 156.18,-246.44 156.18,-242.44 152.18,-242.44 "/>
            <polyline fill="none" stroke="black" points="152.18,-222.44 156.18,-222.44 156.18,-218.44 152.18,-218.44 "/>
            <text text-anchor="middle" x="191.68" y="-228.74" font-family="Times New Roman,serif" font-size="14.00">
                Repository
            </text>
        </g>
        <!-- mrs.application.service.auth.UserRepository -->
        <g id="node4" class="node">
            <title>mrs.application.service.auth.UserRepository</title>
            <ellipse fill="lightgrey" stroke="black" cx="100.28" cy="-227.79" rx="43.1" ry="18"/>
            <text text-anchor="middle" x="100.28" y="-225.59" font-family="Times New Roman,serif" font-size="9.00">
                UserRepository
            </text>
        </g>
        <!-- SPRING_REPOSITORY&#45;&gt;mrs.application.service.auth.UserRepository -->
        <g id="edge11" class="edge">
            <title>SPRING_REPOSITORY&#45;&gt;mrs.application.service.auth.UserRepository</title>
            <path fill="none" stroke="black" d="M152.12,-230.43C152.03,-230.42 151.94,-230.42 151.85,-230.41"/>
            <polygon fill="black" stroke="black" points="153.55,-227 143.39,-229.98 153.2,-233.99 153.55,-227"/>
        </g>
        <!-- mrs.application.service.facility.room.MeetingRoomRepository -->
        <g id="node5" class="node">
            <title>mrs.application.service.facility.room.MeetingRoomRepository</title>
            <ellipse fill="lightgrey" stroke="black" cx="303.02" cy="-202.82" rx="63.52" ry="18"/>
            <text text-anchor="middle" x="303.02" y="-200.62" font-family="Times New Roman,serif" font-size="9.00">
                MeetingRoomRepository
            </text>
        </g>
        <!-- SPRING_REPOSITORY&#45;&gt;mrs.application.service.facility.room.MeetingRoomRepository -->
        <g id="edge10" class="edge">
            <title>SPRING_REPOSITORY&#45;&gt;mrs.application.service.facility.room.MeetingRoomRepository</title>
            <path fill="none" stroke="black" d="M231.25,-221.91C236.2,-220.6 241.34,-219.23 246.48,-217.86"/>
            <polygon fill="black" stroke="black" points="247.59,-221.19 256.35,-215.24 245.79,-214.43 247.59,-221.19"/>
        </g>
        <!-- mrs.application.service.reservation.reservation.ReservationRepository -->
        <g id="node6" class="node">
            <title>mrs.application.service.reservation.reservation.ReservationRepository</title>
            <ellipse fill="lightgrey" stroke="black" cx="58.75" cy="-182.32" rx="58.13" ry="18"/>
            <text text-anchor="middle" x="58.75" y="-180.12" font-family="Times New Roman,serif" font-size="9.00">
                ReservationRepository
            </text>
        </g>
        <!-- SPRING_REPOSITORY&#45;&gt;mrs.application.service.reservation.reservation.ReservationRepository -->
        <g id="edge6" class="edge">
            <title>SPRING_REPOSITORY&#45;&gt;mrs.application.service.reservation.reservation.ReservationRepository
            </title>
            <path fill="none" stroke="black" d="M152.16,-217.54C137.59,-212.05 120.95,-205.77 105.79,-200.05"/>
            <polygon fill="black" stroke="black" points="106.66,-196.64 96.07,-196.39 104.19,-203.19 106.66,-196.64"/>
        </g>
        <!-- mrs.application.service.reservation.room.ReservableRoomRepository -->
        <g id="node7" class="node">
            <title>mrs.application.service.reservation.room.ReservableRoomRepository</title>
            <ellipse fill="lightgrey" stroke="black" cx="311.59" cy="-128.47" rx="68.91" ry="18"/>
            <text text-anchor="middle" x="311.59" y="-126.27" font-family="Times New Roman,serif" font-size="9.00">
                ReservableRoomRepository
            </text>
        </g>
        <!-- SPRING_REPOSITORY&#45;&gt;mrs.application.service.reservation.room.ReservableRoomRepository -->
        <g id="edge4" class="edge">
            <title>SPRING_REPOSITORY&#45;&gt;mrs.application.service.reservation.room.ReservableRoomRepository</title>
            <path fill="none" stroke="black" d="M212.57,-214.33C232.29,-197.23 262,-171.47 283.73,-152.63"/>
            <polygon fill="black" stroke="black" points="286.08,-155.22 291.34,-146.02 281.5,-149.93 286.08,-155.22"/>
        </g>
        <!-- SPRING_SERVICE&#45;&gt;mrs.infrastructure.datasource.Message -->
        <g id="edge5" class="edge">
            <title>SPRING_SERVICE&#45;&gt;mrs.infrastructure.datasource.Message</title>
            <path fill="none" stroke="black" d="M175.69,-109.75C180.35,-92.44 187.43,-66.1 192.81,-46.1"/>
            <polygon fill="black" stroke="black" points="196.23,-46.87 195.45,-36.31 189.47,-45.05 196.23,-46.87"/>
            <text text-anchor="middle" x="180.75" y="-81.72" font-family="Times New Roman,serif" font-size="14.00">4
            </text>
        </g>
        <!-- SPRING_SERVICE&#45;&gt;mrs.application.service.auth.UserRepository -->
        <g id="edge8" class="edge">
            <title>SPRING_SERVICE&#45;&gt;mrs.application.service.auth.UserRepository</title>
            <path fill="none" stroke="black" d="M157.88,-146.19C146.91,-161.73 131.03,-184.22 118.73,-201.66"/>
            <polygon fill="black" stroke="black" points="115.57,-200.06 112.66,-210.25 121.29,-204.1 115.57,-200.06"/>
            <text text-anchor="middle" x="134.8" y="-177.72" font-family="Times New Roman,serif" font-size="14.00">2
            </text>
        </g>
        <!-- SPRING_SERVICE&#45;&gt;mrs.application.service.facility.room.MeetingRoomRepository -->
        <g id="edge2" class="edge">
            <title>SPRING_SERVICE&#45;&gt;mrs.application.service.facility.room.MeetingRoomRepository</title>
            <path fill="none" stroke="black" d="M199.83,-144.31C219.16,-155.27 244.75,-169.78 265.61,-181.61"/>
            <polygon fill="black" stroke="black" points="264.1,-184.78 274.53,-186.67 267.56,-178.69 264.1,-184.78"/>
            <text text-anchor="middle" x="229.22" y="-166.76" font-family="Times New Roman,serif" font-size="14.00">2
            </text>
        </g>
        <!-- SPRING_SERVICE&#45;&gt;mrs.application.service.reservation.reservation.ReservationRepository -->
        <g id="edge3" class="edge">
            <title>SPRING_SERVICE&#45;&gt;mrs.application.service.reservation.reservation.ReservationRepository</title>
            <path fill="none" stroke="black" d="M141.66,-142.03C128.68,-148.33 113.18,-155.87 99.11,-162.7"/>
            <polygon fill="black" stroke="black" points="97.58,-159.56 90.11,-167.08 100.64,-165.85 97.58,-159.56"/>
        </g>
        <!-- SPRING_SERVICE&#45;&gt;mrs.application.service.reservation.room.ReservableRoomRepository -->
        <g id="edge7" class="edge">
            <title>SPRING_SERVICE&#45;&gt;mrs.application.service.reservation.room.ReservableRoomRepository</title>
            <path fill="none" stroke="black" d="M199.98,-127.99C209.64,-128.03 220.89,-128.08 232.46,-128.13"/>
            <polygon fill="black" stroke="black" points="232.67,-131.63 242.68,-128.17 232.7,-124.63 232.67,-131.63"/>
            <text text-anchor="middle" x="212.72" y="-131.86" font-family="Times New Roman,serif" font-size="14.00">2
            </text>
        </g>
    </g>
</svg>
