<?xml version="1.0" encoding="UTF-8" standalone="no"?>
<!DOCTYPE svg PUBLIC "-//W3C//DTD SVG 1.1//EN"
        "http://www.w3.org/Graphics/SVG/1.1/DTD/svg11.dtd">
<!-- Generated by graphviz version 3.0.0 (20220226.1711)
 -->
<!-- Title: コンポーネント関連図 Pages: 1 -->
<svg width="520pt" height="365pt"
     viewBox="0.00 0.00 520.00 365.00" xmlns="http://www.w3.org/2000/svg">
    <g id="graph0" class="graph" transform="scale(1 1) rotate(0) translate(4 338)">
        <title>コンポーネント関連図</title>
        <polygon fill="white" stroke="transparent" points="-4,27 -4,-338 516,-338 516,27 -4,27"/>
        <text text-anchor="middle" x="256" y="15.2" font-family="Times New Roman,serif" font-size="14.00">コンポーネント関連図
        </text>
        <!-- SPRING_CONTROLLER -->
        <g id="node1" class="node">
            <title>SPRING_CONTROLLER</title>
            <polygon fill="#eedd82" stroke="black"
                     points="73.48,-197.54 0.48,-197.54 0.48,-193.54 -3.52,-193.54 -3.52,-189.54 0.48,-189.54 0.48,-169.54 -3.52,-169.54 -3.52,-165.54 0.48,-165.54 0.48,-161.54 73.48,-161.54 73.48,-197.54"/>
            <polyline fill="none" stroke="black" points="0.48,-193.54 4.48,-193.54 4.48,-189.54 0.48,-189.54 "/>
            <polyline fill="none" stroke="black" points="0.48,-169.54 4.48,-169.54 4.48,-165.54 0.48,-165.54 "/>
            <text text-anchor="middle" x="36.98" y="-175.84" font-family="Times New Roman,serif" font-size="14.00">
                Controller
            </text>
        </g>
        <!-- SPRING_SERVICE -->
        <g id="node7" class="node">
            <title>SPRING_SERVICE</title>
            <polygon fill="#eedd82" stroke="black"
                     points="214.04,-183.49 156.04,-183.49 156.04,-179.49 152.04,-179.49 152.04,-175.49 156.04,-175.49 156.04,-155.49 152.04,-155.49 152.04,-151.49 156.04,-151.49 156.04,-147.49 214.04,-147.49 214.04,-183.49"/>
            <polyline fill="none" stroke="black" points="156.04,-179.49 160.04,-179.49 160.04,-175.49 156.04,-175.49 "/>
            <polyline fill="none" stroke="black" points="156.04,-155.49 160.04,-155.49 160.04,-151.49 156.04,-151.49 "/>
            <text text-anchor="middle" x="185.04" y="-161.79" font-family="Times New Roman,serif" font-size="14.00">
                Service
            </text>
        </g>
        <!-- SPRING_CONTROLLER&#45;&gt;SPRING_SERVICE -->
        <g id="edge1" class="edge">
            <title>SPRING_CONTROLLER&#45;&gt;SPRING_SERVICE</title>
            <path fill="none" stroke="black" d="M73.58,-176.07C95.46,-173.99 123.26,-171.35 145.63,-169.23"/>
            <polygon fill="black" stroke="black" points="146.17,-172.69 155.8,-168.26 145.51,-165.72 146.17,-172.69"/>
            <text text-anchor="middle" x="102.6" y="-176.45" font-family="Times New Roman,serif" font-size="14.00">11
            </text>
        </g>
        <!-- mrs.infrastructure.datasource.Message -->
        <g id="node9" class="node">
            <title>mrs.infrastructure.datasource.Message</title>
            <polygon fill="lightgrey" stroke="black"
                     points="95.21,-99.95 30.21,-99.95 30.21,-63.95 95.21,-63.95 95.21,-99.95"/>
            <text text-anchor="middle" x="62.71" y="-78.25" font-family="Times New Roman,serif" font-size="14.00">
                Message
            </text>
        </g>
        <!-- SPRING_CONTROLLER&#45;&gt;mrs.infrastructure.datasource.Message -->
        <g id="edge11" class="edge">
            <title>SPRING_CONTROLLER&#45;&gt;mrs.infrastructure.datasource.Message</title>
            <path fill="none" stroke="black" d="M41.82,-161.18C45.59,-146.87 50.9,-126.74 55.22,-110.35"/>
            <polygon fill="black" stroke="black" points="58.72,-110.78 57.89,-100.22 51.96,-109 58.72,-110.78"/>
            <text text-anchor="middle" x="45.02" y="-139.57" font-family="Times New Roman,serif" font-size="14.00">5
            </text>
        </g>
        <!-- mrs.application.service.contact.ContactRepository -->
        <g id="node2" class="node">
            <title>mrs.application.service.contact.ContactRepository</title>
            <ellipse fill="lightgrey" stroke="black" cx="120.92" cy="-292.46" rx="49.8" ry="18"/>
            <text text-anchor="middle" x="120.92" y="-290.26" font-family="Times New Roman,serif" font-size="9.00">
                ContactRepository
            </text>
        </g>
        <!-- mrs.application.service.facility.room.MeetingRoomRepository -->
        <g id="node3" class="node">
            <title>mrs.application.service.facility.room.MeetingRoomRepository</title>
            <ellipse fill="lightgrey" stroke="black" cx="273.85" cy="-87.92" rx="63.52" ry="18"/>
            <text text-anchor="middle" x="273.85" y="-85.72" font-family="Times New Roman,serif" font-size="9.00">
                MeetingRoomRepository
            </text>
        </g>
        <!-- mrs.application.service.reservation.reservation.ReservationRepository -->
        <g id="node4" class="node">
            <title>mrs.application.service.reservation.reservation.ReservationRepository</title>
            <ellipse fill="lightgrey" stroke="black" cx="333.01" cy="-260" rx="58.13" ry="18"/>
            <text text-anchor="middle" x="333.01" y="-257.8" font-family="Times New Roman,serif" font-size="9.00">
                ReservationRepository
            </text>
        </g>
        <!-- mrs.application.service.reservation.room.ReservableRoomRepository -->
        <g id="node5" class="node">
            <title>mrs.application.service.reservation.room.ReservableRoomRepository</title>
            <ellipse fill="lightgrey" stroke="black" cx="375.82" cy="-136.24" rx="68.91" ry="18"/>
            <text text-anchor="middle" x="375.82" y="-134.04" font-family="Times New Roman,serif" font-size="9.00">
                ReservableRoomRepository
            </text>
        </g>
        <!-- mrs.application.service.user.UserRepository -->
        <g id="node6" class="node">
            <title>mrs.application.service.user.UserRepository</title>
            <ellipse fill="lightgrey" stroke="black" cx="233.43" cy="-316.33" rx="43.1" ry="18"/>
            <text text-anchor="middle" x="233.43" y="-314.13" font-family="Times New Roman,serif" font-size="9.00">
                UserRepository
            </text>
        </g>
        <!-- SPRING_SERVICE&#45;&gt;mrs.application.service.contact.ContactRepository -->
        <g id="edge14" class="edge">
            <title>SPRING_SERVICE&#45;&gt;mrs.application.service.contact.ContactRepository</title>
            <path fill="none" stroke="black" d="M175.85,-183.68C165.03,-205.11 146.95,-240.91 134.51,-265.55"/>
            <polygon fill="black" stroke="black" points="131.26,-264.21 129.88,-274.71 137.51,-267.37 131.26,-264.21"/>
            <text text-anchor="middle" x="151.68" y="-228.42" font-family="Times New Roman,serif" font-size="14.00">2
            </text>
        </g>
        <!-- SPRING_SERVICE&#45;&gt;mrs.application.service.facility.room.MeetingRoomRepository -->
        <g id="edge9" class="edge">
            <title>SPRING_SERVICE&#45;&gt;mrs.application.service.facility.room.MeetingRoomRepository</title>
            <path fill="none" stroke="black" d="M206.09,-147.11C218.15,-136.57 233.43,-123.23 246.42,-111.88"/>
            <polygon fill="black" stroke="black" points="248.94,-114.32 254.17,-105.11 244.34,-109.05 248.94,-114.32"/>
            <text text-anchor="middle" x="222.75" y="-133.29" font-family="Times New Roman,serif" font-size="14.00">2
            </text>
        </g>
        <!-- SPRING_SERVICE&#45;&gt;mrs.application.service.reservation.reservation.ReservationRepository -->
        <g id="edge3" class="edge">
            <title>SPRING_SERVICE&#45;&gt;mrs.application.service.reservation.reservation.ReservationRepository</title>
            <path fill="none" stroke="black" d="M213.57,-183.71C237.91,-199.26 272.97,-221.65 298.81,-238.16"/>
            <polygon fill="black" stroke="black" points="297.22,-241.3 307.53,-243.73 300.99,-235.4 297.22,-241.3"/>
        </g>
        <!-- SPRING_SERVICE&#45;&gt;mrs.application.service.reservation.room.ReservableRoomRepository -->
        <g id="edge7" class="edge">
            <title>SPRING_SERVICE&#45;&gt;mrs.application.service.reservation.room.ReservableRoomRepository</title>
            <path fill="none" stroke="black" d="M214.43,-160.98C238.86,-157.24 274.61,-151.76 306.26,-146.9"/>
            <polygon fill="black" stroke="black" points="307.02,-150.33 316.37,-145.35 305.96,-143.41 307.02,-150.33"/>
            <text text-anchor="middle" x="256.85" y="-157.74" font-family="Times New Roman,serif" font-size="14.00">2
            </text>
        </g>
        <!-- SPRING_SERVICE&#45;&gt;mrs.application.service.user.UserRepository -->
        <g id="edge8" class="edge">
            <title>SPRING_SERVICE&#45;&gt;mrs.application.service.user.UserRepository</title>
            <path fill="none" stroke="black" d="M190.88,-183.69C199.23,-209.73 214.68,-257.87 224.48,-288.44"/>
            <polygon fill="black" stroke="black" points="221.18,-289.62 227.57,-298.07 227.85,-287.48 221.18,-289.62"/>
            <text text-anchor="middle" x="204.18" y="-239.86" font-family="Times New Roman,serif" font-size="14.00">2
            </text>
        </g>
        <!-- SPRING_SERVICE&#45;&gt;mrs.infrastructure.datasource.Message -->
        <g id="edge4" class="edge">
            <title>SPRING_SERVICE&#45;&gt;mrs.infrastructure.datasource.Message</title>
            <path fill="none" stroke="black" d="M158.49,-147.36C140.62,-135.16 116.86,-118.93 97.48,-105.7"/>
            <polygon fill="black" stroke="black" points="99.43,-102.79 89.2,-100.04 95.48,-108.57 99.43,-102.79"/>
            <text text-anchor="middle" x="124.49" y="-130.33" font-family="Times New Roman,serif" font-size="14.00">4
            </text>
        </g>
        <!-- mrs.infrastructure.security.jwt.JwtUtils -->
        <g id="node11" class="node">
            <title>mrs.infrastructure.security.jwt.JwtUtils</title>
            <polygon fill="lightgrey" stroke="black"
                     points="192.75,-36.05 131.75,-36.05 131.75,-0.05 192.75,-0.05 192.75,-36.05"/>
            <text text-anchor="middle" x="162.25" y="-14.35" font-family="Times New Roman,serif" font-size="14.00">
                JwtUtils
            </text>
        </g>
        <!-- SPRING_SERVICE&#45;&gt;mrs.infrastructure.security.jwt.JwtUtils -->
        <g id="edge12" class="edge">
            <title>SPRING_SERVICE&#45;&gt;mrs.infrastructure.security.jwt.JwtUtils</title>
            <path fill="none" stroke="black" d="M182.24,-147.41C178.35,-122.21 171.25,-76.26 166.64,-46.46"/>
            <polygon fill="black" stroke="black" points="170.06,-45.62 165.07,-36.27 163.14,-46.69 170.06,-45.62"/>
        </g>
        <!-- SPRING_REPOSITORY -->
        <g id="node8" class="node">
            <title>SPRING_REPOSITORY</title>
            <polygon fill="#eedd82" stroke="black"
                     points="295.24,-232.73 216.24,-232.73 216.24,-228.73 212.24,-228.73 212.24,-224.73 216.24,-224.73 216.24,-204.73 212.24,-204.73 212.24,-200.73 216.24,-200.73 216.24,-196.73 295.24,-196.73 295.24,-232.73"/>
            <polyline fill="none" stroke="black" points="216.24,-228.73 220.24,-228.73 220.24,-224.73 216.24,-224.73 "/>
            <polyline fill="none" stroke="black" points="216.24,-204.73 220.24,-204.73 220.24,-200.73 216.24,-200.73 "/>
            <text text-anchor="middle" x="255.74" y="-211.03" font-family="Times New Roman,serif" font-size="14.00">
                Repository
            </text>
        </g>
        <!-- SPRING_REPOSITORY&#45;&gt;mrs.application.service.contact.ContactRepository -->
        <g id="edge2" class="edge">
            <title>SPRING_REPOSITORY&#45;&gt;mrs.application.service.contact.ContactRepository</title>
            <path fill="none" stroke="black" d="M224.47,-232.76C204.05,-244.53 177.35,-259.93 156.17,-272.13"/>
            <polygon fill="black" stroke="black" points="154.39,-269.12 147.47,-277.15 157.88,-275.19 154.39,-269.12"/>
        </g>
        <!-- SPRING_REPOSITORY&#45;&gt;mrs.application.service.facility.room.MeetingRoomRepository -->
        <g id="edge13" class="edge">
            <title>SPRING_REPOSITORY&#45;&gt;mrs.application.service.facility.room.MeetingRoomRepository</title>
            <path fill="none" stroke="black" d="M258.34,-196.56C261.33,-175.56 266.31,-140.75 269.81,-116.2"/>
            <polygon fill="black" stroke="black" points="273.31,-116.45 271.26,-106.06 266.38,-115.46 273.31,-116.45"/>
        </g>
        <!-- SPRING_REPOSITORY&#45;&gt;mrs.application.service.reservation.reservation.ReservationRepository -->
        <g id="edge5" class="edge">
            <title>SPRING_REPOSITORY&#45;&gt;mrs.application.service.reservation.reservation.ReservationRepository
            </title>
            <path fill="none" stroke="black" d="M286.73,-232.88C290.03,-234.81 293.41,-236.79 296.76,-238.76"/>
            <polygon fill="black" stroke="black" points="295.12,-241.85 305.52,-243.89 298.66,-235.81 295.12,-241.85"/>
        </g>
        <!-- SPRING_REPOSITORY&#45;&gt;mrs.application.service.reservation.room.ReservableRoomRepository -->
        <g id="edge10" class="edge">
            <title>SPRING_REPOSITORY&#45;&gt;mrs.application.service.reservation.room.ReservableRoomRepository</title>
            <path fill="none" stroke="black" d="M283.29,-196.72C300.62,-185.39 323.13,-170.68 341.6,-158.6"/>
            <polygon fill="black" stroke="black" points="343.59,-161.49 350.04,-153.09 339.76,-155.63 343.59,-161.49"/>
        </g>
        <!-- SPRING_REPOSITORY&#45;&gt;mrs.application.service.user.UserRepository -->
        <g id="edge6" class="edge">
            <title>SPRING_REPOSITORY&#45;&gt;mrs.application.service.user.UserRepository</title>
            <path fill="none" stroke="black" d="M251.75,-232.89C248.36,-248.35 243.43,-270.8 239.54,-288.53"/>
            <polygon fill="black" stroke="black" points="236.11,-287.81 237.38,-298.32 242.95,-289.31 236.11,-287.81"/>
        </g>
        <!-- mrs.infrastructure.security.jwt.AuthEntryPointJwt -->
        <g id="node10" class="node">
            <title>mrs.infrastructure.security.jwt.AuthEntryPointJwt</title>
            <polygon fill="lightgrey" stroke="black"
                     points="512.14,-66.3 390.14,-66.3 390.14,-30.3 512.14,-30.3 512.14,-66.3"/>
            <text text-anchor="middle" x="451.14" y="-44.6" font-family="Times New Roman,serif" font-size="14.00">
                AuthEntryPointJwt
            </text>
        </g>
    </g>
</svg>
