<?xml version="1.0" encoding="UTF-8" standalone="no"?>
<!DOCTYPE svg PUBLIC "-//W3C//DTD SVG 1.1//EN"
        "http://www.w3.org/Graphics/SVG/1.1/DTD/svg11.dtd">
<!-- Generated by graphviz version 3.0.0 (20220226.1711)
 -->
<!-- Title: コンポーネント関連図 Pages: 1 -->
<svg width="382pt" height="299pt"
     viewBox="0.00 0.00 382.00 299.00" xmlns="http://www.w3.org/2000/svg">
    <g id="graph0" class="graph" transform="scale(1 1) rotate(0) translate(4 272)">
        <title>コンポーネント関連図</title>
        <polygon fill="white" stroke="transparent" points="-4,27 -4,-272 378,-272 378,27 -4,27"/>
        <text text-anchor="middle" x="187" y="15.2" font-family="Times New Roman,serif" font-size="14.00">コンポーネント関連図
        </text>
        <!-- SPRING_CONTROLLER -->
        <g id="node1" class="node">
            <title>SPRING_CONTROLLER</title>
            <polygon fill="#eedd82" stroke="black"
                     points="211.49,-36.18 138.49,-36.18 138.49,-32.18 134.49,-32.18 134.49,-28.18 138.49,-28.18 138.49,-8.18 134.49,-8.18 134.49,-4.18 138.49,-4.18 138.49,-0.18 211.49,-0.18 211.49,-36.18"/>
            <polyline fill="none" stroke="black" points="138.49,-32.18 142.49,-32.18 142.49,-28.18 138.49,-28.18 "/>
            <polyline fill="none" stroke="black" points="138.49,-8.18 142.49,-8.18 142.49,-4.18 138.49,-4.18 "/>
            <text text-anchor="middle" x="174.99" y="-14.48" font-family="Times New Roman,serif" font-size="14.00">
                Controller
            </text>
        </g>
        <!-- SPRING_SERVICE -->
        <g id="node7" class="node">
            <title>SPRING_SERVICE</title>
            <polygon fill="#eedd82" stroke="black"
                     points="217.98,-150.23 159.98,-150.23 159.98,-146.23 155.98,-146.23 155.98,-142.23 159.98,-142.23 159.98,-122.23 155.98,-122.23 155.98,-118.23 159.98,-118.23 159.98,-114.23 217.98,-114.23 217.98,-150.23"/>
            <polyline fill="none" stroke="black" points="159.98,-146.23 163.98,-146.23 163.98,-142.23 159.98,-142.23 "/>
            <polyline fill="none" stroke="black" points="159.98,-122.23 163.98,-122.23 163.98,-118.23 159.98,-118.23 "/>
            <text text-anchor="middle" x="188.98" y="-128.53" font-family="Times New Roman,serif" font-size="14.00">
                Service
            </text>
        </g>
        <!-- SPRING_CONTROLLER&#45;&gt;SPRING_SERVICE -->
        <g id="edge1" class="edge">
            <title>SPRING_CONTROLLER&#45;&gt;SPRING_SERVICE</title>
            <path fill="none" stroke="black" d="M177.2,-36.25C179.43,-54.41 182.9,-82.67 185.5,-103.83"/>
            <polygon fill="black" stroke="black" points="182.04,-104.36 186.73,-113.86 188.98,-103.51 182.04,-104.36"/>
            <text text-anchor="middle" x="177.85" y="-73.84" font-family="Times New Roman,serif" font-size="14.00">3
            </text>
        </g>
        <!-- SPRING_REPOSITORY -->
        <g id="node2" class="node">
            <title>SPRING_REPOSITORY</title>
            <polygon fill="#eedd82" stroke="black"
                     points="226.57,-222.45 147.57,-222.45 147.57,-218.45 143.57,-218.45 143.57,-214.45 147.57,-214.45 147.57,-194.45 143.57,-194.45 143.57,-190.45 147.57,-190.45 147.57,-186.45 226.57,-186.45 226.57,-222.45"/>
            <polyline fill="none" stroke="black" points="147.57,-218.45 151.57,-218.45 151.57,-214.45 147.57,-214.45 "/>
            <polyline fill="none" stroke="black" points="147.57,-194.45 151.57,-194.45 151.57,-190.45 147.57,-190.45 "/>
            <text text-anchor="middle" x="187.07" y="-200.75" font-family="Times New Roman,serif" font-size="14.00">
                Repository
            </text>
        </g>
        <!-- mrs.application.service.reservation.ReservationRepository -->
        <g id="node3" class="node">
            <title>mrs.application.service.reservation.ReservationRepository</title>
            <ellipse fill="lightgrey" stroke="black" cx="308.75" cy="-133.85" rx="58.13" ry="18"/>
            <text text-anchor="middle" x="308.75" y="-131.65" font-family="Times New Roman,serif" font-size="9.00">
                ReservationRepository
            </text>
        </g>
        <!-- SPRING_REPOSITORY&#45;&gt;mrs.application.service.reservation.ReservationRepository -->
        <g id="edge2" class="edge">
            <title>SPRING_REPOSITORY&#45;&gt;mrs.application.service.reservation.ReservationRepository</title>
            <path fill="none" stroke="black" d="M218.41,-186.27C234.96,-176.67 255.35,-164.83 272.57,-154.84"/>
            <polygon fill="black" stroke="black" points="274.36,-157.85 281.25,-149.81 270.85,-151.8 274.36,-157.85"/>
        </g>
        <!-- mrs.application.service.room.MeetingRoomRepository -->
        <g id="node4" class="node">
            <title>mrs.application.service.room.MeetingRoomRepository</title>
            <ellipse fill="lightgrey" stroke="black" cx="98.66" cy="-249.98" rx="63.52" ry="18"/>
            <text text-anchor="middle" x="98.66" y="-247.78" font-family="Times New Roman,serif" font-size="9.00">
                MeetingRoomRepository
            </text>
        </g>
        <!-- SPRING_REPOSITORY&#45;&gt;mrs.application.service.room.MeetingRoomRepository -->
        <g id="edge6" class="edge">
            <title>SPRING_REPOSITORY&#45;&gt;mrs.application.service.room.MeetingRoomRepository</title>
            <path fill="none" stroke="black" d="M151.87,-222.58C147.47,-224.84 142.94,-227.17 138.48,-229.48"/>
            <polygon fill="black" stroke="black" points="136.74,-226.43 129.45,-234.12 139.94,-232.66 136.74,-226.43"/>
        </g>
        <!-- mrs.application.service.room.ReservableRoomRepository -->
        <g id="node5" class="node">
            <title>mrs.application.service.room.ReservableRoomRepository</title>
            <ellipse fill="lightgrey" stroke="black" cx="304.87" cy="-229.67" rx="68.91" ry="18"/>
            <text text-anchor="middle" x="304.87" y="-227.47" font-family="Times New Roman,serif" font-size="9.00">
                ReservableRoomRepository
            </text>
        </g>
        <!-- SPRING_REPOSITORY&#45;&gt;mrs.application.service.room.ReservableRoomRepository -->
        <g id="edge8" class="edge">
            <title>SPRING_REPOSITORY&#45;&gt;mrs.application.service.room.ReservableRoomRepository</title>
            <path fill="none" stroke="black" d="M226.62,-212.92C231.51,-213.97 236.6,-215.05 241.73,-216.15"/>
            <polygon fill="black" stroke="black" points="241.1,-219.6 251.61,-218.27 242.56,-212.75 241.1,-219.6"/>
        </g>
        <!-- mrs.application.service.user.ServiceUserRepository -->
        <g id="node6" class="node">
            <title>mrs.application.service.user.ServiceUserRepository</title>
            <ellipse fill="lightgrey" stroke="black" cx="58.56" cy="-138.55" rx="58.13" ry="18"/>
            <text text-anchor="middle" x="58.56" y="-136.35" font-family="Times New Roman,serif" font-size="9.00">
                ServiceUserRepository
            </text>
        </g>
        <!-- SPRING_REPOSITORY&#45;&gt;mrs.application.service.user.ServiceUserRepository -->
        <g id="edge7" class="edge">
            <title>SPRING_REPOSITORY&#45;&gt;mrs.application.service.user.ServiceUserRepository</title>
            <path fill="none" stroke="black" d="M151.96,-186.44C135.28,-177.89 115.27,-167.63 98.07,-158.81"/>
            <polygon fill="black" stroke="black" points="99.33,-155.52 88.83,-154.07 96.13,-161.75 99.33,-155.52"/>
        </g>
        <!-- SPRING_SERVICE&#45;&gt;mrs.application.service.reservation.ReservationRepository -->
        <g id="edge9" class="edge">
            <title>SPRING_SERVICE&#45;&gt;mrs.application.service.reservation.ReservationRepository</title>
            <path fill="none" stroke="black" d="M218.28,-132.63C225.02,-132.72 232.47,-132.82 240.11,-132.92"/>
            <polygon fill="black" stroke="black" points="240.18,-136.42 250.23,-133.06 240.28,-129.42 240.18,-136.42"/>
        </g>
        <!-- SPRING_SERVICE&#45;&gt;mrs.application.service.room.MeetingRoomRepository -->
        <g id="edge5" class="edge">
            <title>SPRING_SERVICE&#45;&gt;mrs.application.service.room.MeetingRoomRepository</title>
            <path fill="none" stroke="black" d="M175.07,-150.37C159.97,-170.05 135.74,-201.63 118.62,-223.96"/>
            <polygon fill="black" stroke="black" points="115.75,-221.95 112.44,-232.01 121.3,-226.21 115.75,-221.95"/>
        </g>
        <!-- SPRING_SERVICE&#45;&gt;mrs.application.service.room.ReservableRoomRepository -->
        <g id="edge4" class="edge">
            <title>SPRING_SERVICE&#45;&gt;mrs.application.service.room.ReservableRoomRepository</title>
            <path fill="none" stroke="black" d="M210.51,-150.33C229.11,-165.98 256.15,-188.71 276.51,-205.83"/>
            <polygon fill="black" stroke="black" points="274.33,-208.57 284.23,-212.33 278.83,-203.21 274.33,-208.57"/>
            <text text-anchor="middle" x="240.01" y="-181.88" font-family="Times New Roman,serif" font-size="14.00">2
            </text>
        </g>
        <!-- SPRING_SERVICE&#45;&gt;mrs.application.service.user.ServiceUserRepository -->
        <g id="edge3" class="edge">
            <title>SPRING_SERVICE&#45;&gt;mrs.application.service.user.ServiceUserRepository</title>
            <path fill="none" stroke="black" d="M159.71,-133.65C149.78,-134.13 138.23,-134.69 126.56,-135.25"/>
            <polygon fill="black" stroke="black" points="126.13,-131.77 116.31,-135.75 126.47,-138.76 126.13,-131.77"/>
        </g>
    </g>
</svg>
