<?xml version="1.0" encoding="UTF-8" standalone="no"?>
<!DOCTYPE svg PUBLIC "-//W3C//DTD SVG 1.1//EN"
        "http://www.w3.org/Graphics/SVG/1.1/DTD/svg11.dtd">
<!-- Generated by graphviz version 3.0.0 (20220226.1711)
 -->
<!-- Title: コンポーネント関連図 Pages: 1 -->
<svg width="367pt" height="184pt"
     viewBox="0.00 0.00 367.00 184.00" xmlns="http://www.w3.org/2000/svg">
    <g id="graph0" class="graph" transform="scale(1 1) rotate(0) translate(4 157)">
        <title>コンポーネント関連図</title>
        <polygon fill="white" stroke="transparent" points="-4,27 -4,-157 363,-157 363,27 -4,27"/>
        <text text-anchor="middle" x="179.5" y="15.2" font-family="Times New Roman,serif" font-size="14.00">コンポーネント関連図
        </text>
        <!-- mrs.application.service.auth.UserRepository -->
        <g id="node1" class="node">
            <title>mrs.application.service.auth.UserRepository</title>
            <ellipse fill="lightgrey" stroke="black" cx="71.19" cy="-124.74" rx="43.1" ry="18"/>
            <text text-anchor="middle" x="71.19" y="-122.54" font-family="Times New Roman,serif" font-size="9.00">
                UserRepository
            </text>
        </g>
        <!-- mrs.application.service.reservation.ReservationRepository -->
        <g id="node2" class="node">
            <title>mrs.application.service.reservation.ReservationRepository</title>
            <ellipse fill="lightgrey" stroke="black" cx="58.56" cy="-17.95" rx="58.13" ry="18"/>
            <text text-anchor="middle" x="58.56" y="-15.75" font-family="Times New Roman,serif" font-size="9.00">
                ReservationRepository
            </text>
        </g>
        <!-- mrs.application.service.room.MeetingRoomRepository -->
        <g id="node3" class="node">
            <title>mrs.application.service.room.MeetingRoomRepository</title>
            <ellipse fill="lightgrey" stroke="black" cx="195.93" cy="-22.78" rx="63.52" ry="18"/>
            <text text-anchor="middle" x="195.93" y="-20.58" font-family="Times New Roman,serif" font-size="9.00">
                MeetingRoomRepository
            </text>
        </g>
        <!-- mrs.application.service.room.ReservableRoomRepository -->
        <g id="node4" class="node">
            <title>mrs.application.service.room.ReservableRoomRepository</title>
            <ellipse fill="lightgrey" stroke="black" cx="196.13" cy="-135.02" rx="68.91" ry="18"/>
            <text text-anchor="middle" x="196.13" y="-132.82" font-family="Times New Roman,serif" font-size="9.00">
                ReservableRoomRepository
            </text>
        </g>
        <!-- SPRING_CONTROLLER -->
        <g id="node5" class="node">
            <title>SPRING_CONTROLLER</title>
            <polygon fill="#eedd82" stroke="black"
                     points="358.53,-122.68 285.53,-122.68 285.53,-118.68 281.53,-118.68 281.53,-114.68 285.53,-114.68 285.53,-94.68 281.53,-94.68 281.53,-90.68 285.53,-90.68 285.53,-86.68 358.53,-86.68 358.53,-122.68"/>
            <polyline fill="none" stroke="black" points="285.53,-118.68 289.53,-118.68 289.53,-114.68 285.53,-114.68 "/>
            <polyline fill="none" stroke="black" points="285.53,-94.68 289.53,-94.68 289.53,-90.68 285.53,-90.68 "/>
            <text text-anchor="middle" x="322.03" y="-100.98" font-family="Times New Roman,serif" font-size="14.00">
                Controller
            </text>
        </g>
        <!-- SPRING_SERVICE -->
        <g id="node6" class="node">
            <title>SPRING_SERVICE</title>
            <polygon fill="#eedd82" stroke="black"
                     points="226.96,-96.92 168.96,-96.92 168.96,-92.92 164.96,-92.92 164.96,-88.92 168.96,-88.92 168.96,-68.92 164.96,-68.92 164.96,-64.92 168.96,-64.92 168.96,-60.92 226.96,-60.92 226.96,-96.92"/>
            <polyline fill="none" stroke="black" points="168.96,-92.92 172.96,-92.92 172.96,-88.92 168.96,-88.92 "/>
            <polyline fill="none" stroke="black" points="168.96,-68.92 172.96,-68.92 172.96,-64.92 168.96,-64.92 "/>
            <text text-anchor="middle" x="197.96" y="-75.22" font-family="Times New Roman,serif" font-size="14.00">
                Service
            </text>
        </g>
        <!-- SPRING_CONTROLLER&#45;&gt;SPRING_SERVICE -->
        <g id="edge1" class="edge">
            <title>SPRING_CONTROLLER&#45;&gt;SPRING_SERVICE</title>
            <path fill="none" stroke="black" d="M285.48,-97.09C270.23,-93.92 252.5,-90.24 237,-87.02"/>
            <polygon fill="black" stroke="black" points="237.69,-83.59 227.19,-84.98 236.27,-90.44 237.69,-83.59"/>
            <text text-anchor="middle" x="257.74" y="-95.85" font-family="Times New Roman,serif" font-size="14.00">5
            </text>
        </g>
        <!-- mrs.infrastructure.datasource.Message -->
        <g id="node8" class="node">
            <title>mrs.infrastructure.datasource.Message</title>
            <polygon fill="lightgrey" stroke="black"
                     points="348.07,-61.77 283.07,-61.77 283.07,-25.77 348.07,-25.77 348.07,-61.77"/>
            <text text-anchor="middle" x="315.57" y="-40.07" font-family="Times New Roman,serif" font-size="14.00">
                Message
            </text>
        </g>
        <!-- SPRING_CONTROLLER&#45;&gt;mrs.infrastructure.datasource.Message -->
        <g id="edge8" class="edge">
            <title>SPRING_CONTROLLER&#45;&gt;mrs.infrastructure.datasource.Message</title>
            <path fill="none" stroke="black" d="M320.09,-86.4C319.62,-81.94 319.1,-77.07 318.59,-72.26"/>
            <polygon fill="black" stroke="black" points="322.04,-71.6 317.51,-62.03 315.08,-72.34 322.04,-71.6"/>
            <text text-anchor="middle" x="315.84" y="-68.13" font-family="Times New Roman,serif" font-size="14.00">3
            </text>
        </g>
        <!-- SPRING_SERVICE&#45;&gt;mrs.application.service.auth.UserRepository -->
        <g id="edge7" class="edge">
            <title>SPRING_SERVICE&#45;&gt;mrs.application.service.auth.UserRepository</title>
            <path fill="none" stroke="black" d="M168.88,-89.43C152.52,-95.34 131.8,-102.83 113.66,-109.39"/>
            <polygon fill="black" stroke="black" points="112.38,-106.13 104.16,-112.82 114.76,-112.71 112.38,-106.13"/>
            <text text-anchor="middle" x="137.77" y="-103.21" font-family="Times New Roman,serif" font-size="14.00">2
            </text>
        </g>
        <!-- SPRING_SERVICE&#45;&gt;mrs.application.service.reservation.ReservationRepository -->
        <g id="edge10" class="edge">
            <title>SPRING_SERVICE&#45;&gt;mrs.application.service.reservation.ReservationRepository</title>
            <path fill="none" stroke="black" d="M168.74,-66.14C149.34,-57.65 123.53,-46.36 101.77,-36.85"/>
            <polygon fill="black" stroke="black" points="102.97,-33.55 92.41,-32.75 100.17,-39.97 102.97,-33.55"/>
        </g>
        <!-- SPRING_SERVICE&#45;&gt;mrs.application.service.room.MeetingRoomRepository -->
        <g id="edge5" class="edge">
            <title>SPRING_SERVICE&#45;&gt;mrs.application.service.room.MeetingRoomRepository</title>
            <path fill="none" stroke="black" d="M197.31,-60.85C197.19,-57.64 197.07,-54.24 196.95,-50.83"/>
            <polygon fill="black" stroke="black" points="200.44,-50.69 196.59,-40.82 193.45,-50.94 200.44,-50.69"/>
        </g>
        <!-- SPRING_SERVICE&#45;&gt;mrs.application.service.room.ReservableRoomRepository -->
        <g id="edge3" class="edge">
            <title>SPRING_SERVICE&#45;&gt;mrs.application.service.room.ReservableRoomRepository</title>
            <path fill="none" stroke="black" d="M197.37,-96.98C197.27,-100.18 197.16,-103.58 197.04,-106.99"/>
            <polygon fill="black" stroke="black" points="193.55,-106.89 196.72,-117 200.54,-107.12 193.55,-106.89"/>
            <text text-anchor="middle" x="193.71" y="-105.78" font-family="Times New Roman,serif" font-size="14.00">2
            </text>
        </g>
        <!-- SPRING_SERVICE&#45;&gt;mrs.infrastructure.datasource.Message -->
        <g id="edge4" class="edge">
            <title>SPRING_SERVICE&#45;&gt;mrs.infrastructure.datasource.Message</title>
            <path fill="none" stroke="black" d="M227.03,-70.23C240.87,-66.09 257.69,-61.07 272.94,-56.51"/>
            <polygon fill="black" stroke="black" points="274.1,-59.81 282.68,-53.6 272.1,-53.11 274.1,-59.81"/>
            <text text-anchor="middle" x="246.49" y="-67.17" font-family="Times New Roman,serif" font-size="14.00">3
            </text>
        </g>
        <!-- SPRING_REPOSITORY -->
        <g id="node7" class="node">
            <title>SPRING_REPOSITORY</title>
            <polygon fill="#eedd82" stroke="black"
                     points="90.7,-88.48 11.7,-88.48 11.7,-84.48 7.7,-84.48 7.7,-80.48 11.7,-80.48 11.7,-60.48 7.7,-60.48 7.7,-56.48 11.7,-56.48 11.7,-52.48 90.7,-52.48 90.7,-88.48"/>
            <polyline fill="none" stroke="black" points="11.7,-84.48 15.7,-84.48 15.7,-80.48 11.7,-80.48 "/>
            <polyline fill="none" stroke="black" points="11.7,-60.48 15.7,-60.48 15.7,-56.48 11.7,-56.48 "/>
            <text text-anchor="middle" x="51.2" y="-66.78" font-family="Times New Roman,serif" font-size="14.00">
                Repository
            </text>
        </g>
        <!-- SPRING_REPOSITORY&#45;&gt;mrs.application.service.auth.UserRepository -->
        <g id="edge11" class="edge">
            <title>SPRING_REPOSITORY&#45;&gt;mrs.application.service.auth.UserRepository</title>
            <path fill="none" stroke="black" d="M57.86,-88.55C58.92,-91.42 60.03,-94.44 61.14,-97.46"/>
            <polygon fill="black" stroke="black" points="57.89,-98.76 64.63,-106.94 64.46,-96.34 57.89,-98.76"/>
        </g>
        <!-- SPRING_REPOSITORY&#45;&gt;mrs.application.service.reservation.ReservationRepository -->
        <g id="edge2" class="edge">
            <title>SPRING_REPOSITORY&#45;&gt;mrs.application.service.reservation.ReservationRepository</title>
            <path fill="none" stroke="black" d="M53.74,-52.4C54.01,-50.45 54.29,-48.42 54.58,-46.38"/>
            <polygon fill="black" stroke="black" points="58.08,-46.63 56,-36.24 51.15,-45.66 58.08,-46.63"/>
        </g>
        <!-- SPRING_REPOSITORY&#45;&gt;mrs.application.service.room.MeetingRoomRepository -->
        <g id="edge6" class="edge">
            <title>SPRING_REPOSITORY&#45;&gt;mrs.application.service.room.MeetingRoomRepository</title>
            <path fill="none" stroke="black" d="M90.75,-57.45C107.42,-51.96 127.03,-45.49 144.78,-39.64"/>
            <polygon fill="black" stroke="black" points="146.01,-42.92 154.41,-36.47 143.82,-36.27 146.01,-42.92"/>
        </g>
        <!-- SPRING_REPOSITORY&#45;&gt;mrs.application.service.room.ReservableRoomRepository -->
        <g id="edge9" class="edge">
            <title>SPRING_REPOSITORY&#45;&gt;mrs.application.service.room.ReservableRoomRepository</title>
            <path fill="none" stroke="black" d="M90.8,-88.12C109.67,-96.52 132.32,-106.61 151.76,-115.27"/>
            <polygon fill="black" stroke="black" points="150.46,-118.52 161.02,-119.39 153.31,-112.12 150.46,-118.52"/>
        </g>
    </g>
</svg>
