<?xml version="1.0" encoding="UTF-8" standalone="no"?>
<!DOCTYPE svg PUBLIC "-//W3C//DTD SVG 1.1//EN"
 "http://www.w3.org/Graphics/SVG/1.1/DTD/svg11.dtd">
<!-- Generated by graphviz version 2.47.3 (20210619.1520)
 -->
<!-- Title: コンポーネント関連図 Pages: 1 -->
<svg width="383pt" height="352pt"
 viewBox="0.00 0.00 383.00 352.00" xmlns="http://www.w3.org/2000/svg" xmlns:xlink="http://www.w3.org/1999/xlink">
<g id="graph0" class="graph" transform="scale(1 1) rotate(0) translate(4 325)">
<title>コンポーネント関連図</title>
<polygon fill="white" stroke="transparent" points="-4,27 -4,-325 379,-325 379,27 -4,27"/>
<text text-anchor="middle" x="187.5" y="15.2" font-family="Times,serif" font-size="14.00">コンポーネント関連図</text>
<!-- mrs.application.service.contact.ContactRepository -->
<g id="node1" class="node">
<title>mrs.application.service.contact.ContactRepository</title>
<ellipse fill="lightgrey" stroke="black" cx="89.56" cy="-96.86" rx="48.49" ry="18"/>
<text text-anchor="middle" x="89.56" y="-94.66" font-family="Times,serif" font-size="9.00">ContactRepository</text>
</g>
<!-- mrs.application.service.reservation.room.ReservableRoomRepository -->
<g id="node2" class="node">
<title>mrs.application.service.reservation.room.ReservableRoomRepository</title>
<ellipse fill="lightgrey" stroke="black" cx="227.71" cy="-303.04" rx="68.25" ry="18"/>
<text text-anchor="middle" x="227.71" y="-300.84" font-family="Times,serif" font-size="9.00">ReservableRoomRepository</text>
</g>
<!-- mrs.application.service.reservation.reservation.ReservationRepository -->
<g id="node3" class="node">
<title>mrs.application.service.reservation.reservation.ReservationRepository</title>
<ellipse fill="lightgrey" stroke="black" cx="57.06" cy="-167.41" rx="57.32" ry="18"/>
<text text-anchor="middle" x="57.06" y="-165.21" font-family="Times,serif" font-size="9.00">ReservationRepository</text>
</g>
<!-- mrs.application.service.user.UserRepository -->
<g id="node4" class="node">
<title>mrs.application.service.user.UserRepository</title>
<ellipse fill="lightgrey" stroke="black" cx="120.87" cy="-258" rx="42.29" ry="18"/>
<text text-anchor="middle" x="120.87" y="-255.8" font-family="Times,serif" font-size="9.00">UserRepository</text>
</g>
<!-- mrs.application.service.facility.room.MeetingRoomRepository -->
<g id="node5" class="node">
<title>mrs.application.service.facility.room.MeetingRoomRepository</title>
<ellipse fill="lightgrey" stroke="black" cx="279.78" cy="-255.55" rx="62.21" ry="18"/>
<text text-anchor="middle" x="279.78" y="-253.35" font-family="Times,serif" font-size="9.00">MeetingRoomRepository</text>
</g>
<!-- SPRING_SERVICE -->
<g id="node6" class="node">
<title>SPRING_SERVICE</title>
<polygon fill="#eedd82" stroke="black" points="222.7,-170.65 164.7,-170.65 164.7,-166.65 160.7,-166.65 160.7,-162.65 164.7,-162.65 164.7,-142.65 160.7,-142.65 160.7,-138.65 164.7,-138.65 164.7,-134.65 222.7,-134.65 222.7,-170.65"/>
<polyline fill="none" stroke="black" points="164.7,-166.65 168.7,-166.65 168.7,-162.65 164.7,-162.65 "/>
<polyline fill="none" stroke="black" points="164.7,-142.65 168.7,-142.65 168.7,-138.65 164.7,-138.65 "/>
<text text-anchor="middle" x="193.7" y="-148.95" font-family="Times,serif" font-size="14.00">Service</text>
</g>
<!-- SPRING_SERVICE&#45;&gt;mrs.application.service.contact.ContactRepository -->
<g id="edge14" class="edge">
<title>SPRING_SERVICE&#45;&gt;mrs.application.service.contact.ContactRepository</title>
<path fill="none" stroke="black" d="M164.69,-137.11C152.77,-130.73 138.84,-123.26 126.23,-116.51"/>
<polygon fill="black" stroke="black" points="127.8,-113.38 117.33,-111.74 124.5,-119.55 127.8,-113.38"/>
<text text-anchor="middle" x="141.96" y="-130.61" font-family="Times,serif" font-size="14.00">2</text>
</g>
<!-- SPRING_SERVICE&#45;&gt;mrs.application.service.reservation.room.ReservableRoomRepository -->
<g id="edge7" class="edge">
<title>SPRING_SERVICE&#45;&gt;mrs.application.service.reservation.room.ReservableRoomRepository</title>
<path fill="none" stroke="black" d="M197.8,-170.79C203.65,-196.65 214.43,-244.34 221.33,-274.83"/>
<polygon fill="black" stroke="black" points="217.97,-275.85 223.59,-284.83 224.8,-274.31 217.97,-275.85"/>
<text text-anchor="middle" x="206.06" y="-226.61" font-family="Times,serif" font-size="14.00">2</text>
</g>
<!-- SPRING_SERVICE&#45;&gt;mrs.application.service.reservation.reservation.ReservationRepository -->
<g id="edge3" class="edge">
<title>SPRING_SERVICE&#45;&gt;mrs.application.service.reservation.reservation.ReservationRepository</title>
<path fill="none" stroke="black" d="M164.38,-155.82C151.77,-157.18 136.48,-158.83 121.45,-160.46"/>
<polygon fill="black" stroke="black" points="120.69,-157.02 111.13,-161.57 121.44,-163.98 120.69,-157.02"/>
</g>
<!-- SPRING_SERVICE&#45;&gt;mrs.application.service.user.UserRepository -->
<g id="edge8" class="edge">
<title>SPRING_SERVICE&#45;&gt;mrs.application.service.user.UserRepository</title>
<path fill="none" stroke="black" d="M181.01,-171C169.33,-187.9 151.88,-213.14 138.78,-232.08"/>
<polygon fill="black" stroke="black" points="135.73,-230.34 132.93,-240.56 141.49,-234.32 135.73,-230.34"/>
<text text-anchor="middle" x="156.4" y="-190.34" font-family="Times,serif" font-size="14.00">2</text>
</g>
<!-- SPRING_SERVICE&#45;&gt;mrs.application.service.facility.room.MeetingRoomRepository -->
<g id="edge9" class="edge">
<title>SPRING_SERVICE&#45;&gt;mrs.application.service.facility.room.MeetingRoomRepository</title>
<path fill="none" stroke="black" d="M209.09,-171.05C222.84,-187.49 243.13,-211.74 258.45,-230.05"/>
<polygon fill="black" stroke="black" points="256,-232.58 265.1,-238 261.37,-228.08 256,-232.58"/>
<text text-anchor="middle" x="230.27" y="-204.35" font-family="Times,serif" font-size="14.00">2</text>
</g>
<!-- mrs.infrastructure.datasource.Message -->
<g id="node8" class="node">
<title>mrs.infrastructure.datasource.Message</title>
<polygon fill="lightgrey" stroke="black" points="338.36,-153.17 273.36,-153.17 273.36,-117.17 338.36,-117.17 338.36,-153.17"/>
<text text-anchor="middle" x="305.86" y="-131.47" font-family="Times,serif" font-size="14.00">Message</text>
</g>
<!-- SPRING_SERVICE&#45;&gt;mrs.infrastructure.datasource.Message -->
<g id="edge4" class="edge">
<title>SPRING_SERVICE&#45;&gt;mrs.infrastructure.datasource.Message</title>
<path fill="none" stroke="black" d="M222.87,-148.1C235.18,-146.19 249.76,-143.91 263.23,-141.81"/>
<polygon fill="black" stroke="black" points="263.93,-145.25 273.27,-140.25 262.85,-138.33 263.93,-145.25"/>
<text text-anchor="middle" x="239.55" y="-148.76" font-family="Times,serif" font-size="14.00">4</text>
</g>
<!-- mrs.infrastructure.security.jwt.JwtUtils -->
<g id="node10" class="node">
<title>mrs.infrastructure.security.jwt.JwtUtils</title>
<polygon fill="lightgrey" stroke="black" points="220.01,-61.38 157.01,-61.38 157.01,-25.38 220.01,-25.38 220.01,-61.38"/>
<text text-anchor="middle" x="188.51" y="-39.68" font-family="Times,serif" font-size="14.00">JwtUtils</text>
</g>
<!-- SPRING_SERVICE&#45;&gt;mrs.infrastructure.security.jwt.JwtUtils -->
<g id="edge12" class="edge">
<title>SPRING_SERVICE&#45;&gt;mrs.infrastructure.security.jwt.JwtUtils</title>
<path fill="none" stroke="black" d="M192.84,-134.61C192.02,-117.45 190.79,-91.37 189.84,-71.49"/>
<polygon fill="black" stroke="black" points="193.33,-71.28 189.36,-61.45 186.34,-71.61 193.33,-71.28"/>
</g>
<!-- SPRING_REPOSITORY -->
<g id="node7" class="node">
<title>SPRING_REPOSITORY</title>
<polygon fill="#eedd82" stroke="black" points="179.14,-230.62 101.14,-230.62 101.14,-226.62 97.14,-226.62 97.14,-222.62 101.14,-222.62 101.14,-202.62 97.14,-202.62 97.14,-198.62 101.14,-198.62 101.14,-194.62 179.14,-194.62 179.14,-230.62"/>
<polyline fill="none" stroke="black" points="101.14,-226.62 105.14,-226.62 105.14,-222.62 101.14,-222.62 "/>
<polyline fill="none" stroke="black" points="101.14,-202.62 105.14,-202.62 105.14,-198.62 101.14,-198.62 "/>
<text text-anchor="middle" x="140.14" y="-208.92" font-family="Times,serif" font-size="14.00">Repository</text>
</g>
<!-- SPRING_REPOSITORY&#45;&gt;mrs.application.service.contact.ContactRepository -->
<g id="edge2" class="edge">
<title>SPRING_REPOSITORY&#45;&gt;mrs.application.service.contact.ContactRepository</title>
<path fill="none" stroke="black" d="M132.24,-194.53C124,-175.67 110.98,-145.89 101.49,-124.17"/>
<polygon fill="black" stroke="black" points="104.62,-122.58 97.41,-114.82 98.2,-125.39 104.62,-122.58"/>
</g>
<!-- SPRING_REPOSITORY&#45;&gt;mrs.application.service.reservation.room.ReservableRoomRepository -->
<g id="edge10" class="edge">
<title>SPRING_REPOSITORY&#45;&gt;mrs.application.service.reservation.room.ReservableRoomRepository</title>
<path fill="none" stroke="black" d="M157.86,-230.91C170.97,-244.45 188.98,-263.04 203.42,-277.96"/>
<polygon fill="black" stroke="black" points="201.14,-280.63 210.61,-285.38 206.17,-275.76 201.14,-280.63"/>
</g>
<!-- SPRING_REPOSITORY&#45;&gt;mrs.application.service.reservation.reservation.ReservationRepository -->
<g id="edge5" class="edge">
<title>SPRING_REPOSITORY&#45;&gt;mrs.application.service.reservation.reservation.ReservationRepository</title>
<path fill="none" stroke="black" d="M106.83,-194.49C102.92,-192.36 98.91,-190.18 94.94,-188.02"/>
<polygon fill="black" stroke="black" points="96.29,-184.77 85.83,-183.07 92.94,-190.92 96.29,-184.77"/>
</g>
<!-- SPRING_REPOSITORY&#45;&gt;mrs.application.service.user.UserRepository -->
<g id="edge6" class="edge">
<title>SPRING_REPOSITORY&#45;&gt;mrs.application.service.user.UserRepository</title>
<path fill="none" stroke="black" d="M132.42,-230.81C132.37,-230.91 132.33,-231 132.29,-231.1"/>
<polygon fill="black" stroke="black" points="129.16,-229.52 128.47,-240.09 135.6,-232.25 129.16,-229.52"/>
</g>
<!-- SPRING_REPOSITORY&#45;&gt;mrs.application.service.facility.room.MeetingRoomRepository -->
<g id="edge13" class="edge">
<title>SPRING_REPOSITORY&#45;&gt;mrs.application.service.facility.room.MeetingRoomRepository</title>
<path fill="none" stroke="black" d="M179.41,-224.69C194.24,-229.25 211.36,-234.51 227.22,-239.39"/>
<polygon fill="black" stroke="black" points="226.31,-242.77 236.9,-242.36 228.37,-236.08 226.31,-242.77"/>
</g>
<!-- mrs.infrastructure.security.jwt.AuthEntryPointJwt -->
<g id="node9" class="node">
<title>mrs.infrastructure.security.jwt.AuthEntryPointJwt</title>
<polygon fill="lightgrey" stroke="black" points="374.74,-35.64 249.74,-35.64 249.74,0.36 374.74,0.36 374.74,-35.64"/>
<text text-anchor="middle" x="312.24" y="-13.94" font-family="Times,serif" font-size="14.00">AuthEntryPointJwt</text>
</g>
<!-- SPRING_CONTROLLER -->
<g id="node11" class="node">
<title>SPRING_CONTROLLER</title>
<polygon fill="#eedd82" stroke="black" points="325.87,-101.31 251.87,-101.31 251.87,-97.31 247.87,-97.31 247.87,-93.31 251.87,-93.31 251.87,-73.31 247.87,-73.31 247.87,-69.31 251.87,-69.31 251.87,-65.31 325.87,-65.31 325.87,-101.31"/>
<polyline fill="none" stroke="black" points="251.87,-97.31 255.87,-97.31 255.87,-93.31 251.87,-93.31 "/>
<polyline fill="none" stroke="black" points="251.87,-73.31 255.87,-73.31 255.87,-69.31 251.87,-69.31 "/>
<text text-anchor="middle" x="288.87" y="-79.61" font-family="Times,serif" font-size="14.00">Controller</text>
</g>
<!-- SPRING_CONTROLLER&#45;&gt;SPRING_SERVICE -->
<g id="edge1" class="edge">
<title>SPRING_CONTROLLER&#45;&gt;SPRING_SERVICE</title>
<path fill="none" stroke="black" d="M263.87,-101.53C252.5,-109.81 238.89,-119.72 226.7,-128.6"/>
<polygon fill="black" stroke="black" points="224.56,-125.84 218.53,-134.56 228.68,-131.5 224.56,-125.84"/>
<text text-anchor="middle" x="238.28" y="-118.87" font-family="Times,serif" font-size="14.00">19</text>
</g>
<!-- SPRING_CONTROLLER&#45;&gt;mrs.infrastructure.datasource.Message -->
<g id="edge11" class="edge">
<title>SPRING_CONTROLLER&#45;&gt;mrs.infrastructure.datasource.Message</title>
<path fill="none" stroke="black" d="M294.81,-101.45C295.43,-103.33 296.07,-105.28 296.71,-107.24"/>
<polygon fill="black" stroke="black" points="293.45,-108.54 299.89,-116.95 300.1,-106.36 293.45,-108.54"/>
<text text-anchor="middle" x="288.76" y="-108.14" font-family="Times,serif" font-size="14.00">11</text>
</g>
</g>
</svg>
