<?xml version="1.0" encoding="UTF-8" standalone="no"?>
<!DOCTYPE svg PUBLIC "-//W3C//DTD SVG 1.1//EN"
        "http://www.w3.org/Graphics/SVG/1.1/DTD/svg11.dtd">
<!-- Generated by graphviz version 3.0.0 (20220226.1711)
 -->
<!-- Title: コンポーネント関連図 Pages: 1 -->
<svg width="369pt" height="282pt"
     viewBox="0.00 0.00 369.00 282.00" xmlns="http://www.w3.org/2000/svg">
    <g id="graph0" class="graph" transform="scale(1 1) rotate(0) translate(4 255)">
        <title>コンポーネント関連図</title>
        <polygon fill="white" stroke="transparent" points="-4,27 -4,-255 365,-255 365,27 -4,27"/>
        <text text-anchor="middle" x="180.5" y="15.2" font-family="Times New Roman,serif" font-size="14.00">コンポーネント関連図
        </text>
        <!-- mrs.application.service.auth.UserRepository -->
        <g id="node1" class="node">
            <title>mrs.application.service.auth.UserRepository</title>
            <ellipse fill="lightgrey" stroke="black" cx="55.8" cy="-205.16" rx="43.1" ry="18"/>
            <text text-anchor="middle" x="55.8" y="-202.96" font-family="Times New Roman,serif" font-size="9.00">
                UserRepository
            </text>
        </g>
        <!-- mrs.application.service.reservation.ReservationRepository -->
        <g id="node2" class="node">
            <title>mrs.application.service.reservation.ReservationRepository</title>
            <ellipse fill="lightgrey" stroke="black" cx="58.66" cy="-128.64" rx="58.13" ry="18"/>
            <text text-anchor="middle" x="58.66" y="-126.44" font-family="Times New Roman,serif" font-size="9.00">
                ReservationRepository
            </text>
        </g>
        <!-- mrs.application.service.room.MeetingRoomRepository -->
        <g id="node3" class="node">
            <title>mrs.application.service.room.MeetingRoomRepository</title>
            <ellipse fill="lightgrey" stroke="black" cx="297.34" cy="-184.87" rx="63.52" ry="18"/>
            <text text-anchor="middle" x="297.34" y="-182.67" font-family="Times New Roman,serif" font-size="9.00">
                MeetingRoomRepository
            </text>
        </g>
        <!-- mrs.application.service.room.ReservableRoomRepository -->
        <g id="node4" class="node">
            <title>mrs.application.service.room.ReservableRoomRepository</title>
            <ellipse fill="lightgrey" stroke="black" cx="185.31" cy="-233.02" rx="68.91" ry="18"/>
            <text text-anchor="middle" x="185.31" y="-230.82" font-family="Times New Roman,serif" font-size="9.00">
                ReservableRoomRepository
            </text>
        </g>
        <!-- SPRING_REPOSITORY -->
        <g id="node5" class="node">
            <title>SPRING_REPOSITORY</title>
            <polygon fill="#eedd82" stroke="black"
                     points="188.49,-202.68 109.49,-202.68 109.49,-198.68 105.49,-198.68 105.49,-194.68 109.49,-194.68 109.49,-174.68 105.49,-174.68 105.49,-170.68 109.49,-170.68 109.49,-166.68 188.49,-166.68 188.49,-202.68"/>
            <polyline fill="none" stroke="black" points="109.49,-198.68 113.49,-198.68 113.49,-194.68 109.49,-194.68 "/>
            <polyline fill="none" stroke="black" points="109.49,-174.68 113.49,-174.68 113.49,-170.68 109.49,-170.68 "/>
            <text text-anchor="middle" x="148.99" y="-180.98" font-family="Times New Roman,serif" font-size="14.00">
                Repository
            </text>
        </g>
        <!-- SPRING_REPOSITORY&#45;&gt;mrs.application.service.auth.UserRepository -->
        <g id="edge11" class="edge">
            <title>SPRING_REPOSITORY&#45;&gt;mrs.application.service.auth.UserRepository</title>
            <path fill="none" stroke="black" d="M109.47,-193.37C107.73,-193.75 105.98,-194.13 104.22,-194.52"/>
            <polygon fill="black" stroke="black" points="103.21,-191.16 94.19,-196.72 104.71,-198 103.21,-191.16"/>
        </g>
        <!-- SPRING_REPOSITORY&#45;&gt;mrs.application.service.reservation.ReservationRepository -->
        <g id="edge2" class="edge">
            <title>SPRING_REPOSITORY&#45;&gt;mrs.application.service.reservation.ReservationRepository</title>
            <path fill="none" stroke="black" d="M119.91,-166.64C111.48,-161.41 102.19,-155.65 93.44,-150.22"/>
            <polygon fill="black" stroke="black" points="95.27,-147.24 84.93,-144.94 91.58,-153.19 95.27,-147.24"/>
        </g>
        <!-- SPRING_REPOSITORY&#45;&gt;mrs.application.service.room.MeetingRoomRepository -->
        <g id="edge6" class="edge">
            <title>SPRING_REPOSITORY&#45;&gt;mrs.application.service.room.MeetingRoomRepository</title>
            <path fill="none" stroke="black" d="M188.75,-184.73C199.54,-184.75 211.59,-184.76 223.62,-184.78"/>
            <polygon fill="black" stroke="black" points="223.69,-188.28 233.69,-184.79 223.69,-181.28 223.69,-188.28"/>
        </g>
        <!-- SPRING_REPOSITORY&#45;&gt;mrs.application.service.room.ReservableRoomRepository -->
        <g id="edge9" class="edge">
            <title>SPRING_REPOSITORY&#45;&gt;mrs.application.service.room.ReservableRoomRepository</title>
            <path fill="none" stroke="black" d="M162.72,-202.95C163.65,-204.19 164.6,-205.45 165.55,-206.72"/>
            <polygon fill="black" stroke="black" points="163,-209.15 171.8,-215.04 168.59,-204.94 163,-209.15"/>
        </g>
        <!-- SPRING_SERVICE -->
        <g id="node6" class="node">
            <title>SPRING_SERVICE</title>
            <polygon fill="#eedd82" stroke="black"
                     points="198.56,-144.09 140.56,-144.09 140.56,-140.09 136.56,-140.09 136.56,-136.09 140.56,-136.09 140.56,-116.09 136.56,-116.09 136.56,-112.09 140.56,-112.09 140.56,-108.09 198.56,-108.09 198.56,-144.09"/>
            <polyline fill="none" stroke="black" points="140.56,-140.09 144.56,-140.09 144.56,-136.09 140.56,-136.09 "/>
            <polyline fill="none" stroke="black" points="140.56,-116.09 144.56,-116.09 144.56,-112.09 140.56,-112.09 "/>
            <text text-anchor="middle" x="169.56" y="-122.39" font-family="Times New Roman,serif" font-size="14.00">
                Service
            </text>
        </g>
        <!-- SPRING_SERVICE&#45;&gt;mrs.application.service.auth.UserRepository -->
        <g id="edge7" class="edge">
            <title>SPRING_SERVICE&#45;&gt;mrs.application.service.auth.UserRepository</title>
            <path fill="none" stroke="black" d="M143.46,-144.23C126.55,-155.98 104.44,-171.35 86.66,-183.71"/>
            <polygon fill="black" stroke="black" points="84.53,-180.93 78.32,-189.51 88.53,-186.68 84.53,-180.93"/>
            <text text-anchor="middle" x="111.56" y="-152.77" font-family="Times New Roman,serif" font-size="14.00">2
            </text>
        </g>
        <!-- SPRING_SERVICE&#45;&gt;mrs.application.service.reservation.ReservationRepository -->
        <g id="edge10" class="edge">
            <title>SPRING_SERVICE&#45;&gt;mrs.application.service.reservation.ReservationRepository</title>
            <path fill="none" stroke="black" d="M140.42,-126.76C136.27,-126.86 131.86,-126.96 127.32,-127.06"/>
            <polygon fill="black" stroke="black" points="127.15,-123.56 117.24,-127.29 127.31,-130.56 127.15,-123.56"/>
        </g>
        <!-- SPRING_SERVICE&#45;&gt;mrs.application.service.room.MeetingRoomRepository -->
        <g id="edge5" class="edge">
            <title>SPRING_SERVICE&#45;&gt;mrs.application.service.room.MeetingRoomRepository</title>
            <path fill="none" stroke="black" d="M198.88,-139.57C215.32,-147.14 236.13,-156.71 254.37,-165.11"/>
            <polygon fill="black" stroke="black" points="253.1,-168.37 263.65,-169.37 256.03,-162.01 253.1,-168.37"/>
        </g>
        <!-- SPRING_SERVICE&#45;&gt;mrs.application.service.room.ReservableRoomRepository -->
        <g id="edge3" class="edge">
            <title>SPRING_SERVICE&#45;&gt;mrs.application.service.room.ReservableRoomRepository</title>
            <path fill="none" stroke="black" d="M172.24,-144.23C174.68,-160.82 178.33,-185.62 181.16,-204.8"/>
            <polygon fill="black" stroke="black" points="177.71,-205.41 182.63,-214.79 184.63,-204.39 177.71,-205.41"/>
            <text text-anchor="middle" x="173.2" y="-163.31" font-family="Times New Roman,serif" font-size="14.00">2
            </text>
        </g>
        <!-- mrs.infrastructure.datasource.Message -->
        <g id="node7" class="node">
            <title>mrs.infrastructure.datasource.Message</title>
            <polygon fill="lightgrey" stroke="black"
                     points="283.22,-72.76 218.22,-72.76 218.22,-36.76 283.22,-36.76 283.22,-72.76"/>
            <text text-anchor="middle" x="250.72" y="-51.06" font-family="Times New Roman,serif" font-size="14.00">
                Message
            </text>
        </g>
        <!-- SPRING_SERVICE&#45;&gt;mrs.infrastructure.datasource.Message -->
        <g id="edge4" class="edge">
            <title>SPRING_SERVICE&#45;&gt;mrs.infrastructure.datasource.Message</title>
            <path fill="none" stroke="black" d="M190.46,-107.72C200.19,-99.17 211.92,-88.87 222.43,-79.63"/>
            <polygon fill="black" stroke="black" points="224.97,-82.05 230.17,-72.82 220.35,-76.8 224.97,-82.05"/>
            <text text-anchor="middle" x="202.94" y="-97.48" font-family="Times New Roman,serif" font-size="14.00">2
            </text>
        </g>
        <!-- SPRING_CONTROLLER -->
        <g id="node8" class="node">
            <title>SPRING_CONTROLLER</title>
            <polygon fill="#eedd82" stroke="black"
                     points="191.75,-35.72 118.75,-35.72 118.75,-31.72 114.75,-31.72 114.75,-27.72 118.75,-27.72 118.75,-7.72 114.75,-7.72 114.75,-3.72 118.75,-3.72 118.75,0.28 191.75,0.28 191.75,-35.72"/>
            <polyline fill="none" stroke="black" points="118.75,-31.72 122.75,-31.72 122.75,-27.72 118.75,-27.72 "/>
            <polyline fill="none" stroke="black" points="118.75,-7.72 122.75,-7.72 122.75,-3.72 118.75,-3.72 "/>
            <text text-anchor="middle" x="155.25" y="-14.02" font-family="Times New Roman,serif" font-size="14.00">
                Controller
            </text>
        </g>
        <!-- SPRING_CONTROLLER&#45;&gt;SPRING_SERVICE -->
        <g id="edge1" class="edge">
            <title>SPRING_CONTROLLER&#45;&gt;SPRING_SERVICE</title>
            <path fill="none" stroke="black" d="M157.68,-36.11C159.91,-53.02 163.26,-78.36 165.83,-97.85"/>
            <polygon fill="black" stroke="black" points="162.39,-98.52 167.17,-107.98 169.33,-97.6 162.39,-98.52"/>
            <text text-anchor="middle" x="158.25" y="-70.78" font-family="Times New Roman,serif" font-size="14.00">3
            </text>
        </g>
        <!-- SPRING_CONTROLLER&#45;&gt;mrs.infrastructure.datasource.Message -->
        <g id="edge8" class="edge">
            <title>SPRING_CONTROLLER&#45;&gt;mrs.infrastructure.datasource.Message</title>
            <path fill="none" stroke="black" d="M191.89,-31.94C197.28,-34.03 202.87,-36.2 208.36,-38.33"/>
            <polygon fill="black" stroke="black" points="207.49,-41.75 218.08,-42.1 210.02,-35.22 207.49,-41.75"/>
        </g>
    </g>
</svg>
