<?xml version="1.0" encoding="UTF-8" standalone="no"?>
<!DOCTYPE svg PUBLIC "-//W3C//DTD SVG 1.1//EN"
        "http://www.w3.org/Graphics/SVG/1.1/DTD/svg11.dtd">
<!-- Generated by graphviz version 3.0.0 (20220226.1711)
 -->
<!-- Title: コンポーネント関連図 Pages: 1 -->
<svg width="379pt" height="284pt"
     viewBox="0.00 0.00 379.00 284.00" xmlns="http://www.w3.org/2000/svg">
    <g id="graph0" class="graph" transform="scale(1 1) rotate(0) translate(4 257)">
        <title>コンポーネント関連図</title>
        <polygon fill="white" stroke="transparent" points="-4,27 -4,-257 375,-257 375,27 -4,27"/>
        <text text-anchor="middle" x="185.5" y="15.2" font-family="Times New Roman,serif" font-size="14.00">コンポーネント関連図
        </text>
        <!-- SPRING_REPOSITORY -->
        <g id="node1" class="node">
            <title>SPRING_REPOSITORY</title>
            <polygon fill="#eedd82" stroke="black"
                     points="206.32,-207.98 127.32,-207.98 127.32,-203.98 123.32,-203.98 123.32,-199.98 127.32,-199.98 127.32,-179.98 123.32,-179.98 123.32,-175.98 127.32,-175.98 127.32,-171.98 206.32,-171.98 206.32,-207.98"/>
            <polyline fill="none" stroke="black" points="127.32,-203.98 131.32,-203.98 131.32,-199.98 127.32,-199.98 "/>
            <polyline fill="none" stroke="black" points="127.32,-179.98 131.32,-179.98 131.32,-175.98 127.32,-175.98 "/>
            <text text-anchor="middle" x="166.82" y="-186.28" font-family="Times New Roman,serif" font-size="14.00">
                Repository
            </text>
        </g>
        <!-- mrs.application.service.auth.UserRepository -->
        <g id="node3" class="node">
            <title>mrs.application.service.auth.UserRepository</title>
            <ellipse fill="lightgrey" stroke="black" cx="119.58" cy="-74.05" rx="43.1" ry="18"/>
            <text text-anchor="middle" x="119.58" y="-71.85" font-family="Times New Roman,serif" font-size="9.00">
                UserRepository
            </text>
        </g>
        <!-- SPRING_REPOSITORY&#45;&gt;mrs.application.service.auth.UserRepository -->
        <g id="edge11" class="edge">
            <title>SPRING_REPOSITORY&#45;&gt;mrs.application.service.auth.UserRepository</title>
            <path fill="none" stroke="black" d="M159.44,-171.86C151.75,-152.98 139.59,-123.15 130.73,-101.4"/>
            <polygon fill="black" stroke="black" points="133.93,-99.98 126.91,-92.04 127.45,-102.62 133.93,-99.98"/>
        </g>
        <!-- mrs.application.service.reservation.ReservationRepository -->
        <g id="node4" class="node">
            <title>mrs.application.service.reservation.ReservationRepository</title>
            <ellipse fill="lightgrey" stroke="black" cx="161.22" cy="-235.14" rx="58.13" ry="18"/>
            <text text-anchor="middle" x="161.22" y="-232.94" font-family="Times New Roman,serif" font-size="9.00">
                ReservationRepository
            </text>
        </g>
        <!-- SPRING_REPOSITORY&#45;&gt;mrs.application.service.reservation.ReservationRepository -->
        <g id="edge2" class="edge">
            <title>SPRING_REPOSITORY&#45;&gt;mrs.application.service.reservation.ReservationRepository</title>
            <path fill="none" stroke="black" d="M164.58,-208.09C164.56,-208.18 164.55,-208.27 164.54,-208.36"/>
            <polygon fill="black" stroke="black" points="161.22,-206.67 163.47,-217.03 168.17,-207.53 161.22,-206.67"/>
        </g>
        <!-- mrs.application.service.room.MeetingRoomRepository -->
        <g id="node5" class="node">
            <title>mrs.application.service.room.MeetingRoomRepository</title>
            <ellipse fill="lightgrey" stroke="black" cx="303.84" cy="-229.69" rx="63.52" ry="18"/>
            <text text-anchor="middle" x="303.84" y="-227.49" font-family="Times New Roman,serif" font-size="9.00">
                MeetingRoomRepository
            </text>
        </g>
        <!-- SPRING_REPOSITORY&#45;&gt;mrs.application.service.room.MeetingRoomRepository -->
        <g id="edge6" class="edge">
            <title>SPRING_REPOSITORY&#45;&gt;mrs.application.service.room.MeetingRoomRepository</title>
            <path fill="none" stroke="black" d="M206.46,-201.46C219.81,-205.33 234.96,-209.72 249.26,-213.87"/>
            <polygon fill="black" stroke="black" points="248.42,-217.27 259,-216.69 250.37,-210.55 248.42,-217.27"/>
        </g>
        <!-- mrs.application.service.room.ReservableRoomRepository -->
        <g id="node6" class="node">
            <title>mrs.application.service.room.ReservableRoomRepository</title>
            <ellipse fill="lightgrey" stroke="black" cx="68.46" cy="-142.25" rx="68.91" ry="18"/>
            <text text-anchor="middle" x="68.46" y="-140.05" font-family="Times New Roman,serif" font-size="9.00">
                ReservableRoomRepository
            </text>
        </g>
        <!-- SPRING_REPOSITORY&#45;&gt;mrs.application.service.room.ReservableRoomRepository -->
        <g id="edge9" class="edge">
            <title>SPRING_REPOSITORY&#45;&gt;mrs.application.service.room.ReservableRoomRepository</title>
            <path fill="none" stroke="black" d="M129.64,-171.93C123.35,-168.88 116.78,-165.7 110.39,-162.59"/>
            <polygon fill="black" stroke="black" points="111.71,-159.34 101.18,-158.13 108.65,-165.64 111.71,-159.34"/>
        </g>
        <!-- SPRING_SERVICE -->
        <g id="node2" class="node">
            <title>SPRING_SERVICE</title>
            <polygon fill="#eedd82" stroke="black"
                     points="247.82,-132.17 189.82,-132.17 189.82,-128.17 185.82,-128.17 185.82,-124.17 189.82,-124.17 189.82,-104.17 185.82,-104.17 185.82,-100.17 189.82,-100.17 189.82,-96.17 247.82,-96.17 247.82,-132.17"/>
            <polyline fill="none" stroke="black" points="189.82,-128.17 193.82,-128.17 193.82,-124.17 189.82,-124.17 "/>
            <polyline fill="none" stroke="black" points="189.82,-104.17 193.82,-104.17 193.82,-100.17 189.82,-100.17 "/>
            <text text-anchor="middle" x="218.82" y="-110.47" font-family="Times New Roman,serif" font-size="14.00">
                Service
            </text>
        </g>
        <!-- SPRING_SERVICE&#45;&gt;mrs.application.service.auth.UserRepository -->
        <g id="edge7" class="edge">
            <title>SPRING_SERVICE&#45;&gt;mrs.application.service.auth.UserRepository</title>
            <path fill="none" stroke="black" d="M189.58,-102.35C180.31,-98.6 169.89,-94.39 159.98,-90.38"/>
            <polygon fill="black" stroke="black" points="161.27,-87.13 150.68,-86.62 158.64,-93.62 161.27,-87.13"/>
            <text text-anchor="middle" x="171.28" y="-100.17" font-family="Times New Roman,serif" font-size="14.00">2
            </text>
        </g>
        <!-- SPRING_SERVICE&#45;&gt;mrs.application.service.reservation.ReservationRepository -->
        <g id="edge10" class="edge">
            <title>SPRING_SERVICE&#45;&gt;mrs.application.service.reservation.ReservationRepository</title>
            <path fill="none" stroke="black" d="M210.19,-132.28C200.64,-152.35 185.12,-184.93 174.12,-208.04"/>
            <polygon fill="black" stroke="black" points="170.85,-206.76 169.71,-217.3 177.17,-209.77 170.85,-206.76"/>
        </g>
        <!-- SPRING_SERVICE&#45;&gt;mrs.application.service.room.MeetingRoomRepository -->
        <g id="edge5" class="edge">
            <title>SPRING_SERVICE&#45;&gt;mrs.application.service.room.MeetingRoomRepository</title>
            <path fill="none" stroke="black" d="M232.1,-132.22C246.2,-151.38 268.62,-181.83 284.64,-203.6"/>
            <polygon fill="black" stroke="black" points="281.9,-205.78 290.65,-211.76 287.54,-201.63 281.9,-205.78"/>
        </g>
        <!-- SPRING_SERVICE&#45;&gt;mrs.application.service.room.ReservableRoomRepository -->
        <g id="edge3" class="edge">
            <title>SPRING_SERVICE&#45;&gt;mrs.application.service.room.ReservableRoomRepository</title>
            <path fill="none" stroke="black" d="M189.47,-119.65C173.75,-122.59 153.71,-126.33 134.48,-129.92"/>
            <polygon fill="black" stroke="black" points="133.71,-126.5 124.52,-131.78 134.99,-133.38 133.71,-126.5"/>
            <text text-anchor="middle" x="158.47" y="-128.58" font-family="Times New Roman,serif" font-size="14.00">2
            </text>
        </g>
        <!-- mrs.infrastructure.datasource.Message -->
        <g id="node8" class="node">
            <title>mrs.infrastructure.datasource.Message</title>
            <polygon fill="lightgrey" stroke="black"
                     points="305.68,-35.94 240.68,-35.94 240.68,0.06 305.68,0.06 305.68,-35.94"/>
            <text text-anchor="middle" x="273.18" y="-14.24" font-family="Times New Roman,serif" font-size="14.00">
                Message
            </text>
        </g>
        <!-- SPRING_SERVICE&#45;&gt;mrs.infrastructure.datasource.Message -->
        <g id="edge4" class="edge">
            <title>SPRING_SERVICE&#45;&gt;mrs.infrastructure.datasource.Message</title>
            <path fill="none" stroke="black" d="M229.04,-96.07C237.17,-81.69 248.66,-61.35 257.88,-45.03"/>
            <polygon fill="black" stroke="black" points="261.13,-46.38 263,-35.95 255.03,-42.94 261.13,-46.38"/>
            <text text-anchor="middle" x="239.96" y="-74.35" font-family="Times New Roman,serif" font-size="14.00">2
            </text>
        </g>
        <!-- SPRING_CONTROLLER -->
        <g id="node7" class="node">
            <title>SPRING_CONTROLLER</title>
            <polygon fill="#eedd82" stroke="black"
                     points="371.37,-114.44 298.37,-114.44 298.37,-110.44 294.37,-110.44 294.37,-106.44 298.37,-106.44 298.37,-86.44 294.37,-86.44 294.37,-82.44 298.37,-82.44 298.37,-78.44 371.37,-78.44 371.37,-114.44"/>
            <polyline fill="none" stroke="black" points="298.37,-110.44 302.37,-110.44 302.37,-106.44 298.37,-106.44 "/>
            <polyline fill="none" stroke="black" points="298.37,-86.44 302.37,-86.44 302.37,-82.44 298.37,-82.44 "/>
            <text text-anchor="middle" x="334.87" y="-92.74" font-family="Times New Roman,serif" font-size="14.00">
                Controller
            </text>
        </g>
        <!-- SPRING_CONTROLLER&#45;&gt;SPRING_SERVICE -->
        <g id="edge1" class="edge">
            <title>SPRING_CONTROLLER&#45;&gt;SPRING_SERVICE</title>
            <path fill="none" stroke="black" d="M298.15,-102.05C285.37,-104 270.98,-106.2 258,-108.18"/>
            <polygon fill="black" stroke="black" points="257.31,-104.75 247.95,-109.72 258.37,-111.67 257.31,-104.75"/>
            <text text-anchor="middle" x="274.58" y="-108.91" font-family="Times New Roman,serif" font-size="14.00">3
            </text>
        </g>
        <!-- SPRING_CONTROLLER&#45;&gt;mrs.infrastructure.datasource.Message -->
        <g id="edge8" class="edge">
            <title>SPRING_CONTROLLER&#45;&gt;mrs.infrastructure.datasource.Message</title>
            <path fill="none" stroke="black" d="M320.56,-78.23C312.62,-68.12 302.6,-55.37 293.82,-44.21"/>
            <polygon fill="black" stroke="black" points="296.34,-41.74 287.41,-36.04 290.84,-46.07 296.34,-41.74"/>
        </g>
    </g>
</svg>
