<?xml version="1.0" encoding="UTF-8" standalone="no"?>
<!DOCTYPE svg PUBLIC "-//W3C//DTD SVG 1.1//EN"
        "http://www.w3.org/Graphics/SVG/1.1/DTD/svg11.dtd">
<!-- Generated by graphviz version 3.0.0 (20220226.1711)
 -->
<!-- Title: コンポーネント関連図 Pages: 1 -->
<svg width="364pt" height="306pt"
     viewBox="0.00 0.00 364.00 306.00" xmlns="http://www.w3.org/2000/svg">
    <g id="graph0" class="graph" transform="scale(1 1) rotate(0) translate(4 279)">
        <title>コンポーネント関連図</title>
        <polygon fill="white" stroke="transparent" points="-4,27 -4,-279 360,-279 360,27 -4,27"/>
        <text text-anchor="middle" x="178" y="15.2" font-family="Times New Roman,serif" font-size="14.00">コンポーネント関連図
        </text>
        <!-- SPRING_CONTROLLER -->
        <g id="node1" class="node">
            <title>SPRING_CONTROLLER</title>
            <polygon fill="#eedd82" stroke="black"
                     points="73.34,-199.08 0.34,-199.08 0.34,-195.08 -3.66,-195.08 -3.66,-191.08 0.34,-191.08 0.34,-171.08 -3.66,-171.08 -3.66,-167.08 0.34,-167.08 0.34,-163.08 73.34,-163.08 73.34,-199.08"/>
            <polyline fill="none" stroke="black" points="0.34,-195.08 4.34,-195.08 4.34,-191.08 0.34,-191.08 "/>
            <polyline fill="none" stroke="black" points="0.34,-171.08 4.34,-171.08 4.34,-167.08 0.34,-167.08 "/>
            <text text-anchor="middle" x="36.84" y="-177.38" font-family="Times New Roman,serif" font-size="14.00">
                Controller
            </text>
        </g>
        <!-- mrs.infrastructure.datasource.Message -->
        <g id="node2" class="node">
            <title>mrs.infrastructure.datasource.Message</title>
            <polygon fill="lightgrey" stroke="black"
                     points="82.13,-251.48 17.13,-251.48 17.13,-215.48 82.13,-215.48 82.13,-251.48"/>
            <text text-anchor="middle" x="49.63" y="-229.78" font-family="Times New Roman,serif" font-size="14.00">
                Message
            </text>
        </g>
        <!-- SPRING_CONTROLLER&#45;&gt;mrs.infrastructure.datasource.Message -->
        <g id="edge10" class="edge">
            <title>SPRING_CONTROLLER&#45;&gt;mrs.infrastructure.datasource.Message</title>
            <path fill="none" stroke="black" d="M41.25,-199.11C41.74,-201.15 42.26,-203.26 42.78,-205.38"/>
            <polygon fill="black" stroke="black" points="39.41,-206.35 45.18,-215.24 46.21,-204.69 39.41,-206.35"/>
            <text text-anchor="middle" x="38.51" y="-206.05" font-family="Times New Roman,serif" font-size="14.00">5
            </text>
        </g>
        <!-- SPRING_SERVICE -->
        <g id="node3" class="node">
            <title>SPRING_SERVICE</title>
            <polygon fill="#eedd82" stroke="black"
                     points="192.6,-192.62 134.6,-192.62 134.6,-188.62 130.6,-188.62 130.6,-184.62 134.6,-184.62 134.6,-164.62 130.6,-164.62 130.6,-160.62 134.6,-160.62 134.6,-156.62 192.6,-156.62 192.6,-192.62"/>
            <polyline fill="none" stroke="black" points="134.6,-188.62 138.6,-188.62 138.6,-184.62 134.6,-184.62 "/>
            <polyline fill="none" stroke="black" points="134.6,-164.62 138.6,-164.62 138.6,-160.62 134.6,-160.62 "/>
            <text text-anchor="middle" x="163.6" y="-170.92" font-family="Times New Roman,serif" font-size="14.00">
                Service
            </text>
        </g>
        <!-- SPRING_CONTROLLER&#45;&gt;SPRING_SERVICE -->
        <g id="edge1" class="edge">
            <title>SPRING_CONTROLLER&#45;&gt;SPRING_SERVICE</title>
            <path fill="none" stroke="black" d="M73.51,-179.21C89.34,-178.41 107.9,-177.46 124.04,-176.64"/>
            <polygon fill="black" stroke="black" points="124.44,-180.12 134.25,-176.12 124.09,-173.13 124.44,-180.12"/>
            <text text-anchor="middle" x="95.28" y="-181.73" font-family="Times New Roman,serif" font-size="14.00">9
            </text>
        </g>
        <!-- SPRING_SERVICE&#45;&gt;mrs.infrastructure.datasource.Message -->
        <g id="edge4" class="edge">
            <title>SPRING_SERVICE&#45;&gt;mrs.infrastructure.datasource.Message</title>
            <path fill="none" stroke="black" d="M134.55,-189.63C121.46,-196.39 105.75,-204.5 91.43,-211.9"/>
            <polygon fill="black" stroke="black" points="89.53,-208.94 82.26,-216.64 92.75,-215.16 89.53,-208.94"/>
            <text text-anchor="middle" x="109.49" y="-189.56" font-family="Times New Roman,serif" font-size="14.00">4
            </text>
        </g>
        <!-- mrs.application.service.auth.UserRepository -->
        <g id="node4" class="node">
            <title>mrs.application.service.auth.UserRepository</title>
            <ellipse fill="lightgrey" stroke="black" cx="281.84" cy="-256.66" rx="43.1" ry="18"/>
            <text text-anchor="middle" x="281.84" y="-254.46" font-family="Times New Roman,serif" font-size="9.00">
                UserRepository
            </text>
        </g>
        <!-- SPRING_SERVICE&#45;&gt;mrs.application.service.auth.UserRepository -->
        <g id="edge7" class="edge">
            <title>SPRING_SERVICE&#45;&gt;mrs.application.service.auth.UserRepository</title>
            <path fill="none" stroke="black" d="M189.55,-192.63C207.71,-205.22 232.03,-222.1 251.15,-235.37"/>
            <polygon fill="black" stroke="black" points="249.32,-238.36 259.53,-241.18 253.31,-232.61 249.32,-238.36"/>
            <text text-anchor="middle" x="223.85" y="-202.8" font-family="Times New Roman,serif" font-size="14.00">2
            </text>
        </g>
        <!-- mrs.application.service.contact.ContactRepository -->
        <g id="node5" class="node">
            <title>mrs.application.service.contact.ContactRepository</title>
            <ellipse fill="lightgrey" stroke="black" cx="306.84" cy="-172.89" rx="49.8" ry="18"/>
            <text text-anchor="middle" x="306.84" y="-170.69" font-family="Times New Roman,serif" font-size="9.00">
                ContactRepository
            </text>
        </g>
        <!-- SPRING_SERVICE&#45;&gt;mrs.application.service.contact.ContactRepository -->
        <g id="edge12" class="edge">
            <title>SPRING_SERVICE&#45;&gt;mrs.application.service.contact.ContactRepository</title>
            <path fill="none" stroke="black" d="M192.93,-174.27C208.47,-174.08 228.15,-173.84 246.76,-173.62"/>
            <polygon fill="black" stroke="black" points="246.99,-177.12 256.95,-173.49 246.91,-170.12 246.99,-177.12"/>
            <text text-anchor="middle" x="216.34" y="-177.74" font-family="Times New Roman,serif" font-size="14.00">2
            </text>
        </g>
        <!-- mrs.application.service.facility.room.MeetingRoomRepository -->
        <g id="node6" class="node">
            <title>mrs.application.service.facility.room.MeetingRoomRepository</title>
            <ellipse fill="lightgrey" stroke="black" cx="161.75" cy="-229.27" rx="63.52" ry="18"/>
            <text text-anchor="middle" x="161.75" y="-227.07" font-family="Times New Roman,serif" font-size="9.00">
                MeetingRoomRepository
            </text>
        </g>
        <!-- SPRING_SERVICE&#45;&gt;mrs.application.service.facility.room.MeetingRoomRepository -->
        <g id="edge8" class="edge">
            <title>SPRING_SERVICE&#45;&gt;mrs.application.service.facility.room.MeetingRoomRepository</title>
            <path fill="none" stroke="black" d="M162.99,-192.82C162.9,-195.37 162.81,-198.05 162.72,-200.74"/>
            <polygon fill="black" stroke="black" points="159.21,-200.86 162.37,-210.97 166.21,-201.09 159.21,-200.86"/>
            <text text-anchor="middle" x="159.35" y="-200.58" font-family="Times New Roman,serif" font-size="14.00">2
            </text>
        </g>
        <!-- mrs.application.service.reservation.reservation.ReservationRepository -->
        <g id="node7" class="node">
            <title>mrs.application.service.reservation.reservation.ReservationRepository</title>
            <ellipse fill="lightgrey" stroke="black" cx="269.55" cy="-69.71" rx="58.13" ry="18"/>
            <text text-anchor="middle" x="269.55" y="-67.51" font-family="Times New Roman,serif" font-size="9.00">
                ReservationRepository
            </text>
        </g>
        <!-- SPRING_SERVICE&#45;&gt;mrs.application.service.reservation.reservation.ReservationRepository -->
        <g id="edge3" class="edge">
            <title>SPRING_SERVICE&#45;&gt;mrs.application.service.reservation.reservation.ReservationRepository</title>
            <path fill="none" stroke="black" d="M182.06,-156.35C199.43,-139.14 225.58,-113.24 244.77,-94.24"/>
            <polygon fill="black" stroke="black" points="247.36,-96.6 252.01,-87.08 242.44,-91.63 247.36,-96.6"/>
        </g>
        <!-- mrs.application.service.reservation.room.ReservableRoomRepository -->
        <g id="node8" class="node">
            <title>mrs.application.service.reservation.room.ReservableRoomRepository</title>
            <ellipse fill="lightgrey" stroke="black" cx="152.66" cy="-18.5" rx="68.91" ry="18"/>
            <text text-anchor="middle" x="152.66" y="-16.3" font-family="Times New Roman,serif" font-size="9.00">
                ReservableRoomRepository
            </text>
        </g>
        <!-- SPRING_SERVICE&#45;&gt;mrs.application.service.reservation.room.ReservableRoomRepository -->
        <g id="edge6" class="edge">
            <title>SPRING_SERVICE&#45;&gt;mrs.application.service.reservation.room.ReservableRoomRepository</title>
            <path fill="none" stroke="black" d="M162.33,-156.41C160.43,-129.38 156.86,-78.43 154.63,-46.6"/>
            <polygon fill="black" stroke="black" points="158.12,-46.33 153.93,-36.6 151.14,-46.82 158.12,-46.33"/>
            <text text-anchor="middle" x="154.98" y="-105.3" font-family="Times New Roman,serif" font-size="14.00">2
            </text>
        </g>
        <!-- SPRING_REPOSITORY -->
        <g id="node9" class="node">
            <title>SPRING_REPOSITORY</title>
            <polygon fill="#eedd82" stroke="black"
                     points="314.52,-141.95 235.52,-141.95 235.52,-137.95 231.52,-137.95 231.52,-133.95 235.52,-133.95 235.52,-113.95 231.52,-113.95 231.52,-109.95 235.52,-109.95 235.52,-105.95 314.52,-105.95 314.52,-141.95"/>
            <polyline fill="none" stroke="black" points="235.52,-137.95 239.52,-137.95 239.52,-133.95 235.52,-133.95 "/>
            <polyline fill="none" stroke="black" points="235.52,-113.95 239.52,-113.95 239.52,-109.95 235.52,-109.95 "/>
            <text text-anchor="middle" x="275.02" y="-120.25" font-family="Times New Roman,serif" font-size="14.00">
                Repository
            </text>
        </g>
        <!-- SPRING_REPOSITORY&#45;&gt;mrs.application.service.auth.UserRepository -->
        <g id="edge13" class="edge">
            <title>SPRING_REPOSITORY&#45;&gt;mrs.application.service.auth.UserRepository</title>
            <path fill="none" stroke="black" d="M275.96,-142.12C277.1,-164.33 279.04,-202.17 280.38,-228.24"/>
            <polygon fill="black" stroke="black" points="276.89,-228.47 280.89,-238.28 283.88,-228.11 276.89,-228.47"/>
        </g>
        <!-- SPRING_REPOSITORY&#45;&gt;mrs.application.service.contact.ContactRepository -->
        <g id="edge2" class="edge">
            <title>SPRING_REPOSITORY&#45;&gt;mrs.application.service.contact.ContactRepository</title>
            <path fill="none" stroke="black" d="M286.87,-142.17C287.82,-143.63 288.78,-145.12 289.76,-146.62"/>
            <polygon fill="black" stroke="black" points="286.91,-148.66 295.3,-155.14 292.78,-144.85 286.91,-148.66"/>
        </g>
        <!-- SPRING_REPOSITORY&#45;&gt;mrs.application.service.facility.room.MeetingRoomRepository -->
        <g id="edge11" class="edge">
            <title>SPRING_REPOSITORY&#45;&gt;mrs.application.service.facility.room.MeetingRoomRepository</title>
            <path fill="none" stroke="black" d="M255.55,-142.05C236.93,-159.37 208.71,-185.61 188.09,-204.78"/>
            <polygon fill="black" stroke="black" points="185.53,-202.38 180.59,-211.75 190.3,-207.51 185.53,-202.38"/>
        </g>
        <!-- SPRING_REPOSITORY&#45;&gt;mrs.application.service.reservation.reservation.ReservationRepository -->
        <g id="edge5" class="edge">
            <title>SPRING_REPOSITORY&#45;&gt;mrs.application.service.reservation.reservation.ReservationRepository
            </title>
            <path fill="none" stroke="black" d="M273.2,-105.89C272.94,-103.35 272.68,-100.7 272.41,-98.03"/>
            <polygon fill="black" stroke="black" points="275.87,-97.47 271.38,-87.88 268.9,-98.18 275.87,-97.47"/>
        </g>
        <!-- SPRING_REPOSITORY&#45;&gt;mrs.application.service.reservation.room.ReservableRoomRepository -->
        <g id="edge9" class="edge">
            <title>SPRING_REPOSITORY&#45;&gt;mrs.application.service.reservation.room.ReservableRoomRepository</title>
            <path fill="none" stroke="black" d="M253.99,-105.82C233.78,-88.41 203.12,-61.98 180.82,-42.76"/>
            <polygon fill="black" stroke="black" points="182.87,-39.91 173.01,-36.04 178.3,-45.22 182.87,-39.91"/>
        </g>
    </g>
</svg>
