<?xml version="1.0" encoding="UTF-8" standalone="no"?>
<!DOCTYPE svg PUBLIC "-//W3C//DTD SVG 1.1//EN"
        "http://www.w3.org/Graphics/SVG/1.1/DTD/svg11.dtd">
<!-- Generated by graphviz version 3.0.0 (20220226.1711)
 -->
<!-- Title: コンポーネント関連図 Pages: 1 -->
<svg width="372pt" height="181pt"
     viewBox="0.00 0.00 372.00 181.00" xmlns="http://www.w3.org/2000/svg">
    <g id="graph0" class="graph" transform="scale(1 1) rotate(0) translate(4 154)">
        <title>コンポーネント関連図</title>
        <polygon fill="white" stroke="transparent" points="-4,27 -4,-154 368,-154 368,27 -4,27"/>
        <text text-anchor="middle" x="182" y="15.2" font-family="Times New Roman,serif" font-size="14.00">コンポーネント関連図
        </text>
        <!-- mrs.application.service.auth.UserRepository -->
        <g id="node1" class="node">
            <title>mrs.application.service.auth.UserRepository</title>
            <ellipse fill="lightgrey" stroke="black" cx="81.76" cy="-131.57" rx="43.1" ry="18"/>
            <text text-anchor="middle" x="81.76" y="-129.37" font-family="Times New Roman,serif" font-size="9.00">
                UserRepository
            </text>
        </g>
        <!-- mrs.application.service.reservation.ReservationRepository -->
        <g id="node2" class="node">
            <title>mrs.application.service.reservation.ReservationRepository</title>
            <ellipse fill="lightgrey" stroke="black" cx="58.77" cy="-24.51" rx="58.13" ry="18"/>
            <text text-anchor="middle" x="58.77" y="-22.31" font-family="Times New Roman,serif" font-size="9.00">
                ReservationRepository
            </text>
        </g>
        <!-- mrs.application.service.room.MeetingRoomRepository -->
        <g id="node3" class="node">
            <title>mrs.application.service.room.MeetingRoomRepository</title>
            <ellipse fill="lightgrey" stroke="black" cx="200.71" cy="-17.76" rx="63.52" ry="18"/>
            <text text-anchor="middle" x="200.71" y="-15.56" font-family="Times New Roman,serif" font-size="9.00">
                MeetingRoomRepository
            </text>
        </g>
        <!-- mrs.application.service.room.ReservableRoomRepository -->
        <g id="node4" class="node">
            <title>mrs.application.service.room.ReservableRoomRepository</title>
            <ellipse fill="lightgrey" stroke="black" cx="210.92" cy="-127.03" rx="68.91" ry="18"/>
            <text text-anchor="middle" x="210.92" y="-124.83" font-family="Times New Roman,serif" font-size="9.00">
                ReservableRoomRepository
            </text>
        </g>
        <!-- SPRING_REPOSITORY -->
        <g id="node5" class="node">
            <title>SPRING_REPOSITORY</title>
            <polygon fill="#eedd82" stroke="black"
                     points="97.96,-95.96 18.96,-95.96 18.96,-91.96 14.96,-91.96 14.96,-87.96 18.96,-87.96 18.96,-67.96 14.96,-67.96 14.96,-63.96 18.96,-63.96 18.96,-59.96 97.96,-59.96 97.96,-95.96"/>
            <polyline fill="none" stroke="black" points="18.96,-91.96 22.96,-91.96 22.96,-87.96 18.96,-87.96 "/>
            <polyline fill="none" stroke="black" points="18.96,-67.96 22.96,-67.96 22.96,-63.96 18.96,-63.96 "/>
            <text text-anchor="middle" x="58.46" y="-74.26" font-family="Times New Roman,serif" font-size="14.00">
                Repository
            </text>
        </g>
        <!-- SPRING_REPOSITORY&#45;&gt;mrs.application.service.auth.UserRepository -->
        <g id="edge9" class="edge">
            <title>SPRING_REPOSITORY&#45;&gt;mrs.application.service.auth.UserRepository</title>
            <path fill="none" stroke="black" d="M66.35,-96.11C67.51,-98.79 68.73,-101.59 69.95,-104.4"/>
            <polygon fill="black" stroke="black" points="66.84,-106.03 74.04,-113.8 73.26,-103.23 66.84,-106.03"/>
        </g>
        <!-- SPRING_REPOSITORY&#45;&gt;mrs.application.service.reservation.ReservationRepository -->
        <g id="edge2" class="edge">
            <title>SPRING_REPOSITORY&#45;&gt;mrs.application.service.reservation.ReservationRepository</title>
            <path fill="none" stroke="black" d="M58.56,-59.87C58.58,-57.52 58.59,-55.06 58.6,-52.6"/>
            <polygon fill="black" stroke="black" points="62.1,-52.61 58.66,-42.59 55.1,-52.57 62.1,-52.61"/>
        </g>
        <!-- SPRING_REPOSITORY&#45;&gt;mrs.application.service.room.MeetingRoomRepository -->
        <g id="edge5" class="edge">
            <title>SPRING_REPOSITORY&#45;&gt;mrs.application.service.room.MeetingRoomRepository</title>
            <path fill="none" stroke="black" d="M98.08,-61.19C116.01,-53.61 137.27,-44.61 155.79,-36.77"/>
            <polygon fill="black" stroke="black" points="157.34,-39.91 165.18,-32.79 154.61,-33.47 157.34,-39.91"/>
        </g>
        <!-- SPRING_REPOSITORY&#45;&gt;mrs.application.service.room.ReservableRoomRepository -->
        <g id="edge7" class="edge">
            <title>SPRING_REPOSITORY&#45;&gt;mrs.application.service.room.ReservableRoomRepository</title>
            <path fill="none" stroke="black" d="M98.12,-90.73C116.31,-96.58 138.14,-103.6 157.73,-109.91"/>
            <polygon fill="black" stroke="black" points="156.85,-113.3 167.44,-113.03 158.99,-106.64 156.85,-113.3"/>
        </g>
        <!-- SPRING_SERVICE -->
        <g id="node6" class="node">
            <title>SPRING_SERVICE</title>
            <polygon fill="#eedd82" stroke="black"
                     points="226.84,-90.59 168.84,-90.59 168.84,-86.59 164.84,-86.59 164.84,-82.59 168.84,-82.59 168.84,-62.59 164.84,-62.59 164.84,-58.59 168.84,-58.59 168.84,-54.59 226.84,-54.59 226.84,-90.59"/>
            <polyline fill="none" stroke="black" points="168.84,-86.59 172.84,-86.59 172.84,-82.59 168.84,-82.59 "/>
            <polyline fill="none" stroke="black" points="168.84,-62.59 172.84,-62.59 172.84,-58.59 168.84,-58.59 "/>
            <text text-anchor="middle" x="197.84" y="-68.89" font-family="Times New Roman,serif" font-size="14.00">
                Service
            </text>
        </g>
        <!-- SPRING_SERVICE&#45;&gt;mrs.application.service.auth.UserRepository -->
        <g id="edge6" class="edge">
            <title>SPRING_SERVICE&#45;&gt;mrs.application.service.auth.UserRepository</title>
            <path fill="none" stroke="black" d="M168.55,-87.47C153.39,-95.17 134.73,-104.65 118.61,-112.85"/>
            <polygon fill="black" stroke="black" points="116.78,-109.85 109.45,-117.5 119.95,-116.09 116.78,-109.85"/>
            <text text-anchor="middle" x="140.08" y="-88.96" font-family="Times New Roman,serif" font-size="14.00">2
            </text>
        </g>
        <!-- SPRING_SERVICE&#45;&gt;mrs.application.service.reservation.ReservationRepository -->
        <g id="edge8" class="edge">
            <title>SPRING_SERVICE&#45;&gt;mrs.application.service.reservation.ReservationRepository</title>
            <path fill="none" stroke="black" d="M168.69,-62.51C150.88,-56.35 127.66,-48.33 107.16,-41.24"/>
            <polygon fill="black" stroke="black" points="108.24,-37.91 97.65,-37.95 105.96,-44.53 108.24,-37.91"/>
        </g>
        <!-- SPRING_SERVICE&#45;&gt;mrs.application.service.room.MeetingRoomRepository -->
        <g id="edge4" class="edge">
            <title>SPRING_SERVICE&#45;&gt;mrs.application.service.room.MeetingRoomRepository</title>
            <path fill="none" stroke="black" d="M198.8,-54.33C198.93,-51.77 199.07,-49.09 199.22,-46.39"/>
            <polygon fill="black" stroke="black" points="202.73,-46.29 199.75,-36.12 195.73,-45.93 202.73,-46.29"/>
        </g>
        <!-- SPRING_SERVICE&#45;&gt;mrs.application.service.room.ReservableRoomRepository -->
        <g id="edge3" class="edge">
            <title>SPRING_SERVICE&#45;&gt;mrs.application.service.room.ReservableRoomRepository</title>
            <path fill="none" stroke="black" d="M202.2,-90.72C202.83,-93.35 203.5,-96.11 204.16,-98.89"/>
            <polygon fill="black" stroke="black" points="200.8,-99.89 206.54,-108.79 207.61,-98.25 200.8,-99.89"/>
            <text text-anchor="middle" x="199.68" y="-98.6" font-family="Times New Roman,serif" font-size="14.00">2
            </text>
        </g>
        <!-- SPRING_CONTROLLER -->
        <g id="node7" class="node">
            <title>SPRING_CONTROLLER</title>
            <polygon fill="#eedd82" stroke="black"
                     points="364.38,-80.32 291.38,-80.32 291.38,-76.32 287.38,-76.32 287.38,-72.32 291.38,-72.32 291.38,-52.32 287.38,-52.32 287.38,-48.32 291.38,-48.32 291.38,-44.32 364.38,-44.32 364.38,-80.32"/>
            <polyline fill="none" stroke="black" points="291.38,-76.32 295.38,-76.32 295.38,-72.32 291.38,-72.32 "/>
            <polyline fill="none" stroke="black" points="291.38,-52.32 295.38,-52.32 295.38,-48.32 291.38,-48.32 "/>
            <text text-anchor="middle" x="327.88" y="-58.62" font-family="Times New Roman,serif" font-size="14.00">
                Controller
            </text>
        </g>
        <!-- SPRING_CONTROLLER&#45;&gt;SPRING_SERVICE -->
        <g id="edge1" class="edge">
            <title>SPRING_CONTROLLER&#45;&gt;SPRING_SERVICE</title>
            <path fill="none" stroke="black" d="M291.31,-65.21C274.51,-66.53 254.56,-68.11 237.42,-69.46"/>
            <polygon fill="black" stroke="black" points="236.85,-66 227.15,-70.27 237.4,-72.98 236.85,-66"/>
            <text text-anchor="middle" x="260.86" y="-71.14" font-family="Times New Roman,serif" font-size="14.00">3
            </text>
        </g>
    </g>
</svg>
