<?xml version="1.0" encoding="UTF-8" standalone="no"?>
<!DOCTYPE svg PUBLIC "-//W3C//DTD SVG 1.1//EN"
        "http://www.w3.org/Graphics/SVG/1.1/DTD/svg11.dtd">
<!-- Generated by graphviz version 3.0.0 (20220226.1711)
 -->
<!-- Title: コンポーネント関連図 Pages: 1 -->
<svg width="392pt" height="279pt"
     viewBox="0.00 0.00 392.00 279.00" xmlns="http://www.w3.org/2000/svg">
    <g id="graph0" class="graph" transform="scale(1 1) rotate(0) translate(4 252)">
        <title>コンポーネント関連図</title>
        <polygon fill="white" stroke="transparent" points="-4,27 -4,-252 388,-252 388,27 -4,27"/>
        <text text-anchor="middle" x="192" y="15.2" font-family="Times New Roman,serif" font-size="14.00">コンポーネント関連図
        </text>
        <!-- mrs.application.service.auth.UserRepository -->
        <g id="node1" class="node">
            <title>mrs.application.service.auth.UserRepository</title>
            <ellipse fill="lightgrey" stroke="black" cx="97.24" cy="-22.47" rx="43.1" ry="18"/>
            <text text-anchor="middle" x="97.24" y="-20.27" font-family="Times New Roman,serif" font-size="9.00">
                UserRepository
            </text>
        </g>
        <!-- mrs.application.service.reservation.ReservationRepository -->
        <g id="node2" class="node">
            <title>mrs.application.service.reservation.ReservationRepository</title>
            <ellipse fill="lightgrey" stroke="black" cx="57.86" cy="-73.43" rx="58.13" ry="18"/>
            <text text-anchor="middle" x="57.86" y="-71.23" font-family="Times New Roman,serif" font-size="9.00">
                ReservationRepository
            </text>
        </g>
        <!-- mrs.application.service.room.MeetingRoomRepository -->
        <g id="node3" class="node">
            <title>mrs.application.service.room.MeetingRoomRepository</title>
            <ellipse fill="lightgrey" stroke="black" cx="300.05" cy="-33.13" rx="63.52" ry="18"/>
            <text text-anchor="middle" x="300.05" y="-30.93" font-family="Times New Roman,serif" font-size="9.00">
                MeetingRoomRepository
            </text>
        </g>
        <!-- mrs.application.service.room.ReservableRoomRepository -->
        <g id="node4" class="node">
            <title>mrs.application.service.room.ReservableRoomRepository</title>
            <ellipse fill="lightgrey" stroke="black" cx="315.3" cy="-111.76" rx="68.91" ry="18"/>
            <text text-anchor="middle" x="315.3" y="-109.56" font-family="Times New Roman,serif" font-size="9.00">
                ReservableRoomRepository
            </text>
        </g>
        <!-- SPRING_CONTROLLER -->
        <g id="node5" class="node">
            <title>SPRING_CONTROLLER</title>
            <polygon fill="#eedd82" stroke="black"
                     points="247.69,-247.74 174.69,-247.74 174.69,-243.74 170.69,-243.74 170.69,-239.74 174.69,-239.74 174.69,-219.74 170.69,-219.74 170.69,-215.74 174.69,-215.74 174.69,-211.74 247.69,-211.74 247.69,-247.74"/>
            <polyline fill="none" stroke="black" points="174.69,-243.74 178.69,-243.74 178.69,-239.74 174.69,-239.74 "/>
            <polyline fill="none" stroke="black" points="174.69,-219.74 178.69,-219.74 178.69,-215.74 174.69,-215.74 "/>
            <text text-anchor="middle" x="211.19" y="-226.04" font-family="Times New Roman,serif" font-size="14.00">
                Controller
            </text>
        </g>
        <!-- mrs.infrastructure.datasource.Message -->
        <g id="node6" class="node">
            <title>mrs.infrastructure.datasource.Message</title>
            <polygon fill="lightgrey" stroke="black"
                     points="146.75,-229.41 81.75,-229.41 81.75,-193.41 146.75,-193.41 146.75,-229.41"/>
            <text text-anchor="middle" x="114.25" y="-207.71" font-family="Times New Roman,serif" font-size="14.00">
                Message
            </text>
        </g>
        <!-- SPRING_CONTROLLER&#45;&gt;mrs.infrastructure.datasource.Message -->
        <g id="edge8" class="edge">
            <title>SPRING_CONTROLLER&#45;&gt;mrs.infrastructure.datasource.Message</title>
            <path fill="none" stroke="black" d="M174.54,-222.81C168.7,-221.71 162.62,-220.55 156.66,-219.43"/>
            <polygon fill="black" stroke="black" points="157.29,-215.98 146.81,-217.57 155.99,-222.86 157.29,-215.98"/>
        </g>
        <!-- SPRING_SERVICE -->
        <g id="node8" class="node">
            <title>SPRING_SERVICE</title>
            <polygon fill="#eedd82" stroke="black"
                     points="202.89,-136.29 144.89,-136.29 144.89,-132.29 140.89,-132.29 140.89,-128.29 144.89,-128.29 144.89,-108.29 140.89,-108.29 140.89,-104.29 144.89,-104.29 144.89,-100.29 202.89,-100.29 202.89,-136.29"/>
            <polyline fill="none" stroke="black" points="144.89,-132.29 148.89,-132.29 148.89,-128.29 144.89,-128.29 "/>
            <polyline fill="none" stroke="black" points="144.89,-108.29 148.89,-108.29 148.89,-104.29 144.89,-104.29 "/>
            <text text-anchor="middle" x="173.89" y="-114.59" font-family="Times New Roman,serif" font-size="14.00">
                Service
            </text>
        </g>
        <!-- SPRING_CONTROLLER&#45;&gt;SPRING_SERVICE -->
        <g id="edge1" class="edge">
            <title>SPRING_CONTROLLER&#45;&gt;SPRING_SERVICE</title>
            <path fill="none" stroke="black" d="M205.03,-211.34C199.08,-193.57 190,-166.42 183.17,-146.03"/>
            <polygon fill="black" stroke="black" points="186.43,-144.73 179.93,-136.36 179.79,-146.95 186.43,-144.73"/>
            <text text-anchor="middle" x="190.6" y="-182.49" font-family="Times New Roman,serif" font-size="14.00">5
            </text>
        </g>
        <!-- SPRING_REPOSITORY -->
        <g id="node7" class="node">
            <title>SPRING_REPOSITORY</title>
            <polygon fill="#eedd82" stroke="black"
                     points="227.61,-36.01 148.61,-36.01 148.61,-32.01 144.61,-32.01 144.61,-28.01 148.61,-28.01 148.61,-8.01 144.61,-8.01 144.61,-4.01 148.61,-4.01 148.61,-0.01 227.61,-0.01 227.61,-36.01"/>
            <polyline fill="none" stroke="black" points="148.61,-32.01 152.61,-32.01 152.61,-28.01 148.61,-28.01 "/>
            <polyline fill="none" stroke="black" points="148.61,-8.01 152.61,-8.01 152.61,-4.01 148.61,-4.01 "/>
            <text text-anchor="middle" x="188.11" y="-14.31" font-family="Times New Roman,serif" font-size="14.00">
                Repository
            </text>
        </g>
        <!-- SPRING_REPOSITORY&#45;&gt;mrs.application.service.auth.UserRepository -->
        <g id="edge11" class="edge">
            <title>SPRING_REPOSITORY&#45;&gt;mrs.application.service.auth.UserRepository</title>
            <path fill="none" stroke="black" d="M148.51,-19.95C148.43,-19.96 148.35,-19.96 148.26,-19.96"/>
            <polygon fill="black" stroke="black" points="150.25,-16.36 140.44,-20.35 150.6,-23.35 150.25,-16.36"/>
        </g>
        <!-- SPRING_REPOSITORY&#45;&gt;mrs.application.service.reservation.ReservationRepository -->
        <g id="edge2" class="edge">
            <title>SPRING_REPOSITORY&#45;&gt;mrs.application.service.reservation.ReservationRepository</title>
            <path fill="none" stroke="black" d="M148.32,-34.94C133.59,-41.2 116.82,-48.34 101.75,-54.76"/>
            <polygon fill="black" stroke="black" points="99.96,-51.71 92.13,-58.85 102.7,-58.16 99.96,-51.71"/>
        </g>
        <!-- SPRING_REPOSITORY&#45;&gt;mrs.application.service.room.MeetingRoomRepository -->
        <g id="edge6" class="edge">
            <title>SPRING_REPOSITORY&#45;&gt;mrs.application.service.room.MeetingRoomRepository</title>
            <path fill="none" stroke="black" d="M227.89,-23.38C229.38,-23.58 230.89,-23.79 232.41,-23.99"/>
            <polygon fill="black" stroke="black" points="232.2,-27.5 242.58,-25.37 233.14,-20.56 232.2,-27.5"/>
        </g>
        <!-- SPRING_REPOSITORY&#45;&gt;mrs.application.service.room.ReservableRoomRepository -->
        <g id="edge9" class="edge">
            <title>SPRING_REPOSITORY&#45;&gt;mrs.application.service.room.ReservableRoomRepository</title>
            <path fill="none" stroke="black" d="M212.63,-36.08C232.99,-51.09 262.06,-72.52 284.08,-88.74"/>
            <polygon fill="black" stroke="black" points="282.01,-91.57 292.14,-94.68 286.17,-85.93 282.01,-91.57"/>
        </g>
        <!-- SPRING_SERVICE&#45;&gt;mrs.application.service.auth.UserRepository -->
        <g id="edge7" class="edge">
            <title>SPRING_SERVICE&#45;&gt;mrs.application.service.auth.UserRepository</title>
            <path fill="none" stroke="black" d="M159.47,-100.27C147.65,-85.5 130.79,-64.41 117.59,-47.92"/>
            <polygon fill="black" stroke="black" points="120.05,-45.39 111.07,-39.77 114.59,-49.76 120.05,-45.39"/>
            <text text-anchor="middle" x="135.03" y="-77.89" font-family="Times New Roman,serif" font-size="14.00">2
            </text>
        </g>
        <!-- SPRING_SERVICE&#45;&gt;mrs.application.service.reservation.ReservationRepository -->
        <g id="edge10" class="edge">
            <title>SPRING_SERVICE&#45;&gt;mrs.application.service.reservation.ReservationRepository</title>
            <path fill="none" stroke="black" d="M144.61,-106.97C132.4,-102.25 117.92,-96.65 104.32,-91.4"/>
            <polygon fill="black" stroke="black" points="105.21,-87.99 94.62,-87.64 102.69,-94.52 105.21,-87.99"/>
        </g>
        <!-- SPRING_SERVICE&#45;&gt;mrs.application.service.room.MeetingRoomRepository -->
        <g id="edge5" class="edge">
            <title>SPRING_SERVICE&#45;&gt;mrs.application.service.room.MeetingRoomRepository</title>
            <path fill="none" stroke="black" d="M200.64,-100.23C219.88,-87.25 245.96,-69.64 266.58,-55.72"/>
            <polygon fill="black" stroke="black" points="268.72,-58.5 275.05,-50.01 264.8,-52.7 268.72,-58.5"/>
        </g>
        <!-- SPRING_SERVICE&#45;&gt;mrs.application.service.room.ReservableRoomRepository -->
        <g id="edge3" class="edge">
            <title>SPRING_SERVICE&#45;&gt;mrs.application.service.room.ReservableRoomRepository</title>
            <path fill="none" stroke="black" d="M203.19,-116.94C213.3,-116.47 225.16,-115.92 237.31,-115.36"/>
            <polygon fill="black" stroke="black" points="237.72,-118.85 247.55,-114.89 237.39,-111.86 237.72,-118.85"/>
            <text text-anchor="middle" x="216.75" y="-119.95" font-family="Times New Roman,serif" font-size="14.00">2
            </text>
        </g>
        <!-- SPRING_SERVICE&#45;&gt;mrs.infrastructure.datasource.Message -->
        <g id="edge4" class="edge">
            <title>SPRING_SERVICE&#45;&gt;mrs.infrastructure.datasource.Message</title>
            <path fill="none" stroke="black" d="M162.1,-136.69C153.31,-150.42 141.16,-169.4 131.3,-184.79"/>
            <polygon fill="black" stroke="black" points="128.25,-183.06 125.8,-193.37 134.14,-186.83 128.25,-183.06"/>
            <text text-anchor="middle" x="143.2" y="-164.54" font-family="Times New Roman,serif" font-size="14.00">2
            </text>
        </g>
    </g>
</svg>
