<?xml version="1.0" encoding="UTF-8" standalone="no"?>
<!DOCTYPE svg PUBLIC "-//W3C//DTD SVG 1.1//EN"
 "http://www.w3.org/Graphics/SVG/1.1/DTD/svg11.dtd">
<!-- Generated by graphviz version 3.0.0 (20220226.1711)
 -->
<!-- Title: コンポーネント関連図 Pages: 1 -->
<svg width="438pt" height="332pt"
     viewBox="0.00 0.00 438.00 332.00" xmlns="http://www.w3.org/2000/svg">
    <g id="graph0" class="graph" transform="scale(1 1) rotate(0) translate(4 305)">
        <title>コンポーネント関連図</title>
        <polygon fill="white" stroke="transparent" points="-4,27 -4,-305 434,-305 434,27 -4,27"/>
        <text text-anchor="middle" x="215" y="15.2" font-family="Times New Roman,serif" font-size="14.00">コンポーネント関連図
        </text>
        <!-- SPRING_CONTROLLER -->
        <g id="node1" class="node">
            <title>SPRING_CONTROLLER</title>
            <polygon fill="#eedd82" stroke="black"
                     points="121,-259.25 48,-259.25 48,-255.25 44,-255.25 44,-251.25 48,-251.25 48,-231.25 44,-231.25 44,-227.25 48,-227.25 48,-223.25 121,-223.25 121,-259.25"/>
            <polyline fill="none" stroke="black" points="48,-255.25 52,-255.25 52,-251.25 48,-251.25 "/>
            <polyline fill="none" stroke="black" points="48,-231.25 52,-231.25 52,-227.25 48,-227.25 "/>
            <text text-anchor="middle" x="84.5" y="-237.55" font-family="Times New Roman,serif" font-size="14.00">
                Controller
            </text>
        </g>
        <!-- mrs.infrastructure.datasource.Message -->
        <g id="node3" class="node">
            <title>mrs.infrastructure.datasource.Message</title>
            <polygon fill="lightgrey" stroke="black"
                     points="95.88,-208.65 30.88,-208.65 30.88,-172.65 95.88,-172.65 95.88,-208.65"/>
            <text text-anchor="middle" x="63.38" y="-186.95" font-family="Times New Roman,serif" font-size="14.00">
                Message
            </text>
        </g>
        <!-- SPRING_CONTROLLER&#45;&gt;mrs.infrastructure.datasource.Message -->
        <g id="edge11" class="edge">
            <title>SPRING_CONTROLLER&#45;&gt;mrs.infrastructure.datasource.Message</title>
            <path fill="none" stroke="black" d="M76.87,-222.98C76.21,-221.39 75.52,-219.75 74.84,-218.1"/>
            <polygon fill="black" stroke="black" points="78,-216.6 70.92,-208.72 71.54,-219.3 78,-216.6"/>
            <text text-anchor="middle" x="68.85" y="-209.34" font-family="Times New Roman,serif" font-size="14.00">11
            </text>
        </g>
        <!-- SPRING_SERVICE -->
        <g id="node6" class="node">
            <title>SPRING_SERVICE</title>
            <polygon fill="#eedd82" stroke="black"
                     points="211.6,-175.09 153.6,-175.09 153.6,-171.09 149.6,-171.09 149.6,-167.09 153.6,-167.09 153.6,-147.09 149.6,-147.09 149.6,-143.09 153.6,-143.09 153.6,-139.09 211.6,-139.09 211.6,-175.09"/>
            <polyline fill="none" stroke="black" points="153.6,-171.09 157.6,-171.09 157.6,-167.09 153.6,-167.09 "/>
            <polyline fill="none" stroke="black" points="153.6,-147.09 157.6,-147.09 157.6,-143.09 153.6,-143.09 "/>
            <text text-anchor="middle" x="182.6" y="-153.39" font-family="Times New Roman,serif" font-size="14.00">
                Service
            </text>
        </g>
        <!-- SPRING_CONTROLLER&#45;&gt;SPRING_SERVICE -->
        <g id="edge1" class="edge">
            <title>SPRING_CONTROLLER&#45;&gt;SPRING_SERVICE</title>
            <path fill="none" stroke="black" d="M105.78,-222.99C119.8,-210.97 138.32,-195.08 153.66,-181.92"/>
            <polygon fill="black" stroke="black" points="156.04,-184.49 161.35,-175.32 151.49,-179.17 156.04,-184.49"/>
            <text text-anchor="middle" x="122.72" y="-206.26" font-family="Times New Roman,serif" font-size="14.00">19
            </text>
        </g>
        <!-- SPRING_REPOSITORY -->
        <g id="node2" class="node">
            <title>SPRING_REPOSITORY</title>
            <polygon fill="#eedd82" stroke="black"
                     points="269.02,-89.79 190.02,-89.79 190.02,-85.79 186.02,-85.79 186.02,-81.79 190.02,-81.79 190.02,-61.79 186.02,-61.79 186.02,-57.79 190.02,-57.79 190.02,-53.79 269.02,-53.79 269.02,-89.79"/>
            <polyline fill="none" stroke="black" points="190.02,-85.79 194.02,-85.79 194.02,-81.79 190.02,-81.79 "/>
            <polyline fill="none" stroke="black" points="190.02,-61.79 194.02,-61.79 194.02,-57.79 190.02,-57.79 "/>
            <text text-anchor="middle" x="229.52" y="-68.09" font-family="Times New Roman,serif" font-size="14.00">
                Repository
            </text>
        </g>
        <!-- mrs.application.service.contact.ContactRepository -->
        <g id="node7" class="node">
            <title>mrs.application.service.contact.ContactRepository</title>
            <ellipse fill="lightgrey" stroke="black" cx="214" cy="-210.87" rx="49.8" ry="18"/>
            <text text-anchor="middle" x="214" y="-208.67" font-family="Times New Roman,serif" font-size="9.00">
                ContactRepository
            </text>
        </g>
        <!-- SPRING_REPOSITORY&#45;&gt;mrs.application.service.contact.ContactRepository -->
        <g id="edge2" class="edge">
            <title>SPRING_REPOSITORY&#45;&gt;mrs.application.service.contact.ContactRepository</title>
            <path fill="none" stroke="black" d="M227.49,-89.97C224.86,-113.5 220.26,-154.76 217.17,-182.45"/>
            <polygon fill="black" stroke="black" points="213.66,-182.36 216.03,-192.68 220.61,-183.13 213.66,-182.36"/>
        </g>
        <!-- mrs.application.service.facility.room.MeetingRoomRepository -->
        <g id="node8" class="node">
            <title>mrs.application.service.facility.room.MeetingRoomRepository</title>
            <ellipse fill="lightgrey" stroke="black" cx="338.25" cy="-185.81" rx="63.52" ry="18"/>
            <text text-anchor="middle" x="338.25" y="-183.61" font-family="Times New Roman,serif" font-size="9.00">
                MeetingRoomRepository
            </text>
        </g>
        <!-- SPRING_REPOSITORY&#45;&gt;mrs.application.service.facility.room.MeetingRoomRepository -->
        <g id="edge13" class="edge">
            <title>SPRING_REPOSITORY&#45;&gt;mrs.application.service.facility.room.MeetingRoomRepository</title>
            <path fill="none" stroke="black" d="M246.75,-89.85C264.99,-108.98 293.91,-139.31 314.35,-160.75"/>
            <polygon fill="black" stroke="black" points="312.03,-163.38 321.46,-168.21 317.09,-158.55 312.03,-163.38"/>
        </g>
        <!-- mrs.application.service.reservation.reservation.ReservationRepository -->
        <g id="node9" class="node">
            <title>mrs.application.service.reservation.reservation.ReservationRepository</title>
            <ellipse fill="lightgrey" stroke="black" cx="337.14" cy="-113.97" rx="58.13" ry="18"/>
            <text text-anchor="middle" x="337.14" y="-111.77" font-family="Times New Roman,serif" font-size="9.00">
                ReservationRepository
            </text>
        </g>
        <!-- SPRING_REPOSITORY&#45;&gt;mrs.application.service.reservation.reservation.ReservationRepository -->
        <g id="edge5" class="edge">
            <title>SPRING_REPOSITORY&#45;&gt;mrs.application.service.reservation.reservation.ReservationRepository
            </title>
            <path fill="none" stroke="black" d="M269.29,-87.37C276.37,-90.15 283.8,-93.06 291.03,-95.9"/>
            <polygon fill="black" stroke="black" points="290.15,-99.31 300.74,-99.7 292.7,-92.79 290.15,-99.31"/>
        </g>
        <!-- mrs.application.service.reservation.room.ReservableRoomRepository -->
        <g id="node10" class="node">
            <title>mrs.application.service.reservation.room.ReservableRoomRepository</title>
            <ellipse fill="lightgrey" stroke="black" cx="68.49" cy="-45.69" rx="68.91" ry="18"/>
            <text text-anchor="middle" x="68.49" y="-43.49" font-family="Times New Roman,serif" font-size="9.00">
                ReservableRoomRepository
            </text>
        </g>
        <!-- SPRING_REPOSITORY&#45;&gt;mrs.application.service.reservation.room.ReservableRoomRepository -->
        <g id="edge10" class="edge">
            <title>SPRING_REPOSITORY&#45;&gt;mrs.application.service.reservation.room.ReservableRoomRepository</title>
            <path fill="none" stroke="black" d="M189.71,-65.34C173.76,-62.75 154.91,-59.7 136.9,-56.78"/>
            <polygon fill="black" stroke="black" points="137.43,-53.32 127,-55.17 136.31,-60.23 137.43,-53.32"/>
        </g>
        <!-- mrs.application.service.user.UserRepository -->
        <g id="node11" class="node">
            <title>mrs.application.service.user.UserRepository</title>
            <ellipse fill="lightgrey" stroke="black" cx="195.62" cy="-17.69" rx="43.1" ry="18"/>
            <text text-anchor="middle" x="195.62" y="-15.49" font-family="Times New Roman,serif" font-size="9.00">
                UserRepository
            </text>
        </g>
        <!-- SPRING_REPOSITORY&#45;&gt;mrs.application.service.user.UserRepository -->
        <g id="edge6" class="edge">
            <title>SPRING_REPOSITORY&#45;&gt;mrs.application.service.user.UserRepository</title>
            <path fill="none" stroke="black" d="M218.23,-53.77C216.27,-50.64 214.19,-47.32 212.12,-44.02"/>
            <polygon fill="black" stroke="black" points="215.02,-42.06 206.74,-35.44 209.09,-45.77 215.02,-42.06"/>
        </g>
        <!-- mrs.infrastructure.security.jwt.AuthEntryPointJwt -->
        <g id="node4" class="node">
            <title>mrs.infrastructure.security.jwt.AuthEntryPointJwt</title>
            <polygon fill="lightgrey" stroke="black"
                     points="430.14,-288.3 308.14,-288.3 308.14,-252.3 430.14,-252.3 430.14,-288.3"/>
            <text text-anchor="middle" x="369.14" y="-266.6" font-family="Times New Roman,serif" font-size="14.00">
                AuthEntryPointJwt
            </text>
        </g>
        <!-- mrs.infrastructure.security.jwt.JwtUtils -->
        <g id="node5" class="node">
            <title>mrs.infrastructure.security.jwt.JwtUtils</title>
            <polygon fill="lightgrey" stroke="black"
                     points="233.35,-300.94 172.35,-300.94 172.35,-264.94 233.35,-264.94 233.35,-300.94"/>
            <text text-anchor="middle" x="202.85" y="-279.24" font-family="Times New Roman,serif" font-size="14.00">
                JwtUtils
            </text>
        </g>
        <!-- SPRING_SERVICE&#45;&gt;mrs.infrastructure.datasource.Message -->
        <g id="edge4" class="edge">
            <title>SPRING_SERVICE&#45;&gt;mrs.infrastructure.datasource.Message</title>
            <path fill="none" stroke="black" d="M153.44,-165.3C139.19,-169.31 121.76,-174.22 106.05,-178.64"/>
            <polygon fill="black" stroke="black" points="104.7,-175.38 96.02,-181.46 106.6,-182.12 104.7,-175.38"/>
            <text text-anchor="middle" x="126.24" y="-175.77" font-family="Times New Roman,serif" font-size="14.00">4
            </text>
        </g>
        <!-- SPRING_SERVICE&#45;&gt;mrs.infrastructure.security.jwt.JwtUtils -->
        <g id="edge12" class="edge">
            <title>SPRING_SERVICE&#45;&gt;mrs.infrastructure.security.jwt.JwtUtils</title>
            <path fill="none" stroke="black" d="M185.5,-175.12C188.84,-195.85 194.35,-230.12 198.27,-254.46"/>
            <polygon fill="black" stroke="black" points="194.84,-255.22 199.89,-264.53 201.75,-254.1 194.84,-255.22"/>
        </g>
        <!-- SPRING_SERVICE&#45;&gt;mrs.application.service.contact.ContactRepository -->
        <g id="edge14" class="edge">
            <title>SPRING_SERVICE&#45;&gt;mrs.application.service.contact.ContactRepository</title>
            <path fill="none" stroke="black" d="M193.23,-175.3C194.9,-178.16 196.66,-181.18 198.42,-184.18"/>
            <polygon fill="black" stroke="black" points="195.53,-186.18 203.59,-193.05 201.57,-182.65 195.53,-186.18"/>
            <text text-anchor="middle" x="192.32" y="-183.54" font-family="Times New Roman,serif" font-size="14.00">2
            </text>
        </g>
        <!-- SPRING_SERVICE&#45;&gt;mrs.application.service.facility.room.MeetingRoomRepository -->
        <g id="edge9" class="edge">
            <title>SPRING_SERVICE&#45;&gt;mrs.application.service.facility.room.MeetingRoomRepository</title>
            <path fill="none" stroke="black" d="M211.88,-162.5C229.67,-165.78 253.1,-170.1 274.95,-174.13"/>
            <polygon fill="black" stroke="black" points="274.38,-177.59 284.85,-175.96 275.65,-170.7 274.38,-177.59"/>
            <text text-anchor="middle" x="239.91" y="-172.12" font-family="Times New Roman,serif" font-size="14.00">2
            </text>
        </g>
        <!-- SPRING_SERVICE&#45;&gt;mrs.application.service.reservation.reservation.ReservationRepository -->
        <g id="edge3" class="edge">
            <title>SPRING_SERVICE&#45;&gt;mrs.application.service.reservation.reservation.ReservationRepository</title>
            <path fill="none" stroke="black" d="M211.67,-148.98C231.95,-143.32 259.62,-135.6 283.82,-128.85"/>
            <polygon fill="black" stroke="black" points="284.9,-132.18 293.59,-126.12 283.02,-125.44 284.9,-132.18"/>
        </g>
        <!-- SPRING_SERVICE&#45;&gt;mrs.application.service.reservation.room.ReservableRoomRepository -->
        <g id="edge7" class="edge">
            <title>SPRING_SERVICE&#45;&gt;mrs.application.service.reservation.room.ReservableRoomRepository</title>
            <path fill="none" stroke="black" d="M164.01,-138.95C144.89,-120.28 114.97,-91.07 93.72,-70.32"/>
            <polygon fill="black" stroke="black" points="95.92,-67.58 86.32,-63.1 91.03,-72.59 95.92,-67.58"/>
            <text text-anchor="middle" x="125.37" y="-108.43" font-family="Times New Roman,serif" font-size="14.00">2
            </text>
        </g>
        <!-- SPRING_SERVICE&#45;&gt;mrs.application.service.user.UserRepository -->
        <g id="edge8" class="edge">
            <title>SPRING_SERVICE&#45;&gt;mrs.application.service.user.UserRepository</title>
            <path fill="none" stroke="black" d="M184.3,-138.87C186.51,-115.28 190.37,-73.93 192.96,-46.18"/>
            <polygon fill="black" stroke="black" points="196.47,-46.2 193.92,-35.92 189.5,-45.55 196.47,-46.2"/>
            <text text-anchor="middle" x="185.13" y="-96.32" font-family="Times New Roman,serif" font-size="14.00">2
            </text>
        </g>
    </g>
</svg>
