<?xml version="1.0" encoding="UTF-8" standalone="no"?>
<!DOCTYPE svg PUBLIC "-//W3C//DTD SVG 1.1//EN"
 "http://www.w3.org/Graphics/SVG/1.1/DTD/svg11.dtd">
<!-- Generated by graphviz version 3.0.0 (20220226.1711)
 -->
<!-- Title: コンポーネント関連図 Pages: 1 -->
<svg width="405pt" height="293pt"
     viewBox="0.00 0.00 405.00 293.00" xmlns="http://www.w3.org/2000/svg">
    <g id="graph0" class="graph" transform="scale(1 1) rotate(0) translate(4 266)">
        <title>コンポーネント関連図</title>
        <polygon fill="white" stroke="transparent" points="-4,27 -4,-266 401,-266 401,27 -4,27"/>
        <text text-anchor="middle" x="198.5" y="15.2" font-family="Times New Roman,serif" font-size="14.00">
            コンポーネント関連図
        </text>
        <!-- SPRING_SERVICE -->
        <g id="node1" class="node">
            <title>SPRING_SERVICE</title>
            <polygon fill="#eedd82" stroke="black"
                     points="203.52,-145.27 145.52,-145.27 145.52,-141.27 141.52,-141.27 141.52,-137.27 145.52,-137.27 145.52,-117.27 141.52,-117.27 141.52,-113.27 145.52,-113.27 145.52,-109.27 203.52,-109.27 203.52,-145.27"/>
            <polyline fill="none" stroke="black" points="145.52,-141.27 149.52,-141.27 149.52,-137.27 145.52,-137.27 "/>
            <polyline fill="none" stroke="black" points="145.52,-117.27 149.52,-117.27 149.52,-113.27 145.52,-113.27 "/>
            <text text-anchor="middle" x="174.52" y="-123.57" font-family="Times New Roman,serif" font-size="14.00">
                Service
            </text>
        </g>
        <!-- mrs.infrastructure.datasource.Message -->
        <g id="node3" class="node">
            <title>mrs.infrastructure.datasource.Message</title>
            <polygon fill="lightgrey" stroke="black"
                     points="221.16,-35.52 156.16,-35.52 156.16,0.48 221.16,0.48 221.16,-35.52"/>
            <text text-anchor="middle" x="188.66" y="-13.82" font-family="Times New Roman,serif" font-size="14.00">
                Message
            </text>
        </g>
        <!-- SPRING_SERVICE&#45;&gt;mrs.infrastructure.datasource.Message -->
        <g id="edge4" class="edge">
            <title>SPRING_SERVICE&#45;&gt;mrs.infrastructure.datasource.Message</title>
            <path fill="none" stroke="black" d="M176.85,-109.15C179.07,-91.91 182.45,-65.72 185.02,-45.74"/>
            <polygon fill="black" stroke="black" points="188.51,-46.03 186.32,-35.67 181.57,-45.14 188.51,-46.03"/>
            <text text-anchor="middle" x="177.44" y="-81.24" font-family="Times New Roman,serif" font-size="14.00">4
            </text>
        </g>
        <!-- mrs.infrastructure.security.jwt.JwtUtils -->
        <g id="node5" class="node">
            <title>mrs.infrastructure.security.jwt.JwtUtils</title>
            <polygon fill="lightgrey" stroke="black"
                     points="205.79,-261.82 144.79,-261.82 144.79,-225.82 205.79,-225.82 205.79,-261.82"/>
            <text text-anchor="middle" x="175.29" y="-240.12" font-family="Times New Roman,serif" font-size="14.00">
                JwtUtils
            </text>
        </g>
        <!-- SPRING_SERVICE&#45;&gt;mrs.infrastructure.security.jwt.JwtUtils -->
        <g id="edge12" class="edge">
            <title>SPRING_SERVICE&#45;&gt;mrs.infrastructure.security.jwt.JwtUtils</title>
            <path fill="none" stroke="black" d="M174.64,-145.48C174.76,-164.3 174.96,-193.92 175.1,-215.73"/>
            <polygon fill="black" stroke="black" points="171.6,-215.76 175.17,-225.74 178.6,-215.71 171.6,-215.76"/>
        </g>
        <!-- mrs.application.service.contact.ContactRepository -->
        <g id="node6" class="node">
            <title>mrs.application.service.contact.ContactRepository</title>
            <ellipse fill="lightgrey" stroke="black" cx="280.46" cy="-223.13" rx="49.8" ry="18"/>
            <text text-anchor="middle" x="280.46" y="-220.93" font-family="Times New Roman,serif" font-size="9.00">
                ContactRepository
            </text>
        </g>
        <!-- SPRING_SERVICE&#45;&gt;mrs.application.service.contact.ContactRepository -->
        <g id="edge14" class="edge">
            <title>SPRING_SERVICE&#45;&gt;mrs.application.service.contact.ContactRepository</title>
            <path fill="none" stroke="black" d="M194.45,-145.3C211.33,-160.58 235.68,-182.61 254.17,-199.34"/>
            <polygon fill="black" stroke="black" points="251.93,-202.03 261.69,-206.15 256.63,-196.84 251.93,-202.03"/>
            <text text-anchor="middle" x="227.81" y="-176.12" font-family="Times New Roman,serif" font-size="14.00">2
            </text>
        </g>
        <!-- mrs.application.service.facility.room.MeetingRoomRepository -->
        <g id="node7" class="node">
            <title>mrs.application.service.facility.room.MeetingRoomRepository</title>
            <ellipse fill="lightgrey" stroke="black" cx="63.78" cy="-226.45" rx="63.52" ry="18"/>
            <text text-anchor="middle" x="63.78" y="-224.25" font-family="Times New Roman,serif" font-size="9.00">
                MeetingRoomRepository
            </text>
        </g>
        <!-- SPRING_SERVICE&#45;&gt;mrs.application.service.facility.room.MeetingRoomRepository -->
        <g id="edge9" class="edge">
            <title>SPRING_SERVICE&#45;&gt;mrs.application.service.facility.room.MeetingRoomRepository</title>
            <path fill="none" stroke="black" d="M154.21,-145.46C136.43,-161.39 110.45,-184.65 90.9,-202.17"/>
            <polygon fill="black" stroke="black" points="88.33,-199.76 83.22,-209.04 93,-204.98 88.33,-199.76"/>
            <text text-anchor="middle" x="119.05" y="-177.61" font-family="Times New Roman,serif" font-size="14.00">2
            </text>
        </g>
        <!-- mrs.application.service.reservation.reservation.ReservationRepository -->
        <g id="node8" class="node">
            <title>mrs.application.service.reservation.reservation.ReservationRepository</title>
            <ellipse fill="lightgrey" stroke="black" cx="300.32" cy="-89.2" rx="58.13" ry="18"/>
            <text text-anchor="middle" x="300.32" y="-87" font-family="Times New Roman,serif" font-size="9.00">
                ReservationRepository
            </text>
        </g>
        <!-- SPRING_SERVICE&#45;&gt;mrs.application.service.reservation.reservation.ReservationRepository -->
        <g id="edge3" class="edge">
            <title>SPRING_SERVICE&#45;&gt;mrs.application.service.reservation.reservation.ReservationRepository</title>
            <path fill="none" stroke="black" d="M203.7,-118.44C217.03,-114.4 233.24,-109.5 248.55,-104.87"/>
            <polygon fill="black" stroke="black" points="249.87,-108.12 258.43,-101.87 247.85,-101.42 249.87,-108.12"/>
        </g>
        <!-- mrs.application.service.reservation.room.ReservableRoomRepository -->
        <g id="node9" class="node">
            <title>mrs.application.service.reservation.room.ReservableRoomRepository</title>
            <ellipse fill="lightgrey" stroke="black" cx="303.13" cy="-138.43" rx="68.91" ry="18"/>
            <text text-anchor="middle" x="303.13" y="-136.23" font-family="Times New Roman,serif" font-size="9.00">
                ReservableRoomRepository
            </text>
        </g>
        <!-- SPRING_SERVICE&#45;&gt;mrs.application.service.reservation.room.ReservableRoomRepository -->
        <g id="edge7" class="edge">
            <title>SPRING_SERVICE&#45;&gt;mrs.application.service.reservation.room.ReservableRoomRepository</title>
            <path fill="none" stroke="black" d="M203.7,-129.8C211.05,-130.44 219.29,-131.15 227.79,-131.89"/>
            <polygon fill="black" stroke="black" points="227.59,-135.39 237.85,-132.76 228.19,-128.41 227.59,-135.39"/>
            <text text-anchor="middle" x="212.25" y="-134.65" font-family="Times New Roman,serif" font-size="14.00">2
            </text>
        </g>
        <!-- mrs.application.service.user.UserRepository -->
        <g id="node10" class="node">
            <title>mrs.application.service.user.UserRepository</title>
            <ellipse fill="lightgrey" stroke="black" cx="64.58" cy="-148.4" rx="43.1" ry="18"/>
            <text text-anchor="middle" x="64.58" y="-146.2" font-family="Times New Roman,serif" font-size="9.00">
                UserRepository
            </text>
        </g>
        <!-- SPRING_SERVICE&#45;&gt;mrs.application.service.user.UserRepository -->
        <g id="edge8" class="edge">
            <title>SPRING_SERVICE&#45;&gt;mrs.application.service.user.UserRepository</title>
            <path fill="none" stroke="black" d="M145.34,-132.88C135.8,-134.71 124.91,-136.8 114.29,-138.84"/>
            <polygon fill="black" stroke="black" points="113.4,-135.45 104.24,-140.77 114.72,-142.32 113.4,-135.45"/>
            <text text-anchor="middle" x="126.32" y="-139.66" font-family="Times New Roman,serif" font-size="14.00">2
            </text>
        </g>
        <!-- SPRING_REPOSITORY -->
        <g id="node2" class="node">
            <title>SPRING_REPOSITORY</title>
            <polygon fill="#eedd82" stroke="black"
                     points="219.34,-193.84 140.34,-193.84 140.34,-189.84 136.34,-189.84 136.34,-185.84 140.34,-185.84 140.34,-165.84 136.34,-165.84 136.34,-161.84 140.34,-161.84 140.34,-157.84 219.34,-157.84 219.34,-193.84"/>
            <polyline fill="none" stroke="black" points="140.34,-189.84 144.34,-189.84 144.34,-185.84 140.34,-185.84 "/>
            <polyline fill="none" stroke="black" points="140.34,-165.84 144.34,-165.84 144.34,-161.84 140.34,-161.84 "/>
            <text text-anchor="middle" x="179.84" y="-172.14" font-family="Times New Roman,serif" font-size="14.00">
                Repository
            </text>
        </g>
        <!-- SPRING_REPOSITORY&#45;&gt;mrs.application.service.contact.ContactRepository -->
        <g id="edge2" class="edge">
            <title>SPRING_REPOSITORY&#45;&gt;mrs.application.service.contact.ContactRepository</title>
            <path fill="none" stroke="black" d="M218.17,-193.85C225.59,-197.34 233.38,-201 240.84,-204.51"/>
            <polygon fill="black" stroke="black" points="239.52,-207.75 250.06,-208.84 242.5,-201.42 239.52,-207.75"/>
        </g>
        <!-- SPRING_REPOSITORY&#45;&gt;mrs.application.service.facility.room.MeetingRoomRepository -->
        <g id="edge13" class="edge">
            <title>SPRING_REPOSITORY&#45;&gt;mrs.application.service.facility.room.MeetingRoomRepository</title>
            <path fill="none" stroke="black" d="M140.22,-193.12C129.76,-197.68 118.41,-202.63 107.73,-207.29"/>
            <polygon fill="black" stroke="black" points="106.33,-204.08 98.56,-211.29 109.13,-210.5 106.33,-204.08"/>
        </g>
        <!-- SPRING_REPOSITORY&#45;&gt;mrs.application.service.reservation.reservation.ReservationRepository -->
        <g id="edge5" class="edge">
            <title>SPRING_REPOSITORY&#45;&gt;mrs.application.service.reservation.reservation.ReservationRepository
            </title>
            <path fill="none" stroke="black" d="M205.1,-157.68C223.69,-144.3 249.1,-126.03 268.99,-111.73"/>
            <polygon fill="black" stroke="black" points="271.06,-114.55 277.14,-105.87 266.98,-108.86 271.06,-114.55"/>
        </g>
        <!-- SPRING_REPOSITORY&#45;&gt;mrs.application.service.reservation.room.ReservableRoomRepository -->
        <g id="edge10" class="edge">
            <title>SPRING_REPOSITORY&#45;&gt;mrs.application.service.reservation.room.ReservableRoomRepository</title>
            <path fill="none" stroke="black" d="M219.53,-163.8C228.72,-161.01 238.65,-157.99 248.36,-155.05"/>
            <polygon fill="black" stroke="black" points="249.4,-158.39 257.95,-152.14 247.36,-151.69 249.4,-158.39"/>
        </g>
        <!-- SPRING_REPOSITORY&#45;&gt;mrs.application.service.user.UserRepository -->
        <g id="edge6" class="edge">
            <title>SPRING_REPOSITORY&#45;&gt;mrs.application.service.user.UserRepository</title>
            <path fill="none" stroke="black" d="M140.17,-166.4C131.18,-164.25 121.55,-161.96 112.26,-159.75"/>
            <polygon fill="black" stroke="black" points="112.91,-156.31 102.38,-157.4 111.29,-163.12 112.91,-156.31"/>
        </g>
        <!-- mrs.infrastructure.security.jwt.AuthEntryPointJwt -->
        <g id="node4" class="node">
            <title>mrs.infrastructure.security.jwt.AuthEntryPointJwt</title>
            <polygon fill="lightgrey" stroke="black"
                     points="397.14,-36.3 275.14,-36.3 275.14,-0.3 397.14,-0.3 397.14,-36.3"/>
            <text text-anchor="middle" x="336.14" y="-14.6" font-family="Times New Roman,serif" font-size="14.00">
                AuthEntryPointJwt
            </text>
        </g>
        <!-- SPRING_CONTROLLER -->
        <g id="node11" class="node">
            <title>SPRING_CONTROLLER</title>
            <polygon fill="#eedd82" stroke="black"
                     points="136.45,-60.37 63.45,-60.37 63.45,-56.37 59.45,-56.37 59.45,-52.37 63.45,-52.37 63.45,-32.37 59.45,-32.37 59.45,-28.37 63.45,-28.37 63.45,-24.37 136.45,-24.37 136.45,-60.37"/>
            <polyline fill="none" stroke="black" points="63.45,-56.37 67.45,-56.37 67.45,-52.37 63.45,-52.37 "/>
            <polyline fill="none" stroke="black" points="63.45,-32.37 67.45,-32.37 67.45,-28.37 63.45,-28.37 "/>
            <text text-anchor="middle" x="99.95" y="-38.67" font-family="Times New Roman,serif" font-size="14.00">
                Controller
            </text>
        </g>
        <!-- SPRING_CONTROLLER&#45;&gt;SPRING_SERVICE -->
        <g id="edge1" class="edge">
            <title>SPRING_CONTROLLER&#45;&gt;SPRING_SERVICE</title>
            <path fill="none" stroke="black" d="M115.77,-60.38C126.17,-72.23 139.97,-87.93 151.58,-101.15"/>
            <polygon fill="black" stroke="black" points="149.24,-103.79 158.47,-109 154.5,-99.17 149.24,-103.79"/>
            <text text-anchor="middle" x="126.67" y="-84.56" font-family="Times New Roman,serif" font-size="14.00">19
            </text>
        </g>
        <!-- SPRING_CONTROLLER&#45;&gt;mrs.infrastructure.datasource.Message -->
        <g id="edge11" class="edge">
            <title>SPRING_CONTROLLER&#45;&gt;mrs.infrastructure.datasource.Message</title>
            <path fill="none" stroke="black" d="M136.54,-32.12C139.79,-31.21 143.09,-30.28 146.38,-29.36"/>
            <polygon fill="black" stroke="black" points="147.44,-32.7 156.12,-26.63 145.55,-25.96 147.44,-32.7"/>
            <text text-anchor="middle" x="148.46" y="-34.54" font-family="Times New Roman,serif" font-size="14.00">11
            </text>
        </g>
    </g>
</svg>
