<?xml version="1.0" encoding="UTF-8" standalone="no"?>
<!DOCTYPE svg PUBLIC "-//W3C//DTD SVG 1.1//EN"
        "http://www.w3.org/Graphics/SVG/1.1/DTD/svg11.dtd">
<!-- Generated by graphviz version 3.0.0 (20220226.1711)
 -->
<!-- Title: コンポーネント関連図 Pages: 1 -->
<svg width="384pt" height="316pt"
     viewBox="0.00 0.00 384.00 316.00" xmlns="http://www.w3.org/2000/svg">
    <g id="graph0" class="graph" transform="scale(1 1) rotate(0) translate(4 289)">
        <title>コンポーネント関連図</title>
        <polygon fill="white" stroke="transparent" points="-4,27 -4,-289 380,-289 380,27 -4,27"/>
        <text text-anchor="middle" x="188" y="15.2" font-family="Times New Roman,serif" font-size="14.00">コンポーネント関連図
        </text>
        <!-- SPRING_SERVICE -->
        <g id="node1" class="node">
            <title>SPRING_SERVICE</title>
            <polygon fill="#eedd82" stroke="black"
                     points="217.49,-169.36 159.49,-169.36 159.49,-165.36 155.49,-165.36 155.49,-161.36 159.49,-161.36 159.49,-141.36 155.49,-141.36 155.49,-137.36 159.49,-137.36 159.49,-133.36 217.49,-133.36 217.49,-169.36"/>
            <polyline fill="none" stroke="black" points="159.49,-165.36 163.49,-165.36 163.49,-161.36 159.49,-161.36 "/>
            <polyline fill="none" stroke="black" points="159.49,-141.36 163.49,-141.36 163.49,-137.36 159.49,-137.36 "/>
            <text text-anchor="middle" x="188.49" y="-147.66" font-family="Times New Roman,serif" font-size="14.00">
                Service
            </text>
        </g>
        <!-- mrs.infrastructure.datasource.Message -->
        <g id="node3" class="node">
            <title>mrs.infrastructure.datasource.Message</title>
            <polygon fill="lightgrey" stroke="black"
                     points="271.96,-219.24 206.96,-219.24 206.96,-183.24 271.96,-183.24 271.96,-219.24"/>
            <text text-anchor="middle" x="239.46" y="-197.54" font-family="Times New Roman,serif" font-size="14.00">
                Message
            </text>
        </g>
        <!-- SPRING_SERVICE&#45;&gt;mrs.infrastructure.datasource.Message -->
        <g id="edge4" class="edge">
            <title>SPRING_SERVICE&#45;&gt;mrs.infrastructure.datasource.Message</title>
            <path fill="none" stroke="black" d="M206.89,-169.37C209.03,-171.46 211.24,-173.62 213.45,-175.79"/>
            <polygon fill="black" stroke="black" points="211.32,-178.6 220.91,-183.09 216.21,-173.59 211.32,-178.6"/>
            <text text-anchor="middle" x="206.67" y="-176.38" font-family="Times New Roman,serif" font-size="14.00">2
            </text>
        </g>
        <!-- mrs.application.service.auth.UserRepository -->
        <g id="node4" class="node">
            <title>mrs.application.service.auth.UserRepository</title>
            <ellipse fill="lightgrey" stroke="black" cx="301.84" cy="-149.94" rx="43.1" ry="18"/>
            <text text-anchor="middle" x="301.84" y="-147.74" font-family="Times New Roman,serif" font-size="9.00">
                UserRepository
            </text>
        </g>
        <!-- SPRING_SERVICE&#45;&gt;mrs.application.service.auth.UserRepository -->
        <g id="edge7" class="edge">
            <title>SPRING_SERVICE&#45;&gt;mrs.application.service.auth.UserRepository</title>
            <path fill="none" stroke="black" d="M217.68,-150.99C226.93,-150.88 237.47,-150.75 247.88,-150.62"/>
            <polygon fill="black" stroke="black" points="248.25,-154.11 258.2,-150.49 248.16,-147.11 248.25,-154.11"/>
            <text text-anchor="middle" x="229.28" y="-154.61" font-family="Times New Roman,serif" font-size="14.00">2
            </text>
        </g>
        <!-- mrs.application.service.reservation.ReservationRepository -->
        <g id="node5" class="node">
            <title>mrs.application.service.reservation.ReservationRepository</title>
            <ellipse fill="lightgrey" stroke="black" cx="317.6" cy="-90.72" rx="58.13" ry="18"/>
            <text text-anchor="middle" x="317.6" y="-88.52" font-family="Times New Roman,serif" font-size="9.00">
                ReservationRepository
            </text>
        </g>
        <!-- SPRING_SERVICE&#45;&gt;mrs.application.service.reservation.ReservationRepository -->
        <g id="edge10" class="edge">
            <title>SPRING_SERVICE&#45;&gt;mrs.application.service.reservation.ReservationRepository</title>
            <path fill="none" stroke="black" d="M217.78,-137.6C235.05,-129.49 257.16,-119.1 276.19,-110.17"/>
            <polygon fill="black" stroke="black" points="277.68,-113.33 285.24,-105.92 274.71,-107 277.68,-113.33"/>
        </g>
        <!-- mrs.application.service.room.MeetingRoomRepository -->
        <g id="node6" class="node">
            <title>mrs.application.service.room.MeetingRoomRepository</title>
            <ellipse fill="lightgrey" stroke="black" cx="63.39" cy="-90.9" rx="63.52" ry="18"/>
            <text text-anchor="middle" x="63.39" y="-88.7" font-family="Times New Roman,serif" font-size="9.00">
                MeetingRoomRepository
            </text>
        </g>
        <!-- SPRING_SERVICE&#45;&gt;mrs.application.service.room.MeetingRoomRepository -->
        <g id="edge5" class="edge">
            <title>SPRING_SERVICE&#45;&gt;mrs.application.service.room.MeetingRoomRepository</title>
            <path fill="none" stroke="black" d="M159.47,-137.34C143.24,-129.49 122.74,-119.59 104.85,-110.94"/>
            <polygon fill="black" stroke="black" points="106.29,-107.75 95.77,-106.55 103.25,-114.05 106.29,-107.75"/>
        </g>
        <!-- mrs.application.service.room.ReservableRoomRepository -->
        <g id="node7" class="node">
            <title>mrs.application.service.room.ReservableRoomRepository</title>
            <ellipse fill="lightgrey" stroke="black" cx="176.4" cy="-18.08" rx="68.91" ry="18"/>
            <text text-anchor="middle" x="176.4" y="-15.88" font-family="Times New Roman,serif" font-size="9.00">
                ReservableRoomRepository
            </text>
        </g>
        <!-- SPRING_SERVICE&#45;&gt;mrs.application.service.room.ReservableRoomRepository -->
        <g id="edge3" class="edge">
            <title>SPRING_SERVICE&#45;&gt;mrs.application.service.room.ReservableRoomRepository</title>
            <path fill="none" stroke="black" d="M186.83,-133.11C184.8,-110.68 181.32,-72.37 178.95,-46.18"/>
            <polygon fill="black" stroke="black" points="182.42,-45.76 178.04,-36.12 175.45,-46.39 182.42,-45.76"/>
            <text text-anchor="middle" x="179.39" y="-93.44" font-family="Times New Roman,serif" font-size="14.00">2
            </text>
        </g>
        <!-- SPRING_CONTROLLER -->
        <g id="node2" class="node">
            <title>SPRING_CONTROLLER</title>
            <polygon fill="#eedd82" stroke="black"
                     points="205.62,-284.77 132.62,-284.77 132.62,-280.77 128.62,-280.77 128.62,-276.77 132.62,-276.77 132.62,-256.77 128.62,-256.77 128.62,-252.77 132.62,-252.77 132.62,-248.77 205.62,-248.77 205.62,-284.77"/>
            <polyline fill="none" stroke="black" points="132.62,-280.77 136.62,-280.77 136.62,-276.77 132.62,-276.77 "/>
            <polyline fill="none" stroke="black" points="132.62,-256.77 136.62,-256.77 136.62,-252.77 132.62,-252.77 "/>
            <text text-anchor="middle" x="169.12" y="-263.07" font-family="Times New Roman,serif" font-size="14.00">
                Controller
            </text>
        </g>
        <!-- SPRING_CONTROLLER&#45;&gt;SPRING_SERVICE -->
        <g id="edge1" class="edge">
            <title>SPRING_CONTROLLER&#45;&gt;SPRING_SERVICE</title>
            <path fill="none" stroke="black" d="M172.15,-248.74C175.26,-230.21 180.14,-201.12 183.76,-179.55"/>
            <polygon fill="black" stroke="black" points="187.21,-180.09 185.42,-169.65 180.31,-178.93 187.21,-180.09"/>
            <text text-anchor="middle" x="174.45" y="-217.95" font-family="Times New Roman,serif" font-size="14.00">3
            </text>
        </g>
        <!-- SPRING_CONTROLLER&#45;&gt;mrs.infrastructure.datasource.Message -->
        <g id="edge8" class="edge">
            <title>SPRING_CONTROLLER&#45;&gt;mrs.infrastructure.datasource.Message</title>
            <path fill="none" stroke="black" d="M188.71,-248.52C196.03,-241.7 204.48,-233.83 212.35,-226.5"/>
            <polygon fill="black" stroke="black" points="215.04,-228.77 219.97,-219.4 210.27,-223.65 215.04,-228.77"/>
        </g>
        <!-- SPRING_REPOSITORY -->
        <g id="node8" class="node">
            <title>SPRING_REPOSITORY</title>
            <polygon fill="#eedd82" stroke="black"
                     points="249.53,-85.38 170.53,-85.38 170.53,-81.38 166.53,-81.38 166.53,-77.38 170.53,-77.38 170.53,-57.38 166.53,-57.38 166.53,-53.38 170.53,-53.38 170.53,-49.38 249.53,-49.38 249.53,-85.38"/>
            <polyline fill="none" stroke="black" points="170.53,-81.38 174.53,-81.38 174.53,-77.38 170.53,-77.38 "/>
            <polyline fill="none" stroke="black" points="170.53,-57.38 174.53,-57.38 174.53,-53.38 170.53,-53.38 "/>
            <text text-anchor="middle" x="210.03" y="-63.68" font-family="Times New Roman,serif" font-size="14.00">
                Repository
            </text>
        </g>
        <!-- SPRING_REPOSITORY&#45;&gt;mrs.application.service.auth.UserRepository -->
        <g id="edge11" class="edge">
            <title>SPRING_REPOSITORY&#45;&gt;mrs.application.service.auth.UserRepository</title>
            <path fill="none" stroke="black" d="M230.41,-85.7C243.78,-97.73 261.39,-113.56 275.78,-126.5"/>
            <polygon fill="black" stroke="black" points="273.62,-129.27 283.4,-133.35 278.3,-124.06 273.62,-129.27"/>
        </g>
        <!-- SPRING_REPOSITORY&#45;&gt;mrs.application.service.reservation.ReservationRepository -->
        <g id="edge2" class="edge">
            <title>SPRING_REPOSITORY&#45;&gt;mrs.application.service.reservation.ReservationRepository</title>
            <path fill="none" stroke="black" d="M249.78,-76C253.01,-76.7 256.32,-77.42 259.64,-78.14"/>
            <polygon fill="black" stroke="black" points="259.12,-81.61 269.63,-80.31 260.6,-74.77 259.12,-81.61"/>
        </g>
        <!-- SPRING_REPOSITORY&#45;&gt;mrs.application.service.room.MeetingRoomRepository -->
        <g id="edge6" class="edge">
            <title>SPRING_REPOSITORY&#45;&gt;mrs.application.service.room.MeetingRoomRepository</title>
            <path fill="none" stroke="black" d="M170.35,-73.74C157.59,-75.79 143.08,-78.12 128.97,-80.38"/>
            <polygon fill="black" stroke="black" points="128.11,-76.97 118.79,-82.01 129.22,-83.88 128.11,-76.97"/>
        </g>
        <!-- SPRING_REPOSITORY&#45;&gt;mrs.application.service.room.ReservableRoomRepository -->
        <g id="edge9" class="edge">
            <title>SPRING_REPOSITORY&#45;&gt;mrs.application.service.room.ReservableRoomRepository</title>
            <path fill="none" stroke="black" d="M197.7,-49.3C196.58,-47.65 195.42,-45.96 194.26,-44.26"/>
            <polygon fill="black" stroke="black" points="197.03,-42.12 188.51,-35.83 191.25,-46.06 197.03,-42.12"/>
        </g>
    </g>
</svg>
