<?xml version="1.0" encoding="UTF-8" standalone="no"?>
<!DOCTYPE svg PUBLIC "-//W3C//DTD SVG 1.1//EN"
 "http://www.w3.org/Graphics/SVG/1.1/DTD/svg11.dtd">
<!-- Generated by graphviz version 3.0.0 (20220226.1711)
 -->
<!-- Title: コンポーネント関連図 Pages: 1 -->
<svg width="430pt" height="302pt"
     viewBox="0.00 0.00 430.00 302.00" xmlns="http://www.w3.org/2000/svg">
    <g id="graph0" class="graph" transform="scale(1 1) rotate(0) translate(4 275)">
        <title>コンポーネント関連図</title>
        <polygon fill="white" stroke="transparent" points="-4,27 -4,-275 426,-275 426,27 -4,27"/>
        <text text-anchor="middle" x="211" y="15.2" font-family="Times New Roman,serif" font-size="14.00">コンポーネント関連図
        </text>
        <!-- SPRING_REPOSITORY -->
        <g id="node1" class="node">
            <title>SPRING_REPOSITORY</title>
            <polygon fill="#eedd82" stroke="black"
                     points="202.9,-221.1 123.9,-221.1 123.9,-217.1 119.9,-217.1 119.9,-213.1 123.9,-213.1 123.9,-193.1 119.9,-193.1 119.9,-189.1 123.9,-189.1 123.9,-185.1 202.9,-185.1 202.9,-221.1"/>
            <polyline fill="none" stroke="black" points="123.9,-217.1 127.9,-217.1 127.9,-213.1 123.9,-213.1 "/>
            <polyline fill="none" stroke="black" points="123.9,-193.1 127.9,-193.1 127.9,-189.1 123.9,-189.1 "/>
            <text text-anchor="middle" x="163.4" y="-199.4" font-family="Times New Roman,serif" font-size="14.00">
                Repository
            </text>
        </g>
        <!-- mrs.application.service.contact.ContactRepository -->
        <g id="node2" class="node">
            <title>mrs.application.service.contact.ContactRepository</title>
            <ellipse fill="lightgrey" stroke="black" cx="49.44" cy="-162.46" rx="49.8" ry="18"/>
            <text text-anchor="middle" x="49.44" y="-160.26" font-family="Times New Roman,serif" font-size="9.00">
                ContactRepository
            </text>
        </g>
        <!-- SPRING_REPOSITORY&#45;&gt;mrs.application.service.contact.ContactRepository -->
        <g id="edge2" class="edge">
            <title>SPRING_REPOSITORY&#45;&gt;mrs.application.service.contact.ContactRepository</title>
            <path fill="none" stroke="black" d="M123.86,-189C114.41,-185.63 104.25,-182.01 94.57,-178.56"/>
            <polygon fill="black" stroke="black" points="95.69,-175.24 85.09,-175.18 93.34,-181.83 95.69,-175.24"/>
        </g>
        <!-- mrs.application.service.facility.room.MeetingRoomRepository -->
        <g id="node3" class="node">
            <title>mrs.application.service.facility.room.MeetingRoomRepository</title>
            <ellipse fill="lightgrey" stroke="black" cx="294.11" cy="-195.06" rx="63.52" ry="18"/>
            <text text-anchor="middle" x="294.11" y="-192.86" font-family="Times New Roman,serif" font-size="9.00">
                MeetingRoomRepository
            </text>
        </g>
        <!-- SPRING_REPOSITORY&#45;&gt;mrs.application.service.facility.room.MeetingRoomRepository -->
        <g id="edge13" class="edge">
            <title>SPRING_REPOSITORY&#45;&gt;mrs.application.service.facility.room.MeetingRoomRepository</title>
            <path fill="none" stroke="black" d="M202.97,-200.67C208.99,-200.3 215.35,-199.91 221.81,-199.51"/>
            <polygon fill="black" stroke="black" points="222.22,-202.99 231.99,-198.88 221.79,-196 222.22,-202.99"/>
        </g>
        <!-- mrs.application.service.reservation.reservation.ReservationRepository -->
        <g id="node4" class="node">
            <title>mrs.application.service.reservation.reservation.ReservationRepository</title>
            <ellipse fill="lightgrey" stroke="black" cx="94.71" cy="-247.84" rx="58.13" ry="18"/>
            <text text-anchor="middle" x="94.71" y="-245.64" font-family="Times New Roman,serif" font-size="9.00">
                ReservationRepository
            </text>
        </g>
        <!-- SPRING_REPOSITORY&#45;&gt;mrs.application.service.reservation.reservation.ReservationRepository -->
        <g id="edge5" class="edge">
            <title>SPRING_REPOSITORY&#45;&gt;mrs.application.service.reservation.reservation.ReservationRepository
            </title>
            <path fill="none" stroke="black" d="M135.46,-221.3C133.19,-222.78 130.87,-224.29 128.56,-225.79"/>
            <polygon fill="black" stroke="black" points="126.22,-223.14 119.75,-231.53 130.04,-229 126.22,-223.14"/>
        </g>
        <!-- mrs.application.service.reservation.room.ReservableRoomRepository -->
        <g id="node5" class="node">
            <title>mrs.application.service.reservation.room.ReservableRoomRepository</title>
            <ellipse fill="lightgrey" stroke="black" cx="232.54" cy="-252.73" rx="68.91" ry="18"/>
            <text text-anchor="middle" x="232.54" y="-250.53" font-family="Times New Roman,serif" font-size="9.00">
                ReservableRoomRepository
            </text>
        </g>
        <!-- SPRING_REPOSITORY&#45;&gt;mrs.application.service.reservation.room.ReservableRoomRepository -->
        <g id="edge10" class="edge">
            <title>SPRING_REPOSITORY&#45;&gt;mrs.application.service.reservation.room.ReservableRoomRepository</title>
            <path fill="none" stroke="black" d="M188.75,-221.3C192.5,-223.99 196.39,-226.78 200.25,-229.56"/>
            <polygon fill="black" stroke="black" points="198.4,-232.54 208.57,-235.52 202.49,-226.85 198.4,-232.54"/>
        </g>
        <!-- mrs.application.service.user.UserRepository -->
        <g id="node6" class="node">
            <title>mrs.application.service.user.UserRepository</title>
            <ellipse fill="lightgrey" stroke="black" cx="66.1" cy="-110.93" rx="43.1" ry="18"/>
            <text text-anchor="middle" x="66.1" y="-108.73" font-family="Times New Roman,serif" font-size="9.00">
                UserRepository
            </text>
        </g>
        <!-- SPRING_REPOSITORY&#45;&gt;mrs.application.service.user.UserRepository -->
        <g id="edge6" class="edge">
            <title>SPRING_REPOSITORY&#45;&gt;mrs.application.service.user.UserRepository</title>
            <path fill="none" stroke="black" d="M144.18,-184.89C129.04,-170.55 107.82,-150.45 91.32,-134.82"/>
            <polygon fill="black" stroke="black" points="93.31,-131.89 83.65,-127.55 88.5,-136.97 93.31,-131.89"/>
        </g>
        <!-- SPRING_CONTROLLER -->
        <g id="node7" class="node">
            <title>SPRING_CONTROLLER</title>
            <polygon fill="#eedd82" stroke="black"
                     points="321.54,-95.55 248.54,-95.55 248.54,-91.55 244.54,-91.55 244.54,-87.55 248.54,-87.55 248.54,-67.55 244.54,-67.55 244.54,-63.55 248.54,-63.55 248.54,-59.55 321.54,-59.55 321.54,-95.55"/>
            <polyline fill="none" stroke="black" points="248.54,-91.55 252.54,-91.55 252.54,-87.55 248.54,-87.55 "/>
            <polyline fill="none" stroke="black" points="248.54,-67.55 252.54,-67.55 252.54,-63.55 248.54,-63.55 "/>
            <text text-anchor="middle" x="285.04" y="-73.85" font-family="Times New Roman,serif" font-size="14.00">
                Controller
            </text>
        </g>
        <!-- SPRING_SERVICE -->
        <g id="node8" class="node">
            <title>SPRING_SERVICE</title>
            <polygon fill="#eedd82" stroke="black"
                     points="207.04,-141.51 149.04,-141.51 149.04,-137.51 145.04,-137.51 145.04,-133.51 149.04,-133.51 149.04,-113.51 145.04,-113.51 145.04,-109.51 149.04,-109.51 149.04,-105.51 207.04,-105.51 207.04,-141.51"/>
            <polyline fill="none" stroke="black" points="149.04,-137.51 153.04,-137.51 153.04,-133.51 149.04,-133.51 "/>
            <polyline fill="none" stroke="black" points="149.04,-113.51 153.04,-113.51 153.04,-109.51 149.04,-109.51 "/>
            <text text-anchor="middle" x="178.04" y="-119.81" font-family="Times New Roman,serif" font-size="14.00">
                Service
            </text>
        </g>
        <!-- SPRING_CONTROLLER&#45;&gt;SPRING_SERVICE -->
        <g id="edge1" class="edge">
            <title>SPRING_CONTROLLER&#45;&gt;SPRING_SERVICE</title>
            <path fill="none" stroke="black" d="M248.51,-93.24C238.22,-97.66 227,-102.48 216.59,-106.95"/>
            <polygon fill="black" stroke="black" points="215.13,-103.77 207.32,-110.93 217.89,-110.2 215.13,-103.77"/>
            <text text-anchor="middle" x="225.55" y="-103.89" font-family="Times New Roman,serif" font-size="14.00">19
            </text>
        </g>
        <!-- mrs.infrastructure.datasource.Message -->
        <g id="node9" class="node">
            <title>mrs.infrastructure.datasource.Message</title>
            <polygon fill="lightgrey" stroke="black" points="269,-43.89 204,-43.89 204,-7.89 269,-7.89 269,-43.89"/>
            <text text-anchor="middle" x="236.5" y="-22.19" font-family="Times New Roman,serif" font-size="14.00">
                Message
            </text>
        </g>
        <!-- SPRING_CONTROLLER&#45;&gt;mrs.infrastructure.datasource.Message -->
        <g id="edge11" class="edge">
            <title>SPRING_CONTROLLER&#45;&gt;mrs.infrastructure.datasource.Message</title>
            <path fill="none" stroke="black" d="M268.06,-59.48C265.71,-56.98 263.26,-54.37 260.81,-51.76"/>
            <polygon fill="black" stroke="black" points="262.95,-48.93 253.55,-44.04 257.85,-53.72 262.95,-48.93"/>
            <text text-anchor="middle" x="271.43" y="-44.42" font-family="Times New Roman,serif" font-size="14.00">11
            </text>
        </g>
        <!-- SPRING_SERVICE&#45;&gt;mrs.application.service.contact.ContactRepository -->
        <g id="edge14" class="edge">
            <title>SPRING_SERVICE&#45;&gt;mrs.application.service.contact.ContactRepository</title>
            <path fill="none" stroke="black" d="M148.86,-132.35C133.74,-136.93 114.89,-142.64 97.68,-147.85"/>
            <polygon fill="black" stroke="black" points="96.33,-144.6 87.78,-150.85 98.36,-151.3 96.33,-144.6"/>
            <text text-anchor="middle" x="119.77" y="-143.9" font-family="Times New Roman,serif" font-size="14.00">2
            </text>
        </g>
        <!-- SPRING_SERVICE&#45;&gt;mrs.application.service.facility.room.MeetingRoomRepository -->
        <g id="edge9" class="edge">
            <title>SPRING_SERVICE&#45;&gt;mrs.application.service.facility.room.MeetingRoomRepository</title>
            <path fill="none" stroke="black" d="M207.33,-141.56C222.85,-151.14 242.05,-162.97 258.44,-173.07"/>
            <polygon fill="black" stroke="black" points="256.87,-176.22 267.22,-178.48 260.54,-170.26 256.87,-176.22"/>
            <text text-anchor="middle" x="229.38" y="-161.12" font-family="Times New Roman,serif" font-size="14.00">2
            </text>
        </g>
        <!-- SPRING_SERVICE&#45;&gt;mrs.application.service.reservation.reservation.ReservationRepository -->
        <g id="edge3" class="edge">
            <title>SPRING_SERVICE&#45;&gt;mrs.application.service.reservation.reservation.ReservationRepository</title>
            <path fill="none" stroke="black" d="M165.92,-141.59C151.77,-162.7 128.25,-197.79 112.14,-221.83"/>
            <polygon fill="black" stroke="black" points="109.23,-219.88 106.57,-230.14 115.04,-223.78 109.23,-219.88"/>
        </g>
        <!-- SPRING_SERVICE&#45;&gt;mrs.application.service.reservation.room.ReservableRoomRepository -->
        <g id="edge7" class="edge">
            <title>SPRING_SERVICE&#45;&gt;mrs.application.service.reservation.room.ReservableRoomRepository</title>
            <path fill="none" stroke="black" d="M185.73,-141.75C194.9,-163.49 210.31,-200.04 220.93,-225.22"/>
            <polygon fill="black" stroke="black" points="217.77,-226.73 224.88,-234.58 224.22,-224.01 217.77,-226.73"/>
            <text text-anchor="middle" x="199.83" y="-172.28" font-family="Times New Roman,serif" font-size="14.00">2
            </text>
        </g>
        <!-- SPRING_SERVICE&#45;&gt;mrs.application.service.user.UserRepository -->
        <g id="edge8" class="edge">
            <title>SPRING_SERVICE&#45;&gt;mrs.application.service.user.UserRepository</title>
            <path fill="none" stroke="black" d="M148.92,-120.23C139.49,-119.18 128.74,-117.97 118.17,-116.78"/>
            <polygon fill="black" stroke="black" points="118.47,-113.29 108.14,-115.65 117.68,-120.25 118.47,-113.29"/>
            <text text-anchor="middle" x="130.04" y="-122.31" font-family="Times New Roman,serif" font-size="14.00">2
            </text>
        </g>
        <!-- SPRING_SERVICE&#45;&gt;mrs.infrastructure.datasource.Message -->
        <g id="edge4" class="edge">
            <title>SPRING_SERVICE&#45;&gt;mrs.infrastructure.datasource.Message</title>
            <path fill="none" stroke="black" d="M189.03,-105.15C197.85,-90.42 210.36,-69.54 220.32,-52.91"/>
            <polygon fill="black" stroke="black" points="223.42,-54.55 225.55,-44.17 217.41,-50.95 223.42,-54.55"/>
            <text text-anchor="middle" x="201.18" y="-82.83" font-family="Times New Roman,serif" font-size="14.00">4
            </text>
        </g>
        <!-- mrs.infrastructure.security.jwt.JwtUtils -->
        <g id="node11" class="node">
            <title>mrs.infrastructure.security.jwt.JwtUtils</title>
            <polygon fill="lightgrey" stroke="black"
                     points="162.15,-36.4 101.15,-36.4 101.15,-0.4 162.15,-0.4 162.15,-36.4"/>
            <text text-anchor="middle" x="131.65" y="-14.7" font-family="Times New Roman,serif" font-size="14.00">
                JwtUtils
            </text>
        </g>
        <!-- SPRING_SERVICE&#45;&gt;mrs.infrastructure.security.jwt.JwtUtils -->
        <g id="edge12" class="edge">
            <title>SPRING_SERVICE&#45;&gt;mrs.infrastructure.security.jwt.JwtUtils</title>
            <path fill="none" stroke="black" d="M169.96,-105.2C162.71,-88.77 151.97,-64.44 143.7,-45.71"/>
            <polygon fill="black" stroke="black" points="146.88,-44.24 139.64,-36.5 140.47,-47.06 146.88,-44.24"/>
        </g>
        <!-- mrs.infrastructure.security.jwt.AuthEntryPointJwt -->
        <g id="node10" class="node">
            <title>mrs.infrastructure.security.jwt.AuthEntryPointJwt</title>
            <polygon fill="lightgrey" stroke="black"
                     points="422.14,-36.3 300.14,-36.3 300.14,-0.3 422.14,-0.3 422.14,-36.3"/>
            <text text-anchor="middle" x="361.14" y="-14.6" font-family="Times New Roman,serif" font-size="14.00">
                AuthEntryPointJwt
            </text>
        </g>
    </g>
</svg>
