<?xml version="1.0" encoding="UTF-8" standalone="no"?>
<!DOCTYPE svg PUBLIC "-//W3C//DTD SVG 1.1//EN"
        "http://www.w3.org/Graphics/SVG/1.1/DTD/svg11.dtd">
<!-- Generated by graphviz version 3.0.0 (20220226.1711)
 -->
<!-- Title: コンポーネント関連図 Pages: 1 -->
<svg width="380pt" height="178pt"
     viewBox="0.00 0.00 380.00 178.00" xmlns="http://www.w3.org/2000/svg">
    <g id="graph0" class="graph" transform="scale(1 1) rotate(0) translate(4 151)">
        <title>コンポーネント関連図</title>
        <polygon fill="white" stroke="transparent" points="-4,27 -4,-151 376,-151 376,27 -4,27"/>
        <text text-anchor="middle" x="186" y="15.2" font-family="Times New Roman,serif" font-size="14.00">コンポーネント関連図
        </text>
        <!-- SPRING_SERVICE -->
        <g id="node1" class="node">
            <title>SPRING_SERVICE</title>
            <polygon fill="#eedd82" stroke="black"
                     points="193.15,-92.31 135.15,-92.31 135.15,-88.31 131.15,-88.31 131.15,-84.31 135.15,-84.31 135.15,-64.31 131.15,-64.31 131.15,-60.31 135.15,-60.31 135.15,-56.31 193.15,-56.31 193.15,-92.31"/>
            <polyline fill="none" stroke="black" points="135.15,-88.31 139.15,-88.31 139.15,-84.31 135.15,-84.31 "/>
            <polyline fill="none" stroke="black" points="135.15,-64.31 139.15,-64.31 139.15,-60.31 135.15,-60.31 "/>
            <text text-anchor="middle" x="164.15" y="-70.61" font-family="Times New Roman,serif" font-size="14.00">
                Service
            </text>
        </g>
        <!-- mrs.application.service.auth.UserRepository -->
        <g id="node3" class="node">
            <title>mrs.application.service.auth.UserRepository</title>
            <ellipse fill="lightgrey" stroke="black" cx="179.61" cy="-19.53" rx="43.1" ry="18"/>
            <text text-anchor="middle" x="179.61" y="-17.33" font-family="Times New Roman,serif" font-size="9.00">
                UserRepository
            </text>
        </g>
        <!-- SPRING_SERVICE&#45;&gt;mrs.application.service.auth.UserRepository -->
        <g id="edge6" class="edge">
            <title>SPRING_SERVICE&#45;&gt;mrs.application.service.auth.UserRepository</title>
            <path fill="none" stroke="black" d="M169.3,-56.07C170.09,-53.27 170.92,-50.33 171.75,-47.37"/>
            <polygon fill="black" stroke="black" points="175.19,-48.08 174.53,-37.51 168.45,-46.18 175.19,-48.08"/>
            <text text-anchor="middle" x="167.02" y="-40.52" font-family="Times New Roman,serif" font-size="14.00">2
            </text>
        </g>
        <!-- mrs.application.service.reservation.ReservationRepository -->
        <g id="node4" class="node">
            <title>mrs.application.service.reservation.ReservationRepository</title>
            <ellipse fill="lightgrey" stroke="black" cx="304.1" cy="-123.41" rx="58.13" ry="18"/>
            <text text-anchor="middle" x="304.1" y="-121.21" font-family="Times New Roman,serif" font-size="9.00">
                ReservationRepository
            </text>
        </g>
        <!-- SPRING_SERVICE&#45;&gt;mrs.application.service.reservation.ReservationRepository -->
        <g id="edge8" class="edge">
            <title>SPRING_SERVICE&#45;&gt;mrs.application.service.reservation.ReservationRepository</title>
            <path fill="none" stroke="black" d="M193.49,-84.61C211.55,-90.94 235.13,-99.21 255.88,-106.49"/>
            <polygon fill="black" stroke="black" points="254.9,-109.86 265.49,-109.87 257.22,-103.25 254.9,-109.86"/>
        </g>
        <!-- mrs.application.service.room.MeetingRoomRepository -->
        <g id="node5" class="node">
            <title>mrs.application.service.room.MeetingRoomRepository</title>
            <ellipse fill="lightgrey" stroke="black" cx="308.35" cy="-17.95" rx="63.52" ry="18"/>
            <text text-anchor="middle" x="308.35" y="-15.75" font-family="Times New Roman,serif" font-size="9.00">
                MeetingRoomRepository
            </text>
        </g>
        <!-- SPRING_SERVICE&#45;&gt;mrs.application.service.room.MeetingRoomRepository -->
        <g id="edge4" class="edge">
            <title>SPRING_SERVICE&#45;&gt;mrs.application.service.room.MeetingRoomRepository</title>
            <path fill="none" stroke="black" d="M193.33,-62.91C212.92,-55.25 239.15,-45 261.62,-36.22"/>
            <polygon fill="black" stroke="black" points="262.94,-39.46 270.98,-32.56 260.39,-32.94 262.94,-39.46"/>
        </g>
        <!-- mrs.application.service.room.ReservableRoomRepository -->
        <g id="node6" class="node">
            <title>mrs.application.service.room.ReservableRoomRepository</title>
            <ellipse fill="lightgrey" stroke="black" cx="155.41" cy="-129.21" rx="68.91" ry="18"/>
            <text text-anchor="middle" x="155.41" y="-127.01" font-family="Times New Roman,serif" font-size="9.00">
                ReservableRoomRepository
            </text>
        </g>
        <!-- SPRING_SERVICE&#45;&gt;mrs.application.service.room.ReservableRoomRepository -->
        <g id="edge3" class="edge">
            <title>SPRING_SERVICE&#45;&gt;mrs.application.service.room.ReservableRoomRepository</title>
            <path fill="none" stroke="black" d="M161.24,-92.59C160.79,-95.4 160.32,-98.35 159.85,-101.31"/>
            <polygon fill="black" stroke="black" points="156.39,-100.77 158.28,-111.2 163.31,-101.87 156.39,-100.77"/>
            <text text-anchor="middle" x="157.05" y="-100.75" font-family="Times New Roman,serif" font-size="14.00">2
            </text>
        </g>
        <!-- SPRING_CONTROLLER -->
        <g id="node2" class="node">
            <title>SPRING_CONTROLLER</title>
            <polygon fill="#eedd82" stroke="black"
                     points="73.16,-84.09 0.16,-84.09 0.16,-80.09 -3.84,-80.09 -3.84,-76.09 0.16,-76.09 0.16,-56.09 -3.84,-56.09 -3.84,-52.09 0.16,-52.09 0.16,-48.09 73.16,-48.09 73.16,-84.09"/>
            <polyline fill="none" stroke="black" points="0.16,-80.09 4.16,-80.09 4.16,-76.09 0.16,-76.09 "/>
            <polyline fill="none" stroke="black" points="0.16,-56.09 4.16,-56.09 4.16,-52.09 0.16,-52.09 "/>
            <text text-anchor="middle" x="36.66" y="-62.39" font-family="Times New Roman,serif" font-size="14.00">
                Controller
            </text>
        </g>
        <!-- SPRING_CONTROLLER&#45;&gt;SPRING_SERVICE -->
        <g id="edge1" class="edge">
            <title>SPRING_CONTROLLER&#45;&gt;SPRING_SERVICE</title>
            <path fill="none" stroke="black" d="M73.19,-68.45C89.25,-69.48 108.14,-70.7 124.53,-71.76"/>
            <polygon fill="black" stroke="black" points="124.68,-75.27 134.89,-72.43 125.13,-68.29 124.68,-75.27"/>
            <text text-anchor="middle" x="95.36" y="-73.9" font-family="Times New Roman,serif" font-size="14.00">3
            </text>
        </g>
        <!-- SPRING_REPOSITORY -->
        <g id="node7" class="node">
            <title>SPRING_REPOSITORY</title>
            <polygon fill="#eedd82" stroke="black"
                     points="341.27,-88.51 262.27,-88.51 262.27,-84.51 258.27,-84.51 258.27,-80.51 262.27,-80.51 262.27,-60.51 258.27,-60.51 258.27,-56.51 262.27,-56.51 262.27,-52.51 341.27,-52.51 341.27,-88.51"/>
            <polyline fill="none" stroke="black" points="262.27,-84.51 266.27,-84.51 266.27,-80.51 262.27,-80.51 "/>
            <polyline fill="none" stroke="black" points="262.27,-60.51 266.27,-60.51 266.27,-56.51 262.27,-56.51 "/>
            <text text-anchor="middle" x="301.77" y="-66.81" font-family="Times New Roman,serif" font-size="14.00">
                Repository
            </text>
        </g>
        <!-- SPRING_REPOSITORY&#45;&gt;mrs.application.service.auth.UserRepository -->
        <g id="edge9" class="edge">
            <title>SPRING_REPOSITORY&#45;&gt;mrs.application.service.auth.UserRepository</title>
            <path fill="none" stroke="black" d="M262.11,-53.96C248.54,-48.3 233.36,-41.96 219.75,-36.29"/>
            <polygon fill="black" stroke="black" points="220.75,-32.91 210.17,-32.29 218.05,-39.37 220.75,-32.91"/>
        </g>
        <!-- SPRING_REPOSITORY&#45;&gt;mrs.application.service.reservation.ReservationRepository -->
        <g id="edge2" class="edge">
            <title>SPRING_REPOSITORY&#45;&gt;mrs.application.service.reservation.ReservationRepository</title>
            <path fill="none" stroke="black" d="M302.57,-88.72C302.66,-90.82 302.76,-93 302.85,-95.19"/>
            <polygon fill="black" stroke="black" points="299.37,-95.51 303.3,-105.35 306.36,-95.21 299.37,-95.51"/>
        </g>
        <!-- SPRING_REPOSITORY&#45;&gt;mrs.application.service.room.MeetingRoomRepository -->
        <g id="edge5" class="edge">
            <title>SPRING_REPOSITORY&#45;&gt;mrs.application.service.room.MeetingRoomRepository</title>
            <path fill="none" stroke="black" d="M304.03,-52.42C304.28,-50.46 304.53,-48.44 304.79,-46.39"/>
            <polygon fill="black" stroke="black" points="308.29,-46.61 306.06,-36.25 301.34,-45.74 308.29,-46.61"/>
        </g>
        <!-- SPRING_REPOSITORY&#45;&gt;mrs.application.service.room.ReservableRoomRepository -->
        <g id="edge7" class="edge">
            <title>SPRING_REPOSITORY&#45;&gt;mrs.application.service.room.ReservableRoomRepository</title>
            <path fill="none" stroke="black" d="M262.16,-86.4C243.77,-93.78 221.76,-102.6 202.52,-110.32"/>
            <polygon fill="black" stroke="black" points="201.01,-107.15 193.03,-114.12 203.62,-113.65 201.01,-107.15"/>
        </g>
    </g>
</svg>
