<?xml version="1.0" encoding="UTF-8" standalone="no"?>
<!DOCTYPE svg PUBLIC "-//W3C//DTD SVG 1.1//EN"
        "http://www.w3.org/Graphics/SVG/1.1/DTD/svg11.dtd">
<!-- Generated by graphviz version 3.0.0 (20220226.1711)
 -->
<!-- Title: コンポーネント関連図 Pages: 1 -->
<svg width="392pt" height="288pt"
     viewBox="0.00 0.00 392.00 288.00" xmlns="http://www.w3.org/2000/svg">
    <g id="graph0" class="graph" transform="scale(1 1) rotate(0) translate(4 261)">
        <title>コンポーネント関連図</title>
        <polygon fill="white" stroke="transparent" points="-4,27 -4,-261 388,-261 388,27 -4,27"/>
        <text text-anchor="middle" x="192" y="15.2" font-family="Times New Roman,serif" font-size="14.00">コンポーネント関連図
        </text>
        <!-- SPRING_CONTROLLER -->
        <g id="node1" class="node">
            <title>SPRING_CONTROLLER</title>
            <polygon fill="#eedd82" stroke="black"
                     points="223.34,-36.45 150.34,-36.45 150.34,-32.45 146.34,-32.45 146.34,-28.45 150.34,-28.45 150.34,-8.45 146.34,-8.45 146.34,-4.45 150.34,-4.45 150.34,-0.45 223.34,-0.45 223.34,-36.45"/>
            <polyline fill="none" stroke="black" points="150.34,-32.45 154.34,-32.45 154.34,-28.45 150.34,-28.45 "/>
            <polyline fill="none" stroke="black" points="150.34,-8.45 154.34,-8.45 154.34,-4.45 150.34,-4.45 "/>
            <text text-anchor="middle" x="186.84" y="-14.75" font-family="Times New Roman,serif" font-size="14.00">
                Controller
            </text>
        </g>
        <!-- SPRING_SERVICE -->
        <g id="node7" class="node">
            <title>SPRING_SERVICE</title>
            <polygon fill="#eedd82" stroke="black"
                     points="235.92,-150.68 177.92,-150.68 177.92,-146.68 173.92,-146.68 173.92,-142.68 177.92,-142.68 177.92,-122.68 173.92,-122.68 173.92,-118.68 177.92,-118.68 177.92,-114.68 235.92,-114.68 235.92,-150.68"/>
            <polyline fill="none" stroke="black" points="177.92,-146.68 181.92,-146.68 181.92,-142.68 177.92,-142.68 "/>
            <polyline fill="none" stroke="black" points="177.92,-122.68 181.92,-122.68 181.92,-118.68 177.92,-118.68 "/>
            <text text-anchor="middle" x="206.92" y="-128.98" font-family="Times New Roman,serif" font-size="14.00">
                Service
            </text>
        </g>
        <!-- SPRING_CONTROLLER&#45;&gt;SPRING_SERVICE -->
        <g id="edge1" class="edge">
            <title>SPRING_CONTROLLER&#45;&gt;SPRING_SERVICE</title>
            <path fill="none" stroke="black" d="M190.02,-36.55C193.24,-54.85 198.26,-83.38 201.99,-104.61"/>
            <polygon fill="black" stroke="black" points="198.58,-105.42 203.76,-114.66 205.47,-104.21 198.58,-105.42"/>
            <text text-anchor="middle" x="192.5" y="-74.38" font-family="Times New Roman,serif" font-size="14.00">2
            </text>
        </g>
        <!-- SPRING_REPOSITORY -->
        <g id="node2" class="node">
            <title>SPRING_REPOSITORY</title>
            <polygon fill="#eedd82" stroke="black"
                     points="246.42,-212.15 167.42,-212.15 167.42,-208.15 163.42,-208.15 163.42,-204.15 167.42,-204.15 167.42,-184.15 163.42,-184.15 163.42,-180.15 167.42,-180.15 167.42,-176.15 246.42,-176.15 246.42,-212.15"/>
            <polyline fill="none" stroke="black" points="167.42,-208.15 171.42,-208.15 171.42,-204.15 167.42,-204.15 "/>
            <polyline fill="none" stroke="black" points="167.42,-184.15 171.42,-184.15 171.42,-180.15 167.42,-180.15 "/>
            <text text-anchor="middle" x="206.92" y="-190.45" font-family="Times New Roman,serif" font-size="14.00">
                Repository
            </text>
        </g>
        <!-- mrs.application.service.auth.UserRepository -->
        <g id="node3" class="node">
            <title>mrs.application.service.auth.UserRepository</title>
            <ellipse fill="lightgrey" stroke="black" cx="315.37" cy="-121.32" rx="43.1" ry="18"/>
            <text text-anchor="middle" x="315.37" y="-119.12" font-family="Times New Roman,serif" font-size="9.00">
                UserRepository
            </text>
        </g>
        <!-- SPRING_REPOSITORY&#45;&gt;mrs.application.service.auth.UserRepository -->
        <g id="edge9" class="edge">
            <title>SPRING_REPOSITORY&#45;&gt;mrs.application.service.auth.UserRepository</title>
            <path fill="none" stroke="black" d="M233.73,-176.14C248.97,-165.91 268.13,-153.04 284.06,-142.35"/>
            <polygon fill="black" stroke="black" points="286.18,-145.14 292.54,-136.66 282.28,-139.33 286.18,-145.14"/>
        </g>
        <!-- mrs.application.service.reservation.ReservationRepository -->
        <g id="node4" class="node">
            <title>mrs.application.service.reservation.ReservationRepository</title>
            <ellipse fill="lightgrey" stroke="black" cx="115.07" cy="-239.14" rx="58.13" ry="18"/>
            <text text-anchor="middle" x="115.07" y="-236.94" font-family="Times New Roman,serif" font-size="9.00">
                ReservationRepository
            </text>
        </g>
        <!-- SPRING_REPOSITORY&#45;&gt;mrs.application.service.reservation.ReservationRepository -->
        <g id="edge2" class="edge">
            <title>SPRING_REPOSITORY&#45;&gt;mrs.application.service.reservation.ReservationRepository</title>
            <path fill="none" stroke="black" d="M170.09,-212.19C165.29,-214.54 160.34,-216.96 155.48,-219.34"/>
            <polygon fill="black" stroke="black" points="153.74,-216.3 146.3,-223.84 156.82,-222.59 153.74,-216.3"/>
        </g>
        <!-- mrs.application.service.room.MeetingRoomRepository -->
        <g id="node5" class="node">
            <title>mrs.application.service.room.MeetingRoomRepository</title>
            <ellipse fill="lightgrey" stroke="black" cx="320.9" cy="-229.36" rx="63.52" ry="18"/>
            <text text-anchor="middle" x="320.9" y="-227.16" font-family="Times New Roman,serif" font-size="9.00">
                MeetingRoomRepository
            </text>
        </g>
        <!-- SPRING_REPOSITORY&#45;&gt;mrs.application.service.room.MeetingRoomRepository -->
        <g id="edge5" class="edge">
            <title>SPRING_REPOSITORY&#45;&gt;mrs.application.service.room.MeetingRoomRepository</title>
            <path fill="none" stroke="black" d="M246.47,-206.36C253.45,-208.52 260.82,-210.8 268.1,-213.04"/>
            <polygon fill="black" stroke="black" points="267.34,-216.47 277.92,-216.08 269.4,-209.78 267.34,-216.47"/>
        </g>
        <!-- mrs.application.service.room.ReservableRoomRepository -->
        <g id="node6" class="node">
            <title>mrs.application.service.room.ReservableRoomRepository</title>
            <ellipse fill="lightgrey" stroke="black" cx="68.27" cy="-134.78" rx="68.91" ry="18"/>
            <text text-anchor="middle" x="68.27" y="-132.58" font-family="Times New Roman,serif" font-size="9.00">
                ReservableRoomRepository
            </text>
        </g>
        <!-- SPRING_REPOSITORY&#45;&gt;mrs.application.service.room.ReservableRoomRepository -->
        <g id="edge7" class="edge">
            <title>SPRING_REPOSITORY&#45;&gt;mrs.application.service.room.ReservableRoomRepository</title>
            <path fill="none" stroke="black" d="M167.19,-177.13C150.45,-169.96 130.87,-161.58 113.56,-154.17"/>
            <polygon fill="black" stroke="black" points="114.79,-150.89 104.22,-150.17 112.03,-157.32 114.79,-150.89"/>
        </g>
        <!-- SPRING_SERVICE&#45;&gt;mrs.application.service.auth.UserRepository -->
        <g id="edge6" class="edge">
            <title>SPRING_SERVICE&#45;&gt;mrs.application.service.auth.UserRepository</title>
            <path fill="none" stroke="black" d="M235.99,-129.63C244.37,-128.76 253.79,-127.77 263.13,-126.79"/>
            <polygon fill="black" stroke="black" points="263.6,-130.26 273.18,-125.74 262.87,-123.3 263.6,-130.26"/>
        </g>
        <!-- SPRING_SERVICE&#45;&gt;mrs.application.service.reservation.ReservationRepository -->
        <g id="edge8" class="edge">
            <title>SPRING_SERVICE&#45;&gt;mrs.application.service.reservation.ReservationRepository</title>
            <path fill="none" stroke="black" d="M191.34,-150.74C176.32,-168.15 153.45,-194.66 136.67,-214.1"/>
            <polygon fill="black" stroke="black" points="134,-211.84 130.12,-221.7 139.3,-216.41 134,-211.84"/>
        </g>
        <!-- SPRING_SERVICE&#45;&gt;mrs.application.service.room.MeetingRoomRepository -->
        <g id="edge4" class="edge">
            <title>SPRING_SERVICE&#45;&gt;mrs.application.service.room.MeetingRoomRepository</title>
            <path fill="none" stroke="black" d="M228.36,-150.86C246.61,-166.34 272.96,-188.69 292.88,-205.59"/>
            <polygon fill="black" stroke="black" points="290.82,-208.43 300.71,-212.23 295.34,-203.09 290.82,-208.43"/>
        </g>
        <!-- SPRING_SERVICE&#45;&gt;mrs.application.service.room.ReservableRoomRepository -->
        <g id="edge3" class="edge">
            <title>SPRING_SERVICE&#45;&gt;mrs.application.service.room.ReservableRoomRepository</title>
            <path fill="none" stroke="black" d="M177.86,-133.12C168.68,-133.26 158.06,-133.42 147.11,-133.58"/>
            <polygon fill="black" stroke="black" points="146.95,-130.08 137,-133.74 147.05,-137.08 146.95,-130.08"/>
            <text text-anchor="middle" x="158.98" y="-137.15" font-family="Times New Roman,serif" font-size="14.00">2
            </text>
        </g>
    </g>
</svg>
