<?xml version="1.0" encoding="UTF-8" standalone="no"?>
<!DOCTYPE svg PUBLIC "-//W3C//DTD SVG 1.1//EN"
        "http://www.w3.org/Graphics/SVG/1.1/DTD/svg11.dtd">
<!-- Generated by graphviz version 3.0.0 (20220226.1711)
 -->
<!-- Title: コンポーネント関連図 Pages: 1 -->
<svg width="365pt" height="287pt"
     viewBox="0.00 0.00 365.00 287.00" xmlns="http://www.w3.org/2000/svg">
    <g id="graph0" class="graph" transform="scale(1 1) rotate(0) translate(4 260)">
        <title>コンポーネント関連図</title>
        <polygon fill="white" stroke="transparent" points="-4,27 -4,-260 361,-260 361,27 -4,27"/>
        <text text-anchor="middle" x="178.5" y="15.2" font-family="Times New Roman,serif" font-size="14.00">コンポーネント関連図
        </text>
        <!-- mrs.application.service.auth.UserRepository -->
        <g id="node1" class="node">
            <title>mrs.application.service.auth.UserRepository</title>
            <ellipse fill="lightgrey" stroke="black" cx="113.65" cy="-229.72" rx="43.1" ry="18"/>
            <text text-anchor="middle" x="113.65" y="-227.52" font-family="Times New Roman,serif" font-size="9.00">
                UserRepository
            </text>
        </g>
        <!-- mrs.application.service.property.room.MeetingRoomRepository -->
        <g id="node2" class="node">
            <title>mrs.application.service.property.room.MeetingRoomRepository</title>
            <ellipse fill="lightgrey" stroke="black" cx="236.96" cy="-238.49" rx="63.52" ry="18"/>
            <text text-anchor="middle" x="236.96" y="-236.29" font-family="Times New Roman,serif" font-size="9.00">
                MeetingRoomRepository
            </text>
        </g>
        <!-- mrs.application.service.reservation.reservation.ReservationRepository -->
        <g id="node3" class="node">
            <title>mrs.application.service.reservation.reservation.ReservationRepository</title>
            <ellipse fill="lightgrey" stroke="black" cx="268.11" cy="-144.07" rx="58.13" ry="18"/>
            <text text-anchor="middle" x="268.11" y="-141.87" font-family="Times New Roman,serif" font-size="9.00">
                ReservationRepository
            </text>
        </g>
        <!-- mrs.application.service.reservation.room.ReservableRoomRepository -->
        <g id="node4" class="node">
            <title>mrs.application.service.reservation.room.ReservableRoomRepository</title>
            <ellipse fill="lightgrey" stroke="black" cx="288.46" cy="-59.24" rx="68.91" ry="18"/>
            <text text-anchor="middle" x="288.46" y="-57.04" font-family="Times New Roman,serif" font-size="9.00">
                ReservableRoomRepository
            </text>
        </g>
        <!-- SPRING_SERVICE -->
        <g id="node5" class="node">
            <title>SPRING_SERVICE</title>
            <polygon fill="#eedd82" stroke="black"
                     points="176.95,-132.96 118.95,-132.96 118.95,-128.96 114.95,-128.96 114.95,-124.96 118.95,-124.96 118.95,-104.96 114.95,-104.96 114.95,-100.96 118.95,-100.96 118.95,-96.96 176.95,-96.96 176.95,-132.96"/>
            <polyline fill="none" stroke="black" points="118.95,-128.96 122.95,-128.96 122.95,-124.96 118.95,-124.96 "/>
            <polyline fill="none" stroke="black" points="118.95,-104.96 122.95,-104.96 122.95,-100.96 118.95,-100.96 "/>
            <text text-anchor="middle" x="147.95" y="-111.26" font-family="Times New Roman,serif" font-size="14.00">
                Service
            </text>
        </g>
        <!-- SPRING_SERVICE&#45;&gt;mrs.application.service.auth.UserRepository -->
        <g id="edge9" class="edge">
            <title>SPRING_SERVICE&#45;&gt;mrs.application.service.auth.UserRepository</title>
            <path fill="none" stroke="black" d="M142.52,-133.14C137,-151.61 128.38,-180.45 121.99,-201.82"/>
            <polygon fill="black" stroke="black" points="118.57,-201.04 119.06,-211.62 125.28,-203.04 118.57,-201.04"/>
            <text text-anchor="middle" x="128.75" y="-171.28" font-family="Times New Roman,serif" font-size="14.00">2
            </text>
        </g>
        <!-- SPRING_SERVICE&#45;&gt;mrs.application.service.property.room.MeetingRoomRepository -->
        <g id="edge8" class="edge">
            <title>SPRING_SERVICE&#45;&gt;mrs.application.service.property.room.MeetingRoomRepository</title>
            <path fill="none" stroke="black" d="M161.08,-133.18C176.16,-154.11 201,-188.59 218.13,-212.36"/>
            <polygon fill="black" stroke="black" points="215.38,-214.52 224.06,-220.59 221.05,-210.43 215.38,-214.52"/>
        </g>
        <!-- SPRING_SERVICE&#45;&gt;mrs.application.service.reservation.reservation.ReservationRepository -->
        <g id="edge2" class="edge">
            <title>SPRING_SERVICE&#45;&gt;mrs.application.service.reservation.reservation.ReservationRepository</title>
            <path fill="none" stroke="black" d="M177.04,-122C187.56,-124.56 199.84,-127.53 211.91,-130.45"/>
            <polygon fill="black" stroke="black" points="211.41,-133.93 221.95,-132.89 213.05,-127.13 211.41,-133.93"/>
        </g>
        <!-- SPRING_SERVICE&#45;&gt;mrs.application.service.reservation.room.ReservableRoomRepository -->
        <g id="edge7" class="edge">
            <title>SPRING_SERVICE&#45;&gt;mrs.application.service.reservation.room.ReservableRoomRepository</title>
            <path fill="none" stroke="black" d="M177.06,-103.41C195.54,-96.09 219.87,-86.44 241.08,-78.03"/>
            <polygon fill="black" stroke="black" points="242.57,-81.21 250.57,-74.27 239.99,-74.7 242.57,-81.21"/>
            <text text-anchor="middle" x="205.57" y="-94.52" font-family="Times New Roman,serif" font-size="14.00">2
            </text>
        </g>
        <!-- mrs.infrastructure.datasource.Message -->
        <g id="node8" class="node">
            <title>mrs.infrastructure.datasource.Message</title>
            <polygon fill="lightgrey" stroke="black"
                     points="130.79,-36.48 65.79,-36.48 65.79,-0.48 130.79,-0.48 130.79,-36.48"/>
            <text text-anchor="middle" x="98.29" y="-14.78" font-family="Times New Roman,serif" font-size="14.00">
                Message
            </text>
        </g>
        <!-- SPRING_SERVICE&#45;&gt;mrs.infrastructure.datasource.Message -->
        <g id="edge5" class="edge">
            <title>SPRING_SERVICE&#45;&gt;mrs.infrastructure.datasource.Message</title>
            <path fill="none" stroke="black" d="M138.61,-96.81C131.19,-82.39 120.69,-62 112.27,-45.64"/>
            <polygon fill="black" stroke="black" points="115.28,-43.84 107.59,-36.55 109.05,-47.04 115.28,-43.84"/>
            <text text-anchor="middle" x="121.94" y="-75.03" font-family="Times New Roman,serif" font-size="14.00">4
            </text>
        </g>
        <!-- SPRING_CONTROLLER -->
        <g id="node6" class="node">
            <title>SPRING_CONTROLLER</title>
            <polygon fill="#eedd82" stroke="black"
                     points="73.22,-113.47 0.22,-113.47 0.22,-109.47 -3.78,-109.47 -3.78,-105.47 0.22,-105.47 0.22,-85.47 -3.78,-85.47 -3.78,-81.47 0.22,-81.47 0.22,-77.47 73.22,-77.47 73.22,-113.47"/>
            <polyline fill="none" stroke="black" points="0.22,-109.47 4.22,-109.47 4.22,-105.47 0.22,-105.47 "/>
            <polyline fill="none" stroke="black" points="0.22,-85.47 4.22,-85.47 4.22,-81.47 0.22,-81.47 "/>
            <text text-anchor="middle" x="36.72" y="-91.77" font-family="Times New Roman,serif" font-size="14.00">
                Controller
            </text>
        </g>
        <!-- SPRING_CONTROLLER&#45;&gt;SPRING_SERVICE -->
        <g id="edge1" class="edge">
            <title>SPRING_CONTROLLER&#45;&gt;SPRING_SERVICE</title>
            <path fill="none" stroke="black" d="M73.45,-101.9C84.69,-103.87 97.1,-106.05 108.51,-108.05"/>
            <polygon fill="black" stroke="black" points="108.19,-111.54 118.65,-109.82 109.4,-104.65 108.19,-111.54"/>
            <text text-anchor="middle" x="87.48" y="-108.78" font-family="Times New Roman,serif" font-size="14.00">7
            </text>
        </g>
        <!-- SPRING_CONTROLLER&#45;&gt;mrs.infrastructure.datasource.Message -->
        <g id="edge10" class="edge">
            <title>SPRING_CONTROLLER&#45;&gt;mrs.infrastructure.datasource.Message</title>
            <path fill="none" stroke="black" d="M51.31,-77.23C59.13,-67.45 68.9,-55.23 77.5,-44.47"/>
            <polygon fill="black" stroke="black" points="80.29,-46.59 83.8,-36.6 74.82,-42.22 80.29,-46.59"/>
            <text text-anchor="middle" x="60.91" y="-64.65" font-family="Times New Roman,serif" font-size="14.00">3
            </text>
        </g>
        <!-- SPRING_REPOSITORY -->
        <g id="node7" class="node">
            <title>SPRING_REPOSITORY</title>
            <polygon fill="#eedd82" stroke="black"
                     points="266.17,-207.5 187.17,-207.5 187.17,-203.5 183.17,-203.5 183.17,-199.5 187.17,-199.5 187.17,-179.5 183.17,-179.5 183.17,-175.5 187.17,-175.5 187.17,-171.5 266.17,-171.5 266.17,-207.5"/>
            <polyline fill="none" stroke="black" points="187.17,-203.5 191.17,-203.5 191.17,-199.5 187.17,-199.5 "/>
            <polyline fill="none" stroke="black" points="187.17,-179.5 191.17,-179.5 191.17,-175.5 187.17,-175.5 "/>
            <text text-anchor="middle" x="226.67" y="-185.8" font-family="Times New Roman,serif" font-size="14.00">
                Repository
            </text>
        </g>
        <!-- SPRING_REPOSITORY&#45;&gt;mrs.application.service.auth.UserRepository -->
        <g id="edge11" class="edge">
            <title>SPRING_REPOSITORY&#45;&gt;mrs.application.service.auth.UserRepository</title>
            <path fill="none" stroke="black" d="M187.14,-203.57C177.11,-207.14 166.29,-210.99 156.12,-214.61"/>
            <polygon fill="black" stroke="black" points="154.86,-211.34 146.61,-217.99 157.2,-217.94 154.86,-211.34"/>
        </g>
        <!-- SPRING_REPOSITORY&#45;&gt;mrs.application.service.property.room.MeetingRoomRepository -->
        <g id="edge3" class="edge">
            <title>SPRING_REPOSITORY&#45;&gt;mrs.application.service.property.room.MeetingRoomRepository</title>
            <path fill="none" stroke="black" d="M230.5,-207.74C230.69,-208.65 230.89,-209.56 231.08,-210.49"/>
            <polygon fill="black" stroke="black" points="227.68,-211.33 233.16,-220.4 234.53,-209.89 227.68,-211.33"/>
        </g>
        <!-- SPRING_REPOSITORY&#45;&gt;mrs.application.service.reservation.reservation.ReservationRepository -->
        <g id="edge6" class="edge">
            <title>SPRING_REPOSITORY&#45;&gt;mrs.application.service.reservation.reservation.ReservationRepository
            </title>
            <path fill="none" stroke="black" d="M243.29,-171.28C244.03,-170.47 244.78,-169.65 245.54,-168.82"/>
            <polygon fill="black" stroke="black" points="248.15,-171.15 252.3,-161.41 242.97,-166.44 248.15,-171.15"/>
        </g>
        <!-- SPRING_REPOSITORY&#45;&gt;mrs.application.service.reservation.room.ReservableRoomRepository -->
        <g id="edge4" class="edge">
            <title>SPRING_REPOSITORY&#45;&gt;mrs.application.service.reservation.room.ReservableRoomRepository</title>
            <path fill="none" stroke="black" d="M235.26,-171.39C245.73,-149.32 263.51,-111.84 275.61,-86.33"/>
            <polygon fill="black" stroke="black" points="278.82,-87.74 279.94,-77.2 272.49,-84.74 278.82,-87.74"/>
        </g>
    </g>
</svg>
