<?xml version="1.0" encoding="UTF-8" standalone="no"?>
<!DOCTYPE svg PUBLIC "-//W3C//DTD SVG 1.1//EN"
        "http://www.w3.org/Graphics/SVG/1.1/DTD/svg11.dtd">
<!-- Generated by graphviz version 3.0.0 (20220226.1711)
 -->
<!-- Title: コンポーネント関連図 Pages: 1 -->
<svg width="460pt" height="367pt"
     viewBox="0.00 0.00 460.00 367.00" xmlns="http://www.w3.org/2000/svg">
    <g id="graph0" class="graph" transform="scale(1 1) rotate(0) translate(4 340)">
        <title>コンポーネント関連図</title>
        <polygon fill="white" stroke="transparent" points="-4,27 -4,-340 456,-340 456,27 -4,27"/>
        <text text-anchor="middle" x="226" y="15.2" font-family="Times New Roman,serif" font-size="14.00">コンポーネント関連図
        </text>
        <!-- SPRING_CONTROLLER -->
        <g id="node1" class="node">
            <title>SPRING_CONTROLLER</title>
            <polygon fill="#eedd82" stroke="black"
                     points="73.37,-188.83 0.37,-188.83 0.37,-184.83 -3.63,-184.83 -3.63,-180.83 0.37,-180.83 0.37,-160.83 -3.63,-160.83 -3.63,-156.83 0.37,-156.83 0.37,-152.83 73.37,-152.83 73.37,-188.83"/>
            <polyline fill="none" stroke="black" points="0.37,-184.83 4.37,-184.83 4.37,-180.83 0.37,-180.83 "/>
            <polyline fill="none" stroke="black" points="0.37,-160.83 4.37,-160.83 4.37,-156.83 0.37,-156.83 "/>
            <text text-anchor="middle" x="36.87" y="-167.13" font-family="Times New Roman,serif" font-size="14.00">
                Controller
            </text>
        </g>
        <!-- SPRING_SERVICE -->
        <g id="node7" class="node">
            <title>SPRING_SERVICE</title>
            <polygon fill="#eedd82" stroke="black"
                     points="211.09,-172.9 153.09,-172.9 153.09,-168.9 149.09,-168.9 149.09,-164.9 153.09,-164.9 153.09,-144.9 149.09,-144.9 149.09,-140.9 153.09,-140.9 153.09,-136.9 211.09,-136.9 211.09,-172.9"/>
            <polyline fill="none" stroke="black" points="153.09,-168.9 157.09,-168.9 157.09,-164.9 153.09,-164.9 "/>
            <polyline fill="none" stroke="black" points="153.09,-144.9 157.09,-144.9 157.09,-140.9 153.09,-140.9 "/>
            <text text-anchor="middle" x="182.09" y="-151.2" font-family="Times New Roman,serif" font-size="14.00">
                Service
            </text>
        </g>
        <!-- SPRING_CONTROLLER&#45;&gt;SPRING_SERVICE -->
        <g id="edge1" class="edge">
            <title>SPRING_CONTROLLER&#45;&gt;SPRING_SERVICE</title>
            <path fill="none" stroke="black" d="M73.51,-166.81C94.6,-164.5 121.1,-161.59 142.64,-159.23"/>
            <polygon fill="black" stroke="black" points="143.21,-162.68 152.77,-158.11 142.45,-155.73 143.21,-162.68"/>
            <text text-anchor="middle" x="101.08" y="-166.82" font-family="Times New Roman,serif" font-size="14.00">11
            </text>
        </g>
        <!-- mrs.infrastructure.datasource.Message -->
        <g id="node9" class="node">
            <title>mrs.infrastructure.datasource.Message</title>
            <polygon fill="lightgrey" stroke="black"
                     points="100.5,-95.08 35.5,-95.08 35.5,-59.08 100.5,-59.08 100.5,-95.08"/>
            <text text-anchor="middle" x="68" y="-73.38" font-family="Times New Roman,serif" font-size="14.00">Message
            </text>
        </g>
        <!-- SPRING_CONTROLLER&#45;&gt;mrs.infrastructure.datasource.Message -->
        <g id="edge10" class="edge">
            <title>SPRING_CONTROLLER&#45;&gt;mrs.infrastructure.datasource.Message</title>
            <path fill="none" stroke="black" d="M42.87,-152.75C47.39,-139.13 53.68,-120.22 58.83,-104.71"/>
            <polygon fill="black" stroke="black" points="62.19,-105.69 62.02,-95.1 55.55,-103.49 62.19,-105.69"/>
            <text text-anchor="middle" x="47.35" y="-132.53" font-family="Times New Roman,serif" font-size="14.00">5
            </text>
        </g>
        <!-- mrs.application.service.auth.UserRepository -->
        <g id="node2" class="node">
            <title>mrs.application.service.auth.UserRepository</title>
            <ellipse fill="lightgrey" stroke="black" cx="231.88" cy="-305.25" rx="43.1" ry="18"/>
            <text text-anchor="middle" x="231.88" y="-303.05" font-family="Times New Roman,serif" font-size="9.00">
                UserRepository
            </text>
        </g>
        <!-- mrs.application.service.contact.ContactRepository -->
        <g id="node3" class="node">
            <title>mrs.application.service.contact.ContactRepository</title>
            <ellipse fill="lightgrey" stroke="black" cx="252.15" cy="-99.94" rx="49.8" ry="18"/>
            <text text-anchor="middle" x="252.15" y="-97.74" font-family="Times New Roman,serif" font-size="9.00">
                ContactRepository
            </text>
        </g>
        <!-- mrs.application.service.facility.room.MeetingRoomRepository -->
        <g id="node4" class="node">
            <title>mrs.application.service.facility.room.MeetingRoomRepository</title>
            <ellipse fill="lightgrey" stroke="black" cx="335.2" cy="-242.19" rx="63.52" ry="18"/>
            <text text-anchor="middle" x="335.2" y="-239.99" font-family="Times New Roman,serif" font-size="9.00">
                MeetingRoomRepository
            </text>
        </g>
        <!-- mrs.application.service.reservation.reservation.ReservationRepository -->
        <g id="node5" class="node">
            <title>mrs.application.service.reservation.reservation.ReservationRepository</title>
            <ellipse fill="lightgrey" stroke="black" cx="374.08" cy="-137.39" rx="58.13" ry="18"/>
            <text text-anchor="middle" x="374.08" y="-135.19" font-family="Times New Roman,serif" font-size="9.00">
                ReservationRepository
            </text>
        </g>
        <!-- mrs.application.service.reservation.room.ReservableRoomRepository -->
        <g id="node6" class="node">
            <title>mrs.application.service.reservation.room.ReservableRoomRepository</title>
            <ellipse fill="lightgrey" stroke="black" cx="146.74" cy="-256.47" rx="68.91" ry="18"/>
            <text text-anchor="middle" x="146.74" y="-254.27" font-family="Times New Roman,serif" font-size="9.00">
                ReservableRoomRepository
            </text>
        </g>
        <!-- SPRING_SERVICE&#45;&gt;mrs.application.service.auth.UserRepository -->
        <g id="edge7" class="edge">
            <title>SPRING_SERVICE&#45;&gt;mrs.application.service.auth.UserRepository</title>
            <path fill="none" stroke="black" d="M188.1,-173.03C196.7,-199 212.58,-246.98 222.67,-277.45"/>
            <polygon fill="black" stroke="black" points="219.38,-278.66 225.85,-287.05 226.03,-276.46 219.38,-278.66"/>
            <text text-anchor="middle" x="201.88" y="-214.04" font-family="Times New Roman,serif" font-size="14.00">2
            </text>
        </g>
        <!-- SPRING_SERVICE&#45;&gt;mrs.application.service.contact.ContactRepository -->
        <g id="edge13" class="edge">
            <title>SPRING_SERVICE&#45;&gt;mrs.application.service.contact.ContactRepository</title>
            <path fill="none" stroke="black" d="M205.42,-136.6C210.98,-132.23 216.99,-127.52 222.79,-122.97"/>
            <polygon fill="black" stroke="black" points="225.34,-125.42 231.05,-116.49 221.02,-119.91 225.34,-125.42"/>
            <text text-anchor="middle" x="217.6" y="-133.59" font-family="Times New Roman,serif" font-size="14.00">2
            </text>
        </g>
        <!-- SPRING_SERVICE&#45;&gt;mrs.application.service.facility.room.MeetingRoomRepository -->
        <g id="edge8" class="edge">
            <title>SPRING_SERVICE&#45;&gt;mrs.application.service.facility.room.MeetingRoomRepository</title>
            <path fill="none" stroke="black" d="M211.25,-171.52C235.96,-185.61 271.53,-205.89 298.24,-221.12"/>
            <polygon fill="black" stroke="black" points="296.5,-224.16 306.92,-226.07 299.97,-218.08 296.5,-224.16"/>
            <text text-anchor="middle" x="251.24" y="-200.12" font-family="Times New Roman,serif" font-size="14.00">2
            </text>
        </g>
        <!-- SPRING_SERVICE&#45;&gt;mrs.application.service.reservation.reservation.ReservationRepository -->
        <g id="edge3" class="edge">
            <title>SPRING_SERVICE&#45;&gt;mrs.application.service.reservation.reservation.ReservationRepository</title>
            <path fill="none" stroke="black" d="M211.25,-152.24C236.83,-149.91 274.96,-146.43 307.9,-143.43"/>
            <polygon fill="black" stroke="black" points="308.29,-146.91 317.93,-142.51 307.66,-139.94 308.29,-146.91"/>
        </g>
        <!-- SPRING_SERVICE&#45;&gt;mrs.application.service.reservation.room.ReservableRoomRepository -->
        <g id="edge6" class="edge">
            <title>SPRING_SERVICE&#45;&gt;mrs.application.service.reservation.room.ReservableRoomRepository</title>
            <path fill="none" stroke="black" d="M175.77,-173.05C170.39,-188.51 162.58,-210.95 156.42,-228.67"/>
            <polygon fill="black" stroke="black" points="152.99,-227.87 153.01,-238.46 159.6,-230.17 152.99,-227.87"/>
            <text text-anchor="middle" x="162.59" y="-204.66" font-family="Times New Roman,serif" font-size="14.00">2
            </text>
        </g>
        <!-- SPRING_SERVICE&#45;&gt;mrs.infrastructure.datasource.Message -->
        <g id="edge4" class="edge">
            <title>SPRING_SERVICE&#45;&gt;mrs.infrastructure.datasource.Message</title>
            <path fill="none" stroke="black" d="M155.63,-136.85C140.05,-126.22 120.14,-112.64 103.24,-101.11"/>
            <polygon fill="black" stroke="black" points="104.95,-98.04 94.72,-95.3 101.01,-103.82 104.95,-98.04"/>
            <text text-anchor="middle" x="125.94" y="-122.78" font-family="Times New Roman,serif" font-size="14.00">4
            </text>
        </g>
        <!-- mrs.infrastructure.security.jwt.JwtUtils -->
        <g id="node11" class="node">
            <title>mrs.infrastructure.security.jwt.JwtUtils</title>
            <polygon fill="lightgrey" stroke="black"
                     points="195.56,-35.92 134.56,-35.92 134.56,0.08 195.56,0.08 195.56,-35.92"/>
            <text text-anchor="middle" x="165.06" y="-14.22" font-family="Times New Roman,serif" font-size="14.00">
                JwtUtils
            </text>
        </g>
        <!-- SPRING_SERVICE&#45;&gt;mrs.infrastructure.security.jwt.JwtUtils -->
        <g id="edge11" class="edge">
            <title>SPRING_SERVICE&#45;&gt;mrs.infrastructure.security.jwt.JwtUtils</title>
            <path fill="none" stroke="black" d="M179.83,-136.71C176.96,-113.58 171.96,-73.39 168.58,-46.24"/>
            <polygon fill="black" stroke="black" points="172.04,-45.67 167.33,-36.18 165.09,-46.54 172.04,-45.67"/>
        </g>
        <!-- SPRING_REPOSITORY -->
        <g id="node8" class="node">
            <title>SPRING_REPOSITORY</title>
            <polygon fill="#eedd82" stroke="black"
                     points="355.1,-208.42 276.1,-208.42 276.1,-204.42 272.1,-204.42 272.1,-200.42 276.1,-200.42 276.1,-180.42 272.1,-180.42 272.1,-176.42 276.1,-176.42 276.1,-172.42 355.1,-172.42 355.1,-208.42"/>
            <polyline fill="none" stroke="black" points="276.1,-204.42 280.1,-204.42 280.1,-200.42 276.1,-200.42 "/>
            <polyline fill="none" stroke="black" points="276.1,-180.42 280.1,-180.42 280.1,-176.42 276.1,-176.42 "/>
            <text text-anchor="middle" x="315.6" y="-186.72" font-family="Times New Roman,serif" font-size="14.00">
                Repository
            </text>
        </g>
        <!-- SPRING_REPOSITORY&#45;&gt;mrs.application.service.auth.UserRepository -->
        <g id="edge14" class="edge">
            <title>SPRING_REPOSITORY&#45;&gt;mrs.application.service.auth.UserRepository</title>
            <path fill="none" stroke="black" d="M302.33,-208.62C288.39,-227.74 266.35,-257.97 250.63,-279.53"/>
            <polygon fill="black" stroke="black" points="247.6,-277.75 244.53,-287.9 253.25,-281.88 247.6,-277.75"/>
        </g>
        <!-- SPRING_REPOSITORY&#45;&gt;mrs.application.service.contact.ContactRepository -->
        <g id="edge2" class="edge">
            <title>SPRING_REPOSITORY&#45;&gt;mrs.application.service.contact.ContactRepository</title>
            <path fill="none" stroke="black" d="M302.76,-172.11C293.44,-158.81 280.69,-140.64 270.33,-125.86"/>
            <polygon fill="black" stroke="black" points="273.15,-123.78 264.54,-117.61 267.42,-127.8 273.15,-123.78"/>
        </g>
        <!-- SPRING_REPOSITORY&#45;&gt;mrs.application.service.facility.room.MeetingRoomRepository -->
        <g id="edge12" class="edge">
            <title>SPRING_REPOSITORY&#45;&gt;mrs.application.service.facility.room.MeetingRoomRepository</title>
            <path fill="none" stroke="black" d="M322.45,-208.53C323.17,-210.41 323.9,-212.35 324.64,-214.31"/>
            <polygon fill="black" stroke="black" points="321.5,-215.89 328.31,-224.01 328.05,-213.42 321.5,-215.89"/>
        </g>
        <!-- SPRING_REPOSITORY&#45;&gt;mrs.application.service.reservation.reservation.ReservationRepository -->
        <g id="edge5" class="edge">
            <title>SPRING_REPOSITORY&#45;&gt;mrs.application.service.reservation.reservation.ReservationRepository
            </title>
            <path fill="none" stroke="black" d="M335.73,-172.17C339.51,-168.74 343.52,-165.1 347.47,-161.52"/>
            <polygon fill="black" stroke="black" points="349.85,-164.09 354.91,-154.78 345.15,-158.91 349.85,-164.09"/>
        </g>
        <!-- SPRING_REPOSITORY&#45;&gt;mrs.application.service.reservation.room.ReservableRoomRepository -->
        <g id="edge9" class="edge">
            <title>SPRING_REPOSITORY&#45;&gt;mrs.application.service.reservation.room.ReservableRoomRepository</title>
            <path fill="none" stroke="black" d="M276.01,-205.9C251.72,-215.4 220.46,-227.63 194.76,-237.68"/>
            <polygon fill="black" stroke="black" points="193.25,-234.52 185.21,-241.42 195.8,-241.04 193.25,-234.52"/>
        </g>
        <!-- mrs.infrastructure.security.jwt.AuthEntryPointJwt -->
        <g id="node10" class="node">
            <title>mrs.infrastructure.security.jwt.AuthEntryPointJwt</title>
            <polygon fill="lightgrey" stroke="black"
                     points="452.14,-336.3 330.14,-336.3 330.14,-300.3 452.14,-300.3 452.14,-336.3"/>
            <text text-anchor="middle" x="391.14" y="-314.6" font-family="Times New Roman,serif" font-size="14.00">
                AuthEntryPointJwt
            </text>
        </g>
    </g>
</svg>
