<?xml version="1.0" encoding="UTF-8" standalone="no"?>
<!DOCTYPE svg PUBLIC "-//W3C//DTD SVG 1.1//EN"
        "http://www.w3.org/Graphics/SVG/1.1/DTD/svg11.dtd">
<!-- Generated by graphviz version 3.0.0 (20220226.1711)
 -->
<!-- Title: コンポーネント関連図 Pages: 1 -->
<svg width="350pt" height="301pt"
     viewBox="0.00 0.00 350.00 301.00" xmlns="http://www.w3.org/2000/svg">
    <g id="graph0" class="graph" transform="scale(1 1) rotate(0) translate(4 274)">
        <title>コンポーネント関連図</title>
        <polygon fill="white" stroke="transparent" points="-4,27 -4,-274 346,-274 346,27 -4,27"/>
        <text text-anchor="middle" x="171" y="15.2" font-family="Times New Roman,serif" font-size="14.00">コンポーネント関連図
        </text>
        <!-- SPRING_CONTROLLER -->
        <g id="node1" class="node">
            <title>SPRING_CONTROLLER</title>
            <polygon fill="#eedd82" stroke="black"
                     points="184.4,-36.33 111.4,-36.33 111.4,-32.33 107.4,-32.33 107.4,-28.33 111.4,-28.33 111.4,-8.33 107.4,-8.33 107.4,-4.33 111.4,-4.33 111.4,-0.33 184.4,-0.33 184.4,-36.33"/>
            <polyline fill="none" stroke="black" points="111.4,-32.33 115.4,-32.33 115.4,-28.33 111.4,-28.33 "/>
            <polyline fill="none" stroke="black" points="111.4,-8.33 115.4,-8.33 115.4,-4.33 111.4,-4.33 "/>
            <text text-anchor="middle" x="147.9" y="-14.63" font-family="Times New Roman,serif" font-size="14.00">
                Controller
            </text>
        </g>
        <!-- SPRING_SERVICE -->
        <g id="node7" class="node">
            <title>SPRING_SERVICE</title>
            <polygon fill="#eedd82" stroke="black"
                     points="192.77,-149.48 134.77,-149.48 134.77,-145.48 130.77,-145.48 130.77,-141.48 134.77,-141.48 134.77,-121.48 130.77,-121.48 130.77,-117.48 134.77,-117.48 134.77,-113.48 192.77,-113.48 192.77,-149.48"/>
            <polyline fill="none" stroke="black" points="134.77,-145.48 138.77,-145.48 138.77,-141.48 134.77,-141.48 "/>
            <polyline fill="none" stroke="black" points="134.77,-121.48 138.77,-121.48 138.77,-117.48 134.77,-117.48 "/>
            <text text-anchor="middle" x="163.77" y="-127.78" font-family="Times New Roman,serif" font-size="14.00">
                Service
            </text>
        </g>
        <!-- SPRING_CONTROLLER&#45;&gt;SPRING_SERVICE -->
        <g id="edge1" class="edge">
            <title>SPRING_CONTROLLER&#45;&gt;SPRING_SERVICE</title>
            <path fill="none" stroke="black" d="M150.45,-36.51C152.99,-54.57 156.91,-82.52 159.84,-103.43"/>
            <polygon fill="black" stroke="black" points="156.37,-103.93 161.23,-113.34 163.31,-102.95 156.37,-103.93"/>
            <text text-anchor="middle" x="151.65" y="-73.77" font-family="Times New Roman,serif" font-size="14.00">2
            </text>
        </g>
        <!-- SPRING_REPOSITORY -->
        <g id="node2" class="node">
            <title>SPRING_REPOSITORY</title>
            <polygon fill="#eedd82" stroke="black"
                     points="194.77,-220.2 115.77,-220.2 115.77,-216.2 111.77,-216.2 111.77,-212.2 115.77,-212.2 115.77,-192.2 111.77,-192.2 111.77,-188.2 115.77,-188.2 115.77,-184.2 194.77,-184.2 194.77,-220.2"/>
            <polyline fill="none" stroke="black" points="115.77,-216.2 119.77,-216.2 119.77,-212.2 115.77,-212.2 "/>
            <polyline fill="none" stroke="black" points="115.77,-192.2 119.77,-192.2 119.77,-188.2 115.77,-188.2 "/>
            <text text-anchor="middle" x="155.27" y="-198.5" font-family="Times New Roman,serif" font-size="14.00">
                Repository
            </text>
        </g>
        <!-- mrs.application.service.reservation.ReservationRepository -->
        <g id="node3" class="node">
            <title>mrs.application.service.reservation.ReservationRepository</title>
            <ellipse fill="lightgrey" stroke="black" cx="280.73" cy="-137.68" rx="58.13" ry="18"/>
            <text text-anchor="middle" x="280.73" y="-135.48" font-family="Times New Roman,serif" font-size="9.00">
                ReservationRepository
            </text>
        </g>
        <!-- SPRING_REPOSITORY&#45;&gt;mrs.application.service.reservation.ReservationRepository -->
        <g id="edge2" class="edge">
            <title>SPRING_REPOSITORY&#45;&gt;mrs.application.service.reservation.ReservationRepository</title>
            <path fill="none" stroke="black" d="M190.55,-184.05C206.3,-175.95 224.93,-166.37 241.16,-158.03"/>
            <polygon fill="black" stroke="black" points="243.1,-160.97 250.39,-153.28 239.9,-154.74 243.1,-160.97"/>
        </g>
        <!-- mrs.application.service.room.MeetingRoomRepository -->
        <g id="node4" class="node">
            <title>mrs.application.service.room.MeetingRoomRepository</title>
            <ellipse fill="lightgrey" stroke="black" cx="97.19" cy="-251.73" rx="63.52" ry="18"/>
            <text text-anchor="middle" x="97.19" y="-249.53" font-family="Times New Roman,serif" font-size="9.00">
                MeetingRoomRepository
            </text>
        </g>
        <!-- SPRING_REPOSITORY&#45;&gt;mrs.application.service.room.MeetingRoomRepository -->
        <g id="edge6" class="edge">
            <title>SPRING_REPOSITORY&#45;&gt;mrs.application.service.room.MeetingRoomRepository</title>
            <path fill="none" stroke="black" d="M133.97,-220.36C131.08,-222.83 128.08,-225.38 125.1,-227.93"/>
            <polygon fill="black" stroke="black" points="122.66,-225.41 117.33,-234.56 127.21,-230.73 122.66,-225.41"/>
        </g>
        <!-- mrs.application.service.room.ReservableRoomRepository -->
        <g id="node5" class="node">
            <title>mrs.application.service.room.ReservableRoomRepository</title>
            <ellipse fill="lightgrey" stroke="black" cx="273.3" cy="-234.96" rx="68.91" ry="18"/>
            <text text-anchor="middle" x="273.3" y="-232.76" font-family="Times New Roman,serif" font-size="9.00">
                ReservableRoomRepository
            </text>
        </g>
        <!-- SPRING_REPOSITORY&#45;&gt;mrs.application.service.room.ReservableRoomRepository -->
        <g id="edge8" class="edge">
            <title>SPRING_REPOSITORY&#45;&gt;mrs.application.service.room.ReservableRoomRepository</title>
            <path fill="none" stroke="black" d="M194.9,-213.2C201.71,-215.09 208.92,-217.09 216.08,-219.08"/>
            <polygon fill="black" stroke="black" points="215.22,-222.47 225.8,-221.78 217.1,-215.73 215.22,-222.47"/>
        </g>
        <!-- mrs.application.service.user.UserRepository -->
        <g id="node6" class="node">
            <title>mrs.application.service.user.UserRepository</title>
            <ellipse fill="lightgrey" stroke="black" cx="43.03" cy="-142.36" rx="43.1" ry="18"/>
            <text text-anchor="middle" x="43.03" y="-140.16" font-family="Times New Roman,serif" font-size="9.00">
                UserRepository
            </text>
        </g>
        <!-- SPRING_REPOSITORY&#45;&gt;mrs.application.service.user.UserRepository -->
        <g id="edge4" class="edge">
            <title>SPRING_REPOSITORY&#45;&gt;mrs.application.service.user.UserRepository</title>
            <path fill="none" stroke="black" d="M121.29,-184.08C107.87,-176.93 92.44,-168.7 78.84,-161.45"/>
            <polygon fill="black" stroke="black" points="80.24,-158.23 69.77,-156.62 76.95,-164.41 80.24,-158.23"/>
        </g>
        <!-- SPRING_SERVICE&#45;&gt;mrs.application.service.reservation.ReservationRepository -->
        <g id="edge9" class="edge">
            <title>SPRING_SERVICE&#45;&gt;mrs.application.service.reservation.ReservationRepository</title>
            <path fill="none" stroke="black" d="M192.99,-133.03C199.17,-133.35 205.94,-133.71 212.89,-134.08"/>
            <polygon fill="black" stroke="black" points="212.99,-137.59 223.16,-134.63 213.36,-130.6 212.99,-137.59"/>
        </g>
        <!-- SPRING_SERVICE&#45;&gt;mrs.application.service.room.MeetingRoomRepository -->
        <g id="edge5" class="edge">
            <title>SPRING_SERVICE&#45;&gt;mrs.application.service.room.MeetingRoomRepository</title>
            <path fill="none" stroke="black" d="M153.81,-149.48C142.77,-169.41 124.88,-201.73 112.16,-224.7"/>
            <polygon fill="black" stroke="black" points="109.01,-223.16 107.23,-233.61 115.14,-226.55 109.01,-223.16"/>
        </g>
        <!-- SPRING_SERVICE&#45;&gt;mrs.application.service.room.ReservableRoomRepository -->
        <g id="edge3" class="edge">
            <title>SPRING_SERVICE&#45;&gt;mrs.application.service.room.ReservableRoomRepository</title>
            <path fill="none" stroke="black" d="M182.85,-149.5C200.71,-166.37 227.53,-191.71 247.33,-210.42"/>
            <polygon fill="black" stroke="black" points="245.13,-213.17 254.81,-217.49 249.94,-208.08 245.13,-213.17"/>
            <text text-anchor="middle" x="211.59" y="-183.76" font-family="Times New Roman,serif" font-size="14.00">2
            </text>
        </g>
        <!-- SPRING_SERVICE&#45;&gt;mrs.application.service.user.UserRepository -->
        <g id="edge7" class="edge">
            <title>SPRING_SERVICE&#45;&gt;mrs.application.service.user.UserRepository</title>
            <path fill="none" stroke="black" d="M134.55,-134.11C122.87,-135.16 109.05,-136.41 95.73,-137.61"/>
            <polygon fill="black" stroke="black" points="95.34,-134.13 85.69,-138.52 95.97,-141.1 95.34,-134.13"/>
        </g>
    </g>
</svg>
