<?xml version="1.0" encoding="UTF-8" standalone="no"?>
<!DOCTYPE svg PUBLIC "-//W3C//DTD SVG 1.1//EN"
        "http://www.w3.org/Graphics/SVG/1.1/DTD/svg11.dtd">
<!-- Generated by graphviz version 3.0.0 (20220226.1711)
 -->
<!-- Title: コンポーネント関連図 Pages: 1 -->
<svg width="331pt" height="256pt"
     viewBox="0.00 0.00 331.00 256.00" xmlns="http://www.w3.org/2000/svg">
    <g id="graph0" class="graph" transform="scale(1 1) rotate(0) translate(4 229)">
        <title>コンポーネント関連図</title>
        <polygon fill="white" stroke="transparent" points="-4,27 -4,-229 327,-229 327,27 -4,27"/>
        <text text-anchor="middle" x="161.5" y="15.2" font-family="Times New Roman,serif" font-size="14.00">コンポーネント関連図
        </text>
        <!-- SPRING_REPOSITORY -->
        <g id="node1" class="node">
            <title>SPRING_REPOSITORY</title>
            <polygon fill="#eedd82" stroke="black"
                     points="163.48,-160.7 84.48,-160.7 84.48,-156.7 80.48,-156.7 80.48,-152.7 84.48,-152.7 84.48,-132.7 80.48,-132.7 80.48,-128.7 84.48,-128.7 84.48,-124.7 163.48,-124.7 163.48,-160.7"/>
            <polyline fill="none" stroke="black" points="84.48,-156.7 88.48,-156.7 88.48,-152.7 84.48,-152.7 "/>
            <polyline fill="none" stroke="black" points="84.48,-132.7 88.48,-132.7 88.48,-128.7 84.48,-128.7 "/>
            <text text-anchor="middle" x="123.98" y="-139" font-family="Times New Roman,serif" font-size="14.00">
                Repository
            </text>
        </g>
        <!-- mrs.application.service.reservation.ReservationRepository -->
        <g id="node3" class="node">
            <title>mrs.application.service.reservation.ReservationRepository</title>
            <ellipse fill="lightgrey" stroke="black" cx="264.42" cy="-114.76" rx="58.13" ry="18"/>
            <text text-anchor="middle" x="264.42" y="-112.56" font-family="Times New Roman,serif" font-size="9.00">
                ReservationRepository
            </text>
        </g>
        <!-- SPRING_REPOSITORY&#45;&gt;mrs.application.service.reservation.ReservationRepository -->
        <g id="edge2" class="edge">
            <title>SPRING_REPOSITORY&#45;&gt;mrs.application.service.reservation.ReservationRepository</title>
            <path fill="none" stroke="black" d="M163.85,-134.77C176.7,-132.21 191.24,-129.32 205.18,-126.54"/>
            <polygon fill="black" stroke="black" points="206.07,-129.93 215.2,-124.55 204.71,-123.07 206.07,-129.93"/>
        </g>
        <!-- mrs.application.service.room.MeetingRoomRepository -->
        <g id="node4" class="node">
            <title>mrs.application.service.room.MeetingRoomRepository</title>
            <ellipse fill="lightgrey" stroke="black" cx="72.02" cy="-187.39" rx="63.52" ry="18"/>
            <text text-anchor="middle" x="72.02" y="-185.19" font-family="Times New Roman,serif" font-size="9.00">
                MeetingRoomRepository
            </text>
        </g>
        <!-- SPRING_REPOSITORY&#45;&gt;mrs.application.service.room.MeetingRoomRepository -->
        <g id="edge6" class="edge">
            <title>SPRING_REPOSITORY&#45;&gt;mrs.application.service.room.MeetingRoomRepository</title>
            <path fill="none" stroke="black" d="M102.85,-160.88C101.83,-161.75 100.81,-162.63 99.79,-163.51"/>
            <polygon fill="black" stroke="black" points="97.26,-161.07 91.96,-170.24 101.82,-166.37 97.26,-161.07"/>
        </g>
        <!-- mrs.application.service.room.ReservableRoomRepository -->
        <g id="node5" class="node">
            <title>mrs.application.service.room.ReservableRoomRepository</title>
            <ellipse fill="lightgrey" stroke="black" cx="226.27" cy="-207.31" rx="68.91" ry="18"/>
            <text text-anchor="middle" x="226.27" y="-205.11" font-family="Times New Roman,serif" font-size="9.00">
                ReservableRoomRepository
            </text>
        </g>
        <!-- SPRING_REPOSITORY&#45;&gt;mrs.application.service.room.ReservableRoomRepository -->
        <g id="edge8" class="edge">
            <title>SPRING_REPOSITORY&#45;&gt;mrs.application.service.room.ReservableRoomRepository</title>
            <path fill="none" stroke="black" d="M152.75,-160.87C164.63,-168.38 178.53,-177.16 191.02,-185.05"/>
            <polygon fill="black" stroke="black" points="189.5,-188.22 199.82,-190.61 193.24,-182.31 189.5,-188.22"/>
        </g>
        <!-- mrs.application.service.user.UserRepository -->
        <g id="node6" class="node">
            <title>mrs.application.service.user.UserRepository</title>
            <ellipse fill="lightgrey" stroke="black" cx="43.77" cy="-87.1" rx="43.1" ry="18"/>
            <text text-anchor="middle" x="43.77" y="-84.9" font-family="Times New Roman,serif" font-size="9.00">
                UserRepository
            </text>
        </g>
        <!-- SPRING_REPOSITORY&#45;&gt;mrs.application.service.user.UserRepository -->
        <g id="edge4" class="edge">
            <title>SPRING_REPOSITORY&#45;&gt;mrs.application.service.user.UserRepository</title>
            <path fill="none" stroke="black" d="M97.72,-124.49C90.36,-119.4 82.3,-113.81 74.7,-108.54"/>
            <polygon fill="black" stroke="black" points="76.27,-105.37 66.06,-102.55 72.29,-111.12 76.27,-105.37"/>
        </g>
        <!-- SPRING_CONTROLLER -->
        <g id="node2" class="node">
            <title>SPRING_CONTROLLER</title>
            <polygon fill="#eedd82" stroke="black"
                     points="211.61,-36.08 138.61,-36.08 138.61,-32.08 134.61,-32.08 134.61,-28.08 138.61,-28.08 138.61,-8.08 134.61,-8.08 134.61,-4.08 138.61,-4.08 138.61,-0.08 211.61,-0.08 211.61,-36.08"/>
            <polyline fill="none" stroke="black" points="138.61,-32.08 142.61,-32.08 142.61,-28.08 138.61,-28.08 "/>
            <polyline fill="none" stroke="black" points="138.61,-8.08 142.61,-8.08 142.61,-4.08 138.61,-4.08 "/>
            <text text-anchor="middle" x="175.11" y="-14.38" font-family="Times New Roman,serif" font-size="14.00">
                Controller
            </text>
        </g>
        <!-- SPRING_SERVICE -->
        <g id="node7" class="node">
            <title>SPRING_SERVICE</title>
            <polygon fill="#eedd82" stroke="black"
                     points="187.3,-92.03 129.3,-92.03 129.3,-88.03 125.3,-88.03 125.3,-84.03 129.3,-84.03 129.3,-64.03 125.3,-64.03 125.3,-60.03 129.3,-60.03 129.3,-56.03 187.3,-56.03 187.3,-92.03"/>
            <polyline fill="none" stroke="black" points="129.3,-88.03 133.3,-88.03 133.3,-84.03 129.3,-84.03 "/>
            <polyline fill="none" stroke="black" points="129.3,-64.03 133.3,-64.03 133.3,-60.03 129.3,-60.03 "/>
            <text text-anchor="middle" x="158.3" y="-70.33" font-family="Times New Roman,serif" font-size="14.00">
                Service
            </text>
        </g>
        <!-- SPRING_CONTROLLER&#45;&gt;SPRING_SERVICE -->
        <g id="edge1" class="edge">
            <title>SPRING_CONTROLLER&#45;&gt;SPRING_SERVICE</title>
            <path fill="none" stroke="black" d="M169.7,-36.09C168.76,-39.22 167.76,-42.54 166.76,-45.87"/>
            <polygon fill="black" stroke="black" points="163.34,-45.08 163.82,-55.67 170.05,-47.1 163.34,-45.08"/>
            <text text-anchor="middle" x="164.73" y="-44.78" font-family="Times New Roman,serif" font-size="14.00">2
            </text>
        </g>
        <!-- SPRING_SERVICE&#45;&gt;mrs.application.service.reservation.ReservationRepository -->
        <g id="edge9" class="edge">
            <title>SPRING_SERVICE&#45;&gt;mrs.application.service.reservation.ReservationRepository</title>
            <path fill="none" stroke="black" d="M187.58,-85.27C197.07,-88.91 207.83,-93.04 218.24,-97.04"/>
            <polygon fill="black" stroke="black" points="217.06,-100.33 227.65,-100.65 219.57,-93.8 217.06,-100.33"/>
        </g>
        <!-- SPRING_SERVICE&#45;&gt;mrs.application.service.room.MeetingRoomRepository -->
        <g id="edge5" class="edge">
            <title>SPRING_SERVICE&#45;&gt;mrs.application.service.room.MeetingRoomRepository</title>
            <path fill="none" stroke="black" d="M144.44,-92.25C130.2,-110.95 107.92,-140.23 91.82,-161.37"/>
            <polygon fill="black" stroke="black" points="88.83,-159.52 85.56,-169.6 94.4,-163.76 88.83,-159.52"/>
        </g>
        <!-- SPRING_SERVICE&#45;&gt;mrs.application.service.room.ReservableRoomRepository -->
        <g id="edge3" class="edge">
            <title>SPRING_SERVICE&#45;&gt;mrs.application.service.room.ReservableRoomRepository</title>
            <path fill="none" stroke="black" d="M167.61,-92.29C179.2,-115.02 199.11,-154.04 212.48,-180.26"/>
            <polygon fill="black" stroke="black" points="209.42,-181.96 217.08,-189.28 215.65,-178.78 209.42,-181.96"/>
            <text text-anchor="middle" x="186.54" y="-140.07" font-family="Times New Roman,serif" font-size="14.00">2
            </text>
        </g>
        <!-- SPRING_SERVICE&#45;&gt;mrs.application.service.user.UserRepository -->
        <g id="edge7" class="edge">
            <title>SPRING_SERVICE&#45;&gt;mrs.application.service.user.UserRepository</title>
            <path fill="none" stroke="black" d="M129.1,-77.36C119.06,-78.51 107.48,-79.83 96.16,-81.12"/>
            <polygon fill="black" stroke="black" points="95.42,-77.68 85.88,-82.29 96.22,-84.64 95.42,-77.68"/>
        </g>
    </g>
</svg>
