<?xml version="1.0" encoding="UTF-8" standalone="no"?>
<!DOCTYPE svg PUBLIC "-//W3C//DTD SVG 1.1//EN"
        "http://www.w3.org/Graphics/SVG/1.1/DTD/svg11.dtd">
<!-- Generated by graphviz version 3.0.0 (20220226.1711)
 -->
<!-- Title: コンポーネント関連図 Pages: 1 -->
<svg width="353pt" height="248pt"
     viewBox="0.00 0.00 353.00 248.00" xmlns="http://www.w3.org/2000/svg">
    <g id="graph0" class="graph" transform="scale(1 1) rotate(0) translate(4 221)">
        <title>コンポーネント関連図</title>
        <polygon fill="white" stroke="transparent" points="-4,27 -4,-221 349,-221 349,27 -4,27"/>
        <text text-anchor="middle" x="172.5" y="15.2" font-family="Times New Roman,serif" font-size="14.00">コンポーネント関連図
        </text>
        <!-- SPRING_REPOSITORY -->
        <g id="node1" class="node">
            <title>SPRING_REPOSITORY</title>
            <polygon fill="#eedd82" stroke="black"
                     points="88.09,-103.91 9.09,-103.91 9.09,-99.91 5.09,-99.91 5.09,-95.91 9.09,-95.91 9.09,-75.91 5.09,-75.91 5.09,-71.91 9.09,-71.91 9.09,-67.91 88.09,-67.91 88.09,-103.91"/>
            <polyline fill="none" stroke="black" points="9.09,-99.91 13.09,-99.91 13.09,-95.91 9.09,-95.91 "/>
            <polyline fill="none" stroke="black" points="9.09,-75.91 13.09,-75.91 13.09,-71.91 9.09,-71.91 "/>
            <text text-anchor="middle" x="48.59" y="-82.21" font-family="Times New Roman,serif" font-size="14.00">
                Repository
            </text>
        </g>
        <!-- mrs.application.service.auth.UserRepository -->
        <g id="node4" class="node">
            <title>mrs.application.service.auth.UserRepository</title>
            <ellipse fill="lightgrey" stroke="black" cx="122.08" cy="-199.04" rx="43.1" ry="18"/>
            <text text-anchor="middle" x="122.08" y="-196.84" font-family="Times New Roman,serif" font-size="9.00">
                UserRepository
            </text>
        </g>
        <!-- SPRING_REPOSITORY&#45;&gt;mrs.application.service.auth.UserRepository -->
        <g id="edge11" class="edge">
            <title>SPRING_REPOSITORY&#45;&gt;mrs.application.service.auth.UserRepository</title>
            <path fill="none" stroke="black" d="M60.4,-104.09C72.54,-122.78 91.56,-152.06 105.27,-173.16"/>
            <polygon fill="black" stroke="black" points="102.41,-175.17 110.79,-181.65 108.28,-171.36 102.41,-175.17"/>
        </g>
        <!-- mrs.application.service.facility.room.MeetingRoomRepository -->
        <g id="node5" class="node">
            <title>mrs.application.service.facility.room.MeetingRoomRepository</title>
            <ellipse fill="lightgrey" stroke="black" cx="192.95" cy="-143.29" rx="63.52" ry="18"/>
            <text text-anchor="middle" x="192.95" y="-141.09" font-family="Times New Roman,serif" font-size="9.00">
                MeetingRoomRepository
            </text>
        </g>
        <!-- SPRING_REPOSITORY&#45;&gt;mrs.application.service.facility.room.MeetingRoomRepository -->
        <g id="edge10" class="edge">
            <title>SPRING_REPOSITORY&#45;&gt;mrs.application.service.facility.room.MeetingRoomRepository</title>
            <path fill="none" stroke="black" d="M88.42,-101.74C106.33,-108.86 127.59,-117.31 146.24,-124.73"/>
            <polygon fill="black" stroke="black" points="145.14,-128.05 155.73,-128.5 147.73,-121.55 145.14,-128.05"/>
        </g>
        <!-- mrs.application.service.reservation.reservation.ReservationRepository -->
        <g id="node6" class="node">
            <title>mrs.application.service.reservation.reservation.ReservationRepository</title>
            <ellipse fill="lightgrey" stroke="black" cx="58.78" cy="-140.83" rx="58.13" ry="18"/>
            <text text-anchor="middle" x="58.78" y="-138.63" font-family="Times New Roman,serif" font-size="9.00">
                ReservationRepository
            </text>
        </g>
        <!-- SPRING_REPOSITORY&#45;&gt;mrs.application.service.reservation.reservation.ReservationRepository -->
        <g id="edge6" class="edge">
            <title>SPRING_REPOSITORY&#45;&gt;mrs.application.service.reservation.reservation.ReservationRepository
            </title>
            <path fill="none" stroke="black" d="M51.98,-104.2C52.5,-107.01 53.05,-109.96 53.6,-112.92"/>
            <polygon fill="black" stroke="black" points="50.17,-113.61 55.43,-122.81 57.05,-112.34 50.17,-113.61"/>
        </g>
        <!-- mrs.application.service.reservation.room.ReservableRoomRepository -->
        <g id="node7" class="node">
            <title>mrs.application.service.reservation.room.ReservableRoomRepository</title>
            <ellipse fill="lightgrey" stroke="black" cx="177.29" cy="-43.41" rx="68.91" ry="18"/>
            <text text-anchor="middle" x="177.29" y="-41.21" font-family="Times New Roman,serif" font-size="9.00">
                ReservableRoomRepository
            </text>
        </g>
        <!-- SPRING_REPOSITORY&#45;&gt;mrs.application.service.reservation.room.ReservableRoomRepository -->
        <g id="edge4" class="edge">
            <title>SPRING_REPOSITORY&#45;&gt;mrs.application.service.reservation.room.ReservableRoomRepository</title>
            <path fill="none" stroke="black" d="M88.26,-72.81C99.79,-69 112.58,-64.78 124.78,-60.75"/>
            <polygon fill="black" stroke="black" points="126,-64.03 134.4,-57.57 123.81,-57.38 126,-64.03"/>
        </g>
        <!-- mrs.infrastructure.datasource.Message -->
        <g id="node2" class="node">
            <title>mrs.infrastructure.datasource.Message</title>
            <polygon fill="lightgrey" stroke="black"
                     points="345.17,-84.53 280.17,-84.53 280.17,-48.53 345.17,-48.53 345.17,-84.53"/>
            <text text-anchor="middle" x="312.67" y="-62.83" font-family="Times New Roman,serif" font-size="14.00">
                Message
            </text>
        </g>
        <!-- SPRING_CONTROLLER -->
        <g id="node3" class="node">
            <title>SPRING_CONTROLLER</title>
            <polygon fill="#eedd82" stroke="black"
                     points="333.03,-35.76 260.03,-35.76 260.03,-31.76 256.03,-31.76 256.03,-27.76 260.03,-27.76 260.03,-7.76 256.03,-7.76 256.03,-3.76 260.03,-3.76 260.03,0.24 333.03,0.24 333.03,-35.76"/>
            <polyline fill="none" stroke="black" points="260.03,-31.76 264.03,-31.76 264.03,-27.76 260.03,-27.76 "/>
            <polyline fill="none" stroke="black" points="260.03,-7.76 264.03,-7.76 264.03,-3.76 260.03,-3.76 "/>
            <text text-anchor="middle" x="296.53" y="-14.06" font-family="Times New Roman,serif" font-size="14.00">
                Controller
            </text>
        </g>
        <!-- SPRING_CONTROLLER&#45;&gt;mrs.infrastructure.datasource.Message -->
        <g id="edge9" class="edge">
            <title>SPRING_CONTROLLER&#45;&gt;mrs.infrastructure.datasource.Message</title>
            <path fill="none" stroke="black" d="M302.54,-35.92C302.84,-36.82 303.14,-37.74 303.44,-38.66"/>
            <polygon fill="black" stroke="black" points="300.24,-40.13 306.71,-48.52 306.89,-37.93 300.24,-40.13"/>
            <text text-anchor="middle" x="299.49" y="-41.09" font-family="Times New Roman,serif" font-size="14.00">3
            </text>
        </g>
        <!-- SPRING_SERVICE -->
        <g id="node8" class="node">
            <title>SPRING_SERVICE</title>
            <polygon fill="#eedd82" stroke="black"
                     points="230.98,-109.72 172.98,-109.72 172.98,-105.72 168.98,-105.72 168.98,-101.72 172.98,-101.72 172.98,-81.72 168.98,-81.72 168.98,-77.72 172.98,-77.72 172.98,-73.72 230.98,-73.72 230.98,-109.72"/>
            <polyline fill="none" stroke="black" points="172.98,-105.72 176.98,-105.72 176.98,-101.72 172.98,-101.72 "/>
            <polyline fill="none" stroke="black" points="172.98,-81.72 176.98,-81.72 176.98,-77.72 172.98,-77.72 "/>
            <text text-anchor="middle" x="201.98" y="-88.02" font-family="Times New Roman,serif" font-size="14.00">
                Service
            </text>
        </g>
        <!-- SPRING_CONTROLLER&#45;&gt;SPRING_SERVICE -->
        <g id="edge1" class="edge">
            <title>SPRING_CONTROLLER&#45;&gt;SPRING_SERVICE</title>
            <path fill="none" stroke="black" d="M273.15,-36.05C261.13,-45.45 246.31,-57.04 233.31,-67.21"/>
            <polygon fill="black" stroke="black" points="230.8,-64.73 225.08,-73.65 235.11,-70.25 230.8,-64.73"/>
            <text text-anchor="middle" x="249.73" y="-55.43" font-family="Times New Roman,serif" font-size="14.00">7
            </text>
        </g>
        <!-- SPRING_SERVICE&#45;&gt;mrs.infrastructure.datasource.Message -->
        <g id="edge5" class="edge">
            <title>SPRING_SERVICE&#45;&gt;mrs.infrastructure.datasource.Message</title>
            <path fill="none" stroke="black" d="M231.06,-85.1C242.89,-82.41 256.8,-79.25 269.75,-76.3"/>
            <polygon fill="black" stroke="black" points="270.9,-79.63 279.88,-74 269.35,-72.8 270.9,-79.63"/>
            <text text-anchor="middle" x="246.91" y="-84.5" font-family="Times New Roman,serif" font-size="14.00">4
            </text>
        </g>
        <!-- SPRING_SERVICE&#45;&gt;mrs.application.service.auth.UserRepository -->
        <g id="edge8" class="edge">
            <title>SPRING_SERVICE&#45;&gt;mrs.application.service.auth.UserRepository</title>
            <path fill="none" stroke="black" d="M188.42,-109.93C175.39,-127.43 155.58,-154.04 141,-173.63"/>
            <polygon fill="black" stroke="black" points="138.07,-171.7 134.91,-181.81 143.69,-175.88 138.07,-171.7"/>
            <text text-anchor="middle" x="161.21" y="-145.58" font-family="Times New Roman,serif" font-size="14.00">2
            </text>
        </g>
        <!-- SPRING_SERVICE&#45;&gt;mrs.application.service.facility.room.MeetingRoomRepository -->
        <g id="edge2" class="edge">
            <title>SPRING_SERVICE&#45;&gt;mrs.application.service.facility.room.MeetingRoomRepository</title>
            <path fill="none" stroke="black" d="M198.82,-109.76C198.52,-111.47 198.21,-113.24 197.9,-115.03"/>
            <polygon fill="black" stroke="black" points="194.4,-114.72 196.12,-125.18 201.29,-115.93 194.4,-114.72"/>
            <text text-anchor="middle" x="194.86" y="-116.19" font-family="Times New Roman,serif" font-size="14.00">2
            </text>
        </g>
        <!-- SPRING_SERVICE&#45;&gt;mrs.application.service.reservation.reservation.ReservationRepository -->
        <g id="edge3" class="edge">
            <title>SPRING_SERVICE&#45;&gt;mrs.application.service.reservation.reservation.ReservationRepository</title>
            <path fill="none" stroke="black" d="M172.65,-101.78C153.92,-108.2 129.17,-116.69 107.53,-124.11"/>
            <polygon fill="black" stroke="black" points="106.16,-120.88 97.84,-127.43 108.44,-127.5 106.16,-120.88"/>
        </g>
        <!-- SPRING_SERVICE&#45;&gt;mrs.application.service.reservation.room.ReservableRoomRepository -->
        <g id="edge7" class="edge">
            <title>SPRING_SERVICE&#45;&gt;mrs.application.service.reservation.room.ReservableRoomRepository</title>
            <path fill="none" stroke="black" d="M192.64,-73.46C192.14,-72.47 191.63,-71.46 191.11,-70.46"/>
            <polygon fill="black" stroke="black" points="194.14,-68.69 186.47,-61.38 187.9,-71.88 194.14,-68.69"/>
            <text text-anchor="middle" x="188.38" y="-60.76" font-family="Times New Roman,serif" font-size="14.00">2
            </text>
        </g>
    </g>
</svg>
