<?xml version="1.0" encoding="UTF-8" standalone="no"?>
<!DOCTYPE svg PUBLIC "-//W3C//DTD SVG 1.1//EN"
        "http://www.w3.org/Graphics/SVG/1.1/DTD/svg11.dtd">
<!-- Generated by graphviz version 3.0.0 (20220226.1711)
 -->
<!-- Title: コンポーネント関連図 Pages: 1 -->
<svg width="365pt" height="251pt"
     viewBox="0.00 0.00 365.00 251.00" xmlns="http://www.w3.org/2000/svg">
    <g id="graph0" class="graph" transform="scale(1 1) rotate(0) translate(4 224)">
        <title>コンポーネント関連図</title>
        <polygon fill="white" stroke="transparent" points="-4,27 -4,-224 361,-224 361,27 -4,27"/>
        <text text-anchor="middle" x="178.5" y="15.2" font-family="Times New Roman,serif" font-size="14.00">コンポーネント関連図
        </text>
        <!-- SPRING_REPOSITORY -->
        <g id="node1" class="node">
            <title>SPRING_REPOSITORY</title>
            <polygon fill="#eedd82" stroke="black"
                     points="189.25,-164.31 110.25,-164.31 110.25,-160.31 106.25,-160.31 106.25,-156.31 110.25,-156.31 110.25,-136.31 106.25,-136.31 106.25,-132.31 110.25,-132.31 110.25,-128.31 189.25,-128.31 189.25,-164.31"/>
            <polyline fill="none" stroke="black" points="110.25,-160.31 114.25,-160.31 114.25,-156.31 110.25,-156.31 "/>
            <polyline fill="none" stroke="black" points="110.25,-136.31 114.25,-136.31 114.25,-132.31 110.25,-132.31 "/>
            <text text-anchor="middle" x="149.75" y="-142.61" font-family="Times New Roman,serif" font-size="14.00">
                Repository
            </text>
        </g>
        <!-- mrs.application.service.auth.UserRepository -->
        <g id="node3" class="node">
            <title>mrs.application.service.auth.UserRepository</title>
            <ellipse fill="lightgrey" stroke="black" cx="125.21" cy="-23.46" rx="43.1" ry="18"/>
            <text text-anchor="middle" x="125.21" y="-21.26" font-family="Times New Roman,serif" font-size="9.00">
                UserRepository
            </text>
        </g>
        <!-- SPRING_REPOSITORY&#45;&gt;mrs.application.service.auth.UserRepository -->
        <g id="edge11" class="edge">
            <title>SPRING_REPOSITORY&#45;&gt;mrs.application.service.auth.UserRepository</title>
            <path fill="none" stroke="black" d="M146.13,-128.19C142.1,-108.05 135.56,-75.26 130.86,-51.74"/>
            <polygon fill="black" stroke="black" points="134.24,-50.79 128.85,-41.66 127.37,-52.16 134.24,-50.79"/>
        </g>
        <!-- mrs.application.service.facility.room.MeetingRoomRepository -->
        <g id="node4" class="node">
            <title>mrs.application.service.facility.room.MeetingRoomRepository</title>
            <ellipse fill="lightgrey" stroke="black" cx="150.81" cy="-194.45" rx="63.52" ry="18"/>
            <text text-anchor="middle" x="150.81" y="-192.25" font-family="Times New Roman,serif" font-size="9.00">
                MeetingRoomRepository
            </text>
        </g>
        <!-- SPRING_REPOSITORY&#45;&gt;mrs.application.service.facility.room.MeetingRoomRepository -->
        <g id="edge10" class="edge">
            <title>SPRING_REPOSITORY&#45;&gt;mrs.application.service.facility.room.MeetingRoomRepository</title>
            <path fill="none" stroke="black" d="M150.15,-164.51C150.16,-164.99 150.17,-165.47 150.18,-165.96"/>
            <polygon fill="black" stroke="black" points="146.69,-166.31 150.41,-176.23 153.69,-166.15 146.69,-166.31"/>
        </g>
        <!-- mrs.application.service.reservation.reservation.ReservationRepository -->
        <g id="node5" class="node">
            <title>mrs.application.service.reservation.reservation.ReservationRepository</title>
            <ellipse fill="lightgrey" stroke="black" cx="280.97" cy="-202.46" rx="58.13" ry="18"/>
            <text text-anchor="middle" x="280.97" y="-200.26" font-family="Times New Roman,serif" font-size="9.00">
                ReservationRepository
            </text>
        </g>
        <!-- SPRING_REPOSITORY&#45;&gt;mrs.application.service.reservation.reservation.ReservationRepository -->
        <g id="edge6" class="edge">
            <title>SPRING_REPOSITORY&#45;&gt;mrs.application.service.reservation.reservation.ReservationRepository
            </title>
            <path fill="none" stroke="black" d="M189.47,-163.31C204.59,-169.78 221.89,-177.18 237.35,-183.79"/>
            <polygon fill="black" stroke="black" points="236.13,-187.08 246.7,-187.79 238.89,-180.64 236.13,-187.08"/>
        </g>
        <!-- mrs.application.service.reservation.room.ReservableRoomRepository -->
        <g id="node6" class="node">
            <title>mrs.application.service.reservation.room.ReservableRoomRepository</title>
            <ellipse fill="lightgrey" stroke="black" cx="68.57" cy="-101.66" rx="68.91" ry="18"/>
            <text text-anchor="middle" x="68.57" y="-99.46" font-family="Times New Roman,serif" font-size="9.00">
                ReservableRoomRepository
            </text>
        </g>
        <!-- SPRING_REPOSITORY&#45;&gt;mrs.application.service.reservation.room.ReservableRoomRepository -->
        <g id="edge4" class="edge">
            <title>SPRING_REPOSITORY&#45;&gt;mrs.application.service.reservation.room.ReservableRoomRepository</title>
            <path fill="none" stroke="black" d="M116.73,-128.15C113.56,-126.41 110.33,-124.63 107.11,-122.86"/>
            <polygon fill="black" stroke="black" points="108.61,-119.69 98.16,-117.94 105.24,-125.82 108.61,-119.69"/>
        </g>
        <!-- mrs.infrastructure.datasource.Message -->
        <g id="node2" class="node">
            <title>mrs.infrastructure.datasource.Message</title>
            <polygon fill="lightgrey" stroke="black"
                     points="357.06,-84.43 292.06,-84.43 292.06,-48.43 357.06,-48.43 357.06,-84.43"/>
            <text text-anchor="middle" x="324.56" y="-62.73" font-family="Times New Roman,serif" font-size="14.00">
                Message
            </text>
        </g>
        <!-- SPRING_CONTROLLER -->
        <g id="node7" class="node">
            <title>SPRING_CONTROLLER</title>
            <polygon fill="#eedd82" stroke="black"
                     points="342.39,-36.01 269.39,-36.01 269.39,-32.01 265.39,-32.01 265.39,-28.01 269.39,-28.01 269.39,-8.01 265.39,-8.01 265.39,-4.01 269.39,-4.01 269.39,-0.01 342.39,-0.01 342.39,-36.01"/>
            <polyline fill="none" stroke="black" points="269.39,-32.01 273.39,-32.01 273.39,-28.01 269.39,-28.01 "/>
            <polyline fill="none" stroke="black" points="269.39,-8.01 273.39,-8.01 273.39,-4.01 269.39,-4.01 "/>
            <text text-anchor="middle" x="305.89" y="-14.31" font-family="Times New Roman,serif" font-size="14.00">
                Controller
            </text>
        </g>
        <!-- SPRING_CONTROLLER&#45;&gt;mrs.infrastructure.datasource.Message -->
        <g id="edge9" class="edge">
            <title>SPRING_CONTROLLER&#45;&gt;mrs.infrastructure.datasource.Message</title>
            <path fill="none" stroke="black" d="M312.84,-36.04C313.18,-36.91 313.52,-37.79 313.86,-38.68"/>
            <polygon fill="black" stroke="black" points="310.68,-40.15 317.54,-48.22 317.21,-37.63 310.68,-40.15"/>
            <text text-anchor="middle" x="309.85" y="-41.16" font-family="Times New Roman,serif" font-size="14.00">3
            </text>
        </g>
        <!-- SPRING_SERVICE -->
        <g id="node8" class="node">
            <title>SPRING_SERVICE</title>
            <polygon fill="#eedd82" stroke="black"
                     points="245.27,-101.95 187.27,-101.95 187.27,-97.95 183.27,-97.95 183.27,-93.95 187.27,-93.95 187.27,-73.95 183.27,-73.95 183.27,-69.95 187.27,-69.95 187.27,-65.95 245.27,-65.95 245.27,-101.95"/>
            <polyline fill="none" stroke="black" points="187.27,-97.95 191.27,-97.95 191.27,-93.95 187.27,-93.95 "/>
            <polyline fill="none" stroke="black" points="187.27,-73.95 191.27,-73.95 191.27,-69.95 187.27,-69.95 "/>
            <text text-anchor="middle" x="216.27" y="-80.25" font-family="Times New Roman,serif" font-size="14.00">
                Service
            </text>
        </g>
        <!-- SPRING_CONTROLLER&#45;&gt;SPRING_SERVICE -->
        <g id="edge1" class="edge">
            <title>SPRING_CONTROLLER&#45;&gt;SPRING_SERVICE</title>
            <path fill="none" stroke="black" d="M281.4,-36.03C271.5,-43.31 259.93,-51.82 249.3,-59.64"/>
            <polygon fill="black" stroke="black" points="247.02,-56.98 241.04,-65.72 251.17,-62.62 247.02,-56.98"/>
            <text text-anchor="middle" x="261.85" y="-51.63" font-family="Times New Roman,serif" font-size="14.00">7
            </text>
        </g>
        <!-- SPRING_SERVICE&#45;&gt;mrs.infrastructure.datasource.Message -->
        <g id="edge5" class="edge">
            <title>SPRING_SERVICE&#45;&gt;mrs.infrastructure.datasource.Message</title>
            <path fill="none" stroke="black" d="M245.29,-79.26C256.54,-77.44 269.66,-75.31 281.95,-73.32"/>
            <polygon fill="black" stroke="black" points="282.71,-76.75 292.02,-71.7 281.59,-69.84 282.71,-76.75"/>
            <text text-anchor="middle" x="260.12" y="-80.09" font-family="Times New Roman,serif" font-size="14.00">4
            </text>
        </g>
        <!-- SPRING_SERVICE&#45;&gt;mrs.application.service.auth.UserRepository -->
        <g id="edge8" class="edge">
            <title>SPRING_SERVICE&#45;&gt;mrs.application.service.auth.UserRepository</title>
            <path fill="none" stroke="black" d="M188.95,-65.8C178.8,-59.06 167.2,-51.36 156.71,-44.39"/>
            <polygon fill="black" stroke="black" points="158.48,-41.36 148.21,-38.74 154.6,-47.19 158.48,-41.36"/>
            <text text-anchor="middle" x="169.33" y="-58.9" font-family="Times New Roman,serif" font-size="14.00">2
            </text>
        </g>
        <!-- SPRING_SERVICE&#45;&gt;mrs.application.service.facility.room.MeetingRoomRepository -->
        <g id="edge2" class="edge">
            <title>SPRING_SERVICE&#45;&gt;mrs.application.service.facility.room.MeetingRoomRepository</title>
            <path fill="none" stroke="black" d="M205.46,-102.2C194.88,-120.06 178.64,-147.47 166.61,-167.77"/>
            <polygon fill="black" stroke="black" points="163.5,-166.15 161.42,-176.54 169.53,-169.72 163.5,-166.15"/>
        </g>
        <!-- SPRING_SERVICE&#45;&gt;mrs.application.service.reservation.reservation.ReservationRepository -->
        <g id="edge3" class="edge">
            <title>SPRING_SERVICE&#45;&gt;mrs.application.service.reservation.reservation.ReservationRepository</title>
            <path fill="none" stroke="black" d="M226.23,-102.21C236.9,-121.75 253.95,-152.96 266.18,-175.37"/>
            <polygon fill="black" stroke="black" points="263.23,-177.27 271.1,-184.37 269.38,-173.92 263.23,-177.27"/>
        </g>
        <!-- SPRING_SERVICE&#45;&gt;mrs.application.service.reservation.room.ReservableRoomRepository -->
        <g id="edge7" class="edge">
            <title>SPRING_SERVICE&#45;&gt;mrs.application.service.reservation.room.ReservableRoomRepository</title>
            <path fill="none" stroke="black" d="M187.08,-87.45C173.86,-89.04 157.57,-90.99 141.34,-92.93"/>
            <polygon fill="black" stroke="black" points="140.79,-89.47 131.28,-94.14 141.63,-96.42 140.79,-89.47"/>
            <text text-anchor="middle" x="160.71" y="-93.99" font-family="Times New Roman,serif" font-size="14.00">2
            </text>
        </g>
    </g>
</svg>
