<?xml version="1.0" encoding="UTF-8" standalone="no"?>
<!DOCTYPE svg PUBLIC "-//W3C//DTD SVG 1.1//EN"
        "http://www.w3.org/Graphics/SVG/1.1/DTD/svg11.dtd">
<!-- Generated by graphviz version 3.0.0 (20220226.1711)
 -->
<!-- Title: コンポーネント関連図 Pages: 1 -->
<svg width="220pt" height="224pt"
     viewBox="0.00 0.00 220.00 224.00" xmlns="http://www.w3.org/2000/svg">
    <g id="graph0" class="graph" transform="scale(1 1) rotate(0) translate(4 197)">
        <title>コンポーネント関連図</title>
        <polygon fill="white" stroke="transparent" points="-4,27 -4,-197 216,-197 216,27 -4,27"/>
        <text text-anchor="middle" x="106" y="15.2" font-family="Times New Roman,serif" font-size="14.00">コンポーネント関連図
        </text>
        <!-- mrs.infrastructure.datasource.autogen.sample.TodoMapper -->
        <g id="node1" class="node">
            <title>mrs.infrastructure.datasource.autogen.sample.TodoMapper</title>
            <polygon fill="lightgrey" stroke="black"
                     points="192.14,-36.3 100.14,-36.3 100.14,-0.3 192.14,-0.3 192.14,-36.3"/>
            <text text-anchor="middle" x="146.14" y="-14.6" font-family="Times New Roman,serif" font-size="14.00">
                TodoMapper
            </text>
        </g>
        <!-- SPRING_REPOSITORY -->
        <g id="node2" class="node">
            <title>SPRING_REPOSITORY</title>
            <polygon fill="#eedd82" stroke="black"
                     points="79.06,-46.37 0.06,-46.37 0.06,-42.37 -3.94,-42.37 -3.94,-38.37 0.06,-38.37 0.06,-18.37 -3.94,-18.37 -3.94,-14.37 0.06,-14.37 0.06,-10.37 79.06,-10.37 79.06,-46.37"/>
            <polyline fill="none" stroke="black" points="0.06,-42.37 4.06,-42.37 4.06,-38.37 0.06,-38.37 "/>
            <polyline fill="none" stroke="black" points="0.06,-18.37 4.06,-18.37 4.06,-14.37 0.06,-14.37 "/>
            <text text-anchor="middle" x="39.56" y="-24.67" font-family="Times New Roman,serif" font-size="14.00">
                Repository
            </text>
        </g>
        <!-- mrs.application.service.todo.TodoRepository -->
        <g id="node5" class="node">
            <title>mrs.application.service.todo.TodoRepository</title>
            <ellipse fill="lightgrey" stroke="black" cx="76.03" cy="-74.93" rx="44.41" ry="18"/>
            <text text-anchor="middle" x="76.03" y="-72.73" font-family="Times New Roman,serif" font-size="9.00">
                TodoRepository
            </text>
        </g>
        <!-- SPRING_REPOSITORY&#45;&gt;mrs.application.service.todo.TodoRepository -->
        <g id="edge2" class="edge">
            <title>SPRING_REPOSITORY&#45;&gt;mrs.application.service.todo.TodoRepository</title>
            <path fill="none" stroke="black" d="M53.77,-46.5C54.58,-47.54 55.4,-48.59 56.23,-49.64"/>
            <polygon fill="black" stroke="black" points="53.6,-51.97 62.53,-57.68 59.11,-47.65 53.6,-51.97"/>
        </g>
        <!-- SPRING_SERVICE -->
        <g id="node3" class="node">
            <title>SPRING_SERVICE</title>
            <polygon fill="#eedd82" stroke="black"
                     points="167.56,-146.37 109.56,-146.37 109.56,-142.37 105.56,-142.37 105.56,-138.37 109.56,-138.37 109.56,-118.37 105.56,-118.37 105.56,-114.37 109.56,-114.37 109.56,-110.37 167.56,-110.37 167.56,-146.37"/>
            <polyline fill="none" stroke="black" points="109.56,-142.37 113.56,-142.37 113.56,-138.37 109.56,-138.37 "/>
            <polyline fill="none" stroke="black" points="109.56,-118.37 113.56,-118.37 113.56,-114.37 109.56,-114.37 "/>
            <text text-anchor="middle" x="138.56" y="-124.67" font-family="Times New Roman,serif" font-size="14.00">
                Service
            </text>
        </g>
        <!-- SPRING_CONTROLLER -->
        <g id="node4" class="node">
            <title>SPRING_CONTROLLER</title>
            <polygon fill="#eedd82" stroke="black"
                     points="211.53,-192.93 138.53,-192.93 138.53,-188.93 134.53,-188.93 134.53,-184.93 138.53,-184.93 138.53,-164.93 134.53,-164.93 134.53,-160.93 138.53,-160.93 138.53,-156.93 211.53,-156.93 211.53,-192.93"/>
            <polyline fill="none" stroke="black" points="138.53,-188.93 142.53,-188.93 142.53,-184.93 138.53,-184.93 "/>
            <polyline fill="none" stroke="black" points="138.53,-164.93 142.53,-164.93 142.53,-160.93 138.53,-160.93 "/>
            <text text-anchor="middle" x="175.03" y="-171.23" font-family="Times New Roman,serif" font-size="14.00">
                Controller
            </text>
        </g>
        <!-- SPRING_CONTROLLER&#45;&gt;SPRING_SERVICE -->
        <g id="edge1" class="edge">
            <title>SPRING_CONTROLLER&#45;&gt;SPRING_SERVICE</title>
            <path fill="none" stroke="black" d="M160.83,-156.79C160.25,-156.06 159.67,-155.31 159.08,-154.56"/>
            <polygon fill="black" stroke="black" points="161.71,-152.25 152.79,-146.53 156.2,-156.56 161.71,-152.25"/>
            <text text-anchor="middle" x="156.46" y="-144.48" font-family="Times New Roman,serif" font-size="14.00">3
            </text>
        </g>
    </g>
</svg>
