<?xml version="1.0" encoding="UTF-8" standalone="no"?>
<!DOCTYPE svg PUBLIC "-//W3C//DTD SVG 1.1//EN"
        "http://www.w3.org/Graphics/SVG/1.1/DTD/svg11.dtd">
<!-- Generated by graphviz version 3.0.0 (20220226.1711)
 -->
<!-- Title: コンポーネント関連図 Pages: 1 -->
<svg width="600pt" height="348pt"
     viewBox="0.00 0.00 600.00 348.00" xmlns="http://www.w3.org/2000/svg">
    <g id="graph0" class="graph" transform="scale(1 1) rotate(0) translate(4 321)">
        <title>コンポーネント関連図</title>
        <polygon fill="white" stroke="transparent" points="-4,27 -4,-321 596,-321 596,27 -4,27"/>
        <text text-anchor="middle" x="296" y="15.2" font-family="Times New Roman,serif" font-size="14.00">コンポーネント関連図
        </text>
        <!-- SPRING_CONTROLLER -->
        <g id="node1" class="node">
            <title>SPRING_CONTROLLER</title>
            <polygon fill="#eedd82" stroke="black"
                     points="446.22,-231.73 373.22,-231.73 373.22,-227.73 369.22,-227.73 369.22,-223.73 373.22,-223.73 373.22,-203.73 369.22,-203.73 369.22,-199.73 373.22,-199.73 373.22,-195.73 446.22,-195.73 446.22,-231.73"/>
            <polyline fill="none" stroke="black" points="373.22,-227.73 377.22,-227.73 377.22,-223.73 373.22,-223.73 "/>
            <polyline fill="none" stroke="black" points="373.22,-203.73 377.22,-203.73 377.22,-199.73 373.22,-199.73 "/>
            <text text-anchor="middle" x="409.72" y="-210.03" font-family="Times New Roman,serif" font-size="14.00">
                Controller
            </text>
        </g>
        <!-- mrs.infrastructure.datasource.Message -->
        <g id="node2" class="node">
            <title>mrs.infrastructure.datasource.Message</title>
            <polygon fill="lightgrey" stroke="black"
                     points="326.76,-316.57 261.76,-316.57 261.76,-280.57 326.76,-280.57 326.76,-316.57"/>
            <text text-anchor="middle" x="294.26" y="-294.87" font-family="Times New Roman,serif" font-size="14.00">
                Message
            </text>
        </g>
        <!-- SPRING_CONTROLLER&#45;&gt;mrs.infrastructure.datasource.Message -->
        <g id="edge12" class="edge">
            <title>SPRING_CONTROLLER&#45;&gt;mrs.infrastructure.datasource.Message</title>
            <path fill="none" stroke="black" d="M384.95,-231.93C368.06,-244.34 345.5,-260.92 327.11,-274.43"/>
            <polygon fill="black" stroke="black" points="324.97,-271.66 318.99,-280.4 329.12,-277.3 324.97,-271.66"/>
            <text text-anchor="middle" x="359.53" y="-256.98" font-family="Times New Roman,serif" font-size="14.00">5
            </text>
        </g>
        <!-- mrs.infrastructure.security.jwt.JwtUtils -->
        <g id="node4" class="node">
            <title>mrs.infrastructure.security.jwt.JwtUtils</title>
            <polygon fill="lightgrey" stroke="black"
                     points="592.45,-232.2 531.45,-232.2 531.45,-196.2 592.45,-196.2 592.45,-232.2"/>
            <text text-anchor="middle" x="561.95" y="-210.5" font-family="Times New Roman,serif" font-size="14.00">
                JwtUtils
            </text>
        </g>
        <!-- SPRING_CONTROLLER&#45;&gt;mrs.infrastructure.security.jwt.JwtUtils -->
        <g id="edge9" class="edge">
            <title>SPRING_CONTROLLER&#45;&gt;mrs.infrastructure.security.jwt.JwtUtils</title>
            <path fill="none" stroke="black" d="M446.57,-213.84C469.08,-213.91 497.9,-214 521.1,-214.07"/>
            <polygon fill="black" stroke="black" points="521.32,-217.57 531.33,-214.11 521.34,-210.57 521.32,-217.57"/>
        </g>
        <!-- SPRING_SERVICE -->
        <g id="node5" class="node">
            <title>SPRING_SERVICE</title>
            <polygon fill="#eedd82" stroke="black"
                     points="292.32,-195.37 234.32,-195.37 234.32,-191.37 230.32,-191.37 230.32,-187.37 234.32,-187.37 234.32,-167.37 230.32,-167.37 230.32,-163.37 234.32,-163.37 234.32,-159.37 292.32,-159.37 292.32,-195.37"/>
            <polyline fill="none" stroke="black" points="234.32,-191.37 238.32,-191.37 238.32,-187.37 234.32,-187.37 "/>
            <polyline fill="none" stroke="black" points="234.32,-167.37 238.32,-167.37 238.32,-163.37 234.32,-163.37 "/>
            <text text-anchor="middle" x="263.32" y="-173.67" font-family="Times New Roman,serif" font-size="14.00">
                Service
            </text>
        </g>
        <!-- SPRING_CONTROLLER&#45;&gt;SPRING_SERVICE -->
        <g id="edge1" class="edge">
            <title>SPRING_CONTROLLER&#45;&gt;SPRING_SERVICE</title>
            <path fill="none" stroke="black" d="M373.16,-204.65C351.66,-199.31 324.49,-192.56 302.55,-187.11"/>
            <polygon fill="black" stroke="black" points="303.11,-183.64 292.56,-184.63 301.42,-190.44 303.11,-183.64"/>
            <text text-anchor="middle" x="334.35" y="-199.68" font-family="Times New Roman,serif" font-size="14.00">9
            </text>
        </g>
        <!-- mrs.application.service.auth.UserRepository -->
        <g id="node6" class="node">
            <title>mrs.application.service.auth.UserRepository</title>
            <ellipse fill="lightgrey" stroke="black" cx="315.46" cy="-240.28" rx="43.1" ry="18"/>
            <text text-anchor="middle" x="315.46" y="-238.08" font-family="Times New Roman,serif" font-size="9.00">
                UserRepository
            </text>
        </g>
        <!-- SPRING_CONTROLLER&#45;&gt;mrs.application.service.auth.UserRepository -->
        <g id="edge6" class="edge">
            <title>SPRING_CONTROLLER&#45;&gt;mrs.application.service.auth.UserRepository</title>
            <path fill="none" stroke="black" d="M373.01,-224.07C369.16,-225.15 365.22,-226.26 361.29,-227.37"/>
            <polygon fill="black" stroke="black" points="360.28,-224.02 351.61,-230.1 362.18,-230.75 360.28,-224.02"/>
        </g>
        <!-- mrs.infrastructure.security.jwt.AuthEntryPointJwt -->
        <g id="node3" class="node">
            <title>mrs.infrastructure.security.jwt.AuthEntryPointJwt</title>
            <polygon fill="lightgrey" stroke="black"
                     points="496.14,-138.3 374.14,-138.3 374.14,-102.3 496.14,-102.3 496.14,-138.3"/>
            <text text-anchor="middle" x="435.14" y="-116.6" font-family="Times New Roman,serif" font-size="14.00">
                AuthEntryPointJwt
            </text>
        </g>
        <!-- SPRING_SERVICE&#45;&gt;mrs.infrastructure.datasource.Message -->
        <g id="edge4" class="edge">
            <title>SPRING_SERVICE&#45;&gt;mrs.infrastructure.datasource.Message</title>
            <path fill="none" stroke="black" d="M267.95,-195.51C273.01,-215.33 281.17,-247.31 287.07,-270.39"/>
            <polygon fill="black" stroke="black" points="283.73,-271.47 289.6,-280.3 290.51,-269.74 283.73,-271.47"/>
            <text text-anchor="middle" x="274.01" y="-221.75" font-family="Times New Roman,serif" font-size="14.00">4
            </text>
        </g>
        <!-- SPRING_SERVICE&#45;&gt;mrs.application.service.auth.UserRepository -->
        <g id="edge8" class="edge">
            <title>SPRING_SERVICE&#45;&gt;mrs.application.service.auth.UserRepository</title>
            <path fill="none" stroke="black" d="M278.4,-195.57C283.48,-201.69 289.23,-208.63 294.67,-215.19"/>
            <polygon fill="black" stroke="black" points="292.23,-217.74 301.3,-223.2 297.62,-213.27 292.23,-217.74"/>
            <text text-anchor="middle" x="283.03" y="-209.18" font-family="Times New Roman,serif" font-size="14.00">2
            </text>
        </g>
        <!-- mrs.application.service.contact.ContactRepository -->
        <g id="node7" class="node">
            <title>mrs.application.service.contact.ContactRepository</title>
            <ellipse fill="lightgrey" stroke="black" cx="137.89" cy="-272.58" rx="49.8" ry="18"/>
            <text text-anchor="middle" x="137.89" y="-270.38" font-family="Times New Roman,serif" font-size="9.00">
                ContactRepository
            </text>
        </g>
        <!-- SPRING_SERVICE&#45;&gt;mrs.application.service.contact.ContactRepository -->
        <g id="edge14" class="edge">
            <title>SPRING_SERVICE&#45;&gt;mrs.application.service.contact.ContactRepository</title>
            <path fill="none" stroke="black" d="M239.43,-195.5C219.01,-211 189.54,-233.38 167.6,-250.03"/>
            <polygon fill="black" stroke="black" points="165.44,-247.28 159.59,-256.11 169.67,-252.85 165.44,-247.28"/>
            <text text-anchor="middle" x="200.02" y="-226.57" font-family="Times New Roman,serif" font-size="14.00">2
            </text>
        </g>
        <!-- mrs.application.service.facility.room.MeetingRoomRepository -->
        <g id="node8" class="node">
            <title>mrs.application.service.facility.room.MeetingRoomRepository</title>
            <ellipse fill="lightgrey" stroke="black" cx="306.8" cy="-17.83" rx="63.52" ry="18"/>
            <text text-anchor="middle" x="306.8" y="-15.63" font-family="Times New Roman,serif" font-size="9.00">
                MeetingRoomRepository
            </text>
        </g>
        <!-- SPRING_SERVICE&#45;&gt;mrs.application.service.facility.room.MeetingRoomRepository -->
        <g id="edge10" class="edge">
            <title>SPRING_SERVICE&#45;&gt;mrs.application.service.facility.room.MeetingRoomRepository</title>
            <path fill="none" stroke="black" d="M268.31,-159.07C275.88,-131.3 290.32,-78.31 299.2,-45.72"/>
            <polygon fill="black" stroke="black" points="302.62,-46.49 301.87,-35.92 295.86,-44.65 302.62,-46.49"/>
            <text text-anchor="middle" x="280.25" y="-106.2" font-family="Times New Roman,serif" font-size="14.00">2
            </text>
        </g>
        <!-- mrs.application.service.reservation.reservation.ReservationRepository -->
        <g id="node9" class="node">
            <title>mrs.application.service.reservation.reservation.ReservationRepository</title>
            <ellipse fill="lightgrey" stroke="black" cx="156.83" cy="-32.31" rx="58.13" ry="18"/>
            <text text-anchor="middle" x="156.83" y="-30.11" font-family="Times New Roman,serif" font-size="9.00">
                ReservationRepository
            </text>
        </g>
        <!-- SPRING_SERVICE&#45;&gt;mrs.application.service.reservation.reservation.ReservationRepository -->
        <g id="edge3" class="edge">
            <title>SPRING_SERVICE&#45;&gt;mrs.application.service.reservation.reservation.ReservationRepository</title>
            <path fill="none" stroke="black" d="M250.05,-159.29C231.37,-133.85 197.24,-87.36 175.86,-58.24"/>
            <polygon fill="black" stroke="black" points="178.67,-56.15 169.93,-50.16 173.03,-60.29 178.67,-56.15"/>
        </g>
        <!-- mrs.application.service.reservation.room.ReservableRoomRepository -->
        <g id="node10" class="node">
            <title>mrs.application.service.reservation.room.ReservableRoomRepository</title>
            <ellipse fill="lightgrey" stroke="black" cx="69.15" cy="-175.28" rx="68.91" ry="18"/>
            <text text-anchor="middle" x="69.15" y="-173.08" font-family="Times New Roman,serif" font-size="9.00">
                ReservableRoomRepository
            </text>
        </g>
        <!-- SPRING_SERVICE&#45;&gt;mrs.application.service.reservation.room.ReservableRoomRepository -->
        <g id="edge7" class="edge">
            <title>SPRING_SERVICE&#45;&gt;mrs.application.service.reservation.room.ReservableRoomRepository</title>
            <path fill="none" stroke="black" d="M234.25,-177.06C211.44,-176.81 178.56,-176.45 148.14,-176.13"/>
            <polygon fill="black" stroke="black" points="147.97,-172.62 137.94,-176.02 147.9,-179.62 147.97,-172.62"/>
            <text text-anchor="middle" x="187.7" y="-180.39" font-family="Times New Roman,serif" font-size="14.00">2
            </text>
        </g>
        <!-- SPRING_REPOSITORY -->
        <g id="node11" class="node">
            <title>SPRING_REPOSITORY</title>
            <polygon fill="#eedd82" stroke="black"
                     points="229.84,-148.81 150.84,-148.81 150.84,-144.81 146.84,-144.81 146.84,-140.81 150.84,-140.81 150.84,-120.81 146.84,-120.81 146.84,-116.81 150.84,-116.81 150.84,-112.81 229.84,-112.81 229.84,-148.81"/>
            <polyline fill="none" stroke="black" points="150.84,-144.81 154.84,-144.81 154.84,-140.81 150.84,-140.81 "/>
            <polyline fill="none" stroke="black" points="150.84,-120.81 154.84,-120.81 154.84,-116.81 150.84,-116.81 "/>
            <text text-anchor="middle" x="190.34" y="-127.11" font-family="Times New Roman,serif" font-size="14.00">
                Repository
            </text>
        </g>
        <!-- SPRING_REPOSITORY&#45;&gt;mrs.application.service.auth.UserRepository -->
        <g id="edge15" class="edge">
            <title>SPRING_REPOSITORY&#45;&gt;mrs.application.service.auth.UserRepository</title>
            <path fill="none" stroke="black" d="M211,-148.89C232.36,-167.57 265.77,-196.81 289.04,-217.17"/>
            <polygon fill="black" stroke="black" points="286.98,-220.01 296.81,-223.96 291.59,-214.75 286.98,-220.01"/>
        </g>
        <!-- SPRING_REPOSITORY&#45;&gt;mrs.application.service.contact.ContactRepository -->
        <g id="edge2" class="edge">
            <title>SPRING_REPOSITORY&#45;&gt;mrs.application.service.contact.ContactRepository</title>
            <path fill="none" stroke="black" d="M183.59,-149.05C174.62,-173.3 158.69,-216.37 148.2,-244.7"/>
            <polygon fill="black" stroke="black" points="144.8,-243.82 144.61,-254.41 151.36,-246.25 144.8,-243.82"/>
        </g>
        <!-- SPRING_REPOSITORY&#45;&gt;mrs.application.service.facility.room.MeetingRoomRepository -->
        <g id="edge13" class="edge">
            <title>SPRING_REPOSITORY&#45;&gt;mrs.application.service.facility.room.MeetingRoomRepository</title>
            <path fill="none" stroke="black" d="M209.05,-112.66C228.72,-93.57 259.78,-63.44 281.6,-42.28"/>
            <polygon fill="black" stroke="black" points="284.16,-44.67 288.9,-35.2 279.28,-39.65 284.16,-44.67"/>
        </g>
        <!-- SPRING_REPOSITORY&#45;&gt;mrs.application.service.reservation.reservation.ReservationRepository -->
        <g id="edge5" class="edge">
            <title>SPRING_REPOSITORY&#45;&gt;mrs.application.service.reservation.reservation.ReservationRepository
            </title>
            <path fill="none" stroke="black" d="M184.19,-112.74C179.18,-98.02 172.03,-77 166.29,-60.13"/>
            <polygon fill="black" stroke="black" points="169.47,-58.6 162.93,-50.26 162.84,-60.86 169.47,-58.6"/>
        </g>
        <!-- SPRING_REPOSITORY&#45;&gt;mrs.application.service.reservation.room.ReservableRoomRepository -->
        <g id="edge11" class="edge">
            <title>SPRING_REPOSITORY&#45;&gt;mrs.application.service.reservation.room.ReservableRoomRepository</title>
            <path fill="none" stroke="black" d="M150.66,-145.37C140.51,-149.09 129.47,-153.14 118.89,-157.03"/>
            <polygon fill="black" stroke="black" points="117.52,-153.8 109.34,-160.53 119.93,-160.37 117.52,-153.8"/>
        </g>
    </g>
</svg>
