<?xml version="1.0" encoding="UTF-8" standalone="no"?>
<!DOCTYPE svg PUBLIC "-//W3C//DTD SVG 1.1//EN"
        "http://www.w3.org/Graphics/SVG/1.1/DTD/svg11.dtd">
<!-- Generated by graphviz version 3.0.0 (20220226.1711)
 -->
<!-- Title: パッケージ関連図 Pages: 1 -->
<svg xmlns:xlink="http://www.w3.org/1999/xlink" width="557pt"
     height="434pt" viewBox="0.00 0.00 557.00 434.10" xmlns="http://www.w3.org/2000/svg">
    <g id="graph0" class="graph" transform="scale(1 1) rotate(0) translate(4 430.1)">
        <title>パッケージ関連図</title>
        <polygon fill="white" stroke="transparent" points="-4,4 -4,-430.1 553,-430.1 553,4 -4,4"/>
        <text text-anchor="middle" x="274.5" y="-7.8" font-family="Times New Roman,serif" font-size="14.00">パッケージ関連図
        </text>
        <g id="clust2" class="cluster">
            <title>cluster_mrs.domain.model.user</title>
            <polygon fill="lemonchiffon" stroke="#eedd82" stroke-width="2"
                     points="266,-305 266,-397 516,-397 516,-305 266,-305"/>
            <text text-anchor="middle" x="391" y="-381.8" font-family="Times New Roman,serif" font-size="14.00">利用者
            </text>
            <text text-anchor="middle" x="391" y="-366.8" font-family="Times New Roman,serif" font-size="14.00">user
            </text>
        </g>
        <g id="clust1" class="cluster">
            <title>cluster_mrs.domain.model.reservation</title>
            <polygon fill="lemonchiffon" stroke="#eedd82" stroke-width="2"
                     points="355,-31 355,-197 449,-197 449,-31 355,-31"/>
            <text text-anchor="middle" x="402" y="-181.8" font-family="Times New Roman,serif" font-size="14.00">予約
            </text>
            <text text-anchor="middle" x="402" y="-166.8" font-family="Times New Roman,serif" font-size="14.00">
                reservation
            </text>
        </g>
        <g id="clust3" class="cluster">
            <title>cluster_mrs.domain.model.facility</title>
            <polygon fill="lemonchiffon" stroke="#eedd82" stroke-width="2"
                     points="457,-105 457,-197 541,-197 541,-105 457,-105"/>
            <text text-anchor="middle" x="499" y="-181.8" font-family="Times New Roman,serif" font-size="14.00">施設
            </text>
            <text text-anchor="middle" x="499" y="-166.8" font-family="Times New Roman,serif" font-size="14.00">
                facility
            </text>
        </g>
        <g id="clust4" class="cluster">
            <title>cluster_mrs.domain.model.auth</title>
            <polygon fill="lemonchiffon" stroke="#eedd82" stroke-width="2"
                     points="280,-205 280,-297 383,-297 383,-205 280,-205"/>
            <text text-anchor="middle" x="331.5" y="-281.8" font-family="Times New Roman,serif" font-size="14.00">
                認証・認可
            </text>
            <text text-anchor="middle" x="331.5" y="-266.8" font-family="Times New Roman,serif" font-size="14.00">auth
            </text>
        </g>
        <!-- summary -->
        <g id="node1" class="node">
            <title>summary</title>
            <polygon fill="none" stroke="black" points="128,-351 0,-351 0,-313 134,-313 134,-345 128,-351"/>
            <polyline fill="none" stroke="black" points="128,-351 128,-345 "/>
            <polyline fill="none" stroke="black" points="134,-345 128,-345 "/>
            <text text-anchor="start" x="8" y="-335.8" font-family="Times New Roman,serif" font-size="14.00">パッケージ数: 8
            </text>
            <text text-anchor="start" x="8" y="-320.8" font-family="Times New Roman,serif" font-size="14.00">関連数: 16
            </text>
        </g>
        <!-- mrs.domain.model.user.member -->
        <g id="node2" class="node">
            <title>mrs.domain.model.user.member</title>
            <g id="a_node2">
                <a xlink:href="https://github.com/k2works/application_programing_excercise_2022/tree/take13/src/main/java/mrs/domain/model/user/member"
                   xlink:title="会員\nmember">
                    <polygon fill="#eedd82" stroke="black" points="422,-351 360,-351 360,-313 422,-313 422,-351"/>
                    <text text-anchor="middle" x="391" y="-335.8" font-family="Times New Roman,serif" font-size="14.00">
                        会員
                    </text>
                    <text text-anchor="middle" x="391" y="-320.8" font-family="Times New Roman,serif" font-size="14.00">
                        member
                    </text>
                </a>
            </g>
        </g>
        <!-- mrs.domain.model.auth.user -->
        <g id="node3" class="node">
            <title>mrs.domain.model.auth.user</title>
            <g id="a_node3">
                <a xlink:href="https://github.com/k2works/application_programing_excercise_2022/tree/take13/src/main/java/mrs/domain/model/auth/user"
                   xlink:title="利用者\nuser">
                    <polygon fill="#eedd82" stroke="black" points="374,-251 306,-251 306,-213 374,-213 374,-251"/>
                    <text text-anchor="middle" x="340" y="-235.8" font-family="Times New Roman,serif" font-size="14.00">
                        利用者
                    </text>
                    <text text-anchor="middle" x="340" y="-220.8" font-family="Times New Roman,serif" font-size="14.00">
                        user
                    </text>
                </a>
            </g>
        </g>
        <!-- mrs.domain.model.user.member&#45;&gt;mrs.domain.model.auth.user -->
        <g id="edge1" class="edge">
            <title>mrs.domain.model.user.member&#45;&gt;mrs.domain.model.auth.user</title>
            <path fill="none" stroke="black" d="M381.41,-312.57C373.74,-297.83 362.87,-276.95 354.19,-260.27"/>
            <polygon fill="black" stroke="black" points="357.1,-258.27 349.38,-251.02 350.89,-261.51 357.1,-258.27"/>
        </g>
        <!-- mrs.domain.model.reservation.reservation -->
        <g id="node4" class="node">
            <title>mrs.domain.model.reservation.reservation</title>
            <g id="a_node4">
                <a xlink:href="https://github.com/k2works/application_programing_excercise_2022/tree/take13/src/main/java/mrs/domain/model/reservation/reservation"
                   xlink:title="予約\nreservation">
                    <polygon fill="#eedd82" stroke="black"
                             points="440.5,-151 363.5,-151 363.5,-113 440.5,-113 440.5,-151"/>
                    <text text-anchor="middle" x="402" y="-135.8" font-family="Times New Roman,serif" font-size="14.00">
                        予約
                    </text>
                    <text text-anchor="middle" x="402" y="-120.8" font-family="Times New Roman,serif" font-size="14.00">
                        reservation
                    </text>
                </a>
            </g>
        </g>
        <!-- mrs.domain.model.user.member&#45;&gt;mrs.domain.model.reservation.reservation -->
        <g id="edge2" class="edge">
            <title>mrs.domain.model.user.member&#45;&gt;mrs.domain.model.reservation.reservation</title>
            <path fill="none" stroke="black" d="M392.02,-312.73C393.94,-278.1 398.13,-202.71 400.42,-161.43"/>
            <polygon fill="black" stroke="black" points="403.93,-161.41 400.99,-151.23 396.94,-161.02 403.93,-161.41"/>
        </g>
        <!-- mrs.domain.model.auth.user&#45;&gt;mrs.domain.model.reservation.reservation -->
        <g id="edge8" class="edge">
            <title>mrs.domain.model.auth.user&#45;&gt;mrs.domain.model.reservation.reservation</title>
            <path fill="none" stroke="red" stroke-width="2"
                  d="M357.26,-203.73C365.99,-189.92 376.55,-173.23 385.22,-159.53"/>
            <polygon fill="red" stroke="red" stroke-width="2"
                     points="354.05,-202.24 351.66,-212.57 359.97,-205.99 354.05,-202.24"/>
            <polygon fill="red" stroke="red" stroke-width="2"
                     points="388.21,-161.34 390.6,-151.02 382.3,-157.6 388.21,-161.34"/>
        </g>
        <!-- mrs.domain.model.reservation.room -->
        <g id="node9" class="node">
            <title>mrs.domain.model.reservation.room</title>
            <g id="a_node9">
                <a xlink:href="https://github.com/k2works/application_programing_excercise_2022/tree/take13/src/main/java/mrs/domain/model/reservation/room"
                   xlink:title="会議室\nroom">
                    <polygon fill="#eedd82" stroke="black" points="438,-77 370,-77 370,-39 438,-39 438,-77"/>
                    <text text-anchor="middle" x="404" y="-61.8" font-family="Times New Roman,serif" font-size="14.00">
                        会議室
                    </text>
                    <text text-anchor="middle" x="404" y="-46.8" font-family="Times New Roman,serif" font-size="14.00">
                        room
                    </text>
                </a>
            </g>
        </g>
        <!-- mrs.domain.model.reservation.reservation&#45;&gt;mrs.domain.model.reservation.room -->
        <g id="edge9" class="edge">
            <title>mrs.domain.model.reservation.reservation&#45;&gt;mrs.domain.model.reservation.room</title>
            <path fill="none" stroke="red" stroke-width="2"
                  d="M402.79,-102.57C402.93,-97.68 403.07,-92.59 403.2,-87.69"/>
            <polygon fill="red" stroke="red" stroke-width="2"
                     points="399.28,-102.74 402.5,-112.83 406.28,-102.93 399.28,-102.74"/>
            <polygon fill="red" stroke="red" stroke-width="2"
                     points="406.71,-87.51 403.49,-77.41 399.71,-87.31 406.71,-87.51"/>
        </g>
        <!-- mrs.domain.model.user.gust -->
        <g id="node5" class="node">
            <title>mrs.domain.model.user.gust</title>
            <g id="a_node5">
                <a xlink:href="https://github.com/k2works/application_programing_excercise_2022/tree/take13/src/main/java/mrs/domain/model/user/gust"
                   xlink:title="ゲスト\ngust">
                    <polygon fill="#eedd82" stroke="black" points="342,-351 274,-351 274,-313 342,-313 342,-351"/>
                    <text text-anchor="middle" x="308" y="-335.8" font-family="Times New Roman,serif" font-size="14.00">
                        ゲスト
                    </text>
                    <text text-anchor="middle" x="308" y="-320.8" font-family="Times New Roman,serif" font-size="14.00">
                        gust
                    </text>
                </a>
            </g>
        </g>
        <!-- mrs.domain.model.user.gust&#45;&gt;mrs.domain.model.auth.user -->
        <g id="edge3" class="edge">
            <title>mrs.domain.model.user.gust&#45;&gt;mrs.domain.model.auth.user</title>
            <path fill="none" stroke="black" d="M314.02,-312.57C318.79,-297.97 325.52,-277.34 330.94,-260.74"/>
            <polygon fill="black" stroke="black" points="334.34,-261.61 334.12,-251.02 327.68,-259.44 334.34,-261.61"/>
        </g>
        <!-- mrs.domain.model.contact -->
        <g id="node6" class="node">
            <title>mrs.domain.model.contact</title>
            <g id="a_node6">
                <a xlink:href="https://github.com/k2works/application_programing_excercise_2022/tree/take13/src/main/java/mrs/domain/model/contact"
                   xlink:title="問い合わせ\ncontact">
                    <polygon fill="#eedd82" stroke="black"
                             points="255.5,-351 152.5,-351 152.5,-313 255.5,-313 255.5,-351"/>
                    <text text-anchor="middle" x="204" y="-335.8" font-family="Times New Roman,serif" font-size="14.00">
                        問い合わせ
                    </text>
                    <text text-anchor="middle" x="204" y="-320.8" font-family="Times New Roman,serif" font-size="14.00">
                        contact
                    </text>
                </a>
            </g>
        </g>
        <!-- mrs.domain.model.user.gust&#45;&gt;mrs.domain.model.contact -->
        <g id="edge10" class="edge">
            <title>mrs.domain.model.user.gust&#45;&gt;mrs.domain.model.contact</title>
            <path fill="none" stroke="red" stroke-width="2" d="M266.22,-332C266.06,-332 265.89,-332 265.73,-332"/>
            <polygon fill="red" stroke="red" stroke-width="2"
                     points="263.61,-335.5 273.61,-332 263.61,-328.5 263.61,-335.5"/>
            <polygon fill="red" stroke="red" stroke-width="2"
                     points="265.59,-328.5 255.59,-332 265.59,-335.5 265.59,-328.5"/>
        </g>
        <!-- mrs.domain.model.contact&#45;&gt;mrs.domain.model.user.member -->
        <g id="edge11" class="edge">
            <title>mrs.domain.model.contact&#45;&gt;mrs.domain.model.user.member</title>
            <path fill="none" stroke="red" stroke-width="2"
                  d="M217.81,-359.79C229.14,-379.21 247.2,-403.63 271,-415 299.47,-428.61 314.6,-430.65 342,-415 362.29,-403.41 375.03,-379.77 382.41,-360.67"/>
            <polygon fill="red" stroke="red" stroke-width="2"
                     points="220.84,-358.05 212.93,-351.01 214.72,-361.45 220.84,-358.05"/>
            <polygon fill="red" stroke="red" stroke-width="2"
                     points="385.73,-361.78 385.8,-351.18 379.14,-359.42 385.73,-361.78"/>
        </g>
        <!-- mrs.domain.model.contact&#45;&gt;mrs.domain.model.auth.user -->
        <g id="edge4" class="edge">
            <title>mrs.domain.model.contact&#45;&gt;mrs.domain.model.auth.user</title>
            <path fill="none" stroke="black" d="M229.26,-312.8C251.02,-297.12 282.59,-274.37 306.46,-257.17"/>
            <polygon fill="black" stroke="black" points="308.81,-259.79 314.87,-251.11 304.71,-254.11 308.81,-259.79"/>
        </g>
        <!-- mrs.domain.model.user.staff -->
        <g id="node7" class="node">
            <title>mrs.domain.model.user.staff</title>
            <g id="a_node7">
                <a xlink:href="https://github.com/k2works/application_programing_excercise_2022/tree/take13/src/main/java/mrs/domain/model/user/staff"
                   xlink:title="管理者\nstaff">
                    <polygon fill="#eedd82" stroke="black" points="508,-351 440,-351 440,-313 508,-313 508,-351"/>
                    <text text-anchor="middle" x="474" y="-335.8" font-family="Times New Roman,serif" font-size="14.00">
                        管理者
                    </text>
                    <text text-anchor="middle" x="474" y="-320.8" font-family="Times New Roman,serif" font-size="14.00">
                        staff
                    </text>
                </a>
            </g>
        </g>
        <!-- mrs.domain.model.user.staff&#45;&gt;mrs.domain.model.auth.user -->
        <g id="edge5" class="edge">
            <title>mrs.domain.model.user.staff&#45;&gt;mrs.domain.model.auth.user</title>
            <path fill="none" stroke="black" d="M449.11,-312.8C427.67,-297.12 396.57,-274.37 373.05,-257.17"/>
            <polygon fill="black" stroke="black" points="374.89,-254.18 364.76,-251.11 370.76,-259.83 374.89,-254.18"/>
        </g>
        <!-- mrs.domain.model.user.staff&#45;&gt;mrs.domain.model.reservation.reservation -->
        <g id="edge6" class="edge">
            <title>mrs.domain.model.user.staff&#45;&gt;mrs.domain.model.reservation.reservation</title>
            <path fill="none" stroke="black" d="M467.36,-312.73C454.68,-277.88 427,-201.75 412.05,-160.64"/>
            <polygon fill="black" stroke="black" points="415.34,-159.43 408.63,-151.23 408.76,-161.82 415.34,-159.43"/>
        </g>
        <!-- mrs.domain.model.facility.room -->
        <g id="node8" class="node">
            <title>mrs.domain.model.facility.room</title>
            <g id="a_node8">
                <a xlink:href="https://github.com/k2works/application_programing_excercise_2022/tree/take13/src/main/java/mrs/domain/model/facility/room"
                   xlink:title="会議室\nroom">
                    <polygon fill="#eedd82" stroke="black" points="533,-151 465,-151 465,-113 533,-113 533,-151"/>
                    <text text-anchor="middle" x="499" y="-135.8" font-family="Times New Roman,serif" font-size="14.00">
                        会議室
                    </text>
                    <text text-anchor="middle" x="499" y="-120.8" font-family="Times New Roman,serif" font-size="14.00">
                        room
                    </text>
                </a>
            </g>
        </g>
        <!-- mrs.domain.model.facility.room&#45;&gt;mrs.domain.model.reservation.room -->
        <g id="edge7" class="edge">
            <title>mrs.domain.model.facility.room&#45;&gt;mrs.domain.model.reservation.room</title>
            <path fill="none" stroke="red" stroke-width="2" d="M466.94,-106.7C456.98,-99.15 446,-90.83 436.05,-83.29"/>
            <polygon fill="red" stroke="red" stroke-width="2"
                     points="464.94,-109.58 475.03,-112.83 469.17,-104 464.94,-109.58"/>
            <polygon fill="red" stroke="red" stroke-width="2"
                     points="438.05,-80.41 427.96,-77.16 433.82,-85.99 438.05,-80.41"/>
        </g>
    </g>
</svg>
