<?xml version="1.0" encoding="UTF-8" standalone="no"?>
<!DOCTYPE svg PUBLIC "-//W3C//DTD SVG 1.1//EN"
        "http://www.w3.org/Graphics/SVG/1.1/DTD/svg11.dtd">
<!-- Generated by graphviz version 3.0.0 (20220226.1711)
 -->
<!-- Title: パッケージ関連図 Pages: 1 -->
<svg xmlns:xlink="http://www.w3.org/1999/xlink" width="233pt"
     height="291pt" viewBox="0.00 0.00 232.50 291.00" xmlns="http://www.w3.org/2000/svg">
    <g id="graph0" class="graph" transform="scale(1 1) rotate(0) translate(4 287)">
        <title>パッケージ関連図</title>
        <polygon fill="white" stroke="transparent" points="-4,4 -4,-287 228.5,-287 228.5,4 -4,4"/>
        <text text-anchor="middle" x="112.25" y="-7.8" font-family="Times New Roman,serif" font-size="14.00">パッケージ関連図
        </text>
        <!-- summary -->
        <g id="node1" class="node">
            <title>summary</title>
            <polygon fill="none" stroke="black" points="128,-283 0,-283 0,-245 134,-245 134,-277 128,-283"/>
            <polyline fill="none" stroke="black" points="128,-283 128,-277 "/>
            <polyline fill="none" stroke="black" points="134,-277 128,-277 "/>
            <text text-anchor="start" x="8" y="-267.8" font-family="Times New Roman,serif" font-size="14.00">パッケージ数: 4
            </text>
            <text text-anchor="start" x="8" y="-252.8" font-family="Times New Roman,serif" font-size="14.00">関連数: 6
            </text>
        </g>
        <!-- mrs.domain.model.user -->
        <g id="node2" class="node">
            <title>mrs.domain.model.user</title>
            <g id="a_node2">
                <a xlink:href="https://github.com/k2works/application_programing_excercise_2022/tree/take13/src/main/java/mrs/domain/model/user"
                   xlink:title="利用者\nuser">
                    <polygon fill="#eedd82" stroke="black" points="220,-283 152,-283 152,-245 220,-245 220,-283"/>
                    <text text-anchor="middle" x="186" y="-267.8" font-family="Times New Roman,serif" font-size="14.00">
                        利用者
                    </text>
                    <text text-anchor="middle" x="186" y="-252.8" font-family="Times New Roman,serif" font-size="14.00">
                        user
                    </text>
                </a>
            </g>
        </g>
        <!-- mrs.domain.model.auth -->
        <g id="node3" class="node">
            <title>mrs.domain.model.auth</title>
            <g id="a_node3">
                <a xlink:href="https://github.com/k2works/application_programing_excercise_2022/tree/take13/src/main/java/mrs/domain/model/auth"
                   xlink:title="認証・認可\nauth">
                    <polygon fill="#eedd82" stroke="black"
                             points="197.5,-209 94.5,-209 94.5,-171 197.5,-171 197.5,-209"/>
                    <text text-anchor="middle" x="146" y="-193.8" font-family="Times New Roman,serif" font-size="14.00">
                        認証・認可
                    </text>
                    <text text-anchor="middle" x="146" y="-178.8" font-family="Times New Roman,serif" font-size="14.00">
                        auth
                    </text>
                </a>
            </g>
        </g>
        <!-- mrs.domain.model.user&#45;&gt;mrs.domain.model.auth -->
        <g id="edge1" class="edge">
            <title>mrs.domain.model.user&#45;&gt;mrs.domain.model.auth</title>
            <path fill="none" stroke="black" d="M175.91,-244.83C171.44,-236.79 166.09,-227.17 161.16,-218.29"/>
            <polygon fill="black" stroke="black" points="164.15,-216.46 156.23,-209.41 158.03,-219.85 164.15,-216.46"/>
        </g>
        <!-- mrs.domain.model.reservation -->
        <g id="node4" class="node">
            <title>mrs.domain.model.reservation</title>
            <g id="a_node4">
                <a xlink:href="https://github.com/k2works/application_programing_excercise_2022/tree/take13/src/main/java/mrs/domain/model/reservation"
                   xlink:title="予約\nreservation">
                    <polygon fill="#eedd82" stroke="black"
                             points="224.5,-135 147.5,-135 147.5,-97 224.5,-97 224.5,-135"/>
                    <text text-anchor="middle" x="186" y="-119.8" font-family="Times New Roman,serif" font-size="14.00">
                        予約
                    </text>
                    <text text-anchor="middle" x="186" y="-104.8" font-family="Times New Roman,serif" font-size="14.00">
                        reservation
                    </text>
                </a>
            </g>
        </g>
        <!-- mrs.domain.model.user&#45;&gt;mrs.domain.model.reservation -->
        <g id="edge2" class="edge">
            <title>mrs.domain.model.user&#45;&gt;mrs.domain.model.reservation</title>
            <path fill="none" stroke="black"
                  d="M194.52,-244.96C198.9,-234.67 203.78,-221.4 206,-209 208.98,-192.38 208.98,-187.62 206,-171 204.4,-162.09 201.43,-152.72 198.26,-144.34"/>
            <polygon fill="black" stroke="black" points="201.5,-143.01 194.52,-135.04 195,-145.62 201.5,-143.01"/>
        </g>
        <!-- mrs.domain.model.auth&#45;&gt;mrs.domain.model.reservation -->
        <g id="edge4" class="edge">
            <title>mrs.domain.model.auth&#45;&gt;mrs.domain.model.reservation</title>
            <path fill="none" stroke="red" stroke-width="2"
                  d="M161.01,-161.98C164.24,-156.16 167.66,-150.02 170.89,-144.2"/>
            <polygon fill="red" stroke="red" stroke-width="2"
                     points="157.89,-160.39 156.09,-170.83 164.01,-163.79 157.89,-160.39"/>
            <polygon fill="red" stroke="red" stroke-width="2"
                     points="173.97,-145.85 175.77,-135.41 167.85,-142.46 173.97,-145.85"/>
        </g>
        <!-- mrs.domain.model.facility -->
        <g id="node5" class="node">
            <title>mrs.domain.model.facility</title>
            <g id="a_node5">
                <a xlink:href="https://github.com/k2works/application_programing_excercise_2022/tree/take13/src/main/java/mrs/domain/model/facility"
                   xlink:title="施設\nfacility">
                    <polygon fill="#eedd82" stroke="black" points="213,-61 159,-61 159,-23 213,-23 213,-61"/>
                    <text text-anchor="middle" x="186" y="-45.8" font-family="Times New Roman,serif" font-size="14.00">
                        施設
                    </text>
                    <text text-anchor="middle" x="186" y="-30.8" font-family="Times New Roman,serif" font-size="14.00">
                        facility
                    </text>
                </a>
            </g>
        </g>
        <!-- mrs.domain.model.reservation&#45;&gt;mrs.domain.model.facility -->
        <g id="edge3" class="edge">
            <title>mrs.domain.model.reservation&#45;&gt;mrs.domain.model.facility</title>
            <path fill="none" stroke="red" stroke-width="2" d="M186,-86.57C186,-81.68 186,-76.59 186,-71.69"/>
            <polygon fill="red" stroke="red" stroke-width="2"
                     points="182.5,-86.83 186,-96.83 189.5,-86.83 182.5,-86.83"/>
            <polygon fill="red" stroke="red" stroke-width="2"
                     points="189.5,-71.41 186,-61.41 182.5,-71.41 189.5,-71.41"/>
        </g>
    </g>
</svg>
