<?xml version="1.0" encoding="UTF-8" standalone="no"?>
<!DOCTYPE svg PUBLIC "-//W3C//DTD SVG 1.1//EN"
 "http://www.w3.org/Graphics/SVG/1.1/DTD/svg11.dtd">
<!-- Generated by graphviz version 3.0.0 (20220226.1711)
 -->
<!-- Title: パッケージ関連図 Pages: 1 -->
<svg xmlns:xlink="http://www.w3.org/1999/xlink" width="550pt"
     height="434pt" viewBox="0.00 0.00 550.00 434.10" xmlns="http://www.w3.org/2000/svg">
    <g id="graph0" class="graph" transform="scale(1 1) rotate(0) translate(4 430.1)">
        <title>パッケージ関連図</title>
        <polygon fill="white" stroke="transparent" points="-4,4 -4,-430.1 546,-430.1 546,4 -4,4"/>
        <text text-anchor="middle" x="271" y="-7.8" font-family="Times New Roman,serif" font-size="14.00">パッケージ関連図
        </text>
        <g id="clust2" class="cluster">
            <title>cluster_mrs.domain.model.user</title>
            <polygon fill="lemonchiffon" stroke="#eedd82" stroke-width="2"
                     points="266,-305 266,-397 534,-397 534,-305 266,-305"/>
            <text text-anchor="middle" x="400" y="-381.8" font-family="Times New Roman,serif" font-size="14.00">利用者
            </text>
            <text text-anchor="middle" x="400" y="-366.8" font-family="Times New Roman,serif" font-size="14.00">user
            </text>
        </g>
        <g id="clust3" class="cluster">
            <title>cluster_mrs.domain.model.facility</title>
            <polygon fill="lemonchiffon" stroke="#eedd82" stroke-width="2"
                     points="448,-105 448,-197 532,-197 532,-105 448,-105"/>
            <text text-anchor="middle" x="490" y="-181.8" font-family="Times New Roman,serif" font-size="14.00">施設
            </text>
            <text text-anchor="middle" x="490" y="-166.8" font-family="Times New Roman,serif" font-size="14.00">
                facility
            </text>
        </g>
        <g id="clust1" class="cluster">
            <title>cluster_mrs.domain.model.reservation</title>
            <polygon fill="lemonchiffon" stroke="#eedd82" stroke-width="2"
                     points="346,-31 346,-197 440,-197 440,-31 346,-31"/>
            <text text-anchor="middle" x="393" y="-181.8" font-family="Times New Roman,serif" font-size="14.00">予約
            </text>
            <text text-anchor="middle" x="393" y="-166.8" font-family="Times New Roman,serif" font-size="14.00">
                reservation
            </text>
        </g>
        <g id="clust4" class="cluster">
            <title>cluster_mrs.domain.model.auth</title>
            <polygon fill="lemonchiffon" stroke="#eedd82" stroke-width="2"
                     points="271,-205 271,-297 374,-297 374,-205 271,-205"/>
            <text text-anchor="middle" x="322.5" y="-281.8" font-family="Times New Roman,serif" font-size="14.00">
                認証・認可
            </text>
            <text text-anchor="middle" x="322.5" y="-266.8" font-family="Times New Roman,serif" font-size="14.00">auth
            </text>
        </g>
        <!-- summary -->
        <g id="node1" class="node">
            <title>summary</title>
            <polygon fill="none" stroke="black" points="128,-351 0,-351 0,-313 134,-313 134,-345 128,-351"/>
            <polyline fill="none" stroke="black" points="128,-351 128,-345 "/>
            <polyline fill="none" stroke="black" points="134,-345 128,-345 "/>
            <text text-anchor="start" x="8" y="-335.8" font-family="Times New Roman,serif" font-size="14.00">パッケージ数:
                8
            </text>
            <text text-anchor="start" x="8" y="-320.8" font-family="Times New Roman,serif" font-size="14.00">関連数:
                16
            </text>
        </g>
        <!-- mrs.domain.model.user.member -->
        <g id="node2" class="node">
            <title>mrs.domain.model.user.member</title>
            <g id="a_node2">
                <a xlink:href="https://github.com/k2works/application_programing_excercise_2022/tree/take13/src/main/java/mrs/domain/model/user/member"
                   xlink:title="会員\nmember">
                    <polygon fill="#eedd82" stroke="black" points="422,-351 360,-351 360,-313 422,-313 422,-351"/>
                    <text text-anchor="middle" x="391" y="-335.8" font-family="Times New Roman,serif" font-size="14.00">
                        会員
                    </text>
                    <text text-anchor="middle" x="391" y="-320.8" font-family="Times New Roman,serif" font-size="14.00">
                        member
                    </text>
                </a>
            </g>
        </g>
        <!-- mrs.domain.model.auth.user -->
        <g id="node3" class="node">
            <title>mrs.domain.model.auth.user</title>
            <g id="a_node3">
                <a xlink:href="https://github.com/k2works/application_programing_excercise_2022/tree/take13/src/main/java/mrs/domain/model/auth/user"
                   xlink:title="利用者\nuser">
                    <polygon fill="#eedd82" stroke="black" points="365,-251 297,-251 297,-213 365,-213 365,-251"/>
                    <text text-anchor="middle" x="331" y="-235.8" font-family="Times New Roman,serif" font-size="14.00">
                        利用者
                    </text>
                    <text text-anchor="middle" x="331" y="-220.8" font-family="Times New Roman,serif" font-size="14.00">
                        user
                    </text>
                </a>
            </g>
        </g>
<!-- mrs.domain.model.user.member&#45;&gt;mrs.domain.model.auth.user -->
        <g id="edge1" class="edge">
            <title>mrs.domain.model.user.member&#45;&gt;mrs.domain.model.auth.user</title>
            <path fill="none" stroke="black" d="M379.71,-312.57C370.61,-297.69 357.67,-276.55 347.41,-259.81"/>
            <polygon fill="black" stroke="black" points="350.24,-257.72 342.03,-251.02 344.27,-261.38 350.24,-257.72"/>
        </g>
<!-- mrs.domain.model.reservation.reservation -->
<g id="node4" class="node">
<title>mrs.domain.model.reservation.reservation</title>
    <g id="a_node4">
        <a xlink:href="https://github.com/k2works/application_programing_excercise_2022/tree/take13/src/main/java/mrs/domain/model/reservation/reservation"
           xlink:title="予約\nreservation">
            <polygon fill="#eedd82" stroke="black" points="431.5,-151 354.5,-151 354.5,-113 431.5,-113 431.5,-151"/>
            <text text-anchor="middle" x="393" y="-135.8" font-family="Times New Roman,serif" font-size="14.00">予約
            </text>
            <text text-anchor="middle" x="393" y="-120.8" font-family="Times New Roman,serif" font-size="14.00">
                reservation
            </text>
        </a>
    </g>
</g>
<!-- mrs.domain.model.user.member&#45;&gt;mrs.domain.model.reservation.reservation -->
        <g id="edge2" class="edge">
            <title>mrs.domain.model.user.member&#45;&gt;mrs.domain.model.reservation.reservation</title>
            <path fill="none" stroke="black" d="M391.18,-312.73C391.53,-278.1 392.3,-202.71 392.71,-161.43"/>
            <polygon fill="black" stroke="black" points="396.21,-161.26 392.82,-151.23 389.21,-161.19 396.21,-161.26"/>
        </g>
<!-- mrs.domain.model.auth.user&#45;&gt;mrs.domain.model.reservation.reservation -->
        <g id="edge8" class="edge">
            <title>mrs.domain.model.auth.user&#45;&gt;mrs.domain.model.reservation.reservation</title>
            <path fill="none" stroke="red" stroke-width="2"
                  d="M348.26,-203.73C356.99,-189.92 367.55,-173.23 376.22,-159.53"/>
            <polygon fill="red" stroke="red" stroke-width="2"
                     points="345.05,-202.24 342.66,-212.57 350.97,-205.99 345.05,-202.24"/>
            <polygon fill="red" stroke="red" stroke-width="2"
                     points="379.21,-161.34 381.6,-151.02 373.3,-157.6 379.21,-161.34"/>
        </g>
<!-- mrs.domain.model.reservation.room -->
<g id="node9" class="node">
<title>mrs.domain.model.reservation.room</title>
    <g id="a_node9">
        <a xlink:href="https://github.com/k2works/application_programing_excercise_2022/tree/take13/src/main/java/mrs/domain/model/reservation/room"
           xlink:title="会議室\nroom">
            <polygon fill="#eedd82" stroke="black" points="429,-77 361,-77 361,-39 429,-39 429,-77"/>
            <text text-anchor="middle" x="395" y="-61.8" font-family="Times New Roman,serif" font-size="14.00">会議室
            </text>
            <text text-anchor="middle" x="395" y="-46.8" font-family="Times New Roman,serif" font-size="14.00">room
            </text>
        </a>
    </g>
</g>
<!-- mrs.domain.model.reservation.reservation&#45;&gt;mrs.domain.model.reservation.room -->
        <g id="edge9" class="edge">
            <title>mrs.domain.model.reservation.reservation&#45;&gt;mrs.domain.model.reservation.room</title>
            <path fill="none" stroke="red" stroke-width="2"
                  d="M393.79,-102.57C393.93,-97.68 394.07,-92.59 394.2,-87.69"/>
            <polygon fill="red" stroke="red" stroke-width="2"
                     points="390.28,-102.74 393.5,-112.83 397.28,-102.93 390.28,-102.74"/>
            <polygon fill="red" stroke="red" stroke-width="2"
                     points="397.71,-87.51 394.49,-77.41 390.71,-87.31 397.71,-87.51"/>
        </g>
<!-- mrs.domain.model.user.gust -->
<g id="node5" class="node">
<title>mrs.domain.model.user.gust</title>
    <g id="a_node5">
        <a xlink:href="https://github.com/k2works/application_programing_excercise_2022/tree/take13/src/main/java/mrs/domain/model/user/gust"
           xlink:title="ゲスト\ngust">
            <polygon fill="#eedd82" stroke="black" points="342,-351 274,-351 274,-313 342,-313 342,-351"/>
            <text text-anchor="middle" x="308" y="-335.8" font-family="Times New Roman,serif" font-size="14.00">ゲスト
            </text>
            <text text-anchor="middle" x="308" y="-320.8" font-family="Times New Roman,serif" font-size="14.00">gust
            </text>
        </a>
    </g>
</g>
<!-- mrs.domain.model.user.gust&#45;&gt;mrs.domain.model.auth.user -->
        <g id="edge3" class="edge">
            <title>mrs.domain.model.user.gust&#45;&gt;mrs.domain.model.auth.user</title>
            <path fill="none" stroke="black" d="M312.33,-312.57C315.72,-298.1 320.5,-277.72 324.38,-261.21"/>
            <polygon fill="black" stroke="black" points="327.89,-261.55 326.77,-251.02 321.08,-259.96 327.89,-261.55"/>
        </g>
<!-- mrs.domain.model.contact -->
<g id="node6" class="node">
<title>mrs.domain.model.contact</title>
    <g id="a_node6">
        <a xlink:href="https://github.com/k2works/application_programing_excercise_2022/tree/take13/src/main/java/mrs/domain/model/contact"
           xlink:title="問い合わせ\ncontact">
            <polygon fill="#eedd82" stroke="black" points="255.5,-351 152.5,-351 152.5,-313 255.5,-313 255.5,-351"/>
            <text text-anchor="middle" x="204" y="-335.8" font-family="Times New Roman,serif" font-size="14.00">
                問い合わせ
            </text>
            <text text-anchor="middle" x="204" y="-320.8" font-family="Times New Roman,serif" font-size="14.00">
                contact
            </text>
        </a>
    </g>
</g>
<!-- mrs.domain.model.user.gust&#45;&gt;mrs.domain.model.contact -->
        <g id="edge10" class="edge">
            <title>mrs.domain.model.user.gust&#45;&gt;mrs.domain.model.contact</title>
            <path fill="none" stroke="red" stroke-width="2" d="M266.22,-332C266.06,-332 265.89,-332 265.73,-332"/>
            <polygon fill="red" stroke="red" stroke-width="2"
                     points="263.61,-335.5 273.61,-332 263.61,-328.5 263.61,-335.5"/>
            <polygon fill="red" stroke="red" stroke-width="2"
                     points="265.59,-328.5 255.59,-332 265.59,-335.5 265.59,-328.5"/>
        </g>
<!-- mrs.domain.model.contact&#45;&gt;mrs.domain.model.user.member -->
        <g id="edge11" class="edge">
            <title>mrs.domain.model.contact&#45;&gt;mrs.domain.model.user.member</title>
            <path fill="none" stroke="red" stroke-width="2"
                  d="M217.81,-359.79C229.14,-379.21 247.2,-403.63 271,-415 299.47,-428.61 314.6,-430.65 342,-415 362.29,-403.41 375.03,-379.77 382.41,-360.67"/>
            <polygon fill="red" stroke="red" stroke-width="2"
                     points="220.84,-358.05 212.93,-351.01 214.72,-361.45 220.84,-358.05"/>
            <polygon fill="red" stroke="red" stroke-width="2"
                     points="385.73,-361.78 385.8,-351.18 379.14,-359.42 385.73,-361.78"/>
        </g>
<!-- mrs.domain.model.contact&#45;&gt;mrs.domain.model.auth.user -->
        <g id="edge4" class="edge">
            <title>mrs.domain.model.contact&#45;&gt;mrs.domain.model.auth.user</title>
            <path fill="none" stroke="black" d="M227.59,-312.8C247.82,-297.19 277.13,-274.57 299.39,-257.4"/>
            <polygon fill="black" stroke="black" points="301.76,-259.99 307.54,-251.11 297.48,-254.44 301.76,-259.99"/>
        </g>
<!-- mrs.domain.model.user.staff -->
<g id="node7" class="node">
<title>mrs.domain.model.user.staff</title>
    <g id="a_node7">
        <a xlink:href="https://github.com/k2works/application_programing_excercise_2022/tree/take13/src/main/java/mrs/domain/model/user/staff"
           xlink:title="スタッフ\nstaff">
            <polygon fill="#eedd82" stroke="black" points="526,-351 440,-351 440,-313 526,-313 526,-351"/>
            <text text-anchor="middle" x="483" y="-335.8" font-family="Times New Roman,serif" font-size="14.00">スタッフ
            </text>
            <text text-anchor="middle" x="483" y="-320.8" font-family="Times New Roman,serif" font-size="14.00">staff
            </text>
        </a>
    </g>
</g>
<!-- mrs.domain.model.user.staff&#45;&gt;mrs.domain.model.auth.user -->
        <g id="edge5" class="edge">
            <title>mrs.domain.model.user.staff&#45;&gt;mrs.domain.model.auth.user</title>
            <path fill="none" stroke="black" d="M454.77,-312.8C430.24,-296.98 394.55,-273.97 367.79,-256.72"/>
            <polygon fill="black" stroke="black" points="369.38,-253.58 359.08,-251.11 365.59,-259.47 369.38,-253.58"/>
        </g>
<!-- mrs.domain.model.user.staff&#45;&gt;mrs.domain.model.reservation.reservation -->
        <g id="edge6" class="edge">
            <title>mrs.domain.model.user.staff&#45;&gt;mrs.domain.model.reservation.reservation</title>
            <path fill="none" stroke="black" d="M474.69,-312.73C458.82,-277.81 424.1,-201.42 405.44,-160.38"/>
            <polygon fill="black" stroke="black" points="408.61,-158.88 401.29,-151.23 402.24,-161.78 408.61,-158.88"/>
        </g>
<!-- mrs.domain.model.facility.room -->
<g id="node8" class="node">
<title>mrs.domain.model.facility.room</title>
    <g id="a_node8">
        <a xlink:href="https://github.com/k2works/application_programing_excercise_2022/tree/take13/src/main/java/mrs/domain/model/facility/room"
           xlink:title="会議室\nroom">
            <polygon fill="#eedd82" stroke="black" points="524,-151 456,-151 456,-113 524,-113 524,-151"/>
            <text text-anchor="middle" x="490" y="-135.8" font-family="Times New Roman,serif" font-size="14.00">会議室
            </text>
            <text text-anchor="middle" x="490" y="-120.8" font-family="Times New Roman,serif" font-size="14.00">room
            </text>
        </a>
    </g>
</g>
<!-- mrs.domain.model.facility.room&#45;&gt;mrs.domain.model.reservation.room -->
        <g id="edge7" class="edge">
            <title>mrs.domain.model.facility.room&#45;&gt;mrs.domain.model.reservation.room</title>
            <path fill="none" stroke="red" stroke-width="2" d="M457.94,-106.7C447.98,-99.15 437,-90.83 427.05,-83.29"/>
            <polygon fill="red" stroke="red" stroke-width="2"
                     points="455.94,-109.58 466.03,-112.83 460.17,-104 455.94,-109.58"/>
            <polygon fill="red" stroke="red" stroke-width="2"
                     points="429.05,-80.41 418.96,-77.16 424.82,-85.99 429.05,-80.41"/>
        </g>
</g>
</svg>
