<?xml version="1.0" encoding="UTF-8" standalone="no"?>
<!DOCTYPE svg PUBLIC "-//W3C//DTD SVG 1.1//EN"
 "http://www.w3.org/Graphics/SVG/1.1/DTD/svg11.dtd">
<!-- Generated by graphviz version 2.47.3 (20210619.1520)
 -->
<!-- Title: パッケージ関連図 Pages: 1 -->
<svg width="503pt" height="433pt"
 viewBox="0.00 0.00 502.50 432.80" xmlns="http://www.w3.org/2000/svg" xmlns:xlink="http://www.w3.org/1999/xlink">
<g id="graph0" class="graph" transform="scale(1 1) rotate(0) translate(4 428.8)">
<title>パッケージ関連図</title>
<polygon fill="white" stroke="transparent" points="-4,4 -4,-428.8 498.5,-428.8 498.5,4 -4,4"/>
<text text-anchor="middle" x="247.25" y="-7.8" font-family="Times,serif" font-size="14.00">パッケージ関連図</text>
<g id="clust1" class="cluster">
<title>cluster_mrs.domain.model.reservation</title>
<polygon fill="lemonchiffon" stroke="#eedd82" stroke-width="2" points="308.5,-31 308.5,-197 404.5,-197 404.5,-31 308.5,-31"/>
<text text-anchor="middle" x="356.5" y="-181.8" font-family="Times,serif" font-size="14.00">予約</text>
<text text-anchor="middle" x="356.5" y="-166.8" font-family="Times,serif" font-size="14.00">reservation</text>
</g>
<g id="clust2" class="cluster">
<title>cluster_mrs.domain.model.user</title>
<polygon fill="lemonchiffon" stroke="#eedd82" stroke-width="2" points="229.5,-305 229.5,-397 473.5,-397 473.5,-305 229.5,-305"/>
<text text-anchor="middle" x="351.5" y="-381.8" font-family="Times,serif" font-size="14.00">利用者</text>
<text text-anchor="middle" x="351.5" y="-366.8" font-family="Times,serif" font-size="14.00">user</text>
</g>
<g id="clust3" class="cluster">
<title>cluster_mrs.domain.model.facility</title>
<polygon fill="lemonchiffon" stroke="#eedd82" stroke-width="2" points="412.5,-105 412.5,-197 486.5,-197 486.5,-105 412.5,-105"/>
<text text-anchor="middle" x="449.5" y="-181.8" font-family="Times,serif" font-size="14.00">施設</text>
<text text-anchor="middle" x="449.5" y="-166.8" font-family="Times,serif" font-size="14.00">facility</text>
</g>
<g id="clust4" class="cluster">
<title>cluster_mrs.domain.model.auth</title>
<polygon fill="lemonchiffon" stroke="#eedd82" stroke-width="2" points="251.5,-205 251.5,-297 337.5,-297 337.5,-205 251.5,-205"/>
<text text-anchor="middle" x="294.5" y="-281.8" font-family="Times,serif" font-size="14.00">認証・認可</text>
<text text-anchor="middle" x="294.5" y="-266.8" font-family="Times,serif" font-size="14.00">auth</text>
</g>
<!-- summary -->
<g id="node1" class="node">
<title>summary</title>
<polygon fill="none" stroke="black" points="109,-351 0,-351 0,-313 115,-313 115,-345 109,-351"/>
<polyline fill="none" stroke="black" points="109,-351 109,-345 "/>
<polyline fill="none" stroke="black" points="115,-345 109,-345 "/>
<text text-anchor="start" x="8" y="-335.8" font-family="Times,serif" font-size="14.00">パッケージ数: 8</text>
<text text-anchor="start" x="8" y="-320.8" font-family="Times,serif" font-size="14.00">関連数: 16</text>
</g>
<!-- mrs.domain.model.user.member -->
<g id="node2" class="node">
<title>mrs.domain.model.user.member</title>
<g id="a_node2"><a xlink:href="https://github.com/k2works/application_programing_excercise_2022/tree/take13/src/main/java/mrs/domain/model/user/member" xlink:title="会員\nmember">
<polygon fill="#eedd82" stroke="black" points="375.5,-351 313.5,-351 313.5,-313 375.5,-313 375.5,-351"/>
<text text-anchor="middle" x="344.5" y="-335.8" font-family="Times,serif" font-size="14.00">会員</text>
<text text-anchor="middle" x="344.5" y="-320.8" font-family="Times,serif" font-size="14.00">member</text>
</a>
</g>
</g>
<!-- mrs.domain.model.auth.user -->
<g id="node3" class="node">
<title>mrs.domain.model.auth.user</title>
<g id="a_node3"><a xlink:href="https://github.com/k2works/application_programing_excercise_2022/tree/take13/src/main/java/mrs/domain/model/auth/user" xlink:title="利用者\nuser">
<polygon fill="#eedd82" stroke="black" points="328.5,-251 270.5,-251 270.5,-213 328.5,-213 328.5,-251"/>
<text text-anchor="middle" x="299.5" y="-235.8" font-family="Times,serif" font-size="14.00">利用者</text>
<text text-anchor="middle" x="299.5" y="-220.8" font-family="Times,serif" font-size="14.00">user</text>
</a>
</g>
</g>
<!-- mrs.domain.model.user.member&#45;&gt;mrs.domain.model.auth.user -->
<g id="edge1" class="edge">
<title>mrs.domain.model.user.member&#45;&gt;mrs.domain.model.auth.user</title>
<path fill="none" stroke="black" d="M336.04,-312.57C329.27,-297.83 319.68,-276.95 312.02,-260.27"/>
<polygon fill="black" stroke="black" points="315.13,-258.65 307.77,-251.02 308.77,-261.57 315.13,-258.65"/>
</g>
<!-- mrs.domain.model.reservation.reservation -->
<g id="node4" class="node">
<title>mrs.domain.model.reservation.reservation</title>
<g id="a_node4"><a xlink:href="https://github.com/k2works/application_programing_excercise_2022/tree/take13/src/main/java/mrs/domain/model/reservation/reservation" xlink:title="予約\nreservation">
<polygon fill="#eedd82" stroke="black" points="396,-151 317,-151 317,-113 396,-113 396,-151"/>
<text text-anchor="middle" x="356.5" y="-135.8" font-family="Times,serif" font-size="14.00">予約</text>
<text text-anchor="middle" x="356.5" y="-120.8" font-family="Times,serif" font-size="14.00">reservation</text>
</a>
</g>
</g>
<!-- mrs.domain.model.user.member&#45;&gt;mrs.domain.model.reservation.reservation -->
<g id="edge2" class="edge">
<title>mrs.domain.model.user.member&#45;&gt;mrs.domain.model.reservation.reservation</title>
<path fill="none" stroke="black" d="M345.61,-312.73C347.71,-278.1 352.28,-202.71 354.78,-161.43"/>
<polygon fill="black" stroke="black" points="358.28,-161.42 355.4,-151.23 351.3,-161 358.28,-161.42"/>
</g>
<!-- mrs.domain.model.auth.user&#45;&gt;mrs.domain.model.reservation.reservation -->
<g id="edge8" class="edge">
<title>mrs.domain.model.auth.user&#45;&gt;mrs.domain.model.reservation.reservation</title>
<path fill="none" stroke="red" stroke-width="2" d="M315.36,-203.73C323.32,-190.05 332.92,-173.55 340.84,-159.92"/>
<polygon fill="red" stroke="red" stroke-width="2" points="312.22,-202.16 310.22,-212.57 318.27,-205.68 312.22,-202.16"/>
<polygon fill="red" stroke="red" stroke-width="2" points="344.02,-161.42 346.02,-151.02 337.97,-157.9 344.02,-161.42"/>
</g>
<!-- mrs.domain.model.reservation.room -->
<g id="node9" class="node">
<title>mrs.domain.model.reservation.room</title>
<g id="a_node9"><a xlink:href="https://github.com/k2works/application_programing_excercise_2022/tree/take13/src/main/java/mrs/domain/model/reservation/room" xlink:title="会議室\nroom">
<polygon fill="#eedd82" stroke="black" points="390.5,-77 332.5,-77 332.5,-39 390.5,-39 390.5,-77"/>
<text text-anchor="middle" x="361.5" y="-61.8" font-family="Times,serif" font-size="14.00">会議室</text>
<text text-anchor="middle" x="361.5" y="-46.8" font-family="Times,serif" font-size="14.00">room</text>
</a>
</g>
</g>
<!-- mrs.domain.model.reservation.reservation&#45;&gt;mrs.domain.model.reservation.room -->
<g id="edge9" class="edge">
<title>mrs.domain.model.reservation.reservation&#45;&gt;mrs.domain.model.reservation.room</title>
<path fill="none" stroke="red" stroke-width="2" d="M358.45,-102.85C358.81,-97.78 359.17,-92.49 359.53,-87.41"/>
<polygon fill="red" stroke="red" stroke-width="2" points="354.96,-102.61 357.76,-112.83 361.95,-103.1 354.96,-102.61"/>
<polygon fill="red" stroke="red" stroke-width="2" points="363.02,-87.63 360.22,-77.41 356.04,-87.15 363.02,-87.63"/>
</g>
<!-- mrs.domain.model.user.gust -->
<g id="node5" class="node">
<title>mrs.domain.model.user.gust</title>
<g id="a_node5"><a xlink:href="https://github.com/k2works/application_programing_excercise_2022/tree/take13/src/main/java/mrs/domain/model/user/gust" xlink:title="ゲスト\ngust">
<polygon fill="#eedd82" stroke="black" points="295.5,-351 237.5,-351 237.5,-313 295.5,-313 295.5,-351"/>
<text text-anchor="middle" x="266.5" y="-335.8" font-family="Times,serif" font-size="14.00">ゲスト</text>
<text text-anchor="middle" x="266.5" y="-320.8" font-family="Times,serif" font-size="14.00">gust</text>
</a>
</g>
</g>
<!-- mrs.domain.model.user.gust&#45;&gt;mrs.domain.model.auth.user -->
<g id="edge3" class="edge">
<title>mrs.domain.model.user.gust&#45;&gt;mrs.domain.model.auth.user</title>
<path fill="none" stroke="black" d="M272.71,-312.57C277.62,-297.97 284.57,-277.34 290.16,-260.74"/>
<polygon fill="black" stroke="black" points="293.56,-261.61 293.43,-251.02 286.92,-259.38 293.56,-261.61"/>
</g>
<!-- mrs.domain.model.contact -->
<g id="node6" class="node">
<title>mrs.domain.model.contact</title>
<g id="a_node6"><a xlink:href="https://github.com/k2works/application_programing_excercise_2022/tree/take13/src/main/java/mrs/domain/model/contact" xlink:title="問い合わせ\ncontact">
<polygon fill="#eedd82" stroke="black" points="219.5,-351 133.5,-351 133.5,-313 219.5,-313 219.5,-351"/>
<text text-anchor="middle" x="176.5" y="-335.8" font-family="Times,serif" font-size="14.00">問い合わせ</text>
<text text-anchor="middle" x="176.5" y="-320.8" font-family="Times,serif" font-size="14.00">contact</text>
</a>
</g>
</g>
<!-- mrs.domain.model.user.gust&#45;&gt;mrs.domain.model.contact -->
<g id="edge10" class="edge">
<title>mrs.domain.model.user.gust&#45;&gt;mrs.domain.model.contact</title>
<path fill="none" stroke="red" stroke-width="2" d="M230.34,-332C230.19,-332 230.03,-332 229.88,-332"/>
<polygon fill="red" stroke="red" stroke-width="2" points="227.28,-335.5 237.28,-332 227.28,-328.5 227.28,-335.5"/>
<polygon fill="red" stroke="red" stroke-width="2" points="229.74,-328.5 219.74,-332 229.74,-335.5 229.74,-328.5"/>
</g>
<!-- mrs.domain.model.contact&#45;&gt;mrs.domain.model.user.member -->
<g id="edge11" class="edge">
<title>mrs.domain.model.contact&#45;&gt;mrs.domain.model.user.member</title>
<path fill="none" stroke="red" stroke-width="2" d="M187.93,-360.55C197.31,-379.77 212.63,-403.6 234.5,-415 258.54,-427.53 271.96,-428.44 295.5,-415 315.79,-403.41 328.53,-379.77 335.91,-360.67"/>
<polygon fill="red" stroke="red" stroke-width="2" points="191.03,-358.92 183.68,-351.29 184.67,-361.84 191.03,-358.92"/>
<polygon fill="red" stroke="red" stroke-width="2" points="339.23,-361.78 339.3,-351.18 332.64,-359.42 339.23,-361.78"/>
</g>
<!-- mrs.domain.model.contact&#45;&gt;mrs.domain.model.auth.user -->
<g id="edge4" class="edge">
<title>mrs.domain.model.contact&#45;&gt;mrs.domain.model.auth.user</title>
<path fill="none" stroke="black" d="M199.35,-312.8C218.94,-297.19 247.33,-274.57 268.88,-257.4"/>
<polygon fill="black" stroke="black" points="271.14,-260.07 276.78,-251.11 266.77,-254.6 271.14,-260.07"/>
</g>
<!-- mrs.domain.model.user.staff -->
<g id="node7" class="node">
<title>mrs.domain.model.user.staff</title>
<g id="a_node7"><a xlink:href="https://github.com/k2works/application_programing_excercise_2022/tree/take13/src/main/java/mrs/domain/model/user/staff" xlink:title="スタッフ\nstaff">
<polygon fill="#eedd82" stroke="black" points="465.5,-351 393.5,-351 393.5,-313 465.5,-313 465.5,-351"/>
<text text-anchor="middle" x="429.5" y="-335.8" font-family="Times,serif" font-size="14.00">スタッフ</text>
<text text-anchor="middle" x="429.5" y="-320.8" font-family="Times,serif" font-size="14.00">staff</text>
</a>
</g>
</g>
<!-- mrs.domain.model.user.staff&#45;&gt;mrs.domain.model.auth.user -->
<g id="edge5" class="edge">
<title>mrs.domain.model.user.staff&#45;&gt;mrs.domain.model.auth.user</title>
<path fill="none" stroke="black" d="M405.35,-312.8C384.56,-297.12 354.38,-274.37 331.56,-257.17"/>
<polygon fill="black" stroke="black" points="333.61,-254.33 323.52,-251.11 329.4,-259.92 333.61,-254.33"/>
</g>
<!-- mrs.domain.model.user.staff&#45;&gt;mrs.domain.model.reservation.reservation -->
<g id="edge6" class="edge">
<title>mrs.domain.model.user.staff&#45;&gt;mrs.domain.model.reservation.reservation</title>
<path fill="none" stroke="black" d="M422.76,-312.73C409.92,-277.88 381.85,-201.75 366.69,-160.64"/>
<polygon fill="black" stroke="black" points="369.96,-159.4 363.22,-151.23 363.4,-161.82 369.96,-159.4"/>
</g>
<!-- mrs.domain.model.facility.room -->
<g id="node8" class="node">
<title>mrs.domain.model.facility.room</title>
<g id="a_node8"><a xlink:href="https://github.com/k2works/application_programing_excercise_2022/tree/take13/src/main/java/mrs/domain/model/facility/room" xlink:title="会議室\nroom">
<polygon fill="#eedd82" stroke="black" points="478.5,-151 420.5,-151 420.5,-113 478.5,-113 478.5,-151"/>
<text text-anchor="middle" x="449.5" y="-135.8" font-family="Times,serif" font-size="14.00">会議室</text>
<text text-anchor="middle" x="449.5" y="-120.8" font-family="Times,serif" font-size="14.00">room</text>
</a>
</g>
</g>
<!-- mrs.domain.model.facility.room&#45;&gt;mrs.domain.model.reservation.room -->
<g id="edge7" class="edge">
<title>mrs.domain.model.facility.room&#45;&gt;mrs.domain.model.reservation.room</title>
<path fill="none" stroke="red" stroke-width="2" d="M419.46,-106.42C410.48,-99.08 400.64,-91.03 391.66,-83.68"/>
<polygon fill="red" stroke="red" stroke-width="2" points="417.34,-109.21 427.29,-112.83 421.77,-103.79 417.34,-109.21"/>
<polygon fill="red" stroke="red" stroke-width="2" points="393.65,-80.79 383.7,-77.16 389.22,-86.2 393.65,-80.79"/>
</g>
</g>
</svg>
