<?xml version="1.0" encoding="UTF-8" standalone="no"?>
<!DOCTYPE svg PUBLIC "-//W3C//DTD SVG 1.1//EN"
 "http://www.w3.org/Graphics/SVG/1.1/DTD/svg11.dtd">
<!-- Generated by graphviz version 2.47.3 (20210619.1520)
 -->
<!-- Title: パッケージ関連図 Pages: 1 -->
<svg width="242pt" height="365pt"
 viewBox="0.00 0.00 241.50 365.00" xmlns="http://www.w3.org/2000/svg" xmlns:xlink="http://www.w3.org/1999/xlink">
<g id="graph0" class="graph" transform="scale(1 1) rotate(0) translate(4 361)">
<title>パッケージ関連図</title>
<polygon fill="white" stroke="transparent" points="-4,4 -4,-361 237.5,-361 237.5,4 -4,4"/>
<text text-anchor="middle" x="116.75" y="-7.8" font-family="Times,serif" font-size="14.00">パッケージ関連図</text>
<!-- summary -->
<g id="node1" class="node">
<title>summary</title>
<polygon fill="none" stroke="black" points="109,-357 0,-357 0,-319 115,-319 115,-351 109,-357"/>
<polyline fill="none" stroke="black" points="109,-357 109,-351 "/>
<polyline fill="none" stroke="black" points="115,-351 109,-351 "/>
<text text-anchor="start" x="8" y="-341.8" font-family="Times,serif" font-size="14.00">パッケージ数: 5</text>
<text text-anchor="start" x="8" y="-326.8" font-family="Times,serif" font-size="14.00">関連数: 9</text>
</g>
<!-- mrs.domain.model.user -->
<g id="node2" class="node">
<title>mrs.domain.model.user</title>
<g id="a_node2"><a xlink:href="https://github.com/k2works/application_programing_excercise_2022/tree/take13/src/main/java/mrs/domain/model/user" xlink:title="利用者\nuser">
<polygon fill="#eedd82" stroke="black" points="233.5,-283 175.5,-283 175.5,-245 233.5,-245 233.5,-283"/>
<text text-anchor="middle" x="204.5" y="-267.8" font-family="Times,serif" font-size="14.00">利用者</text>
<text text-anchor="middle" x="204.5" y="-252.8" font-family="Times,serif" font-size="14.00">user</text>
</a>
</g>
</g>
<!-- mrs.domain.model.auth -->
<g id="node3" class="node">
<title>mrs.domain.model.auth</title>
<g id="a_node3"><a xlink:href="https://github.com/k2works/application_programing_excercise_2022/tree/take13/src/main/java/mrs/domain/model/auth" xlink:title="認証・認可\nauth">
<polygon fill="#eedd82" stroke="black" points="190.5,-209 104.5,-209 104.5,-171 190.5,-171 190.5,-209"/>
<text text-anchor="middle" x="147.5" y="-193.8" font-family="Times,serif" font-size="14.00">認証・認可</text>
<text text-anchor="middle" x="147.5" y="-178.8" font-family="Times,serif" font-size="14.00">auth</text>
</a>
</g>
</g>
<!-- mrs.domain.model.user&#45;&gt;mrs.domain.model.auth -->
<g id="edge1" class="edge">
<title>mrs.domain.model.user&#45;&gt;mrs.domain.model.auth</title>
<path fill="none" stroke="black" d="M190.12,-244.83C183.55,-236.54 175.65,-226.56 168.44,-217.45"/>
<polygon fill="black" stroke="black" points="171.03,-215.08 162.08,-209.41 165.54,-219.43 171.03,-215.08"/>
</g>
<!-- mrs.domain.model.reservation -->
<g id="node5" class="node">
<title>mrs.domain.model.reservation</title>
<g id="a_node5"><a xlink:href="https://github.com/k2works/application_programing_excercise_2022/tree/take13/src/main/java/mrs/domain/model/reservation" xlink:title="予約\nreservation">
<polygon fill="#eedd82" stroke="black" points="222,-135 143,-135 143,-97 222,-97 222,-135"/>
<text text-anchor="middle" x="182.5" y="-119.8" font-family="Times,serif" font-size="14.00">予約</text>
<text text-anchor="middle" x="182.5" y="-104.8" font-family="Times,serif" font-size="14.00">reservation</text>
</a>
</g>
</g>
<!-- mrs.domain.model.user&#45;&gt;mrs.domain.model.reservation -->
<g id="edge3" class="edge">
<title>mrs.domain.model.user&#45;&gt;mrs.domain.model.reservation</title>
<path fill="none" stroke="black" d="M204.85,-244.86C204.89,-226.19 204.1,-196.34 199.5,-171 197.93,-162.34 195.37,-153.13 192.72,-144.81"/>
<polygon fill="black" stroke="black" points="195.99,-143.57 189.49,-135.21 189.36,-145.8 195.99,-143.57"/>
</g>
<!-- mrs.domain.model.auth&#45;&gt;mrs.domain.model.reservation -->
<g id="edge5" class="edge">
<title>mrs.domain.model.auth&#45;&gt;mrs.domain.model.reservation</title>
<path fill="none" stroke="red" stroke-width="2" d="M160.77,-161.7C163.51,-156.07 166.39,-150.14 169.13,-144.51"/>
<polygon fill="red" stroke="red" stroke-width="2" points="157.56,-160.31 156.33,-170.83 163.85,-163.37 157.56,-160.31"/>
<polygon fill="red" stroke="red" stroke-width="2" points="172.32,-145.94 173.55,-135.41 166.03,-142.88 172.32,-145.94"/>
</g>
<!-- mrs.domain.model.contact -->
<g id="node4" class="node">
<title>mrs.domain.model.contact</title>
<g id="a_node4"><a xlink:href="https://github.com/k2works/application_programing_excercise_2022/tree/take13/src/main/java/mrs/domain/model/contact" xlink:title="問い合わせ\ncontact">
<polygon fill="#eedd82" stroke="black" points="219.5,-357 133.5,-357 133.5,-319 219.5,-319 219.5,-357"/>
<text text-anchor="middle" x="176.5" y="-341.8" font-family="Times,serif" font-size="14.00">問い合わせ</text>
<text text-anchor="middle" x="176.5" y="-326.8" font-family="Times,serif" font-size="14.00">contact</text>
</a>
</g>
</g>
<!-- mrs.domain.model.contact&#45;&gt;mrs.domain.model.user -->
<g id="edge6" class="edge">
<title>mrs.domain.model.contact&#45;&gt;mrs.domain.model.user</title>
<path fill="none" stroke="red" stroke-width="2" d="M187.23,-309.42C189.34,-303.98 191.56,-298.27 193.68,-292.82"/>
<polygon fill="red" stroke="red" stroke-width="2" points="183.93,-308.24 183.57,-318.83 190.45,-310.78 183.93,-308.24"/>
<polygon fill="red" stroke="red" stroke-width="2" points="196.98,-294 197.34,-283.41 190.45,-291.46 196.98,-294"/>
</g>
<!-- mrs.domain.model.contact&#45;&gt;mrs.domain.model.auth -->
<g id="edge2" class="edge">
<title>mrs.domain.model.contact&#45;&gt;mrs.domain.model.auth</title>
<path fill="none" stroke="black" d="M172.89,-318.8C167.94,-293.89 159,-248.89 153.16,-219.49"/>
<polygon fill="black" stroke="black" points="156.54,-218.55 151.16,-209.43 149.68,-219.92 156.54,-218.55"/>
</g>
<!-- mrs.domain.model.facility -->
<g id="node6" class="node">
<title>mrs.domain.model.facility</title>
<g id="a_node6"><a xlink:href="https://github.com/k2works/application_programing_excercise_2022/tree/take13/src/main/java/mrs/domain/model/facility" xlink:title="施設\nfacility">
<polygon fill="#eedd82" stroke="black" points="210.5,-61 154.5,-61 154.5,-23 210.5,-23 210.5,-61"/>
<text text-anchor="middle" x="182.5" y="-45.8" font-family="Times,serif" font-size="14.00">施設</text>
<text text-anchor="middle" x="182.5" y="-30.8" font-family="Times,serif" font-size="14.00">facility</text>
</a>
</g>
</g>
<!-- mrs.domain.model.reservation&#45;&gt;mrs.domain.model.facility -->
<g id="edge4" class="edge">
<title>mrs.domain.model.reservation&#45;&gt;mrs.domain.model.facility</title>
<path fill="none" stroke="red" stroke-width="2" d="M182.5,-86.57C182.5,-81.68 182.5,-76.59 182.5,-71.69"/>
<polygon fill="red" stroke="red" stroke-width="2" points="179,-86.83 182.5,-96.83 186,-86.83 179,-86.83"/>
<polygon fill="red" stroke="red" stroke-width="2" points="186,-71.41 182.5,-61.41 179,-71.41 186,-71.41"/>
</g>
</g>
</svg>
