<?xml version="1.0" encoding="UTF-8" standalone="no"?>
<!DOCTYPE svg PUBLIC "-//W3C//DTD SVG 1.1//EN"
        "http://www.w3.org/Graphics/SVG/1.1/DTD/svg11.dtd">
<!-- Generated by graphviz version 3.0.0 (20220226.1711)
 -->
<!-- Title: パッケージ関連図 Pages: 1 -->
<svg xmlns:xlink="http://www.w3.org/1999/xlink" width="226pt"
     height="143pt" viewBox="0.00 0.00 225.50 143.00" xmlns="http://www.w3.org/2000/svg">
    <g id="graph0" class="graph" transform="scale(1 1) rotate(0) translate(4 139)">
        <title>パッケージ関連図</title>
        <polygon fill="white" stroke="transparent" points="-4,4 -4,-139 221.5,-139 221.5,4 -4,4"/>
        <text text-anchor="middle" x="108.75" y="-7.8" font-family="Times New Roman,serif" font-size="14.00">パッケージ関連図
        </text>
        <!-- summary -->
        <g id="node1" class="node">
            <title>summary</title>
            <polygon fill="none" stroke="black" points="128,-135 0,-135 0,-97 134,-97 134,-129 128,-135"/>
            <polyline fill="none" stroke="black" points="128,-135 128,-129 "/>
            <polyline fill="none" stroke="black" points="134,-129 128,-129 "/>
            <text text-anchor="start" x="8" y="-119.8" font-family="Times New Roman,serif" font-size="14.00">パッケージ数: 2
            </text>
            <text text-anchor="start" x="8" y="-104.8" font-family="Times New Roman,serif" font-size="14.00">関連数: 2
            </text>
        </g>
        <!-- mrs.domain.model.auth -->
        <g id="node2" class="node">
            <title>mrs.domain.model.auth</title>
            <g id="a_node2">
                <a xlink:href="https://github.com/k2works/application_programing_excercise_2022/tree/take13/src/main/java/mrs/domain/model/auth"
                   xlink:title="認証\nauth">
                    <polygon fill="#eedd82" stroke="black" points="206,-135 152,-135 152,-97 206,-97 206,-135"/>
                    <text text-anchor="middle" x="179" y="-119.8" font-family="Times New Roman,serif" font-size="14.00">
                        認証
                    </text>
                    <text text-anchor="middle" x="179" y="-104.8" font-family="Times New Roman,serif" font-size="14.00">
                        auth
                    </text>
                </a>
            </g>
        </g>
        <!-- mrs.domain.model.reservation -->
        <g id="node3" class="node">
            <title>mrs.domain.model.reservation</title>
            <g id="a_node3">
                <a xlink:href="https://github.com/k2works/application_programing_excercise_2022/tree/take13/src/main/java/mrs/domain/model/reservation"
                   xlink:title="予約\nreservation">
                    <polygon fill="#eedd82" stroke="black" points="217.5,-61 140.5,-61 140.5,-23 217.5,-23 217.5,-61"/>
                    <text text-anchor="middle" x="179" y="-45.8" font-family="Times New Roman,serif" font-size="14.00">
                        予約
                    </text>
                    <text text-anchor="middle" x="179" y="-30.8" font-family="Times New Roman,serif" font-size="14.00">
                        reservation
                    </text>
                </a>
            </g>
        </g>
        <!-- mrs.domain.model.auth&#45;&gt;mrs.domain.model.reservation -->
        <g id="edge1" class="edge">
            <title>mrs.domain.model.auth&#45;&gt;mrs.domain.model.reservation</title>
            <path fill="none" stroke="red" stroke-width="2" d="M179,-86.57C179,-81.68 179,-76.59 179,-71.69"/>
            <polygon fill="red" stroke="red" stroke-width="2"
                     points="175.5,-86.83 179,-96.83 182.5,-86.83 175.5,-86.83"/>
            <polygon fill="red" stroke="red" stroke-width="2"
                     points="182.5,-71.41 179,-61.41 175.5,-71.41 182.5,-71.41"/>
        </g>
    </g>
</svg>
