<?xml version="1.0" encoding="UTF-8" standalone="no"?>
<!DOCTYPE svg PUBLIC "-//W3C//DTD SVG 1.1//EN"
        "http://www.w3.org/Graphics/SVG/1.1/DTD/svg11.dtd">
<!-- Generated by graphviz version 3.0.0 (20220226.1711)
 -->
<!-- Title: パッケージ関連図 Pages: 1 -->
<svg xmlns:xlink="http://www.w3.org/1999/xlink" width="290pt"
     height="413pt" viewBox="0.00 0.00 290.00 413.00" xmlns="http://www.w3.org/2000/svg">
    <g id="graph0" class="graph" transform="scale(1 1) rotate(0) translate(4 409)">
        <title>パッケージ関連図</title>
        <polygon fill="white" stroke="transparent" points="-4,4 -4,-409 286,-409 286,4 -4,4"/>
        <text text-anchor="middle" x="141" y="-7.8" font-family="Times New Roman,serif" font-size="14.00">パッケージ関連図
        </text>
        <g id="clust2" class="cluster">
            <title>cluster_mrs.domain.model.user</title>
            <polygon fill="lemonchiffon" stroke="#eedd82" stroke-width="2"
                     points="8,-205 8,-297 172,-297 172,-205 8,-205"/>
            <text text-anchor="middle" x="90" y="-281.8" font-family="Times New Roman,serif" font-size="14.00">利用者
            </text>
            <text text-anchor="middle" x="90" y="-266.8" font-family="Times New Roman,serif" font-size="14.00">user
            </text>
        </g>
        <g id="clust3" class="cluster">
            <title>cluster_mrs.domain.model.facility</title>
            <polygon fill="lemonchiffon" stroke="#eedd82" stroke-width="2"
                     points="185,-305 185,-397 269,-397 269,-305 185,-305"/>
            <text text-anchor="middle" x="227" y="-381.8" font-family="Times New Roman,serif" font-size="14.00">施設
            </text>
            <text text-anchor="middle" x="227" y="-366.8" font-family="Times New Roman,serif" font-size="14.00">
                facility
            </text>
        </g>
        <g id="clust1" class="cluster">
            <title>cluster_mrs.domain.model.reservation</title>
            <polygon fill="lemonchiffon" stroke="#eedd82" stroke-width="2"
                     points="180,-131 180,-297 274,-297 274,-131 180,-131"/>
            <text text-anchor="middle" x="227" y="-281.8" font-family="Times New Roman,serif" font-size="14.00">予約
            </text>
            <text text-anchor="middle" x="227" y="-266.8" font-family="Times New Roman,serif" font-size="14.00">
                reservation
            </text>
        </g>
        <g id="clust4" class="cluster">
            <title>cluster_mrs.domain.model.auth</title>
            <polygon fill="lemonchiffon" stroke="#eedd82" stroke-width="2"
                     points="79,-31 79,-123 182,-123 182,-31 79,-31"/>
            <text text-anchor="middle" x="130.5" y="-107.8" font-family="Times New Roman,serif" font-size="14.00">
                認証・認可
            </text>
            <text text-anchor="middle" x="130.5" y="-92.8" font-family="Times New Roman,serif" font-size="14.00">auth
            </text>
        </g>
        <!-- summary -->
        <g id="node1" class="node">
            <title>summary</title>
            <polygon fill="none" stroke="black" points="169,-351 41,-351 41,-313 175,-313 175,-345 169,-351"/>
            <polyline fill="none" stroke="black" points="169,-351 169,-345 "/>
            <polyline fill="none" stroke="black" points="175,-345 169,-345 "/>
            <text text-anchor="start" x="49" y="-335.8" font-family="Times New Roman,serif" font-size="14.00">パッケージ数:
                6
            </text>
            <text text-anchor="start" x="49" y="-320.8" font-family="Times New Roman,serif" font-size="14.00">関連数: 10
            </text>
        </g>
        <!-- mrs.domain.model.user.member -->
        <g id="node2" class="node">
            <title>mrs.domain.model.user.member</title>
            <g id="a_node2">
                <a xlink:href="https://github.com/k2works/application_programing_excercise_2022/tree/take13/src/main/java/mrs/domain/model/user/member"
                   xlink:title="会員\nmember">
                    <polygon fill="#eedd82" stroke="black" points="78,-251 16,-251 16,-213 78,-213 78,-251"/>
                    <text text-anchor="middle" x="47" y="-235.8" font-family="Times New Roman,serif" font-size="14.00">
                        会員
                    </text>
                    <text text-anchor="middle" x="47" y="-220.8" font-family="Times New Roman,serif" font-size="14.00">
                        member
                    </text>
                </a>
            </g>
        </g>
        <!-- mrs.domain.model.auth.user -->
        <g id="node3" class="node">
            <title>mrs.domain.model.auth.user</title>
            <g id="a_node3">
                <a xlink:href="https://github.com/k2works/application_programing_excercise_2022/tree/take13/src/main/java/mrs/domain/model/auth/user"
                   xlink:title="利用者\nuser">
                    <polygon fill="#eedd82" stroke="black" points="164,-77 96,-77 96,-39 164,-39 164,-77"/>
                    <text text-anchor="middle" x="130" y="-61.8" font-family="Times New Roman,serif" font-size="14.00">
                        利用者
                    </text>
                    <text text-anchor="middle" x="130" y="-46.8" font-family="Times New Roman,serif" font-size="14.00">
                        user
                    </text>
                </a>
            </g>
        </g>
        <!-- mrs.domain.model.user.member&#45;&gt;mrs.domain.model.auth.user -->
        <g id="edge1" class="edge">
            <title>mrs.domain.model.user.member&#45;&gt;mrs.domain.model.auth.user</title>
            <path fill="none" stroke="black" d="M55.73,-212.92C70.3,-182.72 99.67,-121.86 116.79,-86.38"/>
            <polygon fill="black" stroke="black" points="120.07,-87.63 121.27,-77.1 113.77,-84.58 120.07,-87.63"/>
        </g>
        <!-- mrs.domain.model.reservation.reservation -->
        <g id="node5" class="node">
            <title>mrs.domain.model.reservation.reservation</title>
            <g id="a_node5">
                <a xlink:href="https://github.com/k2works/application_programing_excercise_2022/tree/take13/src/main/java/mrs/domain/model/reservation/reservation"
                   xlink:title="予約\nreservation">
                    <polygon fill="#eedd82" stroke="black"
                             points="265.5,-177 188.5,-177 188.5,-139 265.5,-139 265.5,-177"/>
                    <text text-anchor="middle" x="227" y="-161.8" font-family="Times New Roman,serif" font-size="14.00">
                        予約
                    </text>
                    <text text-anchor="middle" x="227" y="-146.8" font-family="Times New Roman,serif" font-size="14.00">
                        reservation
                    </text>
                </a>
            </g>
        </g>
        <!-- mrs.domain.model.user.member&#45;&gt;mrs.domain.model.reservation.reservation -->
        <g id="edge4" class="edge">
            <title>mrs.domain.model.user.member&#45;&gt;mrs.domain.model.reservation.reservation</title>
            <path fill="none" stroke="black"
                  d="M72.68,-212.93C77.33,-210.06 82.22,-207.29 87,-205 116.28,-190.97 150.94,-179.54 178.44,-171.59"/>
            <polygon fill="black" stroke="black" points="179.56,-174.91 188.23,-168.82 177.66,-168.17 179.56,-174.91"/>
        </g>
        <!-- mrs.domain.model.user.staff -->
        <g id="node4" class="node">
            <title>mrs.domain.model.user.staff</title>
            <g id="a_node4">
                <a xlink:href="https://github.com/k2works/application_programing_excercise_2022/tree/take13/src/main/java/mrs/domain/model/user/staff"
                   xlink:title="管理者\nstaff">
                    <polygon fill="#eedd82" stroke="black" points="164,-251 96,-251 96,-213 164,-213 164,-251"/>
                    <text text-anchor="middle" x="130" y="-235.8" font-family="Times New Roman,serif" font-size="14.00">
                        管理者
                    </text>
                    <text text-anchor="middle" x="130" y="-220.8" font-family="Times New Roman,serif" font-size="14.00">
                        staff
                    </text>
                </a>
            </g>
        </g>
        <!-- mrs.domain.model.user.staff&#45;&gt;mrs.domain.model.auth.user -->
        <g id="edge2" class="edge">
            <title>mrs.domain.model.user.staff&#45;&gt;mrs.domain.model.auth.user</title>
            <path fill="none" stroke="black" d="M130,-212.92C130,-182.98 130,-122.9 130,-87.3"/>
            <polygon fill="black" stroke="black" points="133.5,-87.1 130,-77.1 126.5,-87.1 133.5,-87.1"/>
        </g>
        <!-- mrs.domain.model.user.staff&#45;&gt;mrs.domain.model.reservation.reservation -->
        <g id="edge3" class="edge">
            <title>mrs.domain.model.user.staff&#45;&gt;mrs.domain.model.reservation.reservation</title>
            <path fill="none" stroke="black" d="M154.48,-212.83C166.54,-203.88 181.25,-192.96 194.27,-183.3"/>
            <polygon fill="black" stroke="black" points="196.59,-185.93 202.53,-177.16 192.41,-180.31 196.59,-185.93"/>
        </g>
        <!-- mrs.domain.model.reservation.reservation&#45;&gt;mrs.domain.model.auth.user -->
        <g id="edge6" class="edge">
            <title>mrs.domain.model.reservation.reservation&#45;&gt;mrs.domain.model.auth.user</title>
            <path fill="none" stroke="red" stroke-width="2"
                  d="M201.38,-131.12C187.02,-116.6 169.18,-98.58 154.92,-84.18"/>
            <polygon fill="red" stroke="red" stroke-width="2"
                     points="199.23,-133.92 208.76,-138.57 204.21,-129 199.23,-133.92"/>
            <polygon fill="red" stroke="red" stroke-width="2"
                     points="157.36,-81.66 147.84,-77.02 152.38,-86.59 157.36,-81.66"/>
        </g>
        <!-- mrs.domain.model.facility.room -->
        <g id="node6" class="node">
            <title>mrs.domain.model.facility.room</title>
            <g id="a_node6">
                <a xlink:href="https://github.com/k2works/application_programing_excercise_2022/tree/take13/src/main/java/mrs/domain/model/facility/room"
                   xlink:title="会議室\nroom">
                    <polygon fill="#eedd82" stroke="black" points="261,-351 193,-351 193,-313 261,-313 261,-351"/>
                    <text text-anchor="middle" x="227" y="-335.8" font-family="Times New Roman,serif" font-size="14.00">
                        会議室
                    </text>
                    <text text-anchor="middle" x="227" y="-320.8" font-family="Times New Roman,serif" font-size="14.00">
                        room
                    </text>
                </a>
            </g>
        </g>
        <!-- mrs.domain.model.reservation.room -->
        <g id="node7" class="node">
            <title>mrs.domain.model.reservation.room</title>
            <g id="a_node7">
                <a xlink:href="https://github.com/k2works/application_programing_excercise_2022/tree/take13/src/main/java/mrs/domain/model/reservation/room"
                   xlink:title="会議室\nroom">
                    <polygon fill="#eedd82" stroke="black" points="261,-251 193,-251 193,-213 261,-213 261,-251"/>
                    <text text-anchor="middle" x="227" y="-235.8" font-family="Times New Roman,serif" font-size="14.00">
                        会議室
                    </text>
                    <text text-anchor="middle" x="227" y="-220.8" font-family="Times New Roman,serif" font-size="14.00">
                        room
                    </text>
                </a>
            </g>
        </g>
        <!-- mrs.domain.model.facility.room&#45;&gt;mrs.domain.model.reservation.room -->
        <g id="edge5" class="edge">
            <title>mrs.domain.model.facility.room&#45;&gt;mrs.domain.model.reservation.room</title>
            <path fill="none" stroke="red" stroke-width="2" d="M227,-302.31C227,-289.36 227,-274.1 227,-261.2"/>
            <polygon fill="red" stroke="red" stroke-width="2"
                     points="223.5,-302.57 227,-312.57 230.5,-302.57 223.5,-302.57"/>
            <polygon fill="red" stroke="red" stroke-width="2"
                     points="230.5,-261.02 227,-251.02 223.5,-261.02 230.5,-261.02"/>
        </g>
        <!-- mrs.domain.model.reservation.room&#45;&gt;mrs.domain.model.reservation.reservation -->
        <g id="edge7" class="edge">
            <title>mrs.domain.model.reservation.room&#45;&gt;mrs.domain.model.reservation.reservation</title>
            <path fill="none" stroke="red" stroke-width="2" d="M227,-202.57C227,-197.68 227,-192.59 227,-187.69"/>
            <polygon fill="red" stroke="red" stroke-width="2"
                     points="223.5,-202.83 227,-212.83 230.5,-202.83 223.5,-202.83"/>
            <polygon fill="red" stroke="red" stroke-width="2"
                     points="230.5,-187.41 227,-177.41 223.5,-187.41 230.5,-187.41"/>
        </g>
    </g>
</svg>
