<?xml version="1.0" encoding="UTF-8" standalone="no"?>
<!DOCTYPE svg PUBLIC "-//W3C//DTD SVG 1.1//EN"
        "http://www.w3.org/Graphics/SVG/1.1/DTD/svg11.dtd">
<!-- Generated by graphviz version 3.0.0 (20220226.1711)
 -->
<!-- Title: パッケージ関連図 Pages: 1 -->
<svg xmlns:xlink="http://www.w3.org/1999/xlink" width="277pt"
     height="365pt" viewBox="0.00 0.00 277.00 365.00" xmlns="http://www.w3.org/2000/svg">
    <g id="graph0" class="graph" transform="scale(1 1) rotate(0) translate(4 361)">
        <title>パッケージ関連図</title>
        <polygon fill="white" stroke="transparent" points="-4,4 -4,-361 273,-361 273,4 -4,4"/>
        <text text-anchor="middle" x="134.5" y="-7.8" font-family="Times New Roman,serif" font-size="14.00">パッケージ関連図
        </text>
        <!-- summary -->
        <g id="node1" class="node">
            <title>summary</title>
            <polygon fill="none" stroke="black" points="128,-357 0,-357 0,-319 134,-319 134,-351 128,-357"/>
            <polyline fill="none" stroke="black" points="128,-357 128,-351 "/>
            <polyline fill="none" stroke="black" points="134,-351 128,-351 "/>
            <text text-anchor="start" x="8" y="-341.8" font-family="Times New Roman,serif" font-size="14.00">パッケージ数: 5
            </text>
            <text text-anchor="start" x="8" y="-326.8" font-family="Times New Roman,serif" font-size="14.00">関連数: 9
            </text>
        </g>
        <!-- mrs.domain.model.user -->
        <g id="node2" class="node">
            <title>mrs.domain.model.user</title>
            <g id="a_node2">
                <a xlink:href="https://github.com/k2works/application_programing_excercise_2022/tree/take13/src/main/java/mrs/domain/model/user"
                   xlink:title="利用者\nuser">
                    <polygon fill="#eedd82" stroke="black" points="269,-283 201,-283 201,-245 269,-245 269,-283"/>
                    <text text-anchor="middle" x="235" y="-267.8" font-family="Times New Roman,serif" font-size="14.00">
                        利用者
                    </text>
                    <text text-anchor="middle" x="235" y="-252.8" font-family="Times New Roman,serif" font-size="14.00">
                        user
                    </text>
                </a>
            </g>
        </g>
        <!-- mrs.domain.model.auth -->
        <g id="node3" class="node">
            <title>mrs.domain.model.auth</title>
            <g id="a_node3">
                <a xlink:href="https://github.com/k2works/application_programing_excercise_2022/tree/take13/src/main/java/mrs/domain/model/auth"
                   xlink:title="認証・認可\nauth">
                    <polygon fill="#eedd82" stroke="black"
                             points="224.5,-209 121.5,-209 121.5,-171 224.5,-171 224.5,-209"/>
                    <text text-anchor="middle" x="173" y="-193.8" font-family="Times New Roman,serif" font-size="14.00">
                        認証・認可
                    </text>
                    <text text-anchor="middle" x="173" y="-178.8" font-family="Times New Roman,serif" font-size="14.00">
                        auth
                    </text>
                </a>
            </g>
        </g>
        <!-- mrs.domain.model.user&#45;&gt;mrs.domain.model.auth -->
        <g id="edge1" class="edge">
            <title>mrs.domain.model.user&#45;&gt;mrs.domain.model.auth</title>
            <path fill="none" stroke="black" d="M219.35,-244.83C212.14,-236.45 203.44,-226.35 195.54,-217.17"/>
            <polygon fill="black" stroke="black" points="198.03,-214.71 188.86,-209.41 192.73,-219.27 198.03,-214.71"/>
        </g>
        <!-- mrs.domain.model.reservation -->
        <g id="node5" class="node">
            <title>mrs.domain.model.reservation</title>
            <g id="a_node5">
                <a xlink:href="https://github.com/k2works/application_programing_excercise_2022/tree/take13/src/main/java/mrs/domain/model/reservation"
                   xlink:title="予約\nreservation">
                    <polygon fill="#eedd82" stroke="black"
                             points="251.5,-135 174.5,-135 174.5,-97 251.5,-97 251.5,-135"/>
                    <text text-anchor="middle" x="213" y="-119.8" font-family="Times New Roman,serif" font-size="14.00">
                        予約
                    </text>
                    <text text-anchor="middle" x="213" y="-104.8" font-family="Times New Roman,serif" font-size="14.00">
                        reservation
                    </text>
                </a>
            </g>
        </g>
        <!-- mrs.domain.model.user&#45;&gt;mrs.domain.model.reservation -->
        <g id="edge3" class="edge">
            <title>mrs.domain.model.user&#45;&gt;mrs.domain.model.reservation</title>
            <path fill="none" stroke="black"
                  d="M236.37,-244.83C237.36,-226.14 237.81,-196.27 233,-171 231.31,-162.11 228.31,-152.75 225.14,-144.36"/>
            <polygon fill="black" stroke="black" points="228.38,-143.04 221.41,-135.06 221.88,-145.64 228.38,-143.04"/>
        </g>
        <!-- mrs.domain.model.auth&#45;&gt;mrs.domain.model.reservation -->
        <g id="edge5" class="edge">
            <title>mrs.domain.model.auth&#45;&gt;mrs.domain.model.reservation</title>
            <path fill="none" stroke="red" stroke-width="2"
                  d="M188.01,-161.98C191.24,-156.16 194.66,-150.02 197.89,-144.2"/>
            <polygon fill="red" stroke="red" stroke-width="2"
                     points="184.89,-160.39 183.09,-170.83 191.01,-163.79 184.89,-160.39"/>
            <polygon fill="red" stroke="red" stroke-width="2"
                     points="200.97,-145.85 202.77,-135.41 194.85,-142.46 200.97,-145.85"/>
        </g>
        <!-- mrs.domain.model.contact -->
        <g id="node4" class="node">
            <title>mrs.domain.model.contact</title>
            <g id="a_node4">
                <a xlink:href="https://github.com/k2works/application_programing_excercise_2022/tree/take13/src/main/java/mrs/domain/model/contact"
                   xlink:title="問い合わせ\ncontact">
                    <polygon fill="#eedd82" stroke="black"
                             points="255.5,-357 152.5,-357 152.5,-319 255.5,-319 255.5,-357"/>
                    <text text-anchor="middle" x="204" y="-341.8" font-family="Times New Roman,serif" font-size="14.00">
                        問い合わせ
                    </text>
                    <text text-anchor="middle" x="204" y="-326.8" font-family="Times New Roman,serif" font-size="14.00">
                        contact
                    </text>
                </a>
            </g>
        </g>
        <!-- mrs.domain.model.contact&#45;&gt;mrs.domain.model.user -->
        <g id="edge6" class="edge">
            <title>mrs.domain.model.contact&#45;&gt;mrs.domain.model.user</title>
            <path fill="none" stroke="red" stroke-width="2"
                  d="M215.88,-309.42C218.22,-303.98 220.68,-298.27 223.02,-292.82"/>
            <polygon fill="red" stroke="red" stroke-width="2"
                     points="212.56,-308.26 211.82,-318.83 218.99,-311.03 212.56,-308.26"/>
            <polygon fill="red" stroke="red" stroke-width="2"
                     points="226.33,-293.98 227.07,-283.41 219.9,-291.21 226.33,-293.98"/>
        </g>
        <!-- mrs.domain.model.contact&#45;&gt;mrs.domain.model.auth -->
        <g id="edge2" class="edge">
            <title>mrs.domain.model.contact&#45;&gt;mrs.domain.model.auth</title>
            <path fill="none" stroke="black"
                  d="M199.82,-318.52C197.48,-308.1 194.54,-294.83 192,-283 187.43,-261.67 182.45,-237.52 178.73,-219.31"/>
            <polygon fill="black" stroke="black" points="182.13,-218.45 176.7,-209.35 175.27,-219.84 182.13,-218.45"/>
        </g>
        <!-- mrs.domain.model.facility -->
        <g id="node6" class="node">
            <title>mrs.domain.model.facility</title>
            <g id="a_node6">
                <a xlink:href="https://github.com/k2works/application_programing_excercise_2022/tree/take13/src/main/java/mrs/domain/model/facility"
                   xlink:title="施設\nfacility">
                    <polygon fill="#eedd82" stroke="black" points="240,-61 186,-61 186,-23 240,-23 240,-61"/>
                    <text text-anchor="middle" x="213" y="-45.8" font-family="Times New Roman,serif" font-size="14.00">
                        施設
                    </text>
                    <text text-anchor="middle" x="213" y="-30.8" font-family="Times New Roman,serif" font-size="14.00">
                        facility
                    </text>
                </a>
            </g>
        </g>
        <!-- mrs.domain.model.reservation&#45;&gt;mrs.domain.model.facility -->
        <g id="edge4" class="edge">
            <title>mrs.domain.model.reservation&#45;&gt;mrs.domain.model.facility</title>
            <path fill="none" stroke="red" stroke-width="2" d="M213,-86.57C213,-81.68 213,-76.59 213,-71.69"/>
            <polygon fill="red" stroke="red" stroke-width="2"
                     points="209.5,-86.83 213,-96.83 216.5,-86.83 209.5,-86.83"/>
            <polygon fill="red" stroke="red" stroke-width="2"
                     points="216.5,-71.41 213,-61.41 209.5,-71.41 216.5,-71.41"/>
        </g>
    </g>
</svg>
