<?xml version="1.0" encoding="UTF-8" standalone="no"?>
<!DOCTYPE svg PUBLIC "-//W3C//DTD SVG 1.1//EN"
        "http://www.w3.org/Graphics/SVG/1.1/DTD/svg11.dtd">
<!-- Generated by graphviz version 3.0.0 (20220226.1711)
 -->
<!-- Title: パッケージ関連図 Pages: 1 -->
<svg xmlns:xlink="http://www.w3.org/1999/xlink" width="476pt"
     height="413pt" viewBox="0.00 0.00 476.00 413.00" xmlns="http://www.w3.org/2000/svg">
    <g id="graph0" class="graph" transform="scale(1 1) rotate(0) translate(4 409)">
        <title>パッケージ関連図</title>
        <polygon fill="white" stroke="transparent" points="-4,4 -4,-409 472,-409 472,4 -4,4"/>
        <text text-anchor="middle" x="234" y="-7.8" font-family="Times New Roman,serif" font-size="14.00">パッケージ関連図
        </text>
        <g id="clust2" class="cluster">
            <title>cluster_mrs.domain.model.user</title>
            <polygon fill="lemonchiffon" stroke="#eedd82" stroke-width="2"
                     points="194,-205 194,-297 358,-297 358,-205 194,-205"/>
            <text text-anchor="middle" x="276" y="-281.8" font-family="Times New Roman,serif" font-size="14.00">利用者
            </text>
            <text text-anchor="middle" x="276" y="-266.8" font-family="Times New Roman,serif" font-size="14.00">user
            </text>
        </g>
        <g id="clust3" class="cluster">
            <title>cluster_mrs.domain.model.facility</title>
            <polygon fill="lemonchiffon" stroke="#eedd82" stroke-width="2"
                     points="371,-305 371,-397 455,-397 455,-305 371,-305"/>
            <text text-anchor="middle" x="413" y="-381.8" font-family="Times New Roman,serif" font-size="14.00">施設
            </text>
            <text text-anchor="middle" x="413" y="-366.8" font-family="Times New Roman,serif" font-size="14.00">
                facility
            </text>
        </g>
        <g id="clust1" class="cluster">
            <title>cluster_mrs.domain.model.reservation</title>
            <polygon fill="lemonchiffon" stroke="#eedd82" stroke-width="2"
                     points="366,-131 366,-297 460,-297 460,-131 366,-131"/>
            <text text-anchor="middle" x="413" y="-281.8" font-family="Times New Roman,serif" font-size="14.00">予約
            </text>
            <text text-anchor="middle" x="413" y="-266.8" font-family="Times New Roman,serif" font-size="14.00">
                reservation
            </text>
        </g>
        <g id="clust4" class="cluster">
            <title>cluster_mrs.domain.model.auth</title>
            <polygon fill="lemonchiffon" stroke="#eedd82" stroke-width="2"
                     points="208,-31 208,-123 311,-123 311,-31 208,-31"/>
            <text text-anchor="middle" x="259.5" y="-107.8" font-family="Times New Roman,serif" font-size="14.00">
                認証・認可
            </text>
            <text text-anchor="middle" x="259.5" y="-92.8" font-family="Times New Roman,serif" font-size="14.00">auth
            </text>
        </g>
        <!-- summary -->
        <g id="node1" class="node">
            <title>summary</title>
            <polygon fill="none" stroke="black" points="128,-351 0,-351 0,-313 134,-313 134,-345 128,-351"/>
            <polyline fill="none" stroke="black" points="128,-351 128,-345 "/>
            <polyline fill="none" stroke="black" points="134,-345 128,-345 "/>
            <text text-anchor="start" x="8" y="-335.8" font-family="Times New Roman,serif" font-size="14.00">パッケージ数: 7
            </text>
            <text text-anchor="start" x="8" y="-320.8" font-family="Times New Roman,serif" font-size="14.00">関連数: 12
            </text>
        </g>
        <!-- mrs.domain.model.user.member -->
        <g id="node2" class="node">
            <title>mrs.domain.model.user.member</title>
            <g id="a_node2">
                <a xlink:href="https://github.com/k2works/application_programing_excercise_2022/tree/take13/src/main/java/mrs/domain/model/user/member"
                   xlink:title="会員\nmember">
                    <polygon fill="#eedd82" stroke="black" points="264,-251 202,-251 202,-213 264,-213 264,-251"/>
                    <text text-anchor="middle" x="233" y="-235.8" font-family="Times New Roman,serif" font-size="14.00">
                        会員
                    </text>
                    <text text-anchor="middle" x="233" y="-220.8" font-family="Times New Roman,serif" font-size="14.00">
                        member
                    </text>
                </a>
            </g>
        </g>
        <!-- mrs.domain.model.auth.user -->
        <g id="node3" class="node">
            <title>mrs.domain.model.auth.user</title>
            <g id="a_node3">
                <a xlink:href="https://github.com/k2works/application_programing_excercise_2022/tree/take13/src/main/java/mrs/domain/model/auth/user"
                   xlink:title="利用者\nuser">
                    <polygon fill="#eedd82" stroke="black" points="293,-77 225,-77 225,-39 293,-39 293,-77"/>
                    <text text-anchor="middle" x="259" y="-61.8" font-family="Times New Roman,serif" font-size="14.00">
                        利用者
                    </text>
                    <text text-anchor="middle" x="259" y="-46.8" font-family="Times New Roman,serif" font-size="14.00">
                        user
                    </text>
                </a>
            </g>
        </g>
        <!-- mrs.domain.model.user.member&#45;&gt;mrs.domain.model.auth.user -->
        <g id="edge1" class="edge">
            <title>mrs.domain.model.user.member&#45;&gt;mrs.domain.model.auth.user</title>
            <path fill="none" stroke="black" d="M235.73,-212.92C240.26,-182.98 249.34,-122.9 254.72,-87.3"/>
            <polygon fill="black" stroke="black" points="258.23,-87.51 256.26,-77.1 251.31,-86.46 258.23,-87.51"/>
        </g>
        <!-- mrs.domain.model.reservation.reservation -->
        <g id="node6" class="node">
            <title>mrs.domain.model.reservation.reservation</title>
            <g id="a_node6">
                <a xlink:href="https://github.com/k2works/application_programing_excercise_2022/tree/take13/src/main/java/mrs/domain/model/reservation/reservation"
                   xlink:title="予約\nreservation">
                    <polygon fill="#eedd82" stroke="black"
                             points="451.5,-177 374.5,-177 374.5,-139 451.5,-139 451.5,-177"/>
                    <text text-anchor="middle" x="413" y="-161.8" font-family="Times New Roman,serif" font-size="14.00">
                        予約
                    </text>
                    <text text-anchor="middle" x="413" y="-146.8" font-family="Times New Roman,serif" font-size="14.00">
                        reservation
                    </text>
                </a>
            </g>
        </g>
        <!-- mrs.domain.model.user.member&#45;&gt;mrs.domain.model.reservation.reservation -->
        <g id="edge6" class="edge">
            <title>mrs.domain.model.user.member&#45;&gt;mrs.domain.model.reservation.reservation</title>
            <path fill="none" stroke="black"
                  d="M258.68,-212.93C263.33,-210.06 268.22,-207.29 273,-205 302.28,-190.97 336.94,-179.54 364.44,-171.59"/>
            <polygon fill="black" stroke="black" points="365.56,-174.91 374.23,-168.82 363.66,-168.17 365.56,-174.91"/>
        </g>
        <!-- mrs.domain.model.contact -->
        <g id="node4" class="node">
            <title>mrs.domain.model.contact</title>
            <g id="a_node4">
                <a xlink:href="https://github.com/k2works/application_programing_excercise_2022/tree/take13/src/main/java/mrs/domain/model/contact"
                   xlink:title="問い合わせ\ncontact">
                    <polygon fill="#eedd82" stroke="black"
                             points="255.5,-351 152.5,-351 152.5,-313 255.5,-313 255.5,-351"/>
                    <text text-anchor="middle" x="204" y="-335.8" font-family="Times New Roman,serif" font-size="14.00">
                        問い合わせ
                    </text>
                    <text text-anchor="middle" x="204" y="-320.8" font-family="Times New Roman,serif" font-size="14.00">
                        contact
                    </text>
                </a>
            </g>
        </g>
        <!-- mrs.domain.model.contact&#45;&gt;mrs.domain.model.user.member -->
        <g id="edge3" class="edge">
            <title>mrs.domain.model.contact&#45;&gt;mrs.domain.model.user.member</title>
            <path fill="none" stroke="black" d="M209.45,-312.57C213.78,-297.97 219.88,-277.34 224.79,-260.74"/>
            <polygon fill="black" stroke="black" points="228.19,-261.6 227.67,-251.02 221.47,-259.62 228.19,-261.6"/>
        </g>
        <!-- mrs.domain.model.contact&#45;&gt;mrs.domain.model.auth.user -->
        <g id="edge2" class="edge">
            <title>mrs.domain.model.contact&#45;&gt;mrs.domain.model.auth.user</title>
            <path fill="none" stroke="black"
                  d="M194.94,-312.7C192.91,-307.73 191.04,-302.26 190,-297 182.06,-256.89 181.05,-244.9 190,-205 199.91,-160.82 224.79,-114.27 241.79,-85.93"/>
            <polygon fill="black" stroke="black" points="244.78,-87.75 247.01,-77.39 238.81,-84.1 244.78,-87.75"/>
        </g>
        <!-- mrs.domain.model.user.staff -->
        <g id="node5" class="node">
            <title>mrs.domain.model.user.staff</title>
            <g id="a_node5">
                <a xlink:href="https://github.com/k2works/application_programing_excercise_2022/tree/take13/src/main/java/mrs/domain/model/user/staff"
                   xlink:title="管理者\nstaff">
                    <polygon fill="#eedd82" stroke="black" points="350,-251 282,-251 282,-213 350,-213 350,-251"/>
                    <text text-anchor="middle" x="316" y="-235.8" font-family="Times New Roman,serif" font-size="14.00">
                        管理者
                    </text>
                    <text text-anchor="middle" x="316" y="-220.8" font-family="Times New Roman,serif" font-size="14.00">
                        staff
                    </text>
                </a>
            </g>
        </g>
        <!-- mrs.domain.model.user.staff&#45;&gt;mrs.domain.model.auth.user -->
        <g id="edge4" class="edge">
            <title>mrs.domain.model.user.staff&#45;&gt;mrs.domain.model.auth.user</title>
            <path fill="none" stroke="black" d="M310.01,-212.92C300.04,-182.85 280,-122.38 268.23,-86.84"/>
            <polygon fill="black" stroke="black" points="271.47,-85.49 265,-77.1 264.82,-87.69 271.47,-85.49"/>
        </g>
        <!-- mrs.domain.model.user.staff&#45;&gt;mrs.domain.model.reservation.reservation -->
        <g id="edge5" class="edge">
            <title>mrs.domain.model.user.staff&#45;&gt;mrs.domain.model.reservation.reservation</title>
            <path fill="none" stroke="black" d="M340.48,-212.83C352.54,-203.88 367.25,-192.96 380.27,-183.3"/>
            <polygon fill="black" stroke="black" points="382.59,-185.93 388.53,-177.16 378.41,-180.31 382.59,-185.93"/>
        </g>
        <!-- mrs.domain.model.reservation.reservation&#45;&gt;mrs.domain.model.auth.user -->
        <g id="edge8" class="edge">
            <title>mrs.domain.model.reservation.reservation&#45;&gt;mrs.domain.model.auth.user</title>
            <path fill="none" stroke="red" stroke-width="2"
                  d="M375.92,-133.4C351.7,-117.99 320.21,-97.95 296.01,-82.55"/>
            <polygon fill="red" stroke="red" stroke-width="2"
                     points="374.08,-136.38 384.39,-138.8 377.84,-130.48 374.08,-136.38"/>
            <polygon fill="red" stroke="red" stroke-width="2"
                     points="297.77,-79.52 287.45,-77.11 294.01,-85.43 297.77,-79.52"/>
        </g>
        <!-- mrs.domain.model.facility.room -->
        <g id="node7" class="node">
            <title>mrs.domain.model.facility.room</title>
            <g id="a_node7">
                <a xlink:href="https://github.com/k2works/application_programing_excercise_2022/tree/take13/src/main/java/mrs/domain/model/facility/room"
                   xlink:title="会議室\nroom">
                    <polygon fill="#eedd82" stroke="black" points="447,-351 379,-351 379,-313 447,-313 447,-351"/>
                    <text text-anchor="middle" x="413" y="-335.8" font-family="Times New Roman,serif" font-size="14.00">
                        会議室
                    </text>
                    <text text-anchor="middle" x="413" y="-320.8" font-family="Times New Roman,serif" font-size="14.00">
                        room
                    </text>
                </a>
            </g>
        </g>
        <!-- mrs.domain.model.reservation.room -->
        <g id="node8" class="node">
            <title>mrs.domain.model.reservation.room</title>
            <g id="a_node8">
                <a xlink:href="https://github.com/k2works/application_programing_excercise_2022/tree/take13/src/main/java/mrs/domain/model/reservation/room"
                   xlink:title="会議室\nroom">
                    <polygon fill="#eedd82" stroke="black" points="447,-251 379,-251 379,-213 447,-213 447,-251"/>
                    <text text-anchor="middle" x="413" y="-235.8" font-family="Times New Roman,serif" font-size="14.00">
                        会議室
                    </text>
                    <text text-anchor="middle" x="413" y="-220.8" font-family="Times New Roman,serif" font-size="14.00">
                        room
                    </text>
                </a>
            </g>
        </g>
        <!-- mrs.domain.model.facility.room&#45;&gt;mrs.domain.model.reservation.room -->
        <g id="edge7" class="edge">
            <title>mrs.domain.model.facility.room&#45;&gt;mrs.domain.model.reservation.room</title>
            <path fill="none" stroke="red" stroke-width="2" d="M413,-302.31C413,-289.36 413,-274.1 413,-261.2"/>
            <polygon fill="red" stroke="red" stroke-width="2"
                     points="409.5,-302.57 413,-312.57 416.5,-302.57 409.5,-302.57"/>
            <polygon fill="red" stroke="red" stroke-width="2"
                     points="416.5,-261.02 413,-251.02 409.5,-261.02 416.5,-261.02"/>
        </g>
        <!-- mrs.domain.model.reservation.room&#45;&gt;mrs.domain.model.reservation.reservation -->
        <g id="edge9" class="edge">
            <title>mrs.domain.model.reservation.room&#45;&gt;mrs.domain.model.reservation.reservation</title>
            <path fill="none" stroke="red" stroke-width="2" d="M413,-202.57C413,-197.68 413,-192.59 413,-187.69"/>
            <polygon fill="red" stroke="red" stroke-width="2"
                     points="409.5,-202.83 413,-212.83 416.5,-202.83 409.5,-202.83"/>
            <polygon fill="red" stroke="red" stroke-width="2"
                     points="416.5,-187.41 413,-177.41 409.5,-187.41 416.5,-187.41"/>
        </g>
    </g>
</svg>
