<?xml version="1.0" encoding="UTF-8" standalone="no"?>
<!DOCTYPE svg PUBLIC "-//W3C//DTD SVG 1.1//EN"
        "http://www.w3.org/Graphics/SVG/1.1/DTD/svg11.dtd">
<!-- Generated by graphviz version 3.0.0 (20220226.1711)
 -->
<!-- Title: パッケージ関連図 Pages: 1 -->
<svg xmlns:xlink="http://www.w3.org/1999/xlink" width="448pt"
     height="213pt" viewBox="0.00 0.00 448.00 213.00" xmlns="http://www.w3.org/2000/svg">
    <g id="graph0" class="graph" transform="scale(1 1) rotate(0) translate(4 209)">
        <title>パッケージ関連図</title>
        <polygon fill="white" stroke="transparent" points="-4,4 -4,-209 444,-209 444,4 -4,4"/>
        <text text-anchor="middle" x="220" y="-7.8" font-family="Times New Roman,serif" font-size="14.00">パッケージ関連図
        </text>
        <g id="clust2" class="cluster">
            <title>cluster_mrs.domain.model.auth</title>
            <polygon fill="lemonchiffon" stroke="#eedd82" stroke-width="2"
                     points="144,-31 144,-197 330,-197 330,-31 144,-31"/>
            <text text-anchor="middle" x="237" y="-181.8" font-family="Times New Roman,serif" font-size="14.00">認証
            </text>
            <text text-anchor="middle" x="237" y="-166.8" font-family="Times New Roman,serif" font-size="14.00">auth
            </text>
        </g>
        <g id="clust1" class="cluster">
            <title>cluster_mrs.domain.model.reservation</title>
            <polygon fill="lemonchiffon" stroke="#eedd82" stroke-width="2"
                     points="338,-31 338,-197 432,-197 432,-31 338,-31"/>
            <text text-anchor="middle" x="385" y="-181.8" font-family="Times New Roman,serif" font-size="14.00">予約
            </text>
            <text text-anchor="middle" x="385" y="-166.8" font-family="Times New Roman,serif" font-size="14.00">
                reservation
            </text>
        </g>
        <!-- summary -->
        <g id="node1" class="node">
            <title>summary</title>
            <polygon fill="none" stroke="black" points="128,-151 0,-151 0,-113 134,-113 134,-145 128,-151"/>
            <polyline fill="none" stroke="black" points="128,-151 128,-145 "/>
            <polyline fill="none" stroke="black" points="134,-145 128,-145 "/>
            <text text-anchor="start" x="8" y="-135.8" font-family="Times New Roman,serif" font-size="14.00">パッケージ数: 5
            </text>
            <text text-anchor="start" x="8" y="-120.8" font-family="Times New Roman,serif" font-size="14.00">関連数: 8
            </text>
        </g>
        <!-- mrs.domain.model.auth.administrator -->
        <g id="node2" class="node">
            <title>mrs.domain.model.auth.administrator</title>
            <g id="a_node2">
                <a xlink:href="https://github.com/k2works/application_programing_excercise_2022/tree/take13/src/main/java/mrs/domain/model/auth/administrator"
                   xlink:title="管理者\nadministrator">
                    <polygon fill="#eedd82" stroke="black"
                             points="321.5,-151 232.5,-151 232.5,-113 321.5,-113 321.5,-151"/>
                    <text text-anchor="middle" x="277" y="-135.8" font-family="Times New Roman,serif" font-size="14.00">
                        管理者
                    </text>
                    <text text-anchor="middle" x="277" y="-120.8" font-family="Times New Roman,serif" font-size="14.00">
                        administrator
                    </text>
                </a>
            </g>
        </g>
        <!-- mrs.domain.model.reservation.reservation -->
        <g id="node3" class="node">
            <title>mrs.domain.model.reservation.reservation</title>
            <g id="a_node3">
                <a xlink:href="https://github.com/k2works/application_programing_excercise_2022/tree/take13/src/main/java/mrs/domain/model/reservation/reservation"
                   xlink:title="予約\nreservation">
                    <polygon fill="#eedd82" stroke="black" points="423.5,-77 346.5,-77 346.5,-39 423.5,-39 423.5,-77"/>
                    <text text-anchor="middle" x="385" y="-61.8" font-family="Times New Roman,serif" font-size="14.00">
                        予約
                    </text>
                    <text text-anchor="middle" x="385" y="-46.8" font-family="Times New Roman,serif" font-size="14.00">
                        reservation
                    </text>
                </a>
            </g>
        </g>
        <!-- mrs.domain.model.auth.administrator&#45;&gt;mrs.domain.model.reservation.reservation -->
        <g id="edge1" class="edge">
            <title>mrs.domain.model.auth.administrator&#45;&gt;mrs.domain.model.reservation.reservation</title>
            <path fill="none" stroke="black" d="M304.25,-112.83C317.94,-103.71 334.69,-92.54 349.38,-82.74"/>
            <polygon fill="black" stroke="black" points="351.38,-85.62 357.76,-77.16 347.49,-79.8 351.38,-85.62"/>
        </g>
        <!-- mrs.domain.model.auth.user -->
        <g id="node5" class="node">
            <title>mrs.domain.model.auth.user</title>
            <g id="a_node5">
                <a xlink:href="https://github.com/k2works/application_programing_excercise_2022/tree/take13/src/main/java/mrs/domain/model/auth/user"
                   xlink:title="利用者\nuser">
                    <polygon fill="#eedd82" stroke="black" points="311,-77 243,-77 243,-39 311,-39 311,-77"/>
                    <text text-anchor="middle" x="277" y="-61.8" font-family="Times New Roman,serif" font-size="14.00">
                        利用者
                    </text>
                    <text text-anchor="middle" x="277" y="-46.8" font-family="Times New Roman,serif" font-size="14.00">
                        user
                    </text>
                </a>
            </g>
        </g>
        <!-- mrs.domain.model.auth.administrator&#45;&gt;mrs.domain.model.auth.user -->
        <g id="edge4" class="edge">
            <title>mrs.domain.model.auth.administrator&#45;&gt;mrs.domain.model.auth.user</title>
            <path fill="none" stroke="black" d="M277,-112.83C277,-105.13 277,-95.97 277,-87.42"/>
            <polygon fill="black" stroke="black" points="280.5,-87.41 277,-77.41 273.5,-87.41 280.5,-87.41"/>
        </g>
        <!-- mrs.domain.model.reservation.reservation&#45;&gt;mrs.domain.model.auth.user -->
        <g id="edge5" class="edge">
            <title>mrs.domain.model.reservation.reservation&#45;&gt;mrs.domain.model.auth.user</title>
            <path fill="none" stroke="red" stroke-width="2" d="M336.19,-58C331.24,-58 326.29,-58 321.34,-58"/>
            <polygon fill="red" stroke="red" stroke-width="2"
                     points="336.36,-61.5 346.36,-58 336.36,-54.5 336.36,-61.5"/>
            <polygon fill="red" stroke="red" stroke-width="2"
                     points="321.17,-54.5 311.17,-58 321.17,-61.5 321.17,-54.5"/>
        </g>
        <!-- mrs.domain.model.auth.member -->
        <g id="node4" class="node">
            <title>mrs.domain.model.auth.member</title>
            <g id="a_node4">
                <a xlink:href="https://github.com/k2works/application_programing_excercise_2022/tree/take13/src/main/java/mrs/domain/model/auth/member"
                   xlink:title="会員\nmember">
                    <polygon fill="#eedd82" stroke="black" points="214,-151 152,-151 152,-113 214,-113 214,-151"/>
                    <text text-anchor="middle" x="183" y="-135.8" font-family="Times New Roman,serif" font-size="14.00">
                        会員
                    </text>
                    <text text-anchor="middle" x="183" y="-120.8" font-family="Times New Roman,serif" font-size="14.00">
                        member
                    </text>
                </a>
            </g>
        </g>
        <!-- mrs.domain.model.auth.member&#45;&gt;mrs.domain.model.reservation.reservation -->
        <g id="edge2" class="edge">
            <title>mrs.domain.model.auth.member&#45;&gt;mrs.domain.model.reservation.reservation</title>
            <path fill="none" stroke="black"
                  d="M214.21,-116.92C217.5,-115.55 220.8,-114.22 224,-113 272.05,-94.64 285.3,-93.56 334,-77 334.88,-76.7 335.76,-76.4 336.65,-76.1"/>
            <polygon fill="black" stroke="black" points="338.02,-79.33 346.33,-72.75 335.73,-72.71 338.02,-79.33"/>
        </g>
        <!-- mrs.domain.model.auth.member&#45;&gt;mrs.domain.model.auth.user -->
        <g id="edge3" class="edge">
            <title>mrs.domain.model.auth.member&#45;&gt;mrs.domain.model.auth.user</title>
            <path fill="none" stroke="black" d="M206.72,-112.83C218.41,-103.88 232.67,-92.96 245.28,-83.3"/>
            <polygon fill="black" stroke="black" points="247.48,-86.02 253.29,-77.16 243.22,-80.47 247.48,-86.02"/>
        </g>
        <!-- mrs.domain.model.reservation.room -->
        <g id="node6" class="node">
            <title>mrs.domain.model.reservation.room</title>
            <g id="a_node6">
                <a xlink:href="https://github.com/k2works/application_programing_excercise_2022/tree/take13/src/main/java/mrs/domain/model/reservation/room"
                   xlink:title="会議室\nroom">
                    <polygon fill="#eedd82" stroke="black" points="419,-151 351,-151 351,-113 419,-113 419,-151"/>
                    <text text-anchor="middle" x="385" y="-135.8" font-family="Times New Roman,serif" font-size="14.00">
                        会議室
                    </text>
                    <text text-anchor="middle" x="385" y="-120.8" font-family="Times New Roman,serif" font-size="14.00">
                        room
                    </text>
                </a>
            </g>
        </g>
        <!-- mrs.domain.model.reservation.room&#45;&gt;mrs.domain.model.reservation.reservation -->
        <g id="edge6" class="edge">
            <title>mrs.domain.model.reservation.room&#45;&gt;mrs.domain.model.reservation.reservation</title>
            <path fill="none" stroke="red" stroke-width="2" d="M385,-102.57C385,-97.68 385,-92.59 385,-87.69"/>
            <polygon fill="red" stroke="red" stroke-width="2"
                     points="381.5,-102.83 385,-112.83 388.5,-102.83 381.5,-102.83"/>
            <polygon fill="red" stroke="red" stroke-width="2"
                     points="388.5,-87.41 385,-77.41 381.5,-87.41 388.5,-87.41"/>
        </g>
    </g>
</svg>
