<?xml version="1.0" encoding="UTF-8" standalone="no"?>
<!DOCTYPE svg PUBLIC "-//W3C//DTD SVG 1.1//EN"
 "http://www.w3.org/Graphics/SVG/1.1/DTD/svg11.dtd">
<!-- Generated by graphviz version 3.0.0 (20220226.1711)
 -->
<!-- Title: ビジネスルール関連図 Pages: 1 -->
<svg width="476pt" height="283pt"
 viewBox="0.00 0.00 476.00 283.00" xmlns="http://www.w3.org/2000/svg" xmlns:xlink="http://www.w3.org/1999/xlink">
<g id="graph0" class="graph" transform="scale(1 1) rotate(0) translate(4 279)">
<title>ビジネスルール関連図</title>
<polygon fill="white" stroke="transparent" points="-4,4 -4,-279 472,-279 472,4 -4,4"/>
<text text-anchor="middle" x="234" y="-7.8" font-family="Times New Roman,serif" font-size="14.00">ビジネスルール関連図</text>
<g id="clust2" class="cluster">
<title>cluster_mrs.domain.model.room</title>
<polygon fill="lemonchiffon" stroke="#eedd82" stroke-width="2" points="8,-31 8,-182 290,-182 290,-31 8,-31"/>
<text text-anchor="middle" x="149" y="-166.8" font-family="Times New Roman,serif" font-size="14.00">room</text>
</g>
<g id="clust3" class="cluster">
<title>cluster_mrs.domain.model.user</title>
<polygon fill="lemonchiffon" stroke="#eedd82" stroke-width="2" points="298,-31 298,-267 460,-267 460,-31 298,-31"/>
<text text-anchor="middle" x="379" y="-251.8" font-family="Times New Roman,serif" font-size="14.00">user</text>
</g>
<g id="clust1" class="cluster">
<title>cluster_mrs.domain.model.reservation</title>
<polygon fill="lemonchiffon" stroke="#eedd82" stroke-width="2" points="173,-190 173,-267 273,-267 273,-190 173,-190"/>
<text text-anchor="middle" x="223" y="-251.8" font-family="Times New Roman,serif" font-size="14.00">reservation</text>
</g>
<!-- mrs.domain.model.reservation.Reservation -->
<g id="node1" class="node">
<title>mrs.domain.model.reservation.Reservation</title>
<polygon fill="#eedd82" stroke="black" points="264.5,-236 181.5,-236 181.5,-198 264.5,-198 264.5,-236"/>
<text text-anchor="middle" x="223" y="-220.8" font-family="Times New Roman,serif" font-size="14.00">予約</text>
<text text-anchor="middle" x="223" y="-205.8" font-family="Times New Roman,serif" font-size="14.00">Reservation</text>
</g>
<!-- mrs.domain.model.room.ReservableRoom -->
<g id="node3" class="node">
<title>mrs.domain.model.room.ReservableRoom</title>
<polygon fill="#eedd82" stroke="black" points="194.5,-151 57.5,-151 57.5,-113 194.5,-113 194.5,-151"/>
<text text-anchor="middle" x="126" y="-135.8" font-family="Times New Roman,serif" font-size="14.00">予約可能会議室</text>
<text text-anchor="middle" x="126" y="-120.8" font-family="Times New Roman,serif" font-size="14.00">ReservableRoom</text>
</g>
<!-- mrs.domain.model.reservation.Reservation&#45;&gt;mrs.domain.model.room.ReservableRoom -->
<g id="edge1" class="edge">
<title>mrs.domain.model.reservation.Reservation&#45;&gt;mrs.domain.model.room.ReservableRoom</title>
<path fill="none" stroke="black" d="M201.95,-197.99C188.32,-186.32 170.37,-170.97 155.34,-158.11"/>
<polygon fill="black" stroke="black" points="157.22,-155.1 147.34,-151.26 152.66,-160.42 157.22,-155.1"/>
</g>
<!-- mrs.domain.model.room.ReservableRoomId -->
<g id="node4" class="node">
<title>mrs.domain.model.room.ReservableRoomId</title>
<polygon fill="#eedd82" stroke="black" points="282,-77 130,-77 130,-39 282,-39 282,-77"/>
<text text-anchor="middle" x="206" y="-61.8" font-family="Times New Roman,serif" font-size="14.00">予約可能会議室ID</text>
<text text-anchor="middle" x="206" y="-46.8" font-family="Times New Roman,serif" font-size="14.00">ReservableRoomId</text>
</g>
<!-- mrs.domain.model.reservation.Reservation&#45;&gt;mrs.domain.model.room.ReservableRoomId -->
<g id="edge2" class="edge">
<title>mrs.domain.model.reservation.Reservation&#45;&gt;mrs.domain.model.room.ReservableRoomId</title>
<path fill="none" stroke="black" d="M221.05,-197.99C218.12,-170.93 212.55,-119.52 209.07,-87.38"/>
<polygon fill="black" stroke="black" points="212.54,-86.85 207.98,-77.28 205.58,-87.6 212.54,-86.85"/>
</g>
<!-- mrs.domain.model.user.User -->
<g id="node7" class="node">
<title>mrs.domain.model.user.User</title>
<polygon fill="#eedd82" stroke="black" points="374,-151 306,-151 306,-113 374,-113 374,-151"/>
<text text-anchor="middle" x="340" y="-135.8" font-family="Times New Roman,serif" font-size="14.00">利用者</text>
<text text-anchor="middle" x="340" y="-120.8" font-family="Times New Roman,serif" font-size="14.00">User</text>
</g>
<!-- mrs.domain.model.reservation.Reservation&#45;&gt;mrs.domain.model.user.User -->
<g id="edge3" class="edge">
<title>mrs.domain.model.reservation.Reservation&#45;&gt;mrs.domain.model.user.User</title>
<path fill="none" stroke="black" d="M264.65,-199.22C274.68,-194.34 285.07,-188.54 294,-182 302.9,-175.49 311.49,-167.11 318.8,-159.12"/>
<polygon fill="black" stroke="black" points="321.66,-161.18 325.64,-151.36 316.4,-156.55 321.66,-161.18"/>
</g>
<!-- mrs.domain.model.room.MeetingRoom -->
<g id="node2" class="node">
<title>mrs.domain.model.room.MeetingRoom</title>
<polygon fill="#eedd82" stroke="black" points="112,-77 16,-77 16,-39 112,-39 112,-77"/>
<text text-anchor="middle" x="64" y="-61.8" font-family="Times New Roman,serif" font-size="14.00">会議室</text>
<text text-anchor="middle" x="64" y="-46.8" font-family="Times New Roman,serif" font-size="14.00">MeetingRoom</text>
</g>
<!-- mrs.domain.model.room.ReservableRoom&#45;&gt;mrs.domain.model.room.MeetingRoom -->
<g id="edge4" class="edge">
<title>mrs.domain.model.room.ReservableRoom&#45;&gt;mrs.domain.model.room.MeetingRoom</title>
<path fill="none" stroke="black" d="M110.35,-112.83C103.14,-104.45 94.44,-94.35 86.54,-85.17"/>
<polygon fill="black" stroke="black" points="89.03,-82.71 79.86,-77.41 83.73,-87.27 89.03,-82.71"/>
</g>
<!-- mrs.domain.model.room.ReservableRoom&#45;&gt;mrs.domain.model.room.ReservableRoomId -->
<g id="edge5" class="edge">
<title>mrs.domain.model.room.ReservableRoom&#45;&gt;mrs.domain.model.room.ReservableRoomId</title>
<path fill="none" stroke="black" d="M146.19,-112.83C155.85,-104.13 167.58,-93.58 178.08,-84.13"/>
<polygon fill="black" stroke="black" points="180.73,-86.45 185.82,-77.16 176.04,-81.25 180.73,-86.45"/>
</g>
<!-- mrs.domain.model.user.ReservationUserDetails -->
<g id="node5" class="node">
<title>mrs.domain.model.user.ReservationUserDetails</title>
<polygon fill="#eedd82" stroke="black" points="452,-236 306,-236 306,-198 452,-198 452,-236"/>
<text text-anchor="middle" x="379" y="-220.8" font-family="Times New Roman,serif" font-size="14.00">認証済み利用者</text>
<text text-anchor="middle" x="379" y="-205.8" font-family="Times New Roman,serif" font-size="14.00">ReservationUserDetails</text>
</g>
<!-- mrs.domain.model.user.RoleName -->
<g id="node6" class="node">
<title>mrs.domain.model.user.RoleName</title>
<polygon fill="#eedd82" stroke="black" points="426.5,-77 323.5,-77 323.5,-39 426.5,-39 426.5,-77"/>
<text text-anchor="middle" x="375" y="-61.8" font-family="Times New Roman,serif" font-size="14.00">利用者区分</text>
<text text-anchor="middle" x="375" y="-46.8" font-family="Times New Roman,serif" font-size="14.00">RoleName</text>
</g>
<!-- mrs.domain.model.user.ReservationUserDetails&#45;&gt;mrs.domain.model.user.RoleName -->
<g id="edge6" class="edge">
<title>mrs.domain.model.user.ReservationUserDetails&#45;&gt;mrs.domain.model.user.RoleName</title>
<path fill="none" stroke="black" d="M381.55,-197.68C382.15,-192.61 382.7,-187.1 383,-182 384.79,-151.39 385.25,-143.58 383,-113 382.38,-104.63 381.24,-95.58 380,-87.33"/>
<polygon fill="black" stroke="black" points="383.45,-86.74 378.41,-77.42 376.54,-87.85 383.45,-86.74"/>
</g>
<!-- mrs.domain.model.user.ReservationUserDetails&#45;&gt;mrs.domain.model.user.User -->
<g id="edge7" class="edge">
<title>mrs.domain.model.user.ReservationUserDetails&#45;&gt;mrs.domain.model.user.User</title>
<path fill="none" stroke="black" d="M370.54,-197.99C365.41,-187.08 358.77,-172.94 352.99,-160.64"/>
<polygon fill="black" stroke="black" points="356,-158.82 348.58,-151.26 349.67,-161.8 356,-158.82"/>
</g>
<!-- mrs.domain.model.user.User&#45;&gt;mrs.domain.model.user.RoleName -->
<g id="edge8" class="edge">
<title>mrs.domain.model.user.User&#45;&gt;mrs.domain.model.user.RoleName</title>
<path fill="none" stroke="black" d="M348.83,-112.83C352.7,-104.88 357.32,-95.37 361.6,-86.57"/>
<polygon fill="black" stroke="black" points="364.82,-87.94 366.05,-77.41 358.53,-84.88 364.82,-87.94"/>
</g>
</g>
</svg>
