<?xml version="1.0" encoding="UTF-8" standalone="no"?>
<!DOCTYPE svg PUBLIC "-//W3C//DTD SVG 1.1//EN"
 "http://www.w3.org/Graphics/SVG/1.1/DTD/svg11.dtd">
<!-- Generated by graphviz version 3.0.0 (20220226.1711)
 -->
<!-- Title: コンポーネント関連図 Pages: 1 -->
<svg width="197pt" height="114pt"
 viewBox="0.00 0.00 197.00 114.00" xmlns="http://www.w3.org/2000/svg" xmlns:xlink="http://www.w3.org/1999/xlink">
<g id="graph0" class="graph" transform="scale(1 1) rotate(0) translate(12.5 87)">
<title>コンポーネント関連図</title>
<polygon fill="white" stroke="transparent" points="-12.5,27 -12.5,-87 184.5,-87 184.5,27 -12.5,27"/>
<text text-anchor="middle" x="86" y="15.2" font-family="Times New Roman,serif" font-size="14.00">コンポーネント関連図</text>
<!-- SPRING_SERVICE -->
<g id="node1" class="node">
<title>SPRING_SERVICE</title>
<polygon fill="#eedd82" stroke="black" points="92.56,-36.37 34.56,-36.37 34.56,-32.37 30.56,-32.37 30.56,-28.37 34.56,-28.37 34.56,-8.37 30.56,-8.37 30.56,-4.37 34.56,-4.37 34.56,-0.37 92.56,-0.37 92.56,-36.37"/>
<polyline fill="none" stroke="black" points="34.56,-32.37 38.56,-32.37 38.56,-28.37 34.56,-28.37 "/>
<polyline fill="none" stroke="black" points="34.56,-8.37 38.56,-8.37 38.56,-4.37 34.56,-4.37 "/>
<text text-anchor="middle" x="63.56" y="-14.67" font-family="Times New Roman,serif" font-size="14.00">Service</text>
</g>
<!-- SPRING_CONTROLLER -->
<g id="node2" class="node">
<title>SPRING_CONTROLLER</title>
<polygon fill="#eedd82" stroke="black" points="136.53,-82.93 63.53,-82.93 63.53,-78.93 59.53,-78.93 59.53,-74.93 63.53,-74.93 63.53,-54.93 59.53,-54.93 59.53,-50.93 63.53,-50.93 63.53,-46.93 136.53,-46.93 136.53,-82.93"/>
<polyline fill="none" stroke="black" points="63.53,-78.93 67.53,-78.93 67.53,-74.93 63.53,-74.93 "/>
<polyline fill="none" stroke="black" points="63.53,-54.93 67.53,-54.93 67.53,-50.93 63.53,-50.93 "/>
<text text-anchor="middle" x="100.03" y="-61.23" font-family="Times New Roman,serif" font-size="14.00">Controller</text>
</g>
<!-- SPRING_CONTROLLER&#45;&gt;SPRING_SERVICE -->
<g id="edge1" class="edge">
<title>SPRING_CONTROLLER&#45;&gt;SPRING_SERVICE</title>
<path fill="none" stroke="black" d="M85.83,-46.79C85.25,-46.06 84.67,-45.31 84.08,-44.56"/>
<polygon fill="black" stroke="black" points="86.71,-42.25 77.79,-36.53 81.2,-46.56 86.71,-42.25"/>
<text text-anchor="middle" x="81.46" y="-34.48" font-family="Times New Roman,serif" font-size="14.00">3</text>
</g>
</g>
</svg>
